<?xml version="1.0" encoding="utf-8"?>
<!-- Generator: Adobe Illustrator 18.0.0, SVG Export Plug-In . SVG Version: 6.00 Build 0)  -->
<!DOCTYPE svg PUBLIC "-//W3C//DTD SVG 1.1//EN" "http://www.w3.org/Graphics/SVG/1.1/DTD/svg11.dtd">
<svg version="1.1" id="Layer_1" xmlns="http://www.w3.org/2000/svg" xmlns:xlink="http://www.w3.org/1999/xlink" x="0px" y="0px"
	 viewBox="0 0 80 80" enable-background="new 0 0 80 80" xml:space="preserve">
<rect x="-162.2" y="-59.8" display="none" fill="#010101" width="2068" height="478"/>
<path display="none" fill="none" stroke="#FFFFFF" stroke-miterlimit="10" d="M295.1,202.4H7.1c-18.5,0-33.7-15.1-33.7-33.7l0,0
	c0-18.5,15.1-33.7,33.7-33.7h287.8c18.5,0,33.7,15.1,33.7,33.7l0,0C328.8,187.3,313.7,202.4,295.1,202.4z"/>
<g display="none">
	
		<text transform="matrix(1 0 0 1 52.3974 178.3631)" display="inline" fill="#FFFFFF" font-family="'HelveticaNeue-Light'" font-size="23.1324">TEXT IN ALL CAPS</text>
</g>
<g display="none">
	<g display="inline">
		<path fill="#FFFFFF" d="M436.3,229c-33.2,0-60.2-27.1-60.2-60.2s27.1-60.2,60.2-60.2s60.2,27.1,60.2,60.2S469.5,229,436.3,229z
			 M436.3,111c-32,0-57.8,25.9-57.8,57.8s25.9,57.8,57.8,57.8s57.8-25.9,57.8-57.8S468,111,436.3,111z"/>
	</g>
	<g display="inline">
		
			<rect x="435.2" y="138.8" transform="matrix(-0.7071 -0.7071 0.7071 -0.7071 625.7394 596.4925)" fill="#FFFFFF" width="2.4" height="59.8"/>
	</g>
	<g display="inline">
		
			<rect x="406.5" y="167.6" transform="matrix(-0.7071 -0.7071 0.7071 -0.7071 625.6418 596.7858)" fill="#FFFFFF" width="59.8" height="2.4"/>
	</g>
</g>
<g display="none">
	
		<text transform="matrix(1 0 0 1 1623.6418 9.8572)" display="inline" fill="#FFFFFF" font-family="'HelveticaNeue-Light'" font-size="23.1324">LAPTOP</text>
	
		<text transform="matrix(1 0 0 1 1623.6418 37.6627)" display="inline" fill="#FFFFFF" font-family="'HelveticaNeue-Light'" font-size="23.1324">SMARTPHONE</text>
	
		<text transform="matrix(1 0 0 1 1623.6418 65.4674)" display="inline" fill="#FFFFFF" font-family="'HelveticaNeue-Light'" font-size="23.1324">TABLET</text>
	
		<text transform="matrix(1 0 0 1 1623.6418 93.028)" display="inline" fill="#FFFFFF" font-family="'HelveticaNeue-Light'" font-size="23.1324">HARD DRIVE</text>
	
		<text transform="matrix(1 0 0 1 1623.6418 120.8328)" display="inline" fill="#FFFFFF" font-family="'HelveticaNeue-Light'" font-size="23.1324">CLOUD STORAGE</text>
	
		<text transform="matrix(1 0 0 1 1623.6418 148.6383)" display="inline" fill="#FFFFFF" font-family="'HelveticaNeue-Light'" font-size="23.1324">DSLR</text>
	
		<text transform="matrix(1 0 0 1 1623.6418 176.443)" display="inline" fill="#FFFFFF" font-family="'HelveticaNeue-Light'" font-size="23.1324">GAME CONTROLLER</text>
	
		<text transform="matrix(1 0 0 1 1623.6418 204.2477)" display="inline" fill="#FFFFFF" font-family="'HelveticaNeue-Light'" font-size="23.1324">WACOM PEN</text>
	
		<text transform="matrix(1 0 0 1 1623.6418 231.8091)" display="inline" fill="#FFFFFF" font-family="'HelveticaNeue-Light'" font-size="23.1324">HEADPHONES</text>
	
		<text transform="matrix(1 0 0 1 1623.6418 259.6138)" display="inline" fill="#FFFFFF" font-family="'HelveticaNeue-Light'" font-size="23.1324">MIC</text>
</g>
<g>
	<path fill="#AAAD00" d="M73.2,57.3H6.6c-3.7,0-6.8-2.9-6.8-6.8V16.1C0,12.2,2.9,9.3,6.6,9.3h66.6c3.7,0,6.6,2.9,6.6,6.8v34.6
		C80,54.4,77.1,57.3,73.2,57.3z M6.6,12.9c-1.7,0-2.9,1.5-2.9,2.9v34.6c0,1.7,1.5,2.9,2.9,2.9h66.6c1.7,0,2.9-1.5,2.9-2.9V16.1
		c0-1.7-1.5-2.9-2.9-2.9H6.6V12.9z"/>
</g>
<g>
	<path fill="#AAAD00" d="M78,49.5H1.7c-1,0-2-0.7-2-1.7c0.2-1,1-2,2-2H78c1,0,2,0.7,2,2C80,48.8,79.3,49.5,78,49.5z"/>
</g>
<g>
	<path fill="#AAAD00" d="M49.8,65.1H30.2c-1,0-2-0.7-2-2v-5.4c0-1,0.7-2,2-2s2,0.7,2,2v3.7H48v-3.7c0-1,0.7-2,2-2s2,0.7,2,2v5.4
		C51.5,64.1,50.7,65.1,49.8,65.1z"/>
</g>
<g>
	<path fill="#AAAD00" d="M56.1,70.7H23.7c-0.7,0-1.2-0.5-1.2-1.2V69c0-0.7,0.5-1.2,1.2-1.2h32.4c0.7,0,1.2,0.5,1.2,1.2v0.5
		C57.3,70.2,56.8,70.7,56.1,70.7z"/>
</g>
<g display="none">
	<path display="inline" fill="#FFFFFF" d="M936.3,65.1h-46.6c-9,0-16.6-7.8-16.6-16.8c0-6.6,3.9-12.7,9.8-15.4
		c0.2-6.3,5.4-11.2,11.7-11.2c2,0,3.9,0.5,5.6,1.5c3.7-6.8,11-11.2,18.8-11.2c9.5,0,17.6,6.1,20.5,15.1c8.8,1.5,15.6,9.8,15.6,19
		C955.4,56.1,946.8,65.1,936.3,65.1z M894.9,25.1c-4.4,0-8,3.7-8,8v0.2l0.2,1.7l-1.5,0.5c-5.1,1.7-8.5,6.8-8.5,12.4
		c0,7.1,5.9,13.2,12.9,13.2h46.6c8.3,0,15.4-7.1,15.4-15.6c0-7.8-6.1-14.6-13.7-15.6l-1.2-0.2l-0.5-1c-2-8-9-13.4-17.1-13.4
		c-7.3,0-13.7,4.4-16.3,11l-1,2.4l-2.2-1.7C898.5,25.9,896.8,25.1,894.9,25.1z"/>
</g>
<g display="none">
	<g display="inline">
		<path fill="#FFFFFF" d="M596.6,66.6h-62.2c-3.2,0-3.7-1.7-3.7-2.9V22.9l2-0.2c7.3,0,12-2.7,14.9-4.4c1.7-1,3.2-1.7,4.4-1.7h0.5
			l0.7-4.4c0.2-2,2.2-3.4,4.1-3.4h20.2c2,0,3.7,1.5,4.1,3.2l1,4.6h14.1c2.2,0,3.7,2.7,3.7,4.6v42.7
			C600.2,65.1,599.8,66.6,596.6,66.6z M534.4,62.9L534.4,62.9h62.2l0,0V21c0-0.2-0.2-0.7-0.5-1h-16.8l-1.5-7.3
			c0-0.2-0.5-0.5-0.7-0.5h-20.2c-0.2,0-0.5,0.2-0.5,0.5l-1.2,7.3h-3.4c-0.5,0-1.7,0.7-2.7,1.2c-2.9,1.7-7.6,4.4-14.9,4.9v36.8H534.4
			z"/>
	</g>
	<g display="inline">
		<rect x="530.7" y="16.3" fill="#FFFFFF" width="7.8" height="3.7"/>
	</g>
	<g display="inline">
		<path fill="#FFFFFF" d="M567.6,58.8c-9.5,0-17.3-7.8-17.3-17.3s7.8-17.3,17.3-17.3s17.3,7.8,17.3,17.3S577.1,58.8,567.6,58.8z
			 M567.6,27.8c-7.6,0-13.7,6.1-13.7,13.7s6.1,13.7,13.7,13.7s13.7-6.1,13.7-13.7S575.1,27.8,567.6,27.8z"/>
	</g>
</g>
<g display="none">
	<path display="inline" fill="#FFFFFF" d="M826.1,67.6h-50V18.8h36.6c1,0,2,0.7,2,2c0,1.2-0.7,2-2,2h-32.9v41.5h42.7V30.7
		c0-1,0.7-2,2-2c1.2,0,2,0.7,2,2v36.8H826.1z"/>
</g>
<g display="none">
	<path display="inline" fill="#FFFFFF" d="M797.6,49.5c-0.5,0-1-0.2-1.2-0.5c-0.7-0.7-0.7-2,0-2.7l37.6-37.6c0.5-0.5,1.2-0.7,2-0.5
		s1.2,1,1.2,1.7v18.8c0,1-0.7,2-2,2c-1.2,0-2-0.7-2-2V14.4l-34.4,34.4C798.5,49.3,798,49.5,797.6,49.5z"/>
</g>
<g display="none">
	<path display="inline" fill="#FFFFFF" d="M835.1,12h-20.5c-1,0-2-0.7-2-2s0.7-2,2-2h20.5c1,0,2,0.7,2,2S836.1,12,835.1,12z"/>
</g>
<g display="none">
	<path display="inline" fill="#FFFFFF" d="M718.5,66.3h-59.3c-4.4,0-7.6-2.7-7.6-6.6V40.5c0-0.5,0-1,0.2-1.5l8.5-18.3
		c0.2-0.7,0.5-1,0.7-1.2c1-1.7,2.7-4.9,6.3-4.9H710c3.9,0,5.6,3.2,6.6,4.9c0.2,0.5,0.5,0.7,0.5,1l8.5,18.8c0.2,0.5,0.2,1,0.2,1.5V60
		C725.9,63.7,722.9,66.3,718.5,66.3z M667.6,18.3c-1.5,0-2.2,1.2-3.2,2.9c-0.2,0.5-0.5,0.7-0.7,1.2l-8.3,18.3v19
		c0,2.7,2.7,2.9,3.9,2.9h59.3c1.2,0,3.9-0.2,3.9-2.9V40.5l-8.5-18.3c0,0-0.2-0.5-0.5-0.7c-1.2-2-2-3.2-3.4-3.2
		C710,18.3,667.6,18.3,667.6,18.3z"/>
</g>
<g display="none">
	<rect x="653.4" y="38.5" display="inline" fill="#FFFFFF" width="70.7" height="3.7"/>
</g>
<g display="none">
	<path display="inline" fill="#FFFFFF" d="M663.4,56.8c-1,0-2-0.7-2-2v-5.1c0-1,0.7-1.7,2-1.7c1.2,0,2,0.7,2,1.7v5.1
		C665.1,56.1,664.4,56.8,663.4,56.8z"/>
</g>
<g display="none">
	<path display="inline" fill="#FFFFFF" d="M671.2,56.8c-1,0-2-0.7-2-2v-5.1c0-1,0.7-1.7,2-1.7c1.2,0,2,0.7,2,1.7v5.1
		C673.2,56.1,672.2,56.8,671.2,56.8z"/>
</g>
<g display="none">
	<path display="inline" fill="#FFFFFF" d="M459,68.8h-75.1c-4.6,0-8.5-3.9-8.5-8.5V22.9c0-4.6,3.9-8.5,8.5-8.5H459
		c4.6,0,8.5,3.9,8.5,8.5v37.3C467.8,64.9,463.9,68.8,459,68.8z M384.1,18c-2.7,0-4.9,2.2-4.9,4.9v37.3c0,2.7,2.2,4.9,4.9,4.9h75.1
		c2.7,0,4.9-2.2,4.9-4.9V22.9c0-2.7-2.2-4.9-4.9-4.9H384.1z"/>
</g>
<g display="none">
	<rect x="454.9" y="16.1" display="inline" fill="#FFFFFF" width="3.7" height="50.7"/>
</g>
<g display="none">
	<rect x="384.4" y="16.1" display="inline" fill="#FFFFFF" width="3.7" height="50.7"/>
</g>
<g display="none">
	<path display="inline" fill="#FFFFFF" d="M315.6,70.5H290c-3.7,0-6.6-2.9-6.6-6.6V12.2c0-3.7,2.9-6.6,6.6-6.6h25.6
		c3.7,0,6.6,2.9,6.6,6.6v51.7C322.2,67.8,319.3,70.5,315.6,70.5z M289.8,9.5c-1.5,0-2.9,1.2-2.9,2.9v51.7c0,1.5,1.2,2.9,2.9,2.9
		h25.6c1.5,0,2.9-1.2,2.9-2.9v-52c0-1.5-1.2-2.9-2.9-2.9h-25.6V9.5z"/>
</g>
<g display="none">
	<rect x="285.1" y="61.2" display="inline" fill="#FFFFFF" width="35.1" height="2.4"/>
</g>
<g display="none">
	<rect x="285.1" y="12.7" display="inline" fill="#FFFFFF" width="35.1" height="2.4"/>
</g>
<g display="none">
	<path display="inline" fill="#FFFFFF" d="M1005.6,72c-2.9,0-7.8-1.2-9.3-9.5c-0.2-0.7-4.4-21.2,6.8-40c4.4-7.3,9.8-11,16.6-11
		c7.1,0,12.9,4.1,13.4,4.6c0.7,0.5,2.4,1.2,3.2,1.2h4.4c1,0,2.4-0.5,3.2-1.2l0,0c0,0,6.1-4.9,13.7-4.9c6.8,0,12.4,3.7,16.6,11
		c11,18.8,6.8,39.3,6.8,40.2c-1.2,8-6.3,9.3-9,9.3c-0.2,0-0.7,0-1,0c-1.2,0-5.1-0.5-16.3-15.9l-0.2-0.5c-0.5-0.7-1.7-1.2-2.7-1.2
		h-26.6c-0.7,0-2,0.7-2.7,1.2l-0.2,0.5c-11,15.4-14.6,15.6-16.1,15.9C1006.3,72,1005.9,72,1005.6,72z M1020,15.1
		c-5.4,0-10,3.2-13.4,9c-10.5,17.6-6.6,36.8-6.3,37.6c0.7,4.6,2.7,6.6,6.1,6.3c0.5,0,3.9-1,13.4-14.1c0.2-0.2,0.5-0.5,0.5-0.5
		c1.2-1.5,3.4-2.7,5.4-2.7h26.6c2,0,4.1,1.2,5.4,2.7c0,0,0.2,0.2,0.5,0.5c10,13.7,13.4,14.4,13.7,14.4c3.4,0.2,5.4-1.7,6.1-6.3
		c0.2-1,4.1-20-6.3-37.6c-3.7-6.1-8-9-13.4-9c-6.1,0-11.2,3.9-11.2,3.9c-1.5,1-3.9,2-5.6,2h-4.6c-1.7,0-4.1-0.7-5.6-2
		C1031,19,1025.9,15.1,1020,15.1z"/>
</g>
<g display="none">
	<path display="inline" fill="#FFFFFF" d="M1053.4,44.6c-2.4,0-4.4-2-4.4-4.4c0-2.4,2-4.4,4.4-4.4c2.4,0,4.4,2,4.4,4.4
		C1057.8,42.7,1055.9,44.6,1053.4,44.6z M1053.4,37.8c-1.5,0-2.4,1.2-2.4,2.4c0,1.2,1.2,2.4,2.4,2.4c1.5,0,2.4-1.2,2.4-2.4
		C1055.9,39,1054.9,37.8,1053.4,37.8z"/>
</g>
<g display="none">
	<path display="inline" fill="#FFFFFF" d="M1053.4,34.4c-2.4,0-4.4-2-4.4-4.4c0-2.4,2-4.4,4.4-4.4c2.4,0,4.4,2,4.4,4.4
		C1057.8,32.4,1055.9,34.4,1053.4,34.4z M1053.4,27.6c-1.5,0-2.4,1.2-2.4,2.4c0,1.2,1.2,2.4,2.4,2.4c1.5,0,2.4-1.2,2.4-2.4
		C1055.9,28.8,1054.9,27.6,1053.4,27.6z"/>
</g>
<g display="none">
	<path display="inline" fill="#FFFFFF" d="M1063.7,39.5c-2.4,0-4.4-2-4.4-4.4c0-2.4,2-4.4,4.4-4.4c2.4,0,4.4,2,4.4,4.4
		C1068,37.6,1066.1,39.5,1063.7,39.5z M1063.7,32.7c-1.5,0-2.4,1.2-2.4,2.4s1.2,2.4,2.4,2.4s2.4-1.2,2.4-2.4
		S1065.1,32.7,1063.7,32.7z"/>
</g>
<g display="none">
	<path display="inline" fill="#FFFFFF" d="M1019.3,43.2c-0.5,0-1-0.5-1-1V28c0-0.5,0.5-1,1-1c0.5,0,1,0.5,1,1v14.1
		C1020.2,42.7,1019.8,43.2,1019.3,43.2z"/>
</g>
<g display="none">
	<path display="inline" fill="#FFFFFF" d="M1026.3,36.1h-14.1c-0.5,0-1-0.5-1-1s0.5-1,1-1h14.1c0.5,0,1,0.5,1,1
		S1026.8,36.1,1026.3,36.1z"/>
</g>
<g display="none">
	<path display="inline" fill="#FFFFFF" d="M1211.7,22.2h-0.7l-0.5-0.5l-5.9-5.6v-1.7l0.5-0.7c0,0,1-1,2-2c1.7-1.7,4.6-1.7,6.3,0
		l1.5,1.5c1,0.7,1.5,2,1.5,3.2s-0.5,2.2-1.2,3.2l-2,2C1212.7,22,1212.2,22.2,1211.7,22.2z M1209,15.1l2,2c0.2,0.2,0.5,0.5,0.7,0.7
		l0.7-0.7c0.2-0.2,0.2-0.2,0.2-0.5s0-0.5-0.2-0.5l-1.5-1.5c-0.5-0.5-0.7-0.5-1.2,0L1209,15.1z"/>
</g>
<g display="none">
	<path display="inline" fill="#FFFFFF" d="M1192.7,42l-8-7.8l21.7-21.5l8,7.8L1192.7,42z M1190,34.1l2.7,2.7l16.6-16.3l-2.7-2.7
		L1190,34.1z"/>
</g>
<g display="none">
	<path display="inline" fill="#FFFFFF" d="M1183.4,45.1c-0.5,0-1-0.2-1.2-0.5c-0.5-0.5-0.7-1.2-0.5-2l3.9-9l3.4,1.5l-2.2,4.9
		l5.1-2.2l1.5,3.4l-9.3,3.9C1183.9,45.1,1183.7,45.1,1183.4,45.1z"/>
</g>
<g display="none">
	<path display="inline" fill="#FFFFFF" d="M1205.6,69.5h-76.3c-3.7,0-6.8-2.9-6.8-6.8V21.2c0-3.7,2.9-6.8,6.8-6.8h76.1
		c3.7,0,6.8,2.9,6.8,6.8v41.7C1212.2,66.6,1209.3,69.5,1205.6,69.5z M1129.3,18.3c-1.7,0-2.9,1.5-2.9,3.2v41.5
		c0,1.7,1.5,2.9,2.9,2.9h76.1c1.7,0,2.9-1.5,2.9-2.9V21.2c0-1.7-1.5-3.2-2.9-3.2h-76.1V18.3z"/>
</g>
<g display="none">
	<rect x="1137.6" y="16.3" display="inline" fill="#FFFFFF" width="3.7" height="51.5"/>
</g>
<g display="none">
	<path display="inline" fill="#FFFFFF" d="M1324.1,81.7c-0.5,0-1,0-1.5,0c-2.2-0.2-3.9-2-3.9-4.1c0-0.7,0-1.7,0.2-2.4l2-26.6
		c0-0.7,0-1.7,0.2-2.4c0.2-2.4,2.2-4.4,4.9-4.1c0.2,0,0.5,0,0.5,0l0,0c0.2-2.2,0.5-4.1,0.2-6.3c-0.2-2.7-1-5.1-2.4-7.1
		c-1-0.2-2-0.7-2.7-1.5c-2.2-2-4.6-3.2-7.8-3.9c-2.4-0.5-5.4-0.7-8-0.7c-2.2,0-4.1,0.2-6.1,0.7c-2.4,0.7-4.4,1.7-6.1,2.9
		c-0.2,0.2-0.5,0.5-0.7,0.5c-0.7,0.7-1.7,1.2-2.7,1.5c-1.2,2-2,4.1-2.2,6.6c-0.2,2.2-0.2,4.4,0,6.8c0.2,0,0.7,0,1,0l0,0
		c2.4,0,4.1,1.7,4.4,4.1l2.2,31.5c0,1.2-0.2,2.4-1,3.2c-0.7,0.7-2,1.5-3.2,1.5c-4.9,0.2-9.3-1-13.2-3.9c-3.9-2.9-6.6-6.8-7.6-11.5
		c-1.5-7.1,0.2-13.4,5.4-18.5c1.2-1.2,2.4-2.2,3.9-3.2c-0.5-2.7-0.7-5.6-0.7-8.3c0.2-4.9,1.5-8.8,3.9-12.4c-0.5-2,0.2-3.9,1.7-5.4
		c2.4-2.4,5.6-4.1,9-5.4c2.4-1,4.9-1.5,7.3-1.7c1,0,1.7-0.2,2.7-0.2l1.7-0.2h4.4c3.9,0.2,7.6,1,10.7,2.2c3.2,1.2,6.1,2.9,8.5,5.4
		c1.5,1.5,2,3.2,1.7,5.1c1.5,2.4,2.7,4.9,3.2,7.8c0.5,2.4,0.7,5.4,0.7,8c0,1.7-0.2,3.2-0.7,4.9c1.7,1,3.2,2.2,4.6,3.9
		c2.4,2.7,4.1,5.9,4.6,9.5c2,9.5-3.4,18.8-12.2,22.4C1329,81.2,1326.6,81.7,1324.1,81.7z M1325.1,45.4c-0.5,0-0.7,0.2-0.7,0.7
		c0,0.7,0,1.7-0.2,2.4l-1.7,26.6c0,0.7,0,1.5-0.2,2.4c0,0.2,0.2,0.5,0.5,0.5c2.4,0.2,4.9-0.2,7.1-1.2c7.3-2.9,11.5-10.7,10-18.3
		c-0.5-2.9-2-5.6-3.9-7.8c-1.2-1.5-2.9-2.7-4.6-3.7c-1.2-0.5-1.2-1.7-1.2-2.4c0.5-1.7,0.7-3.4,0.7-5.4c0.2-2.4,0-4.9-0.5-7.1
		c-0.5-2.7-1.7-5.1-2.9-7.1c-0.5-0.5-0.5-1.2-0.2-2c0.2-1,0-1.5-0.5-2.2c-2-2-4.4-3.4-7.3-4.4c-2.9-1.2-6.1-1.7-9.8-2h-1.5l-3.9,0.2
		c-1,0-1.7,0.2-2.7,0.2c-2.2,0.2-4.4,0.7-6.6,1.5c-3.2,1.2-5.6,2.7-7.8,4.6c-0.7,0.7-1,1.2-0.7,2.2c0.2,0.7,0,1.5-0.5,2.2
		c-2.2,3.2-3.2,6.8-3.4,11c-0.2,2.7,0,5.6,0.7,8.3c0.2,1-0.2,2-1.2,2.4c-1.5,0.7-2.9,1.7-3.9,2.9c-4.1,4.4-5.6,9.5-4.4,15.4
		c0.7,3.9,2.9,7.1,6.1,9.5c3.2,2.4,6.8,3.4,10.7,3.2c0.2,0,0.5,0,0.5-0.2s0.2-0.2,0.2-0.5l-1.2-31.7c0-0.7-0.5-0.7-0.5-0.7
		c-0.2,0-0.7,0-1,0h-0.5c-0.2,0-0.5,0-0.7,0l-2,0.2l-0.5-2c-0.7-3.4-0.7-6.6-0.5-9.5c0.5-3.4,1.5-6.1,3.2-8.5c0.5-0.5,1-1,1.7-1
		c0.5,0,1-0.2,1.2-0.5c0.2-0.2,0.5-0.5,0.7-0.7c2-1.7,4.4-2.9,7.6-3.7c2.2-0.5,4.4-1,6.8-1c3.2-0.2,6.3,0,9,0.7
		c3.9,1,6.8,2.4,9.3,4.6c0.2,0.2,0.7,0.5,1.2,0.5c0.7,0,1.2,0.5,1.7,1c1.7,2.7,2.9,5.6,3.2,9.3c0.2,2.4,0.2,4.9-0.2,7.3
		c0,0.5-0.2,1-0.2,1.2l-0.2,2.7l-2.4-0.2C1326.3,45.4,1325.9,45.4,1325.1,45.4L1325.1,45.4z"/>
</g>
<g display="none">
	<g display="inline">
		<path fill="#FFFFFF" d="M1412.7,62.2h-1c-7.8,0-14.1-6.3-14.1-14.1V24.9c0-7.8,6.3-14.1,14.1-14.1h1c7.8,0,14.1,6.3,14.1,14.1
			v23.4C1426.8,55.9,1420.5,62.2,1412.7,62.2z M1411.7,14.4c-5.9,0-10.5,4.6-10.5,10.5v23.4c0,5.9,4.6,10.5,10.5,10.5h1
			c5.9,0,10.5-4.6,10.5-10.5V24.9c0-5.9-4.6-10.5-10.5-10.5H1411.7z"/>
	</g>
	<g display="inline">
		<path fill="#FFFFFF" d="M1428.5,82.4h-14.9V64.6l1.7-0.2c4.4-0.2,7.8-2,10.2-4.9c5.1-6.3,4.4-16.3,4.4-16.3c0-1,0.7-2,1.7-2
			s2,0.7,2,1.7c0,0.5,1,11.7-5.1,19c-2.7,3.4-6.6,5.4-11,6.1v10.7h11.2c1,0,2,0.7,2,2S1429.5,82.4,1428.5,82.4z"/>
	</g>
	<g display="inline">
		<path fill="#FFFFFF" d="M1410.7,82.4h-14.9c-1,0-2-0.7-2-2s0.7-2,2-2h11.2V67.8c-4.6-0.7-8.3-2.7-11-6.1c-6.1-7.3-5.1-18.5-5.1-19
			c0-1,1-1.7,2-1.7s1.7,1,1.7,2c0,0-1,10.2,4.4,16.3c2.4,2.9,5.9,4.6,10.2,4.9l1.7,0.2v18H1410.7z"/>
	</g>
	<g display="inline">
		<path fill="#FFFFFF" d="M1400,27.3h6.6c1.2,0,2.2-0.7,2.2-1.5l0,0c0-0.7-1-1.5-2.2-1.5h-6.6V27.3z"/>
	</g>
	<g display="inline">
		<path fill="#FFFFFF" d="M1400,35.1h6.6c1.2,0,2.2-0.7,2.2-1.5l0,0c0-0.7-1-1.5-2.2-1.5h-6.6V35.1z"/>
	</g>
	<g display="inline">
		<path fill="#FFFFFF" d="M1400,41.5h6.6c1.2,0,2.2-0.7,2.2-1.5l0,0c0-0.7-1-1.5-2.2-1.5h-6.6V41.5z"/>
	</g>
	<g display="inline">
		<path fill="#FFFFFF" d="M1400,47.8h6.6c1.2,0,2.2-0.7,2.2-1.5l0,0c0-0.7-1-1.5-2.2-1.5h-6.6V47.8z"/>
	</g>
</g>
<g display="none">
	<g display="inline">
		<path fill="#FFFFFF" d="M217.1,67.8h-79c-0.7,0-1.2-0.2-1.7-1c-0.2-0.5-0.2-1.2,0-2l10.2-17.1V11.2c0-1,0.7-2,2-2h57.8
			c1,0,2,0.7,2,2V48l10.2,17.1c0.2,0.5,0.2,1.2,0,2C218.3,67.6,217.8,67.8,217.1,67.8z M141.2,64.1h72.7l-9-14.6
			c-0.2-0.2-0.2-0.7-0.2-1V13.2h-54.1v35.4c0,0.2,0,0.7-0.2,1L141.2,64.1z"/>
	</g>
	<g display="inline">
		<path fill="#FFFFFF" d="M206.3,50.2h-57.8c-1,0-2-0.7-2-2c0-1,0.7-1.7,2-1.7h57.8c1,0,2,0.7,2,1.7
			C208.3,49.5,207.6,50.2,206.3,50.2z"/>
	</g>
	<g display="inline">
		<path fill="#FFFFFF" d="M203.2,59H152c-1,0-2-0.7-2-2c0-1.2,0.7-2,2-2h51.5c1,0,2,0.7,2,2C205.4,58.3,204.1,59,203.2,59z"/>
	</g>
	<g display="inline">
		<path fill="#FFFFFF" d="M161.7,67.8c-0.2,0-0.7,0-1-0.2c-0.7-0.5-1-1.7-0.5-2.4l6.1-9c0.5-0.7,1.7-1,2.4-0.5s1,1.7,0.5,2.4l-6.1,9
			C162.9,67.6,162.4,67.8,161.7,67.8z"/>
	</g>
	<g display="inline">
		<path fill="#FFFFFF" d="M192.7,67.8c-0.5,0-1.2-0.2-1.5-0.7l-6.3-9c-0.5-0.7-0.5-2,0.5-2.4c0.7-0.5,2-0.5,2.4,0.5l6.1,9
			c0.5,0.7,0.5,2-0.5,2.4C193.4,67.8,192.9,67.8,192.7,67.8z"/>
	</g>
</g>
<g display="none">
	<circle display="inline" fill="#FFFFFF" cx="302.7" cy="65.4" r="1.7"/>
</g>
<path display="none" fill="none" stroke="#FFFFFF" stroke-width="1.5" stroke-miterlimit="10" d="M73.2,316.6H6.6
	c-2.7,0-4.9-2.2-4.9-4.9v-34.6c0-2.7,2.2-4.9,4.9-4.9h66.6c2.7,0,4.9,2.2,4.9,4.9v34.6C78,314.4,75.9,316.6,73.2,316.6z"/>
<line display="none" fill="none" stroke="#FFFFFF" stroke-width="1.5" stroke-linecap="round" stroke-linejoin="round" stroke-miterlimit="10" x1="1.7" y1="308.8" x2="78" y2="308.8"/>
<polyline display="none" fill="none" stroke="#FFFFFF" stroke-width="1.5" stroke-linecap="round" stroke-linejoin="round" stroke-miterlimit="10" points="
	30.2,318.8 30.2,324.1 49.8,324.1 49.8,318.8 "/>
<path display="none" fill="#FFFFFF" d="M56.1,332H23.7c-0.7,0-1.2-0.5-1.2-1.2v-0.5c0-0.7,0.5-1.2,1.2-1.2h32.4
	c0.7,0,1.2,0.5,1.2,1.2v0.5C57.3,331.2,56.8,332,56.1,332z"/>
<path display="none" fill="none" stroke="#FFFFFF" stroke-width="1.5" stroke-miterlimit="10" d="M938.3,289.3
	c-2.2-8.5-9.8-14.9-19-14.9c-8.3,0-15.1,5.1-18,12.2c-1.7-1.5-3.9-2.4-6.3-2.4c-5.4,0-9.8,4.4-9.8,9.8c0,0.2,0,0.5,0,1
	c-5.9,2-9.8,7.8-9.8,14.1c0,8,6.6,15.1,14.6,15.1h46.6c9.5,0,17.1-8,17.1-17.6C953.7,297.8,946.8,290.2,938.3,289.3z"/>
<g display="none">
	<path display="inline" fill="none" stroke="#FFFFFF" stroke-width="1.5" stroke-miterlimit="10" d="M596.6,279.3H581l-1.2-5.9
		c-0.2-1-1.5-2-2.4-2h-20.2c-1,0-2.2,1-2.2,2l-1,5.9h-2c-2.7,0-7.8,6.3-19.5,6.3v0.2c0,0,0,1,0,2.2v36.8c0,1,1,1.2,2,1.2h62.2
		c1,0,2,0,2-1.2v-42.7C598.5,281,597.6,279.3,596.6,279.3z"/>
	
		<line display="inline" fill="none" stroke="#FFFFFF" stroke-width="1.5" stroke-miterlimit="10" x1="530.7" y1="279.3" x2="538.3" y2="279.3"/>
	
		<circle display="inline" fill="none" stroke="#FFFFFF" stroke-width="1.5" stroke-miterlimit="10" cx="567.6" cy="302.4" r="15.6"/>
</g>
<polyline display="none" fill="none" stroke="#FFFFFF" stroke-width="1.5" stroke-linecap="round" stroke-miterlimit="10" points="
	824.4,291.7 824.4,326.6 778,326.6 778,281.5 812.9,281.5 "/>
<polyline display="none" fill="none" stroke="#FFFFFF" stroke-width="1.5" stroke-linecap="round" stroke-linejoin="round" stroke-miterlimit="10" points="
	797.6,308.8 835.1,271 835.1,290 "/>
<line display="none" fill="none" stroke="#FFFFFF" stroke-width="1.5" stroke-linecap="round" stroke-linejoin="round" stroke-miterlimit="10" x1="835.1" y1="271" x2="814.6" y2="271"/>
<path display="none" fill="none" stroke="#FFFFFF" stroke-width="1.5" stroke-miterlimit="10" d="M718.5,325.4h-59.3
	c-3.4,0-5.6-2-5.6-4.6v-19.3c0-0.2,0-0.5,0.2-0.5l8.5-18.3c0.2-0.5,0.5-0.7,0.7-1.2c1-1.7,2.2-3.9,4.9-3.9h42.4
	c2.7,0,3.9,2.2,4.9,3.9c0.2,0.2,0.2,0.7,0.5,1l8.5,18.5c0,0.2,0.2,0.5,0.2,0.5v19.3C724.1,323.7,722,325.4,718.5,325.4z"/>
<line display="none" fill="none" stroke="#FFFFFF" stroke-width="1.5" stroke-miterlimit="10" x1="653.4" y1="301.5" x2="724.1" y2="301.5"/>
<line display="none" fill="none" stroke="#FFFFFF" stroke-width="1.5" stroke-linecap="round" stroke-miterlimit="10" x1="663.4" y1="311" x2="663.4" y2="316.1"/>
<line display="none" fill="none" stroke="#FFFFFF" stroke-width="1.5" stroke-linecap="round" stroke-miterlimit="10" x1="671.2" y1="311" x2="671.2" y2="316.1"/>
<path display="none" fill="none" stroke="#FFFFFF" stroke-width="1.5" stroke-miterlimit="10" d="M465.9,283.9v37.3
	c0,3.7-2.9,6.8-6.8,6.8h-75.1c-3.7,0-6.8-2.9-6.8-6.8v-37.3c0-3.7,2.9-6.8,6.8-6.8H459C462.9,277.1,465.9,280.2,465.9,283.9z"/>
<line display="none" fill="none" stroke="#FFFFFF" stroke-width="1.5" stroke-miterlimit="10" x1="456.6" y1="277.1" x2="456.6" y2="328"/>
<line display="none" fill="none" stroke="#FFFFFF" stroke-width="1.5" stroke-miterlimit="10" x1="386.3" y1="277.1" x2="386.3" y2="328"/>
<path display="none" fill="none" stroke="#FFFFFF" stroke-width="1.5" stroke-miterlimit="10" d="M315.6,329.8H290
	c-2.7,0-4.6-2.2-4.6-4.6v-51.7c0-2.7,2.2-4.6,4.6-4.6h25.6c2.7,0,4.6,2.2,4.6,4.6v51.7C320.2,327.8,318,329.8,315.6,329.8z"/>
<line display="none" fill="none" stroke="#FFFFFF" stroke-miterlimit="10" x1="320.2" y1="323.4" x2="285.1" y2="323.4"/>
<line display="none" fill="none" stroke="#FFFFFF" stroke-miterlimit="10" x1="320.2" y1="274.9" x2="285.1" y2="274.9"/>
<path display="none" fill="none" stroke="#FFFFFF" stroke-width="1.5" stroke-miterlimit="10" d="M1072.9,284.4
	c-3.9-6.6-9-10-15.1-10c-6.8,0-12.4,4.4-12.4,4.4c-1,0.7-3.2,1.5-4.4,1.5h-4.4c-1.2,0-3.4-0.7-4.4-1.5c-0.2-0.2-5.6-4.4-12.4-4.4
	c-6.1,0-11.2,3.4-15.1,10c-10.7,18.3-6.6,38-6.6,38.8c1,6.6,4.6,7.8,7.3,7.8c0.2,0,0.5,0,0.7,0c4.6-0.5,14.6-14.9,15.1-15.4
	c1-1,2.7-2,3.9-2h26.6c1.2,0,3.2,1,3.9,2c0.5,0.5,10.7,15.1,15.4,15.6c0.2,0,0.5,0,0.7,0c2.7,0,6.3-1.5,7.3-7.8
	C1079.5,322.9,1083.9,302.7,1072.9,284.4z"/>
<path display="none" fill="none" stroke="#FFFFFF" stroke-width="0.75" stroke-linecap="round" stroke-linejoin="round" stroke-miterlimit="10" d="
	M1053.4,304.9c-2,0-3.4-1.5-3.4-3.4s1.5-3.4,3.4-3.4s3.4,1.5,3.4,3.4C1056.8,303.2,1055.4,304.9,1053.4,304.9z"/>
<path display="none" fill="none" stroke="#FFFFFF" stroke-width="0.75" stroke-linecap="round" stroke-linejoin="round" stroke-miterlimit="10" d="
	M1053.4,294.4c-2,0-3.4-1.5-3.4-3.4s1.5-3.4,3.4-3.4s3.4,1.5,3.4,3.4S1055.4,294.4,1053.4,294.4z"/>
<circle display="none" fill="none" stroke="#FFFFFF" stroke-width="0.75" stroke-linecap="round" stroke-linejoin="round" stroke-miterlimit="10" cx="1063.7" cy="296.1" r="3.4"/>
<line display="none" fill="none" stroke="#FFFFFF" stroke-width="0.75" stroke-linecap="round" stroke-linejoin="round" stroke-miterlimit="10" x1="1019.3" y1="289" x2="1019.3" y2="303.4"/>
<line display="none" fill="none" stroke="#FFFFFF" stroke-width="0.75" stroke-linecap="round" stroke-linejoin="round" stroke-miterlimit="10" x1="1012.2" y1="296.1" x2="1026.3" y2="296.1"/>
<path display="none" fill="none" stroke="#FFFFFF" stroke-width="1.5" stroke-miterlimit="10" d="M1212.2,274.1c-1-1-2.7-1-3.9,0
	c-1,1-2,2-2,2v0.2c0,0,1,1,2,2l1.2,1.2c1,1,2,2,2,2h0.2c0,0,1-1,2-2c1-1,1-2.7,0-3.7L1212.2,274.1z"/>
<polygon display="none" fill="none" stroke="#FFFFFF" stroke-width="1.5" stroke-miterlimit="10" points="1206.3,276.1 
	1187.3,295.1 1192.7,300.5 1211.7,281.5 "/>
<polyline display="none" fill="none" stroke="#FFFFFF" stroke-width="1.5" stroke-linejoin="round" stroke-miterlimit="10" points="
	1187.3,295.1 1183.4,304.4 1183.4,304.4 1192.7,300.5 "/>
<path display="none" fill="none" stroke="#FFFFFF" stroke-width="1.5" stroke-linejoin="round" stroke-miterlimit="10" d="
	M1205.6,328.8h-76.3c-2.7,0-4.9-2.2-4.9-4.9v-41.7c0-2.7,2.2-4.9,4.9-4.9h76.1c2.7,0,4.9,2.2,4.9,4.9v41.7
	C1210.5,326.6,1208.3,328.8,1205.6,328.8z"/>
<line display="none" fill="none" stroke="#FFFFFF" stroke-width="1.5" stroke-miterlimit="10" x1="1139.3" y1="328.8" x2="1139.3" y2="277.3"/>
<path display="none" fill="none" stroke="#FFFFFF" stroke-width="1.5" stroke-miterlimit="10" d="M1308.5,273.7c0.5,0,1,0,1.5,0
	c3.4,0.2,6.8,0.7,10.2,2.2c2.9,1.2,5.6,2.7,7.8,4.9c1.2,1.2,1.5,2.4,1,3.9c0,0.2,0,0.2,0,0.5c1.7,2.4,2.7,4.9,3.2,7.8
	c0.5,2.4,0.7,5.1,0.5,7.6c0,2-0.5,3.9-0.7,5.6c0,0.2,0,0.2,0.2,0.2c2,1,3.7,2.4,5.1,3.9c2.2,2.4,3.7,5.4,4.4,8.5
	c1.7,8.5-2.9,17.1-11,20.5c-2.7,1-5.1,1.5-8,1.2c-1.2,0-2.2-1-2.2-2.4c0-1,0-2.2,0.2-3.2c0.2-2,0.2-3.7,0.5-5.6
	c0.2-2.2,0.2-4.4,0.5-6.3c0.2-2.2,0.2-4.1,0.5-6.3c0.2-2.2,0.2-4.4,0.5-6.3c0-1.2,0.2-2.4,0.2-3.7c0-1.5,1.2-2.4,2.7-2.4
	c0.7,0,1.5,0.2,2.2,0.2c0-0.5,0.2-1.2,0.2-1.7c0.2-2.2,0.5-4.4,0.2-6.8c-0.2-2.9-1.2-5.9-2.9-8.5l-0.2-0.2c-0.7,0-1.5-0.5-2.2-1
	c-2.4-2.2-5.1-3.4-8.3-4.1c-2.9-0.7-5.9-0.7-8.5-0.7c-2.2,0-4.4,0.2-6.3,1c-2.4,0.7-4.9,1.7-6.8,3.4c-0.2,0.2-0.5,0.5-0.7,0.7
	c-0.7,0.5-1.5,1-2.2,1c-0.2,0-0.2,0.2-0.2,0.2c-1.7,2.4-2.4,5.1-2.9,7.8c-0.5,2.9-0.2,6.1,0.5,9c0,0,0,0,0,0.2c0.2,0,0.7,0,1-0.2
	c0.5,0,1-0.2,1.7-0.2c1.5,0,2.4,1,2.4,2.4c0.2,3.7,0.5,7.3,0.7,11c0.2,2.9,0.5,5.9,0.5,9c0.2,3.2,0.5,6.6,0.7,9.8c0,0.5,0,1.2,0,1.7
	c0,1.5-1,2.7-2.4,2.7c-4.4,0.2-8.3-1-12-3.7c-3.7-2.7-5.9-6.1-6.8-10.5c-1.5-6.6,0.2-12.2,4.9-17.1c1.2-1.2,2.7-2.4,4.4-3.2
	c0.2,0,0.2-0.2,0.2-0.5c-0.7-2.9-1-5.9-0.7-8.8c0.2-4.4,1.5-8.3,3.7-12c0.2-0.2,0.2-0.5,0.2-0.7c-0.2-1.5,0-2.9,1.2-3.9
	c2.4-2.2,5.4-3.9,8.3-5.1c2.2-0.7,4.6-1.5,7.1-1.7c1.2-0.2,2.7-0.2,3.9-0.2h0.2C1306.8,273.7,1307.8,273.7,1308.5,273.7z"/>
<g display="none">
	<path display="inline" fill="none" stroke="#FFFFFF" stroke-width="1.5" stroke-miterlimit="10" d="M1412.7,321.5h-1
		c-6.8,0-12.2-5.6-12.2-12.2v-23.2c0-6.8,5.6-12.2,12.2-12.2h1c6.8,0,12.2,5.6,12.2,12.2v23.2
		C1425.1,315.9,1419.5,321.5,1412.7,321.5z"/>
	<path display="inline" fill="none" stroke="#FFFFFF" stroke-width="1.5" stroke-linecap="round" stroke-miterlimit="10" d="
		M1431.7,304.1c0,0,2.2,22-16.1,23.2v14.1h13.2"/>
	<path display="inline" fill="none" stroke="#FFFFFF" stroke-width="1.5" stroke-linecap="round" stroke-miterlimit="10" d="
		M1392.7,304.1c0,0-2.2,22,16.1,23.2v14.1h-13.2"/>
	<path display="inline" fill="#FFFFFF" d="M1400,288.3h6.6c1.2,0,2.2-0.7,2.2-1.5l0,0c0-0.7-1-1.5-2.2-1.5h-6.6V288.3z"/>
	<path display="inline" fill="#FFFFFF" d="M1400,296.1h6.6c1.2,0,2.2-0.7,2.2-1.5l0,0c0-0.7-1-1.5-2.2-1.5h-6.6V296.1z"/>
	<path display="inline" fill="#FFFFFF" d="M1400,302.4h6.6c1.2,0,2.2-0.7,2.2-1.5l0,0c0-0.7-1-1.5-2.2-1.5h-6.6V302.4z"/>
	<path display="inline" fill="#FFFFFF" d="M1400,308.8h6.6c1.2,0,2.2-0.7,2.2-1.5l0,0c0-0.7-1-1.5-2.2-1.5h-6.6V308.8z"/>
</g>
<g display="none">
	
		<polygon display="inline" fill="none" stroke="#FFFFFF" stroke-width="1.5" stroke-linecap="round" stroke-linejoin="round" stroke-miterlimit="10" points="
		206.3,309.5 206.3,272.2 178.5,272.2 176.3,272.2 148.5,272.2 148.5,309.5 138,327.1 176.6,327.1 178.5,327.1 217.1,327.1 	"/>
	
		<line display="inline" fill="none" stroke="#FFFFFF" stroke-width="1.5" stroke-linecap="round" stroke-linejoin="round" stroke-miterlimit="10" x1="148.5" y1="309.5" x2="206.3" y2="309.5"/>
	
		<line display="inline" fill="none" stroke="#FFFFFF" stroke-width="1.5" stroke-linecap="round" stroke-linejoin="round" stroke-miterlimit="10" x1="152" y1="318" x2="203.2" y2="318"/>
	
		<line display="inline" fill="none" stroke="#FFFFFF" stroke-width="1.5" stroke-linecap="round" stroke-linejoin="round" stroke-miterlimit="10" x1="167.8" y1="318" x2="161.7" y2="327.1"/>
	
		<line display="inline" fill="none" stroke="#FFFFFF" stroke-width="1.5" stroke-linecap="round" stroke-linejoin="round" stroke-miterlimit="10" x1="186.3" y1="318" x2="192.7" y2="327.1"/>
</g>
<circle display="none" fill="#FFFFFF" cx="302.7" cy="326.3" r="1.7"/>
</svg>
