<?xml version="1.0" encoding="utf-8"?>
<!-- Generator: Adobe Illustrator 18.0.0, SVG Export Plug-In . SVG Version: 6.00 Build 0)  -->
<!DOCTYPE svg PUBLIC "-//W3C//DTD SVG 1.1//EN" "http://www.w3.org/Graphics/SVG/1.1/DTD/svg11.dtd">
<svg version="1.1" id="Layer_1" xmlns="http://www.w3.org/2000/svg" xmlns:xlink="http://www.w3.org/1999/xlink" x="0px" y="0px"
	 viewBox="0 0 80 80" enable-background="new 0 0 80 80" xml:space="preserve">
<rect x="-1069.7" y="-53.7" display="none" fill="#010101" width="1910.8" height="441.7"/>
<path display="none" fill="none" stroke="#FFFFFF" stroke-miterlimit="10" d="M-647.2,188.5h-265.9c-17.1,0-31.1-14-31.1-31.1l0,0
	c0-17.1,14-31.1,31.1-31.1h265.9c17.1,0,31.1,14,31.1,31.1l0,0C-616.1,174.5-630.1,188.5-647.2,188.5z"/>
<g display="none">
	
		<text transform="matrix(1 0 0 1 -871.4763 166.1917)" display="inline" fill="#FFFFFF" font-family="'HelveticaNeue-Light'" font-size="21.3731">TEXT IN ALL CAPS</text>
</g>
<g display="none">
	<g display="inline">
		<path fill="#FFFFFF" d="M-516.7,213.1c-30.6,0-55.7-25-55.7-55.7s25-55.7,55.7-55.7s55.7,25,55.7,55.7S-486.1,213.1-516.7,213.1z
			 M-516.7,104c-29.5,0-53.4,23.9-53.4,53.4s23.9,53.4,53.4,53.4s53.4-23.9,53.4-53.4S-487.4,104-516.7,104z"/>
	</g>
	<g display="inline">
		
			<rect x="-517.8" y="129.7" transform="matrix(-0.7071 -0.7071 0.7071 -0.7071 -993.3003 -96.8876)" fill="#FFFFFF" width="2.3" height="55.2"/>
	</g>
	<g display="inline">
		
			<rect x="-544.3" y="156.3" transform="matrix(-0.7071 -0.7071 0.7071 -0.7071 -993.4351 -96.5982)" fill="#FFFFFF" width="55.2" height="2.3"/>
	</g>
</g>
<g display="none">
	
		<text transform="matrix(1 0 0 1 580.2643 10.5018)" display="inline" fill="#FFFFFF" font-family="'HelveticaNeue-Light'" font-size="21.3731">LAPTOP</text>
	
		<text transform="matrix(1 0 0 1 580.2643 36.1917)" display="inline" fill="#FFFFFF" font-family="'HelveticaNeue-Light'" font-size="21.3731">SMARTPHONE</text>
	
		<text transform="matrix(1 0 0 1 580.2643 61.8816)" display="inline" fill="#FFFFFF" font-family="'HelveticaNeue-Light'" font-size="21.3731">TABLET</text>
	
		<text transform="matrix(1 0 0 1 580.2643 87.3469)" display="inline" fill="#FFFFFF" font-family="'HelveticaNeue-Light'" font-size="21.3731">HARD DRIVE</text>
	
		<text transform="matrix(1 0 0 1 580.2643 113.0369)" display="inline" fill="#FFFFFF" font-family="'HelveticaNeue-Light'" font-size="21.3731">CLOUD STORAGE</text>
	
		<text transform="matrix(1 0 0 1 580.2643 138.7268)" display="inline" fill="#FFFFFF" font-family="'HelveticaNeue-Light'" font-size="21.3731">DSLR</text>
	
		<text transform="matrix(1 0 0 1 580.2643 164.4168)" display="inline" fill="#FFFFFF" font-family="'HelveticaNeue-Light'" font-size="21.3731">GAME CONTROLLER</text>
	
		<text transform="matrix(1 0 0 1 580.2643 190.1076)" display="inline" fill="#FFFFFF" font-family="'HelveticaNeue-Light'" font-size="21.3731">WACOM PEN</text>
	
		<text transform="matrix(1 0 0 1 580.2643 215.572)" display="inline" fill="#FFFFFF" font-family="'HelveticaNeue-Light'" font-size="21.3731">HEADPHONES</text>
	
		<text transform="matrix(1 0 0 1 580.2643 241.2628)" display="inline" fill="#FFFFFF" font-family="'HelveticaNeue-Light'" font-size="21.3731">MIC</text>
</g>
<g display="none">
	<path display="inline" fill="#FFFFFF" d="M-852.3,54.4h-61.5c-3.4,0-6.3-2.7-6.3-6.3v-32c0-3.4,2.7-6.3,6.3-6.3h61.5
		c3.4,0,6.3,2.7,6.3,6.3v32C-846,51.5-848.7,54.4-852.3,54.4z M-913.8,13.4c-1.6,0-2.7,1.4-2.7,2.7v32c0,1.6,1.4,2.7,2.7,2.7h61.5
		c1.6,0,2.7-1.4,2.7-2.7v-32c0-1.6-1.4-2.7-2.7-2.7C-852.3,13.4-913.8,13.4-913.8,13.4z"/>
</g>
<g display="none">
	<path display="inline" fill="#FFFFFF" d="M-847.8,47.2h-70.5c-0.9,0-1.8-0.7-1.8-1.8c0-1.1,0.7-1.8,1.8-1.8h70.5
		c0.9,0,1.8,0.7,1.8,1.8C-846,46.5-846.6,47.2-847.8,47.2z"/>
</g>
<g display="none">
	<path display="inline" fill="#FFFFFF" d="M-873.9,61.6h-18c-0.9,0-1.8-0.7-1.8-1.8v-5c0-0.9,0.7-1.8,1.8-1.8s1.8,0.7,1.8,1.8v3.4
		h14.6v-3.4c0-0.9,0.7-1.8,1.8-1.8s1.8,0.7,1.8,1.8v5C-872.3,60.7-873,61.6-873.9,61.6z"/>
</g>
<g display="none">
	<path display="inline" fill="#FFFFFF" d="M-868.1,66.8h-30c-0.7,0-1.1-0.5-1.1-1.1v-0.5c0-0.7,0.5-1.1,1.1-1.1h30
		c0.7,0,1.1,0.5,1.1,1.1v0.5C-866.9,66.4-867.4,66.8-868.1,66.8z"/>
</g>
<g display="none">
	<path display="inline" fill="#FFFFFF" d="M-54.8,61.4h-43c-8.3,0-15.3-7.2-15.3-15.5c0-6.1,3.6-11.7,9-14.2
		c0.2-5.9,5-10.4,10.8-10.4c1.8,0,3.6,0.5,5.2,1.4c3.4-6.3,10.1-10.4,17.4-10.4c8.8,0,16.2,5.6,18.9,14c8.1,1.4,14.4,9,14.4,17.6
		C-37.2,53.3-45.1,61.4-54.8,61.4z M-93.1,24.7c-4.1,0-7.4,3.4-7.4,7.4v0.2l0.2,1.6l-1.1,0.5c-4.7,1.6-7.9,6.3-7.9,11.5
		c0,6.5,5.4,12.2,11.9,12.2h43c7.7,0,14.2-6.5,14.2-14.4c0-7.2-5.6-13.5-12.6-14.4l-1.1-0.2l-0.2-1.1c-1.8-7.4-8.3-12.4-15.8-12.4
		c-6.8,0-12.6,4.1-15.1,10.1l-0.9,2.3l-1.8-1.6C-89.7,25.1-91.3,24.7-93.1,24.7z"/>
</g>
<g display="none">
	<g display="inline">
		<path fill="#FFFFFF" d="M-368.7,63h-57.5c-2.9,0-3.4-1.6-3.4-2.7V22.4l1.8-0.2c6.8,0,11-2.5,13.7-4.1c1.6-0.9,2.9-1.6,4.1-1.6h0.5
			l0.7-4.1c0.2-1.8,2-3.2,3.8-3.2h18.7c1.8,0,3.4,1.4,3.8,2.9l0.9,4.3h13.1c2,0,3.4,2.5,3.4,4.3v39.4C-365.3,61.4-365.7,63-368.7,63
			z M-426.1,59.6L-426.1,59.6h57.5l0,0V20.8c0-0.2-0.2-0.7-0.5-0.9h-15.5l-1.4-6.8c0-0.2-0.5-0.5-0.7-0.5h-18.7
			c-0.2,0-0.5,0.2-0.5,0.5l-1.1,6.8h-3.2c-0.5,0-1.6,0.7-2.5,1.1c-2.7,1.6-7,4.1-13.7,4.5v34H-426.1z"/>
	</g>
	<g display="inline">
		<rect x="-429.5" y="16.6" fill="#FFFFFF" width="7.2" height="3.4"/>
	</g>
	<g display="inline">
		<path fill="#FFFFFF" d="M-395.5,55.8c-8.8,0-16-7.2-16-16s7.2-16,16-16s16,7.2,16,16S-386.7,55.8-395.5,55.8z M-395.5,27.2
			c-7,0-12.6,5.6-12.6,12.6s5.6,12.6,12.6,12.6s12.6-5.6,12.6-12.6S-388.5,27.2-395.5,27.2z"/>
	</g>
</g>
<g display="none">
	<path display="inline" fill="#FFFFFF" d="M-156.6,63.7h-46.2V18.6h33.8c0.9,0,1.8,0.7,1.8,1.8s-0.7,1.8-1.8,1.8h-30.4v38.3h39.4
		V29.9c0-0.9,0.7-1.8,1.8-1.8c1.1,0,1.8,0.7,1.8,1.8v33.8H-156.6z"/>
</g>
<g display="none">
	<path display="inline" fill="#FFFFFF" d="M-183,47.2c-0.5,0-0.9-0.2-1.1-0.5c-0.7-0.7-0.7-1.8,0-2.5l34.7-34.7
		c0.5-0.5,1.1-0.7,1.8-0.5c0.7,0.2,1.1,0.9,1.1,1.6v17.4c0,0.9-0.7,1.8-1.8,1.8c-1.1,0-1.8-0.7-1.8-1.8V14.8l-31.8,31.8
		C-182.1,47-182.5,47.2-183,47.2z"/>
</g>
<g display="none">
	<path display="inline" fill="#FFFFFF" d="M-148.3,12.5h-18.9c-0.9,0-1.8-0.7-1.8-1.8s0.7-1.8,1.8-1.8h18.9c0.9,0,1.8,0.7,1.8,1.8
		S-147.4,12.5-148.3,12.5z"/>
</g>
<g display="none">
	<path display="inline" fill="#FFFFFF" d="M-256,62.5h-55c-4.1,0-7-2.5-7-6.1V38.6c0-0.5,0-0.9,0.2-1.4l7.9-16.9
		c0.2-0.7,0.5-0.9,0.7-1.1c0.9-1.6,2.5-4.5,5.9-4.5h39.2c3.6,0,5.2,2.9,6.1,4.5c0.2,0.5,0.5,0.7,0.5,0.9l7.9,17.4
		c0.2,0.5,0.2,0.9,0.2,1.4v17.8C-249.2,60.3-251.9,62.5-256,62.5z M-303.1,18.1c-1.4,0-2,1.1-2.9,2.7c-0.2,0.5-0.5,0.7-0.7,1.1
		l-7.7,16.9v17.6c0,2.5,2.5,2.7,3.6,2.7h54.8c1.1,0,3.6-0.2,3.6-2.7V38.6l-7.9-16.9c0,0-0.2-0.5-0.5-0.7c-1.1-1.8-1.8-2.9-3.2-2.9
		C-263.9,18.1-303.1,18.1-303.1,18.1z"/>
</g>
<g display="none">
	<rect x="-316.2" y="37.1" display="inline" fill="#FFFFFF" width="65.4" height="3.4"/>
</g>
<g display="none">
	<path display="inline" fill="#FFFFFF" d="M-306.9,54c-0.9,0-1.8-0.7-1.8-1.8v-4.7c0-0.9,0.7-1.8,1.8-1.8c1.1,0,1.8,0.7,1.8,1.8v4.7
		C-305.4,53.3-306,54-306.9,54z"/>
</g>
<g display="none">
	<path display="inline" fill="#FFFFFF" d="M-299.7,54c-0.9,0-1.8-0.7-1.8-1.8v-4.7c0-0.9,0.7-1.8,1.8-1.8s1.8,0.7,1.8,1.8v4.7
		C-297.9,53.3-298.8,54-299.7,54z"/>
</g>
<g display="none">
	<path display="inline" fill="#FFFFFF" d="M-495.8,65h-69.4c-4.3,0-7.9-3.6-7.9-7.9V22.6c0-4.3,3.6-7.9,7.9-7.9h69.4
		c4.3,0,7.9,3.6,7.9,7.9v34.5C-487.7,61.4-491.3,65-495.8,65z M-565,17.9c-2.5,0-4.5,2-4.5,4.5v34.5c0,2.5,2,4.5,4.5,4.5h69.4
		c2.5,0,4.5-2,4.5-4.5V22.6c0-2.5-2-4.5-4.5-4.5H-565V17.9z"/>
</g>
<g display="none">
	<rect x="-499.6" y="16.3" display="inline" fill="#FFFFFF" width="3.4" height="46.9"/>
</g>
<g display="none">
	<rect x="-564.7" y="16.3" display="inline" fill="#FFFFFF" width="3.4" height="46.9"/>
</g>
<g display="none">
	<path display="inline" fill="#FFFFFF" d="M-628.3,66.6h-23.7c-3.4,0-6.1-2.7-6.1-6.1V12.7c0-3.4,2.7-6.1,6.1-6.1h23.7
		c3.4,0,6.1,2.7,6.1,6.1v47.8C-622.2,63.9-624.9,66.6-628.3,66.6z M-652.2,10.3c-1.4,0-2.7,1.1-2.7,2.7v47.8c0,1.4,1.1,2.7,2.7,2.7
		h23.7c1.4,0,2.7-1.1,2.7-2.7v-48c0-1.4-1.1-2.7-2.7-2.7h-23.7V10.3z"/>
</g>
<g display="none">
	<rect x="-656.5" y="58" display="inline" fill="#FFFFFF" width="32.5" height="2.3"/>
</g>
<g display="none">
	<rect x="-656.5" y="13" display="inline" fill="#FFFFFF" width="32.5" height="2.3"/>
</g>
<g>
	<path fill="#AAAD00" d="M9.2,67.9c-2.7,0-7.2-1.1-8.6-8.8c-0.2-0.7-4.1-19.6,6.3-37c4.1-6.8,9.2-10.1,15.5-10.1
		c6.5,0,11.9,4.1,12.4,4.3c0.7,0.5,2.3,1.1,2.9,1.1h4.1c0.9,0,2.3-0.5,2.9-1.1l0,0c0,0,5.6-4.5,12.6-4.5c6.3,0,11.5,3.4,15.3,10.1
		c10.1,17.4,6.3,36.3,6.3,37.2c-1.1,7.4-5.9,8.6-8.3,8.6c-0.2,0-0.7,0-0.9,0c-1.1,0-4.7-0.5-15.1-14.6l-0.2-0.5
		c-0.5-0.7-1.6-1.1-2.5-1.1H27.5c-0.7,0-1.8,0.7-2.5,1.1l-0.2,0.5C14.6,67.3,11.3,67.5,9.9,67.7C9.9,67.9,9.5,67.9,9.2,67.9z
		 M22.5,15.4c-5,0-9.2,2.9-12.4,8.3C0.5,40,4.1,57.8,4.3,58.5c0.7,4.3,2.5,6.1,5.6,5.9c0.5,0,3.6-0.9,12.4-13.1
		c0.2-0.2,0.5-0.5,0.5-0.5c1.1-1.4,3.2-2.5,5-2.5h24.6c1.8,0,3.8,1.1,5,2.5c0,0,0.2,0.2,0.5,0.5c9.2,12.6,12.4,13.3,12.6,13.3
		c3.2,0.2,5-1.6,5.6-5.9c0.2-0.9,3.8-18.5-5.9-34.7c-3.4-5.6-7.4-8.3-12.4-8.3c-5.6,0-10.4,3.6-10.4,3.6c-1.4,0.9-3.6,1.8-5.2,1.8
		h-4.1c-1.6,0-3.8-0.7-5.2-1.8C32.7,19,27.9,15.4,22.5,15.4z"/>
</g>
<g>
	<path fill="#AAAD00" d="M53.4,42.7c-2.3,0-4.1-1.8-4.1-4.1s1.8-4.1,4.1-4.1s4.1,1.8,4.1,4.1S55.7,42.7,53.4,42.7z M53.4,36.4
		c-1.4,0-2.3,1.1-2.3,2.3c0,1.1,1.1,2.3,2.3,2.3c1.4,0,2.3-1.1,2.3-2.3C55.7,37.5,54.8,36.4,53.4,36.4z"/>
</g>
<g>
	<path fill="#AAAD00" d="M53.4,33.2c-2.3,0-4.1-1.8-4.1-4.1s1.8-4.1,4.1-4.1s4.1,1.8,4.1,4.1S55.7,33.2,53.4,33.2z M53.4,26.7
		c-1.4,0-2.3,1.1-2.3,2.3s1.1,2.3,2.3,2.3c1.4,0,2.3-1.1,2.3-2.3S54.8,26.7,53.4,26.7z"/>
</g>
<g>
	<path fill="#AAAD00" d="M62.9,38c-2.3,0-4.1-1.8-4.1-4.1s1.8-4.1,4.1-4.1s4.1,1.8,4.1,4.1S65.1,38,62.9,38z M62.9,31.7
		c-1.4,0-2.3,1.1-2.3,2.3c0,1.1,1.1,2.3,2.3,2.3c1.1,0,2.3-1.1,2.3-2.3C65.1,32.8,64.2,31.7,62.9,31.7z"/>
</g>
<g>
	<path fill="#AAAD00" d="M21.9,41.4c-0.5,0-0.9-0.5-0.9-0.9V27.4c0-0.5,0.5-0.9,0.9-0.9c0.5,0,0.9,0.5,0.9,0.9v13.1
		C22.8,40.9,22.3,41.4,21.9,41.4z"/>
</g>
<g>
	<path fill="#AAAD00" d="M28.4,34.8H15.3c-0.5,0-0.9-0.5-0.9-0.9c0-0.5,0.5-0.9,0.9-0.9h13.1c0.5,0,0.9,0.5,0.9,0.9
		C29.3,34.4,28.8,34.8,28.4,34.8z"/>
</g>
<g display="none">
	<path display="inline" fill="#FFFFFF" d="M199.7,22H199l-0.5-0.5l-5.4-5.2v-1.6l0.5-0.7c0,0,0.9-0.9,1.8-1.8c1.6-1.6,4.3-1.6,5.9,0
		l1.4,1.4c0.9,0.7,1.4,1.8,1.4,2.9s-0.5,2-1.1,2.9l-1.8,1.8C200.6,21.7,200.1,22,199.7,22z M197.2,15.4l1.8,1.8
		c0.2,0.2,0.5,0.5,0.7,0.7l0.7-0.7c0.2-0.2,0.2-0.5,0.2-0.5c0-0.2,0-0.5-0.2-0.5L199,15c-0.5-0.5-0.7-0.5-1.1,0L197.2,15.4z"/>
</g>
<g display="none">
	<path display="inline" fill="#FFFFFF" d="M182.1,40.2l-7.4-7.2l20.1-19.8l7.4,7.2L182.1,40.2z M179.6,33l2.5,2.5l15.3-15.1
		l-2.5-2.5L179.6,33z"/>
</g>
<g display="none">
	<path display="inline" fill="#FFFFFF" d="M173.5,43.2c-0.5,0-0.9-0.2-1.1-0.5c-0.5-0.5-0.7-1.1-0.5-1.8l3.6-8.6l3.2,1.4l-2,4.5
		l4.7-2l1.4,3.2l-8.6,3.6C174,42.9,173.7,43.2,173.5,43.2z"/>
</g>
<g display="none">
	<path display="inline" fill="#FFFFFF" d="M194,65.7h-70.5c-3.4,0-6.3-2.7-6.3-6.3V21.1c0-3.4,2.7-6.3,6.3-6.3h70.3
		c3.4,0,6.3,2.7,6.3,6.3v38.3C200.1,63,197.4,65.7,194,65.7z M123.5,18.1c-1.6,0-2.7,1.4-2.7,2.7v38.5c0,1.6,1.4,2.7,2.7,2.7h70.3
		c1.6,0,2.7-1.4,2.7-2.7V21.1c0-1.6-1.4-2.7-2.7-2.7h-70.3V18.1z"/>
</g>
<g display="none">
	<rect x="131.2" y="16.6" display="inline" fill="#FFFFFF" width="3.4" height="47.5"/>
</g>
<g display="none">
	<path display="inline" fill="#FFFFFF" d="M303.5,77c-0.5,0-0.9,0-1.4,0c-2-0.2-3.6-1.8-3.6-3.8c0-0.7,0-1.6,0.2-2.3l1.8-24.6
		c0-0.7,0-1.6,0.2-2.3c0.2-2.3,2-4.1,4.5-3.8c0.2,0,0.5,0,0.5,0l0,0c0.2-2,0.5-3.8,0.2-5.9c-0.2-2.5-0.9-4.7-2.3-6.5
		c-0.9-0.2-1.8-0.7-2.5-1.4c-1.8-1.6-4.1-2.7-7-3.4c-2.3-0.5-5-0.7-7.4-0.7c-2,0-3.8,0.2-5.6,0.7c-2.3,0.7-4.1,1.6-5.6,2.7
		c-0.2,0.2-0.5,0.5-0.7,0.5c-0.7,0.7-1.6,1.1-2.5,1.4c-1.1,1.8-1.8,3.8-2,6.1c-0.2,2-0.2,4.1,0,6.3c0.2,0,0.7,0,0.9,0l0,0
		c2.3,0,3.8,1.6,4.1,3.8l2,29.1c0,1.1-0.2,2.3-0.9,2.9c-0.7,0.7-1.8,1.4-2.9,1.4c-4.5,0.2-8.6-0.9-12.2-3.6c-3.6-2.7-6.1-6.3-7-10.6
		c-1.4-6.5,0.2-12.4,5-17.1c1.1-1.1,2.3-2,3.6-2.9c-0.5-2.5-0.7-5.2-0.7-7.7c0.2-4.5,1.4-8.1,3.6-11.5c-0.5-1.8,0.2-3.6,1.6-5
		c2.3-2.3,5.2-3.8,8.3-5c2.3-0.9,4.5-1.4,6.8-1.6c0.9,0,1.6-0.2,2.5-0.2l1.6-0.2h4.1c3.6,0.2,7,0.9,9.9,2s5.6,2.7,7.9,5
		c1.4,1.4,1.8,2.9,1.6,4.7c1.4,2.3,2.5,4.5,2.9,7.2c0.5,2.3,0.7,5,0.7,7.4c0,1.6-0.2,2.9-0.7,4.5c1.6,0.9,2.9,2,4.3,3.6
		c2.3,2.5,3.8,5.4,4.3,8.8c1.8,8.8-3.2,17.4-11.3,20.7C308.1,76.5,305.8,77,303.5,77z M304.5,43.2c-0.5,0-0.7,0.2-0.7,0.7
		c0,0.7,0,1.6-0.2,2.3L302,70.9c0,0.7,0,1.4-0.2,2.3c0,0.2,0.2,0.5,0.5,0.5c2.3,0.2,4.5-0.2,6.5-1.1c6.8-2.7,10.6-9.9,9.2-16.9
		c-0.5-2.7-1.8-5.2-3.6-7.2c-1.1-1.4-2.7-2.5-4.3-3.4c-1.1-0.5-1.1-1.6-1.1-2.3c0.5-1.6,0.7-3.2,0.7-5c0.2-2.3,0-4.5-0.5-6.5
		c-0.5-2.5-1.6-4.7-2.7-6.5c-0.5-0.5-0.5-1.1-0.2-1.8c0.2-0.9,0-1.4-0.5-2c-1.8-1.8-4.1-3.2-6.8-4.1c-2.7-1.1-5.6-1.6-9-1.8h-1.4
		l-3.6,0.2c-0.9,0-1.6,0.2-2.5,0.2c-2,0.2-4.1,0.7-6.1,1.4c-2.9,1.1-5.2,2.5-7.2,4.3c-0.7,0.7-0.9,1.1-0.7,2c0.2,0.7,0,1.4-0.5,2
		c-2,2.9-2.9,6.3-3.2,10.1c-0.2,2.5,0,5.2,0.7,7.7c0.2,0.9-0.2,1.8-1.1,2.3c-1.4,0.7-2.7,1.6-3.6,2.7c-3.8,4.1-5.2,8.8-4.1,14.2
		c0.7,3.6,2.7,6.5,5.6,8.8c2.9,2.3,6.3,3.2,9.9,2.9c0.2,0,0.5,0,0.5-0.2c0-0.2,0.2-0.2,0.2-0.5l-2-28.8c0-0.7-0.5-0.7-0.5-0.7
		c-0.2,0-0.7,0-0.9,0h-0.5c-0.2,0-0.5,0-0.7,0l-1.8,0.2l-0.5-1.8c-0.7-3.2-0.7-6.1-0.5-8.8c0.5-3.2,1.4-5.6,2.9-7.9
		c0.5-0.5,0.9-0.9,1.6-0.9c0.5,0,0.9-0.2,1.1-0.5c0.2-0.2,0.5-0.5,0.7-0.7c1.8-1.6,4.1-2.7,7-3.4c2-0.5,4.1-0.9,6.3-0.9
		c2.9-0.2,5.9,0,8.3,0.7c3.6,0.9,6.3,2.3,8.6,4.3c0.2,0.2,0.7,0.5,1.1,0.5c0.7,0,1.1,0.5,1.6,0.9c1.6,2.5,2.7,5.2,2.9,8.6
		c0.2,2.3,0.2,4.5-0.2,6.8c0,0.5-0.2,0.9-0.2,1.1l-0.5,2l-2.3-0.2C305.6,43.4,305.1,43.4,304.5,43.2L304.5,43.2z"/>
</g>
<g display="none">
	<g display="inline">
		<path fill="#FFFFFF" d="M385.4,58.9h-0.9c-7.2,0-13.1-5.9-13.1-13.1V24.5c0-7.2,5.9-13.1,13.1-13.1h0.9c7.2,0,13.1,5.9,13.1,13.1
			v21.4C398.4,53.1,392.6,58.9,385.4,58.9z M384.5,14.8c-5.4,0-9.7,4.3-9.7,9.7v21.4c0,5.4,4.3,9.7,9.7,9.7h0.9
			c5.4,0,9.7-4.3,9.7-9.7V24.5c0-5.4-4.3-9.7-9.7-9.7C385.4,14.8,384.5,14.8,384.5,14.8z"/>
	</g>
	<g display="inline">
		<path fill="#FFFFFF" d="M400,77.6h-13.7V61.2l1.6-0.2c4.1-0.2,7.2-1.8,9.5-4.5c4.7-5.9,4.1-15.1,4.1-15.1c0-0.9,0.7-1.8,1.6-1.8
			s1.8,0.7,1.8,1.6c0,0.5,0.9,10.8-4.7,17.6c-2.5,3.2-6.1,5-10.1,5.6v9.9h10.4c0.9,0,1.8,0.7,1.8,1.8S400.9,77.6,400,77.6z"/>
	</g>
	<g display="inline">
		<path fill="#FFFFFF" d="M383.5,77.6h-13.7c-0.9,0-1.8-0.7-1.8-1.8c0-1.1,0.7-1.8,1.8-1.8h10.4v-9.9c-4.3-0.7-7.7-2.5-10.1-5.6
			c-5.6-6.8-4.7-17.1-4.7-17.6c0-0.9,0.9-1.6,1.8-1.6c0.9,0,1.6,0.9,1.6,1.8c0,0-0.9,9.5,4.1,15.1c2.3,2.7,5.4,4.3,9.5,4.5l1.6,0.2
			v16.7H383.5z"/>
	</g>
	<g display="inline">
		<path fill="#FFFFFF" d="M373.6,26.7h6.1c1.1,0,2-0.7,2-1.4l0,0c0-0.7-0.9-1.4-2-1.4h-6.1V26.7z"/>
	</g>
	<g display="inline">
		<path fill="#FFFFFF" d="M373.6,33.7h6.1c1.1,0,2-0.7,2-1.4l0,0c0-0.7-0.9-1.4-2-1.4h-6.1V33.7z"/>
	</g>
	<g display="inline">
		<path fill="#FFFFFF" d="M373.6,39.8h6.1c1.1,0,2-0.7,2-1.4l0,0c0-0.7-0.9-1.4-2-1.4h-6.1V39.8z"/>
	</g>
	<g display="inline">
		<path fill="#FFFFFF" d="M373.6,45.6h6.1c1.1,0,2-0.7,2-1.4l0,0c0-0.7-0.9-1.4-2-1.4h-6.1V45.6z"/>
	</g>
</g>
<g display="none">
	<g display="inline">
		<path fill="#FFFFFF" d="M-719.3,64.1h-73c-0.7,0-1.1-0.2-1.6-0.9c-0.2-0.5-0.2-1.1,0-1.8l9.5-15.8V11.8c0-0.9,0.7-1.8,1.8-1.8
			h53.4c0.9,0,1.8,0.7,1.8,1.8v34l9.5,15.8c0.2,0.5,0.2,1.1,0,1.8C-718.2,63.7-718.6,64.1-719.3,64.1z M-789.4,60.7h67.2l-8.3-13.5
			c-0.2-0.2-0.2-0.7-0.2-0.9V13.4h-50v32.7c0,0.2,0,0.7-0.2,0.9L-789.4,60.7z"/>
	</g>
	<g display="inline">
		<path fill="#FFFFFF" d="M-729.2,47.9h-53.4c-0.9,0-1.8-0.7-1.8-1.8c0-1.1,0.7-1.8,1.8-1.8h53.4c0.9,0,1.8,0.7,1.8,1.8
			C-727.4,47.2-728.1,47.9-729.2,47.9z"/>
	</g>
	<g display="inline">
		<path fill="#FFFFFF" d="M-732.2,55.8h-47.5c-0.9,0-1.8-0.7-1.8-1.8c0-1.1,0.7-1.8,1.8-1.8h47.5c0.9,0,1.8,0.7,1.8,1.8
			C-730.4,55.1-731.3,55.8-732.2,55.8z"/>
	</g>
	<g display="inline">
		<path fill="#FFFFFF" d="M-770.5,64.1c-0.2,0-0.7,0-0.9-0.2c-0.7-0.5-0.9-1.6-0.5-2.3l5.6-8.3c0.5-0.7,1.6-0.9,2.3-0.5
			c0.7,0.5,0.9,1.6,0.5,2.3l-5.6,8.3C-769.4,63.9-769.8,64.1-770.5,64.1z"/>
	</g>
	<g display="inline">
		<path fill="#FFFFFF" d="M-741.9,64.1c-0.5,0-1.1-0.2-1.4-0.7l-5.6-8.3c-0.5-0.7-0.5-1.8,0.5-2.3c0.7-0.5,1.8-0.5,2.3,0.5l5.6,8.3
			c0.5,0.7,0.5,1.8-0.5,2.3C-741.2,63.9-741.6,64.1-741.9,64.1z"/>
	</g>
</g>
<g display="none">
	<circle display="inline" fill="#FFFFFF" cx="-640.2" cy="61.6" r="1.6"/>
</g>
<path display="none" fill="none" stroke="#FFFFFF" stroke-width="1.5" stroke-miterlimit="10" d="M-852.3,293.7h-61.5
	c-2.5,0-4.5-2-4.5-4.5v-32c0-2.5,2-4.5,4.5-4.5h61.5c2.5,0,4.5,2,4.5,4.5v32C-847.8,291.7-849.8,293.7-852.3,293.7z"/>
<line display="none" fill="none" stroke="#FFFFFF" stroke-width="1.5" stroke-linecap="round" stroke-linejoin="round" stroke-miterlimit="10" x1="-918.3" y1="286.8" x2="-847.8" y2="286.8"/>
<polyline display="none" fill="none" stroke="#FFFFFF" stroke-width="1.5" stroke-linecap="round" stroke-linejoin="round" stroke-miterlimit="10" points="
	-891.9,296 -891.9,301 -873.9,301 -873.9,296 "/>
<path display="none" fill="#FFFFFF" d="M-868.1,307.9h-30c-0.7,0-1.1-0.5-1.1-1.1v-0.5c0-0.7,0.5-1.1,1.1-1.1h30
	c0.7,0,1.1,0.5,1.1,1.1v0.5C-866.9,307.5-867.4,307.9-868.1,307.9z"/>
<path display="none" fill="none" stroke="#FFFFFF" stroke-width="1.5" stroke-miterlimit="10" d="M-53,268.7
	c-2-7.9-9-13.7-17.6-13.7c-7.7,0-14,4.7-16.7,11.3c-1.6-1.4-3.6-2.3-5.9-2.3c-5,0-9,4.1-9,9c0,0.2,0,0.5,0,0.9
	c-5.4,1.8-9,7.2-9,13.1c0,7.4,6.1,14,13.5,14h43c8.8,0,15.8-7.4,15.8-16.2C-38.8,276.6-45.1,269.6-53,268.7z"/>
<g display="none">
	<path display="inline" fill="none" stroke="#FFFFFF" stroke-width="1.5" stroke-miterlimit="10" d="M-368.7,259.5h-14.4l-1.1-5.4
		c-0.2-0.9-1.4-1.8-2.3-1.8h-18.7c-0.9,0-2,0.9-2,1.8l-0.9,5.4h-1.8c-2.5,0-7.2,5.9-18,5.9v0.2c0,0,0,0.9,0,2v34
		c0,0.9,0.9,1.1,1.8,1.1h57.5c0.9,0,1.8,0,1.8-1.1v-39.4C-366.9,260.8-367.8,259.5-368.7,259.5z"/>
	
		<line display="inline" fill="none" stroke="#FFFFFF" stroke-width="1.5" stroke-miterlimit="10" x1="-429.5" y1="259.5" x2="-422.5" y2="259.5"/>
	
		<circle display="inline" fill="none" stroke="#FFFFFF" stroke-width="1.5" stroke-miterlimit="10" cx="-395.5" cy="280.9" r="14.4"/>
</g>
<polyline display="none" fill="none" stroke="#FFFFFF" stroke-width="1.5" stroke-linecap="round" stroke-miterlimit="10" points="
	-158.2,271 -158.2,303.2 -201,303.2 -201,261.5 -168.8,261.5 "/>
<polyline display="none" fill="none" stroke="#FFFFFF" stroke-width="1.5" stroke-linecap="round" stroke-linejoin="round" stroke-miterlimit="10" points="
	-183,286.5 -148.3,251.8 -148.3,269.2 "/>
<line display="none" fill="none" stroke="#FFFFFF" stroke-width="1.5" stroke-linecap="round" stroke-linejoin="round" stroke-miterlimit="10" x1="-148.3" y1="251.8" x2="-167.2" y2="251.8"/>
<path display="none" fill="none" stroke="#FFFFFF" stroke-width="1.5" stroke-miterlimit="10" d="M-256,302.1h-55
	c-3.2,0-5.2-1.8-5.2-4.3V280c0-0.2,0-0.5,0.2-0.5l7.9-16.9c0.2-0.5,0.5-0.7,0.7-1.1c0.9-1.6,2-3.6,4.5-3.6h39.2c2.5,0,3.6,2,4.5,3.6
	c0.2,0.2,0.2,0.7,0.5,0.9l7.9,17.1c0,0.2,0.2,0.5,0.2,0.5v17.8C-250.8,300.3-252.8,302.1-256,302.1z"/>
<line display="none" fill="none" stroke="#FFFFFF" stroke-width="1.5" stroke-miterlimit="10" x1="-316.2" y1="279.8" x2="-250.8" y2="279.8"/>
<line display="none" fill="none" stroke="#FFFFFF" stroke-width="1.5" stroke-linecap="round" stroke-miterlimit="10" x1="-306.9" y1="288.8" x2="-306.9" y2="293.5"/>
<line display="none" fill="none" stroke="#FFFFFF" stroke-width="1.5" stroke-linecap="round" stroke-miterlimit="10" x1="-299.7" y1="288.8" x2="-299.7" y2="293.5"/>
<path display="none" fill="none" stroke="#FFFFFF" stroke-width="1.5" stroke-miterlimit="10" d="M-489.5,263.8v34.5
	c0,3.4-2.7,6.3-6.3,6.3h-69.4c-3.4,0-6.3-2.7-6.3-6.3v-34.5c0-3.4,2.7-6.3,6.3-6.3h69.4C-492.2,257.5-489.5,260.2-489.5,263.8z"/>
<line display="none" fill="none" stroke="#FFFFFF" stroke-width="1.5" stroke-miterlimit="10" x1="-498" y1="257.5" x2="-498" y2="304.3"/>
<line display="none" fill="none" stroke="#FFFFFF" stroke-width="1.5" stroke-miterlimit="10" x1="-562.9" y1="257.5" x2="-562.9" y2="304.3"/>
<path display="none" fill="none" stroke="#FFFFFF" stroke-width="1.5" stroke-miterlimit="10" d="M-628.3,306.1h-23.7
	c-2.5,0-4.3-2-4.3-4.3v-47.8c0-2.5,2-4.3,4.3-4.3h23.7c2.5,0,4.3,2,4.3,4.3v47.8C-624,304.1-626,306.1-628.3,306.1z"/>
<line display="none" fill="none" stroke="#FFFFFF" stroke-miterlimit="10" x1="-624" y1="300.3" x2="-656.5" y2="300.3"/>
<line display="none" fill="none" stroke="#FFFFFF" stroke-miterlimit="10" x1="-624" y1="255.4" x2="-656.5" y2="255.4"/>
<path display="none" fill="none" stroke="#FFFFFF" stroke-width="1.5" stroke-miterlimit="10" d="M71.4,264.2
	c-3.6-6.1-8.3-9.2-14-9.2C51.2,255,46,259,46,259c-0.9,0.7-2.9,1.4-4.1,1.4h-4.1c-1.1,0-3.2-0.7-4.1-1.4c-0.2-0.2-5.2-4.1-11.5-4.1
	c-5.6,0-10.4,3.2-14,9.2c-9.9,16.9-6.1,35.2-6.1,35.8c0.9,6.1,4.3,7.2,6.8,7.2c0.2,0,0.5,0,0.7,0c4.3-0.5,13.5-13.7,14-14.2
	c0.9-0.9,2.5-1.8,3.6-1.8h24.6c1.1,0,2.9,0.9,3.6,1.8c0.5,0.5,9.9,14,14.2,14.4c0.2,0,0.5,0,0.7,0c2.5,0,5.9-1.4,6.8-7.2
	C77.5,299.8,81.6,281.1,71.4,264.2z"/>
<path display="none" fill="none" stroke="#FFFFFF" stroke-width="0.75" stroke-linecap="round" stroke-linejoin="round" stroke-miterlimit="10" d="
	M53.4,282.9c-1.8,0-3.2-1.4-3.2-3.2s1.4-3.2,3.2-3.2s3.2,1.4,3.2,3.2S55.2,282.9,53.4,282.9z"/>
<path display="none" fill="none" stroke="#FFFFFF" stroke-width="0.75" stroke-linecap="round" stroke-linejoin="round" stroke-miterlimit="10" d="
	M53.4,273.5c-1.8,0-3.2-1.4-3.2-3.2s1.4-3.2,3.2-3.2s3.2,1.4,3.2,3.2S55.2,273.5,53.4,273.5z"/>
<circle display="none" fill="none" stroke="#FFFFFF" stroke-width="0.75" stroke-linecap="round" stroke-linejoin="round" stroke-miterlimit="10" cx="62.9" cy="275" r="3.2"/>
<line display="none" fill="none" stroke="#FFFFFF" stroke-width="0.75" stroke-linecap="round" stroke-linejoin="round" stroke-miterlimit="10" x1="21.9" y1="268.5" x2="21.9" y2="281.6"/>
<line display="none" fill="none" stroke="#FFFFFF" stroke-width="0.75" stroke-linecap="round" stroke-linejoin="round" stroke-miterlimit="10" x1="15.3" y1="275" x2="28.4" y2="275"/>
<path display="none" fill="none" stroke="#FFFFFF" stroke-width="1.5" stroke-miterlimit="10" d="M200.1,254.8
	c-0.9-0.9-2.5-0.9-3.6,0c-0.9,0.9-1.8,1.8-1.8,1.8v0.2c0,0,0.9,0.9,1.8,1.8l1.1,1.1c0.9,0.9,1.8,1.8,1.8,1.8h0.2
	c0,0,0.9-0.9,1.8-1.8c0.9-0.9,0.9-2.5,0-3.4L200.1,254.8z"/>
<polygon display="none" fill="none" stroke="#FFFFFF" stroke-width="1.5" stroke-miterlimit="10" points="194.7,256.6 177.1,274.1 
	182.1,279.1 199.7,261.3 "/>
<polyline display="none" fill="none" stroke="#FFFFFF" stroke-width="1.5" stroke-linejoin="round" stroke-miterlimit="10" points="
	177.1,274.1 173.5,282.5 173.5,282.5 182.1,278.9 "/>
<path display="none" fill="none" stroke="#FFFFFF" stroke-width="1.5" stroke-linejoin="round" stroke-miterlimit="10" d="
	M194,305.2h-70.5c-2.5,0-4.5-2-4.5-4.5v-38.5c0-2.5,2-4.5,4.5-4.5h70.3c2.5,0,4.5,2,4.5,4.5v38.5C198.5,303.2,196.5,305.2,194,305.2
	z"/>
<line display="none" fill="none" stroke="#FFFFFF" stroke-width="1.5" stroke-miterlimit="10" x1="132.7" y1="305.2" x2="132.7" y2="257.7"/>
<path display="none" fill="none" stroke="#FFFFFF" stroke-width="1.5" stroke-miterlimit="10" d="M289.1,254.3c0.5,0,0.9,0,1.4,0
	c3.2,0.2,6.3,0.7,9.5,2c2.7,1.1,5.2,2.5,7.2,4.5c1.1,1.1,1.4,2.3,0.9,3.6c0,0.2,0,0.2,0,0.5c1.6,2.3,2.5,4.5,2.9,7.2
	c0.5,2.3,0.7,4.7,0.5,7c0,1.8-0.5,3.6-0.7,5.2c0,0.2,0,0.2,0.2,0.2c1.8,0.9,3.4,2.3,4.7,3.6c2,2.3,3.4,5,4.1,7.9
	c1.6,7.9-2.7,15.8-10.1,18.9c-2.5,0.9-4.7,1.4-7.4,1.1c-1.1,0-2-0.9-2-2.3c0-0.9,0-2,0.2-2.9c0.2-1.8,0.2-3.4,0.5-5.2
	c0.2-2,0.2-4.1,0.5-5.9c0.2-2,0.2-3.8,0.5-5.9c0.2-2,0.2-4.1,0.5-5.9c0-1.1,0.2-2.3,0.2-3.4c0-1.4,1.1-2.3,2.5-2.3
	c0.7,0,1.4,0.2,2,0.2c0-0.5,0.2-1.1,0.2-1.6c0.2-2,0.5-4.1,0.2-6.3c-0.2-2.7-1.1-5.4-2.7-7.9l-0.2-0.2c-0.7,0-1.4-0.5-2-0.9
	c-2.3-2-4.7-3.2-7.7-3.8c-2.7-0.7-5.4-0.7-7.9-0.7c-2,0-4.1,0.2-5.9,0.9c-2.3,0.7-4.5,1.6-6.3,3.2c-0.2,0.2-0.5,0.5-0.7,0.7
	c-0.7,0.5-1.4,0.9-2,0.9c-0.2,0-0.2,0.2-0.2,0.2c-1.6,2.3-2.3,4.7-2.7,7.2c-0.5,2.7-0.2,5.6,0.5,8.3c0,0,0,0,0,0.2
	c0.2,0,0.7,0,0.9-0.2c0.5,0,0.9-0.2,1.6-0.2c1.4,0,2.3,0.9,2.3,2.3c0.2,3.4,0.5,6.8,0.7,10.1c0.2,2.7,0.5,5.4,0.5,8.3
	c0.2,2.9,0.5,6.1,0.7,9c0,0.5,0,1.1,0,1.6c0,1.4-0.9,2.5-2.3,2.5c-4.1,0.2-7.7-0.9-11-3.4c-3.4-2.5-5.4-5.6-6.3-9.7
	c-1.4-6.1,0.2-11.3,4.5-15.8c1.1-1.1,2.5-2.3,4.1-2.9c0.2,0,0.2-0.2,0.2-0.5c-0.7-2.7-0.9-5.4-0.7-8.1c0.2-4.1,1.4-7.7,3.4-11
	c0.2-0.2,0.2-0.5,0.2-0.7c-0.2-1.4,0-2.7,1.1-3.6c2.3-2,5-3.6,7.7-4.7c2-0.7,4.3-1.4,6.5-1.6c1.1-0.2,2.5-0.2,3.6-0.2h0.2
	C287.5,254.3,288.5,254.3,289.1,254.3z"/>
<g display="none">
	<path display="inline" fill="none" stroke="#FFFFFF" stroke-width="1.5" stroke-miterlimit="10" d="M385.4,298.5h-0.9
		c-6.3,0-11.3-5.2-11.3-11.3v-21.4c0-6.3,5.2-11.3,11.3-11.3h0.9c6.3,0,11.3,5.2,11.3,11.3v21.4
		C396.8,293.3,391.7,298.5,385.4,298.5z"/>
	<path display="inline" fill="none" stroke="#FFFFFF" stroke-width="1.5" stroke-linecap="round" stroke-miterlimit="10" d="
		M402.9,282.5c0,0,2,20.3-14.9,21.4V317h12.2"/>
	<path display="inline" fill="none" stroke="#FFFFFF" stroke-width="1.5" stroke-linecap="round" stroke-miterlimit="10" d="
		M366.9,282.5c0,0-2,20.3,14.9,21.4V317h-12.2"/>
	<path display="inline" fill="#FFFFFF" d="M373.6,267.8h6.1c1.1,0,2-0.7,2-1.4l0,0c0-0.7-0.9-1.4-2-1.4h-6.1V267.8z"/>
	<path display="inline" fill="#FFFFFF" d="M373.6,274.8h6.1c1.1,0,2-0.7,2-1.4l0,0c0-0.7-0.9-1.4-2-1.4h-6.1V274.8z"/>
	<path display="inline" fill="#FFFFFF" d="M373.6,280.9h6.1c1.1,0,2-0.7,2-1.4l0,0c0-0.7-0.9-1.4-2-1.4h-6.1V280.9z"/>
	<path display="inline" fill="#FFFFFF" d="M373.6,286.8h6.1c1.1,0,2-0.7,2-1.4l0,0c0-0.7-0.9-1.4-2-1.4h-6.1V286.8z"/>
</g>
<g display="none">
	
		<polygon display="inline" fill="none" stroke="#FFFFFF" stroke-width="1.5" stroke-linecap="round" stroke-linejoin="round" stroke-miterlimit="10" points="
		-729.2,287.4 -729.2,253 -754.9,253 -757,253 -782.6,253 -782.6,287.4 -792.3,303.4 -756.7,303.4 -754.9,303.4 -719.3,303.4 	"/>
	
		<line display="inline" fill="none" stroke="#FFFFFF" stroke-width="1.5" stroke-linecap="round" stroke-linejoin="round" stroke-miterlimit="10" x1="-782.6" y1="287.4" x2="-729.2" y2="287.4"/>
	
		<line display="inline" fill="none" stroke="#FFFFFF" stroke-width="1.5" stroke-linecap="round" stroke-linejoin="round" stroke-miterlimit="10" x1="-779.5" y1="295.3" x2="-732.2" y2="295.3"/>
	
		<line display="inline" fill="none" stroke="#FFFFFF" stroke-width="1.5" stroke-linecap="round" stroke-linejoin="round" stroke-miterlimit="10" x1="-764.8" y1="295.3" x2="-770.5" y2="303.4"/>
	
		<line display="inline" fill="none" stroke="#FFFFFF" stroke-width="1.5" stroke-linecap="round" stroke-linejoin="round" stroke-miterlimit="10" x1="-747.7" y1="295.3" x2="-741.9" y2="303.4"/>
</g>
<circle display="none" fill="#FFFFFF" cx="-640.2" cy="303" r="1.6"/>
</svg>
