<?xml version="1.0" encoding="utf-8"?>
<!-- Generator: Adobe Illustrator 18.0.0, SVG Export Plug-In . SVG Version: 6.00 Build 0)  -->
<!DOCTYPE svg PUBLIC "-//W3C//DTD SVG 1.1//EN" "http://www.w3.org/Graphics/SVG/1.1/DTD/svg11.dtd">
<svg version="1.1" id="Layer_1" xmlns="http://www.w3.org/2000/svg" xmlns:xlink="http://www.w3.org/1999/xlink" x="0px" y="0px"
	 viewBox="0 0 80 80" enable-background="new 0 0 80 80" xml:space="preserve">
<rect x="-875.3" y="-67.5" display="none" fill="#010101" width="2224" height="514.1"/>
<path display="none" fill="none" stroke="#FFFFFF" stroke-miterlimit="10" d="M-383.5,214.4H-693c-19.9,0-36.2-16.3-36.2-36.2l0,0
	c0-19.9,16.3-36.2,36.2-36.2h309.5c19.9,0,36.2,16.3,36.2,36.2l0,0C-347.3,198.2-363.5,214.4-383.5,214.4z"/>
<g display="none">
	
		<text transform="matrix(1 0 0 1 -644.4196 188.3977)" display="inline" fill="#FFFFFF" font-family="'HelveticaNeue-Light'" font-size="24.8769">TEXT IN ALL CAPS</text>
</g>
<g display="none">
	<g display="inline">
		<path fill="#FFFFFF" d="M-231.6,243c-35.7,0-64.8-29.1-64.8-64.8s29.1-64.8,64.8-64.8s64.8,29.1,64.8,64.8S-195.9,243-231.6,243z
			 M-231.6,116.1c-34.4,0-62.2,27.8-62.2,62.2s27.8,62.2,62.2,62.2s62.2-27.8,62.2-62.2S-197.2,116.1-231.6,116.1z"/>
	</g>
	<g display="inline">
		
			<rect x="-232.9" y="145.9" transform="matrix(-0.7071 -0.7071 0.7071 -0.7071 -521.2339 140.0897)" fill="#FFFFFF" width="2.6" height="64.3"/>
	</g>
	<g display="inline">
		
			<rect x="-263.6" y="176.7" transform="matrix(-0.7071 -0.7071 0.7071 -0.7071 -520.925 140.2334)" fill="#FFFFFF" width="64.3" height="2.6"/>
	</g>
</g>
<g display="none">
	
		<text transform="matrix(1 0 0 1 1045.3107 7.1858)" display="inline" fill="#FFFFFF" font-family="'HelveticaNeue-Light'" font-size="24.8769">LAPTOP</text>
	
		<text transform="matrix(1 0 0 1 1045.3107 37.0871)" display="inline" fill="#FFFFFF" font-family="'HelveticaNeue-Light'" font-size="24.8769">SMARTPHONE</text>
	
		<text transform="matrix(1 0 0 1 1045.3107 66.9892)" display="inline" fill="#FFFFFF" font-family="'HelveticaNeue-Light'" font-size="24.8769">TABLET</text>
	
		<text transform="matrix(1 0 0 1 1045.3107 96.6277)" display="inline" fill="#FFFFFF" font-family="'HelveticaNeue-Light'" font-size="24.8769">HARD DRIVE</text>
	
		<text transform="matrix(1 0 0 1 1045.3107 126.529)" display="inline" fill="#FFFFFF" font-family="'HelveticaNeue-Light'" font-size="24.8769">CLOUD STORAGE</text>
	
		<text transform="matrix(1 0 0 1 1045.3107 156.432)" display="inline" fill="#FFFFFF" font-family="'HelveticaNeue-Light'" font-size="24.8769">DSLR</text>
	
		<text transform="matrix(1 0 0 1 1045.3107 186.3334)" display="inline" fill="#FFFFFF" font-family="'HelveticaNeue-Light'" font-size="24.8769">GAME CONTROLLER</text>
	
		<text transform="matrix(1 0 0 1 1045.3107 216.2347)" display="inline" fill="#FFFFFF" font-family="'HelveticaNeue-Light'" font-size="24.8769">WACOM PEN</text>
	
		<text transform="matrix(1 0 0 1 1045.3107 245.8742)" display="inline" fill="#FFFFFF" font-family="'HelveticaNeue-Light'" font-size="24.8769">HEADPHONES</text>
	
		<text transform="matrix(1 0 0 1 1045.3107 275.7756)" display="inline" fill="#FFFFFF" font-family="'HelveticaNeue-Light'" font-size="24.8769">MIC</text>
</g>
<g display="none">
	<path display="inline" fill="#FFFFFF" d="M-621.9,58.1h-71.6c-3.9,0-7.3-3.1-7.3-7.1V13.8c0-3.9,3.1-7.3,7.3-7.3h71.6
		c3.9,0,7.3,3.1,7.3,7.3V51C-614.8,55-618,58.1-621.9,58.1z M-693.5,10.4c-1.8,0-3.1,1.6-3.1,3.1v37.2c0,1.8,1.6,3.1,3.1,3.1h71.6
		c1.8,0,3.1-1.6,3.1-3.1v-37c0-1.8-1.6-3.1-3.1-3.1h-71.6V10.4z"/>
</g>
<g display="none">
	<path display="inline" fill="#FFFFFF" d="M-616.7,50h-82.1c-1,0-2.1-0.8-2.1-2.1c0-1.3,0.8-2.1,2.1-2.1h82.1c1,0,2.1,0.8,2.1,2.1
		C-614.6,49.2-615.6,50-616.7,50z"/>
</g>
<g display="none">
	<path display="inline" fill="#FFFFFF" d="M-647.3,66.5h-21c-1,0-2.1-0.8-2.1-2.1v-5.8c0-1,0.8-2.1,2.1-2.1s2.1,0.8,2.1,2.1v3.9h17
		v-3.9c0-1,0.8-2.1,2.1-2.1c1.3,0,2.1,0.8,2.1,2.1v6C-645.2,65.7-646.3,66.5-647.3,66.5z"/>
</g>
<g display="none">
	<path display="inline" fill="#FFFFFF" d="M-640.3,72.8h-34.9c-0.8,0-1.3-0.5-1.3-1.3V71c0-0.8,0.5-1.3,1.3-1.3h34.9
		c0.8,0,1.3,0.5,1.3,1.3v0.5C-639,72.3-639.7,72.8-640.3,72.8z"/>
</g>
<g display="none">
	<path display="inline" fill="#FFFFFF" d="M306.4,66.5h-50.1c-9.7,0-17.8-8.4-17.8-18.1c0-7.1,4.2-13.6,10.5-16.5
		c0.3-6.8,5.8-12.1,12.6-12.1c2.1,0,4.2,0.5,6,1.6c3.9-7.3,11.8-12.1,20.2-12.1c10.2,0,18.9,6.6,22,16.3
		c9.4,1.6,16.8,10.5,16.8,20.5C326.6,57,317.4,66.5,306.4,66.5z M261.5,23.5c-4.7,0-8.7,3.9-8.7,8.7v0.3l0.3,1.8l-1.3,0.8
		c-5.5,1.8-9.2,7.3-9.2,13.4c0,7.6,6.3,14.2,13.9,14.2h50.1c8.9,0,16.5-7.6,16.5-16.8c0-8.4-6.6-15.7-14.7-16.8l-1.3-0.3l-0.3-1.3
		c-2.1-8.7-9.7-14.4-18.4-14.4c-7.9,0-14.7,4.7-17.6,11.8l-1,2.6l-2.1-1.8C265.4,24.3,263.6,23.5,261.5,23.5z"/>
</g>
<g display="none">
	<g display="inline">
		<path fill="#FFFFFF" d="M-59.3,68.3h-66.6c-3.4,0-3.9-1.8-3.9-3.1V21.1l2.1-0.3c7.9,0,12.9-2.9,16-4.7c1.8-1,3.4-1.8,4.7-1.8h0.5
			l0.8-4.7c0.3-2.1,2.4-3.7,4.5-3.7h21.8c2.1,0,3.9,1.6,4.5,3.4l1,5h15.2c2.4,0,3.9,2.9,3.9,5v45.9C-55.1,66.5-55.9,68.3-59.3,68.3z
			 M-126.2,64.4C-126.2,64.4-125.9,64.4-126.2,64.4h66.9l0,0V19.3c0-0.3-0.3-0.8-0.5-1h-18.1l-1.6-7.9c0-0.3-0.5-0.5-0.8-0.5H-102
			c-0.3,0-0.5,0.3-0.5,0.5l-1.3,7.9h-3.7c-0.5,0-1.8,0.8-2.9,1.3c-3.1,1.8-8.1,4.7-16,5.2v39.6H-126.2z"/>
	</g>
	<g display="inline">
		<rect x="-130.1" y="14.3" fill="#FFFFFF" width="8.4" height="3.9"/>
	</g>
	<g display="inline">
		<path fill="#FFFFFF" d="M-90.5,59.9c-10.2,0-18.6-8.4-18.6-18.6s8.4-18.6,18.6-18.6s18.6,8.4,18.6,18.6S-80.3,59.9-90.5,59.9z
			 M-90.5,26.6c-8.1,0-14.7,6.6-14.7,14.7S-98.6,56-90.5,56s14.7-6.6,14.7-14.7S-82.4,26.6-90.5,26.6z"/>
	</g>
</g>
<g display="none">
	<path display="inline" fill="#FFFFFF" d="M187.5,69.1H134V16.7h39.3c1,0,2.1,0.8,2.1,1.8s-0.8,2.1-2.1,2.1H138v44.6h45.6V29.8
		c0-1,0.8-2.1,2.1-2.1s2.1,0.8,2.1,2.1v39.3H187.5z"/>
</g>
<g display="none">
	<path display="inline" fill="#FFFFFF" d="M156.9,50c-0.5,0-1-0.3-1.3-0.5c-0.8-0.8-0.8-2.1,0-2.9l40.4-40.4
		c0.5-0.5,1.3-0.8,2.1-0.5c0.8,0.3,1.3,1,1.3,1.8v20.2c0,1-0.8,2.1-2.1,2.1s-2.1-0.8-2.1-2.1V12.2l-36.7,37
		C157.9,49.7,157.4,50,156.9,50z"/>
</g>
<g display="none">
	<path display="inline" fill="#FFFFFF" d="M197.2,9.3h-22c-1,0-2.1-0.8-2.1-2.1s0.8-2.1,2.1-2.1h22c1,0,2.1,0.8,2.1,2.1
		S198.6,9.3,197.2,9.3z"/>
</g>
<g>
	<path fill="#AAAD00" d="M71.9,67.8H8.1c-4.7,0-8.1-2.9-8.1-7.1V40c0-0.5,0-1,0.3-1.6l9.2-19.7c0.3-0.5,0.5-1,0.8-1.3
		c1-2.1,2.9-5.2,6.8-5.2h45.6c4.2,0,6,3.4,7.1,5.2c0.3,0.5,0.5,0.8,0.5,1l9.2,20.2c0.3,0.5,0.3,1,0.3,1.6V61
		C80,64.9,76.6,67.8,71.9,67.8z M17,16.1c-1.6,0-2.4,1.3-3.4,3.1c-0.3,0.3-0.3,0.8-0.8,1.3L3.9,40.3v20.5c0,2.9,2.9,3.1,4.2,3.1
		h63.7c1.3,0,4.2-0.3,4.2-3.1V40l-9.2-19.7c0,0-0.3-0.5-0.5-0.8c-1.3-2.1-2.1-3.4-3.7-3.4C62.7,16.1,17,16.1,17,16.1z"/>
</g>
<g>
	<rect x="1.8" y="38.2" fill="#AAAD00" width="76.1" height="3.9"/>
</g>
<g>
	<path fill="#AAAD00" d="M12.6,57.8c-1,0-2.1-0.8-2.1-2.1v-5.5c0-1,0.8-2.1,2.1-2.1s2.1,0.8,2.1,2.1v5.5
		C14.4,57,13.6,57.8,12.6,57.8z"/>
</g>
<g>
	<path fill="#AAAD00" d="M21,57.8c-1,0-2.1-0.8-2.1-2.1v-5.5c0-1,0.8-2.1,2.1-2.1c1,0,2.1,0.8,2.1,2.1v5.5
		C23.1,57,22.3,57.8,21,57.8z"/>
</g>
<g display="none">
	<path display="inline" fill="#FFFFFF" d="M-207,70.4h-80.8c-5,0-9.2-4.2-9.2-9.2V21.1c0-5,4.2-9.2,9.2-9.2h80.8
		c5,0,9.2,4.2,9.2,9.2v40.1C-197.8,66.5-202,70.4-207,70.4z M-287.7,15.9c-2.9,0-5.2,2.4-5.2,5.2v40.1c0,2.9,2.4,5.2,5.2,5.2h80.8
		c2.9,0,5.2-2.4,5.2-5.2V21.1c0-2.9-2.4-5.2-5.2-5.2C-207,15.9-287.7,15.9-287.7,15.9z"/>
</g>
<g display="none">
	<rect x="-211.7" y="14" display="inline" fill="#FFFFFF" width="3.9" height="54.6"/>
</g>
<g display="none">
	<rect x="-287.2" y="14" display="inline" fill="#FFFFFF" width="3.9" height="54.6"/>
</g>
<g display="none">
	<path display="inline" fill="#FFFFFF" d="M-361.4,72.5H-389c-3.9,0-7.1-3.1-7.1-7.1V9.8c0-3.9,3.1-7.1,7.1-7.1h27.5
		c3.9,0,7.1,3.1,7.1,7.1v55.6C-354.4,69.4-357.5,72.5-361.4,72.5z M-389,6.7c-1.6,0-3.1,1.3-3.1,3.1v55.6c0,1.6,1.3,3.1,3.1,3.1
		h27.5c1.6,0,3.1-1.3,3.1-3.1V9.8c0-1.6-1.3-3.1-3.1-3.1H-389z"/>
</g>
<g display="none">
	<rect x="-394" y="62.3" display="inline" fill="#FFFFFF" width="37.8" height="2.6"/>
</g>
<g display="none">
	<rect x="-394" y="10.1" display="inline" fill="#FFFFFF" width="37.8" height="2.6"/>
</g>
<g display="none">
	<path display="inline" fill="#FFFFFF" d="M380.9,73.8c-3.1,0-8.4-1.3-10-10.2c-0.3-0.8-4.7-22.8,7.3-43
		c4.7-7.9,10.5-11.8,17.8-11.8c7.6,0,13.9,4.7,14.4,5c0.8,0.5,2.6,1.3,3.4,1.3h4.7c1,0,2.6-0.5,3.4-1.3l0,0c0,0,6.6-5.2,14.7-5.2
		c7.3,0,13.4,3.9,17.8,11.8c11.8,20.2,7.3,42.2,7.3,43.3c-1.3,8.7-6.8,10-9.7,10c-0.3,0-0.8,0-1,0c-1.3,0-5.5-0.5-17.6-17l-0.3-0.5
		c-0.5-0.8-1.8-1.3-2.9-1.3h-28.6c-0.8,0-2.1,0.8-2.9,1.3l-0.3,0.5c-11.8,16.5-15.7,16.8-17.3,17C381.4,73.8,381.1,73.8,380.9,73.8z
		 M396.1,13c-5.8,0-10.8,3.4-14.4,9.7c-11.3,18.9-7.1,39.6-6.8,40.4c0.8,5,2.9,7.1,6.6,6.8c0.5,0,4.2-1,14.4-15.2
		c0.3-0.3,0.5-0.5,0.5-0.5c1.3-1.6,3.7-2.9,5.8-2.9h28.6c2.1,0,4.5,1.3,5.8,2.9c0,0,0.3,0.3,0.5,0.5c10.8,14.7,14.4,15.5,14.7,15.5
		c3.7,0.3,5.8-1.8,6.6-6.8c0.3-1,4.5-21.5-6.8-40.4c-3.9-6.6-8.7-9.7-14.4-9.7c-6.6,0-12.1,4.2-12.1,4.2c-1.6,1-4.2,2.1-6,2.1h-4.7
		c-1.8,0-4.5-0.8-6-2.1C407.9,17.2,402.6,13,396.1,13z"/>
</g>
<g display="none">
	<path display="inline" fill="#FFFFFF" d="M432,44.7c-2.6,0-4.7-2.1-4.7-4.7s2.1-4.7,4.7-4.7c2.6,0,4.7,2.1,4.7,4.7
		C436.7,42.6,434.6,44.7,432,44.7z M432,37.4c-1.6,0-2.6,1.3-2.6,2.6c0,1.3,1.3,2.6,2.6,2.6c1.6,0,2.6-1.3,2.6-2.6
		C434.6,38.7,433.6,37.4,432,37.4z"/>
</g>
<g display="none">
	<path display="inline" fill="#FFFFFF" d="M432,33.4c-2.6,0-4.7-2.1-4.7-4.7s2.1-4.7,4.7-4.7c2.6,0,4.7,2.1,4.7,4.7
		S434.6,33.4,432,33.4z M432,26.1c-1.6,0-2.6,1.3-2.6,2.6c0,1.3,1.3,2.6,2.6,2.6c1.6,0,2.6-1.3,2.6-2.6
		C434.6,27.4,433.6,26.1,432,26.1z"/>
</g>
<g display="none">
	<path display="inline" fill="#FFFFFF" d="M443.3,39.2c-2.6,0-4.7-2.1-4.7-4.7s2.1-4.7,4.7-4.7s4.7,2.1,4.7,4.7
		S445.9,39.2,443.3,39.2z M443.3,31.6c-1.6,0-2.6,1.3-2.6,2.6c0,1.3,1.3,2.6,2.6,2.6c1.3,0,2.6-1.3,2.6-2.6
		C445.9,32.9,444.6,31.6,443.3,31.6z"/>
</g>
<g display="none">
	<path display="inline" fill="#FFFFFF" d="M395.3,43.1c-0.5,0-1-0.5-1-1V26.9c0-0.5,0.5-1,1-1c0.5,0,1,0.5,1,1v15.2
		C396.3,42.6,395.8,43.1,395.3,43.1z"/>
</g>
<g display="none">
	<path display="inline" fill="#FFFFFF" d="M402.9,35.5h-15.2c-0.5,0-1-0.5-1-1s0.5-1,1-1h15.2c0.5,0,1,0.5,1,1
		S403.7,35.5,402.9,35.5z"/>
</g>
<g display="none">
	<path display="inline" fill="#FFFFFF" d="M602.2,20.3h-0.8l-0.5-0.5l-6.3-6v-1.8l0.5-0.8c0,0,1-1,2.1-2.1c1.8-1.8,5-1.8,6.8,0
		l1.6,1.6c1,0.8,1.6,2.1,1.6,3.4s-0.5,2.4-1.3,3.4l-2.1,2.1C603.5,20.3,602.8,20.3,602.2,20.3z M599.3,13l2.1,2.1
		c0.3,0.3,0.5,0.5,0.8,0.8l1-1c0,0,0-0.3,0-0.5c0-0.3,0-0.5-0.3-0.5l-1.6-1.6c-0.5-0.5-0.8-0.5-1.3,0L599.3,13z"/>
</g>
<g display="none">
	<path display="inline" fill="#FFFFFF" d="M581.8,41.8l-8.7-8.4l23.3-23.1l8.7,8.4L581.8,41.8z M578.9,33.4l2.9,2.9l17.8-17.6
		l-2.9-2.9L578.9,33.4z"/>
</g>
<g display="none">
	<path display="inline" fill="#FFFFFF" d="M571.8,45c-0.5,0-1-0.3-1.3-0.5c-0.5-0.5-0.8-1.3-0.5-2.1l4.2-9.7l3.7,1.6l-2.4,5.2
		l5.5-2.4l1.6,3.7l-10,4.2C572.3,45,572.1,45,571.8,45z"/>
</g>
<g display="none">
	<path display="inline" fill="#FFFFFF" d="M595.7,71.5h-81.8c-3.9,0-7.3-3.1-7.3-7.3V19.5c0-3.9,3.1-7.3,7.3-7.3h81.8
		c3.9,0,7.3,3.1,7.3,7.3v44.9C603,68.1,599.6,71.5,595.7,71.5z M513.8,16.1c-1.8,0-3.1,1.6-3.1,3.1v44.9c0,1.8,1.6,3.1,3.1,3.1h81.8
		c1.8,0,3.1-1.6,3.1-3.1V19.5c0-1.8-1.6-3.1-3.1-3.1h-81.8V16.1z"/>
</g>
<g display="none">
	<rect x="522.5" y="14.3" display="inline" fill="#FFFFFF" width="3.9" height="55.3"/>
</g>
<g display="none">
	<path display="inline" fill="#FFFFFF" d="M723.1,84.3c-0.5,0-1,0-1.6,0c-2.4-0.3-4.2-2.1-4.2-4.5c0-0.8,0-1.8,0.3-2.6l2.1-28.6
		c0-0.8,0-1.8,0.3-2.6c0.3-2.6,2.4-4.7,5.2-4.5c0.3,0,0.5,0,0.5,0l0,0c0.3-2.4,0.5-4.5,0.3-6.8c-0.3-2.9-1-5.5-2.6-7.6
		c-1-0.3-2.1-0.8-2.9-1.6c-2.1-1.8-4.7-3.1-8.1-3.9c-2.6-0.5-5.8-0.8-8.7-0.8c-2.4,0-4.5,0.3-6.6,0.8c-2.6,0.8-4.7,1.8-6.6,3.1
		c-0.3,0.3-0.5,0.5-0.8,0.5c-0.8,0.8-1.8,1.3-2.9,1.6c-1.3,2.1-2.1,4.5-2.4,7.1c-0.3,2.4-0.3,4.7,0,7.3c0.3,0,0.8,0,1,0l0,0
		c2.6,0,4.5,1.8,4.7,4.5l2.4,33.8c0,1.3-0.3,2.6-1,3.4c-0.8,0.8-2.1,1.6-3.4,1.6c-5.2,0.3-10-1-14.2-4.2c-4.2-3.1-7.1-7.3-8.1-12.3
		c-1.6-7.6,0.3-14.4,5.8-19.9c1.3-1.3,2.6-2.4,4.2-3.4c-0.5-2.9-0.8-6-0.8-8.9c0.3-5.2,1.6-9.4,4.2-13.4c-0.5-2.1,0.3-4.2,1.8-5.8
		c2.6-2.6,6-4.5,9.7-5.8c2.6-1,5.2-1.6,7.9-1.8c1,0,1.8-0.3,2.9-0.3l1.8-0.3h4.7c4.2,0.3,8.1,1,11.5,2.4s6.6,3.1,9.2,5.8
		c1.6,1.6,2.1,3.4,1.8,5.5c1.6,2.6,2.9,5.2,3.4,8.4c0.5,2.6,0.8,5.8,0.8,8.7c0,1.8-0.3,3.4-0.8,5.2c1.8,1,3.4,2.4,5,4.2
		c2.6,2.9,4.5,6.3,5,10.2c2.1,10.2-3.7,20.2-13.1,24.1C728.7,83.8,725.8,84.3,723.1,84.3z M724.5,45.2c-0.5,0-0.8,0.3-0.8,0.8
		c0,0.8,0,1.8-0.3,2.6l-2.1,28.6c0,0.8,0,1.6-0.3,2.6c0,0.3,0.3,0.5,0.5,0.5c2.6,0.3,5.2-0.3,7.6-1.3c7.9-3.1,12.3-11.5,10.8-19.7
		c-0.5-3.1-2.1-6-4.2-8.4c-1.3-1.6-3.1-2.9-5-3.9c-1.3-0.5-1.3-1.8-1.3-2.6c0.5-1.8,0.8-3.7,0.8-5.8c0.3-2.6,0-5.2-0.5-7.6
		c-0.5-2.9-1.8-5.5-3.1-7.6c-0.5-0.5-0.5-1.3-0.3-2.1c0.3-1,0-1.6-0.5-2.4c-2.1-2.1-4.7-3.7-7.9-4.7c-3.1-1.3-6.6-1.8-10.5-2.1h-1.6
		l-3.7,0c-1,0-1.8,0.3-2.9,0.3c-2.4,0.3-4.7,0.8-7.1,1.6c-3.4,1.3-6,2.9-8.4,5c-0.8,0.8-1,1.3-0.8,2.4c0.3,0.8,0,1.6-0.5,2.4
		c-2.4,3.4-3.4,7.3-3.7,11.8c-0.3,2.9,0,6,0.8,8.9c0.3,1-0.3,2.1-1.3,2.6c-1.6,0.8-3.1,1.8-4.2,3.1c-4.5,4.7-6,10.2-4.7,16.5
		c0.8,4.2,3.1,7.6,6.6,10.2c3.4,2.6,7.3,3.7,11.5,3.4c0.3,0,0.5,0,0.5-0.3c0-0.3,0.3-0.3,0.3-0.5L685.9,46c0-0.8-0.5-0.8-0.5-0.8
		c-0.3,0-0.8,0-1,0h-0.5c-0.3,0-0.5,0-0.8,0l-2.1,0.3l-0.5-2.1c-0.8-3.7-0.8-7.1-0.5-10.2c0.5-3.7,1.6-6.6,3.4-9.2
		c0.5-0.5,1-1,1.8-1c0.5,0,1-0.3,1.3-0.5s0.5-0.5,0.8-0.8c2.1-1.8,4.7-3.1,8.1-3.9c2.4-0.5,4.7-1,7.3-1c3.4-0.3,6.8,0,9.7,0.8
		c4.2,1,7.3,2.6,10,5c0.3,0.3,0.8,0.5,1.3,0.5c0.8,0,1.3,0.5,1.8,1c1.8,2.9,3.1,6,3.4,10c0.3,2.6,0.3,5.2-0.3,7.9
		c0,0.5-0.3,1-0.3,1.3l-0.5,2.4l-2.6-0.3C725.5,45.5,725,45.5,724.5,45.2L724.5,45.2z"/>
</g>
<g display="none">
	<g display="inline">
		<path fill="#FFFFFF" d="M818.6,63.6h-1c-8.4,0-15.2-6.8-15.2-15.2V23.5c0-8.4,6.8-15.2,15.2-15.2h1c8.4,0,15.2,6.8,15.2,15.2v24.9
			C833.8,56.8,827,63.6,818.6,63.6z M817.3,12.2c-6.3,0-11.3,5-11.3,11.3v24.9c0,6.3,5,11.3,11.3,11.3h1c6.3,0,11.3-5,11.3-11.3
			V23.5c0-6.3-5-11.3-11.3-11.3H817.3z"/>
	</g>
	<g display="inline">
		<path fill="#FFFFFF" d="M835.7,85.4h-16V66.2l1.8-0.3c4.7-0.3,8.4-2.1,11-5.2c5.5-6.8,4.7-17.6,4.7-17.6c0-1,0.8-2.1,1.8-2.1
			c1,0,2.1,0.8,2.1,1.8c0,0.5,1,12.6-5.5,20.5c-2.9,3.7-7.1,5.8-11.8,6.6v11.5h12.1c1,0,2.1,0.8,2.1,2.1
			C838,84.9,836.7,85.4,835.7,85.4z"/>
	</g>
	<g display="inline">
		<path fill="#FFFFFF" d="M816.3,85.4h-16c-1,0-2.1-0.8-2.1-2.1s0.8-2.1,2.1-2.1h12.1V69.9c-5-0.8-8.9-2.9-11.8-6.6
			c-6.6-7.9-5.5-19.9-5.5-20.5c0-1,1-1.8,2.1-1.8c1,0,1.8,1,1.8,2.1c0,0-1,11,4.7,17.6c2.6,3.1,6.3,5,11,5.2l1.8,0.3v19.1H816.3z"/>
	</g>
	<g display="inline">
		<path fill="#FFFFFF" d="M805,26.1h7.1c1.3,0,2.4-0.8,2.4-1.6l0,0c0-0.8-1-1.6-2.4-1.6H805V26.1z"/>
	</g>
	<g display="inline">
		<path fill="#FFFFFF" d="M805,34.2h7.1c1.3,0,2.4-0.8,2.4-1.6l0,0c0-0.8-1-1.6-2.4-1.6H805V34.2z"/>
	</g>
	<g display="inline">
		<path fill="#FFFFFF" d="M805,41.3h7.1c1.3,0,2.4-0.8,2.4-1.6l0,0c0-0.8-1-1.6-2.4-1.6H805V41.3z"/>
	</g>
	<g display="inline">
		<path fill="#FFFFFF" d="M805,48.1h7.1c1.3,0,2.4-0.8,2.4-1.6l0,0c0-0.8-1-1.6-2.4-1.6H805V48.1z"/>
	</g>
</g>
<g display="none">
	<g display="inline">
		<path fill="#FFFFFF" d="M-467.4,69.6h-85c-0.8,0-1.3-0.3-1.8-1c-0.3-0.5-0.3-1.3,0-2.1l11-18.4V8.8c0-1,0.8-2.1,2.1-2.1h62.2
			c1,0,2.1,0.8,2.1,2.1v39.6l11,18.4c0.3,0.5,0.3,1.3,0,2.1C-465.8,69.1-466.6,69.6-467.4,69.6z M-549,65.7h78.2l-9.7-15.7
			c-0.3-0.3-0.3-0.8-0.3-1V10.6H-539v38c0,0.3,0,0.8-0.3,1L-549,65.7z"/>
	</g>
	<g display="inline">
		<path fill="#FFFFFF" d="M-478.7,50.8h-62.2c-1,0-2.1-0.8-2.1-2.1s0.8-2.1,2.1-2.1h62.2c1,0,2.1,0.8,2.1,2.1
			S-477.6,50.8-478.7,50.8z"/>
	</g>
	<g display="inline">
		<path fill="#FFFFFF" d="M-482.4,59.9h-55.3c-1,0-2.1-0.8-2.1-2.1c0-1.3,0.8-2.1,2.1-2.1h55.3c1,0,2.1,0.8,2.1,2.1
			C-480.3,59.1-481,59.9-482.4,59.9z"/>
	</g>
	<g display="inline">
		<path fill="#FFFFFF" d="M-527,69.6c-0.3,0-0.8,0-1-0.3c-0.8-0.5-1-1.8-0.5-2.6l6.6-9.7c0.5-0.8,1.8-1,2.6-0.5
			c0.8,0.5,1,1.8,0.5,2.6l-6.6,9.7C-525.6,69.1-526.2,69.6-527,69.6z"/>
	</g>
	<g display="inline">
		<path fill="#FFFFFF" d="M-493.6,69.6c-0.5,0-1.3-0.3-1.6-0.8l-6.6-9.7c-0.5-0.8-0.5-2.1,0.5-2.6c0.8-0.5,2.1-0.5,2.6,0.5l6.6,9.7
			c0.5,0.8,0.5,2.1-0.5,2.6C-492.9,69.4-493.1,69.6-493.6,69.6z"/>
	</g>
</g>
<g display="none">
	<circle display="inline" fill="#FFFFFF" cx="-375.3" cy="66.8" r="1.8"/>
</g>
<path display="none" fill="none" stroke="#FFFFFF" stroke-width="1.5" stroke-miterlimit="10" d="M-621.9,336.9h-71.6
	c-2.9,0-5.2-2.4-5.2-5.2v-37.2c0-2.9,2.4-5.2,5.2-5.2h71.6c2.9,0,5.2,2.4,5.2,5.2v37.2C-616.7,334.6-619,336.9-621.9,336.9z"/>
<line display="none" fill="none" stroke="#FFFFFF" stroke-width="1.5" stroke-linecap="round" stroke-linejoin="round" stroke-miterlimit="10" x1="-698.8" y1="328.8" x2="-616.7" y2="328.8"/>
<polyline display="none" fill="none" stroke="#FFFFFF" stroke-width="1.5" stroke-linecap="round" stroke-linejoin="round" stroke-miterlimit="10" points="
	-668.3,339.5 -668.3,345.3 -647.3,345.3 -647.3,339.5 "/>
<path display="none" fill="#FFFFFF" d="M-640.3,353.4h-34.9c-0.8,0-1.3-0.5-1.3-1.3v-0.5c0-0.8,0.5-1.3,1.3-1.3h34.9
	c0.8,0,1.3,0.5,1.3,1.3v0.5C-639,352.9-639.7,353.4-640.3,353.4z"/>
<path display="none" fill="none" stroke="#FFFFFF" stroke-width="1.5" stroke-miterlimit="10" d="M308.2,307.8
	c-2.4-9.2-10.5-16-20.5-16c-8.9,0-16.3,5.5-19.4,13.1c-1.8-1.6-4.2-2.6-6.8-2.6c-5.8,0-10.5,4.7-10.5,10.5c0,0.3,0,0.5,0,1
	c-6.3,2.1-10.5,8.4-10.5,15.2c0,8.7,7.1,16.3,15.7,16.3h50.1c10.2,0,18.4-8.7,18.4-18.9C324.7,317,317.4,308.9,308.2,307.8z"/>
<g display="none">
	<path display="inline" fill="none" stroke="#FFFFFF" stroke-width="1.5" stroke-miterlimit="10" d="M-59.3,296.8h-16.8l-1.3-6.3
		c-0.3-1-1.6-2.1-2.6-2.1h-21.8c-1,0-2.4,1-2.4,2.1l-1,6.3h-2.1c-2.9,0-8.4,6.8-21,6.8v0.3c0,0,0,1,0,2.4v39.6c0,1,1,1.3,2.1,1.3
		h66.9c1,0,2.1,0,2.1-1.3v-45.9C-57.2,298.6-58,296.8-59.3,296.8z"/>
	
		<line display="inline" fill="none" stroke="#FFFFFF" stroke-width="1.5" stroke-miterlimit="10" x1="-130.1" y1="296.8" x2="-121.7" y2="296.8"/>
	<circle display="inline" fill="none" stroke="#FFFFFF" stroke-width="1.5" stroke-miterlimit="10" cx="-90.5" cy="322" r="16.8"/>
</g>
<polyline display="none" fill="none" stroke="#FFFFFF" stroke-width="1.5" stroke-linecap="round" stroke-miterlimit="10" points="
	185.7,310.4 185.7,347.9 135.9,347.9 135.9,299.4 173.4,299.4 "/>
<polyline display="none" fill="none" stroke="#FFFFFF" stroke-width="1.5" stroke-linecap="round" stroke-linejoin="round" stroke-miterlimit="10" points="
	156.9,328.5 197.2,288.1 197.2,308.3 "/>
<line display="none" fill="none" stroke="#FFFFFF" stroke-width="1.5" stroke-linecap="round" stroke-linejoin="round" stroke-miterlimit="10" x1="197.2" y1="288.1" x2="175.5" y2="288.1"/>
<path display="none" fill="none" stroke="#FFFFFF" stroke-width="1.5" stroke-miterlimit="10" d="M71.9,346.6H8.1c-3.7,0-6-2.1-6-5
	v-20.7c0-0.3,0-0.5,0.3-0.5l9.2-19.7c0.3-0.5,0.5-0.8,0.8-1.3c1-1.8,2.4-4.2,5.2-4.2h45.6c2.9,0,4.2,2.4,5.2,4.2
	c0.3,0.3,0.3,0.8,0.5,1l9.2,19.9c0,0.3,0.3,0.5,0.3,0.5v20.7C77.9,344.5,75.5,346.6,71.9,346.6z"/>
<line display="none" fill="none" stroke="#FFFFFF" stroke-width="1.5" stroke-miterlimit="10" x1="2.1" y1="320.7" x2="77.9" y2="320.7"/>
<line display="none" fill="none" stroke="#FFFFFF" stroke-width="1.5" stroke-linecap="round" stroke-miterlimit="10" x1="12.6" y1="331.1" x2="12.6" y2="336.7"/>
<line display="none" fill="none" stroke="#FFFFFF" stroke-width="1.5" stroke-linecap="round" stroke-miterlimit="10" x1="21" y1="331.1" x2="21" y2="336.7"/>
<path display="none" fill="none" stroke="#FFFFFF" stroke-width="1.5" stroke-miterlimit="10" d="M-199.6,301.8v40.1
	c0,3.9-3.1,7.3-7.3,7.3h-80.8c-3.9,0-7.3-3.1-7.3-7.3v-40.1c0-3.9,3.1-7.3,7.3-7.3h80.8C-203,294.7-199.6,297.8-199.6,301.8z"/>
<line display="none" fill="none" stroke="#FFFFFF" stroke-width="1.5" stroke-miterlimit="10" x1="-209.6" y1="294.7" x2="-209.6" y2="349.2"/>
<line display="none" fill="none" stroke="#FFFFFF" stroke-width="1.5" stroke-miterlimit="10" x1="-285.4" y1="294.7" x2="-285.4" y2="349.2"/>
<path display="none" fill="none" stroke="#FFFFFF" stroke-width="1.5" stroke-miterlimit="10" d="M-361.4,351.3H-389
	c-2.9,0-5-2.4-5-5v-55.6c0-2.9,2.4-5,5-5h27.5c2.9,0,5,2.4,5,5v55.6C-356.5,349-358.6,351.3-361.4,351.3z"/>
<line display="none" fill="none" stroke="#FFFFFF" stroke-miterlimit="10" x1="-356.5" y1="344.5" x2="-394" y2="344.5"/>
<line display="none" fill="none" stroke="#FFFFFF" stroke-miterlimit="10" x1="-356.5" y1="292.1" x2="-394" y2="292.1"/>
<path display="none" fill="none" stroke="#FFFFFF" stroke-width="1.5" stroke-miterlimit="10" d="M453.2,302.6
	c-4.2-7.1-9.7-10.8-16.3-10.8c-7.3,0-13.4,4.7-13.4,4.7c-1,0.8-3.4,1.6-4.7,1.6h-4.7c-1.3,0-3.7-0.8-4.7-1.6
	c-0.3-0.3-6-4.7-13.4-4.7c-6.6,0-12.1,3.7-16.3,10.8c-11.5,19.7-7.1,40.9-7.1,41.7c1,7.1,5,8.4,7.9,8.4c0.3,0,0.5,0,0.8,0
	c5-0.5,15.7-16,16.3-16.5c1-1,2.9-2.1,4.2-2.1h28.6c1.3,0,3.4,1,4.2,2.1c0.5,0.5,11.5,16.3,16.5,16.8c0.3,0,0.5,0,0.8,0
	c2.9,0,6.8-1.6,7.9-8.4C460.3,344,464.8,322.2,453.2,302.6z"/>
<path display="none" fill="none" stroke="#FFFFFF" stroke-width="0.75" stroke-linecap="round" stroke-linejoin="round" stroke-miterlimit="10" d="
	M432,324.3c-2.1,0-3.7-1.6-3.7-3.7s1.6-3.7,3.7-3.7c2.1,0,3.7,1.6,3.7,3.7C435.7,322.8,434.1,324.3,432,324.3z"/>
<path display="none" fill="none" stroke="#FFFFFF" stroke-width="0.75" stroke-linecap="round" stroke-linejoin="round" stroke-miterlimit="10" d="
	M432,313.3c-2.1,0-3.7-1.6-3.7-3.7s1.6-3.7,3.7-3.7c2.1,0,3.7,1.6,3.7,3.7S434.1,313.3,432,313.3z"/>
<circle display="none" fill="none" stroke="#FFFFFF" stroke-width="0.75" stroke-linecap="round" stroke-linejoin="round" stroke-miterlimit="10" cx="443.3" cy="315.1" r="3.7"/>
<line display="none" fill="none" stroke="#FFFFFF" stroke-width="0.75" stroke-linecap="round" stroke-linejoin="round" stroke-miterlimit="10" x1="395.3" y1="307.5" x2="395.3" y2="322.8"/>
<line display="none" fill="none" stroke="#FFFFFF" stroke-width="0.75" stroke-linecap="round" stroke-linejoin="round" stroke-miterlimit="10" x1="387.7" y1="315.1" x2="402.9" y2="315.1"/>
<path display="none" fill="none" stroke="#FFFFFF" stroke-width="1.5" stroke-miterlimit="10" d="M602.8,291.5c-1-1-2.9-1-4.2,0
	c-1,1-2.1,2.1-2.1,2.1v0.3c0,0,1,1,2.1,2.1l1.3,1.3c1,1,2.1,2.1,2.1,2.1h0.3c0,0,1-1,2.1-2.1c1-1,1-2.9,0-3.9L602.8,291.5z"/>
<polygon display="none" fill="none" stroke="#FFFFFF" stroke-width="1.5" stroke-miterlimit="10" points="596.5,293.6 576,314.1 
	581.8,319.6 602.2,299.1 "/>
<polyline display="none" fill="none" stroke="#FFFFFF" stroke-width="1.5" stroke-linejoin="round" stroke-miterlimit="10" points="
	576,314.1 571.8,323.8 571.8,323.8 581.8,319.6 "/>
<path display="none" fill="none" stroke="#FFFFFF" stroke-width="1.5" stroke-linejoin="round" stroke-miterlimit="10" d="
	M595.7,350h-81.8c-2.9,0-5.2-2.4-5.2-5.2v-44.9c0-2.9,2.4-5.2,5.2-5.2h81.8c2.9,0,5.2,2.4,5.2,5.2v44.9
	C600.9,347.7,598.6,350,595.7,350z"/>
<line display="none" fill="none" stroke="#FFFFFF" stroke-width="1.5" stroke-miterlimit="10" x1="524.6" y1="350" x2="524.6" y2="295"/>
<path display="none" fill="none" stroke="#FFFFFF" stroke-width="1.5" stroke-miterlimit="10" d="M706.6,291c0.5,0,1,0,1.6,0
	c3.7,0.3,7.3,0.8,11,2.4c3.1,1.3,6,2.9,8.4,5.2c1.3,1.3,1.6,2.6,1,4.2c0,0.3,0,0.3,0,0.5c1.8,2.6,2.9,5.2,3.4,8.4
	c0.5,2.6,0.8,5.5,0.5,8.1c0,2.1-0.5,4.2-0.8,6c0,0.3,0,0.3,0.3,0.3c2.1,1,3.9,2.6,5.5,4.2c2.4,2.6,3.9,5.8,4.7,9.2
	c1.8,9.2-3.1,18.4-11.8,22c-2.9,1-5.5,1.6-8.7,1.3c-1.3,0-2.4-1-2.4-2.6c0-1,0-2.4,0.3-3.4c0.3-2.1,0.3-3.9,0.5-6
	c0.3-2.4,0.3-4.7,0.5-6.8c0.3-2.4,0.3-4.5,0.5-6.8s0.3-4.7,0.5-6.8c0-1.3,0.3-2.6,0.3-3.9c0-1.6,1.3-2.6,2.9-2.6
	c0.8,0,1.6,0.3,2.4,0.3c0-0.5,0.3-1.3,0.3-1.8c0.3-2.4,0.5-4.7,0.3-7.3c-0.3-3.1-1.3-6.3-3.1-9.2l-0.3-0.3c-0.8,0-1.6-0.5-2.4-1
	c-2.6-2.4-5.5-3.7-8.9-4.5c-3.1-0.8-6.3-0.8-9.2-0.8c-2.4,0-4.7,0.3-6.8,1c-2.6,0.8-5.2,1.8-7.3,3.7c-0.3,0.3-0.5,0.5-0.8,0.8
	c-0.8,0.5-1.6,1-2.4,1c-0.3,0-0.3,0.3-0.3,0.3c-1.8,2.6-2.6,5.5-3.1,8.4c-0.5,3.1-0.3,6.6,0.5,9.7c0,0,0,0,0,0.3c0.3,0,0.8,0,1-0.3
	c0.5,0,1-0.3,1.8-0.3c1.6,0,2.6,1,2.6,2.6c0.3,3.9,0.5,7.9,0.8,11.8c0.3,3.1,0.5,6.3,0.5,9.7c0.3,3.4,0.5,7.1,0.8,10.5
	c0,0.5,0,1.3,0,1.8c0,1.6-1,2.9-2.6,2.9c-4.7,0.3-8.9-1-12.9-3.9c-3.9-2.9-6.3-6.6-7.3-11.3c-1.6-7.1,0.3-13.1,5.2-18.4
	c1.3-1.3,2.9-2.6,4.7-3.4c0.3,0,0.3-0.3,0.3-0.5c-0.8-3.1-1-6.3-0.8-9.4c0.3-4.7,1.6-8.9,3.9-12.9c0.3-0.3,0.3-0.5,0.3-0.8
	c-0.3-1.6,0-3.1,1.3-4.2c2.6-2.4,5.8-4.2,8.9-5.5c2.4-0.8,5-1.6,7.6-1.8c1.3-0.3,2.9-0.3,4.2-0.3h0.3C704.5,291,705.6,291,706.6,291
	z"/>
<g display="none">
	<path display="inline" fill="none" stroke="#FFFFFF" stroke-width="1.5" stroke-miterlimit="10" d="M818.6,342.4h-1
		c-7.3,0-13.1-6-13.1-13.1v-24.9c0-7.3,6-13.1,13.1-13.1h1c7.3,0,13.1,6,13.1,13.1v24.9C831.7,336.4,825.7,342.4,818.6,342.4z"/>
	<path display="inline" fill="none" stroke="#FFFFFF" stroke-width="1.5" stroke-linecap="round" stroke-miterlimit="10" d="
		M839.1,323.8c0,0,2.4,23.6-17.3,24.9v15.2h14.2"/>
	<path display="inline" fill="none" stroke="#FFFFFF" stroke-width="1.5" stroke-linecap="round" stroke-miterlimit="10" d="
		M797.1,323.8c0,0-2.4,23.6,17.3,24.9v15.2h-14.2"/>
	<path display="inline" fill="#FFFFFF" d="M805,306.8h7.1c1.3,0,2.4-0.8,2.4-1.6l0,0c0-0.8-1-1.6-2.4-1.6H805V306.8z"/>
	<path display="inline" fill="#FFFFFF" d="M805,314.9h7.1c1.3,0,2.4-0.8,2.4-1.6l0,0c0-0.8-1-1.6-2.4-1.6H805V314.9z"/>
	<path display="inline" fill="#FFFFFF" d="M805,322h7.1c1.3,0,2.4-0.8,2.4-1.6l0,0c0-0.8-1-1.6-2.4-1.6H805V322z"/>
	<path display="inline" fill="#FFFFFF" d="M805,328.8h7.1c1.3,0,2.4-0.8,2.4-1.6l0,0c0-0.8-1-1.6-2.4-1.6H805V328.8z"/>
</g>
<g display="none">
	
		<polygon display="inline" fill="none" stroke="#FFFFFF" stroke-width="1.5" stroke-linecap="round" stroke-linejoin="round" stroke-miterlimit="10" points="
		-478.7,329.6 -478.7,289.4 -508.6,289.4 -511,289.4 -540.9,289.4 -540.9,329.6 -552.4,348.2 -511,348.2 -508.9,348.2 -467.4,348.2 
			"/>
	
		<line display="inline" fill="none" stroke="#FFFFFF" stroke-width="1.5" stroke-linecap="round" stroke-linejoin="round" stroke-miterlimit="10" x1="-540.9" y1="329.6" x2="-478.7" y2="329.6"/>
	
		<line display="inline" fill="none" stroke="#FFFFFF" stroke-width="1.5" stroke-linecap="round" stroke-linejoin="round" stroke-miterlimit="10" x1="-537.4" y1="338.8" x2="-482.4" y2="338.8"/>
	
		<line display="inline" fill="none" stroke="#FFFFFF" stroke-width="1.5" stroke-linecap="round" stroke-linejoin="round" stroke-miterlimit="10" x1="-520.1" y1="338.8" x2="-526.7" y2="348.2"/>
	
		<line display="inline" fill="none" stroke="#FFFFFF" stroke-width="1.5" stroke-linecap="round" stroke-linejoin="round" stroke-miterlimit="10" x1="-500.2" y1="338.8" x2="-493.6" y2="348.2"/>
</g>
<circle display="none" fill="#FFFFFF" cx="-375.3" cy="347.4" r="1.8"/>
</svg>
