<?xml version="1.0" encoding="utf-8"?>
<!-- Generator: Adobe Illustrator 18.0.0, SVG Export Plug-In . SVG Version: 6.00 Build 0)  -->
<!DOCTYPE svg PUBLIC "-//W3C//DTD SVG 1.1//EN" "http://www.w3.org/Graphics/SVG/1.1/DTD/svg11.dtd">
<svg version="1.1" id="Layer_1" xmlns="http://www.w3.org/2000/svg" xmlns:xlink="http://www.w3.org/1999/xlink" x="0px" y="0px"
	 viewBox="0 0 30.5 21.2" enable-background="new 0 0 30.5 21.2" xml:space="preserve">
<rect x="-333.7" y="-30.4" display="none" fill="#010101" width="847.9" height="196"/>
<path display="none" fill="none" stroke="#FFFFFF" stroke-miterlimit="10" d="M-146.2,77.1h-118c-7.6,0-13.8-6.2-13.8-13.8v0
	c0-7.6,6.2-13.8,13.8-13.8h118c7.6,0,13.8,6.2,13.8,13.8v0C-132.4,70.9-138.6,77.1-146.2,77.1z"/>
<g display="none">
	
		<text transform="matrix(1 0 0 1 -245.6852 67.1767)" display="inline" fill="#FFFFFF" font-family="'HelveticaNeue-Light'" font-size="9.4843">TEXT IN ALL CAPS</text>
</g>
<g display="none">
	<g display="inline">
		<path fill="#FFFFFF" d="M-88.3,88c-13.6,0-24.7-11.1-24.7-24.7s11.1-24.7,24.7-24.7c13.6,0,24.7,11.1,24.7,24.7S-74.7,88-88.3,88z
			 M-88.3,39.6c-13.1,0-23.7,10.6-23.7,23.7S-101.4,87-88.3,87s23.7-10.6,23.7-23.7S-75.2,39.6-88.3,39.6z"/>
	</g>
	<g display="inline">
		
			<rect x="-88.8" y="51" transform="matrix(0.7071 0.7071 -0.7071 0.7071 18.8622 80.9238)" fill="#FFFFFF" width="1" height="24.5"/>
	</g>
	<g display="inline">
		
			<rect x="-100.5" y="62.7" transform="matrix(0.7071 0.7071 -0.7071 0.7071 18.8617 80.9268)" fill="#FFFFFF" width="24.5" height="1"/>
	</g>
</g>
<g display="none">
	<text transform="matrix(1 0 0 1 398.5248 -1.9105)" display="inline"><tspan x="0" y="0" fill="#FFFFFF" font-family="'HelveticaNeue-Light'" font-size="9.4843">LAPTOP</tspan><tspan x="0" y="11.4" fill="#FFFFFF" font-family="'HelveticaNeue-Light'" font-size="9.4843">SMARTPHONE</tspan><tspan x="0" y="22.8" fill="#FFFFFF" font-family="'HelveticaNeue-Light'" font-size="9.4843">TABLET</tspan><tspan x="0" y="34.1" fill="#FFFFFF" font-family="'HelveticaNeue-Light'" font-size="9.4843">HARD DRIVE</tspan><tspan x="0" y="45.5" fill="#FFFFFF" font-family="'HelveticaNeue-Light'" font-size="9.4843">CLOUD STORAGE</tspan><tspan x="0" y="56.9" fill="#FFFFFF" font-family="'HelveticaNeue-Light'" font-size="9.4843">DSLR</tspan><tspan x="0" y="68.3" fill="#FFFFFF" font-family="'HelveticaNeue-Light'" font-size="9.4843">GAME CONTROLLER</tspan><tspan x="0" y="79.7" fill="#FFFFFF" font-family="'HelveticaNeue-Light'" font-size="9.4843">WACOM PEN</tspan><tspan x="0" y="91" fill="#FFFFFF" font-family="'HelveticaNeue-Light'" font-size="9.4843">HEADPHONES</tspan><tspan x="0" y="102.4" fill="#FFFFFF" font-family="'HelveticaNeue-Light'" font-size="9.4843">MIC</tspan></text>
</g>
<g display="none">
	<path display="inline" fill="#FFFFFF" d="M-237.1,17.5h-27.3c-1.5,0-2.8-1.2-2.8-2.7V0.6c0-1.5,1.2-2.8,2.8-2.8h27.3
		c1.5,0,2.8,1.2,2.8,2.8v14.2C-234.4,16.3-235.6,17.5-237.1,17.5z M-264.4-0.7c-0.7,0-1.2,0.6-1.2,1.2v14.2c0,0.7,0.6,1.2,1.2,1.2
		h27.3c0.7,0,1.2-0.6,1.2-1.2V0.6c0-0.7-0.6-1.2-1.2-1.2H-264.4z"/>
</g>
<g display="none">
	<path display="inline" fill="#FFFFFF" d="M-235.1,14.4h-31.3c-0.4,0-0.8-0.3-0.8-0.8s0.3-0.8,0.8-0.8h31.3c0.4,0,0.8,0.3,0.8,0.8
		S-234.7,14.4-235.1,14.4z"/>
</g>
<g display="none">
	<path display="inline" fill="#FFFFFF" d="M-246.8,20.7h-8c-0.4,0-0.8-0.3-0.8-0.8v-2.2c0-0.4,0.3-0.8,0.8-0.8s0.8,0.3,0.8,0.8v1.5
		h6.5v-1.5c0-0.4,0.3-0.8,0.8-0.8s0.8,0.3,0.8,0.8V20C-246,20.4-246.4,20.7-246.8,20.7z"/>
</g>
<g display="none">
	<path display="inline" fill="#FFFFFF" d="M-244.1,23.1h-13.3c-0.3,0-0.5-0.2-0.5-0.5v-0.2c0-0.3,0.2-0.5,0.5-0.5h13.3
		c0.3,0,0.5,0.2,0.5,0.5v0.2C-243.6,22.9-243.9,23.1-244.1,23.1z"/>
</g>
<g display="none">
	<path display="inline" fill="#FFFFFF" d="M116.8,20.7H97.7c-3.7,0-6.8-3.2-6.8-6.9c0-2.7,1.6-5.2,4-6.3c0.1-2.6,2.2-4.6,4.8-4.6
		c0.8,0,1.6,0.2,2.3,0.6c1.5-2.8,4.5-4.6,7.7-4.6c3.9,0,7.2,2.5,8.4,6.2c3.6,0.6,6.4,4,6.4,7.8C124.5,17.1,121,20.7,116.8,20.7z
		 M99.7,4.3c-1.8,0-3.3,1.5-3.3,3.3c0,0,0,0.1,0,0.1l0.1,0.7L96,8.7c-2.1,0.7-3.5,2.8-3.5,5.1c0,2.9,2.4,5.4,5.3,5.4h19.1
		c3.4,0,6.3-2.9,6.3-6.4c0-3.2-2.5-6-5.6-6.4l-0.5-0.1l-0.1-0.5c-0.8-3.3-3.7-5.5-7-5.5c-3,0-5.6,1.8-6.7,4.5l-0.4,1l-0.8-0.7
		C101.2,4.6,100.5,4.3,99.7,4.3z"/>
</g>
<g display="none">
	<g display="inline">
		<path fill="#FFFFFF" d="M-22.6,21.4H-48c-1.3,0-1.5-0.7-1.5-1.2V3.4l0.8-0.1c3,0,4.9-1.1,6.1-1.8c0.7-0.4,1.3-0.7,1.8-0.7h0.2
			l0.3-1.8c0.1-0.8,0.9-1.4,1.7-1.4h8.3c0.8,0,1.5,0.6,1.7,1.3l0.4,1.9h5.8c0.9,0,1.5,1.1,1.5,1.9v17.5
			C-21,20.7-21.3,21.4-22.6,21.4z M-48.1,19.9C-48.1,19.9-48,19.9-48.1,19.9h25.5c0,0,0,0,0,0V2.7c0-0.1-0.1-0.3-0.2-0.4h-6.9
			l-0.6-3c0-0.1-0.2-0.2-0.3-0.2h-8.3c-0.1,0-0.2,0.1-0.2,0.2l-0.5,3h-1.4c-0.2,0-0.7,0.3-1.1,0.5c-1.2,0.7-3.1,1.8-6.1,2V19.9z"/>
	</g>
	<g display="inline">
		<rect x="-49.6" y="0.8" fill="#FFFFFF" width="3.2" height="1.5"/>
	</g>
	<g display="inline">
		<path fill="#FFFFFF" d="M-34.5,18.2c-3.9,0-7.1-3.2-7.1-7.1c0-3.9,3.2-7.1,7.1-7.1s7.1,3.2,7.1,7.1C-27.4,15-30.6,18.2-34.5,18.2z
			 M-34.5,5.5c-3.1,0-5.6,2.5-5.6,5.6c0,3.1,2.5,5.6,5.6,5.6s5.6-2.5,5.6-5.6C-28.9,8-31.4,5.5-34.5,5.5z"/>
	</g>
</g>
<g display="none">
	<path display="inline" fill="#FFFFFF" d="M71.5,21.7H51.1v-20h15c0.4,0,0.8,0.3,0.8,0.7s-0.3,0.8-0.8,0.8H52.6v17H70V6.7
		c0-0.4,0.3-0.8,0.8-0.8s0.8,0.3,0.8,0.8V21.7z"/>
</g>
<g display="none">
	<path display="inline" fill="#FFFFFF" d="M59.8,14.4c-0.2,0-0.4-0.1-0.5-0.2c-0.3-0.3-0.3-0.8,0-1.1L74.7-2.3
		c0.2-0.2,0.5-0.3,0.8-0.2C75.8-2.4,76-2.1,76-1.8v7.7c0,0.4-0.3,0.8-0.8,0.8s-0.8-0.3-0.8-0.8V0L60.4,14.1
		C60.2,14.3,60,14.4,59.8,14.4z"/>
</g>
<g display="none">
	<path display="inline" fill="#FFFFFF" d="M75.2-1.1h-8.4c-0.4,0-0.8-0.3-0.8-0.8s0.3-0.8,0.8-0.8h8.4c0.4,0,0.8,0.3,0.8,0.8
		S75.7-1.1,75.2-1.1z"/>
</g>
<g>
	<path fill="#FFFFFF" d="M27.4,21.2H3.1c-1.8,0-3.1-1.1-3.1-2.7v-7.9c0-0.2,0-0.4,0.1-0.6l3.5-7.5C3.7,2.3,3.8,2.1,3.9,2
		C4.3,1.2,5,0,6.5,0h17.4c1.6,0,2.3,1.3,2.7,2c0.1,0.2,0.2,0.3,0.2,0.4l3.5,7.7c0.1,0.2,0.1,0.4,0.1,0.6v7.9
		C30.5,20.1,29.2,21.2,27.4,21.2z M6.5,1.5C5.9,1.5,5.6,2,5.2,2.7C5.1,2.8,5.1,3,4.9,3.2l-3.4,7.5l0,7.8c0,1.1,1.1,1.2,1.6,1.2h24.3
		c0.5,0,1.6-0.1,1.6-1.2v-7.9l-3.5-7.5c0,0-0.1-0.2-0.2-0.3c-0.5-0.8-0.8-1.3-1.4-1.3H6.5z"/>
</g>
<g>
	<rect x="0.7" y="9.9" fill="#FFFFFF" width="29" height="1.5"/>
</g>
<g>
	<path fill="#FFFFFF" d="M4.8,17.4c-0.4,0-0.8-0.3-0.8-0.8v-2.1c0-0.4,0.3-0.8,0.8-0.8s0.8,0.3,0.8,0.8v2.1
		C5.5,17.1,5.2,17.4,4.8,17.4z"/>
</g>
<g>
	<path fill="#FFFFFF" d="M8,17.4c-0.4,0-0.8-0.3-0.8-0.8v-2.1c0-0.4,0.3-0.8,0.8-0.8c0.4,0,0.8,0.3,0.8,0.8v2.1
		C8.8,17.1,8.5,17.4,8,17.4z"/>
</g>
<g display="none">
	<path display="inline" fill="#FFFFFF" d="M-78.9,22.2h-30.8c-1.9,0-3.5-1.6-3.5-3.5V3.4c0-1.9,1.6-3.5,3.5-3.5h30.8
		c1.9,0,3.5,1.6,3.5,3.5v15.3C-75.4,20.7-77,22.2-78.9,22.2z M-109.7,1.4c-1.1,0-2,0.9-2,2v15.3c0,1.1,0.9,2,2,2h30.8
		c1.1,0,2-0.9,2-2V3.4c0-1.1-0.9-2-2-2H-109.7z"/>
</g>
<g display="none">
	<rect x="-80.7" y="0.7" display="inline" fill="#FFFFFF" width="1.5" height="20.8"/>
</g>
<g display="none">
	<rect x="-109.5" y="0.7" display="inline" fill="#FFFFFF" width="1.5" height="20.8"/>
</g>
<g display="none">
	<path display="inline" fill="#FFFFFF" d="M-137.8,23h-10.5c-1.5,0-2.7-1.2-2.7-2.7V-0.9c0-1.5,1.2-2.7,2.7-2.7h10.5
		c1.5,0,2.7,1.2,2.7,2.7v21.2C-135.1,21.8-136.3,23-137.8,23z M-148.3-2.1c-0.6,0-1.2,0.5-1.2,1.2v21.2c0,0.6,0.5,1.2,1.2,1.2h10.5
		c0.6,0,1.2-0.5,1.2-1.2V-0.9c0-0.6-0.5-1.2-1.2-1.2H-148.3z"/>
</g>
<g display="none">
	<rect x="-150.2" y="19.1" display="inline" fill="#FFFFFF" width="14.4" height="1"/>
</g>
<g display="none">
	<rect x="-150.2" y="-0.8" display="inline" fill="#FFFFFF" width="14.4" height="1"/>
</g>
<g display="none">
	<path display="inline" fill="#FFFFFF" d="M145.2,23.5c-1.2,0-3.2-0.5-3.8-3.9c-0.1-0.3-1.8-8.7,2.8-16.4c1.8-3,4-4.5,6.8-4.5
		c2.9,0,5.3,1.8,5.5,1.9c0.3,0.2,1,0.5,1.3,0.5h1.8c0.4,0,1-0.2,1.3-0.5l0,0c0,0,2.5-2,5.6-2c2.8,0,5.1,1.5,6.8,4.5
		c4.5,7.7,2.8,16.1,2.8,16.5c-0.5,3.3-2.6,3.8-3.7,3.8c-0.1,0-0.3,0-0.4,0c-0.5,0-2.1-0.2-6.7-6.5l-0.1-0.2
		c-0.2-0.3-0.7-0.5-1.1-0.5l-10.9,0c-0.3,0-0.8,0.3-1.1,0.5l-0.1,0.2c-4.5,6.3-6,6.4-6.6,6.5C145.4,23.5,145.3,23.5,145.2,23.5z
		 M151,0.3c-2.2,0-4.1,1.3-5.5,3.7c-4.3,7.2-2.7,15.1-2.6,15.4c0.3,1.9,1.1,2.7,2.5,2.6c0.2,0,1.6-0.4,5.5-5.8
		c0.1-0.1,0.2-0.2,0.2-0.2c0.5-0.6,1.4-1.1,2.2-1.1l10.9,0c0.8,0,1.7,0.5,2.2,1.1c0,0,0.1,0.1,0.2,0.2c4.1,5.6,5.5,5.9,5.6,5.9
		c1.4,0.1,2.2-0.7,2.5-2.6c0.1-0.4,1.7-8.2-2.6-15.4c-1.5-2.5-3.3-3.7-5.5-3.7c-2.5,0-4.6,1.6-4.6,1.6c-0.6,0.4-1.6,0.8-2.3,0.8
		h-1.8c-0.7,0-1.7-0.3-2.3-0.8C155.5,1.9,153.5,0.3,151,0.3z"/>
</g>
<g display="none">
	<path display="inline" fill="#FFFFFF" d="M164.7,12.4c-1,0-1.8-0.8-1.8-1.8c0-1,0.8-1.8,1.8-1.8c1,0,1.8,0.8,1.8,1.8
		C166.5,11.6,165.7,12.4,164.7,12.4z M164.7,9.6c-0.6,0-1,0.5-1,1s0.5,1,1,1c0.6,0,1-0.5,1-1S165.3,9.6,164.7,9.6z"/>
</g>
<g display="none">
	<path display="inline" fill="#FFFFFF" d="M164.7,8.1c-1,0-1.8-0.8-1.8-1.8c0-1,0.8-1.8,1.8-1.8c1,0,1.8,0.8,1.8,1.8
		C166.5,7.3,165.7,8.1,164.7,8.1z M164.7,5.3c-0.6,0-1,0.5-1,1s0.5,1,1,1c0.6,0,1-0.5,1-1S165.3,5.3,164.7,5.3z"/>
</g>
<g display="none">
	<path display="inline" fill="#FFFFFF" d="M169,10.3c-1,0-1.8-0.8-1.8-1.8s0.8-1.8,1.8-1.8c1,0,1.8,0.8,1.8,1.8S170,10.3,169,10.3z
		 M169,7.4c-0.6,0-1,0.5-1,1s0.5,1,1,1s1-0.5,1-1S169.5,7.4,169,7.4z"/>
</g>
<g display="none">
	<path display="inline" fill="#FFFFFF" d="M150.7,11.8c-0.2,0-0.4-0.2-0.4-0.4V5.6c0-0.2,0.2-0.4,0.4-0.4s0.4,0.2,0.4,0.4v5.8
		C151.1,11.6,150.9,11.8,150.7,11.8z"/>
</g>
<g display="none">
	<path display="inline" fill="#FFFFFF" d="M153.6,8.9h-5.8c-0.2,0-0.4-0.2-0.4-0.4s0.2-0.4,0.4-0.4h5.8c0.2,0,0.4,0.2,0.4,0.4
		S153.9,8.9,153.6,8.9z"/>
</g>
<g display="none">
	<path display="inline" fill="#FFFFFF" d="M229.6,3.1h-0.3l-0.2-0.2l-2.4-2.3l0-0.7l0.2-0.3c0,0,0.4-0.4,0.8-0.8
		c0.7-0.7,1.9-0.7,2.6,0l0.6,0.6c0.4,0.3,0.6,0.8,0.6,1.3c0,0.5-0.2,0.9-0.5,1.3l-0.8,0.8C230.1,3.1,229.8,3.1,229.6,3.1z
		 M228.5,0.3l0.8,0.8c0.1,0.1,0.2,0.2,0.3,0.3L230,1C230,1,230,0.9,230,0.8c0-0.1,0-0.2-0.1-0.2L229.3,0c-0.2-0.2-0.3-0.2-0.5,0
		L228.5,0.3z"/>
</g>
<g display="none">
	<path display="inline" fill="#FFFFFF" d="M221.8,11.3l-3.3-3.2l8.9-8.8l3.3,3.2L221.8,11.3z M220.7,8.1l1.1,1.1l6.8-6.7l-1.1-1.1
		L220.7,8.1z"/>
</g>
<g display="none">
	<path display="inline" fill="#FFFFFF" d="M218,12.5c-0.2,0-0.4-0.1-0.5-0.2c-0.2-0.2-0.3-0.5-0.2-0.8l1.6-3.7l1.4,0.6l-0.9,2
		l2.1-0.9l0.6,1.4l-3.8,1.6C218.2,12.5,218.1,12.5,218,12.5z"/>
</g>
<g display="none">
	<path display="inline" fill="#FFFFFF" d="M227.1,22.6h-31.2c-1.5,0-2.8-1.2-2.8-2.8V2.8c0-1.5,1.2-2.8,2.8-2.8h31.2
		c1.5,0,2.8,1.2,2.8,2.8v17.1C229.9,21.3,228.6,22.6,227.1,22.6z M195.9,1.5c-0.7,0-1.2,0.6-1.2,1.2v17.1c0,0.7,0.6,1.2,1.2,1.2
		h31.2c0.7,0,1.2-0.6,1.2-1.2V2.8c0-0.7-0.6-1.2-1.2-1.2H195.9z"/>
</g>
<g display="none">
	<rect x="199.2" y="0.8" display="inline" fill="#FFFFFF" width="1.5" height="21.1"/>
</g>
<g display="none">
	<path display="inline" fill="#FFFFFF" d="M275.7,27.5c-0.2,0-0.4,0-0.6,0c-0.9-0.1-1.6-0.8-1.6-1.7c0-0.3,0-0.7,0.1-1l0.8-10.9
		c0-0.3,0-0.7,0.1-1c0.1-1,0.9-1.8,2-1.7c0.1,0,0.2,0,0.2,0c0,0,0,0,0,0c0.1-0.9,0.2-1.7,0.1-2.6c-0.1-1.1-0.4-2.1-1-2.9
		c-0.4-0.1-0.8-0.3-1.1-0.6c-0.8-0.7-1.8-1.2-3.1-1.5c-1-0.2-2.2-0.3-3.3-0.3c-0.9,0-1.7,0.1-2.5,0.3c-1,0.3-1.8,0.7-2.5,1.2
		C263.2,4.9,263.1,5,263,5c-0.3,0.3-0.7,0.5-1.1,0.6c-0.5,0.8-0.8,1.7-0.9,2.7c-0.1,0.9-0.1,1.8,0,2.8c0.1,0,0.3,0,0.4,0h0
		c1,0,1.7,0.7,1.8,1.7l0.9,12.9c0,0.5-0.1,1-0.4,1.3c-0.3,0.3-0.8,0.6-1.3,0.6c-2,0.1-3.8-0.4-5.4-1.6c-1.6-1.2-2.7-2.8-3.1-4.7
		c-0.6-2.9,0.1-5.5,2.2-7.6c0.5-0.5,1-0.9,1.6-1.3c-0.2-1.1-0.3-2.3-0.3-3.4c0.1-2,0.6-3.6,1.6-5.1c-0.2-0.8,0.1-1.6,0.7-2.2
		c1-1,2.3-1.7,3.7-2.2c1-0.4,2-0.6,3-0.7c0.4,0,0.7-0.1,1.1-0.1l0.7-0.1l1.8,0c1.6,0.1,3.1,0.4,4.4,0.9c1.3,0.5,2.5,1.2,3.5,2.2
		c0.6,0.6,0.8,1.3,0.7,2.1c0.6,1,1.1,2,1.3,3.2c0.2,1,0.3,2.2,0.3,3.3c0,0.7-0.1,1.3-0.3,2c0.7,0.4,1.3,0.9,1.9,1.6
		c1,1.1,1.7,2.4,1.9,3.9c0.8,3.9-1.4,7.7-5,9.2C277.8,27.3,276.7,27.5,275.7,27.5z M276.2,12.6c-0.2,0-0.3,0.1-0.3,0.3
		c0,0.3,0,0.7-0.1,1l-0.8,10.9c0,0.3,0,0.6-0.1,1c0,0.1,0.1,0.2,0.2,0.2c1,0.1,2-0.1,2.9-0.5c3-1.2,4.7-4.4,4.1-7.5
		c-0.2-1.2-0.8-2.3-1.6-3.2c-0.5-0.6-1.2-1.1-1.9-1.5c-0.5-0.2-0.5-0.7-0.5-1c0.2-0.7,0.3-1.4,0.3-2.2c0.1-1,0-2-0.2-2.9
		c-0.2-1.1-0.7-2.1-1.2-2.9c-0.2-0.2-0.2-0.5-0.1-0.8c0.1-0.4,0-0.6-0.2-0.9c-0.8-0.8-1.8-1.4-3-1.8c-1.2-0.5-2.5-0.7-4-0.8l-0.6,0
		L267.7,0c-0.4,0-0.7,0.1-1.1,0.1c-0.9,0.1-1.8,0.3-2.7,0.6c-1.3,0.5-2.3,1.1-3.2,1.9c-0.3,0.3-0.4,0.5-0.3,0.9
		c0.1,0.3,0,0.6-0.2,0.9c-0.9,1.3-1.3,2.8-1.4,4.5c-0.1,1.1,0,2.3,0.3,3.4c0.1,0.4-0.1,0.8-0.5,1c-0.6,0.3-1.2,0.7-1.6,1.2
		c-1.7,1.8-2.3,3.9-1.8,6.3c0.3,1.6,1.2,2.9,2.5,3.9c1.3,1,2.8,1.4,4.4,1.3c0.1,0,0.2,0,0.2-0.1c0-0.1,0.1-0.1,0.1-0.2l-0.9-12.8
		c0-0.3-0.2-0.3-0.2-0.3c-0.1,0-0.3,0-0.4,0l-0.2,0c-0.1,0-0.2,0-0.3,0l-0.8,0.1l-0.2-0.8c-0.3-1.4-0.3-2.7-0.2-3.9
		c0.2-1.4,0.6-2.5,1.3-3.5c0.2-0.2,0.4-0.4,0.7-0.4c0.2,0,0.4-0.1,0.5-0.2c0.1-0.1,0.2-0.2,0.3-0.3c0.8-0.7,1.8-1.2,3.1-1.5
		c0.9-0.2,1.8-0.4,2.8-0.4c1.3-0.1,2.6,0,3.7,0.3c1.6,0.4,2.8,1,3.8,1.9c0.1,0.1,0.3,0.2,0.5,0.2c0.3,0,0.5,0.2,0.7,0.4
		c0.7,1.1,1.2,2.3,1.3,3.8c0.1,1,0.1,2-0.1,3c0,0.2-0.1,0.4-0.1,0.5l-0.2,0.9l-1-0.1C276.6,12.7,276.4,12.7,276.2,12.6
		C276.2,12.6,276.2,12.6,276.2,12.6z"/>
</g>
<g display="none">
	<g display="inline">
		<path fill="#FFFFFF" d="M312.1,19.6h-0.4c-3.2,0-5.8-2.6-5.8-5.8V4.3c0-3.2,2.6-5.8,5.8-5.8h0.4c3.2,0,5.8,2.6,5.8,5.8v9.5
			C317.9,17,315.3,19.6,312.1,19.6z M311.6,0c-2.4,0-4.3,1.9-4.3,4.3v9.5c0,2.4,1.9,4.3,4.3,4.3h0.4c2.4,0,4.3-1.9,4.3-4.3V4.3
			c0-2.4-1.9-4.3-4.3-4.3H311.6z"/>
	</g>
	<g display="inline">
		<path fill="#FFFFFF" d="M318.6,27.9h-6.1v-7.3l0.7-0.1c1.8-0.1,3.2-0.8,4.2-2c2.1-2.6,1.8-6.7,1.8-6.7c0-0.4,0.3-0.8,0.7-0.8
			c0.4,0,0.8,0.3,0.8,0.7c0,0.2,0.4,4.8-2.1,7.8c-1.1,1.4-2.7,2.2-4.5,2.5v4.4h4.6c0.4,0,0.8,0.3,0.8,0.8S319,27.9,318.6,27.9z"/>
	</g>
	<g display="inline">
		<path fill="#FFFFFF" d="M311.2,27.9h-6.1c-0.4,0-0.8-0.3-0.8-0.8s0.3-0.8,0.8-0.8h4.6V22c-1.9-0.3-3.4-1.1-4.5-2.5
			c-2.5-3-2.1-7.6-2.1-7.8c0-0.4,0.4-0.7,0.8-0.7c0.4,0,0.7,0.4,0.7,0.8c0,0-0.4,4.2,1.8,6.7c1,1.2,2.4,1.9,4.2,2l0.7,0.1V27.9z"/>
	</g>
	<g display="inline">
		<path fill="#FFFFFF" d="M306.9,5.3h2.7c0.5,0,0.9-0.3,0.9-0.6v0c0-0.3-0.4-0.6-0.9-0.6h-2.7V5.3z"/>
	</g>
	<g display="inline">
		<path fill="#FFFFFF" d="M306.9,8.4h2.7c0.5,0,0.9-0.3,0.9-0.6v0c0-0.3-0.4-0.6-0.9-0.6h-2.7V8.4z"/>
	</g>
	<g display="inline">
		<path fill="#FFFFFF" d="M306.9,11.1h2.7c0.5,0,0.9-0.3,0.9-0.6v0c0-0.3-0.4-0.6-0.9-0.6h-2.7V11.1z"/>
	</g>
	<g display="inline">
		<path fill="#FFFFFF" d="M306.9,13.7h2.7c0.5,0,0.9-0.3,0.9-0.6v0c0-0.3-0.4-0.6-0.9-0.6h-2.7V13.7z"/>
	</g>
</g>
<g display="none">
	<g display="inline">
		<path fill="#FFFFFF" d="M-178.2,21.9h-32.4c-0.3,0-0.5-0.1-0.7-0.4c-0.1-0.2-0.1-0.5,0-0.8l4.2-7V-1.3c0-0.4,0.3-0.8,0.8-0.8h23.7
			c0.4,0,0.8,0.3,0.8,0.8v15.1l4.2,7c0.1,0.2,0.1,0.5,0,0.8C-177.6,21.7-177.9,21.9-178.2,21.9z M-209.3,20.4h29.8l-3.7-6
			c-0.1-0.1-0.1-0.3-0.1-0.4V-0.6h-22.2v14.5c0,0.1,0,0.3-0.1,0.4L-209.3,20.4z"/>
	</g>
	<g display="inline">
		<path fill="#FFFFFF" d="M-182.5,14.7h-23.7c-0.4,0-0.8-0.3-0.8-0.8s0.3-0.8,0.8-0.8h23.7c0.4,0,0.8,0.3,0.8,0.8
			S-182.1,14.7-182.5,14.7z"/>
	</g>
	<g display="inline">
		<path fill="#FFFFFF" d="M-183.9,18.2h-21.1c-0.4,0-0.8-0.3-0.8-0.8s0.3-0.8,0.8-0.8h21.1c0.4,0,0.8,0.3,0.8,0.8
			S-183.4,18.2-183.9,18.2z"/>
	</g>
	<g display="inline">
		<path fill="#FFFFFF" d="M-200.9,21.9c-0.1,0-0.3,0-0.4-0.1c-0.3-0.2-0.4-0.7-0.2-1l2.5-3.7c0.2-0.3,0.7-0.4,1-0.2
			c0.3,0.2,0.4,0.7,0.2,1l-2.5,3.7C-200.4,21.7-200.6,21.9-200.9,21.9z"/>
	</g>
	<g display="inline">
		<path fill="#FFFFFF" d="M-188.2,21.9c-0.2,0-0.5-0.1-0.6-0.3l-2.5-3.7c-0.2-0.3-0.2-0.8,0.2-1c0.3-0.2,0.8-0.2,1,0.2l2.5,3.7
			c0.2,0.3,0.2,0.8-0.2,1C-187.9,21.8-188,21.9-188.2,21.9z"/>
	</g>
</g>
<g display="none">
	<circle display="inline" fill="#FFFFFF" cx="-143.1" cy="20.8" r="0.7"/>
</g>
<path display="none" fill="none" stroke="#FFFFFF" stroke-width="1.5" stroke-miterlimit="10" d="M-237.1,123.8h-27.3
	c-1.1,0-2-0.9-2-2v-14.2c0-1.1,0.9-2,2-2h27.3c1.1,0,2,0.9,2,2v14.2C-235.1,122.9-236,123.8-237.1,123.8z"/>
<line display="none" fill="none" stroke="#FFFFFF" stroke-width="1.5" stroke-linecap="round" stroke-linejoin="round" stroke-miterlimit="10" x1="-266.4" y1="120.7" x2="-235.1" y2="120.7"/>
<polyline display="none" fill="none" stroke="#FFFFFF" stroke-width="1.5" stroke-linecap="round" stroke-linejoin="round" stroke-miterlimit="10" points="
	-254.8,124.8 -254.8,127 -246.8,127 -246.8,124.8 "/>
<path display="none" fill="#FFFFFF" d="M-244.1,130.1h-13.3c-0.3,0-0.5-0.2-0.5-0.5v-0.2c0-0.3,0.2-0.5,0.5-0.5h13.3
	c0.3,0,0.5,0.2,0.5,0.5v0.2C-243.6,129.9-243.9,130.1-244.1,130.1z"/>
<path display="none" fill="none" stroke="#FFFFFF" stroke-width="1.5" stroke-miterlimit="10" d="M117.5,112.7
	c-0.9-3.5-4-6.1-7.8-6.1c-3.4,0-6.2,2.1-7.4,5c-0.7-0.6-1.6-1-2.6-1c-2.2,0-4,1.8-4,4c0,0.1,0,0.2,0,0.4c-2.4,0.8-4,3.2-4,5.8
	c0,3.3,2.7,6.2,6,6.2h19.1c3.9,0,7-3.3,7-7.2C123.8,116.2,121,113.1,117.5,112.7z"/>
<g display="none">
	<path display="inline" fill="none" stroke="#FFFFFF" stroke-width="1.5" stroke-miterlimit="10" d="M-22.6,108.5h-6.4l-0.5-2.4
		c-0.1-0.4-0.6-0.8-1-0.8h-8.3c-0.4,0-0.9,0.4-0.9,0.8l-0.4,2.4h-0.8c-1.1,0-3.2,2.6-8,2.6v0.1c0,0,0,0.4,0,0.9v15.1
		c0,0.4,0.4,0.5,0.8,0.5h25.5c0.4,0,0.8,0,0.8-0.5v-17.5C-21.8,109.2-22.1,108.5-22.6,108.5z"/>
	
		<line display="inline" fill="none" stroke="#FFFFFF" stroke-width="1.5" stroke-miterlimit="10" x1="-49.6" y1="108.5" x2="-46.4" y2="108.5"/>
	<circle display="inline" fill="none" stroke="#FFFFFF" stroke-width="1.5" stroke-miterlimit="10" cx="-34.5" cy="118.1" r="6.4"/>
</g>
<polyline display="none" fill="none" stroke="#FFFFFF" stroke-width="1.5" stroke-linecap="round" stroke-miterlimit="10" points="
	70.8,113.7 70.8,128 51.8,128 51.8,109.5 66.1,109.5 "/>
<polyline display="none" fill="none" stroke="#FFFFFF" stroke-width="1.5" stroke-linecap="round" stroke-linejoin="round" stroke-miterlimit="10" points="
	59.8,120.6 75.2,105.2 75.2,112.9 "/>
<line display="none" fill="none" stroke="#FFFFFF" stroke-width="1.5" stroke-linecap="round" stroke-linejoin="round" stroke-miterlimit="10" x1="75.2" y1="105.2" x2="66.9" y2="105.2"/>
<path display="none" fill="none" stroke="#FFFFFF" stroke-width="1.5" stroke-miterlimit="10" d="M27.4,127.5H3.1
	c-1.4,0-2.3-0.8-2.3-1.9v-7.9c0-0.1,0-0.2,0.1-0.2l3.5-7.5c0.1-0.2,0.2-0.3,0.3-0.5c0.4-0.7,0.9-1.6,2-1.6h17.4c1.1,0,1.6,0.9,2,1.6
	c0.1,0.1,0.1,0.3,0.2,0.4l3.5,7.6c0,0.1,0.1,0.2,0.1,0.2v7.9C29.7,126.7,28.8,127.5,27.4,127.5z"/>
<line display="none" fill="none" stroke="#FFFFFF" stroke-width="1.5" stroke-miterlimit="10" x1="0.8" y1="117.6" x2="29.7" y2="117.6"/>
<line display="none" fill="none" stroke="#FFFFFF" stroke-width="1.5" stroke-linecap="round" stroke-miterlimit="10" x1="4.8" y1="121.6" x2="4.8" y2="123.7"/>
<line display="none" fill="none" stroke="#FFFFFF" stroke-width="1.5" stroke-linecap="round" stroke-miterlimit="10" x1="8" y1="121.6" x2="8" y2="123.7"/>
<path display="none" fill="none" stroke="#FFFFFF" stroke-width="1.5" stroke-miterlimit="10" d="M-76.1,110.4v15.3
	c0,1.5-1.2,2.8-2.8,2.8h-30.8c-1.5,0-2.8-1.2-2.8-2.8v-15.3c0-1.5,1.2-2.8,2.8-2.8h30.8C-77.4,107.7-76.1,108.9-76.1,110.4z"/>
<line display="none" fill="none" stroke="#FFFFFF" stroke-width="1.5" stroke-miterlimit="10" x1="-79.9" y1="107.7" x2="-79.9" y2="128.5"/>
<line display="none" fill="none" stroke="#FFFFFF" stroke-width="1.5" stroke-miterlimit="10" x1="-108.8" y1="107.7" x2="-108.8" y2="128.5"/>
<path display="none" fill="none" stroke="#FFFFFF" stroke-width="1.5" stroke-miterlimit="10" d="M-137.8,129.3h-10.5
	c-1.1,0-1.9-0.9-1.9-1.9v-21.2c0-1.1,0.9-1.9,1.9-1.9h10.5c1.1,0,1.9,0.9,1.9,1.9v21.2C-135.9,128.4-136.7,129.3-137.8,129.3z"/>
<line display="none" fill="none" stroke="#FFFFFF" stroke-miterlimit="10" x1="-135.9" y1="126.7" x2="-150.2" y2="126.7"/>
<line display="none" fill="none" stroke="#FFFFFF" stroke-miterlimit="10" x1="-135.9" y1="106.7" x2="-150.2" y2="106.7"/>
<path display="none" fill="none" stroke="#FFFFFF" stroke-width="1.5" stroke-miterlimit="10" d="M172.8,110.7
	c-1.6-2.7-3.7-4.1-6.2-4.1c-2.8,0-5.1,1.8-5.1,1.8c-0.4,0.3-1.3,0.6-1.8,0.6h-1.8c-0.5,0-1.4-0.3-1.8-0.6c-0.1-0.1-2.3-1.8-5.1-1.8
	c-2.5,0-4.6,1.4-6.2,4.1c-4.4,7.5-2.7,15.6-2.7,15.9c0.4,2.7,1.9,3.2,3,3.2c0.1,0,0.2,0,0.3,0c1.9-0.2,6-6.1,6.2-6.3
	c0.4-0.4,1.1-0.8,1.6-0.8l10.9,0c0.5,0,1.3,0.4,1.6,0.8c0.2,0.2,4.4,6.2,6.3,6.4c0.1,0,0.2,0,0.3,0c1.1,0,2.6-0.6,3-3.2
	C175.5,126.5,177.2,118.2,172.8,110.7z"/>
<path display="none" fill="none" stroke="#FFFFFF" stroke-width="0.75" stroke-linecap="round" stroke-linejoin="round" stroke-miterlimit="10" d="
	M164.7,119c-0.8,0-1.4-0.6-1.4-1.4c0-0.8,0.6-1.4,1.4-1.4c0.8,0,1.4,0.6,1.4,1.4C166.1,118.4,165.5,119,164.7,119z"/>
<path display="none" fill="none" stroke="#FFFFFF" stroke-width="0.75" stroke-linecap="round" stroke-linejoin="round" stroke-miterlimit="10" d="
	M164.7,114.8c-0.8,0-1.4-0.6-1.4-1.4s0.6-1.4,1.4-1.4c0.8,0,1.4,0.6,1.4,1.4S165.5,114.8,164.7,114.8z"/>
<circle display="none" fill="none" stroke="#FFFFFF" stroke-width="0.75" stroke-linecap="round" stroke-linejoin="round" stroke-miterlimit="10" cx="169" cy="115.5" r="1.4"/>
<line display="none" fill="none" stroke="#FFFFFF" stroke-width="0.75" stroke-linecap="round" stroke-linejoin="round" stroke-miterlimit="10" x1="150.7" y1="112.6" x2="150.7" y2="118.4"/>
<line display="none" fill="none" stroke="#FFFFFF" stroke-width="0.75" stroke-linecap="round" stroke-linejoin="round" stroke-miterlimit="10" x1="147.8" y1="115.5" x2="153.6" y2="115.5"/>
<path display="none" fill="none" stroke="#FFFFFF" stroke-width="1.5" stroke-miterlimit="10" d="M229.8,106.5
	c-0.4-0.4-1.1-0.4-1.6,0c-0.4,0.4-0.8,0.8-0.8,0.8c0,0,0,0.1,0,0.1c0,0,0.4,0.4,0.8,0.8l0.5,0.5c0.4,0.4,0.8,0.8,0.8,0.8
	c0,0,0.1,0,0.1,0c0,0,0.4-0.4,0.8-0.8c0.4-0.4,0.4-1.1,0-1.5L229.8,106.5z"/>
<polygon display="none" fill="none" stroke="#FFFFFF" stroke-width="1.5" stroke-miterlimit="10" points="227.4,107.3 219.6,115.1 
	221.8,117.2 229.6,109.4 "/>
<polyline display="none" fill="none" stroke="#FFFFFF" stroke-width="1.5" stroke-linejoin="round" stroke-miterlimit="10" points="
	219.6,115.1 218,118.8 218,118.8 221.8,117.2 "/>
<path display="none" fill="none" stroke="#FFFFFF" stroke-width="1.5" stroke-linejoin="round" stroke-miterlimit="10" d="
	M227.1,128.8h-31.2c-1.1,0-2-0.9-2-2v-17.1c0-1.1,0.9-2,2-2h31.2c1.1,0,2,0.9,2,2v17.1C229.1,127.9,228.2,128.8,227.1,128.8z"/>
<line display="none" fill="none" stroke="#FFFFFF" stroke-width="1.5" stroke-miterlimit="10" x1="200" y1="128.8" x2="200" y2="107.8"/>
<path display="none" fill="none" stroke="#FFFFFF" stroke-width="1.5" stroke-miterlimit="10" d="M269.4,106.3c0.2,0,0.4,0,0.6,0
	c1.4,0.1,2.8,0.3,4.2,0.9c1.2,0.5,2.3,1.1,3.2,2c0.5,0.5,0.6,1,0.4,1.6c0,0.1,0,0.1,0,0.2c0.7,1,1.1,2,1.3,3.2
	c0.2,1,0.3,2.1,0.2,3.1c0,0.8-0.2,1.6-0.3,2.3c0,0.1,0,0.1,0.1,0.1c0.8,0.4,1.5,1,2.1,1.6c0.9,1,1.5,2.2,1.8,3.5
	c0.7,3.5-1.2,7-4.5,8.4c-1.1,0.4-2.1,0.6-3.3,0.5c-0.5,0-0.9-0.4-0.9-1c0-0.4,0-0.9,0.1-1.3c0.1-0.8,0.1-1.5,0.2-2.3
	c0.1-0.9,0.1-1.8,0.2-2.6c0.1-0.9,0.1-1.7,0.2-2.6c0.1-0.9,0.1-1.8,0.2-2.6c0-0.5,0.1-1,0.1-1.5c0-0.6,0.5-1,1.1-1
	c0.3,0,0.6,0.1,0.9,0.1c0-0.2,0.1-0.5,0.1-0.7c0.1-0.9,0.2-1.8,0.1-2.8c-0.1-1.2-0.5-2.4-1.2-3.5c0,0-0.1-0.1-0.1-0.1
	c-0.3,0-0.6-0.2-0.9-0.4c-1-0.9-2.1-1.4-3.4-1.7c-1.2-0.3-2.4-0.3-3.5-0.3c-0.9,0-1.8,0.1-2.6,0.4c-1,0.3-2,0.7-2.8,1.4
	c-0.1,0.1-0.2,0.2-0.3,0.3c-0.3,0.2-0.6,0.4-0.9,0.4c-0.1,0-0.1,0.1-0.1,0.1c-0.7,1-1,2.1-1.2,3.2c-0.2,1.2-0.1,2.5,0.2,3.7
	c0,0,0,0,0,0.1c0.1,0,0.3,0,0.4-0.1c0.2,0,0.4-0.1,0.7-0.1c0.6,0,1,0.4,1,1c0.1,1.5,0.2,3,0.3,4.5c0.1,1.2,0.2,2.4,0.2,3.7
	c0.1,1.3,0.2,2.7,0.3,4c0,0.2,0,0.5,0,0.7c0,0.6-0.4,1.1-1,1.1c-1.8,0.1-3.4-0.4-4.9-1.5c-1.5-1.1-2.4-2.5-2.8-4.3
	c-0.6-2.7,0.1-5,2-7c0.5-0.5,1.1-1,1.8-1.3c0.1,0,0.1-0.1,0.1-0.2c-0.3-1.2-0.4-2.4-0.3-3.6c0.1-1.8,0.6-3.4,1.5-4.9
	c0.1-0.1,0.1-0.2,0.1-0.3c-0.1-0.6,0-1.2,0.5-1.6c1-0.9,2.2-1.6,3.4-2.1c0.9-0.3,1.9-0.6,2.9-0.7c0.5-0.1,1.1-0.1,1.6-0.1
	c0,0,0.1,0,0.1,0C268.6,106.3,269,106.3,269.4,106.3z"/>
<g display="none">
	<path display="inline" fill="none" stroke="#FFFFFF" stroke-width="1.5" stroke-miterlimit="10" d="M312.1,125.9h-0.4
		c-2.8,0-5-2.3-5-5v-9.5c0-2.8,2.3-5,5-5h0.4c2.8,0,5,2.3,5,5v9.5C317.1,123.6,314.8,125.9,312.1,125.9z"/>
	<path display="inline" fill="none" stroke="#FFFFFF" stroke-width="1.5" stroke-linecap="round" stroke-miterlimit="10" d="
		M319.9,118.8c0,0,0.9,9-6.6,9.5v5.8h5.4"/>
	<path display="inline" fill="none" stroke="#FFFFFF" stroke-width="1.5" stroke-linecap="round" stroke-miterlimit="10" d="
		M303.9,118.8c0,0-0.9,9,6.6,9.5v5.8h-5.4"/>
	<path display="inline" fill="#FFFFFF" d="M306.9,112.3h2.7c0.5,0,0.9-0.3,0.9-0.6l0,0c0-0.3-0.4-0.6-0.9-0.6h-2.7V112.3z"/>
	<path display="inline" fill="#FFFFFF" d="M306.9,115.4h2.7c0.5,0,0.9-0.3,0.9-0.6v0c0-0.3-0.4-0.6-0.9-0.6h-2.7V115.4z"/>
	<path display="inline" fill="#FFFFFF" d="M306.9,118.1h2.7c0.5,0,0.9-0.3,0.9-0.6l0,0c0-0.3-0.4-0.6-0.9-0.6h-2.7V118.1z"/>
	<path display="inline" fill="#FFFFFF" d="M306.9,120.7h2.7c0.5,0,0.9-0.3,0.9-0.6v0c0-0.3-0.4-0.6-0.9-0.6h-2.7V120.7z"/>
</g>
<g display="none">
	
		<polygon display="inline" fill="none" stroke="#FFFFFF" stroke-width="1.5" stroke-linecap="round" stroke-linejoin="round" stroke-miterlimit="10" points="
		-182.5,121 -182.5,105.7 -193.9,105.7 -194.8,105.7 -206.2,105.7 -206.2,121 -210.6,128.1 -194.8,128.1 -194,128.1 -178.2,128.1 	
		"/>
	
		<line display="inline" fill="none" stroke="#FFFFFF" stroke-width="1.5" stroke-linecap="round" stroke-linejoin="round" stroke-miterlimit="10" x1="-206.2" y1="121" x2="-182.5" y2="121"/>
	
		<line display="inline" fill="none" stroke="#FFFFFF" stroke-width="1.5" stroke-linecap="round" stroke-linejoin="round" stroke-miterlimit="10" x1="-204.9" y1="124.5" x2="-183.9" y2="124.5"/>
	
		<line display="inline" fill="none" stroke="#FFFFFF" stroke-width="1.5" stroke-linecap="round" stroke-linejoin="round" stroke-miterlimit="10" x1="-198.3" y1="124.5" x2="-200.8" y2="128.1"/>
	
		<line display="inline" fill="none" stroke="#FFFFFF" stroke-width="1.5" stroke-linecap="round" stroke-linejoin="round" stroke-miterlimit="10" x1="-190.7" y1="124.5" x2="-188.2" y2="128.1"/>
</g>
<circle display="none" fill="#FFFFFF" cx="-143.1" cy="127.8" r="0.7"/>
</svg>
