<?xml version="1.0" encoding="utf-8"?>
<!-- Generator: Adobe Illustrator 18.0.0, SVG Export Plug-In . SVG Version: 6.00 Build 0)  -->
<!DOCTYPE svg PUBLIC "-//W3C//DTD SVG 1.1//EN" "http://www.w3.org/Graphics/SVG/1.1/DTD/svg11.dtd">
<svg version="1.1" id="Layer_1" xmlns="http://www.w3.org/2000/svg" xmlns:xlink="http://www.w3.org/1999/xlink" x="0px" y="0px"
	 viewBox="0 0 30.2 29" enable-background="new 0 0 30.2 29" xml:space="preserve">
<rect x="-587.4" y="-28.9" display="none" fill="#010101" width="847.9" height="196"/>
<path display="none" fill="none" stroke="#FFFFFF" stroke-miterlimit="10" d="M-399.9,78.6h-118c-7.6,0-13.8-6.2-13.8-13.8v0
	c0-7.6,6.2-13.8,13.8-13.8h118c7.6,0,13.8,6.2,13.8,13.8v0C-386.1,72.4-392.3,78.6-399.9,78.6z"/>
<g display="none">
	
		<text transform="matrix(1 0 0 1 -499.4102 68.6816)" display="inline" fill="#FFFFFF" font-family="'HelveticaNeue-Light'" font-size="9.4843">TEXT IN ALL CAPS</text>
</g>
<g display="none">
	<g display="inline">
		<path fill="#FFFFFF" d="M-342,89.5c-13.6,0-24.7-11.1-24.7-24.7s11.1-24.7,24.7-24.7c13.6,0,24.7,11.1,24.7,24.7
			S-328.4,89.5-342,89.5z M-342,41.1c-13.1,0-23.7,10.6-23.7,23.7s10.6,23.7,23.7,23.7s23.7-10.6,23.7-23.7S-329,41.1-342,41.1z"/>
	</g>
	<g display="inline">
		
			<rect x="-342.5" y="52.5" transform="matrix(0.7071 0.7071 -0.7071 0.7071 -54.3881 260.7753)" fill="#FFFFFF" width="1" height="24.5"/>
	</g>
	<g display="inline">
		
			<rect x="-354.2" y="64.2" transform="matrix(0.7071 0.7071 -0.7071 0.7071 -54.3936 260.7834)" fill="#FFFFFF" width="24.5" height="1"/>
	</g>
</g>
<g display="none">
	<text transform="matrix(1 0 0 1 144.7997 -0.4056)" display="inline"><tspan x="0" y="0" fill="#FFFFFF" font-family="'HelveticaNeue-Light'" font-size="9.4843">LAPTOP</tspan><tspan x="0" y="11.4" fill="#FFFFFF" font-family="'HelveticaNeue-Light'" font-size="9.4843">SMARTPHONE</tspan><tspan x="0" y="22.8" fill="#FFFFFF" font-family="'HelveticaNeue-Light'" font-size="9.4843">TABLET</tspan><tspan x="0" y="34.1" fill="#FFFFFF" font-family="'HelveticaNeue-Light'" font-size="9.4843">HARD DRIVE</tspan><tspan x="0" y="45.5" fill="#FFFFFF" font-family="'HelveticaNeue-Light'" font-size="9.4843">CLOUD STORAGE</tspan><tspan x="0" y="56.9" fill="#FFFFFF" font-family="'HelveticaNeue-Light'" font-size="9.4843">DSLR</tspan><tspan x="0" y="68.3" fill="#FFFFFF" font-family="'HelveticaNeue-Light'" font-size="9.4843">GAME CONTROLLER</tspan><tspan x="0" y="79.7" fill="#FFFFFF" font-family="'HelveticaNeue-Light'" font-size="9.4843">WACOM PEN</tspan><tspan x="0" y="91" fill="#FFFFFF" font-family="'HelveticaNeue-Light'" font-size="9.4843">HEADPHONES</tspan><tspan x="0" y="102.4" fill="#FFFFFF" font-family="'HelveticaNeue-Light'" font-size="9.4843">MIC</tspan></text>
</g>
<g display="none">
	<path display="inline" fill="#FFFFFF" d="M-490.8,19h-27.3c-1.5,0-2.8-1.2-2.8-2.8V2.1c0-1.5,1.2-2.8,2.8-2.8h27.3
		c1.5,0,2.8,1.2,2.8,2.8v14.2C-488.1,17.8-489.3,19-490.8,19z M-518.1,0.9c-0.7,0-1.2,0.6-1.2,1.2v14.2c0,0.7,0.6,1.2,1.2,1.2h27.3
		c0.7,0,1.2-0.6,1.2-1.2V2.1c0-0.7-0.6-1.2-1.2-1.2H-518.1z"/>
</g>
<g display="none">
	<path display="inline" fill="#FFFFFF" d="M-488.8,15.9h-31.3c-0.4,0-0.8-0.3-0.8-0.8s0.3-0.8,0.8-0.8h31.3c0.4,0,0.8,0.3,0.8,0.8
		S-488.4,15.9-488.8,15.9z"/>
</g>
<g display="none">
	<path display="inline" fill="#FFFFFF" d="M-500.5,22.2h-8c-0.4,0-0.8-0.3-0.8-0.8v-2.2c0-0.4,0.3-0.8,0.8-0.8s0.8,0.3,0.8,0.8v1.5
		h6.5v-1.5c0-0.4,0.3-0.8,0.8-0.8s0.8,0.3,0.8,0.8v2.2C-499.8,21.9-500.1,22.2-500.5,22.2z"/>
</g>
<g display="none">
	<path display="inline" fill="#FFFFFF" d="M-497.9,24.6h-13.3c-0.3,0-0.5-0.2-0.5-0.5v-0.2c0-0.3,0.2-0.5,0.5-0.5h13.3
		c0.3,0,0.5,0.2,0.5,0.5v0.2C-497.4,24.4-497.6,24.6-497.9,24.6z"/>
</g>
<g display="none">
	<path display="inline" fill="#FFFFFF" d="M-137,22.2H-156c-3.7,0-6.8-3.2-6.8-6.9c0-2.7,1.6-5.2,4-6.3c0.1-2.6,2.2-4.6,4.8-4.6
		c0.8,0,1.6,0.2,2.3,0.6c1.5-2.8,4.5-4.6,7.7-4.6c3.9,0,7.2,2.5,8.4,6.2c3.6,0.6,6.4,4,6.4,7.8C-129.2,18.6-132.7,22.2-137,22.2z
		 M-154,5.8c-1.8,0-3.3,1.5-3.3,3.3c0,0,0,0.1,0,0.1l0.1,0.7l-0.6,0.2c-2.1,0.7-3.5,2.8-3.5,5.1c0,2.9,2.4,5.4,5.3,5.4h19.1
		c3.4,0,6.3-2.9,6.3-6.4c0-3.2-2.5-6-5.6-6.4l-0.5-0.1l-0.1-0.5c-0.8-3.3-3.7-5.5-7-5.5c-3,0-5.6,1.8-6.7,4.5l-0.4,1l-0.8-0.7
		C-152.5,6.1-153.2,5.8-154,5.8z"/>
</g>
<g display="none">
	<g display="inline">
		<path fill="#FFFFFF" d="M-276.3,22.9h-25.5c-1.3,0-1.5-0.7-1.5-1.2V4.9l0.8-0.1c3,0,4.9-1.1,6.1-1.8c0.7-0.4,1.3-0.7,1.8-0.7h0.2
			l0.3-1.8c0.1-0.8,0.9-1.4,1.7-1.4h8.3c0.8,0,1.5,0.6,1.7,1.3l0.4,1.9h5.8c0.9,0,1.5,1.1,1.5,1.9v17.5
			C-274.7,22.2-275,22.9-276.3,22.9z M-301.8,21.4C-301.8,21.4-301.8,21.4-301.8,21.4h25.5c0,0,0,0,0,0V4.2c0-0.1-0.1-0.3-0.2-0.4
			h-6.9l-0.6-3c0-0.1-0.2-0.2-0.3-0.2h-8.3c-0.1,0-0.2,0.1-0.2,0.2l-0.5,3h-1.4c-0.2,0-0.7,0.3-1.1,0.5c-1.2,0.7-3.1,1.8-6.1,2V21.4
			z"/>
	</g>
	<g display="inline">
		<rect x="-303.3" y="2.3" fill="#FFFFFF" width="3.2" height="1.5"/>
	</g>
	<g display="inline">
		<path fill="#FFFFFF" d="M-288.2,19.7c-3.9,0-7.1-3.2-7.1-7.1c0-3.9,3.2-7.1,7.1-7.1s7.1,3.2,7.1,7.1
			C-281.1,16.5-284.3,19.7-288.2,19.7z M-288.2,7c-3.1,0-5.6,2.5-5.6,5.6c0,3.1,2.5,5.6,5.6,5.6s5.6-2.5,5.6-5.6
			C-282.6,9.5-285.1,7-288.2,7z"/>
	</g>
</g>
<g display="none">
	<path display="inline" fill="#FFFFFF" d="M-182.2,23.2h-20.5v-20h15c0.4,0,0.8,0.3,0.8,0.8s-0.3,0.8-0.8,0.8h-13.5v17h17.5V8.2
		c0-0.4,0.3-0.8,0.8-0.8s0.8,0.3,0.8,0.8V23.2z"/>
</g>
<g display="none">
	<path display="inline" fill="#FFFFFF" d="M-193.9,15.9c-0.2,0-0.4-0.1-0.5-0.2c-0.3-0.3-0.3-0.8,0-1.1L-179-0.8
		c0.2-0.2,0.5-0.3,0.8-0.2c0.3,0.1,0.5,0.4,0.5,0.7v7.7c0,0.4-0.3,0.8-0.8,0.8s-0.8-0.3-0.8-0.8V1.5l-14.1,14.1
		C-193.5,15.8-193.7,15.9-193.9,15.9z"/>
</g>
<g display="none">
	<path display="inline" fill="#FFFFFF" d="M-178.5,0.4h-8.4c-0.4,0-0.8-0.3-0.8-0.8s0.3-0.8,0.8-0.8h8.4c0.4,0,0.8,0.3,0.8,0.8
		S-178.1,0.4-178.5,0.4z"/>
</g>
<g display="none">
	<path display="inline" fill="#FFFFFF" d="M-226.3,22.7h-24.3c-1.8,0-3.1-1.1-3.1-2.7v-7.9c0-0.2,0-0.4,0.1-0.6l3.5-7.5
		c0.1-0.3,0.2-0.4,0.3-0.5c0.4-0.7,1.1-2,2.6-2h17.4c1.6,0,2.3,1.3,2.7,2c0.1,0.2,0.2,0.3,0.2,0.4l3.5,7.7c0.1,0.2,0.1,0.4,0.1,0.6
		V20C-223.2,21.6-224.5,22.7-226.3,22.7z M-247.2,3c-0.6,0-0.9,0.5-1.3,1.2c-0.1,0.2-0.2,0.3-0.3,0.5l-3.4,7.5l0,7.8
		c0,1.1,1.1,1.2,1.6,1.2h24.3c0.5,0,1.6-0.1,1.6-1.2v-7.9l-3.5-7.5c0,0-0.1-0.2-0.2-0.3c-0.5-0.8-0.8-1.3-1.4-1.3H-247.2z"/>
</g>
<g display="none">
	<rect x="-253" y="11.4" display="inline" fill="#FFFFFF" width="29" height="1.5"/>
</g>
<g display="none">
	<path display="inline" fill="#FFFFFF" d="M-248.9,18.9c-0.4,0-0.8-0.3-0.8-0.8v-2.1c0-0.4,0.3-0.7,0.8-0.7s0.8,0.3,0.8,0.7v2.1
		C-248.2,18.6-248.5,18.9-248.9,18.9z"/>
</g>
<g display="none">
	<path display="inline" fill="#FFFFFF" d="M-245.7,18.9c-0.4,0-0.8-0.3-0.8-0.8v-2.1c0-0.4,0.3-0.7,0.8-0.7s0.8,0.3,0.8,0.7v2.1
		C-244.9,18.6-245.3,18.9-245.7,18.9z"/>
</g>
<g display="none">
	<path display="inline" fill="#FFFFFF" d="M-332.7,23.7h-30.8c-1.9,0-3.5-1.6-3.5-3.5V4.9c0-1.9,1.6-3.5,3.5-3.5h30.8
		c1.9,0,3.5,1.6,3.5,3.5v15.3C-329.1,22.2-330.7,23.7-332.7,23.7z M-363.4,2.9c-1.1,0-2,0.9-2,2v15.3c0,1.1,0.9,2,2,2h30.8
		c1.1,0,2-0.9,2-2V4.9c0-1.1-0.9-2-2-2H-363.4z"/>
</g>
<g display="none">
	<rect x="-334.4" y="2.2" display="inline" fill="#FFFFFF" width="1.5" height="20.8"/>
</g>
<g display="none">
	<rect x="-363.3" y="2.2" display="inline" fill="#FFFFFF" width="1.5" height="20.8"/>
</g>
<g display="none">
	<path display="inline" fill="#FFFFFF" d="M-391.5,24.5H-402c-1.5,0-2.7-1.2-2.7-2.7V0.6c0-1.5,1.2-2.7,2.7-2.7h10.5
		c1.5,0,2.7,1.2,2.7,2.7v21.2C-388.8,23.3-390,24.5-391.5,24.5z M-402-0.6c-0.6,0-1.2,0.5-1.2,1.2v21.2c0,0.6,0.5,1.2,1.2,1.2h10.5
		c0.6,0,1.2-0.5,1.2-1.2V0.6c0-0.6-0.5-1.2-1.2-1.2H-402z"/>
</g>
<g display="none">
	<rect x="-404" y="20.6" display="inline" fill="#FFFFFF" width="14.4" height="1"/>
</g>
<g display="none">
	<rect x="-404" y="0.7" display="inline" fill="#FFFFFF" width="14.4" height="1"/>
</g>
<g display="none">
	<path display="inline" fill="#FFFFFF" d="M-108.6,25.1c-1.2,0-3.2-0.5-3.8-3.9c-0.1-0.3-1.8-8.7,2.8-16.4c1.8-3,4-4.5,6.8-4.5
		c2.9,0,5.3,1.7,5.5,1.9c0.3,0.2,1,0.5,1.3,0.5h1.8c0.4,0,1-0.2,1.3-0.5l0,0c0,0,2.5-2,5.6-2c2.8,0,5.1,1.5,6.8,4.5
		c4.5,7.7,2.8,16.1,2.8,16.5c-0.5,3.3-2.6,3.8-3.7,3.8c-0.1,0-0.3,0-0.4,0c-0.5,0-2.1-0.2-6.7-6.5l-0.1-0.2
		c-0.2-0.3-0.7-0.5-1.1-0.5l-10.9,0c-0.3,0-0.8,0.3-1.1,0.5l-0.1,0.2c-4.5,6.3-6,6.4-6.6,6.5C-108.3,25-108.5,25.1-108.6,25.1z
		 M-102.7,1.8c-2.2,0-4.1,1.3-5.5,3.7c-4.3,7.2-2.7,15.1-2.6,15.4c0.3,1.9,1.1,2.7,2.5,2.6c0.2,0,1.6-0.4,5.5-5.8
		c0.1-0.1,0.2-0.2,0.2-0.2c0.5-0.6,1.4-1.1,2.2-1.1l10.9,0c0.8,0,1.7,0.5,2.2,1.1c0,0,0.1,0.1,0.2,0.2c4.1,5.6,5.5,5.9,5.6,5.9
		c1.4,0.1,2.2-0.7,2.5-2.6c0.1-0.4,1.7-8.2-2.6-15.4c-1.5-2.5-3.3-3.7-5.5-3.7c-2.5,0-4.6,1.6-4.6,1.6c-0.6,0.4-1.6,0.8-2.3,0.8
		h-1.8c-0.7,0-1.7-0.3-2.3-0.8C-98.2,3.4-100.3,1.8-102.7,1.8z"/>
</g>
<g display="none">
	<path display="inline" fill="#FFFFFF" d="M-89,13.9c-1,0-1.8-0.8-1.8-1.8c0-1,0.8-1.8,1.8-1.8c1,0,1.8,0.8,1.8,1.8
		C-87.2,13.1-88,13.9-89,13.9z M-89,11.1c-0.6,0-1,0.5-1,1s0.5,1,1,1c0.6,0,1-0.5,1-1S-88.4,11.1-89,11.1z"/>
</g>
<g display="none">
	<path display="inline" fill="#FFFFFF" d="M-89,9.7c-1,0-1.8-0.8-1.8-1.8c0-1,0.8-1.8,1.8-1.8c1,0,1.8,0.8,1.8,1.8
		C-87.2,8.8-88,9.7-89,9.7z M-89,6.8c-0.6,0-1,0.5-1,1s0.5,1,1,1c0.6,0,1-0.5,1-1S-88.4,6.8-89,6.8z"/>
</g>
<g display="none">
	<path display="inline" fill="#FFFFFF" d="M-84.8,11.8c-1,0-1.8-0.8-1.8-1.8s0.8-1.8,1.8-1.8c1,0,1.8,0.8,1.8,1.8
		S-83.8,11.8-84.8,11.8z M-84.8,8.9c-0.6,0-1,0.5-1,1s0.5,1,1,1s1-0.5,1-1S-84.2,8.9-84.8,8.9z"/>
</g>
<g display="none">
	<path display="inline" fill="#FFFFFF" d="M-103,13.3c-0.2,0-0.4-0.2-0.4-0.4V7.1c0-0.2,0.2-0.4,0.4-0.4s0.4,0.2,0.4,0.4v5.8
		C-102.6,13.1-102.8,13.3-103,13.3z"/>
</g>
<g display="none">
	<path display="inline" fill="#FFFFFF" d="M-100.1,10.4h-5.8c-0.2,0-0.4-0.2-0.4-0.4s0.2-0.4,0.4-0.4h5.8c0.2,0,0.4,0.2,0.4,0.4
		S-99.9,10.4-100.1,10.4z"/>
</g>
<g display="none">
	<path display="inline" fill="#FFFFFF" d="M-24.1,4.6h-0.3l-0.2-0.2L-27,2.1l0-0.7l0.2-0.3c0,0,0.4-0.4,0.8-0.8
		c0.7-0.7,1.9-0.7,2.6,0l0.6,0.6c0.4,0.3,0.6,0.8,0.6,1.3c0,0.5-0.2,0.9-0.5,1.3l-0.8,0.8C-23.7,4.6-23.9,4.6-24.1,4.6z M-25.2,1.8
		l0.8,0.8c0.1,0.1,0.2,0.2,0.3,0.3l0.3-0.3c0.1-0.1,0.1-0.1,0.1-0.2c0-0.1,0-0.2-0.1-0.2l-0.6-0.6c-0.2-0.2-0.3-0.2-0.5,0L-25.2,1.8
		z"/>
</g>
<g display="none">
	<path display="inline" fill="#FFFFFF" d="M-31.9,12.8l-3.3-3.2l8.9-8.8l3.3,3.2L-31.9,12.8z M-33,9.6l1.1,1.1l6.8-6.7l-1.1-1.1
		L-33,9.6z"/>
</g>
<g display="none">
	<path display="inline" fill="#FFFFFF" d="M-35.7,14c-0.2,0-0.4-0.1-0.5-0.2c-0.2-0.2-0.3-0.5-0.2-0.8l1.6-3.7l1.4,0.6l-0.9,2
		l2.1-0.9l0.6,1.4l-3.8,1.6C-35.5,14-35.6,14-35.7,14z"/>
</g>
<g display="none">
	<path display="inline" fill="#FFFFFF" d="M-26.6,24.1h-31.2c-1.5,0-2.8-1.2-2.8-2.8V4.3c0-1.5,1.2-2.8,2.8-2.8h31.2
		c1.5,0,2.8,1.2,2.8,2.8v17.1C-23.9,22.8-25.1,24.1-26.6,24.1z M-57.9,3c-0.7,0-1.2,0.6-1.2,1.3v17.1c0,0.7,0.6,1.2,1.2,1.2h31.2
		c0.7,0,1.2-0.6,1.2-1.2V4.3c0-0.7-0.6-1.3-1.2-1.3H-57.9z"/>
</g>
<g display="none">
	<rect x="-54.5" y="2.3" display="inline" fill="#FFFFFF" width="1.5" height="21.1"/>
</g>
<g>
	<path fill="#FFFFFF" d="M22,29c-0.2,0-0.4,0-0.6,0c-0.9-0.1-1.6-0.8-1.6-1.7c0-0.3,0-0.7,0.1-1l0.8-10.9c0-0.3,0-0.7,0.1-1
		c0.1-1,0.9-1.8,2-1.7c0.1,0,0.2,0,0.2,0c0,0,0,0,0,0c0.1-0.9,0.2-1.7,0.1-2.6c-0.1-1.1-0.4-2.1-1-2.9c-0.4-0.1-0.8-0.3-1.1-0.6
		c-0.8-0.7-1.8-1.2-3.1-1.5c-1-0.2-2.2-0.3-3.3-0.3c-0.9,0-1.7,0.1-2.5,0.3c-1,0.3-1.8,0.7-2.5,1.2C9.4,6.4,9.4,6.5,9.3,6.5
		C9,6.8,8.6,7,8.2,7.1C7.7,7.9,7.4,8.8,7.2,9.9c-0.1,0.9-0.1,1.8,0,2.8c0.1,0,0.3,0,0.4,0h0c1,0,1.7,0.7,1.8,1.7l0.9,12.9
		c0,0.5-0.1,1-0.4,1.3C9.6,28.8,9.2,29,8.7,29c-2,0.1-3.8-0.4-5.4-1.6c-1.6-1.2-2.7-2.8-3.1-4.7c-0.6-2.9,0.1-5.5,2.2-7.6
		c0.5-0.5,1-0.9,1.6-1.3c-0.2-1.1-0.3-2.3-0.3-3.4c0.1-2,0.6-3.6,1.6-5.1C5.2,4.4,5.4,3.7,6,3.1c1-1,2.3-1.7,3.7-2.2
		c1-0.4,2-0.6,3-0.7c0.4,0,0.7-0.1,1.1-0.1L14.5,0l1.8,0c1.6,0.1,3.1,0.4,4.4,0.9c1.3,0.5,2.5,1.2,3.5,2.2c0.6,0.6,0.8,1.3,0.7,2.1
		c0.6,1,1.1,2,1.3,3.2c0.2,1,0.3,2.2,0.3,3.3c0,0.7-0.1,1.3-0.3,2c0.7,0.4,1.3,0.9,1.9,1.6c1,1.1,1.7,2.4,1.9,3.9
		c0.8,3.9-1.4,7.7-5,9.2C24,28.8,23,29,22,29z M22.4,14.1c-0.2,0-0.3,0.1-0.3,0.3c0,0.3,0,0.7-0.1,1l-0.8,10.9c0,0.3,0,0.6-0.1,1
		c0,0.1,0.1,0.2,0.2,0.2c1,0.1,2-0.1,2.9-0.5c3-1.2,4.7-4.4,4.1-7.5c-0.2-1.2-0.8-2.3-1.6-3.2c-0.5-0.6-1.2-1.1-1.9-1.5
		c-0.5-0.2-0.5-0.7-0.5-1c0.2-0.7,0.3-1.4,0.3-2.2c0.1-1,0-2-0.2-2.9c-0.2-1.1-0.7-2.1-1.2-2.9c-0.2-0.2-0.2-0.5-0.1-0.8
		c0.1-0.4,0-0.6-0.2-0.9c-0.8-0.8-1.8-1.4-3-1.8c-1.2-0.5-2.5-0.7-4-0.8l-0.6,0L14,1.5c-0.4,0-0.7,0.1-1.1,0.1
		C12,1.7,11.1,2,10.2,2.3C9,2.7,7.9,3.3,7.1,4.2C6.8,4.4,6.7,4.7,6.8,5.1c0.1,0.3,0,0.6-0.2,0.9c-0.9,1.3-1.3,2.8-1.4,4.5
		c-0.1,1.1,0,2.3,0.3,3.4c0.1,0.4-0.1,0.8-0.5,1c-0.6,0.3-1.2,0.7-1.6,1.2c-1.7,1.8-2.3,3.9-1.8,6.3c0.3,1.6,1.2,2.9,2.5,3.9
		c1.3,1,2.8,1.4,4.4,1.3c0.1,0,0.2,0,0.2-0.1c0-0.1,0.1-0.1,0.1-0.2L8,14.4c0-0.3-0.2-0.3-0.2-0.3c-0.1,0-0.3,0-0.4,0l-0.2,0
		c-0.1,0-0.2,0-0.3,0l-0.8,0.1l-0.2-0.8c-0.3-1.4-0.3-2.7-0.2-3.9c0.2-1.4,0.6-2.5,1.3-3.5c0.2-0.2,0.4-0.4,0.7-0.4
		c0.2,0,0.4-0.1,0.5-0.2c0.1-0.1,0.2-0.2,0.3-0.3c0.8-0.7,1.8-1.2,3.1-1.5c0.9-0.2,1.8-0.4,2.8-0.4c1.3-0.1,2.6,0,3.7,0.3
		c1.6,0.4,2.8,1,3.8,1.9c0.1,0.1,0.3,0.2,0.5,0.2c0.3,0,0.5,0.2,0.7,0.4c0.7,1.1,1.2,2.3,1.3,3.8c0.1,1,0.1,2-0.1,3
		c0,0.2-0.1,0.4-0.1,0.5l-0.2,0.9l-1-0.1C22.9,14.2,22.7,14.2,22.4,14.1C22.5,14.1,22.4,14.1,22.4,14.1z"/>
</g>
<g display="none">
	<g display="inline">
		<path fill="#FFFFFF" d="M58.3,21.1h-0.4c-3.2,0-5.8-2.6-5.8-5.8V5.8c0-3.2,2.6-5.8,5.8-5.8h0.4c3.2,0,5.8,2.6,5.8,5.8v9.5
			C64.1,18.5,61.5,21.1,58.3,21.1z M57.9,1.5c-2.4,0-4.3,1.9-4.3,4.3v9.5c0,2.4,1.9,4.3,4.3,4.3h0.4c2.4,0,4.3-1.9,4.3-4.3V5.8
			c0-2.4-1.9-4.3-4.3-4.3H57.9z"/>
	</g>
	<g display="inline">
		<path fill="#FFFFFF" d="M64.8,29.4h-6.1v-7.3l0.7-0.1c1.8-0.1,3.2-0.8,4.2-2c2.1-2.6,1.8-6.7,1.8-6.7c0-0.4,0.3-0.8,0.7-0.8
			c0.4,0,0.8,0.3,0.8,0.7c0,0.2,0.4,4.8-2.1,7.8c-1.1,1.4-2.7,2.2-4.5,2.5v4.4h4.6c0.4,0,0.8,0.3,0.8,0.8S65.3,29.4,64.8,29.4z"/>
	</g>
	<g display="inline">
		<path fill="#FFFFFF" d="M57.5,29.4h-6.1c-0.4,0-0.8-0.3-0.8-0.8s0.3-0.8,0.8-0.8H56v-4.4c-1.9-0.3-3.4-1.1-4.5-2.5
			c-2.5-3-2.1-7.6-2.1-7.8c0-0.4,0.4-0.7,0.8-0.7c0.4,0,0.7,0.4,0.7,0.8c0,0-0.4,4.2,1.8,6.7c1,1.2,2.4,1.9,4.2,2l0.7,0.1V29.4z"/>
	</g>
	<g display="inline">
		<path fill="#FFFFFF" d="M53.1,6.8h2.7c0.5,0,0.9-0.3,0.9-0.6v0c0-0.3-0.4-0.6-0.9-0.6h-2.7V6.8z"/>
	</g>
	<g display="inline">
		<path fill="#FFFFFF" d="M53.1,9.9h2.7c0.5,0,0.9-0.3,0.9-0.6v0c0-0.3-0.4-0.6-0.9-0.6h-2.7V9.9z"/>
	</g>
	<g display="inline">
		<path fill="#FFFFFF" d="M53.1,12.6h2.7c0.5,0,0.9-0.3,0.9-0.6v0c0-0.3-0.4-0.6-0.9-0.6h-2.7V12.6z"/>
	</g>
	<g display="inline">
		<path fill="#FFFFFF" d="M53.1,15.2h2.7c0.5,0,0.9-0.3,0.9-0.6v0c0-0.3-0.4-0.6-0.9-0.6h-2.7V15.2z"/>
	</g>
</g>
<g display="none">
	<g display="inline">
		<path fill="#FFFFFF" d="M-431.9,23.4h-32.4c-0.3,0-0.5-0.1-0.7-0.4c-0.1-0.2-0.1-0.5,0-0.8l4.2-7V0.2c0-0.4,0.3-0.8,0.8-0.8h23.7
			c0.4,0,0.8,0.3,0.8,0.8v15.1l4.2,7c0.1,0.2,0.1,0.5,0,0.8C-431.4,23.2-431.6,23.4-431.9,23.4z M-463,21.9h29.8l-3.7-6
			c-0.1-0.1-0.1-0.3-0.1-0.4V0.9h-22.2v14.5c0,0.1,0,0.3-0.1,0.4L-463,21.9z"/>
	</g>
	<g display="inline">
		<path fill="#FFFFFF" d="M-436.2,16.2H-460c-0.4,0-0.8-0.3-0.8-0.7s0.3-0.8,0.8-0.8h23.7c0.4,0,0.8,0.3,0.8,0.8
			S-435.8,16.2-436.2,16.2z"/>
	</g>
	<g display="inline">
		<path fill="#FFFFFF" d="M-437.6,19.7h-21.1c-0.4,0-0.8-0.3-0.8-0.8s0.3-0.8,0.8-0.8h21.1c0.4,0,0.8,0.3,0.8,0.8
			S-437.2,19.7-437.6,19.7z"/>
	</g>
	<g display="inline">
		<path fill="#FFFFFF" d="M-454.6,23.4c-0.1,0-0.3,0-0.4-0.1c-0.3-0.2-0.4-0.7-0.2-1l2.5-3.7c0.2-0.3,0.7-0.4,1-0.2
			c0.3,0.2,0.4,0.7,0.2,1L-454,23C-454.1,23.2-454.3,23.4-454.6,23.4z"/>
	</g>
	<g display="inline">
		<path fill="#FFFFFF" d="M-441.9,23.4c-0.2,0-0.5-0.1-0.6-0.3l-2.5-3.7c-0.2-0.3-0.2-0.8,0.2-1c0.3-0.2,0.8-0.2,1,0.2l2.5,3.7
			c0.2,0.3,0.2,0.8-0.2,1C-441.6,23.3-441.8,23.4-441.9,23.4z"/>
	</g>
</g>
<g display="none">
	<circle display="inline" fill="#FFFFFF" cx="-396.8" cy="22.3" r="0.7"/>
</g>
<path display="none" fill="none" stroke="#FFFFFF" stroke-width="1.5" stroke-miterlimit="10" d="M-490.8,125.3h-27.3
	c-1.1,0-2-0.9-2-2v-14.2c0-1.1,0.9-2,2-2h27.3c1.1,0,2,0.9,2,2v14.2C-488.8,124.4-489.7,125.3-490.8,125.3z"/>
<line display="none" fill="none" stroke="#FFFFFF" stroke-width="1.5" stroke-linecap="round" stroke-linejoin="round" stroke-miterlimit="10" x1="-520.1" y1="122.2" x2="-488.8" y2="122.2"/>
<polyline display="none" fill="none" stroke="#FFFFFF" stroke-width="1.5" stroke-linecap="round" stroke-linejoin="round" stroke-miterlimit="10" points="
	-508.5,126.3 -508.5,128.5 -500.5,128.5 -500.5,126.3 "/>
<path display="none" fill="#FFFFFF" d="M-497.9,131.6h-13.3c-0.3,0-0.5-0.2-0.5-0.5v-0.2c0-0.3,0.2-0.5,0.5-0.5h13.3
	c0.3,0,0.5,0.2,0.5,0.5v0.2C-497.4,131.4-497.6,131.6-497.9,131.6z"/>
<path display="none" fill="none" stroke="#FFFFFF" stroke-width="1.5" stroke-miterlimit="10" d="M-136.2,114.2
	c-0.9-3.5-4-6.1-7.8-6.1c-3.4,0-6.2,2.1-7.4,5c-0.7-0.6-1.6-1-2.6-1c-2.2,0-4,1.8-4,4c0,0.1,0,0.2,0,0.4c-2.4,0.8-4,3.2-4,5.8
	c0,3.3,2.7,6.2,6,6.2h19.1c3.9,0,7-3.3,7-7.2C-129.9,117.7-132.7,114.6-136.2,114.2z"/>
<g display="none">
	<path display="inline" fill="none" stroke="#FFFFFF" stroke-width="1.5" stroke-miterlimit="10" d="M-276.3,110h-6.4l-0.5-2.4
		c-0.1-0.4-0.6-0.8-1-0.8h-8.3c-0.4,0-0.9,0.4-0.9,0.8l-0.4,2.4h-0.8c-1.1,0-3.2,2.6-8,2.6v0.1c0,0,0,0.4,0,0.9v15.1
		c0,0.4,0.4,0.5,0.8,0.5h25.5c0.4,0,0.8,0,0.8-0.5v-17.5C-275.5,110.7-275.9,110-276.3,110z"/>
	
		<line display="inline" fill="none" stroke="#FFFFFF" stroke-width="1.5" stroke-miterlimit="10" x1="-303.3" y1="110" x2="-300.2" y2="110"/>
	
		<circle display="inline" fill="none" stroke="#FFFFFF" stroke-width="1.5" stroke-miterlimit="10" cx="-288.2" cy="119.6" r="6.4"/>
</g>
<polyline display="none" fill="none" stroke="#FFFFFF" stroke-width="1.5" stroke-linecap="round" stroke-miterlimit="10" points="
	-182.9,115.2 -182.9,129.5 -201.9,129.5 -201.9,111 -187.6,111 "/>
<polyline display="none" fill="none" stroke="#FFFFFF" stroke-width="1.5" stroke-linecap="round" stroke-linejoin="round" stroke-miterlimit="10" points="
	-193.9,122.1 -178.5,106.7 -178.5,114.4 "/>
<line display="none" fill="none" stroke="#FFFFFF" stroke-width="1.5" stroke-linecap="round" stroke-linejoin="round" stroke-miterlimit="10" x1="-178.5" y1="106.7" x2="-186.8" y2="106.7"/>
<path display="none" fill="none" stroke="#FFFFFF" stroke-width="1.5" stroke-miterlimit="10" d="M-226.3,129h-24.3
	c-1.4,0-2.3-0.8-2.3-1.9v-7.9c0-0.1,0-0.2,0.1-0.2l3.5-7.5c0.1-0.2,0.2-0.3,0.3-0.5c0.4-0.7,0.9-1.6,2-1.6h17.4c1.1,0,1.6,0.9,2,1.6
	c0.1,0.1,0.1,0.3,0.2,0.4l3.5,7.6c0,0.1,0.1,0.2,0.1,0.2v7.9C-224,128.2-224.9,129-226.3,129z"/>
<line display="none" fill="none" stroke="#FFFFFF" stroke-width="1.5" stroke-miterlimit="10" x1="-253" y1="119.1" x2="-224" y2="119.1"/>
<line display="none" fill="none" stroke="#FFFFFF" stroke-width="1.5" stroke-linecap="round" stroke-miterlimit="10" x1="-248.9" y1="123.1" x2="-248.9" y2="125.2"/>
<line display="none" fill="none" stroke="#FFFFFF" stroke-width="1.5" stroke-linecap="round" stroke-miterlimit="10" x1="-245.7" y1="123.1" x2="-245.7" y2="125.2"/>
<path display="none" fill="none" stroke="#FFFFFF" stroke-width="1.5" stroke-miterlimit="10" d="M-329.9,112v15.3
	c0,1.5-1.2,2.8-2.8,2.8h-30.8c-1.5,0-2.8-1.2-2.8-2.8V112c0-1.5,1.2-2.8,2.8-2.8h30.8C-331.1,109.2-329.9,110.4-329.9,112z"/>
<line display="none" fill="none" stroke="#FFFFFF" stroke-width="1.5" stroke-miterlimit="10" x1="-333.6" y1="109.2" x2="-333.6" y2="130"/>
<line display="none" fill="none" stroke="#FFFFFF" stroke-width="1.5" stroke-miterlimit="10" x1="-362.5" y1="109.2" x2="-362.5" y2="130"/>
<path display="none" fill="none" stroke="#FFFFFF" stroke-width="1.5" stroke-miterlimit="10" d="M-391.5,130.8H-402
	c-1.1,0-1.9-0.9-1.9-1.9v-21.2c0-1.1,0.9-1.9,1.9-1.9h10.5c1.1,0,1.9,0.9,1.9,1.9v21.2C-389.6,129.9-390.5,130.8-391.5,130.8z"/>
<line display="none" fill="none" stroke="#FFFFFF" stroke-miterlimit="10" x1="-389.6" y1="128.2" x2="-404" y2="128.2"/>
<line display="none" fill="none" stroke="#FFFFFF" stroke-miterlimit="10" x1="-389.6" y1="108.2" x2="-404" y2="108.2"/>
<path display="none" fill="none" stroke="#FFFFFF" stroke-width="1.5" stroke-miterlimit="10" d="M-81,112.2
	c-1.6-2.7-3.7-4.1-6.2-4.1c-2.8,0-5.1,1.8-5.1,1.8c-0.4,0.3-1.3,0.6-1.8,0.6h-1.8c-0.5,0-1.4-0.3-1.8-0.6c-0.1-0.1-2.3-1.8-5.1-1.8
	c-2.5,0-4.6,1.4-6.2,4.1c-4.4,7.5-2.7,15.6-2.7,15.9c0.4,2.7,1.9,3.2,3,3.2c0.1,0,0.2,0,0.3,0c1.9-0.2,6-6.1,6.2-6.3
	c0.4-0.4,1.1-0.8,1.6-0.8l10.9,0c0.5,0,1.3,0.4,1.6,0.8c0.2,0.2,4.4,6.2,6.3,6.4c0.1,0,0.2,0,0.3,0c1.1,0,2.6-0.6,3-3.2
	C-78.3,128-76.5,119.7-81,112.2z"/>
<path display="none" fill="none" stroke="#FFFFFF" stroke-width="0.75" stroke-linecap="round" stroke-linejoin="round" stroke-miterlimit="10" d="
	M-89,120.5c-0.8,0-1.4-0.6-1.4-1.4c0-0.8,0.6-1.4,1.4-1.4c0.8,0,1.4,0.6,1.4,1.4C-87.6,119.9-88.2,120.5-89,120.5z"/>
<path display="none" fill="none" stroke="#FFFFFF" stroke-width="0.75" stroke-linecap="round" stroke-linejoin="round" stroke-miterlimit="10" d="
	M-89,116.3c-0.8,0-1.4-0.6-1.4-1.4s0.6-1.4,1.4-1.4c0.8,0,1.4,0.6,1.4,1.4S-88.2,116.3-89,116.3z"/>
<circle display="none" fill="none" stroke="#FFFFFF" stroke-width="0.75" stroke-linecap="round" stroke-linejoin="round" stroke-miterlimit="10" cx="-84.8" cy="117" r="1.4"/>
<line display="none" fill="none" stroke="#FFFFFF" stroke-width="0.75" stroke-linecap="round" stroke-linejoin="round" stroke-miterlimit="10" x1="-103" y1="114.1" x2="-103" y2="119.9"/>
<line display="none" fill="none" stroke="#FFFFFF" stroke-width="0.75" stroke-linecap="round" stroke-linejoin="round" stroke-miterlimit="10" x1="-105.9" y1="117" x2="-100.1" y2="117"/>
<path display="none" fill="none" stroke="#FFFFFF" stroke-width="1.5" stroke-miterlimit="10" d="M-23.9,108c-0.4-0.4-1.1-0.4-1.6,0
	c-0.4,0.4-0.8,0.8-0.8,0.8c0,0,0,0.1,0,0.1c0,0,0.4,0.4,0.8,0.8l0.5,0.5c0.4,0.4,0.8,0.8,0.8,0.8c0,0,0.1,0,0.1,0
	c0,0,0.4-0.4,0.8-0.8c0.4-0.4,0.4-1.1,0-1.5L-23.9,108z"/>
<polygon display="none" fill="none" stroke="#FFFFFF" stroke-width="1.5" stroke-miterlimit="10" points="-26.3,108.8 -34.1,116.6 
	-31.9,118.7 -24.1,110.9 "/>
<polyline display="none" fill="none" stroke="#FFFFFF" stroke-width="1.5" stroke-linejoin="round" stroke-miterlimit="10" points="
	-34.1,116.6 -35.7,120.3 -35.7,120.3 -31.9,118.7 "/>
<path display="none" fill="none" stroke="#FFFFFF" stroke-width="1.5" stroke-linejoin="round" stroke-miterlimit="10" d="
	M-26.6,130.3h-31.2c-1.1,0-2-0.9-2-2v-17.1c0-1.1,0.9-2,2-2h31.2c1.1,0,2,0.9,2,2v17.1C-24.6,129.4-25.5,130.3-26.6,130.3z"/>
<line display="none" fill="none" stroke="#FFFFFF" stroke-width="1.5" stroke-miterlimit="10" x1="-53.8" y1="130.3" x2="-53.8" y2="109.3"/>
<path display="none" fill="none" stroke="#FFFFFF" stroke-width="1.5" stroke-miterlimit="10" d="M15.6,107.8c0.2,0,0.4,0,0.6,0
	c1.4,0.1,2.8,0.3,4.2,0.9c1.2,0.5,2.3,1.1,3.2,2c0.5,0.5,0.6,1,0.4,1.6c0,0.1,0,0.1,0,0.2c0.7,1,1.1,2,1.3,3.2
	c0.2,1,0.3,2.1,0.2,3.1c0,0.8-0.2,1.6-0.3,2.3c0,0.1,0,0.1,0.1,0.1c0.8,0.4,1.5,1,2.1,1.6c0.9,1,1.5,2.2,1.8,3.5
	c0.7,3.5-1.2,7-4.5,8.4c-1.1,0.4-2.1,0.6-3.3,0.5c-0.5,0-0.9-0.4-0.9-1c0-0.4,0-0.9,0.1-1.3c0.1-0.8,0.1-1.5,0.2-2.3
	c0.1-0.9,0.1-1.8,0.2-2.6c0.1-0.9,0.1-1.7,0.2-2.6c0.1-0.9,0.1-1.8,0.2-2.6c0-0.5,0.1-1,0.1-1.5c0-0.6,0.5-1,1.1-1
	c0.3,0,0.6,0.1,0.9,0.1c0-0.2,0.1-0.5,0.1-0.7c0.1-0.9,0.2-1.8,0.1-2.8c-0.1-1.2-0.5-2.4-1.2-3.5c0,0-0.1-0.1-0.1-0.1
	c-0.3,0-0.6-0.2-0.9-0.4c-1-0.9-2.1-1.4-3.4-1.7c-1.2-0.3-2.4-0.3-3.5-0.3c-0.9,0-1.8,0.1-2.6,0.4c-1,0.3-2,0.7-2.8,1.4
	c-0.1,0.1-0.2,0.2-0.3,0.3c-0.3,0.2-0.6,0.4-0.9,0.4c-0.1,0-0.1,0.1-0.1,0.1c-0.7,1-1,2.1-1.2,3.2c-0.2,1.2-0.1,2.5,0.2,3.7
	c0,0,0,0,0,0.1c0.1,0,0.3,0,0.4-0.1c0.2,0,0.4-0.1,0.7-0.1c0.6,0,1,0.4,1,1c0.1,1.5,0.2,3,0.3,4.5c0.1,1.2,0.2,2.4,0.2,3.7
	c0.1,1.3,0.2,2.7,0.3,4c0,0.2,0,0.5,0,0.7c0,0.6-0.4,1.1-1,1.1c-1.8,0.1-3.4-0.4-4.9-1.5c-1.5-1.1-2.4-2.5-2.8-4.3
	c-0.6-2.7,0.1-5,2-7c0.5-0.5,1.1-1,1.8-1.3c0.1,0,0.1-0.1,0.1-0.2c-0.3-1.2-0.4-2.4-0.3-3.6c0.1-1.8,0.6-3.4,1.5-4.9
	c0.1-0.1,0.1-0.2,0.1-0.3c-0.1-0.6,0-1.2,0.5-1.6c1-0.9,2.2-1.6,3.4-2.1c0.9-0.3,1.9-0.6,2.9-0.7c0.5-0.1,1.1-0.1,1.6-0.1
	c0,0,0.1,0,0.1,0C14.9,107.8,15.3,107.8,15.6,107.8z"/>
<g display="none">
	<path display="inline" fill="none" stroke="#FFFFFF" stroke-width="1.5" stroke-miterlimit="10" d="M58.3,127.4h-0.4
		c-2.8,0-5-2.3-5-5v-9.5c0-2.8,2.3-5,5-5h0.4c2.8,0,5,2.3,5,5v9.5C63.4,125.1,61.1,127.4,58.3,127.4z"/>
	<path display="inline" fill="none" stroke="#FFFFFF" stroke-width="1.5" stroke-linecap="round" stroke-miterlimit="10" d="
		M66.1,120.3c0,0,0.9,9-6.6,9.5v5.8h5.4"/>
	<path display="inline" fill="none" stroke="#FFFFFF" stroke-width="1.5" stroke-linecap="round" stroke-miterlimit="10" d="
		M50.1,120.3c0,0-0.9,9,6.6,9.5v5.8h-5.4"/>
	<path display="inline" fill="#FFFFFF" d="M53.1,113.8h2.7c0.5,0,0.9-0.3,0.9-0.6l0,0c0-0.3-0.4-0.6-0.9-0.6h-2.7V113.8z"/>
	<path display="inline" fill="#FFFFFF" d="M53.1,116.9h2.7c0.5,0,0.9-0.3,0.9-0.6v0c0-0.3-0.4-0.6-0.9-0.6h-2.7V116.9z"/>
	<path display="inline" fill="#FFFFFF" d="M53.1,119.6h2.7c0.5,0,0.9-0.3,0.9-0.6l0,0c0-0.3-0.4-0.6-0.9-0.6h-2.7V119.6z"/>
	<path display="inline" fill="#FFFFFF" d="M53.1,122.2h2.7c0.5,0,0.9-0.3,0.9-0.6v0c0-0.3-0.4-0.6-0.9-0.6h-2.7V122.2z"/>
</g>
<g display="none">
	
		<polygon display="inline" fill="none" stroke="#FFFFFF" stroke-width="1.5" stroke-linecap="round" stroke-linejoin="round" stroke-miterlimit="10" points="
		-436.2,122.5 -436.2,107.2 -447.7,107.2 -448.5,107.2 -460,107.2 -460,122.5 -464.3,129.6 -448.5,129.6 -447.7,129.6 -431.9,129.6 
			"/>
	
		<line display="inline" fill="none" stroke="#FFFFFF" stroke-width="1.5" stroke-linecap="round" stroke-linejoin="round" stroke-miterlimit="10" x1="-460" y1="122.5" x2="-436.2" y2="122.5"/>
	
		<line display="inline" fill="none" stroke="#FFFFFF" stroke-width="1.5" stroke-linecap="round" stroke-linejoin="round" stroke-miterlimit="10" x1="-458.6" y1="126" x2="-437.6" y2="126"/>
	
		<line display="inline" fill="none" stroke="#FFFFFF" stroke-width="1.5" stroke-linecap="round" stroke-linejoin="round" stroke-miterlimit="10" x1="-452" y1="126" x2="-454.6" y2="129.6"/>
	
		<line display="inline" fill="none" stroke="#FFFFFF" stroke-width="1.5" stroke-linecap="round" stroke-linejoin="round" stroke-miterlimit="10" x1="-444.4" y1="126" x2="-441.9" y2="129.6"/>
</g>
<circle display="none" fill="#FFFFFF" cx="-396.8" cy="129.3" r="0.7"/>
</svg>
