<?xml version="1.0" encoding="utf-8"?>
<!-- Generator: Adobe Illustrator 18.0.0, SVG Export Plug-In . SVG Version: 6.00 Build 0)  -->
<!DOCTYPE svg PUBLIC "-//W3C//DTD SVG 1.1//EN" "http://www.w3.org/Graphics/SVG/1.1/DTD/svg11.dtd">
<svg version="1.1" id="Layer_1" xmlns="http://www.w3.org/2000/svg" xmlns:xlink="http://www.w3.org/1999/xlink" x="0px" y="0px"
	 viewBox="0 0 80 80" enable-background="new 0 0 80 80" xml:space="preserve">
<g display="none">
	<g display="inline">
		<path fill="#1C1C1C" d="M215,75.8h-77.7c-3.4,0-6.1-2.4-6.1-5.5V19.6c0-3,2.7-5.5,6.1-5.5H215c3.4,0,6.1,2.4,6.1,5.5v50.7
			C221.1,73.4,218.4,75.8,215,75.8z M137.3,18.9c-0.9,0-1.4,0.5-1.4,0.8v50.7c0,0.3,0.6,0.8,1.4,0.8H215c0.9,0,1.4-0.5,1.4-0.8V19.6
			c0-0.3-0.6-0.8-1.4-0.8H137.3z"/>
	</g>
	<g display="inline">
		<g>
			<path fill="#1C1C1C" d="M161.2,54.4c-5.8,0-10.5-5-10.5-11.3c0-6.2,4.7-11.3,10.5-11.3s10.5,5,10.5,11.3
				C171.6,49.3,167,54.4,161.2,54.4z M161.2,36.5c-3.2,0-5.8,3-5.8,6.6s2.6,6.6,5.8,6.6c3.2,0,5.8-3,5.8-6.6S164.4,36.5,161.2,36.5z
				"/>
		</g>
		<g>
			<path fill="#1C1C1C" d="M170.9,74.7h-19.5c-2.8,0-5.2-2.2-5.4-5l-0.4-6.3c-0.3-4.2,2.5-8.5,6.6-9.9c5.8-2.1,12.2-2.1,17.9,0
				c4.1,1.5,6.9,5.8,6.7,10l-0.4,6.2C176.1,72.5,173.7,74.7,170.9,74.7z M161.2,56.5c-2.5,0-5,0.4-7.4,1.3c-2,0.7-3.7,3.2-3.5,5.3
				l0.4,6.3c0,0.4,0.4,0.7,0.8,0.7H171c0.4,0,0.7-0.3,0.8-0.7l0.4-6.2c0.1-2.1-1.4-4.5-3.6-5.3C166.2,56.9,163.7,56.5,161.2,56.5z"
				/>
		</g>
	</g>
	<g display="inline">
		<path fill="#1C1C1C" d="M203.1,44.4h-17.4c-1.3,0-2.3-1.1-2.3-2.3s1.1-2.3,2.3-2.3h17.4c1.3,0,2.3,1.1,2.3,2.3
			S204.4,44.4,203.1,44.4z"/>
	</g>
	<g display="inline">
		<path fill="#1C1C1C" d="M203.1,34.3h-17.4c-1.3,0-2.3-1.1-2.3-2.3c0-1.3,1.1-2.3,2.3-2.3h17.4c1.3,0,2.3,1.1,2.3,2.3
			C205.4,33.3,204.4,34.3,203.1,34.3z"/>
	</g>
	<g display="inline">
		<path fill="#1C1C1C" d="M221.6,4.2h-77.7c-3.4,0-6.1,2.4-6.1,5.5v7.2h4.7V9.6c0-0.3,0.6-0.8,1.4-0.8h77.7c0.9,0,1.4,0.5,1.5,0.5
			l-5.3,48.9v17.3c1.9-0.9,3.3-2.6,3.3-4.6l6.7-61.3C227.8,6.6,225,4.2,221.6,4.2z"/>
	</g>
</g>
<g>
	<g>
		<path fill="#AAAD00" d="M44.1,74.1l-2.7-6.4c-0.3,0.4-0.6,0.7-0.9,1.1v-3.3l-3.1-7.1v11.4c-4.3-4.6-7.7-9.2-10.2-13.9h9.2L35,52.9
			h-9.4C23,47,21.8,40.9,22.1,35c0.2-3.6,1-7,2-10.1h13.2v6.2h0.5l1.2,0.5l1,0.5c0.1,0,0.3,0.1,0.4,0.2v-7.4h12.3
			c1.1,3.1,1.8,6.5,2,10.1c0,1.1,0,2.3,0,3.4l3,1.3c0.1-1.6,0.1-3.2,0-4.9c-0.2-3.5-0.9-6.8-1.8-9.9h13.3c1.6,3.9,2.5,8.2,2.5,12.6
			c0,2.6-0.3,5.2-0.9,7.7l1.6,0.7c1,0.4,1.8,1,2.4,1.8c0.9-3.2,1.4-6.6,1.4-10.1C76.4,16.8,59.6,0,38.9,0C18.2,0,1.4,16.8,1.4,37.5
			S18.2,75,38.9,75c1.8,0,3.7-0.2,5.5-0.5C44.3,74.4,44.2,74.3,44.1,74.1z M67.8,21.8H54.9C51.9,14.3,47.3,8.5,44,5
			C54.3,6.7,63,13,67.8,21.8z M40.4,5.8c3,2.9,7.9,8.5,11.1,16H40.4V5.8z M37.3,4.9v16.9h-12C28.9,13.4,34.6,7.5,37.3,4.9z
			 M32.7,5.2c-3.3,3.5-7.8,9.2-10.7,16.6H10C14.6,13.3,22.9,7.1,32.7,5.2z M6,37.5c0-4.5,0.9-8.7,2.5-12.6h12.4
			c-1,3.1-1.7,6.4-1.8,9.9c-0.4,6.1,0.8,12.1,3.2,18.1H9.8C7.3,48.2,6,43,6,37.5z M11.6,55.9h12.1c2.3,4.7,5.5,9.4,9.6,14
			C24.3,68.4,16.5,63.2,11.6,55.9z"/>
	</g>
	<path fill="#AAAD00" d="M37.8,38.1c1.1,0.5,2.1,0.9,3.2,1.4c10.1,4.3,20.3,8.6,30.4,12.9c0.8,0.4,0.9,1.1,0.3,1.7
		c-2.3,2-4.6,4.1-7,6.1c-0.1,0.1-0.2,0.2-0.3,0.3c0.1,0.1,0.2,0.2,0.3,0.3c4.5,4.5,9,8.9,13.5,13.4c0.7,0.6,0.7,1,0,1.7
		c-1.2,1.2-2.5,2.5-3.7,3.7c-0.3,0.3-0.6,0.5-0.8,0.5s-0.5-0.1-0.8-0.5c-4.4-4.4-8.9-8.8-13.4-13.3c-0.1-0.1-0.2-0.2-0.3-0.3
		c-0.2,0.2-0.4,0.4-0.6,0.6c-1.9,2.1-3.8,4.2-5.7,6.3c-0.3,0.3-0.6,0.5-0.9,0.5c-0.3,0-0.6-0.3-0.9-0.8
		c-4.8-11.1-9.5-22.1-14.2-33.1c0-0.1-0.1-0.2-0.2-0.4c0-0.4,0-0.8,0-1.2C37.1,38.1,37.4,38.1,37.8,38.1"/>
</g>
</svg>
