<?xml version="1.0" encoding="utf-8"?>
<!-- Generator: Adobe Illustrator 18.0.0, SVG Export Plug-In . SVG Version: 6.00 Build 0)  -->
<!DOCTYPE svg PUBLIC "-//W3C//DTD SVG 1.1//EN" "http://www.w3.org/Graphics/SVG/1.1/DTD/svg11.dtd">
<svg version="1.1" id="Layer_1" xmlns="http://www.w3.org/2000/svg" xmlns:xlink="http://www.w3.org/1999/xlink" x="0px" y="0px"
	 viewBox="0 0 167.1 173.1" enable-background="new 0 0 167.1 173.1" xml:space="preserve">
<g display="none">
	<g display="inline">
		<path fill="#1C1C1C" d="M462.2,164.1H294.1c-7.3,0-13.2-5.3-13.2-11.8V42.5c0-6.5,5.9-11.8,13.2-11.8h168.1
			c7.3,0,13.2,5.3,13.2,11.8v109.8C475.4,158.8,469.5,164.1,462.2,164.1z M294.1,40.8c-2,0-3.1,1.1-3.1,1.7v109.8
			c0,0.6,1.2,1.7,3.1,1.7h168.1c2,0,3.1-1.1,3.1-1.7V42.5c0-0.6-1.2-1.7-3.1-1.7H294.1z"/>
	</g>
	<g display="inline">
		<g>
			<path fill="#1C1C1C" d="M345.8,117.6c-12.5,0-22.7-10.9-22.7-24.4c0-13.4,10.2-24.4,22.7-24.4c12.5,0,22.7,10.9,22.7,24.4
				C368.4,106.6,358.3,117.6,345.8,117.6z M345.8,78.9c-7,0-12.6,6.4-12.6,14.3c0,7.9,5.7,14.3,12.6,14.3c6.9,0,12.6-6.4,12.6-14.3
				C358.4,85.3,352.7,78.9,345.8,78.9z"/>
		</g>
		<g>
			<path fill="#1C1C1C" d="M366.8,161.6h-42.1c-6.1,0-11.3-4.8-11.7-10.9l-0.9-13.6c-0.6-9,5.5-18.3,14.2-21.5
				c12.6-4.5,26.3-4.5,38.8,0c8.9,3.3,15,12.5,14.4,21.6l-0.9,13.5C378.1,156.8,372.9,161.6,366.8,161.6z M345.8,122.2
				c-5.5,0-10.9,0.9-16,2.8c-4.4,1.6-7.9,6.9-7.6,11.4l0.9,13.6c0.1,0.9,0.8,1.6,1.7,1.6h42.1c0.9,0,1.6-0.7,1.7-1.6l0.9-13.5
				c0.3-4.6-3.1-9.7-7.7-11.4C356.6,123.1,351.2,122.2,345.8,122.2z"/>
		</g>
	</g>
	<g display="inline">
		<path fill="#1C1C1C" d="M436.4,96.1h-37.6c-2.8,0-5-2.3-5-5s2.3-5,5-5h37.6c2.8,0,5,2.3,5,5S439.2,96.1,436.4,96.1z"/>
	</g>
	<g display="inline">
		<path fill="#1C1C1C" d="M436.4,74.3h-37.6c-2.8,0-5-2.3-5-5c0-2.8,2.3-5,5-5h37.6c2.8,0,5,2.3,5,5C441.4,72,439.2,74.3,436.4,74.3
			z"/>
	</g>
	<g display="inline">
		<path fill="#1C1C1C" d="M476.5,9H308.4c-7.3,0-13.2,5.3-13.2,11.8v15.5h10.1V20.7c0-0.6,1.2-1.7,3.1-1.7h168.1
			c2,0,3.1,1.1,3.2,1.1l-11.5,105.7v37.4c4.2-1.9,7.1-5.7,7.1-9.9l14.4-132.6C489.8,14.2,483.8,9,476.5,9z"/>
	</g>
</g>
<g>
	<g>
		<path fill="#FFFFFF" d="M92.4,160.3l-5.9-13.8c-0.7,0.8-1.3,1.6-2,2.4v-7.1l-6.6-15.4V151c-9.3-9.9-16.7-19.9-22.1-30h19.8
			l-2.8-6.6H52.4c-5.7-12.8-8.3-25.8-7.6-38.7c0.4-7.8,2.1-15.1,4.4-21.8h28.6v13.5h1l2.5,1.1l2.2,1c0.3,0.1,0.6,0.3,0.9,0.4v-16
			h26.6c2.3,6.7,3.9,14,4.4,21.8c0.1,2.4,0,4.9-0.1,7.3l6.5,2.8c0.2-3.5,0.3-7,0.1-10.5c-0.4-7.6-1.9-14.8-4-21.4h28.8
			c3.5,8.4,5.5,17.7,5.5,27.3c0,5.7-0.7,11.3-2,16.6l3.5,1.5c2.1,0.9,3.9,2.2,5.3,3.8c2-7,3.1-14.3,3.1-21.9
			C162.3,36.4,125.9,0,81.1,0C36.4,0,0,36.4,0,81.1c0,44.7,36.4,81.1,81.1,81.1c4,0,8-0.4,11.9-1C92.8,160.9,92.6,160.7,92.4,160.3z
			 M143.7,47.2h-28C109.3,31,99.4,18.5,92.2,10.9C114.4,14.4,133.3,28.1,143.7,47.2z M84.4,12.5c6.4,6.3,17,18.4,24.1,34.7H84.4
			V12.5z M77.8,10.6v36.6h-26C59.6,29.1,71.9,16.2,77.8,10.6z M67.8,11.2c-7.2,7.6-16.9,20-23.2,35.9h-26
			C28.6,28.8,46.5,15.3,67.8,11.2z M9.9,81.1c0-9.7,2-18.9,5.5-27.3h26.8c-2.1,6.6-3.6,13.8-4,21.4c-0.8,13.2,1.7,26.2,7,39.2H18.2
			C12.9,104.4,9.9,93.1,9.9,81.1z M22.1,121h26.1c5,10.2,12,20.3,20.8,30.3C49.6,147.9,32.8,136.7,22.1,121z"/>
	</g>
	<path fill="#FFFFFF" d="M78.8,82.4c2.3,1,4.6,2,6.9,3c21.9,9.3,43.9,18.6,65.8,27.9c1.8,0.8,2,2.3,0.6,3.6c-5,4.4-10,8.8-15.1,13.2
		c-0.2,0.2-0.5,0.4-0.7,0.7c0.2,0.2,0.4,0.5,0.6,0.7c9.7,9.7,19.4,19.3,29.2,29c1.5,1.4,1.5,2.2,0,3.7c-2.7,2.7-5.4,5.4-8.1,8.1
		c-0.7,0.7-1.2,1-1.8,1c-0.6,0-1.1-0.3-1.8-1c-9.6-9.6-19.3-19.1-28.9-28.7c-0.2-0.2-0.4-0.4-0.7-0.7c-0.4,0.4-0.8,0.8-1.2,1.3
		c-4.1,4.6-8.2,9.1-12.3,13.7c-0.7,0.7-1.3,1.1-1.9,1.1c-0.7,0-1.4-0.6-1.9-1.8C97.2,133.2,87,109.4,76.8,85.6
		c-0.1-0.3-0.3-0.5-0.4-0.8c0-0.8,0-1.7,0-2.5C77.2,82.4,78,82.4,78.8,82.4"/>
</g>
</svg>
