<?xml version="1.0" encoding="utf-8"?>
<!-- Generator: Adobe Illustrator 18.0.0, SVG Export Plug-In . SVG Version: 6.00 Build 0)  -->
<!DOCTYPE svg PUBLIC "-//W3C//DTD SVG 1.1//EN" "http://www.w3.org/Graphics/SVG/1.1/DTD/svg11.dtd">
<svg version="1.1" id="Layer_1" xmlns="http://www.w3.org/2000/svg" xmlns:xlink="http://www.w3.org/1999/xlink" x="0px" y="0px"
	 viewBox="0 0 33.9 23.9" enable-background="new 0 0 33.9 23.9" xml:space="preserve">
<g>
	<g>
		<path fill="#FFFFFF" d="M33.2,23.9H0.7c-0.3,0-0.5-0.1-0.7-0.4C0,23.3,0,23,0.1,22.8l4.2-7V0.8C4.3,0.3,4.7,0,5.1,0h23.7
			c0.4,0,0.8,0.3,0.8,0.8v15.1l4.2,7c0.1,0.2,0.1,0.5,0,0.8C33.7,23.8,33.4,23.9,33.2,23.9z M2.1,22.4h29.8l-3.7-6
			c-0.1-0.1-0.1-0.3-0.1-0.4V1.5H5.8V16c0,0.1,0,0.3-0.1,0.4L2.1,22.4z"/>
	</g>
	<g>
		<path fill="#FFFFFF" d="M28.8,16.8H5.1c-0.4,0-0.8-0.3-0.8-0.8c0-0.4,0.3-0.7,0.8-0.7h23.7c0.4,0,0.8,0.3,0.8,0.7
			C29.6,16.4,29.2,16.8,28.8,16.8z"/>
	</g>
	<g>
		<path fill="#FFFFFF" d="M27.5,20.3H6.4c-0.4,0-0.8-0.3-0.8-0.8s0.3-0.8,0.8-0.8h21.1c0.4,0,0.8,0.3,0.8,0.8S27.9,20.3,27.5,20.3z"
			/>
	</g>
	<g>
		<path fill="#FFFFFF" d="M10.5,23.9c-0.1,0-0.3,0-0.4-0.1c-0.3-0.2-0.4-0.7-0.2-1l2.5-3.7c0.2-0.3,0.7-0.4,1-0.2
			c0.3,0.2,0.4,0.7,0.2,1l-2.5,3.7C11,23.8,10.7,23.9,10.5,23.9z"/>
	</g>
	<g>
		<path fill="#FFFFFF" d="M23.2,23.9c-0.2,0-0.5-0.1-0.6-0.3L20,20c-0.2-0.3-0.2-0.8,0.2-1c0.3-0.2,0.8-0.2,1,0.2l2.5,3.7
			c0.2,0.3,0.2,0.8-0.2,1C23.5,23.9,23.3,23.9,23.2,23.9z"/>
	</g>
</g>
</svg>
