<?xml version="1.0" encoding="utf-8"?>
<!-- Generator: Adobe Illustrator 18.0.0, SVG Export Plug-In . SVG Version: 6.00 Build 0)  -->
<!DOCTYPE svg PUBLIC "-//W3C//DTD SVG 1.1//EN" "http://www.w3.org/Graphics/SVG/1.1/DTD/svg11.dtd">
<svg version="1.1" id="Layer_1" xmlns="http://www.w3.org/2000/svg" xmlns:xlink="http://www.w3.org/1999/xlink" x="0px" y="0px"
	 viewBox="0 0 80 80" enable-background="new 0 0 80 80" xml:space="preserve">
<g>
	<g>
		<path fill="#AAAD00" d="M78.3,68.2H1.7c-0.7,0-1.2-0.2-1.7-0.9c0-0.5,0-1.2,0.2-1.7l9.9-16.5V13.7c0-1.2,0.9-1.9,1.9-1.9H68
			c0.9,0,1.9,0.7,1.9,1.9v35.6l9.9,16.5c0.2,0.5,0.2,1.2,0,1.9C79.5,68,78.8,68.2,78.3,68.2z M5,64.7h70.3l-8.7-14.2
			c-0.2-0.2-0.2-0.7-0.2-0.9V15.3H13.7v34.2c0,0.2,0,0.7-0.2,0.9L5,64.7z"/>
	</g>
	<g>
		<path fill="#AAAD00" d="M68,51.4H12c-0.9,0-1.9-0.7-1.9-1.9c0-0.9,0.7-1.7,1.9-1.7H68c0.9,0,1.9,0.7,1.9,1.7
			C69.9,50.5,68.9,51.4,68,51.4z"/>
	</g>
	<g>
		<path fill="#AAAD00" d="M64.9,59.7H15.1c-0.9,0-1.9-0.7-1.9-1.9s0.7-1.9,1.9-1.9h49.8c0.9,0,1.9,0.7,1.9,1.9S65.8,59.7,64.9,59.7z
			"/>
	</g>
	<g>
		<path fill="#AAAD00" d="M24.8,68.2c-0.2,0-0.7,0-0.9-0.2c-0.7-0.5-0.9-1.7-0.5-2.4l5.9-8.7c0.5-0.7,1.7-0.9,2.4-0.5
			c0.7,0.5,0.9,1.7,0.5,2.4l-5.9,8.7C26,68,25.3,68.2,24.8,68.2z"/>
	</g>
	<g>
		<path fill="#AAAD00" d="M54.7,68.2c-0.5,0-1.2-0.2-1.4-0.7L47.2,59c-0.5-0.7-0.5-1.9,0.5-2.4c0.7-0.5,1.9-0.5,2.4,0.5l5.9,8.7
			c0.5,0.7,0.5,1.9-0.5,2.4C55.5,68.2,55,68.2,54.7,68.2z"/>
	</g>
</g>
</svg>
