<?xml version="1.0" encoding="utf-8"?>
<!-- Generator: Adobe Illustrator 18.0.0, SVG Export Plug-In . SVG Version: 6.00 Build 0)  -->
<!DOCTYPE svg PUBLIC "-//W3C//DTD SVG 1.1//EN" "http://www.w3.org/Graphics/SVG/1.1/DTD/svg11.dtd">
<svg version="1.1" id="Layer_1" xmlns="http://www.w3.org/2000/svg" xmlns:xlink="http://www.w3.org/1999/xlink" x="0px" y="0px"
	 viewBox="0 0 80 80" enable-background="new 0 0 80 80" xml:space="preserve">
<rect x="-1716.5" y="-78.6" display="none" fill="#010101" width="2307.2" height="533.3"/>
<path display="none" fill="none" stroke="#FFFFFF" stroke-miterlimit="10" d="M-1206.5,213.9h-321.1c-20.7,0-37.6-16.9-37.6-37.6
	l0,0c0-20.7,16.9-37.6,37.6-37.6h321.1c20.7,0,37.6,16.9,37.6,37.6l0,0C-1169,197-1185.9,213.9-1206.5,213.9z"/>
<g display="none">
	
		<text transform="matrix(1 0 0 1 -1477.1465 186.892)" display="inline" fill="#FFFFFF" font-family="'HelveticaNeue-Light'" font-size="25.8076">TEXT IN ALL CAPS</text>
</g>
<g display="none">
	<g display="inline">
		<path fill="#FFFFFF" d="M-1049,243.5c-37,0-67.2-30.2-67.2-67.2s30.2-67.2,67.2-67.2c37,0,67.2,30.2,67.2,67.2
			S-1012,243.5-1049,243.5z M-1049,111.8c-35.6,0-64.5,28.8-64.5,64.5s28.8,64.5,64.5,64.5c35.6,0,64.5-28.8,64.5-64.5
			S-1013.3,111.8-1049,111.8z"/>
	</g>
	<g display="inline">
		
			<rect x="-1050.1" y="142.9" transform="matrix(-0.7071 -0.7071 0.7071 -0.7071 -1914.9183 -440.7427)" fill="#FFFFFF" width="2.7" height="66.7"/>
	</g>
	<g display="inline">
		
			<rect x="-1082.1" y="174.7" transform="matrix(-0.7071 -0.7071 0.7071 -0.7071 -1914.8301 -441.0415)" fill="#FFFFFF" width="66.7" height="2.7"/>
	</g>
</g>
<g display="none">
	
		<text transform="matrix(1 0 0 1 275.8055 -1.1008)" display="inline" fill="#FFFFFF" font-family="'HelveticaNeue-Light'" font-size="25.8076">LAPTOP</text>
	
		<text transform="matrix(1 0 0 1 275.8055 29.9201)" display="inline" fill="#FFFFFF" font-family="'HelveticaNeue-Light'" font-size="25.8076">SMARTPHONE</text>
	
		<text transform="matrix(1 0 0 1 275.8055 60.94)" display="inline" fill="#FFFFFF" font-family="'HelveticaNeue-Light'" font-size="25.8076">TABLET</text>
	
		<text transform="matrix(1 0 0 1 275.8055 91.6889)" display="inline" fill="#FFFFFF" font-family="'HelveticaNeue-Light'" font-size="25.8076">HARD DRIVE</text>
	
		<text transform="matrix(1 0 0 1 275.8055 122.7088)" display="inline" fill="#FFFFFF" font-family="'HelveticaNeue-Light'" font-size="25.8076">CLOUD STORAGE</text>
	
		<text transform="matrix(1 0 0 1 275.8055 153.7297)" display="inline" fill="#FFFFFF" font-family="'HelveticaNeue-Light'" font-size="25.8076">DSLR</text>
	
		<text transform="matrix(1 0 0 1 275.8055 184.7496)" display="inline" fill="#FFFFFF" font-family="'HelveticaNeue-Light'" font-size="25.8076">GAME CONTROLLER</text>
	
		<text transform="matrix(1 0 0 1 275.8055 215.7695)" display="inline" fill="#FFFFFF" font-family="'HelveticaNeue-Light'" font-size="25.8076">WACOM PEN</text>
	
		<text transform="matrix(1 0 0 1 275.8055 246.5184)" display="inline" fill="#FFFFFF" font-family="'HelveticaNeue-Light'" font-size="25.8076">HEADPHONES</text>
	
		<text transform="matrix(1 0 0 1 275.8055 277.5393)" display="inline" fill="#FFFFFF" font-family="'HelveticaNeue-Light'" font-size="25.8076">MIC</text>
</g>
<g display="none">
	<path display="inline" fill="#FFFFFF" d="M-1453.9,51.7h-74.3c-4.1,0-7.6-3.3-7.6-7.6V5.7c0-4.1,3.3-7.6,7.6-7.6h74.3
		c4.1,0,7.6,3.3,7.6,7.6v38.6C-1446.3,48.4-1449.8,51.7-1453.9,51.7z M-1528.2,2.4c-1.9,0-3.3,1.6-3.3,3.3v38.6
		c0,1.9,1.6,3.3,3.3,3.3h74.3c1.9,0,3.3-1.6,3.3-3.3V5.7c0-1.9-1.6-3.3-3.3-3.3C-1453.9,2.4-1528.2,2.4-1528.2,2.4z"/>
</g>
<g display="none">
	<path display="inline" fill="#FFFFFF" d="M-1448.4,43.3h-85.2c-1.1,0-2.2-0.8-2.2-2.2c0-1.4,0.8-2.2,2.2-2.2h85.2
		c1.1,0,2.2,0.8,2.2,2.2C-1446.3,42.4-1447.3,43.3-1448.4,43.3z"/>
</g>
<g display="none">
	<path display="inline" fill="#FFFFFF" d="M-1480.3,60.4h-21.8c-1.1,0-2.2-0.8-2.2-2.2v-6c0-1.1,0.8-2.2,2.2-2.2
		c1.4,0,2.2,0.8,2.2,2.2v4.1h17.7v-4.1c0-1.1,0.8-2.2,2.2-2.2s2.2,0.8,2.2,2.2v6C-1478.1,59.6-1478.9,60.4-1480.3,60.4z"/>
</g>
<g display="none">
	<path display="inline" fill="#FFFFFF" d="M-1472.9,66.9h-36.2c-0.8,0-1.4-0.5-1.4-1.4V65c0-0.8,0.5-1.4,1.4-1.4h36.2
		c0.8,0,1.4,0.5,1.4,1.4v0.5C-1471.6,66.4-1472.1,66.9-1472.9,66.9z"/>
</g>
<g display="none">
	<path display="inline" fill="#FFFFFF" d="M-490.9,60.4h-52c-10.1,0-18.5-8.7-18.5-18.8c0-7.3,4.4-14.1,10.9-17.1
		c0.3-7.1,6-12.5,13.1-12.5c2.2,0,4.4,0.5,6.3,1.6c4.1-7.6,12.2-12.5,21-12.5c10.6,0,19.6,6.8,22.9,16.9
		c9.8,1.6,17.4,10.9,17.4,21.2C-469.7,50.6-479.5,60.4-490.9,60.4z M-537.1,15.8c-4.9,0-9,4.1-9,9V25l0.3,1.9l-1.6,0.5
		c-5.7,1.9-9.5,7.6-9.5,13.9c0,7.9,6.5,14.7,14.4,14.7h52c9.3,0,17.1-7.9,17.1-17.4c0-8.7-6.8-16.3-15.2-17.4l-1.4-0.3l-0.3-1.4
		c-2.2-9-10.1-15-19-15c-8.2,0-15.2,4.9-18.2,12.2l-1.1,2.7l-2.2-1.9C-533.1,16.6-535.2,15.8-537.1,15.8z"/>
</g>
<g display="none">
	<g display="inline">
		<path fill="#FFFFFF" d="M-869.9,62.3h-69.4c-3.5,0-4.1-1.9-4.1-3.3V13.3l2.2-0.3c8.2,0,13.3-3,16.6-4.9c1.9-1.1,3.5-1.9,4.9-1.9
			h0.5l0.8-4.9c0.3-2.2,2.4-3.8,4.6-3.8h22.6c2.2,0,4.1,1.6,4.6,3.5l1.1,5.2h15.8c2.4,0,4.1,3,4.1,5.2V59
			C-865.9,60.4-866.7,62.3-869.9,62.3z M-939.3,58.2L-939.3,58.2h69.4l0,0V11.4c0-0.3-0.3-0.8-0.5-1.1h-18.8l-1.6-8.2
			c0-0.3-0.5-0.5-0.8-0.5h-22.6c-0.3,0-0.5,0.3-0.5,0.5l-1.4,8.2h-3.8c-0.5,0-1.9,0.8-3,1.4c-3.3,1.9-8.4,4.9-16.6,5.4v41.1H-939.3z
			"/>
	</g>
	<g display="inline">
		<rect x="-943.7" y="6.3" fill="#FFFFFF" width="8.7" height="4.1"/>
	</g>
	<g display="inline">
		<path fill="#FFFFFF" d="M-902.6,53.6c-10.6,0-19.3-8.7-19.3-19.3s8.7-19.3,19.3-19.3c10.6,0,19.3,8.7,19.3,19.3
			S-891.7,53.6-902.6,53.6z M-902.6,19c-8.4,0-15.2,6.8-15.2,15.2s6.8,15.2,15.2,15.2c8.4,0,15.2-6.8,15.2-15.2S-894.1,19-902.6,19z
			"/>
	</g>
</g>
<g display="none">
	<path display="inline" fill="#FFFFFF" d="M-613.9,63.1h-55.8V8.7h40.8c1.1,0,2.2,0.8,2.2,2.2s-0.8,2.2-2.2,2.2h-36.7v46.3h47.6v-37
		c0-1.1,0.8-2.2,2.2-2.2s2.2,0.8,2.2,2.2v40.8H-613.9z"/>
</g>
<g display="none">
	<path display="inline" fill="#FFFFFF" d="M-645.7,43.3c-0.5,0-1.1-0.3-1.4-0.5c-0.8-0.8-0.8-2.2,0-3l41.9-41.9
		c0.5-0.5,1.4-0.8,2.2-0.5c0.8,0.3,1.4,1.1,1.4,1.9v21c0,1.1-0.8,2.2-2.2,2.2s-2.2-0.8-2.2-2.2V4.1l-38.4,38.4
		C-644.9,43-645.2,43.3-645.7,43.3z"/>
</g>
<g display="none">
	<path display="inline" fill="#FFFFFF" d="M-603.8,1.1h-22.9c-1.1,0-2.2-0.8-2.2-2.2s0.8-2.2,2.2-2.2h22.9c1.1,0,2.2,0.8,2.2,2.2
		S-602.7,1.1-603.8,1.1z"/>
</g>
<g display="none">
	<path display="inline" fill="#FFFFFF" d="M-734.1,61.8h-66.1c-4.9,0-8.4-3-8.4-7.3V32.9c0-0.5,0-1.1,0.3-1.6l9.5-20.4
		c0.3-0.8,0.5-1.1,0.8-1.4c1.1-1.9,3-5.4,7.1-5.4h47.3c4.4,0,6.3,3.5,7.3,5.4c0.3,0.5,0.5,0.8,0.5,1.1l9.5,21
		c0.3,0.5,0.3,1.1,0.3,1.6v21.2C-725.7,58.8-729,61.8-734.1,61.8z M-790.7,8.2c-1.6,0-2.4,1.4-3.5,3.3c-0.3,0.5-0.5,0.8-0.8,1.4
		l-9.3,20.4v21.2c0,3,3,3.3,4.4,3.3h66.1c1.4,0,4.4-0.3,4.4-3.3V32.9l-9.5-20.4c0,0-0.3-0.5-0.5-0.8c-1.4-2.2-2.2-3.5-3.8-3.5
		C-743.4,8.2-790.7,8.2-790.7,8.2z"/>
</g>
<g display="none">
	<rect x="-806.5" y="31" display="inline" fill="#FFFFFF" width="78.9" height="4.1"/>
</g>
<g display="none">
	<path display="inline" fill="#FFFFFF" d="M-795.6,51.4c-1.1,0-2.2-0.8-2.2-2.2v-5.7c0-1.1,0.8-1.9,2.2-1.9c1.4,0,2.2,0.8,2.2,1.9
		v5.7C-793.5,50.6-794.6,51.4-795.6,51.4z"/>
</g>
<g display="none">
	<path display="inline" fill="#FFFFFF" d="M-786.7,51.4c-1.1,0-2.2-0.8-2.2-2.2v-5.7c0-1.1,0.8-1.9,2.2-1.9c1.4,0,2.2,0.8,2.2,1.9
		v5.7C-784.8,50.6-785.6,51.4-786.7,51.4z"/>
</g>
<g display="none">
	<path display="inline" fill="#FFFFFF" d="M-1023.4,64.5h-83.8c-5.2,0-9.5-4.4-9.5-9.5V13.3c0-5.2,4.4-9.5,9.5-9.5h83.8
		c5.2,0,9.5,4.4,9.5,9.5V55C-1013.9,60.4-1018,64.5-1023.4,64.5z M-1107.2,7.9c-3,0-5.4,2.4-5.4,5.4V55c0,3,2.4,5.4,5.4,5.4h83.8
		c3,0,5.4-2.4,5.4-5.4V13.3c0-3-2.4-5.4-5.4-5.4H-1107.2z"/>
</g>
<g display="none">
	<rect x="-1028" y="6" display="inline" fill="#FFFFFF" width="4.1" height="56.6"/>
</g>
<g display="none">
	<rect x="-1106.7" y="6" display="inline" fill="#FFFFFF" width="4.1" height="56.6"/>
</g>
<g display="none">
	<path display="inline" fill="#FFFFFF" d="M-1183.4,66.7h-28.6c-4.1,0-7.3-3.3-7.3-7.3V1.6c0-4.1,3.3-7.3,7.3-7.3h28.6
		c4.1,0,7.3,3.3,7.3,7.3v57.7C-1176.3,63.4-1179.6,66.7-1183.4,66.7z M-1212.2-1.6c-1.6,0-3.3,1.4-3.3,3.3v57.7
		c0,1.6,1.4,3.3,3.3,3.3h28.6c1.6,0,3.3-1.4,3.3-3.3V1.6c0-1.6-1.4-3.3-3.3-3.3H-1212.2z"/>
</g>
<g display="none">
	<rect x="-1217.4" y="56.1" display="inline" fill="#FFFFFF" width="39.2" height="2.7"/>
</g>
<g display="none">
	<rect x="-1217.4" y="1.9" display="inline" fill="#FFFFFF" width="39.2" height="2.7"/>
</g>
<g display="none">
	<path display="inline" fill="#FFFFFF" d="M-413.6,68.3c-3.3,0-8.7-1.4-10.3-10.6c-0.3-0.8-4.9-23.7,7.6-44.6
		c4.9-8.2,10.9-12.2,18.5-12.2c7.9,0,14.4,4.6,15,5.2c0.8,0.5,2.7,1.4,3.5,1.4h4.9c1.1,0,2.7-0.5,3.5-1.4l0,0c0,0,6.8-5.4,15.2-5.4
		c7.6,0,13.9,4.1,18.5,12.2c12.2,21,7.6,43.8,7.6,44.9c-1.4,9-7.1,10.3-10.1,10.3c-0.3,0-0.8,0-1.1,0c-1.4,0-5.7-0.5-18.2-17.7
		l-0.3-0.5c-0.5-0.8-1.9-1.4-3-1.4h-29.7c-0.8,0-2.2,0.8-3,1.4l-0.3,0.5c-12.2,17.1-16.3,17.4-18,17.7
		C-413.1,68-413.3,68.3-413.6,68.3z M-397.8,4.9c-6,0-11.2,3.5-15,10.1c-11.7,19.6-7.3,41.1-7.1,41.9c0.8,5.2,3,7.3,6.8,7.1
		c0.5,0,4.4-1.1,15-15.8c0.3-0.3,0.5-0.5,0.5-0.5c1.4-1.6,3.8-3,6-3h29.7c2.2,0,4.6,1.4,6,3c0,0,0.3,0.3,0.5,0.5
		c11.2,15.2,15,16.1,15.2,16.1c3.8,0.3,6-1.9,6.8-7.1c0.3-1.1,4.6-22.3-7.1-41.9c-4.1-6.8-9-10.1-15-10.1c-6.8,0-12.5,4.4-12.5,4.4
		c-1.6,1.1-4.4,2.2-6.3,2.2h-4.9c-1.9,0-4.6-0.8-6.3-2.2C-385.3,9.3-391,4.9-397.8,4.9z"/>
</g>
<g display="none">
	<path display="inline" fill="#FFFFFF" d="M-360.3,37.8c-2.7,0-4.9-2.2-4.9-4.9s2.2-4.9,4.9-4.9c2.7,0,4.9,2.2,4.9,4.9
		C-355.6,35.6-357.8,37.8-360.3,37.8z M-360.3,30.2c-1.6,0-2.7,1.4-2.7,2.7c0,1.4,1.4,2.7,2.7,2.7c1.6,0,2.7-1.4,2.7-2.7
		C-357.6,31.6-358.9,30.2-360.3,30.2z"/>
</g>
<g display="none">
	<path display="inline" fill="#FFFFFF" d="M-360.3,26.4c-2.7,0-4.9-2.2-4.9-4.9s2.2-4.9,4.9-4.9c2.7,0,4.9,2.2,4.9,4.9
		C-355.6,23.9-357.8,26.4-360.3,26.4z M-360.3,18.5c-1.6,0-2.7,1.4-2.7,2.7s1.4,2.7,2.7,2.7c1.6,0,2.7-1.4,2.7-2.7
		S-358.9,18.5-360.3,18.5z"/>
</g>
<g display="none">
	<path display="inline" fill="#FFFFFF" d="M-348.8,32.1c-2.7,0-4.9-2.2-4.9-4.9s2.2-4.9,4.9-4.9c2.7,0,4.9,2.2,4.9,4.9
		S-346.1,32.1-348.8,32.1z M-348.8,24.2c-1.6,0-2.7,1.4-2.7,2.7s1.4,2.7,2.7,2.7c1.4,0,2.7-1.4,2.7-2.7S-347.2,24.2-348.8,24.2z"/>
</g>
<g display="none">
	<path display="inline" fill="#FFFFFF" d="M-398.4,36.2c-0.5,0-1.1-0.5-1.1-1.1V19.3c0-0.5,0.5-1.1,1.1-1.1c0.5,0,1.1,0.5,1.1,1.1
		v15.8C-397.6,35.6-397.8,36.2-398.4,36.2z"/>
</g>
<g display="none">
	<path display="inline" fill="#FFFFFF" d="M-390.5,28.3h-15.8c-0.5,0-1.1-0.5-1.1-1.1s0.5-1.1,1.1-1.1h15.8c0.5,0,1.1,0.5,1.1,1.1
		S-389.9,28.3-390.5,28.3z"/>
</g>
<g display="none">
	<path display="inline" fill="#FFFFFF" d="M-183.7,12.5h-0.8l-0.8-0.5l-6.5-6.3V3.8l0.5-0.8c0,0,1.1-1.1,2.2-2.2
		c1.9-1.9,5.2-1.9,7.1,0l1.6,1.6c1.1,0.8,1.6,2.2,1.6,3.5s-0.5,2.4-1.4,3.5l-2.2,2.2C-182.6,12.5-183.1,12.5-183.7,12.5z
		 M-186.9,4.9l2.2,2.2c0.3,0.3,0.5,0.5,0.8,0.8l0.8-0.8c0.5-0.3,0.5-0.5,0.5-0.8s0-0.5-0.3-0.5l-1.6-1.6c-0.5-0.5-0.8-0.5-1.4,0
		L-186.9,4.9z"/>
</g>
<g display="none">
	<path display="inline" fill="#FFFFFF" d="M-204.9,34.8l-9-8.7l24.2-23.9l9,8.7L-204.9,34.8z M-208.2,26.1l3,3l18.5-18.2l-3-3
		L-208.2,26.1z"/>
</g>
<g display="none">
	<path display="inline" fill="#FFFFFF" d="M-215.2,38.1c-0.5,0-1.1-0.3-1.4-0.5c-0.5-0.5-0.8-1.4-0.5-2.2l4.4-10.1l3.8,1.6l-2.4,5.4
		l5.7-2.4l1.6,3.8l-10.3,4.4C-215,38.1-215,38.1-215.2,38.1z"/>
</g>
<g display="none">
	<path display="inline" fill="#FFFFFF" d="M-190.7,65.6h-84.9c-4.1,0-7.6-3.3-7.6-7.6V11.7c0-4.1,3.3-7.6,7.6-7.6h84.9
		c4.1,0,7.6,3.3,7.6,7.6v46.5C-183.1,62.3-186.4,65.6-190.7,65.6z M-275.6,8.2c-1.9,0-3.3,1.6-3.3,3.5v46.5c0,1.9,1.6,3.3,3.3,3.3
		h84.9c1.9,0,3.3-1.6,3.3-3.3V11.7c0-1.9-1.6-3.5-3.3-3.5C-190.7,8.2-275.6,8.2-275.6,8.2z"/>
</g>
<g display="none">
	<rect x="-266.7" y="6.3" display="inline" fill="#FFFFFF" width="4.1" height="57.4"/>
</g>
<g display="none">
	<path display="inline" fill="#FFFFFF" d="M-58.5,78.9c-0.5,0-1.1,0-1.6,0c-2.4-0.3-4.4-2.2-4.4-4.6c0-0.8,0-1.9,0.3-2.7l2.2-29.7
		c0-0.8,0-1.9,0.3-2.7c0.3-2.7,2.4-4.9,5.4-4.6c0.3,0,0.5,0,0.5,0l0,0c0.3-2.4,0.5-4.6,0.3-7.1c-0.3-3-1.1-5.7-2.7-7.9
		c-1.1-0.3-2.2-0.8-3-1.6c-2.2-1.9-4.9-3.3-8.4-4.1c-2.7-0.5-6-0.8-9-0.8c-2.4,0-4.6,0.3-6.8,0.8c-2.7,0.8-4.9,1.9-6.8,3.3
		c-0.3,0.3-0.5,0.5-0.8,0.5c-0.8,0.8-1.9,1.4-3,1.6c-1.4,2.2-2.2,4.6-2.4,7.3c-0.3,2.4-0.3,4.9,0,7.6c0.3,0,0.8,0,1.1,0l0,0
		c2.7,0,4.6,1.9,4.9,4.6l2.4,35.1c0,1.4-0.3,2.7-1.1,3.5c-0.8,0.8-2.2,1.6-3.5,1.6c-5.4,0.3-10.3-1.1-14.7-4.4
		c-4.4-3.3-7.3-7.6-8.4-12.8c-1.6-7.9,0.3-15,6-20.7c1.4-1.4,2.7-2.4,4.4-3.5c-0.5-3-0.8-6.3-0.8-9.3c0.3-5.4,1.6-9.8,4.4-13.9
		c-0.5-2.2,0.3-4.4,1.9-6c2.7-2.7,6.3-4.6,10.1-6c2.7-1.1,5.4-1.6,8.2-1.9c1.1,0,1.9-0.3,3-0.3l1.9-0.3h4.9c4.4,0.3,8.4,1.1,12,2.4
		c3.5,1.4,6.8,3.3,9.5,6c1.6,1.6,2.2,3.5,1.9,5.7c1.6,2.7,3,5.4,3.5,8.7c0.5,2.7,0.8,6,0.8,9c0,1.9-0.3,3.5-0.8,5.4
		c1.9,1.1,3.5,2.4,5.2,4.4c2.7,3,4.6,6.5,5.2,10.6c2.2,10.6-3.8,21-13.6,25C-52.8,78.4-55.5,78.9-58.5,78.9z M-57.1,38.4
		c-0.5,0-0.8,0.3-0.8,0.8c0,0.8,0,1.9-0.3,2.7l-1.9,29.9c0,0.8,0,1.6-0.3,2.7c0,0.3,0.3,0.5,0.5,0.5c2.7,0.3,5.4-0.3,7.9-1.4
		c8.2-3.3,12.8-12,11.2-20.4c-0.5-3.3-2.2-6.3-4.4-8.7c-1.4-1.6-3.3-3-5.2-4.1c-1.4-0.5-1.4-1.9-1.4-2.7c0.5-1.9,0.8-3.8,0.8-6
		c0.3-2.7,0-5.4-0.5-7.9c-0.5-3-1.9-5.7-3.3-7.9c0-0.5-0.3-1.4,0-2.2c0.3-1.1,0-1.6-0.5-2.4c-2.2-2.2-4.9-3.8-8.2-4.9
		c-3.3-1.4-6.8-1.9-10.9-2.2h-1.6l-4.4,0.3c-1.1,0-1.9,0.3-3,0.3c-2.4,0.3-4.9,0.8-7.3,1.6c-3.5,1.4-6.3,3-8.7,5.2
		c-0.8,0.8-1.1,1.4-0.8,2.4c0.3,0.8,0,1.6-0.5,2.4c-2.4,3.5-3.5,7.6-3.8,12.2c-0.3,3,0,6.3,0.8,9.3c0.3,1.1-0.3,2.2-1.4,2.7
		c-1.6,0.8-3.3,1.9-4.4,3.3c-4.6,4.9-6.3,10.6-4.9,17.1c0.8,4.4,3.3,7.9,6.8,10.6c3.5,2.7,7.6,3.8,12,3.5c0.3,0,0.5,0,0.5-0.3
		s0.3-0.3,0.3-0.5l-2.4-34.8c0-0.8-0.5-0.8-0.5-0.8c-0.3,0-0.8,0-1.1,0h-0.5c-0.3,0-0.5,0-0.8,0l-2.2,0.3l-0.5-2.2
		c-0.8-3.8-0.8-7.3-0.5-10.6c0.5-3.8,1.6-6.8,3.5-9.5c0.5-0.5,1.1-1.1,1.9-1.1c0.5,0,1.1-0.3,1.4-0.5c0.3-0.3,0.5-0.5,0.8-0.8
		c2.2-1.9,4.9-3.3,8.4-4.1c2.4-0.5,4.9-1.1,7.6-1.1c3.5-0.3,7.1,0,10.1,0.8c4.4,1.1,7.6,2.7,10.3,5.2c0.3,0.3,0.8,0.5,1.4,0.5
		c0.8,0,1.4,0.5,1.9,1.1c1.9,3,3.3,6.3,3.5,10.3c0.3,2.7,0.3,5.4-0.3,8.2c0,0.5-0.3,1.1-0.3,1.4l-0.5,2.4l-2.7-0.3
		C-55.8,38.6-56.6,38.6-57.1,38.4L-57.1,38.4z"/>
</g>
<g>
	<g>
		<path fill="#AAAD00" d="M40.5,57.4h-1.4c-8.7,0-15.8-7.1-15.8-15.8V15.8C23.7,7.1,30.7,0,39.2,0h1.4c8.7,0,15.8,7.1,15.8,15.8
			v25.9C56.3,50.3,49.3,57.4,40.5,57.4z M39.2,4.1c-6.5,0-11.7,5.2-11.7,11.7v25.9c0,6.5,5.2,11.7,11.7,11.7h1.4
			c6.5,0,11.7-5.2,11.7-11.7V15.8c0-6.5-5.2-11.7-11.7-11.7H39.2z"/>
	</g>
	<g>
		<path fill="#AAAD00" d="M58.2,80H41.6V60.1l1.9-0.3c4.9-0.3,8.7-2.2,11.4-5.4c5.7-7.1,4.9-18.2,4.9-18.2c0-1.1,0.8-2.2,1.9-2.2
			c1.1,0,2.2,0.8,2.2,1.9c0,0.5,1.1,13.1-5.7,21.2c-3,3.8-7.3,6-12.2,6.8v12h12.5c1.1,0,2.2,0.8,2.2,2.2S59.3,80,58.2,80z"/>
	</g>
	<g>
		<path fill="#AAAD00" d="M38.4,80H21.8c-1.1,0-1.9-0.8-1.9-2.2s0.8-2.2,1.9-2.2h12.5v-12c-5.2-0.8-9.3-3-12.2-6.8
			c-7.1-7.9-6-20.4-6-21c0-1.1,1.1-1.9,2.2-1.9c1.1,0,1.9,1.1,1.9,2.2c0,0-1.1,11.4,4.9,18.2c2.7,3.3,6.5,5.2,11.4,5.4l1.9,0.3V80z"
			/>
	</g>
	<g>
		<path fill="#AAAD00" d="M26.4,18.5h7.3c1.4,0,2.4-0.8,2.4-1.6l0,0c0-0.8-1.1-1.6-2.4-1.6h-7.3V18.5z"/>
	</g>
	<g>
		<path fill="#AAAD00" d="M26.4,26.9h7.3c1.4,0,2.4-0.8,2.4-1.6l0,0c0-0.8-1.1-1.6-2.4-1.6h-7.3V26.9z"/>
	</g>
	<g>
		<path fill="#AAAD00" d="M26.4,34.3h7.3c1.4,0,2.4-0.8,2.4-1.6l0,0c0-0.8-1.1-1.6-2.4-1.6h-7.3V34.3z"/>
	</g>
	<g>
		<path fill="#AAAD00" d="M26.4,41.4h7.3c1.4,0,2.4-0.8,2.4-1.6l0,0c0-0.8-1.1-1.6-2.4-1.6h-7.3V41.4z"/>
	</g>
</g>
<g display="none">
	<g display="inline">
		<path fill="#FFFFFF" d="M-1293.3,63.7h-88.2c-0.8,0-1.4-0.3-1.9-1.1c-0.3-0.5-0.3-1.4,0-2.2l11.4-19V0.5c0-1.1,0.8-2.2,2.2-2.2
			h64.5c1.1,0,2.2,0.8,2.2,2.2v41.1l11.4,19c0.3,0.5,0.3,1.4,0,2.2C-1292,63.1-1292.8,63.7-1293.3,63.7z M-1378,59.6h81.1
			l-10.1-16.3c-0.3-0.3-0.3-0.8-0.3-1.1V2.4h-60.4v39.5c0,0.3,0,0.8-0.3,1.1L-1378,59.6z"/>
	</g>
	<g display="inline">
		<path fill="#FFFFFF" d="M-1305.3,44.1h-64.5c-1.1,0-2.2-0.8-2.2-1.9c0-1.1,0.8-2.2,2.2-2.2h64.5c1.1,0,2.2,0.8,2.2,2.2
			S-1304.2,44.1-1305.3,44.1z"/>
	</g>
	<g display="inline">
		<path fill="#FFFFFF" d="M-1308.8,53.6h-57.4c-1.1,0-2.2-0.8-2.2-2.2c0-1.4,0.8-2.2,2.2-2.2h57.4c1.1,0,2.2,0.8,2.2,2.2
			C-1306.7,52.8-1307.8,53.6-1308.8,53.6z"/>
	</g>
	<g display="inline">
		<path fill="#FFFFFF" d="M-1355.1,63.7c-0.3,0-0.8,0-1.1-0.3c-0.8-0.5-1.1-1.9-0.5-2.7l6.8-10.1c0.5-0.8,1.9-1.1,2.7-0.5
			c0.8,0.5,1.1,1.9,0.5,2.7l-6.8,10.1C-1353.7,63.1-1354.6,63.7-1355.1,63.7z"/>
	</g>
	<g display="inline">
		<path fill="#FFFFFF" d="M-1320.8,63.7c-0.5,0-1.4-0.3-1.6-0.8l-6.8-10.1c-0.5-0.8-0.5-2.2,0.5-2.7c0.8-0.5,2.2-0.5,2.7,0.5
			l6.8,10.1c0.5,0.8,0.5,2.2-0.5,2.7C-1320,63.4-1320.3,63.7-1320.8,63.7z"/>
	</g>
</g>
<g display="none">
	<circle display="inline" fill="#FFFFFF" cx="-1197.8" cy="60.7" r="1.9"/>
</g>
<path display="none" fill="none" stroke="#FFFFFF" stroke-width="1.5" stroke-miterlimit="10" d="M-1453.9,341h-74.3
	c-3,0-5.4-2.4-5.4-5.4v-38.6c0-3,2.4-5.4,5.4-5.4h74.3c3,0,5.4,2.4,5.4,5.4v38.6C-1448.4,338.5-1450.9,341-1453.9,341z"/>
<line display="none" fill="none" stroke="#FFFFFF" stroke-width="1.5" stroke-linecap="round" stroke-linejoin="round" stroke-miterlimit="10" x1="-1533.6" y1="332.5" x2="-1448.4" y2="332.5"/>
<polyline display="none" fill="none" stroke="#FFFFFF" stroke-width="1.5" stroke-linecap="round" stroke-linejoin="round" stroke-miterlimit="10" points="
	-1502,343.7 -1502,349.7 -1480.3,349.7 -1480.3,343.7 "/>
<path display="none" fill="#FFFFFF" d="M-1472.9,358.1h-36.2c-0.8,0-1.4-0.5-1.4-1.4v-0.5c0-0.8,0.5-1.4,1.4-1.4h36.2
	c0.8,0,1.4,0.5,1.4,1.4v0.5C-1471.6,357.6-1472.1,358.1-1472.9,358.1z"/>
<path display="none" fill="none" stroke="#FFFFFF" stroke-width="1.5" stroke-miterlimit="10" d="M-489,310.7
	c-2.4-9.5-10.9-16.6-21.2-16.6c-9.3,0-16.9,5.7-20.1,13.6c-1.9-1.6-4.4-2.7-7.1-2.7c-6,0-10.9,4.9-10.9,10.9c0,0.3,0,0.5,0,1.1
	c-6.5,2.2-10.9,8.7-10.9,15.8c0,9,7.3,16.9,16.3,16.9h52c10.6,0,19-9,19-19.6C-471.8,320.3-479.2,311.8-489,310.7z"/>
<g display="none">
	<path display="inline" fill="none" stroke="#FFFFFF" stroke-width="1.5" stroke-miterlimit="10" d="M-869.9,299.3h-17.4l-1.4-6.5
		c-0.3-1.1-1.6-2.2-2.7-2.2H-914c-1.1,0-2.4,1.1-2.4,2.2l-1.1,6.5h-2.2c-3,0-8.7,7.1-21.8,7.1v0.3c0,0,0,1.1,0,2.4v41.1
		c0,1.1,1.1,1.4,2.2,1.4h69.4c1.1,0,2.2,0,2.2-1.4v-47.6C-867.8,301.2-868.8,299.3-869.9,299.3z"/>
	
		<line display="inline" fill="none" stroke="#FFFFFF" stroke-width="1.5" stroke-miterlimit="10" x1="-943.7" y1="299.3" x2="-935" y2="299.3"/>
	
		<circle display="inline" fill="none" stroke="#FFFFFF" stroke-width="1.5" stroke-miterlimit="10" cx="-902.6" cy="325.4" r="17.4"/>
</g>
<polyline display="none" fill="none" stroke="#FFFFFF" stroke-width="1.5" stroke-linecap="round" stroke-miterlimit="10" points="
	-616.1,313.5 -616.1,352.4 -667.5,352.4 -667.5,302 -628.6,302 "/>
<polyline display="none" fill="none" stroke="#FFFFFF" stroke-width="1.5" stroke-linecap="round" stroke-linejoin="round" stroke-miterlimit="10" points="
	-645.7,332.2 -603.8,290.3 -603.8,311.3 "/>
<line display="none" fill="none" stroke="#FFFFFF" stroke-width="1.5" stroke-linecap="round" stroke-linejoin="round" stroke-miterlimit="10" x1="-603.8" y1="290.3" x2="-626.7" y2="290.3"/>
<path display="none" fill="none" stroke="#FFFFFF" stroke-width="1.5" stroke-miterlimit="10" d="M-734.1,351h-66.1
	c-3.8,0-6.3-2.2-6.3-5.2v-21.5c0-0.3,0-0.5,0.3-0.5l9.5-20.4c0.3-0.5,0.5-0.8,0.8-1.4c1.1-1.9,2.4-4.4,5.4-4.4h47.3
	c3,0,4.4,2.4,5.4,4.4c0.3,0.3,0.3,0.8,0.5,1.1l9.5,20.7c0,0.3,0.3,0.5,0.3,0.5v21.5C-727.6,348.8-730.1,351-734.1,351z"/>
<line display="none" fill="none" stroke="#FFFFFF" stroke-width="1.5" stroke-miterlimit="10" x1="-806.5" y1="324.1" x2="-727.6" y2="324.1"/>
<line display="none" fill="none" stroke="#FFFFFF" stroke-width="1.5" stroke-linecap="round" stroke-miterlimit="10" x1="-795.6" y1="335" x2="-795.6" y2="340.7"/>
<line display="none" fill="none" stroke="#FFFFFF" stroke-width="1.5" stroke-linecap="round" stroke-miterlimit="10" x1="-786.7" y1="335" x2="-786.7" y2="340.7"/>
<path display="none" fill="none" stroke="#FFFFFF" stroke-width="1.5" stroke-miterlimit="10" d="M-1015.8,304.8v41.6
	c0,4.1-3.3,7.6-7.6,7.6h-83.8c-4.1,0-7.6-3.3-7.6-7.6v-41.6c0-4.1,3.3-7.6,7.6-7.6h83.8C-1019.3,297.1-1015.8,300.4-1015.8,304.8z"
	/>
<line display="none" fill="none" stroke="#FFFFFF" stroke-width="1.5" stroke-miterlimit="10" x1="-1026.1" y1="297.1" x2="-1026.1" y2="353.7"/>
<line display="none" fill="none" stroke="#FFFFFF" stroke-width="1.5" stroke-miterlimit="10" x1="-1104.8" y1="297.1" x2="-1104.8" y2="353.7"/>
<path display="none" fill="none" stroke="#FFFFFF" stroke-width="1.5" stroke-miterlimit="10" d="M-1183.4,355.9h-28.6
	c-3,0-5.2-2.4-5.2-5.2v-57.7c0-3,2.4-5.2,5.2-5.2h28.6c3,0,5.2,2.4,5.2,5.2v57.7C-1178.2,353.5-1180.7,355.9-1183.4,355.9z"/>
<line display="none" fill="none" stroke="#FFFFFF" stroke-miterlimit="10" x1="-1178.2" y1="348.8" x2="-1217.4" y2="348.8"/>
<line display="none" fill="none" stroke="#FFFFFF" stroke-miterlimit="10" x1="-1178.2" y1="294.4" x2="-1217.4" y2="294.4"/>
<path display="none" fill="none" stroke="#FFFFFF" stroke-width="1.5" stroke-miterlimit="10" d="M-338.5,305.3
	c-4.4-7.3-10.1-11.2-16.9-11.2c-7.6,0-13.9,4.9-13.9,4.9c-1.1,0.8-3.5,1.6-4.9,1.6h-4.9c-1.4,0-3.8-0.8-4.9-1.6
	c-0.3-0.3-6.3-4.9-13.9-4.9c-6.8,0-12.5,3.8-16.9,11.2c-12,20.4-7.3,42.4-7.3,43.3c1.1,7.3,5.2,8.7,8.2,8.7c0.3,0,0.5,0,0.8,0
	c5.2-0.5,16.3-16.6,16.9-17.1c1.1-1.1,3-2.2,4.4-2.2h29.7c1.4,0,3.5,1.1,4.4,2.2c0.5,0.5,12,16.9,17.1,17.4c0.3,0,0.5,0,0.8,0
	c3,0,7.1-1.6,8.2-8.7C-331.2,348.3-326.5,325.7-338.5,305.3z"/>
<path display="none" fill="none" stroke="#FFFFFF" stroke-width="0.75" stroke-linecap="round" stroke-linejoin="round" stroke-miterlimit="10" d="
	M-360.3,327.9c-2.2,0-3.8-1.6-3.8-3.8s1.6-3.8,3.8-3.8c2.2,0,3.8,1.6,3.8,3.8C-356.5,326.3-358.4,327.9-360.3,327.9z"/>
<path display="none" fill="none" stroke="#FFFFFF" stroke-width="0.75" stroke-linecap="round" stroke-linejoin="round" stroke-miterlimit="10" d="
	M-360.3,316.5c-2.2,0-3.8-1.6-3.8-3.8s1.6-3.8,3.8-3.8c2.2,0,3.8,1.6,3.8,3.8S-358.4,316.5-360.3,316.5z"/>
<circle display="none" fill="none" stroke="#FFFFFF" stroke-width="0.75" stroke-linecap="round" stroke-linejoin="round" stroke-miterlimit="10" cx="-348.8" cy="318.4" r="3.8"/>
<line display="none" fill="none" stroke="#FFFFFF" stroke-width="0.75" stroke-linecap="round" stroke-linejoin="round" stroke-miterlimit="10" x1="-398.4" y1="310.5" x2="-398.4" y2="326.3"/>
<line display="none" fill="none" stroke="#FFFFFF" stroke-width="0.75" stroke-linecap="round" stroke-linejoin="round" stroke-miterlimit="10" x1="-406.3" y1="318.4" x2="-390.5" y2="318.4"/>
<path display="none" fill="none" stroke="#FFFFFF" stroke-width="1.5" stroke-miterlimit="10" d="M-183.4,293.9
	c-1.1-1.1-3-1.1-4.4,0c-1.1,1.1-2.2,2.2-2.2,2.2v0.3c0,0,1.1,1.1,2.2,2.2l1.4,1.4c1.1,1.1,2.2,2.2,2.2,2.2h0.3c0,0,1.1-1.1,2.2-2.2
	s1.1-3,0-4.1L-183.4,293.9z"/>
<polygon display="none" fill="none" stroke="#FFFFFF" stroke-width="1.5" stroke-miterlimit="10" points="-189.7,296.1 
	-210.9,317.3 -204.9,323 -183.7,301.8 "/>
<polyline display="none" fill="none" stroke="#FFFFFF" stroke-width="1.5" stroke-linejoin="round" stroke-miterlimit="10" points="
	-210.9,317.3 -215.2,327.3 -215.2,327.3 -204.9,323 "/>
<path display="none" fill="none" stroke="#FFFFFF" stroke-width="1.5" stroke-linejoin="round" stroke-miterlimit="10" d="
	M-190.7,354.6h-84.9c-3,0-5.4-2.4-5.4-5.4v-46.5c0-3,2.4-5.4,5.4-5.4h84.9c3,0,5.4,2.4,5.4,5.4v46.5
	C-185.3,352.1-187.8,354.6-190.7,354.6z"/>
<line display="none" fill="none" stroke="#FFFFFF" stroke-width="1.5" stroke-miterlimit="10" x1="-264.5" y1="354.6" x2="-264.5" y2="297.4"/>
<path display="none" fill="none" stroke="#FFFFFF" stroke-width="1.5" stroke-miterlimit="10" d="M-75.6,293.3c0.5,0,1.1,0,1.6,0
	c3.8,0.3,7.6,0.8,11.4,2.4c3.3,1.4,6.3,3,8.7,5.4c1.4,1.4,1.6,2.7,1.1,4.4c0,0.3,0,0.3,0,0.5c1.9,2.7,3,5.4,3.5,8.7
	c0.5,2.7,0.8,5.7,0.5,8.4c0,2.2-0.5,4.4-0.8,6.3c0,0.3,0,0.3,0.3,0.3c2.2,1.1,4.1,2.7,5.7,4.4c2.4,2.7,4.1,6,4.9,9.5
	c1.9,9.5-3.3,19-12.2,22.9c-3,1.1-5.7,1.6-9,1.4c-1.4,0-2.4-1.1-2.4-2.7c0-1.1,0-2.4,0.3-3.5c0.3-2.2,0.3-4.1,0.5-6.3
	c0.3-2.4,0.3-4.9,0.5-7.1c0.3-2.4,0.3-4.6,0.5-7.1c0.3-2.4,0.3-4.9,0.5-7.1c0-1.4,0.3-2.7,0.3-4.1c0-1.6,1.4-2.7,3-2.7
	c0.8,0,1.6,0.3,2.4,0.3c0-0.5,0.3-1.4,0.3-1.9c0.3-2.4,0.5-4.9,0.3-7.6c-0.3-3.3-1.4-6.5-3.3-9.5l-0.3-0.3c-0.8,0-1.6-0.5-2.4-1.1
	c-2.7-2.4-5.7-3.8-9.3-4.6c-3.3-0.8-6.5-0.8-9.5-0.8c-2.4,0-4.9,0.3-7.1,1.1c-2.7,0.8-5.4,1.9-7.6,3.8c-0.3,0.3-0.5,0.5-0.8,0.8
	c-0.8,0.5-1.6,1.1-2.4,1.1c-0.3,0-0.3,0.3-0.3,0.3c-1.9,2.7-2.7,5.7-3.3,8.7c-0.5,3.3-0.3,6.8,0.5,10.1c0,0,0,0,0,0.3
	c0.3,0,0.8,0,1.1-0.3c0.5,0,1.1-0.3,1.9-0.3c1.6,0,2.7,1.1,2.7,2.7c0.3,4.1,0.5,8.2,0.8,12.2c0.3,3.3,0.5,6.5,0.5,10.1
	c0.3,3.5,0.5,7.3,0.8,10.9c0,0.5,0,1.4,0,1.9c0,1.6-1.1,3-2.7,3c-4.9,0.3-9.3-1.1-13.3-4.1c-4.1-3-6.5-6.8-7.6-11.7
	c-1.6-7.3,0.3-13.6,5.4-19c1.4-1.4,3-2.7,4.9-3.5c0.3,0,0.3-0.3,0.3-0.5c-0.8-3.3-1.1-6.5-0.8-9.8c0.3-4.9,1.6-9.3,4.1-13.3
	c0.3-0.3,0.3-0.5,0.3-0.8c-0.3-1.6,0-3.3,1.4-4.4c2.7-2.4,6-4.4,9.3-5.7c2.4-0.8,5.2-1.6,7.9-1.9c1.4-0.3,3-0.3,4.4-0.3h0.3
	C-77.6,293.3-76.7,293.3-75.6,293.3z"/>
<g display="none">
	<path display="inline" fill="none" stroke="#FFFFFF" stroke-width="1.5" stroke-miterlimit="10" d="M40.5,346.7h-1.4
		c-7.6,0-13.6-6.3-13.6-13.6v-25.9c0-7.6,6.3-13.6,13.6-13.6h1.4c7.6,0,13.6,6.3,13.6,13.6v25.9C54.1,340.4,48.2,346.7,40.5,346.7z"
		/>
	<path display="inline" fill="none" stroke="#FFFFFF" stroke-width="1.5" stroke-linecap="round" stroke-miterlimit="10" d="
		M61.8,327.3c0,0,2.4,24.5-18,25.9V369h14.7"/>
	<path display="inline" fill="none" stroke="#FFFFFF" stroke-width="1.5" stroke-linecap="round" stroke-miterlimit="10" d="
		M18.2,327.3c0,0-2.4,24.5,18,25.9V369H21.8"/>
	<path display="inline" fill="#FFFFFF" d="M26.4,309.7h7.3c1.4,0,2.4-0.8,2.4-1.6l0,0c0-0.8-1.1-1.6-2.4-1.6h-7.3V309.7z"/>
	<path display="inline" fill="#FFFFFF" d="M26.4,318.1h7.3c1.4,0,2.4-0.8,2.4-1.6l0,0c0-0.8-1.1-1.6-2.4-1.6h-7.3V318.1z"/>
	<path display="inline" fill="#FFFFFF" d="M26.4,325.4h7.3c1.4,0,2.4-0.8,2.4-1.6l0,0c0-0.8-1.1-1.6-2.4-1.6h-7.3V325.4z"/>
	<path display="inline" fill="#FFFFFF" d="M26.4,332.5h7.3c1.4,0,2.4-0.8,2.4-1.6l0,0c0-0.8-1.1-1.6-2.4-1.6h-7.3V332.5z"/>
</g>
<g display="none">
	
		<polygon display="inline" fill="none" stroke="#FFFFFF" stroke-width="1.5" stroke-linecap="round" stroke-linejoin="round" stroke-miterlimit="10" points="
		-1305.3,333.3 -1305.3,291.7 -1336.3,291.7 -1338.8,291.7 -1369.8,291.7 -1369.8,333.3 -1381.8,352.7 -1338.8,352.7 -1336.3,352.7 
		-1293.3,352.7 	"/>
	
		<line display="inline" fill="none" stroke="#FFFFFF" stroke-width="1.5" stroke-linecap="round" stroke-linejoin="round" stroke-miterlimit="10" x1="-1369.8" y1="333.3" x2="-1305.3" y2="333.3"/>
	
		<line display="inline" fill="none" stroke="#FFFFFF" stroke-width="1.5" stroke-linecap="round" stroke-linejoin="round" stroke-miterlimit="10" x1="-1366.3" y1="342.9" x2="-1308.8" y2="342.9"/>
	
		<line display="inline" fill="none" stroke="#FFFFFF" stroke-width="1.5" stroke-linecap="round" stroke-linejoin="round" stroke-miterlimit="10" x1="-1348.3" y1="342.9" x2="-1355.1" y2="352.7"/>
	
		<line display="inline" fill="none" stroke="#FFFFFF" stroke-width="1.5" stroke-linecap="round" stroke-linejoin="round" stroke-miterlimit="10" x1="-1327.6" y1="342.9" x2="-1320.8" y2="352.7"/>
</g>
<circle display="none" fill="#FFFFFF" cx="-1197.8" cy="351.8" r="1.9"/>
</svg>
