<?xml version="1.0" encoding="utf-8"?>
<!-- Generator: Adobe Illustrator 18.0.0, SVG Export Plug-In . SVG Version: 6.00 Build 0)  -->
<!DOCTYPE svg PUBLIC "-//W3C//DTD SVG 1.1//EN" "http://www.w3.org/Graphics/SVG/1.1/DTD/svg11.dtd">
<svg version="1.1" id="Layer_1" xmlns="http://www.w3.org/2000/svg" xmlns:xlink="http://www.w3.org/1999/xlink" x="0px" y="0px"
	 viewBox="0 0 17.6 29.4" enable-background="new 0 0 17.6 29.4" xml:space="preserve">
<rect x="-636.7" y="-28.9" display="none" fill="#010101" width="847.9" height="196"/>
<path display="none" fill="none" stroke="#FFFFFF" stroke-miterlimit="10" d="M-449.3,78.6h-118c-7.6,0-13.8-6.2-13.8-13.8v0
	c0-7.6,6.2-13.8,13.8-13.8h118c7.6,0,13.8,6.2,13.8,13.8v0C-435.5,72.4-441.7,78.6-449.3,78.6z"/>
<g display="none">
	
		<text transform="matrix(1 0 0 1 -548.7511 68.6825)" display="inline" fill="#FFFFFF" font-family="'HelveticaNeue-Light'" font-size="9.4843">TEXT IN ALL CAPS</text>
</g>
<g display="none">
	<g display="inline">
		<path fill="#FFFFFF" d="M-391.4,89.5c-13.6,0-24.7-11.1-24.7-24.7s11.1-24.7,24.7-24.7c13.6,0,24.7,11.1,24.7,24.7
			S-377.8,89.5-391.4,89.5z M-391.4,41.1c-13.1,0-23.7,10.6-23.7,23.7s10.6,23.7,23.7,23.7s23.7-10.6,23.7-23.7
			S-378.3,41.1-391.4,41.1z"/>
	</g>
	<g display="inline">
		
			<rect x="-391.8" y="52.5" transform="matrix(0.7071 0.7071 -0.7071 0.7071 -68.839 295.6648)" fill="#FFFFFF" width="1" height="24.5"/>
	</g>
	<g display="inline">
		
			<rect x="-403.6" y="64.2" transform="matrix(0.7071 0.7071 -0.7071 0.7071 -68.8455 295.6739)" fill="#FFFFFF" width="24.5" height="1"/>
	</g>
</g>
<g display="none">
	<text transform="matrix(1 0 0 1 95.4588 -0.4046)" display="inline"><tspan x="0" y="0" fill="#FFFFFF" font-family="'HelveticaNeue-Light'" font-size="9.4843">LAPTOP</tspan><tspan x="0" y="11.4" fill="#FFFFFF" font-family="'HelveticaNeue-Light'" font-size="9.4843">SMARTPHONE</tspan><tspan x="0" y="22.8" fill="#FFFFFF" font-family="'HelveticaNeue-Light'" font-size="9.4843">TABLET</tspan><tspan x="0" y="34.1" fill="#FFFFFF" font-family="'HelveticaNeue-Light'" font-size="9.4843">HARD DRIVE</tspan><tspan x="0" y="45.5" fill="#FFFFFF" font-family="'HelveticaNeue-Light'" font-size="9.4843">CLOUD STORAGE</tspan><tspan x="0" y="56.9" fill="#FFFFFF" font-family="'HelveticaNeue-Light'" font-size="9.4843">DSLR</tspan><tspan x="0" y="68.3" fill="#FFFFFF" font-family="'HelveticaNeue-Light'" font-size="9.4843">GAME CONTROLLER</tspan><tspan x="0" y="79.7" fill="#FFFFFF" font-family="'HelveticaNeue-Light'" font-size="9.4843">WACOM PEN</tspan><tspan x="0" y="91" fill="#FFFFFF" font-family="'HelveticaNeue-Light'" font-size="9.4843">HEADPHONES</tspan><tspan x="0" y="102.4" fill="#FFFFFF" font-family="'HelveticaNeue-Light'" font-size="9.4843">MIC</tspan></text>
</g>
<g display="none">
	<path display="inline" fill="#FFFFFF" d="M-540.2,19h-27.3c-1.5,0-2.8-1.2-2.8-2.8V2.1c0-1.5,1.2-2.8,2.8-2.8h27.3
		c1.5,0,2.8,1.2,2.8,2.8v14.2C-537.4,17.8-538.7,19-540.2,19z M-567.5,0.9c-0.7,0-1.2,0.6-1.2,1.2v14.2c0,0.7,0.6,1.2,1.2,1.2h27.3
		c0.7,0,1.2-0.6,1.2-1.2V2.1c0-0.7-0.6-1.2-1.2-1.2H-567.5z"/>
</g>
<g display="none">
	<path display="inline" fill="#FFFFFF" d="M-538.2,15.9h-31.3c-0.4,0-0.8-0.3-0.8-0.8s0.3-0.8,0.8-0.8h31.3c0.4,0,0.8,0.3,0.8,0.8
		S-537.8,15.9-538.2,15.9z"/>
</g>
<g display="none">
	<path display="inline" fill="#FFFFFF" d="M-549.9,22.2h-8c-0.4,0-0.8-0.3-0.8-0.8v-2.2c0-0.4,0.3-0.8,0.8-0.8s0.8,0.3,0.8,0.8v1.5
		h6.5v-1.5c0-0.4,0.3-0.8,0.8-0.8s0.8,0.3,0.8,0.8v2.2C-549.1,21.9-549.4,22.2-549.9,22.2z"/>
</g>
<g display="none">
	<path display="inline" fill="#FFFFFF" d="M-547.2,24.6h-13.3c-0.3,0-0.5-0.2-0.5-0.5v-0.2c0-0.3,0.2-0.5,0.5-0.5h13.3
		c0.3,0,0.5,0.2,0.5,0.5v0.2C-546.7,24.4-546.9,24.6-547.2,24.6z"/>
</g>
<g display="none">
	<path display="inline" fill="#FFFFFF" d="M-186.3,22.2h-19.1c-3.7,0-6.8-3.2-6.8-6.9c0-2.7,1.6-5.2,4-6.3c0.1-2.6,2.2-4.6,4.8-4.6
		c0.8,0,1.6,0.2,2.3,0.6c1.5-2.8,4.5-4.6,7.7-4.6c3.9,0,7.2,2.5,8.4,6.2c3.6,0.6,6.4,4,6.4,7.8C-178.5,18.6-182.1,22.2-186.3,22.2z
		 M-203.3,5.8c-1.8,0-3.3,1.5-3.3,3.3c0,0,0,0.1,0,0.1l0.1,0.7l-0.6,0.2c-2.1,0.7-3.5,2.8-3.5,5.1c0,2.9,2.4,5.4,5.3,5.4h19.1
		c3.4,0,6.3-2.9,6.3-6.4c0-3.2-2.5-6-5.6-6.4l-0.5-0.1l-0.1-0.5c-0.8-3.3-3.7-5.5-7-5.5c-3,0-5.6,1.8-6.7,4.5l-0.4,1l-0.8-0.7
		C-201.8,6.1-202.6,5.8-203.3,5.8z"/>
</g>
<g display="none">
	<g display="inline">
		<path fill="#FFFFFF" d="M-325.6,22.9h-25.5c-1.3,0-1.5-0.7-1.5-1.2V4.9l0.8-0.1c3,0,4.9-1.1,6.1-1.8c0.7-0.4,1.3-0.7,1.8-0.7h0.2
			l0.3-1.8c0.1-0.8,0.9-1.4,1.7-1.4h8.3c0.8,0,1.5,0.6,1.7,1.3l0.4,1.9h5.8c0.9,0,1.5,1.1,1.5,1.9v17.5
			C-324.1,22.2-324.4,22.9-325.6,22.9z M-351.1,21.4C-351.1,21.4-351.1,21.4-351.1,21.4h25.5c0,0,0,0,0,0V4.2c0-0.1-0.1-0.3-0.2-0.4
			h-6.9l-0.6-3c0-0.1-0.2-0.2-0.3-0.2h-8.3c-0.1,0-0.2,0.1-0.2,0.2l-0.5,3h-1.4c-0.2,0-0.7,0.3-1.1,0.5c-1.2,0.7-3.1,1.8-6.1,2V21.4
			z"/>
	</g>
	<g display="inline">
		<rect x="-352.7" y="2.3" fill="#FFFFFF" width="3.2" height="1.5"/>
	</g>
	<g display="inline">
		<path fill="#FFFFFF" d="M-337.6,19.7c-3.9,0-7.1-3.2-7.1-7.1c0-3.9,3.2-7.1,7.1-7.1s7.1,3.2,7.1,7.1
			C-330.5,16.5-333.6,19.7-337.6,19.7z M-337.6,7c-3.1,0-5.6,2.5-5.6,5.6c0,3.1,2.5,5.6,5.6,5.6s5.6-2.5,5.6-5.6
			C-332,9.5-334.5,7-337.6,7z"/>
	</g>
</g>
<g display="none">
	<path display="inline" fill="#FFFFFF" d="M-231.5,23.2H-252v-20h15c0.4,0,0.8,0.3,0.8,0.8s-0.3,0.8-0.8,0.8h-13.5v17h17.5V8.2
		c0-0.4,0.3-0.8,0.8-0.8s0.8,0.3,0.8,0.8V23.2z"/>
</g>
<g display="none">
	<path display="inline" fill="#FFFFFF" d="M-243.2,15.9c-0.2,0-0.4-0.1-0.5-0.2c-0.3-0.3-0.3-0.8,0-1.1l15.4-15.4
		c0.2-0.2,0.5-0.3,0.8-0.2c0.3,0.1,0.5,0.4,0.5,0.7v7.7c0,0.4-0.3,0.8-0.8,0.8s-0.8-0.3-0.8-0.8V1.5l-14.1,14.1
		C-242.9,15.8-243,15.9-243.2,15.9z"/>
</g>
<g display="none">
	<path display="inline" fill="#FFFFFF" d="M-227.8,0.4h-8.4c-0.4,0-0.8-0.3-0.8-0.8s0.3-0.8,0.8-0.8h8.4c0.4,0,0.8,0.3,0.8,0.8
		S-227.4,0.4-227.8,0.4z"/>
</g>
<g display="none">
	<path display="inline" fill="#FFFFFF" d="M-275.7,22.7H-300c-1.8,0-3.1-1.1-3.1-2.7v-7.9c0-0.2,0-0.4,0.1-0.6l3.5-7.5
		c0.1-0.3,0.2-0.4,0.3-0.5c0.4-0.7,1.1-2,2.6-2h17.4c1.6,0,2.3,1.3,2.7,2c0.1,0.2,0.2,0.3,0.2,0.4l3.5,7.7c0.1,0.2,0.1,0.4,0.1,0.6
		V20C-272.6,21.6-273.8,22.7-275.7,22.7z M-296.5,3c-0.6,0-0.9,0.5-1.3,1.2c-0.1,0.2-0.2,0.3-0.3,0.5l-3.4,7.5l0,7.8
		c0,1.1,1.1,1.2,1.6,1.2h24.3c0.5,0,1.6-0.1,1.6-1.2v-7.9l-3.5-7.5c0,0-0.1-0.2-0.2-0.3c-0.5-0.8-0.8-1.3-1.4-1.3H-296.5z"/>
</g>
<g display="none">
	<rect x="-302.3" y="11.4" display="inline" fill="#FFFFFF" width="29" height="1.5"/>
</g>
<g display="none">
	<path display="inline" fill="#FFFFFF" d="M-298.3,18.9c-0.4,0-0.8-0.3-0.8-0.8v-2.1c0-0.4,0.3-0.7,0.8-0.7s0.8,0.3,0.8,0.7v2.1
		C-297.5,18.6-297.9,18.9-298.3,18.9z"/>
</g>
<g display="none">
	<path display="inline" fill="#FFFFFF" d="M-295,18.9c-0.4,0-0.8-0.3-0.8-0.8v-2.1c0-0.4,0.3-0.7,0.8-0.7s0.8,0.3,0.8,0.7v2.1
		C-294.3,18.6-294.6,18.9-295,18.9z"/>
</g>
<g display="none">
	<path display="inline" fill="#FFFFFF" d="M-382,23.7h-30.8c-1.9,0-3.5-1.6-3.5-3.5V4.9c0-1.9,1.6-3.5,3.5-3.5h30.8
		c1.9,0,3.5,1.6,3.5,3.5v15.3C-378.5,22.2-380,23.7-382,23.7z M-412.8,2.9c-1.1,0-2,0.9-2,2v15.3c0,1.1,0.9,2,2,2h30.8
		c1.1,0,2-0.9,2-2V4.9c0-1.1-0.9-2-2-2H-412.8z"/>
</g>
<g display="none">
	<rect x="-383.7" y="2.2" display="inline" fill="#FFFFFF" width="1.5" height="20.8"/>
</g>
<g display="none">
	<rect x="-412.6" y="2.2" display="inline" fill="#FFFFFF" width="1.5" height="20.8"/>
</g>
<g display="none">
	<path display="inline" fill="#FFFFFF" d="M-440.8,24.5h-10.5c-1.5,0-2.7-1.2-2.7-2.7V0.6c0-1.5,1.2-2.7,2.7-2.7h10.5
		c1.5,0,2.7,1.2,2.7,2.7v21.2C-438.2,23.3-439.4,24.5-440.8,24.5z M-451.4-0.6c-0.6,0-1.2,0.5-1.2,1.2v21.2c0,0.6,0.5,1.2,1.2,1.2
		h10.5c0.6,0,1.2-0.5,1.2-1.2V0.6c0-0.6-0.5-1.2-1.2-1.2H-451.4z"/>
</g>
<g display="none">
	<rect x="-453.3" y="20.6" display="inline" fill="#FFFFFF" width="14.4" height="1"/>
</g>
<g display="none">
	<rect x="-453.3" y="0.7" display="inline" fill="#FFFFFF" width="14.4" height="1"/>
</g>
<g display="none">
	<path display="inline" fill="#FFFFFF" d="M-157.9,25.1c-1.2,0-3.2-0.5-3.8-3.9c-0.1-0.3-1.8-8.7,2.8-16.4c1.8-3,4-4.5,6.8-4.5
		c2.9,0,5.3,1.7,5.5,1.9c0.3,0.2,1,0.5,1.3,0.5h1.8c0.4,0,1-0.2,1.3-0.5l0,0c0,0,2.5-2,5.6-2c2.8,0,5.1,1.5,6.8,4.5
		c4.5,7.7,2.8,16.1,2.8,16.5c-0.5,3.3-2.6,3.8-3.7,3.8c-0.1,0-0.3,0-0.4,0c-0.5,0-2.1-0.2-6.7-6.5l-0.1-0.2
		c-0.2-0.3-0.7-0.5-1.1-0.5l-10.9,0c-0.3,0-0.8,0.3-1.1,0.5l-0.1,0.2c-4.5,6.3-6,6.4-6.6,6.5C-157.7,25-157.8,25.1-157.9,25.1z
		 M-152.1,1.8c-2.2,0-4.1,1.3-5.5,3.7c-4.3,7.2-2.7,15.1-2.6,15.4c0.3,1.9,1.1,2.7,2.5,2.6c0.2,0,1.6-0.4,5.5-5.8
		c0.1-0.1,0.2-0.2,0.2-0.2c0.5-0.6,1.4-1.1,2.2-1.1l10.9,0c0.8,0,1.7,0.5,2.2,1.1c0,0,0.1,0.1,0.2,0.2c4.1,5.6,5.5,5.9,5.6,5.9
		c1.4,0.1,2.2-0.7,2.5-2.6c0.1-0.4,1.7-8.2-2.6-15.4c-1.5-2.5-3.3-3.7-5.5-3.7c-2.5,0-4.6,1.6-4.6,1.6c-0.6,0.4-1.6,0.8-2.3,0.8
		h-1.8c-0.7,0-1.7-0.3-2.3-0.8C-147.5,3.4-149.6,1.8-152.1,1.8z"/>
</g>
<g display="none">
	<path display="inline" fill="#FFFFFF" d="M-138.3,13.9c-1,0-1.8-0.8-1.8-1.8c0-1,0.8-1.8,1.8-1.8c1,0,1.8,0.8,1.8,1.8
		C-136.6,13.1-137.4,13.9-138.3,13.9z M-138.3,11.1c-0.6,0-1,0.5-1,1s0.5,1,1,1c0.6,0,1-0.5,1-1S-137.8,11.1-138.3,11.1z"/>
</g>
<g display="none">
	<path display="inline" fill="#FFFFFF" d="M-138.3,9.7c-1,0-1.8-0.8-1.8-1.8c0-1,0.8-1.8,1.8-1.8c1,0,1.8,0.8,1.8,1.8
		C-136.6,8.8-137.4,9.7-138.3,9.7z M-138.3,6.8c-0.6,0-1,0.5-1,1s0.5,1,1,1c0.6,0,1-0.5,1-1S-137.8,6.8-138.3,6.8z"/>
</g>
<g display="none">
	<path display="inline" fill="#FFFFFF" d="M-134.1,11.8c-1,0-1.8-0.8-1.8-1.8s0.8-1.8,1.8-1.8c1,0,1.8,0.8,1.8,1.8
		S-133.1,11.8-134.1,11.8z M-134.1,8.9c-0.6,0-1,0.5-1,1s0.5,1,1,1s1-0.5,1-1S-133.5,8.9-134.1,8.9z"/>
</g>
<g display="none">
	<path display="inline" fill="#FFFFFF" d="M-152.3,13.3c-0.2,0-0.4-0.2-0.4-0.4V7.1c0-0.2,0.2-0.4,0.4-0.4s0.4,0.2,0.4,0.4v5.8
		C-152,13.1-152.1,13.3-152.3,13.3z"/>
</g>
<g display="none">
	<path display="inline" fill="#FFFFFF" d="M-149.4,10.4h-5.8c-0.2,0-0.4-0.2-0.4-0.4s0.2-0.4,0.4-0.4h5.8c0.2,0,0.4,0.2,0.4,0.4
		S-149.2,10.4-149.4,10.4z"/>
</g>
<g display="none">
	<path display="inline" fill="#FFFFFF" d="M-73.4,4.6h-0.3L-74,4.4l-2.4-2.3l0-0.7l0.2-0.3c0,0,0.4-0.4,0.8-0.8
		c0.7-0.7,1.9-0.7,2.6,0l0.6,0.6c0.4,0.3,0.6,0.8,0.6,1.3c0,0.5-0.2,0.9-0.5,1.3l-0.8,0.8C-73,4.6-73.2,4.6-73.4,4.6z M-74.6,1.8
		l0.8,0.8c0.1,0.1,0.2,0.2,0.3,0.3l0.3-0.3C-73,2.5-73,2.4-73,2.3c0-0.1,0-0.2-0.1-0.2l-0.6-0.6c-0.2-0.2-0.3-0.2-0.5,0L-74.6,1.8z"
		/>
</g>
<g display="none">
	<path display="inline" fill="#FFFFFF" d="M-81.2,12.8l-3.3-3.2l8.9-8.8l3.3,3.2L-81.2,12.8z M-82.4,9.6l1.1,1.1l6.8-6.7l-1.1-1.1
		L-82.4,9.6z"/>
</g>
<g display="none">
	<path display="inline" fill="#FFFFFF" d="M-85,14c-0.2,0-0.4-0.1-0.5-0.2c-0.2-0.2-0.3-0.5-0.2-0.8l1.6-3.7l1.4,0.6l-0.9,2l2.1-0.9
		l0.6,1.4l-3.8,1.6C-84.9,14-84.9,14-85,14z"/>
</g>
<g display="none">
	<path display="inline" fill="#FFFFFF" d="M-76,24.1h-31.2c-1.5,0-2.8-1.2-2.8-2.8V4.3c0-1.5,1.2-2.8,2.8-2.8H-76
		c1.5,0,2.8,1.2,2.8,2.8v17.1C-73.2,22.9-74.4,24.1-76,24.1z M-107.2,3c-0.7,0-1.2,0.6-1.2,1.3v17.1c0,0.7,0.6,1.2,1.2,1.2H-76
		c0.7,0,1.2-0.6,1.2-1.2V4.3c0-0.7-0.6-1.3-1.2-1.3H-107.2z"/>
</g>
<g display="none">
	<rect x="-103.9" y="2.3" display="inline" fill="#FFFFFF" width="1.5" height="21.1"/>
</g>
<g display="none">
	<path display="inline" fill="#FFFFFF" d="M-27.4,29c-0.2,0-0.4,0-0.6,0c-0.9-0.1-1.6-0.8-1.6-1.7c0-0.3,0-0.7,0.1-1l0.8-10.9
		c0-0.3,0-0.7,0.1-1c0.1-1,0.9-1.8,2-1.7c0.1,0,0.2,0,0.2,0c0,0,0,0,0,0c0.1-0.9,0.2-1.7,0.1-2.6c-0.1-1.1-0.4-2.1-1-2.9
		c-0.4-0.1-0.8-0.3-1.1-0.6c-0.8-0.7-1.8-1.2-3.1-1.5c-1-0.2-2.2-0.3-3.3-0.3c-0.9,0-1.7,0.1-2.5,0.3c-1,0.3-1.8,0.7-2.5,1.2
		c-0.1,0.1-0.2,0.2-0.3,0.2c-0.3,0.3-0.7,0.5-1.1,0.6c-0.5,0.8-0.8,1.7-0.9,2.7c-0.1,0.9-0.1,1.8,0,2.8c0.1,0,0.3,0,0.4,0h0
		c1,0,1.7,0.7,1.8,1.7l0.9,12.9c0,0.5-0.1,1-0.4,1.3c-0.3,0.3-0.8,0.6-1.3,0.6c-2,0.1-3.8-0.4-5.4-1.6c-1.6-1.2-2.7-2.8-3.1-4.7
		c-0.6-2.9,0.1-5.5,2.2-7.6c0.5-0.5,1-0.9,1.6-1.3c-0.2-1.1-0.3-2.3-0.3-3.4c0.1-2,0.6-3.6,1.6-5.1c-0.2-0.8,0.1-1.6,0.7-2.2
		c1-1,2.3-1.7,3.7-2.2c1-0.4,2-0.6,3-0.7c0.4,0,0.7-0.1,1.1-0.1l0.7-0.1l1.8,0c1.6,0.1,3.1,0.4,4.4,0.9c1.3,0.5,2.5,1.2,3.5,2.2
		c0.6,0.6,0.8,1.3,0.7,2.1c0.6,1,1.1,2,1.3,3.2c0.2,1,0.3,2.2,0.3,3.3c0,0.7-0.1,1.3-0.3,2c0.7,0.4,1.3,0.9,1.9,1.6
		c1,1.1,1.7,2.4,1.9,3.9c0.8,3.9-1.4,7.7-5,9.2C-25.3,28.8-26.3,29-27.4,29z M-26.9,14.1c-0.2,0-0.3,0.1-0.3,0.3c0,0.3,0,0.7-0.1,1
		L-28,26.4c0,0.3,0,0.6-0.1,1c0,0.1,0.1,0.2,0.2,0.2c1,0.1,2-0.1,2.9-0.5c3-1.2,4.7-4.4,4.1-7.5c-0.2-1.2-0.8-2.3-1.6-3.2
		c-0.5-0.6-1.2-1.1-1.9-1.5c-0.5-0.2-0.5-0.7-0.5-1c0.2-0.7,0.3-1.4,0.3-2.2c0.1-1,0-2-0.2-2.9c-0.2-1.1-0.7-2.1-1.2-2.9
		C-26,5.7-26.1,5.4-26,5.1c0.1-0.4,0-0.6-0.2-0.9c-0.8-0.8-1.8-1.4-3-1.8c-1.2-0.5-2.5-0.7-4-0.8l-0.6,0l-1.6,0.1
		c-0.4,0-0.7,0.1-1.1,0.1c-0.9,0.1-1.8,0.3-2.7,0.6c-1.3,0.5-2.3,1.1-3.2,1.9c-0.3,0.3-0.4,0.5-0.3,0.9c0.1,0.3,0,0.6-0.2,0.9
		c-0.9,1.3-1.3,2.8-1.4,4.5c-0.1,1.1,0,2.3,0.3,3.4c0.1,0.4-0.1,0.8-0.5,1c-0.6,0.3-1.2,0.7-1.6,1.2c-1.7,1.8-2.3,3.9-1.8,6.3
		c0.3,1.6,1.2,2.9,2.5,3.9c1.3,1,2.8,1.4,4.4,1.3c0.1,0,0.2,0,0.2-0.1c0-0.1,0.1-0.1,0.1-0.2l-0.9-12.8c0-0.3-0.2-0.3-0.2-0.3
		c-0.1,0-0.3,0-0.4,0l-0.2,0c-0.1,0-0.2,0-0.3,0l-0.8,0.1l-0.2-0.8c-0.3-1.4-0.3-2.7-0.2-3.9c0.2-1.4,0.6-2.5,1.3-3.5
		c0.2-0.2,0.4-0.4,0.7-0.4c0.2,0,0.4-0.1,0.5-0.2c0.1-0.1,0.2-0.2,0.3-0.3c0.8-0.7,1.8-1.2,3.1-1.5c0.9-0.2,1.8-0.4,2.8-0.4
		c1.3-0.1,2.6,0,3.7,0.3c1.6,0.4,2.8,1,3.8,1.9c0.1,0.1,0.3,0.2,0.5,0.2c0.3,0,0.5,0.2,0.7,0.4c0.7,1.1,1.2,2.3,1.3,3.8
		c0.1,1,0.1,2-0.1,3c0,0.2-0.1,0.4-0.1,0.5l-0.2,0.9l-1-0.1C-26.4,14.2-26.7,14.2-26.9,14.1C-26.9,14.1-26.9,14.1-26.9,14.1z"/>
</g>
<g>
	<g>
		<path fill="#FFFFFF" d="M9,21.1H8.5c-3.2,0-5.8-2.6-5.8-5.8V5.8C2.8,2.6,5.4,0,8.5,0H9c3.2,0,5.8,2.6,5.8,5.8v9.5
			C14.8,18.5,12.2,21.1,9,21.1z M8.5,1.5c-2.4,0-4.3,1.9-4.3,4.3v9.5c0,2.4,1.9,4.3,4.3,4.3H9c2.4,0,4.3-1.9,4.3-4.3V5.8
			c0-2.4-1.9-4.3-4.3-4.3H8.5z"/>
	</g>
	<g>
		<path fill="#FFFFFF" d="M15.5,29.4H9.4v-7.3l0.7-0.1c1.8-0.1,3.2-0.8,4.2-2c2.1-2.6,1.8-6.7,1.8-6.7c0-0.4,0.3-0.8,0.7-0.8
			c0.4,0,0.8,0.3,0.8,0.7c0,0.2,0.4,4.8-2.1,7.8c-1.1,1.4-2.7,2.2-4.5,2.5v4.4h4.6c0.4,0,0.8,0.3,0.8,0.8S15.9,29.4,15.5,29.4z"/>
	</g>
	<g>
		<path fill="#FFFFFF" d="M8.2,29.4H2.1c-0.4,0-0.7-0.3-0.7-0.8s0.3-0.8,0.7-0.8h4.6v-4.4c-1.9-0.3-3.4-1.1-4.5-2.5
			C-0.4,18,0,13.4,0,13.2c0-0.4,0.4-0.7,0.8-0.7c0.4,0,0.7,0.4,0.7,0.8c0,0-0.4,4.2,1.8,6.7c1,1.2,2.4,1.9,4.2,2l0.7,0.1V29.4z"/>
	</g>
	<g>
		<path fill="#FFFFFF" d="M3.8,6.8h2.7c0.5,0,0.9-0.3,0.9-0.6v0c0-0.3-0.4-0.6-0.9-0.6H3.8V6.8z"/>
	</g>
	<g>
		<path fill="#FFFFFF" d="M3.8,9.9h2.7c0.5,0,0.9-0.3,0.9-0.6v0c0-0.3-0.4-0.6-0.9-0.6H3.8V9.9z"/>
	</g>
	<g>
		<path fill="#FFFFFF" d="M3.8,12.6h2.7c0.5,0,0.9-0.3,0.9-0.6v0c0-0.3-0.4-0.6-0.9-0.6H3.8V12.6z"/>
	</g>
	<g>
		<path fill="#FFFFFF" d="M3.8,15.2h2.7c0.5,0,0.9-0.3,0.9-0.6v0c0-0.3-0.4-0.6-0.9-0.6H3.8V15.2z"/>
	</g>
</g>
<g display="none">
	<g display="inline">
		<path fill="#FFFFFF" d="M-481.2,23.4h-32.4c-0.3,0-0.5-0.1-0.7-0.4c-0.1-0.2-0.1-0.5,0-0.8l4.2-7V0.2c0-0.4,0.3-0.8,0.8-0.8h23.7
			c0.4,0,0.8,0.3,0.8,0.8v15.1l4.2,7c0.1,0.2,0.1,0.5,0,0.8C-480.7,23.2-481,23.4-481.2,23.4z M-512.3,21.9h29.8l-3.7-6
			c-0.1-0.1-0.1-0.3-0.1-0.4V0.9h-22.2v14.5c0,0.1,0,0.3-0.1,0.4L-512.3,21.9z"/>
	</g>
	<g display="inline">
		<path fill="#FFFFFF" d="M-485.6,16.2h-23.7c-0.4,0-0.8-0.3-0.8-0.7s0.3-0.8,0.8-0.8h23.7c0.4,0,0.8,0.3,0.8,0.8
			S-485.2,16.2-485.6,16.2z"/>
	</g>
	<g display="inline">
		<path fill="#FFFFFF" d="M-486.9,19.7H-508c-0.4,0-0.8-0.3-0.8-0.8s0.3-0.8,0.8-0.8h21.1c0.4,0,0.8,0.3,0.8,0.8
			S-486.5,19.7-486.9,19.7z"/>
	</g>
	<g display="inline">
		<path fill="#FFFFFF" d="M-503.9,23.4c-0.1,0-0.3,0-0.4-0.1c-0.3-0.2-0.4-0.7-0.2-1l2.5-3.7c0.2-0.3,0.7-0.4,1-0.2
			c0.3,0.2,0.4,0.7,0.2,1l-2.5,3.7C-503.4,23.2-503.7,23.4-503.9,23.4z"/>
	</g>
	<g display="inline">
		<path fill="#FFFFFF" d="M-491.3,23.4c-0.2,0-0.5-0.1-0.6-0.3l-2.5-3.7c-0.2-0.3-0.2-0.8,0.2-1c0.3-0.2,0.8-0.2,1,0.2l2.5,3.7
			c0.2,0.3,0.2,0.8-0.2,1C-491,23.3-491.1,23.4-491.3,23.4z"/>
	</g>
</g>
<g display="none">
	<circle display="inline" fill="#FFFFFF" cx="-446.1" cy="22.3" r="0.7"/>
</g>
<path display="none" fill="none" stroke="#FFFFFF" stroke-width="1.5" stroke-miterlimit="10" d="M-540.2,125.3h-27.3
	c-1.1,0-2-0.9-2-2v-14.2c0-1.1,0.9-2,2-2h27.3c1.1,0,2,0.9,2,2v14.2C-538.2,124.4-539.1,125.3-540.2,125.3z"/>
<line display="none" fill="none" stroke="#FFFFFF" stroke-width="1.5" stroke-linecap="round" stroke-linejoin="round" stroke-miterlimit="10" x1="-569.5" y1="122.2" x2="-538.2" y2="122.2"/>
<polyline display="none" fill="none" stroke="#FFFFFF" stroke-width="1.5" stroke-linecap="round" stroke-linejoin="round" stroke-miterlimit="10" points="
	-557.9,126.3 -557.9,128.5 -549.9,128.5 -549.9,126.3 "/>
<path display="none" fill="#FFFFFF" d="M-547.2,131.6h-13.3c-0.3,0-0.5-0.2-0.5-0.5v-0.2c0-0.3,0.2-0.5,0.5-0.5h13.3
	c0.3,0,0.5,0.2,0.5,0.5v0.2C-546.7,131.4-546.9,131.6-547.2,131.6z"/>
<path display="none" fill="none" stroke="#FFFFFF" stroke-width="1.5" stroke-miterlimit="10" d="M-185.6,114.2
	c-0.9-3.5-4-6.1-7.8-6.1c-3.4,0-6.2,2.1-7.4,5c-0.7-0.6-1.6-1-2.6-1c-2.2,0-4,1.8-4,4c0,0.1,0,0.2,0,0.4c-2.4,0.8-4,3.2-4,5.8
	c0,3.3,2.7,6.2,6,6.2h19.1c3.9,0,7-3.3,7-7.2C-179.3,117.7-182,114.6-185.6,114.2z"/>
<g display="none">
	<path display="inline" fill="none" stroke="#FFFFFF" stroke-width="1.5" stroke-miterlimit="10" d="M-325.6,110h-6.4l-0.5-2.4
		c-0.1-0.4-0.6-0.8-1-0.8h-8.3c-0.4,0-0.9,0.4-0.9,0.8l-0.4,2.4h-0.8c-1.1,0-3.2,2.6-8,2.6v0.1c0,0,0,0.4,0,0.9v15.1
		c0,0.4,0.4,0.5,0.8,0.5h25.5c0.4,0,0.8,0,0.8-0.5v-17.5C-324.8,110.7-325.2,110-325.6,110z"/>
	
		<line display="inline" fill="none" stroke="#FFFFFF" stroke-width="1.5" stroke-miterlimit="10" x1="-352.7" y1="110" x2="-349.5" y2="110"/>
	
		<circle display="inline" fill="none" stroke="#FFFFFF" stroke-width="1.5" stroke-miterlimit="10" cx="-337.6" cy="119.6" r="6.4"/>
</g>
<polyline display="none" fill="none" stroke="#FFFFFF" stroke-width="1.5" stroke-linecap="round" stroke-miterlimit="10" points="
	-232.3,115.2 -232.3,129.5 -251.2,129.5 -251.2,111 -236.9,111 "/>
<polyline display="none" fill="none" stroke="#FFFFFF" stroke-width="1.5" stroke-linecap="round" stroke-linejoin="round" stroke-miterlimit="10" points="
	-243.2,122.1 -227.8,106.7 -227.8,114.4 "/>
<line display="none" fill="none" stroke="#FFFFFF" stroke-width="1.5" stroke-linecap="round" stroke-linejoin="round" stroke-miterlimit="10" x1="-227.8" y1="106.7" x2="-236.2" y2="106.7"/>
<path display="none" fill="none" stroke="#FFFFFF" stroke-width="1.5" stroke-miterlimit="10" d="M-275.7,129H-300
	c-1.4,0-2.3-0.8-2.3-1.9v-7.9c0-0.1,0-0.2,0.1-0.2l3.5-7.5c0.1-0.2,0.2-0.3,0.3-0.5c0.4-0.7,0.9-1.6,2-1.6h17.4c1.1,0,1.6,0.9,2,1.6
	c0.1,0.1,0.1,0.3,0.2,0.4l3.5,7.6c0,0.1,0.1,0.2,0.1,0.2v7.9C-273.3,128.2-274.2,129-275.7,129z"/>
<line display="none" fill="none" stroke="#FFFFFF" stroke-width="1.5" stroke-miterlimit="10" x1="-302.3" y1="119.1" x2="-273.3" y2="119.1"/>
<line display="none" fill="none" stroke="#FFFFFF" stroke-width="1.5" stroke-linecap="round" stroke-miterlimit="10" x1="-298.3" y1="123.1" x2="-298.3" y2="125.2"/>
<line display="none" fill="none" stroke="#FFFFFF" stroke-width="1.5" stroke-linecap="round" stroke-miterlimit="10" x1="-295" y1="123.1" x2="-295" y2="125.2"/>
<path display="none" fill="none" stroke="#FFFFFF" stroke-width="1.5" stroke-miterlimit="10" d="M-379.2,112v15.3
	c0,1.5-1.2,2.8-2.8,2.8h-30.8c-1.5,0-2.8-1.2-2.8-2.8V112c0-1.5,1.2-2.8,2.8-2.8h30.8C-380.5,109.2-379.2,110.4-379.2,112z"/>
<line display="none" fill="none" stroke="#FFFFFF" stroke-width="1.5" stroke-miterlimit="10" x1="-383" y1="109.2" x2="-383" y2="130"/>
<line display="none" fill="none" stroke="#FFFFFF" stroke-width="1.5" stroke-miterlimit="10" x1="-411.9" y1="109.2" x2="-411.9" y2="130"/>
<path display="none" fill="none" stroke="#FFFFFF" stroke-width="1.5" stroke-miterlimit="10" d="M-440.8,130.8h-10.5
	c-1.1,0-1.9-0.9-1.9-1.9v-21.2c0-1.1,0.9-1.9,1.9-1.9h10.5c1.1,0,1.9,0.9,1.9,1.9v21.2C-438.9,129.9-439.8,130.8-440.8,130.8z"/>
<line display="none" fill="none" stroke="#FFFFFF" stroke-miterlimit="10" x1="-438.9" y1="128.2" x2="-453.3" y2="128.2"/>
<line display="none" fill="none" stroke="#FFFFFF" stroke-miterlimit="10" x1="-438.9" y1="108.2" x2="-453.3" y2="108.2"/>
<path display="none" fill="none" stroke="#FFFFFF" stroke-width="1.5" stroke-miterlimit="10" d="M-130.3,112.2
	c-1.6-2.7-3.7-4.1-6.2-4.1c-2.8,0-5.1,1.8-5.1,1.8c-0.4,0.3-1.3,0.6-1.8,0.6h-1.8c-0.5,0-1.4-0.3-1.8-0.6c-0.1-0.1-2.3-1.8-5.1-1.8
	c-2.5,0-4.6,1.4-6.2,4.1c-4.4,7.5-2.7,15.6-2.7,15.9c0.4,2.7,1.9,3.2,3,3.2c0.1,0,0.2,0,0.3,0c1.9-0.2,6-6.1,6.2-6.3
	c0.4-0.4,1.1-0.8,1.6-0.8l10.9,0c0.5,0,1.3,0.4,1.6,0.8c0.2,0.2,4.4,6.2,6.3,6.4c0.1,0,0.2,0,0.3,0c1.1,0,2.6-0.6,3-3.2
	C-127.6,128-125.9,119.7-130.3,112.2z"/>
<path display="none" fill="none" stroke="#FFFFFF" stroke-width="0.75" stroke-linecap="round" stroke-linejoin="round" stroke-miterlimit="10" d="
	M-138.3,120.5c-0.8,0-1.4-0.6-1.4-1.4c0-0.8,0.6-1.4,1.4-1.4c0.8,0,1.4,0.6,1.4,1.4C-136.9,119.9-137.6,120.5-138.3,120.5z"/>
<path display="none" fill="none" stroke="#FFFFFF" stroke-width="0.75" stroke-linecap="round" stroke-linejoin="round" stroke-miterlimit="10" d="
	M-138.3,116.3c-0.8,0-1.4-0.6-1.4-1.4s0.6-1.4,1.4-1.4c0.8,0,1.4,0.6,1.4,1.4S-137.6,116.3-138.3,116.3z"/>
<circle display="none" fill="none" stroke="#FFFFFF" stroke-width="0.75" stroke-linecap="round" stroke-linejoin="round" stroke-miterlimit="10" cx="-134.1" cy="117" r="1.4"/>
<line display="none" fill="none" stroke="#FFFFFF" stroke-width="0.75" stroke-linecap="round" stroke-linejoin="round" stroke-miterlimit="10" x1="-152.3" y1="114.1" x2="-152.3" y2="119.9"/>
<line display="none" fill="none" stroke="#FFFFFF" stroke-width="0.75" stroke-linecap="round" stroke-linejoin="round" stroke-miterlimit="10" x1="-155.2" y1="117" x2="-149.4" y2="117"/>
<path display="none" fill="none" stroke="#FFFFFF" stroke-width="1.5" stroke-miterlimit="10" d="M-73.3,108c-0.4-0.4-1.1-0.4-1.6,0
	c-0.4,0.4-0.8,0.8-0.8,0.8s0,0.1,0,0.1c0,0,0.4,0.4,0.8,0.8l0.5,0.5c0.4,0.4,0.8,0.8,0.8,0.8c0,0,0.1,0,0.1,0c0,0,0.4-0.4,0.8-0.8
	c0.4-0.4,0.4-1.1,0-1.5L-73.3,108z"/>
<polygon display="none" fill="none" stroke="#FFFFFF" stroke-width="1.5" stroke-miterlimit="10" points="-75.6,108.8 -83.4,116.6 
	-81.2,118.7 -73.4,110.9 "/>
<polyline display="none" fill="none" stroke="#FFFFFF" stroke-width="1.5" stroke-linejoin="round" stroke-miterlimit="10" points="
	-83.4,116.6 -85,120.3 -85,120.3 -81.2,118.7 "/>
<path display="none" fill="none" stroke="#FFFFFF" stroke-width="1.5" stroke-linejoin="round" stroke-miterlimit="10" d="
	M-76,130.3h-31.2c-1.1,0-2-0.9-2-2v-17.1c0-1.1,0.9-2,2-2H-76c1.1,0,2,0.9,2,2v17.1C-74,129.4-74.9,130.3-76,130.3z"/>
<line display="none" fill="none" stroke="#FFFFFF" stroke-width="1.5" stroke-miterlimit="10" x1="-103.1" y1="130.3" x2="-103.1" y2="109.3"/>
<path display="none" fill="none" stroke="#FFFFFF" stroke-width="1.5" stroke-miterlimit="10" d="M-33.7,107.8c0.2,0,0.4,0,0.6,0
	c1.4,0.1,2.8,0.3,4.2,0.9c1.2,0.5,2.3,1.1,3.2,2c0.5,0.5,0.6,1,0.4,1.6c0,0.1,0,0.1,0,0.2c0.7,1,1.1,2,1.3,3.2
	c0.2,1,0.3,2.1,0.2,3.1c0,0.8-0.2,1.6-0.3,2.3c0,0.1,0,0.1,0.1,0.1c0.8,0.4,1.5,1,2.1,1.6c0.9,1,1.5,2.2,1.8,3.5
	c0.7,3.5-1.2,7-4.5,8.4c-1.1,0.4-2.1,0.6-3.3,0.5c-0.5,0-0.9-0.4-0.9-1c0-0.4,0-0.9,0.1-1.3c0.1-0.8,0.1-1.5,0.2-2.3
	c0.1-0.9,0.1-1.8,0.2-2.6c0.1-0.9,0.1-1.7,0.2-2.6c0.1-0.9,0.1-1.8,0.2-2.6c0-0.5,0.1-1,0.1-1.5c0-0.6,0.5-1,1.1-1
	c0.3,0,0.6,0.1,0.9,0.1c0-0.2,0.1-0.5,0.1-0.7c0.1-0.9,0.2-1.8,0.1-2.8c-0.1-1.2-0.5-2.4-1.2-3.5c0,0-0.1-0.1-0.1-0.1
	c-0.3,0-0.6-0.2-0.9-0.4c-1-0.9-2.1-1.4-3.4-1.7c-1.2-0.3-2.4-0.3-3.5-0.3c-0.9,0-1.8,0.1-2.6,0.4c-1,0.3-2,0.7-2.8,1.4
	c-0.1,0.1-0.2,0.2-0.3,0.3c-0.3,0.2-0.6,0.4-0.9,0.4c-0.1,0-0.1,0.1-0.1,0.1c-0.7,1-1,2.1-1.2,3.2c-0.2,1.2-0.1,2.5,0.2,3.7
	c0,0,0,0,0,0.1c0.1,0,0.3,0,0.4-0.1c0.2,0,0.4-0.1,0.7-0.1c0.6,0,1,0.4,1,1c0.1,1.5,0.2,3,0.3,4.5c0.1,1.2,0.2,2.4,0.2,3.7
	c0.1,1.3,0.2,2.7,0.3,4c0,0.2,0,0.5,0,0.7c0,0.6-0.4,1.1-1,1.1c-1.8,0.1-3.4-0.4-4.9-1.5c-1.5-1.1-2.4-2.5-2.8-4.3
	c-0.6-2.7,0.1-5,2-7c0.5-0.5,1.1-1,1.8-1.3c0.1,0,0.1-0.1,0.1-0.2c-0.3-1.2-0.4-2.4-0.3-3.6c0.1-1.8,0.6-3.4,1.5-4.9
	c0.1-0.1,0.1-0.2,0.1-0.3c-0.1-0.6,0-1.2,0.5-1.6c1-0.9,2.2-1.6,3.4-2.1c0.9-0.3,1.9-0.6,2.9-0.7c0.5-0.1,1.1-0.1,1.6-0.1
	c0,0,0.1,0,0.1,0C-34.4,107.8-34.1,107.8-33.7,107.8z"/>
<g display="none">
	<path display="inline" fill="none" stroke="#FFFFFF" stroke-width="1.5" stroke-miterlimit="10" d="M9,127.4H8.5c-2.8,0-5-2.3-5-5
		l0-9.5c0-2.8,2.3-5,5-5H9c2.8,0,5,2.3,5,5v9.5C14,125.1,11.8,127.4,9,127.4z"/>
	<path display="inline" fill="none" stroke="#FFFFFF" stroke-width="1.5" stroke-linecap="round" stroke-miterlimit="10" d="
		M16.8,120.3c0,0,0.9,9-6.6,9.5v5.8h5.4"/>
	<path display="inline" fill="none" stroke="#FFFFFF" stroke-width="1.5" stroke-linecap="round" stroke-miterlimit="10" d="
		M0.8,120.3c0,0-0.9,9,6.6,9.5v5.8H2.1"/>
	<path display="inline" fill="#FFFFFF" d="M3.8,113.8h2.7c0.5,0,0.9-0.3,0.9-0.6l0,0c0-0.3-0.4-0.6-0.9-0.6H3.8V113.8z"/>
	<path display="inline" fill="#FFFFFF" d="M3.8,116.9h2.7c0.5,0,0.9-0.3,0.9-0.6v0c0-0.3-0.4-0.6-0.9-0.6H3.8V116.9z"/>
	<path display="inline" fill="#FFFFFF" d="M3.8,119.6h2.7c0.5,0,0.9-0.3,0.9-0.6l0,0c0-0.3-0.4-0.6-0.9-0.6H3.8V119.6z"/>
	<path display="inline" fill="#FFFFFF" d="M3.8,122.2h2.7c0.5,0,0.9-0.3,0.9-0.6v0c0-0.3-0.4-0.6-0.9-0.6H3.8V122.2z"/>
</g>
<g display="none">
	
		<polygon display="inline" fill="none" stroke="#FFFFFF" stroke-width="1.5" stroke-linecap="round" stroke-linejoin="round" stroke-miterlimit="10" points="
		-485.6,122.5 -485.6,107.2 -497,107.2 -497.9,107.2 -509.3,107.2 -509.3,122.5 -513.7,129.6 -497.9,129.6 -497,129.6 -481.2,129.6 
			"/>
	
		<line display="inline" fill="none" stroke="#FFFFFF" stroke-width="1.5" stroke-linecap="round" stroke-linejoin="round" stroke-miterlimit="10" x1="-509.3" y1="122.5" x2="-485.6" y2="122.5"/>
	
		<line display="inline" fill="none" stroke="#FFFFFF" stroke-width="1.5" stroke-linecap="round" stroke-linejoin="round" stroke-miterlimit="10" x1="-508" y1="126" x2="-486.9" y2="126"/>
	
		<line display="inline" fill="none" stroke="#FFFFFF" stroke-width="1.5" stroke-linecap="round" stroke-linejoin="round" stroke-miterlimit="10" x1="-501.4" y1="126" x2="-503.9" y2="129.6"/>
	
		<line display="inline" fill="none" stroke="#FFFFFF" stroke-width="1.5" stroke-linecap="round" stroke-linejoin="round" stroke-miterlimit="10" x1="-493.8" y1="126" x2="-491.3" y2="129.6"/>
</g>
<circle display="none" fill="#FFFFFF" cx="-446.1" cy="129.3" r="0.7"/>
</svg>
