<?xml version="1.0" encoding="utf-8"?>
<!-- Generator: Adobe Illustrator 18.0.0, SVG Export Plug-In . SVG Version: 6.00 Build 0)  -->
<!DOCTYPE svg PUBLIC "-//W3C//DTD SVG 1.1//EN" "http://www.w3.org/Graphics/SVG/1.1/DTD/svg11.dtd">
<svg version="1.1" id="Layer_1" xmlns="http://www.w3.org/2000/svg" xmlns:xlink="http://www.w3.org/1999/xlink" x="0px" y="0px"
	 viewBox="0 0 208.9 155.2" enable-background="new 0 0 208.9 155.2" xml:space="preserve">
<g>
	<g>
		<path fill="#FFFFFF" d="M181.4,155.2H13.2c-7.3,0-13.2-5.3-13.2-11.8V33.5C0,27,5.9,21.8,13.2,21.8h168.1
			c7.3,0,13.2,5.3,13.2,11.8v109.8C194.6,149.9,188.7,155.2,181.4,155.2z M13.2,31.9c-2,0-3.1,1.1-3.1,1.7v109.8
			c0,0.6,1.2,1.7,3.1,1.7h168.1c2,0,3.1-1.1,3.1-1.7V33.5c0-0.6-1.2-1.7-3.1-1.7H13.2z"/>
	</g>
	<g>
		<g>
			<path fill="#FFFFFF" d="M64.9,108.6c-12.5,0-22.7-10.9-22.7-24.4c0-13.4,10.2-24.4,22.7-24.4c12.5,0,22.7,10.9,22.7,24.4
				C87.6,97.7,77.4,108.6,64.9,108.6z M64.9,70c-7,0-12.6,6.4-12.6,14.3c0,7.9,5.7,14.3,12.6,14.3c6.9,0,12.6-6.4,12.6-14.3
				C77.5,76.4,71.9,70,64.9,70z"/>
		</g>
		<g>
			<path fill="#FFFFFF" d="M86,152.6H43.9c-6.1,0-11.3-4.8-11.7-10.9l-0.9-13.6c-0.6-9,5.5-18.3,14.2-21.5c12.6-4.5,26.3-4.5,38.8,0
				c8.9,3.3,15,12.5,14.4,21.6l-0.9,13.5C97.3,147.8,92.1,152.6,86,152.6z M64.9,113.3c-5.5,0-10.9,0.9-16,2.8
				c-4.4,1.6-7.9,6.9-7.6,11.4l0.9,13.6c0.1,0.9,0.8,1.6,1.7,1.6H86c0.9,0,1.6-0.7,1.7-1.6l0.9-13.5c0.3-4.6-3.1-9.7-7.7-11.4
				C75.7,114.2,70.4,113.3,64.9,113.3z"/>
		</g>
	</g>
	<g>
		<path fill="#FFFFFF" d="M155.5,87.2H118c-2.8,0-5-2.3-5-5c0-2.8,2.3-5,5-5h37.6c2.8,0,5,2.3,5,5C160.6,84.9,158.3,87.2,155.5,87.2
			z"/>
	</g>
	<g>
		<path fill="#FFFFFF" d="M155.5,65.3H118c-2.8,0-5-2.3-5-5c0-2.8,2.3-5,5-5h37.6c2.8,0,5,2.3,5,5C160.6,63.1,158.3,65.3,155.5,65.3
			z"/>
	</g>
	<g>
		<path fill="#FFFFFF" d="M195.7,0H27.6c-7.3,0-13.2,5.3-13.2,11.8v15.5h10.1V11.8c0-0.6,1.2-1.7,3.1-1.7h168.1c2,0,3.1,1.1,3.2,1.1
			l-11.5,105.7v37.4c4.2-1.9,7.1-5.7,7.1-9.9l14.4-132.6C208.9,5.3,203,0,195.7,0z"/>
	</g>
</g>
<g display="none">
	<g display="inline">
		<path fill="#1C1C1C" d="M-188.4,151.4l-5.9-13.8c-0.7,0.8-1.3,1.6-2,2.4v-7.1l-6.6-15.4V142c-9.3-9.9-16.7-19.9-22.1-30h19.8
			l-2.8-6.6h-20.2c-5.7-12.8-8.3-25.8-7.6-38.7c0.4-7.8,2.1-15.1,4.4-21.8h28.6v13.5h1l2.5,1.1l2.2,1c0.3,0.1,0.6,0.3,0.9,0.4v-16
			h26.6c2.3,6.7,3.9,14,4.4,21.8c0.1,2.4,0,4.9-0.1,7.3l6.5,2.8c0.2-3.5,0.3-7,0.1-10.5c-0.4-7.6-1.9-14.8-4-21.4h28.8
			c3.5,8.4,5.5,17.7,5.5,27.3c0,5.7-0.7,11.3-2,16.6l3.5,1.5c2.1,0.9,3.9,2.2,5.3,3.8c2-7,3.1-14.3,3.1-21.9
			C-118.6,27.4-155-9-199.7-9c-44.7,0-81.1,36.4-81.1,81.1c0,44.7,36.4,81.1,81.1,81.1c4,0,8-0.4,11.9-1
			C-188,152-188.3,151.7-188.4,151.4z M-137.1,38.2h-28c-6.4-16.2-16.3-28.7-23.5-36.3C-166.4,5.4-147.5,19.2-137.1,38.2z
			 M-196.4,3.5c6.4,6.3,17,18.4,24.1,34.7h-24.1V3.5z M-203,1.6v36.6h-26C-221.2,20.2-208.9,7.2-203,1.6z M-213,2.3
			c-7.2,7.6-16.9,20-23.2,35.9h-26C-252.2,19.8-234.3,6.3-213,2.3z M-270.9,72.2c0-9.7,2-18.9,5.5-27.3h26.8
			c-2.1,6.6-3.6,13.8-4,21.4c-0.8,13.2,1.7,26.2,7,39.2h-27.1C-267.9,95.5-270.9,84.2-270.9,72.2z M-258.7,112h26.1
			c5,10.2,12,20.3,20.8,30.3C-231.2,138.9-248,127.7-258.7,112z"/>
	</g>
	<path display="inline" fill="#1C1C1C" d="M-202,73.4c2.3,1,4.6,2,6.9,3c21.9,9.3,43.9,18.6,65.8,27.9c1.8,0.8,2,2.3,0.6,3.6
		c-5,4.4-10,8.8-15.1,13.2c-0.2,0.2-0.5,0.4-0.7,0.7c0.2,0.2,0.4,0.5,0.6,0.7c9.7,9.7,19.4,19.3,29.2,29c1.5,1.4,1.5,2.2,0,3.7
		c-2.7,2.7-5.4,5.4-8.1,8.1c-0.7,0.7-1.2,1-1.8,1c-0.6,0-1.1-0.3-1.8-1c-9.6-9.6-19.3-19.1-28.9-28.7c-0.2-0.2-0.4-0.4-0.7-0.7
		c-0.4,0.4-0.8,0.8-1.2,1.3c-4.1,4.6-8.2,9.1-12.3,13.7c-0.7,0.7-1.3,1.1-1.9,1.1c-0.7,0-1.4-0.6-1.9-1.8
		c-10.2-23.8-20.4-47.6-30.6-71.4c-0.1-0.3-0.3-0.5-0.4-0.8c0-0.8,0-1.7,0-2.5C-203.6,73.4-202.8,73.4-202,73.4"/>
</g>
</svg>
