<?xml version="1.0" encoding="utf-8"?>
<!-- Generator: Adobe Illustrator 18.0.0, SVG Export Plug-In . SVG Version: 6.00 Build 0)  -->
<!DOCTYPE svg PUBLIC "-//W3C//DTD SVG 1.1//EN" "http://www.w3.org/Graphics/SVG/1.1/DTD/svg11.dtd">
<svg version="1.1" id="Layer_1" xmlns="http://www.w3.org/2000/svg" xmlns:xlink="http://www.w3.org/1999/xlink" x="0px" y="0px"
	 viewBox="0 0 80 80" enable-background="new 0 0 80 80" xml:space="preserve">
<g>
	<g>
		<path fill="#FFFFFF" d="M69.5,69.7H5.1c-2.8,0-5.1-2-5.1-4.5V23.1c0-2.5,2.3-4.5,5.1-4.5h64.4c2.8,0,5.1,2,5.1,4.5v42
			C74.5,67.7,72.3,69.7,69.5,69.7z M5.1,22.5c-0.8,0-1.2,0.4-1.2,0.7v42c0,0.2,0.5,0.7,1.2,0.7h64.4c0.8,0,1.2-0.4,1.2-0.7V23.1
			c0-0.2-0.5-0.7-1.2-0.7L5.1,22.5L5.1,22.5z"/>
	</g>
	<g>
		<g>
			<path fill="#FFFFFF" d="M24.9,51.9c-4.8,0-8.7-4.2-8.7-9.3s3.9-9.3,8.7-9.3s8.7,4.2,8.7,9.3C33.5,47.7,29.6,51.9,24.9,51.9z
				 M24.9,37.1c-2.7,0-4.8,2.5-4.8,5.5s2.2,5.5,4.8,5.5s4.8-2.5,4.8-5.5S27.5,37.1,24.9,37.1z"/>
		</g>
		<g>
			<path fill="#FFFFFF" d="M32.9,68.7H16.8c-2.3,0-4.3-1.8-4.5-4.2L12,59.3c-0.2-3.4,2.1-7,5.4-8.2c4.8-1.7,10.1-1.7,14.9,0
				c3.4,1.3,5.7,4.8,5.5,8.3l-0.3,5.2C37.3,66.9,35.3,68.7,32.9,68.7z M24.9,53.7c-2.1,0-4.2,0.3-6.1,1.1c-1.7,0.6-3,2.6-2.9,4.4
				l0.3,5.2c0,0.3,0.3,0.6,0.7,0.6H33c0.3,0,0.6-0.3,0.7-0.6l0.3-5.2c0.1-1.8-1.2-3.7-2.9-4.4C29,54,27,53.7,24.9,53.7z"/>
		</g>
	</g>
	<g>
		<path fill="#FFFFFF" d="M59.6,43.7H45.2c-1.1,0-1.9-0.9-1.9-1.9c0-1.1,0.9-1.9,1.9-1.9h14.4c1.1,0,1.9,0.9,1.9,1.9
			S60.6,43.7,59.6,43.7z"/>
	</g>
	<g>
		<path fill="#FFFFFF" d="M59.6,35.3H45.2c-1.1,0-1.9-0.9-1.9-1.9c0-1.1,0.9-1.9,1.9-1.9h14.4c1.1,0,1.9,0.9,1.9,1.9
			C61.5,34.4,60.6,35.3,59.6,35.3z"/>
	</g>
	<g>
		<path fill="#FFFFFF" d="M74.9,10.3H10.6c-2.8,0-5.1,2-5.1,4.5v5.9h3.9v-5.9c0-0.2,0.5-0.7,1.2-0.7H75c0.8,0,1.2,0.4,1.2,0.4
			L71.8,55v14.3c1.6-0.7,2.7-2.2,2.7-3.8L80,14.8C80,12.3,77.7,10.3,74.9,10.3z"/>
	</g>
</g>
<g display="none">
	<g display="inline">
		<path fill="#1C1C1C" d="M-72.1,68.3l-2.3-5.3c-0.3,0.3-0.5,0.6-0.8,0.9v-2.7l-2.5-5.9v9.4c-3.6-3.8-6.4-7.6-8.5-11.5h7.6l-1.1-2.5
			h-7.7c-2.2-4.9-3.2-9.9-2.9-14.8c0.2-3,0.8-5.8,1.7-8.3h11v5.2h0.4l1,0.4l0.8,0.4c0.1,0,0.2,0.1,0.3,0.2v-6.1h10.2
			c0.9,2.6,1.5,5.4,1.7,8.3c0,0.9,0,1.9,0,2.8l2.5,1.1c0.1-1.3,0.1-2.7,0-4c-0.2-2.9-0.7-5.7-1.5-8.2h11c1.3,3.2,2.1,6.8,2.1,10.5
			c0,2.2-0.3,4.3-0.8,6.4l1.3,0.6c0.8,0.3,1.5,0.8,2,1.5c0.8-2.7,1.2-5.5,1.2-8.4c0-17.2-14-31.1-31.1-31.1s-31.1,13.9-31.1,31.1
			S-93.6,69-76.5,69c1.5,0,3.1-0.2,4.6-0.4C-72,68.5-72.1,68.4-72.1,68.3z M-52.5,24.9h-10.7c-2.5-6.2-6.2-11-9-13.9
			C-63.7,12.4-56.5,17.6-52.5,24.9z M-75.2,11.6c2.5,2.4,6.5,7,9.2,13.3h-9.2V11.6z M-77.7,10.9v14h-10C-84.7,18-80,13-77.7,10.9z
			 M-81.6,11.2c-2.8,2.9-6.5,7.7-8.9,13.7h-10C-96.6,17.9-89.7,12.7-81.6,11.2z M-103.7,37.9c0-3.7,0.8-7.2,2.1-10.5h10.3
			c-0.8,2.5-1.4,5.3-1.5,8.2c-0.3,5.1,0.7,10,2.7,15h-10.4C-102.6,46.9-103.7,42.5-103.7,37.9z M-99.1,53.2h10
			c1.9,3.9,4.6,7.8,8,11.6C-88.5,63.5-95,59.2-99.1,53.2z"/>
	</g>
	<path display="inline" fill="#1C1C1C" d="M-77.4,38.4c0.9,0.4,1.8,0.8,2.6,1.1c8.4,3.6,16.8,7.1,25.2,10.7c0.7,0.3,0.8,0.9,0.2,1.4
		c-1.9,1.7-3.8,3.4-5.8,5.1c-0.1,0.1-0.2,0.2-0.3,0.3c0.1,0.1,0.2,0.2,0.2,0.3c3.7,3.7,7.4,7.4,11.2,11.1c0.6,0.5,0.6,0.8,0,1.4
		c-1,1-2.1,2.1-3.1,3.1c-0.3,0.3-0.5,0.4-0.7,0.4s-0.4-0.1-0.7-0.4c-3.7-3.7-7.4-7.3-11.1-11c-0.1-0.1-0.2-0.2-0.3-0.3
		c-0.2,0.2-0.3,0.3-0.5,0.5c-1.6,1.8-3.1,3.5-4.7,5.2c-0.3,0.3-0.5,0.4-0.7,0.4c-0.3,0-0.5-0.2-0.7-0.7c-3.9-9.1-7.8-18.2-11.7-27.3
		c0-0.1-0.1-0.2-0.2-0.3c0-0.3,0-0.7,0-1C-78,38.4-77.7,38.4-77.4,38.4"/>
</g>
</svg>
