<?xml version="1.0" encoding="utf-8"?>
<!-- Generator: Adobe Illustrator 18.0.0, SVG Export Plug-In . SVG Version: 6.00 Build 0)  -->
<!DOCTYPE svg PUBLIC "-//W3C//DTD SVG 1.1//EN" "http://www.w3.org/Graphics/SVG/1.1/DTD/svg11.dtd">
<svg version="1.1" id="Layer_1" xmlns="http://www.w3.org/2000/svg" xmlns:xlink="http://www.w3.org/1999/xlink" x="0px" y="0px"
	 viewBox="0 0 80 80" enable-background="new 0 0 80 80" xml:space="preserve">
<rect x="-466.5" y="-47.7" display="none" fill="#010101" width="1794.5" height="414.8"/>
<path display="none" fill="none" stroke="#FFFFFF" stroke-miterlimit="10" d="M-69.8,179.8h-249.7c-16.1,0-29.2-13.1-29.2-29.2l0,0
	c0-16.1,13.1-29.2,29.2-29.2h249.7c16.1,0,29.2,13.1,29.2,29.2l0,0C-40.4,166.7-53.8,179.8-69.8,179.8z"/>
<g display="none">
	
		<text transform="matrix(1 0 0 1 -280.3064 158.7752)" display="inline" fill="#FFFFFF" font-family="'HelveticaNeue-Light'" font-size="20.0726">TEXT IN ALL CAPS</text>
</g>
<g display="none">
	<g display="inline">
		<path fill="#FFFFFF" d="M52.7,202.9c-28.8,0-52.3-23.5-52.3-52.3s23.5-52.3,52.3-52.3s52.3,23.5,52.3,52.3S81.7,202.9,52.7,202.9z
			 M52.7,100.4c-27.7,0-50.2,22.4-50.2,50.2s22.4,50.2,50.2,50.2s50.2-22.4,50.2-50.2S80.4,100.4,52.7,100.4z"/>
	</g>
	<g display="inline">
		
			<rect x="51.8" y="124.6" transform="matrix(-0.7071 -0.7071 0.7071 -0.7071 -16.1564 294.2639)" fill="#FFFFFF" width="2.1" height="51.9"/>
	</g>
	<g display="inline">
		
			<rect x="26.9" y="149.3" transform="matrix(-0.7071 -0.7071 0.7071 -0.7071 -16.0451 294.0137)" fill="#FFFFFF" width="51.9" height="2.1"/>
	</g>
</g>
<g display="none">
	
		<text transform="matrix(1 0 0 1 1083.1007 12.5593)" display="inline" fill="#FFFFFF" font-family="'HelveticaNeue-Light'" font-size="20.0726">LAPTOP</text>
	
		<text transform="matrix(1 0 0 1 1083.1007 36.6864)" display="inline" fill="#FFFFFF" font-family="'HelveticaNeue-Light'" font-size="20.0726">SMARTPHONE</text>
	
		<text transform="matrix(1 0 0 1 1083.1007 60.8135)" display="inline" fill="#FFFFFF" font-family="'HelveticaNeue-Light'" font-size="20.0726">TABLET</text>
	
		<text transform="matrix(1 0 0 1 1083.1007 84.7287)" display="inline" fill="#FFFFFF" font-family="'HelveticaNeue-Light'" font-size="20.0726">HARD DRIVE</text>
	
		<text transform="matrix(1 0 0 1 1083.1007 108.8558)" display="inline" fill="#FFFFFF" font-family="'HelveticaNeue-Light'" font-size="20.0726">CLOUD STORAGE</text>
	
		<text transform="matrix(1 0 0 1 1083.1007 132.982)" display="inline" fill="#FFFFFF" font-family="'HelveticaNeue-Light'" font-size="20.0726">DSLR</text>
	
		<text transform="matrix(1 0 0 1 1083.1007 157.1091)" display="inline" fill="#FFFFFF" font-family="'HelveticaNeue-Light'" font-size="20.0726">GAME CONTROLLER</text>
	
		<text transform="matrix(1 0 0 1 1083.1007 181.2362)" display="inline" fill="#FFFFFF" font-family="'HelveticaNeue-Light'" font-size="20.0726">WACOM PEN</text>
	
		<text transform="matrix(1 0 0 1 1083.1007 205.1522)" display="inline" fill="#FFFFFF" font-family="'HelveticaNeue-Light'" font-size="20.0726">HEADPHONES</text>
	
		<text transform="matrix(1 0 0 1 1083.1007 229.2794)" display="inline" fill="#FFFFFF" font-family="'HelveticaNeue-Light'" font-size="20.0726">MIC</text>
</g>
<g display="none">
	<path display="inline" fill="#FFFFFF" d="M-262.2,53.7H-320c-3.2,0-5.9-2.5-5.9-5.7V17.9c0-3.2,2.5-5.9,5.9-5.9h57.8
		c3.2,0,5.9,2.5,5.9,5.9v30.1C-256.3,51.1-259,53.7-262.2,53.7z M-320,15.1c-1.5,0-2.5,1.3-2.5,2.5v30.1c0,1.5,1.3,2.5,2.5,2.5h57.8
		c1.5,0,2.5-1.3,2.5-2.5V17.9c0-1.5-1.3-2.5-2.5-2.5H-320V15.1z"/>
</g>
<g display="none">
	<path display="inline" fill="#FFFFFF" d="M-258,47.1h-66.2c-0.8,0-1.7-0.6-1.7-1.7c0-1.1,0.6-1.7,1.7-1.7h66.2
		c0.8,0,1.7,0.6,1.7,1.7C-256.3,46.5-257.1,47.1-258,47.1z"/>
</g>
<g display="none">
	<path display="inline" fill="#FFFFFF" d="M-282.8,60.4h-16.9c-0.8,0-1.7-0.6-1.7-1.7v-4.7c0-0.8,0.6-1.7,1.7-1.7s1.7,0.6,1.7,1.7
		v3.2h13.8v-3.2c0-0.8,0.6-1.7,1.7-1.7c1.1,0,1.7,0.6,1.7,1.7v4.7C-281.1,59.8-281.7,60.4-282.8,60.4z"/>
</g>
<g display="none">
	<path display="inline" fill="#FFFFFF" d="M-277,65.5h-28.1c-0.6,0-1.1-0.4-1.1-1.1V64c0-0.6,0.4-1.1,1.1-1.1h28.1
		c0.6,0,1.1,0.4,1.1,1.1v0.4C-276,65.1-276.4,65.5-277,65.5z"/>
</g>
<g display="none">
	<path display="inline" fill="#FFFFFF" d="M486.8,60.4h-40.2c-7.8,0-14.4-6.8-14.4-14.6c0-5.7,3.4-11,8.5-13.3
		c0.2-5.5,4.7-9.7,10.2-9.7c1.7,0,3.4,0.4,4.9,1.3c3.2-5.9,9.5-9.7,16.3-9.7c8.3,0,15.2,5.3,17.8,13.1c7.6,1.3,13.5,8.5,13.5,16.5
		C503.3,52.8,495.7,60.4,486.8,60.4z M450.8,25.7c-3.8,0-7,3.2-7,7v0.2l0.2,1.5l-1.3,0.4c-4.4,1.5-7.4,5.9-7.4,10.8
		c0,6.1,5.1,11.4,11.2,11.4h40.2c7.2,0,13.3-6.1,13.3-13.5c0-6.8-5.3-12.7-11.9-13.5l-1.1-0.2l-0.4-0.8c-1.7-7-7.8-11.6-14.8-11.6
		c-6.3,0-11.9,3.8-14.2,9.5l-0.8,2.1l-1.7-1.5C454,26.3,452.3,25.7,450.8,25.7z"/>
</g>
<g display="none">
	<g display="inline">
		<path fill="#FFFFFF" d="M192,61.9h-54c-2.8,0-3.2-1.5-3.2-2.5V23.8l1.7-0.2c6.3,0,10.4-2.3,12.9-3.8c1.5-0.8,2.8-1.5,3.8-1.5h0.4
			l0.6-3.8c0.2-1.7,1.9-3,3.6-3h17.6c1.7,0,3.2,1.3,3.6,2.8l0.8,4h12.3c1.9,0,3.2,2.3,3.2,4v37C195.1,60.4,194.7,61.9,192,61.9z
			 M138,58.7L138,58.7h54l0,0V22.1c0-0.2-0.2-0.6-0.4-0.8h-14.6l-1.3-6.3c0-0.2-0.4-0.4-0.6-0.4h-17.6c-0.2,0-0.4,0.2-0.4,0.4
			l-1.1,6.3h-3c-0.4,0-1.5,0.6-2.3,1.1c-2.5,1.5-6.6,3.8-12.9,4.2v32.2H138z"/>
	</g>
	<g display="inline">
		<rect x="134.6" y="18.3" fill="#FFFFFF" width="6.8" height="3.2"/>
	</g>
	<g display="inline">
		<path fill="#FFFFFF" d="M166.6,55.1c-8.3,0-15-6.8-15-15s6.8-15,15-15c8.3,0,15,6.8,15,15C181.8,48.4,175,55.1,166.6,55.1z
			 M166.6,28.3c-6.6,0-11.9,5.3-11.9,11.9S160,52,166.6,52c6.6,0,11.9-5.3,11.9-11.9C178.6,33.5,173.1,28.3,166.6,28.3z"/>
	</g>
</g>
<g display="none">
	<path display="inline" fill="#FFFFFF" d="M391.1,62.5h-43.4V20.2h31.7c0.8,0,1.7,0.6,1.7,1.5s-0.6,1.7-1.7,1.7h-28.6v36h37V30.8
		c0-0.8,0.6-1.7,1.7-1.7s1.7,0.6,1.7,1.7v31.7H391.1z"/>
</g>
<g display="none">
	<path display="inline" fill="#FFFFFF" d="M366.3,46.9c-0.4,0-0.8-0.2-1.1-0.4c-0.6-0.6-0.6-1.7,0-2.3l32.6-32.6
		c0.4-0.4,1.1-0.6,1.7-0.4c0.6,0.2,1.1,0.8,1.1,1.5v16.5c0,0.8-0.6,1.7-1.7,1.7s-1.7-0.6-1.7-1.7V16.6l-29.8,29.8
		C367.2,46.9,366.8,46.9,366.3,46.9z"/>
</g>
<g display="none">
	<path display="inline" fill="#FFFFFF" d="M398.9,14.3h-17.8c-0.8,0-1.7-0.6-1.7-1.7s0.6-1.7,1.7-1.7h17.8c0.8,0,1.7,0.6,1.7,1.7
		S399.8,14.3,398.9,14.3z"/>
</g>
<g display="none">
	<path display="inline" fill="#FFFFFF" d="M297.8,61.5h-51.4c-3.8,0-6.6-2.3-6.6-5.7V39c0-0.4,0-0.8,0.2-1.3l7.4-15.9
		c0.2-0.6,0.4-0.8,0.6-1.1c0.8-1.5,2.3-4.2,5.5-4.2h36.8c3.4,0,4.9,2.8,5.7,4.2c0.2,0.4,0.4,0.6,0.4,0.8l7.4,16.3
		c0.2,0.4,0.2,0.8,0.2,1.3V56C304.1,59.2,301.6,61.5,297.8,61.5z M253.5,19.8c-1.3,0-1.9,1.1-2.8,2.5c-0.2,0.4-0.4,0.6-0.6,1.1
		L243,39.3v16.5c0,2.3,2.3,2.5,3.4,2.5h51.4c1.1,0,3.4-0.2,3.4-2.5V39l-7.4-15.9c0,0-0.2-0.4-0.4-0.6c-1.1-1.7-1.7-2.8-3-2.8
		C290.4,19.8,253.5,19.8,253.5,19.8z"/>
</g>
<g display="none">
	<rect x="241.3" y="37.4" display="inline" fill="#FFFFFF" width="61.4" height="3.2"/>
</g>
<g display="none">
	<path display="inline" fill="#FFFFFF" d="M249.7,53.4c-0.8,0-1.7-0.6-1.7-1.7v-4.4c0-0.8,0.6-1.7,1.7-1.7c1.1,0,1.7,0.6,1.7,1.7
		v4.4C251.4,52.8,250.6,53.4,249.7,53.4z"/>
</g>
<g display="none">
	<path display="inline" fill="#FFFFFF" d="M256.7,53.4c-0.8,0-1.7-0.6-1.7-1.7v-4.4c0-0.8,0.6-1.7,1.7-1.7c1.1,0,1.7,0.6,1.7,1.7
		v4.4C258.2,52.8,257.6,53.4,256.7,53.4z"/>
</g>
<g>
	<path fill="#AAAD00" d="M72.6,63.6H7.4c-4,0-7.4-3.4-7.4-7.4V23.8c0-4,3.4-7.4,7.4-7.4h65.2c4,0,7.4,3.4,7.4,7.4v32.4
		C80,60.4,76.8,63.6,72.6,63.6z M7.4,19.6c-2.3,0-4.2,1.9-4.2,4.2v32.4c0,2.3,1.9,4.2,4.2,4.2h65.2c2.3,0,4.2-1.9,4.2-4.2V23.8
		c0-2.3-1.9-4.2-4.2-4.2H7.4z"/>
</g>
<g>
	<rect x="69" y="18.1" fill="#AAAD00" width="3.2" height="44"/>
</g>
<g>
	<rect x="7.8" y="18.1" fill="#AAAD00" width="3.2" height="44"/>
</g>
<g display="none">
	<path display="inline" fill="#FFFFFF" d="M-51.9,65.3h-22.2c-3.2,0-5.7-2.5-5.7-5.7V14.7c0-3.2,2.5-5.7,5.7-5.7h22.2
		c3.2,0,5.7,2.5,5.7,5.7v44.9C-46.3,62.8-48.9,65.3-51.9,65.3z M-74.3,12.2c-1.3,0-2.5,1.1-2.5,2.5v44.9c0,1.3,1.1,2.5,2.5,2.5h22.2
		c1.3,0,2.5-1.1,2.5-2.5V14.7c0-1.3-1.1-2.5-2.5-2.5H-74.3z"/>
</g>
<g display="none">
	<rect x="-78.3" y="57" display="inline" fill="#FFFFFF" width="30.5" height="2.1"/>
</g>
<g display="none">
	<rect x="-78.3" y="14.9" display="inline" fill="#FFFFFF" width="30.5" height="2.1"/>
</g>
<g display="none">
	<path display="inline" fill="#FFFFFF" d="M546.9,66.3c-2.5,0-6.8-1.1-8-8.3c-0.2-0.6-3.8-18.4,5.9-34.7c3.8-6.3,8.5-9.5,14.4-9.5
		c6.1,0,11.2,3.8,11.6,4c0.6,0.4,2.1,1.1,2.8,1.1h3.8c0.8,0,2.1-0.4,2.8-1.1l0,0c0,0,5.3-4.2,11.9-4.2c5.9,0,10.8,3.2,14.4,9.5
		c9.5,16.3,5.9,34.1,5.9,34.9c-1.1,7-5.5,8-7.8,8c-0.2,0-0.6,0-0.8,0c-1.1,0-4.4-0.4-14.2-13.8l-0.2-0.4c-0.4-0.6-1.5-1.1-2.3-1.1
		h-23.1c-0.6,0-1.7,0.6-2.3,1.1l-0.2,0.4c-9.5,13.3-12.7,13.5-14,13.8C547.5,66.3,547.1,66.3,546.9,66.3z M559.2,17.2
		c-4.7,0-8.7,2.8-11.6,7.8c-9.1,15.2-5.7,32-5.5,32.6c0.6,4,2.3,5.7,5.3,5.5c0.4,0,3.4-0.8,11.6-12.3c0.2-0.2,0.4-0.4,0.4-0.4
		c1.1-1.3,3-2.3,4.7-2.3h23.1c1.7,0,3.6,1.1,4.7,2.3c0,0,0.2,0.2,0.4,0.4c8.7,11.9,11.6,12.5,11.9,12.5c3,0.2,4.7-1.5,5.3-5.5
		c0.2-0.8,3.6-17.4-5.5-32.6c-3.2-5.3-7-7.8-11.6-7.8c-5.3,0-9.7,3.4-9.7,3.4c-1.3,0.8-3.4,1.7-4.9,1.7h-3.8c-1.5,0-3.6-0.6-4.9-1.7
		C568.9,20.4,564.4,17.2,559.2,17.2z"/>
</g>
<g display="none">
	<path display="inline" fill="#FFFFFF" d="M588.4,42.9c-2.1,0-3.8-1.7-3.8-3.8s1.7-3.8,3.8-3.8s3.8,1.7,3.8,3.8
		C592,41.2,590.3,42.9,588.4,42.9z M588.4,36.9c-1.3,0-2.1,1.1-2.1,2.1s1.1,2.1,2.1,2.1c1.3,0,2.1-1.1,2.1-2.1
		S589.4,36.9,588.4,36.9z"/>
</g>
<g display="none">
	<path display="inline" fill="#FFFFFF" d="M588.4,33.8c-2.1,0-3.8-1.7-3.8-3.8s1.7-3.8,3.8-3.8s3.8,1.7,3.8,3.8
		C592,32.1,590.3,33.8,588.4,33.8z M588.4,27.8c-1.3,0-2.1,1.1-2.1,2.1s1.1,2.1,2.1,2.1c1.3,0,2.1-1.1,2.1-2.1
		S589.4,27.8,588.4,27.8z"/>
</g>
<g display="none">
	<path display="inline" fill="#FFFFFF" d="M597.2,38.4c-2.1,0-3.8-1.7-3.8-3.8c0-2.1,1.7-3.8,3.8-3.8s3.8,1.7,3.8,3.8
		C601.1,36.7,599.4,38.4,597.2,38.4z M597.2,32.3c-1.3,0-2.1,1.1-2.1,2.1s1.1,2.1,2.1,2.1c1.1,0,2.1-1.1,2.1-2.1
		S598.5,32.3,597.2,32.3z"/>
</g>
<g display="none">
	<path display="inline" fill="#FFFFFF" d="M558.7,41.6c-0.4,0-0.8-0.4-0.8-0.8V28.5c0-0.4,0.4-0.8,0.8-0.8s0.8,0.4,0.8,0.8v12.3
		C559.4,41.2,559.2,41.6,558.7,41.6z"/>
</g>
<g display="none">
	<path display="inline" fill="#FFFFFF" d="M564.9,35.2h-12.3c-0.4,0-0.8-0.4-0.8-0.8c0-0.4,0.4-0.8,0.8-0.8h12.3
		c0.4,0,0.8,0.4,0.8,0.8C565.7,34.8,565.3,35.2,564.9,35.2z"/>
</g>
<g display="none">
	<path display="inline" fill="#FFFFFF" d="M725.7,23.2h-0.6l-0.6-0.4l-4.9-4.9v-1.5l0.4-0.6c0,0,0.8-0.8,1.7-1.7
		c1.5-1.5,4-1.5,5.5,0l1.3,1.3c0.8,0.6,1.3,1.7,1.3,2.8s-0.4,1.9-1.1,2.8l-1.7,1.7C726.6,23,726.1,23.2,725.7,23.2z M723.2,17.2
		l1.7,1.7c0.2,0.2,0.4,0.4,0.6,0.6l0.6-0.6c0.2-0.2,0.2-0.2,0.2-0.4c0-0.2,0-0.4-0.2-0.4l-1.3-1.3c-0.4-0.4-0.6-0.4-1.1,0
		L723.2,17.2z"/>
</g>
<g display="none">
	<path display="inline" fill="#FFFFFF" d="M709.2,40.5l-7-6.8l18.8-18.6l7,6.8L709.2,40.5z M706.7,33.8l2.3,2.3l14.4-14.2l-2.3-2.3
		L706.7,33.8z"/>
</g>
<g display="none">
	<path display="inline" fill="#FFFFFF" d="M701.2,43.1c-0.4,0-0.8-0.2-1.1-0.4c-0.4-0.4-0.6-1.1-0.4-1.7l3.4-7.8l3,1.3l-1.9,4.2
		l4.4-1.9l1.3,3l-8,3.4C701.6,43.1,701.4,43.1,701.2,43.1z"/>
</g>
<g display="none">
	<path display="inline" fill="#FFFFFF" d="M720.4,64.4h-66c-3.2,0-5.9-2.5-5.9-5.9v-36c0-3.2,2.5-5.9,5.9-5.9h66
		c3.2,0,5.9,2.5,5.9,5.9v36.2C726.1,61.7,723.6,64.4,720.4,64.4z M654.2,19.8c-1.5,0-2.5,1.3-2.5,2.5v36.2c0,1.5,1.3,2.5,2.5,2.5h66
		c1.5,0,2.5-1.3,2.5-2.5v-36c0-1.5-1.3-2.5-2.5-2.5h-66V19.8z"/>
</g>
<g display="none">
	<rect x="661.2" y="18.3" display="inline" fill="#FFFFFF" width="3.2" height="44.7"/>
</g>
<g display="none">
	<path display="inline" fill="#FFFFFF" d="M823.1,74.8c-0.4,0-0.8,0-1.3,0c-1.9-0.2-3.4-1.7-3.4-3.6c0-0.6,0-1.5,0.2-2.1l1.7-23.1
		c0-0.6,0-1.5,0.2-2.1c0.2-2.1,1.9-3.8,4.2-3.6c0.2,0,0.4,0,0.4,0l0,0c0.2-1.9,0.4-3.6,0.2-5.5c-0.2-2.3-0.8-4.4-2.1-6.1
		c-0.8-0.2-1.7-0.6-2.3-1.3c-1.7-1.5-3.8-2.5-6.6-3.2c-2.1-0.4-4.7-0.6-7-0.6c-1.9,0-3.6,0.2-5.3,0.6c-2.1,0.6-3.8,1.5-5.3,2.5
		c-0.2,0.2-0.4,0.4-0.6,0.4c-0.6,0.6-1.5,1.1-2.3,1.3c-1.1,1.7-1.7,3.6-1.9,5.7c-0.2,1.9-0.2,3.8,0,5.9c0.2,0,0.6,0,0.8,0l0,0
		c2.1,0,3.6,1.5,3.8,3.6l1.9,27.3c0,1.1-0.2,2.1-0.8,2.8S796,75,794.9,75c-4.2,0.2-8-0.8-11.4-3.4c-3.4-2.5-5.7-5.9-6.6-9.9
		c-1.3-6.1,0.2-11.6,4.7-16.1c1.1-1.1,2.1-1.9,3.4-2.8c-0.4-2.3-0.6-4.9-0.6-7.2c0.2-4.2,1.3-7.6,3.4-10.8c-0.4-1.7,0.2-3.4,1.5-4.7
		c2.1-2.1,4.9-3.6,7.8-4.7c2.1-0.8,4.2-1.3,6.3-1.5c0.8,0,1.5-0.2,2.3-0.2l1.5-0.2h3.8c3.4,0.2,6.6,0.8,9.3,1.9
		c2.8,1.1,5.3,2.5,7.4,4.7c1.3,1.3,1.7,2.8,1.5,4.4c1.3,2.1,2.3,4.2,2.8,6.8c0.4,2.1,0.6,4.7,0.6,7c0,1.5-0.2,2.8-0.6,4.2
		c1.5,0.8,2.8,1.9,4,3.4c2.1,2.3,3.6,5.1,4,8.3c1.7,8.3-3,16.3-10.6,19.5C827.5,74.4,825.4,74.8,823.1,74.8z M824.1,43.3
		c-0.4,0-0.6,0.2-0.6,0.6c0,0.6,0,1.5-0.2,2.1l-1.5,23.3c0,0.6,0,1.3-0.2,2.1c0,0.2,0.2,0.4,0.4,0.4c2.1,0.2,4.2-0.2,6.1-1.1
		c6.3-2.5,9.9-9.3,8.7-15.9c-0.4-2.5-1.7-4.9-3.4-6.8c-1.1-1.3-2.5-2.3-4-3.2c-1.1-0.4-1.1-1.5-1.1-2.1c0.4-1.5,0.6-3,0.6-4.7
		c0.2-2.1,0-4.2-0.4-6.1c-0.4-2.3-1.5-4.4-2.5-6.1c-0.4-0.4-0.4-1.1-0.2-1.7c0.2-0.8,0-1.3-0.4-1.9c-1.7-1.7-3.8-3-6.3-3.8
		c-2.5-1.1-5.3-1.5-8.5-1.7h-1.3l-3-0.2c-0.8,0-1.5,0.2-2.3,0.2c-1.9,0.2-3.8,0.6-5.7,1.3c-2.8,1.1-4.9,2.3-6.8,4
		c-0.6,0.6-0.8,1.1-0.6,1.9c0.2,0.6,0,1.3-0.4,1.9c-1.9,2.8-2.8,5.9-3,9.5c-0.2,2.3,0,4.9,0.6,7.2c0.2,0.8-0.2,1.7-1.1,2.1
		c-1.3,0.6-2.5,1.5-3.4,2.5c-3.6,3.8-4.9,8.3-3.8,13.3c0.6,3.4,2.5,6.1,5.3,8.3s5.9,3,9.3,2.8c0.2,0,0.4,0,0.4-0.2
		c0-0.2,0.2-0.2,0.2-0.4l-1.5-27.1c0-0.6-0.4-0.6-0.4-0.6c-0.2,0-0.6,0-0.8,0H792c-0.2,0-0.4,0-0.6,0l-1.7,0.2l-0.4-1.7
		c-0.6-3-0.6-5.7-0.4-8.3c0.4-3,1.3-5.3,2.8-7.4c0.4-0.4,0.8-0.8,1.5-0.8c0.4,0,0.8-0.2,1.1-0.4c0.2-0.2,0.4-0.4,0.6-0.6
		c1.7-1.5,3.8-2.5,6.6-3.2c1.9-0.4,3.8-0.8,5.9-0.8c2.8-0.2,5.5,0,7.8,0.6c3.4,0.8,5.9,2.1,8,4c0.2,0.2,0.6,0.4,1.1,0.4
		c0.6,0,1.1,0.4,1.5,0.8c1.5,2.3,2.5,4.9,2.8,8c0.2,2.1,0.2,4.2-0.2,6.3c0,0.4-0.2,0.8-0.2,1.1l-0.4,1.9l-2.1-0.2
		C825.2,43.5,824.8,43.3,824.1,43.3L824.1,43.3z"/>
</g>
<g display="none">
	<g display="inline">
		<path fill="#FFFFFF" d="M900.1,58.1h-0.8c-6.8,0-12.3-5.5-12.3-12.3V25.7c0-6.8,5.5-12.3,12.3-12.3h0.8c6.8,0,12.3,5.5,12.3,12.3
			v20.1C912.4,52.6,906.9,58.1,900.1,58.1z M899.3,16.6c-5.1,0-9.1,4-9.1,9.1v20.1c0,5.1,4,9.1,9.1,9.1h0.8c5.1,0,9.1-4,9.1-9.1
			V25.7c0-5.1-4-9.1-9.1-9.1C900.1,16.6,899.3,16.6,899.3,16.6z"/>
	</g>
	<g display="inline">
		<path fill="#FFFFFF" d="M913.9,75.7H901V60.2l1.5-0.2c3.8-0.2,6.8-1.7,8.9-4.2c4.4-5.5,3.8-14.2,3.8-14.2c0-0.8,0.6-1.7,1.5-1.7
			c0.8,0,1.7,0.6,1.7,1.5c0,0.4,0.8,10.2-4.4,16.5c-2.3,3-5.7,4.7-9.5,5.3v9.3h9.7c0.8,0,1.7,0.6,1.7,1.7
			C915.8,75.2,914.7,75.7,913.9,75.7z"/>
	</g>
	<g display="inline">
		<path fill="#FFFFFF" d="M898.4,75.7h-12.9c-0.8,0-1.7-0.6-1.7-1.7c0-1.1,0.6-1.7,1.7-1.7h9.7V63c-4-0.6-7.2-2.3-9.5-5.3
			c-5.3-6.3-4.4-16.1-4.4-16.5c0-0.8,0.8-1.5,1.7-1.5s1.5,0.8,1.5,1.7c0,0-0.8,8.9,3.8,14.2c2.1,2.5,5.1,4,8.9,4.2l1.5,0.2v15.7
			H898.4z"/>
	</g>
	<g display="inline">
		<path fill="#FFFFFF" d="M889.1,27.8h5.7c1.1,0,1.9-0.6,1.9-1.3l0,0c0-0.6-0.8-1.3-1.9-1.3h-5.7V27.8z"/>
	</g>
	<g display="inline">
		<path fill="#FFFFFF" d="M889.1,34.4h5.7c1.1,0,1.9-0.6,1.9-1.3l0,0c0-0.6-0.8-1.3-1.9-1.3h-5.7V34.4z"/>
	</g>
	<g display="inline">
		<path fill="#FFFFFF" d="M889.1,40.1h5.7c1.1,0,1.9-0.6,1.9-1.3l0,0c0-0.6-0.8-1.3-1.9-1.3h-5.7V40.1z"/>
	</g>
	<g display="inline">
		<path fill="#FFFFFF" d="M889.1,45.6h5.7c1.1,0,1.9-0.6,1.9-1.3l0,0c0-0.6-0.8-1.3-1.9-1.3h-5.7V45.6z"/>
	</g>
</g>
<g display="none">
	<g display="inline">
		<path fill="#FFFFFF" d="M-137.4,63h-68.6c-0.6,0-1.1-0.2-1.5-0.8c-0.2-0.4-0.2-1.1,0-1.7l8.9-14.8V13.9c0-0.8,0.6-1.7,1.7-1.7
			h50.2c0.8,0,1.7,0.6,1.7,1.7v32l8.9,14.8c0.2,0.4,0.2,1.1,0,1.7C-136.3,62.5-136.9,63-137.4,63z M-203.2,59.8h63.1l-7.8-12.7
			c-0.2-0.4-0.2-0.6-0.2-1.1V15.3h-47V46c0,0.2,0,0.6-0.2,0.8L-203.2,59.8z"/>
	</g>
	<g display="inline">
		<path fill="#FFFFFF" d="M-146.7,47.7h-50.2c-0.8,0-1.7-0.6-1.7-1.7s0.6-1.7,1.7-1.7h50.2c0.8,0,1.7,0.6,1.7,1.7
			S-145.8,47.7-146.7,47.7z"/>
	</g>
	<g display="inline">
		<path fill="#FFFFFF" d="M-149.4,55.1h-44.7c-0.8,0-1.7-0.6-1.7-1.7s0.6-1.7,1.7-1.7h44.7c0.8,0,1.7,0.6,1.7,1.7
			S-148.6,55.1-149.4,55.1z"/>
	</g>
	<g display="inline">
		<path fill="#FFFFFF" d="M-185.4,63c-0.2,0-0.6,0-0.8-0.2c-0.6-0.4-0.8-1.5-0.4-2.1l5.3-7.8c0.4-0.6,1.5-0.8,2.1-0.4
			c0.6,0.4,0.8,1.5,0.4,2.1l-5.3,7.8C-184.3,62.5-185,63-185.4,63z"/>
	</g>
	<g display="inline">
		<path fill="#FFFFFF" d="M-158.7,63c-0.4,0-1.1-0.2-1.3-0.6l-5.3-7.8c-0.4-0.6-0.4-1.7,0.4-2.1c0.6-0.4,1.7-0.4,2.1,0.4l5.3,7.8
			c0.4,0.6,0.4,1.7-0.4,2.1C-158.1,62.8-158.3,63-158.7,63z"/>
	</g>
</g>
<g display="none">
	<circle display="inline" fill="#FFFFFF" cx="-63.1" cy="60.6" r="1.5"/>
</g>
<path display="none" fill="none" stroke="#FFFFFF" stroke-width="1.5" stroke-miterlimit="10" d="M-262.2,278.6H-320
	c-2.3,0-4.2-1.9-4.2-4.2v-30.1c0-2.3,1.9-4.2,4.2-4.2h57.8c2.3,0,4.2,1.9,4.2,4.2v30.1C-258,276.7-259.9,278.6-262.2,278.6z"/>
<line display="none" fill="none" stroke="#FFFFFF" stroke-width="1.5" stroke-linecap="round" stroke-linejoin="round" stroke-miterlimit="10" x1="-324.2" y1="272.1" x2="-258" y2="272.1"/>
<polyline display="none" fill="none" stroke="#FFFFFF" stroke-width="1.5" stroke-linecap="round" stroke-linejoin="round" stroke-miterlimit="10" points="
	-299.7,280.7 -299.7,285.4 -282.8,285.4 -282.8,280.7 "/>
<path display="none" fill="#FFFFFF" d="M-277,292h-28.1c-0.6,0-1.1-0.4-1.1-1.1v-0.4c0-0.6,0.4-1.1,1.1-1.1h28.1
	c0.6,0,1.1,0.4,1.1,1.1v0.4C-276,291.5-276.4,292-277,292z"/>
<path display="none" fill="none" stroke="#FFFFFF" stroke-width="1.5" stroke-miterlimit="10" d="M488.5,255.1
	c-1.9-7.4-8.5-12.9-16.5-12.9c-7.2,0-13.1,4.4-15.7,10.6c-1.5-1.3-3.4-2.1-5.5-2.1c-4.7,0-8.5,3.8-8.5,8.5c0,0.2,0,0.4,0,0.8
	c-5.1,1.7-8.5,6.8-8.5,12.3c0,7,5.7,13.1,12.7,13.1h40.2c8.3,0,14.8-7,14.8-15.2C501.6,262.5,495.9,255.8,488.5,255.1z"/>
<g display="none">
	<path display="inline" fill="none" stroke="#FFFFFF" stroke-width="1.5" stroke-miterlimit="10" d="M192,246.2h-13.5l-1.1-5.1
		c-0.2-0.8-1.3-1.7-2.1-1.7h-17.6c-0.8,0-1.9,0.8-1.9,1.7l-0.8,5.1h-1.7c-2.3,0-6.8,5.5-16.9,5.5v0.2c0,0,0,0.8,0,1.9v32
		c0,0.8,0.8,1.1,1.7,1.1h54c0.8,0,1.7,0,1.7-1.1v-37C193.7,247.7,192.8,246.2,192,246.2z"/>
	
		<line display="inline" fill="none" stroke="#FFFFFF" stroke-width="1.5" stroke-miterlimit="10" x1="134.6" y1="246.2" x2="141.4" y2="246.2"/>
	
		<circle display="inline" fill="none" stroke="#FFFFFF" stroke-width="1.5" stroke-miterlimit="10" cx="166.6" cy="266.6" r="13.5"/>
</g>
<polyline display="none" fill="none" stroke="#FFFFFF" stroke-width="1.5" stroke-linecap="round" stroke-miterlimit="10" points="
	389.4,257.2 389.4,287.5 349.4,287.5 349.4,248.4 379.7,248.4 "/>
<polyline display="none" fill="none" stroke="#FFFFFF" stroke-width="1.5" stroke-linecap="round" stroke-linejoin="round" stroke-miterlimit="10" points="
	366.3,271.9 398.9,239.3 398.9,255.6 "/>
<line display="none" fill="none" stroke="#FFFFFF" stroke-width="1.5" stroke-linecap="round" stroke-linejoin="round" stroke-miterlimit="10" x1="398.9" y1="239.3" x2="381.2" y2="239.3"/>
<path display="none" fill="none" stroke="#FFFFFF" stroke-width="1.5" stroke-miterlimit="10" d="M297.8,286.5h-51.4
	c-3,0-4.9-1.7-4.9-4v-16.7c0-0.2,0-0.4,0.2-0.4l7.4-15.9c0.2-0.4,0.4-0.6,0.6-1.1c0.8-1.5,1.9-3.4,4.2-3.4h36.8
	c2.3,0,3.4,1.9,4.2,3.4c0.2,0.2,0.2,0.6,0.4,0.8l7.4,16.1c0,0.2,0.2,0.4,0.2,0.4v16.7C302.6,284.8,300.7,286.5,297.8,286.5z"/>
<line display="none" fill="none" stroke="#FFFFFF" stroke-width="1.5" stroke-miterlimit="10" x1="241.3" y1="265.5" x2="302.6" y2="265.5"/>
<line display="none" fill="none" stroke="#FFFFFF" stroke-width="1.5" stroke-linecap="round" stroke-miterlimit="10" x1="249.7" y1="274" x2="249.7" y2="278.4"/>
<line display="none" fill="none" stroke="#FFFFFF" stroke-width="1.5" stroke-linecap="round" stroke-miterlimit="10" x1="256.7" y1="274" x2="256.7" y2="278.4"/>
<path display="none" fill="none" stroke="#FFFFFF" stroke-width="1.5" stroke-miterlimit="10" d="M78.5,250.3v32.4
	c0,3.2-2.5,5.9-5.9,5.9H7.4c-3.2,0-5.9-2.5-5.9-5.9v-32.4c0-3.2,2.5-5.9,5.9-5.9h65.2C75.8,244.6,78.5,247.1,78.5,250.3z"/>
<line display="none" fill="none" stroke="#FFFFFF" stroke-width="1.5" stroke-miterlimit="10" x1="70.5" y1="244.6" x2="70.5" y2="288.6"/>
<line display="none" fill="none" stroke="#FFFFFF" stroke-width="1.5" stroke-miterlimit="10" x1="9.3" y1="244.6" x2="9.3" y2="288.6"/>
<path display="none" fill="none" stroke="#FFFFFF" stroke-width="1.5" stroke-miterlimit="10" d="M-51.9,290.3h-22.2
	c-2.3,0-4-1.9-4-4v-44.9c0-2.3,1.9-4,4-4h22.2c2.3,0,4,1.9,4,4v44.9C-47.8,288.4-49.7,290.3-51.9,290.3z"/>
<line display="none" fill="none" stroke="#FFFFFF" stroke-miterlimit="10" x1="-47.8" y1="284.8" x2="-78.3" y2="284.8"/>
<line display="none" fill="none" stroke="#FFFFFF" stroke-miterlimit="10" x1="-47.8" y1="242.4" x2="-78.3" y2="242.4"/>
<path display="none" fill="none" stroke="#FFFFFF" stroke-width="1.5" stroke-miterlimit="10" d="M605.3,250.9
	c-3.4-5.7-7.8-8.7-13.1-8.7c-5.9,0-10.8,3.8-10.8,3.8c-0.8,0.6-2.8,1.3-3.8,1.3h-3.8c-1.1,0-3-0.6-3.8-1.3
	c-0.2-0.2-4.9-3.8-10.8-3.8c-5.3,0-9.7,3-13.1,8.7c-9.3,15.9-5.7,33-5.7,33.7c0.8,5.7,4,6.8,6.3,6.8c0.2,0,0.4,0,0.6,0
	c4-0.4,12.7-12.9,13.1-13.3c0.8-0.8,2.3-1.7,3.4-1.7h23.1c1.1,0,2.8,0.8,3.4,1.7c0.4,0.4,9.3,13.1,13.3,13.5c0.2,0,0.4,0,0.6,0
	c2.3,0,5.5-1.3,6.3-6.8C611,284.3,614.6,266.8,605.3,250.9z"/>
<path display="none" fill="none" stroke="#FFFFFF" stroke-width="0.75" stroke-linecap="round" stroke-linejoin="round" stroke-miterlimit="10" d="
	M588.4,268.5c-1.7,0-3-1.3-3-3c0-1.7,1.3-3,3-3s3,1.3,3,3C591.3,267.2,589.8,268.5,588.4,268.5z"/>
<path display="none" fill="none" stroke="#FFFFFF" stroke-width="0.75" stroke-linecap="round" stroke-linejoin="round" stroke-miterlimit="10" d="
	M588.4,259.6c-1.7,0-3-1.3-3-3c0-1.7,1.3-3,3-3s3,1.3,3,3C591.3,258.3,589.8,259.6,588.4,259.6z"/>
<circle display="none" fill="none" stroke="#FFFFFF" stroke-width="0.75" stroke-linecap="round" stroke-linejoin="round" stroke-miterlimit="10" cx="597.2" cy="261.1" r="3"/>
<line display="none" fill="none" stroke="#FFFFFF" stroke-width="0.75" stroke-linecap="round" stroke-linejoin="round" stroke-miterlimit="10" x1="558.7" y1="254.9" x2="558.7" y2="267.2"/>
<line display="none" fill="none" stroke="#FFFFFF" stroke-width="0.75" stroke-linecap="round" stroke-linejoin="round" stroke-miterlimit="10" x1="552.6" y1="261.1" x2="564.9" y2="261.1"/>
<path display="none" fill="none" stroke="#FFFFFF" stroke-width="1.5" stroke-miterlimit="10" d="M725.9,242c-0.8-0.8-2.3-0.8-3.4,0
	c-0.8,0.8-1.7,1.7-1.7,1.7v0.2c0,0,0.8,0.8,1.7,1.7l1.1,1.1c0.8,0.8,1.7,1.7,1.7,1.7h0.2c0,0,0.8-0.8,1.7-1.7c0.8-0.8,0.8-2.3,0-3.2
	L725.9,242z"/>
<polygon display="none" fill="none" stroke="#FFFFFF" stroke-width="1.5" stroke-miterlimit="10" points="721.1,243.7 704.6,260.2 
	709.2,264.7 725.7,248.1 "/>
<polyline display="none" fill="none" stroke="#FFFFFF" stroke-width="1.5" stroke-linejoin="round" stroke-miterlimit="10" points="
	704.6,260.2 701.2,268 701.2,268 709.2,264.7 "/>
<path display="none" fill="none" stroke="#FFFFFF" stroke-width="1.5" stroke-linejoin="round" stroke-miterlimit="10" d="
	M720.4,289.2h-66c-2.3,0-4.2-1.9-4.2-4.2v-36.2c0-2.3,1.9-4.2,4.2-4.2h66c2.3,0,4.2,1.9,4.2,4.2V285
	C724.7,287.3,722.8,289.2,720.4,289.2z"/>
<line display="none" fill="none" stroke="#FFFFFF" stroke-width="1.5" stroke-miterlimit="10" x1="662.9" y1="289.2" x2="662.9" y2="244.8"/>
<path display="none" fill="none" stroke="#FFFFFF" stroke-width="1.5" stroke-miterlimit="10" d="M809.7,241.6c0.4,0,0.8,0,1.3,0
	c3,0.2,5.9,0.6,8.9,1.9c2.5,1.1,4.9,2.3,6.8,4.2c1.1,1.1,1.3,2.1,0.8,3.4c0,0.2,0,0.2,0,0.4c1.5,2.1,2.3,4.2,2.8,6.8
	c0.4,2.1,0.6,4.4,0.4,6.6c0,1.7-0.4,3.4-0.6,4.9c0,0.2,0,0.2,0.2,0.2c1.7,0.8,3.2,2.1,4.4,3.4c1.9,2.1,3.2,4.7,3.8,7.4
	c1.5,7.4-2.5,14.8-9.5,17.8c-2.3,0.8-4.4,1.3-7,1.1c-1.1,0-1.9-0.8-1.9-2.1c0-0.8,0-1.9,0.2-2.8c0.2-1.7,0.2-3.2,0.4-4.9
	c0.2-1.9,0.2-3.8,0.4-5.5c0.2-1.9,0.2-3.6,0.4-5.5c0.2-1.9,0.2-3.8,0.4-5.5c0-1.1,0.2-2.1,0.2-3.2c0-1.3,1.1-2.1,2.3-2.1
	c0.6,0,1.3,0.2,1.9,0.2c0-0.4,0.2-1.1,0.2-1.5c0.2-1.9,0.4-3.8,0.2-5.9c-0.2-2.5-1.1-5.1-2.5-7.4l-0.2-0.2c-0.6,0-1.3-0.4-1.9-0.8
	c-2.1-1.9-4.4-3-7.2-3.6c-2.5-0.6-5.1-0.6-7.4-0.6c-1.9,0-3.8,0.2-5.5,0.8c-2.1,0.6-4.2,1.5-5.9,3c-0.2,0.2-0.4,0.4-0.6,0.6
	c-0.6,0.4-1.3,0.8-1.9,0.8c-0.2,0-0.2,0.2-0.2,0.2c-1.5,2.1-2.1,4.4-2.5,6.8c-0.4,2.5-0.2,5.3,0.4,7.8c0,0,0,0,0,0.2
	c0.2,0,0.6,0,0.8-0.2c0.4,0,0.8-0.2,1.5-0.2c1.3,0,2.1,0.8,2.1,2.1c0.2,3.2,0.4,6.3,0.6,9.5c0.2,2.5,0.4,5.1,0.4,7.8
	c0.2,2.8,0.4,5.7,0.6,8.5c0,0.4,0,1.1,0,1.5c0,1.3-0.8,2.3-2.1,2.3c-3.8,0.2-7.2-0.8-10.4-3.2c-3.2-2.3-5.1-5.3-5.9-9.1
	c-1.3-5.7,0.2-10.6,4.2-14.8c1.1-1.1,2.3-2.1,3.8-2.8c0.2,0,0.2-0.2,0.2-0.4c-0.6-2.5-0.8-5.1-0.6-7.6c0.2-3.8,1.3-7.2,3.2-10.4
	c0.2-0.2,0.2-0.4,0.2-0.6c-0.2-1.3,0-2.5,1.1-3.4c2.1-1.9,4.7-3.4,7.2-4.4c1.9-0.6,4-1.3,6.1-1.5c1.1-0.2,2.3-0.2,3.4-0.2h0.2
	C808.3,241.6,808.9,241.6,809.7,241.6z"/>
<g display="none">
	<path display="inline" fill="none" stroke="#FFFFFF" stroke-width="1.5" stroke-miterlimit="10" d="M900.1,283.1h-0.8
		c-5.9,0-10.6-4.9-10.6-10.6v-20.1c0-5.9,4.9-10.6,10.6-10.6h0.8c5.9,0,10.6,4.9,10.6,10.6v20.1C910.7,278.2,906,283.1,900.1,283.1z
		"/>
	<path display="inline" fill="none" stroke="#FFFFFF" stroke-width="1.5" stroke-linecap="round" stroke-miterlimit="10" d="
		M916.6,268c0,0,1.9,19-14,20.1v12.3h11.4"/>
	<path display="inline" fill="none" stroke="#FFFFFF" stroke-width="1.5" stroke-linecap="round" stroke-miterlimit="10" d="
		M882.8,268c0,0-1.9,19,14,20.1v12.3h-11.4"/>
	<path display="inline" fill="#FFFFFF" d="M889.1,254.3h5.7c1.1,0,1.9-0.6,1.9-1.3l0,0c0-0.6-0.8-1.3-1.9-1.3h-5.7V254.3z"/>
	<path display="inline" fill="#FFFFFF" d="M889.1,260.8h5.7c1.1,0,1.9-0.6,1.9-1.3l0,0c0-0.6-0.8-1.3-1.9-1.3h-5.7V260.8z"/>
	<path display="inline" fill="#FFFFFF" d="M889.1,266.6h5.7c1.1,0,1.9-0.6,1.9-1.3l0,0c0-0.6-0.8-1.3-1.9-1.3h-5.7V266.6z"/>
	<path display="inline" fill="#FFFFFF" d="M889.1,272.1h5.7c1.1,0,1.9-0.6,1.9-1.3l0,0c0-0.6-0.8-1.3-1.9-1.3h-5.7V272.1z"/>
</g>
<g display="none">
	
		<polygon display="inline" fill="none" stroke="#FFFFFF" stroke-width="1.5" stroke-linecap="round" stroke-linejoin="round" stroke-miterlimit="10" points="
		-146.7,272.5 -146.7,240.3 -170.8,240.3 -172.7,240.3 -196.8,240.3 -196.8,272.5 -206.1,287.7 -172.7,287.7 -170.8,287.7 
		-137.4,287.7 	"/>
	
		<line display="inline" fill="none" stroke="#FFFFFF" stroke-width="1.5" stroke-linecap="round" stroke-linejoin="round" stroke-miterlimit="10" x1="-196.8" y1="272.5" x2="-146.7" y2="272.5"/>
	
		<line display="inline" fill="none" stroke="#FFFFFF" stroke-width="1.5" stroke-linecap="round" stroke-linejoin="round" stroke-miterlimit="10" x1="-194.1" y1="280.1" x2="-149.4" y2="280.1"/>
	
		<line display="inline" fill="none" stroke="#FFFFFF" stroke-width="1.5" stroke-linecap="round" stroke-linejoin="round" stroke-miterlimit="10" x1="-180.1" y1="280.1" x2="-185.4" y2="287.7"/>
	
		<line display="inline" fill="none" stroke="#FFFFFF" stroke-width="1.5" stroke-linecap="round" stroke-linejoin="round" stroke-miterlimit="10" x1="-164" y1="280.1" x2="-158.7" y2="287.7"/>
</g>
<circle display="none" fill="#FFFFFF" cx="-63.1" cy="287.1" r="1.5"/>
</svg>
