<?xml version="1.0" encoding="utf-8"?>
<!-- Generator: Adobe Illustrator 18.0.0, SVG Export Plug-In . SVG Version: 6.00 Build 0)  -->
<!DOCTYPE svg PUBLIC "-//W3C//DTD SVG 1.1//EN" "http://www.w3.org/Graphics/SVG/1.1/DTD/svg11.dtd">
<svg version="1.1" id="Layer_1" xmlns="http://www.w3.org/2000/svg" xmlns:xlink="http://www.w3.org/1999/xlink" x="0px" y="0px"
	 viewBox="0 0 38.4 24.2" enable-background="new 0 0 38.4 24.2" xml:space="preserve">
<rect x="-526.8" y="-28.8" display="none" fill="#010101" width="847.9" height="196"/>
<path display="none" fill="none" stroke="#FFFFFF" stroke-miterlimit="10" d="M-339.3,78.7h-118c-7.6,0-13.8-6.2-13.8-13.8v0
	c0-7.6,6.2-13.8,13.8-13.8h118c7.6,0,13.8,6.2,13.8,13.8v0C-325.5,72.5-331.7,78.7-339.3,78.7z"/>
<g display="none">
	
		<text transform="matrix(1 0 0 1 -438.8023 68.78)" display="inline" fill="#FFFFFF" font-family="'HelveticaNeue-Light'" font-size="9.4843">TEXT IN ALL CAPS</text>
</g>
<g display="none">
	<g display="inline">
		<path fill="#FFFFFF" d="M-281.4,89.6c-13.6,0-24.7-11.1-24.7-24.7s11.1-24.7,24.7-24.7c13.6,0,24.7,11.1,24.7,24.7
			S-267.8,89.6-281.4,89.6z M-281.4,41.2c-13.1,0-23.7,10.6-23.7,23.7s10.6,23.7,23.7,23.7s23.7-10.6,23.7-23.7
			S-268.4,41.2-281.4,41.2z"/>
	</g>
	<g display="inline">
		
			<rect x="-281.9" y="52.6" transform="matrix(0.7071 0.7071 -0.7071 0.7071 -36.5669 217.9478)" fill="#FFFFFF" width="1" height="24.5"/>
	</g>
	<g display="inline">
		
			<rect x="-293.6" y="64.3" transform="matrix(0.7071 0.7071 -0.7071 0.7071 -36.5712 217.9547)" fill="#FFFFFF" width="24.5" height="1"/>
	</g>
</g>
<g display="none">
	<text transform="matrix(1 0 0 1 205.4076 -0.3072)" display="inline"><tspan x="0" y="0" fill="#FFFFFF" font-family="'HelveticaNeue-Light'" font-size="9.4843">LAPTOP</tspan><tspan x="0" y="11.4" fill="#FFFFFF" font-family="'HelveticaNeue-Light'" font-size="9.4843">SMARTPHONE</tspan><tspan x="0" y="22.8" fill="#FFFFFF" font-family="'HelveticaNeue-Light'" font-size="9.4843">TABLET</tspan><tspan x="0" y="34.1" fill="#FFFFFF" font-family="'HelveticaNeue-Light'" font-size="9.4843">HARD DRIVE</tspan><tspan x="0" y="45.5" fill="#FFFFFF" font-family="'HelveticaNeue-Light'" font-size="9.4843">CLOUD STORAGE</tspan><tspan x="0" y="56.9" fill="#FFFFFF" font-family="'HelveticaNeue-Light'" font-size="9.4843">DSLR</tspan><tspan x="0" y="68.3" fill="#FFFFFF" font-family="'HelveticaNeue-Light'" font-size="9.4843">GAME CONTROLLER</tspan><tspan x="0" y="79.7" fill="#FFFFFF" font-family="'HelveticaNeue-Light'" font-size="9.4843">WACOM PEN</tspan><tspan x="0" y="91" fill="#FFFFFF" font-family="'HelveticaNeue-Light'" font-size="9.4843">HEADPHONES</tspan><tspan x="0" y="102.4" fill="#FFFFFF" font-family="'HelveticaNeue-Light'" font-size="9.4843">MIC</tspan></text>
</g>
<g display="none">
	<path display="inline" fill="#FFFFFF" d="M-430.2,19.1h-27.3c-1.5,0-2.8-1.2-2.8-2.8V2.2c0-1.5,1.2-2.8,2.8-2.8h27.3
		c1.5,0,2.8,1.2,2.8,2.8v14.2C-427.5,17.9-428.7,19.1-430.2,19.1z M-457.5,1c-0.7,0-1.2,0.6-1.2,1.3v14.2c0,0.7,0.6,1.2,1.2,1.2
		h27.3c0.7,0,1.2-0.6,1.2-1.2V2.2c0-0.7-0.6-1.3-1.2-1.3H-457.5z"/>
</g>
<g display="none">
	<path display="inline" fill="#FFFFFF" d="M-428.2,16h-31.3c-0.4,0-0.8-0.3-0.8-0.8s0.3-0.8,0.8-0.8h31.3c0.4,0,0.8,0.3,0.8,0.8
		S-427.8,16-428.2,16z"/>
</g>
<g display="none">
	<path display="inline" fill="#FFFFFF" d="M-439.9,22.3h-8c-0.4,0-0.8-0.3-0.8-0.8v-2.2c0-0.4,0.3-0.8,0.8-0.8s0.8,0.3,0.8,0.8v1.5
		h6.5v-1.5c0-0.4,0.3-0.8,0.8-0.8s0.8,0.3,0.8,0.8v2.2C-439.2,22-439.5,22.3-439.9,22.3z"/>
</g>
<g display="none">
	<path display="inline" fill="#FFFFFF" d="M-437.3,24.7h-13.3c-0.3,0-0.5-0.2-0.5-0.5v-0.2c0-0.3,0.2-0.5,0.5-0.5h13.3
		c0.3,0,0.5,0.2,0.5,0.5v0.2C-436.7,24.5-437,24.7-437.3,24.7z"/>
</g>
<g display="none">
	<path display="inline" fill="#FFFFFF" d="M-76.3,22.3h-19.1c-3.7,0-6.8-3.2-6.8-6.9c0-2.7,1.6-5.2,4-6.3c0.1-2.6,2.2-4.6,4.8-4.6
		c0.8,0,1.6,0.2,2.3,0.6c1.5-2.8,4.5-4.6,7.7-4.6c3.9,0,7.2,2.5,8.4,6.2c3.6,0.6,6.4,4,6.4,7.8C-68.6,18.7-72.1,22.3-76.3,22.3z
		 M-93.4,5.9c-1.8,0-3.3,1.5-3.3,3.3c0,0,0,0.1,0,0.1l0.1,0.7l-0.6,0.2c-2.1,0.7-3.5,2.8-3.5,5.1c0,2.9,2.4,5.4,5.3,5.4h19.1
		c3.4,0,6.3-2.9,6.3-6.4c0-3.2-2.5-6-5.6-6.4L-76.2,8l-0.1-0.5c-0.8-3.3-3.7-5.5-7-5.5c-3,0-5.6,1.8-6.7,4.5l-0.4,1l-0.8-0.7
		C-91.9,6.2-92.6,5.9-93.4,5.9z"/>
</g>
<g display="none">
	<g display="inline">
		<path fill="#FFFFFF" d="M-215.7,23h-25.5c-1.3,0-1.5-0.7-1.5-1.2V5l0.8-0.1c3,0,4.9-1.1,6.1-1.8c0.7-0.4,1.3-0.7,1.8-0.7h0.2
			l0.3-1.8c0.1-0.8,0.9-1.4,1.7-1.4h8.3c0.8,0,1.5,0.6,1.7,1.3l0.4,1.9h5.8c0.9,0,1.5,1.1,1.5,1.9v17.5
			C-214.1,22.3-214.4,23-215.7,23z M-241.2,21.5C-241.2,21.5-241.2,21.5-241.2,21.5h25.5c0,0,0,0,0,0V4.3c0-0.1-0.1-0.3-0.2-0.4
			h-6.9l-0.6-3c0-0.1-0.2-0.2-0.3-0.2h-8.3c-0.1,0-0.2,0.1-0.2,0.2l-0.5,3h-1.4c-0.2,0-0.7,0.3-1.1,0.5c-1.2,0.7-3.1,1.8-6.1,2V21.5
			z"/>
	</g>
	<g display="inline">
		<rect x="-242.7" y="2.4" fill="#FFFFFF" width="3.2" height="1.5"/>
	</g>
	<g display="inline">
		<path fill="#FFFFFF" d="M-227.6,19.8c-3.9,0-7.1-3.2-7.1-7.1c0-3.9,3.2-7.1,7.1-7.1s7.1,3.2,7.1,7.1
			C-220.5,16.6-223.7,19.8-227.6,19.8z M-227.6,7.1c-3.1,0-5.6,2.5-5.6,5.6c0,3.1,2.5,5.6,5.6,5.6s5.6-2.5,5.6-5.6
			C-222,9.6-224.5,7.1-227.6,7.1z"/>
	</g>
</g>
<g display="none">
	<path display="inline" fill="#FFFFFF" d="M-121.6,23.3H-142v-20h15c0.4,0,0.8,0.3,0.8,0.7s-0.3,0.8-0.8,0.8h-13.5v17h17.5V8.3
		c0-0.4,0.3-0.8,0.8-0.8s0.8,0.3,0.8,0.8V23.3z"/>
</g>
<g display="none">
	<path display="inline" fill="#FFFFFF" d="M-133.3,16c-0.2,0-0.4-0.1-0.5-0.2c-0.3-0.3-0.3-0.8,0-1.1l15.4-15.4
		c0.2-0.2,0.5-0.3,0.8-0.2c0.3,0.1,0.5,0.4,0.5,0.7v7.7c0,0.4-0.3,0.8-0.8,0.8s-0.8-0.3-0.8-0.8V1.6l-14.1,14.1
		C-132.9,15.9-133.1,16-133.3,16z"/>
</g>
<g display="none">
	<path display="inline" fill="#FFFFFF" d="M-117.9,0.5h-8.4c-0.4,0-0.8-0.3-0.8-0.8s0.3-0.8,0.8-0.8h8.4c0.4,0,0.8,0.3,0.8,0.8
		S-117.5,0.5-117.9,0.5z"/>
</g>
<g display="none">
	<path display="inline" fill="#FFFFFF" d="M-165.7,22.8H-190c-1.8,0-3.1-1.1-3.1-2.7v-7.9c0-0.2,0-0.4,0.1-0.6l3.5-7.5
		c0.1-0.3,0.2-0.4,0.3-0.5c0.4-0.7,1.1-2,2.6-2h17.4c1.6,0,2.3,1.3,2.7,2c0.1,0.2,0.2,0.3,0.2,0.4l3.5,7.7c0.1,0.2,0.1,0.4,0.1,0.6
		v7.9C-162.6,21.7-163.9,22.8-165.7,22.8z M-186.6,3.1c-0.6,0-0.9,0.5-1.3,1.2c-0.1,0.2-0.2,0.3-0.3,0.5l-3.4,7.5l0,7.8
		c0,1.1,1.1,1.2,1.6,1.2h24.3c0.5,0,1.6-0.1,1.6-1.2v-7.9l-3.5-7.5c0,0-0.1-0.2-0.2-0.3c-0.5-0.8-0.8-1.3-1.4-1.3H-186.6z"/>
</g>
<g display="none">
	<rect x="-192.4" y="11.5" display="inline" fill="#FFFFFF" width="29" height="1.5"/>
</g>
<g display="none">
	<path display="inline" fill="#FFFFFF" d="M-188.3,19c-0.4,0-0.8-0.3-0.8-0.8v-2.1c0-0.4,0.3-0.8,0.8-0.8s0.8,0.3,0.8,0.8v2.1
		C-187.6,18.7-187.9,19-188.3,19z"/>
</g>
<g display="none">
	<path display="inline" fill="#FFFFFF" d="M-185.1,19c-0.4,0-0.8-0.3-0.8-0.8v-2.1c0-0.4,0.3-0.8,0.8-0.8s0.8,0.3,0.8,0.8v2.1
		C-184.3,18.7-184.7,19-185.1,19z"/>
</g>
<g display="none">
	<path display="inline" fill="#FFFFFF" d="M-272,23.8h-30.8c-1.9,0-3.5-1.6-3.5-3.5V5c0-1.9,1.6-3.5,3.5-3.5h30.8
		c1.9,0,3.5,1.6,3.5,3.5v15.3C-268.5,22.3-270.1,23.8-272,23.8z M-302.8,3c-1.1,0-2,0.9-2,2v15.3c0,1.1,0.9,2,2,2h30.8
		c1.1,0,2-0.9,2-2V5c0-1.1-0.9-2-2-2H-302.8z"/>
</g>
<g display="none">
	<rect x="-273.8" y="2.3" display="inline" fill="#FFFFFF" width="1.5" height="20.8"/>
</g>
<g display="none">
	<rect x="-302.7" y="2.3" display="inline" fill="#FFFFFF" width="1.5" height="20.8"/>
</g>
<g display="none">
	<path display="inline" fill="#FFFFFF" d="M-330.9,24.6h-10.5c-1.5,0-2.7-1.2-2.7-2.7V0.7c0-1.5,1.2-2.7,2.7-2.7h10.5
		c1.5,0,2.7,1.2,2.7,2.7v21.2C-328.2,23.4-329.4,24.6-330.9,24.6z M-341.4-0.5c-0.6,0-1.2,0.5-1.2,1.2v21.2c0,0.6,0.5,1.2,1.2,1.2
		h10.5c0.6,0,1.2-0.5,1.2-1.2V0.7c0-0.6-0.5-1.2-1.2-1.2H-341.4z"/>
</g>
<g display="none">
	<rect x="-343.4" y="20.7" display="inline" fill="#FFFFFF" width="14.4" height="1"/>
</g>
<g display="none">
	<rect x="-343.4" y="0.8" display="inline" fill="#FFFFFF" width="14.4" height="1"/>
</g>
<g display="none">
	<path display="inline" fill="#FFFFFF" d="M-48,25.2c-1.2,0-3.2-0.5-3.8-3.9c-0.1-0.3-1.8-8.7,2.8-16.4c1.8-3,4-4.5,6.8-4.5
		c2.9,0,5.3,1.8,5.5,1.9c0.3,0.2,1,0.5,1.3,0.5h1.8c0.4,0,1-0.2,1.3-0.5l0,0c0,0,2.5-2,5.6-2c2.8,0,5.1,1.5,6.8,4.5
		c4.5,7.7,2.8,16.1,2.8,16.5c-0.5,3.3-2.6,3.8-3.7,3.8c-0.1,0-0.3,0-0.4,0c-0.5,0-2.1-0.2-6.7-6.5l-0.1-0.2
		c-0.2-0.3-0.7-0.5-1.1-0.5l-10.9,0c-0.3,0-0.8,0.3-1.1,0.5l-0.1,0.2c-4.5,6.3-6,6.4-6.6,6.5C-47.7,25.1-47.8,25.2-48,25.2z
		 M-42.1,1.9c-2.2,0-4.1,1.3-5.5,3.7c-4.3,7.2-2.7,15.1-2.6,15.4c0.3,1.9,1.1,2.7,2.5,2.6c0.2,0,1.6-0.4,5.5-5.8
		c0.1-0.1,0.2-0.2,0.2-0.2c0.5-0.6,1.4-1.1,2.2-1.1l10.9,0c0.8,0,1.7,0.5,2.2,1.1c0,0,0.1,0.1,0.2,0.2c4.1,5.6,5.5,5.9,5.6,5.9
		c1.4,0.1,2.2-0.7,2.5-2.6c0.1-0.4,1.7-8.2-2.6-15.4c-1.5-2.5-3.3-3.7-5.5-3.7c-2.5,0-4.6,1.6-4.6,1.6c-0.6,0.4-1.6,0.8-2.3,0.8
		h-1.8c-0.7,0-1.7-0.3-2.3-0.8C-37.6,3.5-39.7,1.9-42.1,1.9z"/>
</g>
<g display="none">
	<path display="inline" fill="#FFFFFF" d="M-28.4,14c-1,0-1.8-0.8-1.8-1.8c0-1,0.8-1.8,1.8-1.8c1,0,1.8,0.8,1.8,1.8
		C-26.6,13.2-27.4,14-28.4,14z M-28.4,11.2c-0.6,0-1,0.5-1,1s0.5,1,1,1c0.6,0,1-0.5,1-1S-27.8,11.2-28.4,11.2z"/>
</g>
<g display="none">
	<path display="inline" fill="#FFFFFF" d="M-28.4,9.7c-1,0-1.8-0.8-1.8-1.8c0-1,0.8-1.8,1.8-1.8c1,0,1.8,0.8,1.8,1.8
		C-26.6,8.9-27.4,9.7-28.4,9.7z M-28.4,6.9c-0.6,0-1,0.5-1,1s0.5,1,1,1c0.6,0,1-0.5,1-1S-27.8,6.9-28.4,6.9z"/>
</g>
<g display="none">
	<path display="inline" fill="#FFFFFF" d="M-24.2,11.9c-1,0-1.8-0.8-1.8-1.8s0.8-1.8,1.8-1.8c1,0,1.8,0.8,1.8,1.8
		S-23.2,11.9-24.2,11.9z M-24.2,9c-0.6,0-1,0.5-1,1s0.5,1,1,1s1-0.5,1-1S-23.6,9-24.2,9z"/>
</g>
<g display="none">
	<path display="inline" fill="#FFFFFF" d="M-42.4,13.4c-0.2,0-0.4-0.2-0.4-0.4V7.2c0-0.2,0.2-0.4,0.4-0.4S-42,7-42,7.2V13
		C-42,13.2-42.2,13.4-42.4,13.4z"/>
</g>
<g display="none">
	<path display="inline" fill="#FFFFFF" d="M-39.5,10.5h-5.8c-0.2,0-0.4-0.2-0.4-0.4s0.2-0.4,0.4-0.4h5.8c0.2,0,0.4,0.2,0.4,0.4
		S-39.3,10.5-39.5,10.5z"/>
</g>
<g>
	<path fill="#FFFFFF" d="M36.5,4.7h-0.3L36,4.5l-2.4-2.3l0-0.7l0.2-0.3c0,0,0.4-0.4,0.8-0.8c0.7-0.7,1.9-0.7,2.6,0l0.6,0.6
		c0.4,0.3,0.6,0.8,0.6,1.3c0,0.5-0.2,0.9-0.5,1.3l-0.8,0.8C36.9,4.7,36.7,4.7,36.5,4.7z M35.4,1.9l0.8,0.8c0.1,0.1,0.2,0.2,0.3,0.3
		l0.3-0.3c0.1-0.1,0.1-0.1,0.1-0.2c0-0.1,0-0.2-0.1-0.2l-0.6-0.6c-0.2-0.2-0.3-0.2-0.5,0L35.4,1.9z"/>
</g>
<g>
	<path fill="#FFFFFF" d="M28.7,12.9l-3.3-3.2l8.9-8.8L37.6,4L28.7,12.9z M27.6,9.7l1.1,1.1L35.5,4l-1.1-1.1L27.6,9.7z"/>
</g>
<g>
	<path fill="#FFFFFF" d="M24.9,14.1c-0.2,0-0.4-0.1-0.5-0.2c-0.2-0.2-0.3-0.5-0.2-0.8l1.6-3.7l1.4,0.6l-0.9,2l2.1-0.9l0.6,1.4
		l-3.8,1.6C25.1,14.1,25,14.1,24.9,14.1z"/>
</g>
<g>
	<path fill="#FFFFFF" d="M34,24.2H2.7c-1.5,0-2.8-1.2-2.8-2.8V4.4c0-1.5,1.2-2.8,2.8-2.8H34c1.5,0,2.8,1.2,2.8,2.8v17.1
		C36.7,22.9,35.5,24.2,34,24.2z M2.7,3.1c-0.7,0-1.2,0.6-1.2,1.2v17.1c0,0.7,0.6,1.2,1.2,1.2H34c0.7,0,1.2-0.6,1.2-1.2V4.4
		c0-0.7-0.6-1.2-1.2-1.2H2.7z"/>
</g>
<g>
	<rect x="6.1" y="2.4" fill="#FFFFFF" width="1.5" height="21.1"/>
</g>
<g display="none">
	<path display="inline" fill="#FFFFFF" d="M82.6,29.1c-0.2,0-0.4,0-0.6,0c-0.9-0.1-1.6-0.8-1.6-1.7c0-0.3,0-0.7,0.1-1l0.8-10.9
		c0-0.3,0-0.7,0.1-1c0.1-1,0.9-1.8,2-1.7c0.1,0,0.2,0,0.2,0c0,0,0,0,0,0c0.1-0.9,0.2-1.7,0.1-2.6c-0.1-1.1-0.4-2.1-1-2.9
		c-0.4-0.1-0.8-0.3-1.1-0.6c-0.8-0.7-1.8-1.2-3.1-1.5c-1-0.2-2.2-0.3-3.3-0.3c-0.9,0-1.7,0.1-2.5,0.3c-1,0.3-1.8,0.7-2.5,1.2
		c-0.1,0.1-0.2,0.2-0.3,0.2c-0.3,0.3-0.7,0.5-1.1,0.6C68.3,8,68,8.9,67.8,10c-0.1,0.9-0.1,1.8,0,2.8c0.1,0,0.3,0,0.4,0h0
		c1,0,1.7,0.7,1.8,1.7L71,27.2c0,0.5-0.1,1-0.4,1.3c-0.3,0.3-0.8,0.6-1.3,0.6c-2,0.1-3.8-0.4-5.4-1.6c-1.6-1.2-2.7-2.8-3.1-4.7
		c-0.6-2.9,0.1-5.5,2.2-7.6c0.5-0.5,1-0.9,1.6-1.3c-0.2-1.1-0.3-2.3-0.3-3.4c0.1-2,0.6-3.6,1.6-5.1c-0.2-0.8,0.1-1.6,0.7-2.2
		c1-1,2.3-1.7,3.7-2.2c1-0.4,2-0.6,3-0.7c0.4,0,0.7-0.1,1.1-0.1l0.7-0.1l1.8,0c1.6,0.1,3.1,0.4,4.4,0.9c1.3,0.5,2.5,1.2,3.5,2.2
		c0.6,0.6,0.8,1.3,0.7,2.1c0.6,1,1.1,2,1.3,3.2c0.2,1,0.3,2.2,0.3,3.3c0,0.7-0.1,1.3-0.3,2c0.7,0.4,1.3,0.9,1.9,1.6
		c1,1.1,1.7,2.4,1.9,3.9c0.8,3.9-1.4,7.7-5,9.2C84.6,28.9,83.6,29.1,82.6,29.1z M83.1,14.2c-0.2,0-0.3,0.1-0.3,0.3
		c0,0.3,0,0.7-0.1,1l-0.8,10.9c0,0.3,0,0.6-0.1,1c0,0.1,0.1,0.2,0.2,0.2c1,0.1,2-0.1,2.9-0.5c3-1.2,4.7-4.4,4.1-7.5
		c-0.2-1.2-0.8-2.3-1.6-3.2c-0.5-0.6-1.2-1.1-1.9-1.5c-0.5-0.2-0.5-0.7-0.5-1c0.2-0.7,0.3-1.4,0.3-2.2c0.1-1,0-2-0.2-2.9
		c-0.2-1.1-0.7-2.1-1.2-2.9c-0.2-0.2-0.2-0.5-0.1-0.8c0.1-0.4,0-0.6-0.2-0.9c-0.8-0.8-1.8-1.4-3-1.8c-1.2-0.5-2.5-0.7-4-0.8l-0.6,0
		l-1.6,0.1c-0.4,0-0.7,0.1-1.1,0.1c-0.9,0.1-1.8,0.3-2.7,0.6c-1.3,0.5-2.3,1.1-3.2,1.9c-0.3,0.3-0.4,0.5-0.3,0.9
		c0.1,0.3,0,0.6-0.2,0.9c-0.9,1.3-1.3,2.8-1.4,4.5c-0.1,1.1,0,2.3,0.3,3.4c0.1,0.4-0.1,0.8-0.5,1c-0.6,0.3-1.2,0.7-1.6,1.2
		c-1.7,1.8-2.3,3.9-1.8,6.3c0.3,1.6,1.2,2.9,2.5,3.9c1.3,1,2.8,1.4,4.4,1.3c0.1,0,0.2,0,0.2-0.1c0-0.1,0.1-0.1,0.1-0.2l-0.9-12.8
		c0-0.3-0.2-0.3-0.2-0.3c-0.1,0-0.3,0-0.4,0l-0.2,0c-0.1,0-0.2,0-0.3,0l-0.8,0.1l-0.2-0.8c-0.3-1.4-0.3-2.7-0.2-3.9
		c0.2-1.4,0.6-2.5,1.3-3.5c0.2-0.2,0.4-0.4,0.7-0.4c0.2,0,0.4-0.1,0.5-0.2c0.1-0.1,0.2-0.2,0.3-0.3C70,4.6,71,4.1,72.3,3.7
		c0.9-0.2,1.8-0.4,2.8-0.4c1.3-0.1,2.6,0,3.7,0.3c1.6,0.4,2.8,1,3.8,1.9c0.1,0.1,0.3,0.2,0.5,0.2c0.3,0,0.5,0.2,0.7,0.4
		c0.7,1.1,1.2,2.3,1.3,3.8c0.1,1,0.1,2-0.1,3c0,0.2-0.1,0.4-0.1,0.5l-0.2,0.9l-1-0.1C83.5,14.3,83.3,14.3,83.1,14.2
		C83.1,14.2,83.1,14.2,83.1,14.2z"/>
</g>
<g display="none">
	<g display="inline">
		<path fill="#FFFFFF" d="M118.9,21.2h-0.4c-3.2,0-5.8-2.6-5.8-5.8V5.9c0-3.2,2.6-5.8,5.8-5.8h0.4c3.2,0,5.8,2.6,5.8,5.8v9.5
			C124.7,18.6,122.1,21.2,118.9,21.2z M118.5,1.6c-2.4,0-4.3,1.9-4.3,4.3v9.5c0,2.4,1.9,4.3,4.3,4.3h0.4c2.4,0,4.3-1.9,4.3-4.3V5.9
			c0-2.4-1.9-4.3-4.3-4.3H118.5z"/>
	</g>
	<g display="inline">
		<path fill="#FFFFFF" d="M125.5,29.5h-6.1v-7.3l0.7-0.1c1.8-0.1,3.2-0.8,4.2-2c2.1-2.6,1.8-6.7,1.8-6.7c0-0.4,0.3-0.8,0.7-0.8
			c0.4,0,0.8,0.3,0.8,0.7c0,0.2,0.4,4.8-2.1,7.8c-1.1,1.4-2.7,2.2-4.5,2.5V28h4.6c0.4,0,0.8,0.3,0.8,0.8S125.9,29.5,125.5,29.5z"/>
	</g>
	<g display="inline">
		<path fill="#FFFFFF" d="M118.1,29.5H112c-0.4,0-0.8-0.3-0.8-0.8s0.3-0.8,0.8-0.8h4.6v-4.4c-1.9-0.3-3.4-1.1-4.5-2.5
			c-2.5-3-2.1-7.6-2.1-7.8c0-0.4,0.4-0.7,0.8-0.7c0.4,0,0.7,0.4,0.7,0.8c0,0-0.4,4.2,1.8,6.7c1,1.2,2.4,1.9,4.2,2l0.7,0.1V29.5z"/>
	</g>
	<g display="inline">
		<path fill="#FFFFFF" d="M113.8,6.9h2.7c0.5,0,0.9-0.3,0.9-0.6v0c0-0.3-0.4-0.6-0.9-0.6h-2.7V6.9z"/>
	</g>
	<g display="inline">
		<path fill="#FFFFFF" d="M113.8,10h2.7c0.5,0,0.9-0.3,0.9-0.6v0c0-0.3-0.4-0.6-0.9-0.6h-2.7V10z"/>
	</g>
	<g display="inline">
		<path fill="#FFFFFF" d="M113.8,12.7h2.7c0.5,0,0.9-0.3,0.9-0.6v0c0-0.3-0.4-0.6-0.9-0.6h-2.7V12.7z"/>
	</g>
	<g display="inline">
		<path fill="#FFFFFF" d="M113.8,15.3h2.7c0.5,0,0.9-0.3,0.9-0.6v0c0-0.3-0.4-0.6-0.9-0.6h-2.7V15.3z"/>
	</g>
</g>
<g display="none">
	<g display="inline">
		<path fill="#FFFFFF" d="M-371.3,23.5h-32.4c-0.3,0-0.5-0.1-0.7-0.4c-0.1-0.2-0.1-0.5,0-0.8l4.2-7V0.3c0-0.4,0.3-0.8,0.8-0.8h23.7
			c0.4,0,0.8,0.3,0.8,0.8v15.1l4.2,7c0.1,0.2,0.1,0.5,0,0.8C-370.8,23.3-371,23.5-371.3,23.5z M-402.4,22h29.8l-3.7-6
			c-0.1-0.1-0.1-0.3-0.1-0.4V1h-22.2v14.5c0,0.1,0,0.3-0.1,0.4L-402.4,22z"/>
	</g>
	<g display="inline">
		<path fill="#FFFFFF" d="M-375.6,16.3h-23.7c-0.4,0-0.8-0.3-0.8-0.8s0.3-0.8,0.8-0.8h23.7c0.4,0,0.8,0.3,0.8,0.8
			S-375.2,16.3-375.6,16.3z"/>
	</g>
	<g display="inline">
		<path fill="#FFFFFF" d="M-377,19.8H-398c-0.4,0-0.8-0.3-0.8-0.8s0.3-0.8,0.8-0.8h21.1c0.4,0,0.8,0.3,0.8,0.8S-376.6,19.8-377,19.8
			z"/>
	</g>
	<g display="inline">
		<path fill="#FFFFFF" d="M-394,23.5c-0.1,0-0.3,0-0.4-0.1c-0.3-0.2-0.4-0.7-0.2-1l2.5-3.7c0.2-0.3,0.7-0.4,1-0.2
			c0.3,0.2,0.4,0.7,0.2,1l-2.5,3.7C-393.5,23.3-393.7,23.5-394,23.5z"/>
	</g>
	<g display="inline">
		<path fill="#FFFFFF" d="M-381.3,23.5c-0.2,0-0.5-0.1-0.6-0.3l-2.5-3.7c-0.2-0.3-0.2-0.8,0.2-1c0.3-0.2,0.8-0.2,1,0.2l2.5,3.7
			c0.2,0.3,0.2,0.8-0.2,1C-381,23.4-381.2,23.5-381.3,23.5z"/>
	</g>
</g>
<g display="none">
	<circle display="inline" fill="#FFFFFF" cx="-336.2" cy="22.4" r="0.7"/>
</g>
<path display="none" fill="none" stroke="#FFFFFF" stroke-width="1.5" stroke-miterlimit="10" d="M-430.2,125.4h-27.3
	c-1.1,0-2-0.9-2-2v-14.2c0-1.1,0.9-2,2-2h27.3c1.1,0,2,0.9,2,2v14.2C-428.2,124.5-429.1,125.4-430.2,125.4z"/>
<line display="none" fill="none" stroke="#FFFFFF" stroke-width="1.5" stroke-linecap="round" stroke-linejoin="round" stroke-miterlimit="10" x1="-459.5" y1="122.3" x2="-428.2" y2="122.3"/>
<polyline display="none" fill="none" stroke="#FFFFFF" stroke-width="1.5" stroke-linecap="round" stroke-linejoin="round" stroke-miterlimit="10" points="
	-447.9,126.4 -447.9,128.6 -439.9,128.6 -439.9,126.4 "/>
<path display="none" fill="#FFFFFF" d="M-437.3,131.7h-13.3c-0.3,0-0.5-0.2-0.5-0.5V131c0-0.3,0.2-0.5,0.5-0.5h13.3
	c0.3,0,0.5,0.2,0.5,0.5v0.2C-436.7,131.5-437,131.7-437.3,131.7z"/>
<path display="none" fill="none" stroke="#FFFFFF" stroke-width="1.5" stroke-miterlimit="10" d="M-75.6,114.3
	c-0.9-3.5-4-6.1-7.8-6.1c-3.4,0-6.2,2.1-7.4,5c-0.7-0.6-1.6-1-2.6-1c-2.2,0-4,1.8-4,4c0,0.1,0,0.2,0,0.4c-2.4,0.8-4,3.2-4,5.8
	c0,3.3,2.7,6.2,6,6.2h19.1c3.9,0,7-3.3,7-7.2C-69.3,117.8-72.1,114.7-75.6,114.3z"/>
<g display="none">
	<path display="inline" fill="none" stroke="#FFFFFF" stroke-width="1.5" stroke-miterlimit="10" d="M-215.7,110.1h-6.4l-0.5-2.4
		c-0.1-0.4-0.6-0.8-1-0.8h-8.3c-0.4,0-0.9,0.4-0.9,0.8l-0.4,2.4h-0.8c-1.1,0-3.2,2.6-8,2.6v0.1c0,0,0,0.4,0,0.9v15.1
		c0,0.4,0.4,0.5,0.8,0.5h25.5c0.4,0,0.8,0,0.8-0.5v-17.5C-214.9,110.8-215.2,110.1-215.7,110.1z"/>
	
		<line display="inline" fill="none" stroke="#FFFFFF" stroke-width="1.5" stroke-miterlimit="10" x1="-242.7" y1="110.1" x2="-239.5" y2="110.1"/>
	
		<circle display="inline" fill="none" stroke="#FFFFFF" stroke-width="1.5" stroke-miterlimit="10" cx="-227.6" cy="119.7" r="6.4"/>
</g>
<polyline display="none" fill="none" stroke="#FFFFFF" stroke-width="1.5" stroke-linecap="round" stroke-miterlimit="10" points="
	-122.3,115.3 -122.3,129.6 -141.3,129.6 -141.3,111.1 -127,111.1 "/>
<polyline display="none" fill="none" stroke="#FFFFFF" stroke-width="1.5" stroke-linecap="round" stroke-linejoin="round" stroke-miterlimit="10" points="
	-133.3,122.2 -117.9,106.8 -117.9,114.5 "/>
<line display="none" fill="none" stroke="#FFFFFF" stroke-width="1.5" stroke-linecap="round" stroke-linejoin="round" stroke-miterlimit="10" x1="-117.9" y1="106.8" x2="-126.2" y2="106.8"/>
<path display="none" fill="none" stroke="#FFFFFF" stroke-width="1.5" stroke-miterlimit="10" d="M-165.7,129.1H-190
	c-1.4,0-2.3-0.8-2.3-1.9v-7.9c0-0.1,0-0.2,0.1-0.2l3.5-7.5c0.1-0.2,0.2-0.3,0.3-0.5c0.4-0.7,0.9-1.6,2-1.6h17.4c1.1,0,1.6,0.9,2,1.6
	c0.1,0.1,0.1,0.3,0.2,0.4l3.5,7.6c0,0.1,0.1,0.2,0.1,0.2v7.9C-163.4,128.3-164.3,129.1-165.7,129.1z"/>
<line display="none" fill="none" stroke="#FFFFFF" stroke-width="1.5" stroke-miterlimit="10" x1="-192.4" y1="119.2" x2="-163.4" y2="119.2"/>
<line display="none" fill="none" stroke="#FFFFFF" stroke-width="1.5" stroke-linecap="round" stroke-miterlimit="10" x1="-188.3" y1="123.2" x2="-188.3" y2="125.3"/>
<line display="none" fill="none" stroke="#FFFFFF" stroke-width="1.5" stroke-linecap="round" stroke-miterlimit="10" x1="-185.1" y1="123.2" x2="-185.1" y2="125.3"/>
<path display="none" fill="none" stroke="#FFFFFF" stroke-width="1.5" stroke-miterlimit="10" d="M-269.3,112.1v15.3
	c0,1.5-1.2,2.8-2.8,2.8h-30.8c-1.5,0-2.8-1.2-2.8-2.8v-15.3c0-1.5,1.2-2.8,2.8-2.8h30.8C-270.5,109.3-269.3,110.5-269.3,112.1z"/>
<line display="none" fill="none" stroke="#FFFFFF" stroke-width="1.5" stroke-miterlimit="10" x1="-273" y1="109.3" x2="-273" y2="130.1"/>
<line display="none" fill="none" stroke="#FFFFFF" stroke-width="1.5" stroke-miterlimit="10" x1="-301.9" y1="109.3" x2="-301.9" y2="130.1"/>
<path display="none" fill="none" stroke="#FFFFFF" stroke-width="1.5" stroke-miterlimit="10" d="M-330.9,130.9h-10.5
	c-1.1,0-1.9-0.9-1.9-1.9v-21.2c0-1.1,0.9-1.9,1.9-1.9h10.5c1.1,0,1.9,0.9,1.9,1.9v21.2C-329,130-329.8,130.9-330.9,130.9z"/>
<line display="none" fill="none" stroke="#FFFFFF" stroke-miterlimit="10" x1="-329" y1="128.3" x2="-343.4" y2="128.3"/>
<line display="none" fill="none" stroke="#FFFFFF" stroke-miterlimit="10" x1="-329" y1="108.3" x2="-343.4" y2="108.3"/>
<path display="none" fill="none" stroke="#FFFFFF" stroke-width="1.5" stroke-miterlimit="10" d="M-20.4,112.3
	c-1.6-2.7-3.7-4.1-6.2-4.1c-2.8,0-5.1,1.8-5.1,1.8c-0.4,0.3-1.3,0.6-1.8,0.6h-1.8c-0.5,0-1.4-0.3-1.8-0.6c-0.1-0.1-2.3-1.8-5.1-1.8
	c-2.5,0-4.6,1.4-6.2,4.1c-4.4,7.5-2.7,15.6-2.7,15.9c0.4,2.7,1.9,3.2,3,3.2c0.1,0,0.2,0,0.3,0c1.9-0.2,6-6.1,6.2-6.3
	c0.4-0.4,1.1-0.8,1.6-0.8l10.9,0c0.5,0,1.3,0.4,1.6,0.8c0.2,0.2,4.4,6.2,6.3,6.4c0.1,0,0.2,0,0.3,0c1.1,0,2.6-0.6,3-3.2
	C-17.7,128.1-15.9,119.8-20.4,112.3z"/>
<path display="none" fill="none" stroke="#FFFFFF" stroke-width="0.75" stroke-linecap="round" stroke-linejoin="round" stroke-miterlimit="10" d="
	M-28.4,120.6c-0.8,0-1.4-0.6-1.4-1.4c0-0.8,0.6-1.4,1.4-1.4c0.8,0,1.4,0.6,1.4,1.4C-27,120-27.6,120.6-28.4,120.6z"/>
<path display="none" fill="none" stroke="#FFFFFF" stroke-width="0.75" stroke-linecap="round" stroke-linejoin="round" stroke-miterlimit="10" d="
	M-28.4,116.4c-0.8,0-1.4-0.6-1.4-1.4s0.6-1.4,1.4-1.4c0.8,0,1.4,0.6,1.4,1.4S-27.6,116.4-28.4,116.4z"/>
<circle display="none" fill="none" stroke="#FFFFFF" stroke-width="0.75" stroke-linecap="round" stroke-linejoin="round" stroke-miterlimit="10" cx="-24.2" cy="117.1" r="1.4"/>
<line display="none" fill="none" stroke="#FFFFFF" stroke-width="0.75" stroke-linecap="round" stroke-linejoin="round" stroke-miterlimit="10" x1="-42.4" y1="114.2" x2="-42.4" y2="120"/>
<line display="none" fill="none" stroke="#FFFFFF" stroke-width="0.75" stroke-linecap="round" stroke-linejoin="round" stroke-miterlimit="10" x1="-45.3" y1="117.1" x2="-39.5" y2="117.1"/>
<path display="none" fill="none" stroke="#FFFFFF" stroke-width="1.5" stroke-miterlimit="10" d="M36.7,108.1
	c-0.4-0.4-1.1-0.4-1.6,0c-0.4,0.4-0.8,0.8-0.8,0.8s0,0.1,0,0.1c0,0,0.4,0.4,0.8,0.8l0.5,0.5c0.4,0.4,0.8,0.8,0.8,0.8
	c0,0,0.1,0,0.1,0c0,0,0.4-0.4,0.8-0.8c0.4-0.4,0.4-1.1,0-1.5L36.7,108.1z"/>
<polygon display="none" fill="none" stroke="#FFFFFF" stroke-width="1.5" stroke-miterlimit="10" points="34.3,108.9 26.5,116.7 
	28.7,118.8 36.5,111 "/>
<polyline display="none" fill="none" stroke="#FFFFFF" stroke-width="1.5" stroke-linejoin="round" stroke-miterlimit="10" points="
	26.5,116.7 24.9,120.4 24.9,120.4 28.7,118.8 "/>
<path display="none" fill="none" stroke="#FFFFFF" stroke-width="1.5" stroke-linejoin="round" stroke-miterlimit="10" d="M34,130.4
	H2.8c-1.1,0-2-0.9-2-2v-17.1c0-1.1,0.9-2,2-2H34c1.1,0,2,0.9,2,2v17.1C36,129.5,35.1,130.4,34,130.4z"/>
<line display="none" fill="none" stroke="#FFFFFF" stroke-width="1.5" stroke-miterlimit="10" x1="6.8" y1="130.4" x2="6.8" y2="109.4"/>
<path display="none" fill="none" stroke="#FFFFFF" stroke-width="1.5" stroke-miterlimit="10" d="M76.2,107.9c0.2,0,0.4,0,0.6,0
	c1.4,0.1,2.8,0.3,4.2,0.9c1.2,0.5,2.3,1.1,3.2,2c0.5,0.5,0.6,1,0.4,1.6c0,0.1,0,0.1,0,0.2c0.7,1,1.1,2,1.3,3.2
	c0.2,1,0.3,2.1,0.2,3.1c0,0.8-0.2,1.6-0.3,2.3c0,0.1,0,0.1,0.1,0.1c0.8,0.4,1.5,1,2.1,1.6c0.9,1,1.5,2.2,1.8,3.5
	c0.7,3.5-1.2,7-4.5,8.4c-1.1,0.4-2.1,0.6-3.3,0.5c-0.5,0-0.9-0.4-0.9-1c0-0.4,0-0.9,0.1-1.3c0.1-0.8,0.1-1.5,0.2-2.3
	c0.1-0.9,0.1-1.8,0.2-2.6c0.1-0.9,0.1-1.7,0.2-2.6c0.1-0.9,0.1-1.8,0.2-2.6c0-0.5,0.1-1,0.1-1.5c0-0.6,0.5-1,1.1-1
	c0.3,0,0.6,0.1,0.9,0.1c0-0.2,0.1-0.5,0.1-0.7c0.1-0.9,0.2-1.8,0.1-2.8c-0.1-1.2-0.5-2.4-1.2-3.5c0,0-0.1-0.1-0.1-0.1
	c-0.3,0-0.6-0.2-0.9-0.4c-1-0.9-2.1-1.4-3.4-1.7c-1.2-0.3-2.4-0.3-3.5-0.3c-0.9,0-1.8,0.1-2.6,0.4c-1,0.3-2,0.7-2.8,1.4
	c-0.1,0.1-0.2,0.2-0.3,0.3c-0.3,0.2-0.6,0.4-0.9,0.4c-0.1,0-0.1,0.1-0.1,0.1c-0.7,1-1,2.1-1.2,3.2c-0.2,1.2-0.1,2.5,0.2,3.7
	c0,0,0,0,0,0.1c0.1,0,0.3,0,0.4-0.1c0.2,0,0.4-0.1,0.7-0.1c0.6,0,1,0.4,1,1c0.1,1.5,0.2,3,0.3,4.5c0.1,1.2,0.2,2.4,0.2,3.7
	c0.1,1.3,0.2,2.7,0.3,4c0,0.2,0,0.5,0,0.7c0,0.6-0.4,1.1-1,1.1c-1.8,0.1-3.4-0.4-4.9-1.5c-1.5-1.1-2.4-2.5-2.8-4.3
	c-0.6-2.7,0.1-5,2-7c0.5-0.5,1.1-1,1.8-1.3c0.1,0,0.1-0.1,0.1-0.2c-0.3-1.2-0.4-2.4-0.3-3.6c0.1-1.8,0.6-3.4,1.5-4.9
	c0.1-0.1,0.1-0.2,0.1-0.3c-0.1-0.6,0-1.2,0.5-1.6c1-0.9,2.2-1.6,3.4-2.1c0.9-0.3,1.9-0.6,2.9-0.7c0.5-0.1,1.1-0.1,1.6-0.1
	c0,0,0.1,0,0.1,0C75.5,107.9,75.9,107.9,76.2,107.9z"/>
<g display="none">
	<path display="inline" fill="none" stroke="#FFFFFF" stroke-width="1.5" stroke-miterlimit="10" d="M118.9,127.5h-0.4
		c-2.8,0-5-2.3-5-5v-9.5c0-2.8,2.3-5,5-5h0.4c2.8,0,5,2.3,5,5v9.5C124,125.2,121.7,127.5,118.9,127.5z"/>
	<path display="inline" fill="none" stroke="#FFFFFF" stroke-width="1.5" stroke-linecap="round" stroke-miterlimit="10" d="
		M126.7,120.4c0,0,0.9,9-6.6,9.5v5.8h5.4"/>
	<path display="inline" fill="none" stroke="#FFFFFF" stroke-width="1.5" stroke-linecap="round" stroke-miterlimit="10" d="
		M110.7,120.4c0,0-0.9,9,6.6,9.5v5.8H112"/>
	<path display="inline" fill="#FFFFFF" d="M113.8,113.9h2.7c0.5,0,0.9-0.3,0.9-0.6l0,0c0-0.3-0.4-0.6-0.9-0.6h-2.7V113.9z"/>
	<path display="inline" fill="#FFFFFF" d="M113.8,117h2.7c0.5,0,0.9-0.3,0.9-0.6v0c0-0.3-0.4-0.6-0.9-0.6h-2.7V117z"/>
	<path display="inline" fill="#FFFFFF" d="M113.8,119.7h2.7c0.5,0,0.9-0.3,0.9-0.6l0,0c0-0.3-0.4-0.6-0.9-0.6h-2.7V119.7z"/>
	<path display="inline" fill="#FFFFFF" d="M113.8,122.3h2.7c0.5,0,0.9-0.3,0.9-0.6v0c0-0.3-0.4-0.6-0.9-0.6h-2.7V122.3z"/>
</g>
<g display="none">
	
		<polygon display="inline" fill="none" stroke="#FFFFFF" stroke-width="1.5" stroke-linecap="round" stroke-linejoin="round" stroke-miterlimit="10" points="
		-375.6,122.6 -375.6,107.3 -387.1,107.3 -387.9,107.3 -399.4,107.3 -399.4,122.6 -403.7,129.7 -387.9,129.7 -387.1,129.7 
		-371.3,129.7 	"/>
	
		<line display="inline" fill="none" stroke="#FFFFFF" stroke-width="1.5" stroke-linecap="round" stroke-linejoin="round" stroke-miterlimit="10" x1="-399.4" y1="122.6" x2="-375.6" y2="122.6"/>
	
		<line display="inline" fill="none" stroke="#FFFFFF" stroke-width="1.5" stroke-linecap="round" stroke-linejoin="round" stroke-miterlimit="10" x1="-398" y1="126.1" x2="-377" y2="126.1"/>
	
		<line display="inline" fill="none" stroke="#FFFFFF" stroke-width="1.5" stroke-linecap="round" stroke-linejoin="round" stroke-miterlimit="10" x1="-391.4" y1="126.1" x2="-394" y2="129.7"/>
	
		<line display="inline" fill="none" stroke="#FFFFFF" stroke-width="1.5" stroke-linecap="round" stroke-linejoin="round" stroke-miterlimit="10" x1="-383.8" y1="126.1" x2="-381.3" y2="129.7"/>
</g>
<circle display="none" fill="#FFFFFF" cx="-336.2" cy="129.4" r="0.7"/>
</svg>
