<?xml version="1.0" encoding="utf-8"?>
<!-- Generator: Adobe Illustrator 18.0.0, SVG Export Plug-In . SVG Version: 6.00 Build 0)  -->
<!DOCTYPE svg PUBLIC "-//W3C//DTD SVG 1.1//EN" "http://www.w3.org/Graphics/SVG/1.1/DTD/svg11.dtd">
<svg version="1.1" id="Layer_1" xmlns="http://www.w3.org/2000/svg" xmlns:xlink="http://www.w3.org/1999/xlink" x="0px" y="0px"
	 viewBox="0 0 80 80" enable-background="new 0 0 80 80" xml:space="preserve">
<rect x="-1011" y="-55.8" display="none" fill="#010101" width="2018.8" height="466.7"/>
<path display="none" fill="none" stroke="#FFFFFF" stroke-miterlimit="10" d="M-564.8,200.4h-281c-18.1,0-32.9-14.8-32.9-32.9l0,0
	c0-18.1,14.8-32.9,32.9-32.9h281c18.1,0,32.9,14.8,32.9,32.9l0,0C-531.7,185.6-546.7,200.4-564.8,200.4z"/>
<g display="none">
	
		<text transform="matrix(1 0 0 1 -801.5087 176.6724)" display="inline" fill="#FFFFFF" font-family="'HelveticaNeue-Light'" font-size="22.5817">TEXT IN ALL CAPS</text>
</g>
<g display="none">
	<g display="inline">
		<path fill="#FFFFFF" d="M-426.9,226.1c-32.4,0-58.8-26.4-58.8-58.8s26.4-58.8,58.8-58.8c32.4,0,58.8,26.4,58.8,58.8
			S-394.3,226.1-426.9,226.1z M-426.9,111.1c-31.2,0-56.4,25.2-56.4,56.4s25.2,56.4,56.4,56.4s56.4-25.2,56.4-56.4
			S-395.7,111.1-426.9,111.1z"/>
	</g>
	<g display="inline">
		
			<rect x="-427.9" y="138.2" transform="matrix(-0.7071 -0.7071 0.7071 -0.7071 -846.8226 -16.0579)" fill="#FFFFFF" width="2.4" height="58.3"/>
	</g>
	<g display="inline">
		
			<rect x="-455.7" y="166.2" transform="matrix(-0.7071 -0.7071 0.7071 -0.7071 -846.5526 -15.9231)" fill="#FFFFFF" width="58.3" height="2.4"/>
	</g>
</g>
<g display="none">
	
		<text transform="matrix(1 0 0 1 732.3248 12.1797)" display="inline" fill="#FFFFFF" font-family="'HelveticaNeue-Light'" font-size="22.5817">LAPTOP</text>
	
		<text transform="matrix(1 0 0 1 732.3248 39.3222)" display="inline" fill="#FFFFFF" font-family="'HelveticaNeue-Light'" font-size="22.5817">SMARTPHONE</text>
	
		<text transform="matrix(1 0 0 1 732.3248 66.4648)" display="inline" fill="#FFFFFF" font-family="'HelveticaNeue-Light'" font-size="22.5817">TABLET</text>
	
		<text transform="matrix(1 0 0 1 732.3248 93.3698)" display="inline" fill="#FFFFFF" font-family="'HelveticaNeue-Light'" font-size="22.5817">HARD DRIVE</text>
	
		<text transform="matrix(1 0 0 1 732.3248 120.5124)" display="inline" fill="#FFFFFF" font-family="'HelveticaNeue-Light'" font-size="22.5817">CLOUD STORAGE</text>
	
		<text transform="matrix(1 0 0 1 732.3248 147.6549)" display="inline" fill="#FFFFFF" font-family="'HelveticaNeue-Light'" font-size="22.5817">DSLR</text>
	
		<text transform="matrix(1 0 0 1 732.3248 174.7992)" display="inline" fill="#FFFFFF" font-family="'HelveticaNeue-Light'" font-size="22.5817">GAME CONTROLLER</text>
	
		<text transform="matrix(1 0 0 1 732.3248 201.9409)" display="inline" fill="#FFFFFF" font-family="'HelveticaNeue-Light'" font-size="22.5817">WACOM PEN</text>
	
		<text transform="matrix(1 0 0 1 732.3248 228.8452)" display="inline" fill="#FFFFFF" font-family="'HelveticaNeue-Light'" font-size="22.5817">HEADPHONES</text>
	
		<text transform="matrix(1 0 0 1 732.3248 255.9895)" display="inline" fill="#FFFFFF" font-family="'HelveticaNeue-Light'" font-size="22.5817">MIC</text>
</g>
<g display="none">
	<path display="inline" fill="#FFFFFF" d="M-781.2,58.5h-65c-3.6,0-6.7-2.9-6.7-6.4V18.2c0-3.6,2.9-6.7,6.7-6.7h65
		c3.6,0,6.7,2.9,6.7,6.7V52C-774.5,55.6-777.6,58.5-781.2,58.5z M-846.2,15.1c-1.7,0-2.9,1.4-2.9,2.9v34c0,1.7,1.4,2.9,2.9,2.9h65
		c1.7,0,2.9-1.4,2.9-2.9V18.2c0-1.7-1.4-2.9-2.9-2.9h-65V15.1z"/>
</g>
<g display="none">
	<path display="inline" fill="#FFFFFF" d="M-776.4,51.1H-851c-1,0-1.9-0.7-1.9-1.9s0.7-1.9,1.9-1.9h74.5c1,0,1.9,0.7,1.9,1.9
		S-775.5,51.1-776.4,51.1z"/>
</g>
<g display="none">
	<path display="inline" fill="#FFFFFF" d="M-804,66.1h-19c-1,0-1.9-0.7-1.9-1.9v-5.2c0-1,0.7-1.9,1.9-1.9s1.9,0.7,1.9,1.9v3.6h15.5
		v-3.6c0-1,0.7-1.9,1.9-1.9s1.9,0.7,1.9,1.9v5.2C-802.4,65.4-803.1,66.1-804,66.1z"/>
</g>
<g display="none">
	<path display="inline" fill="#FFFFFF" d="M-797.9,71.8h-31.7c-0.7,0-1.2-0.5-1.2-1.2v-0.5c0-0.7,0.5-1.2,1.2-1.2h31.7
		c0.7,0,1.2,0.5,1.2,1.2v0.5C-796.7,71.1-797.1,71.8-797.9,71.8z"/>
</g>
<g>
	<path fill="#AAAD00" d="M61.4,66.1H16.2C7.4,66.1,0,58.5,0,49.6c0-6.4,3.8-12.4,9.5-15c0.2-6.2,5.2-11.2,11.4-11.2
		c1.9,0,3.8,0.5,5.5,1.4c3.6-6.7,10.5-11,18.3-11c9.3,0,17.1,6,20,14.8C73.3,30.1,80,38.2,80,47.3C80,57.5,71.4,66.1,61.4,66.1z
		 M21,27c-4.3,0-7.9,3.6-7.9,7.9v0.2l0.2,1.7l-1.4,0.5c-4.8,1.9-8.3,6.9-8.3,12.4c0,6.9,5.7,12.9,12.6,12.9h45.5
		c8.1,0,15-6.9,15-15.2c0-7.6-6-14.3-13.3-15.2l-1.4-0.2l-0.5-1.2c-1.9-7.9-8.8-13.1-16.7-13.1c-7.1,0-13.3,4.3-16,10.7l-1,2.4
		L26,28.9C24.5,27.7,22.6,27,21,27z"/>
</g>
<g display="none">
	<g display="inline">
		<path fill="#FFFFFF" d="M-270.2,67.5H-331c-3.1,0-3.6-1.7-3.6-2.9V24.9l1.9-0.2c7.1,0,11.7-2.6,14.5-4.3c1.7-1,3.1-1.7,4.3-1.7
			h0.5l0.7-4.3c0.2-1.9,2.1-3.3,4-3.3h19.8c1.9,0,3.6,1.4,4,3.1l1,4.5h13.8c2.1,0,3.6,2.6,3.6,4.5v41.7
			C-266.7,66.1-267.1,67.5-270.2,67.5z M-331,63.9L-331,63.9h60.7l0,0V23c0-0.2-0.2-0.7-0.5-1h-16.4l-1.4-7.1c0-0.2-0.5-0.5-0.7-0.5
			H-309c-0.2,0-0.5,0.2-0.5,0.5l-1.2,7.1h-3.3c-0.5,0-1.7,0.7-2.6,1.2c-2.9,1.7-7.4,4.3-14.5,4.8v36H-331z"/>
	</g>
	<g display="inline">
		<rect x="-334.8" y="18.7" fill="#FFFFFF" width="7.6" height="3.6"/>
	</g>
	<g display="inline">
		<path fill="#FFFFFF" d="M-298.6,60.1c-9.3,0-16.9-7.6-16.9-16.9s7.6-16.9,16.9-16.9c9.3,0,16.9,7.6,16.9,16.9
			S-289.3,60.1-298.6,60.1z M-298.6,29.6c-7.4,0-13.3,6-13.3,13.3s6,13.3,13.3,13.3s13.3-6,13.3-13.3
			C-285.2,35.8-291.4,29.6-298.6,29.6z"/>
	</g>
</g>
<g display="none">
	<path display="inline" fill="#FFFFFF" d="M-46.2,68.5H-95V20.8h35.7c1,0,1.9,0.7,1.9,1.9c0,1.2-0.7,1.9-1.9,1.9h-32.1v40.5h41.7
		V32.5c0-1,0.7-1.9,1.9-1.9c1.2,0,1.9,0.7,1.9,1.9v36H-46.2z"/>
</g>
<g display="none">
	<path display="inline" fill="#FFFFFF" d="M-74,50.8c-0.5,0-1-0.2-1.2-0.5c-0.7-0.7-0.7-1.9,0-2.6l36.7-36.7
		c0.5-0.5,1.2-0.7,1.9-0.5s1.2,1,1.2,1.7v18.3c0,1-0.7,1.9-1.9,1.9s-1.9-0.7-1.9-1.9V16.8l-33.6,33.6C-73.1,50.8-73.6,50.8-74,50.8z
		"/>
</g>
<g display="none">
	<path display="inline" fill="#FFFFFF" d="M-37.4,14.2h-20c-1,0-1.9-0.7-1.9-1.9s0.7-1.9,1.9-1.9h20c1,0,1.9,0.7,1.9,1.9
		S-36.4,14.2-37.4,14.2z"/>
</g>
<g display="none">
	<path display="inline" fill="#FFFFFF" d="M-151.2,67.3H-209c-4.3,0-7.4-2.6-7.4-6.4V42c0-0.5,0-1,0.2-1.4l8.3-17.9
		c0.2-0.7,0.5-1,0.7-1.2c1-1.7,2.6-4.8,6.2-4.8h41.4c3.8,0,5.5,3.1,6.4,4.8c0.2,0.5,0.5,0.7,0.5,1l8.3,18.3c0.2,0.5,0.2,1,0.2,1.4
		v18.8C-144,64.6-146.9,67.3-151.2,67.3z M-201,20.4c-1.4,0-2.1,1.2-3.1,2.9c-0.2,0.2-0.5,0.7-0.7,1.2l-8.1,17.9v18.6
		c0,2.6,2.6,2.9,3.8,2.9h57.9c1.2,0,3.8-0.2,3.8-2.9V42l-8.3-17.9c0,0-0.2-0.5-0.5-0.7c-1.2-1.9-1.9-3.1-3.3-3.1
		C-159.5,20.4-201,20.4-201,20.4z"/>
</g>
<g display="none">
	<rect x="-214.8" y="40.1" display="inline" fill="#FFFFFF" width="69" height="3.6"/>
</g>
<g display="none">
	<path display="inline" fill="#FFFFFF" d="M-205.2,58.2c-1,0-1.9-0.7-1.9-1.9v-5c0-1,0.7-1.9,1.9-1.9c1.2,0,1.9,0.7,1.9,1.9v5
		C-203.3,57.3-204,58.2-205.2,58.2z"/>
</g>
<g display="none">
	<path display="inline" fill="#FFFFFF" d="M-197.4,58.2c-1,0-1.9-0.7-1.9-1.9v-5c0-1,0.7-1.9,1.9-1.9c1.2,0,1.9,0.7,1.9,1.9v5
		C-195.7,57.3-196.4,58.2-197.4,58.2z"/>
</g>
<g display="none">
	<path display="inline" fill="#FFFFFF" d="M-404.5,69.6h-73.3c-4.5,0-8.3-3.8-8.3-8.3V24.9c0-4.5,3.8-8.3,8.3-8.3h73.3
		c4.5,0,8.3,3.8,8.3,8.3v36.4C-396,65.8-399.8,69.6-404.5,69.6z M-477.9,20.1c-2.6,0-4.8,2.1-4.8,4.8v36.4c0,2.6,2.1,4.8,4.8,4.8
		h73.3c2.6,0,4.8-2.1,4.8-4.8V24.9c0-2.6-2.1-4.8-4.8-4.8H-477.9z"/>
</g>
<g display="none">
	<rect x="-408.6" y="18.2" display="inline" fill="#FFFFFF" width="3.6" height="49.5"/>
</g>
<g display="none">
	<rect x="-477.4" y="18.2" display="inline" fill="#FFFFFF" width="3.6" height="49.5"/>
</g>
<g display="none">
	<path display="inline" fill="#FFFFFF" d="M-544.5,71.5h-25c-3.6,0-6.4-2.9-6.4-6.4V14.6c0-3.6,2.9-6.4,6.4-6.4h25
		c3.6,0,6.4,2.9,6.4,6.4v50.5C-538.3,68.7-541.2,71.5-544.5,71.5z M-569.8,11.8c-1.4,0-2.9,1.2-2.9,2.9v50.5c0,1.4,1.2,2.9,2.9,2.9
		h25c1.4,0,2.9-1.2,2.9-2.9V14.6c0-1.4-1.2-2.9-2.9-2.9C-544.8,11.8-569.8,11.8-569.8,11.8z"/>
</g>
<g display="none">
	<rect x="-574.3" y="62.3" display="inline" fill="#FFFFFF" width="34.3" height="2.4"/>
</g>
<g display="none">
	<rect x="-574.3" y="14.9" display="inline" fill="#FFFFFF" width="34.3" height="2.4"/>
</g>
<g display="none">
	<path display="inline" fill="#FFFFFF" d="M129,72.7c-2.9,0-7.6-1.2-9-9.3c-0.2-0.7-4.3-20.7,6.7-39c4.3-6.9,9.8-10.5,16.2-10.5
		c6.9,0,12.6,4.3,13.1,4.5c0.7,0.5,2.4,1.2,3.1,1.2h4.3c1,0,2.4-0.5,3.1-1.2l0,0c0,0,6-4.8,13.3-4.8c6.7,0,12.1,3.6,16.2,10.7
		c10.7,18.3,6.7,38.3,6.7,39.3c-1.2,7.9-6.2,9-8.8,9c-0.2,0-0.7,0-1,0c-1.2,0-5-0.5-16-15.5l-0.2-0.5c-0.5-0.7-1.7-1.2-2.6-1.2h-26
		c-0.7,0-1.9,0.7-2.6,1.2l-0.2,0.5c-10.7,15-14.3,15.2-15.7,15.5C129.8,72.7,129.3,72.7,129,72.7z M142.9,17.5
		c-5.2,0-9.8,3.1-13.1,8.8c-10.2,17.1-6.4,36-6.2,36.7c0.7,4.5,2.6,6.4,6,6.2c0.5,0,3.8-1,13.1-13.8c0.2-0.2,0.5-0.5,0.5-0.5
		c1.2-1.4,3.3-2.6,5.2-2.6h26c1.9,0,4,1.2,5.2,2.6c0,0,0.2,0.2,0.5,0.5c9.8,13.3,13.1,14,13.3,14c3.3,0.2,5.2-1.7,6-6.2
		c0.2-1,4-19.5-6.2-36.7c-3.6-6-7.9-8.8-13.1-8.8c-6,0-11,3.8-11,3.8c-1.4,1-3.8,1.9-5.5,1.9h-4.3c-1.7,0-4-0.7-5.5-1.9
		C153.8,21.1,148.8,17.5,142.9,17.5z"/>
</g>
<g display="none">
	<path display="inline" fill="#FFFFFF" d="M175.7,46.3c-2.4,0-4.3-1.9-4.3-4.3c0-2.4,1.9-4.3,4.3-4.3s4.3,1.9,4.3,4.3
		C180,44.4,178.1,46.3,175.7,46.3z M175.7,39.4c-1.4,0-2.4,1.2-2.4,2.4c0,1.2,1.2,2.4,2.4,2.4c1.4,0,2.4-1.2,2.4-2.4
		C178.1,40.6,176.9,39.4,175.7,39.4z"/>
</g>
<g display="none">
	<path display="inline" fill="#FFFFFF" d="M175.7,36.1c-2.4,0-4.3-1.9-4.3-4.3s1.9-4.3,4.3-4.3s4.3,1.9,4.3,4.3
		C180,34.2,178.1,36.1,175.7,36.1z M175.7,29.4c-1.4,0-2.4,1.2-2.4,2.4c0,1.2,1.2,2.4,2.4,2.4c1.4,0,2.4-1.2,2.4-2.4
		C178.1,30.6,176.9,29.4,175.7,29.4z"/>
</g>
<g display="none">
	<path display="inline" fill="#FFFFFF" d="M185.7,41.1c-2.4,0-4.3-1.9-4.3-4.3s1.9-4,4.3-4c2.4,0,4.3,1.9,4.3,4.3
		C190,39.4,188.1,41.1,185.7,41.1z M185.7,34.4c-1.4,0-2.4,1.2-2.4,2.4c0,1.2,1.2,2.4,2.4,2.4c1.2,0,2.4-1.2,2.4-2.4
		C188.1,35.6,187.1,34.4,185.7,34.4z"/>
</g>
<g display="none">
	<path display="inline" fill="#FFFFFF" d="M142.4,44.6c-0.5,0-1-0.5-1-1V29.9c0-0.5,0.5-1,1-1s1,0.5,1,1v13.8
		C143.3,44.4,142.9,44.6,142.4,44.6z"/>
</g>
<g display="none">
	<path display="inline" fill="#FFFFFF" d="M149.3,37.7h-13.8c-0.5,0-1-0.5-1-1c0-0.5,0.5-1,1-1h13.8c0.5,0,1,0.5,1,1
		C150.2,37.3,149.8,37.7,149.3,37.7z"/>
</g>
<g display="none">
	<path display="inline" fill="#FFFFFF" d="M330.2,24.2h-0.7l-0.5-0.5l-5.7-5.5v-1.7l0.5-0.7c0,0,1-1,1.9-1.9c1.7-1.7,4.5-1.7,6.2,0
		l1.4,1.4c1,0.7,1.4,1.9,1.4,3.1c0,1.2-0.5,2.1-1.2,3.1l-1.9,1.9C331.2,23.9,330.7,24.2,330.2,24.2z M327.4,17.3l1.9,1.9
		c0.2,0.2,0.5,0.5,0.7,0.7l0.7-0.7c0.2-0.2,0.2-0.2,0.2-0.5c0-0.2,0-0.5-0.2-0.5l-1.4-1.4c-0.5-0.5-0.7-0.5-1.2,0L327.4,17.3z"/>
</g>
<g display="none">
	<path display="inline" fill="#FFFFFF" d="M311.7,43.5l-7.9-7.6l21.2-21l7.9,7.6L311.7,43.5z M308.8,35.8l2.6,2.6l16.2-16l-2.6-2.6
		L308.8,35.8z"/>
</g>
<g display="none">
	<path display="inline" fill="#FFFFFF" d="M302.6,46.5c-0.5,0-1-0.2-1.2-0.5c-0.5-0.5-0.7-1.2-0.5-1.9l3.8-8.8l3.3,1.4l-2.1,4.8
		l5-2.1l1.4,3.3l-9,3.8C303.1,46.5,302.9,46.5,302.6,46.5z"/>
</g>
<g display="none">
	<path display="inline" fill="#FFFFFF" d="M324.3,70.6H250c-3.6,0-6.7-2.9-6.7-6.7V23.2c0-3.6,2.9-6.7,6.7-6.7h74.3
		c3.6,0,6.7,2.9,6.7,6.7v40.7C330.7,67.5,327.9,70.6,324.3,70.6z M249.8,20.4c-1.7,0-2.9,1.4-2.9,2.9v40.7c0,1.7,1.4,2.9,2.9,2.9
		H324c1.7,0,2.9-1.4,2.9-2.9V23.2c0-1.7-1.4-2.9-2.9-2.9H249.8z"/>
</g>
<g display="none">
	<rect x="257.9" y="18.5" display="inline" fill="#FFFFFF" width="3.6" height="50.2"/>
</g>
<g display="none">
	<path display="inline" fill="#FFFFFF" d="M439.8,82.3c-0.5,0-1,0-1.4,0c-2.1-0.2-3.8-1.9-3.8-4c0-0.7,0-1.7,0.2-2.4l1.9-26
		c0-0.7,0-1.7,0.2-2.4c0.2-2.4,2.1-4.3,4.8-4c0.2,0,0.5,0,0.5,0l0,0c0.2-2.1,0.5-4,0.2-6.2c-0.2-2.6-1-5-2.4-6.9
		c-1-0.2-1.9-0.7-2.6-1.4c-1.9-1.7-4.3-2.9-7.4-3.6c-2.4-0.5-5.2-0.7-7.9-0.7c-2.1,0-4,0.2-6,0.7c-2.4,0.7-4.3,1.7-6,2.9
		c-0.2,0.2-0.5,0.5-0.7,0.5c-0.7,0.7-1.7,1.2-2.6,1.4c-1.2,1.9-1.9,4-2.1,6.4c-0.2,2.1-0.2,4.3,0,6.7c0.2,0,0.7,0,1,0l0,0
		c2.4,0,4,1.7,4.3,4l2.1,30.7c0,1.2-0.2,2.4-1,3.1c-0.7,0.7-1.9,1.4-3.1,1.4c-4.8,0.2-9-1-12.9-3.8c-3.8-2.9-6.4-6.7-7.4-11.2
		c-1.4-6.9,0.2-13.1,5.2-18.1c1.2-1.2,2.4-2.1,3.8-3.1c-0.5-2.6-0.7-5.5-0.7-8.1c0.2-4.8,1.4-8.6,3.8-12.1c-0.5-1.9,0.2-3.8,1.7-5.2
		c2.4-2.4,5.5-4,8.8-5.2c2.4-1,4.8-1.4,7.1-1.7c1,0,1.7-0.2,2.6-0.2l1.7-0.2h4.3c3.8,0.2,7.4,1,10.5,2.1c3.1,1.2,6,2.9,8.3,5.2
		c1.4,1.4,1.9,3.1,1.7,5c1.4,2.4,2.6,4.8,3.1,7.6c0.5,2.4,0.7,5.2,0.7,7.9c0,1.7-0.2,3.1-0.7,4.8c1.7,1,3.1,2.1,4.5,3.8
		c2.4,2.6,4,5.7,4.5,9.3c1.9,9.3-3.3,18.3-11.9,21.9C444.8,81.8,442.4,82.3,439.8,82.3z M441,46.8c-0.5,0-0.7,0.2-0.7,0.7
		c0,0.7,0,1.7-0.2,2.4l-1.7,26c0,0.7,0,1.4-0.2,2.4c0,0.2,0.2,0.5,0.5,0.5c2.4,0.2,4.8-0.2,6.9-1.2c7.1-2.9,11.2-10.5,9.8-17.9
		c-0.5-2.9-1.9-5.5-3.8-7.6c-1.2-1.4-2.9-2.6-4.5-3.6c-1.2-0.5-1.2-1.7-1.2-2.4c0.5-1.7,0.7-3.3,0.7-5.2c0.2-2.4,0-4.8-0.5-6.9
		c-0.5-2.6-1.7-5-2.9-6.9c-0.5-0.5-0.5-1.2-0.2-1.9c0.2-1,0-1.4-0.5-2.1c-1.9-1.9-4.3-3.3-7.1-4.3c-2.9-1.2-6-1.7-9.5-1.9h-1.4
		l-3.8,0.2c-1,0-1.7,0.2-2.6,0.2c-2.1,0.2-4.3,0.7-6.4,1.4c-3.1,1.2-5.5,2.6-7.6,4.5c-0.7,0.7-1,1.2-0.7,2.1c0.2,0.7,0,1.4-0.5,2.1
		c-2.1,3.1-3.1,6.7-3.3,10.7c-0.2,2.6,0,5.5,0.7,8.1c0.2,1-0.2,1.9-1.2,2.4c-1.4,0.7-2.9,1.7-3.8,2.9c-4,4.3-5.5,9.3-4.3,15
		c0.7,3.8,2.9,6.9,6,9.3c3.1,2.4,6.7,3.3,10.5,3.1c0.2,0,0.5,0,0.5-0.2c0-0.2,0.2-0.2,0.2-0.5l-2.1-30.5c0-0.7-0.5-0.7-0.5-0.7
		c-0.2,0-0.7,0-1,0h-0.5c-0.2,0-0.5,0-0.7,0l-1.9,0.2l-0.5-1.9c-0.7-3.3-0.7-6.4-0.5-9.3c0.5-3.3,1.4-6,3.1-8.3c0.5-0.5,1-1,1.7-1
		c0.5,0,1-0.2,1.2-0.5c0.2-0.2,0.5-0.5,0.7-0.7c1.9-1.7,4.3-2.9,7.4-3.6c2.1-0.5,4.3-1,6.7-1c3.1-0.2,6.2,0,8.8,0.7
		c3.8,1,6.7,2.4,9,4.5c0.2,0.2,0.7,0.5,1.2,0.5c0.7,0,1.2,0.5,1.7,1c1.7,2.6,2.9,5.5,3.1,9c0.2,2.4,0.2,4.8-0.2,7.1
		c0,0.5-0.2,1-0.2,1.2l-0.5,2.1l-2.4-0.2C442.1,47,441.7,46.8,441,46.8L441,46.8z"/>
</g>
<g display="none">
	<g display="inline">
		<path fill="#FFFFFF" d="M526.4,63.5h-1c-7.6,0-13.8-6.2-13.8-13.8V27c0-7.6,6.2-13.8,13.8-13.8h1c7.6,0,13.8,6.2,13.8,13.8v22.6
			C540.2,57.3,534,63.5,526.4,63.5z M525.5,16.8c-5.7,0-10.2,4.5-10.2,10.2v22.6c0,5.7,4.5,10.2,10.2,10.2h1
			c5.7,0,10.2-4.5,10.2-10.2V27c0-5.7-4.5-10.2-10.2-10.2C526.4,16.8,525.5,16.8,525.5,16.8z"/>
	</g>
	<g display="inline">
		<path fill="#FFFFFF" d="M541.9,83.2h-14.5V65.8l1.7-0.2c4.3-0.2,7.6-1.9,10-4.8c5-6.2,4.3-16,4.3-16c0-1,0.7-1.9,1.7-1.9
			c1,0,1.9,0.7,1.9,1.7c0,0.5,1,11.4-5,18.6c-2.6,3.3-6.4,5.2-10.7,6v10.5h11c1,0,1.9,0.7,1.9,1.9C544,82.7,542.9,83.2,541.9,83.2z"
			/>
	</g>
	<g display="inline">
		<path fill="#FFFFFF" d="M524.5,83.2H510c-1,0-1.9-0.7-1.9-1.9s0.7-1.9,1.9-1.9h11V68.9c-4.5-0.7-8.1-2.6-10.7-6
			c-6-7.1-5-18.1-5-18.6c0-1,1-1.7,1.9-1.7c1,0,1.7,1,1.7,1.9c0,0-1,10,4.3,16c2.4,2.9,5.7,4.5,10,4.8l1.7,0.2v17.6H524.5z"/>
	</g>
	<g display="inline">
		<path fill="#FFFFFF" d="M514,29.2h6.4c1.2,0,2.1-0.7,2.1-1.4l0,0c0-0.7-1-1.4-2.1-1.4H514V29.2z"/>
	</g>
	<g display="inline">
		<path fill="#FFFFFF" d="M514,36.8h6.4c1.2,0,2.1-0.7,2.1-1.4l0,0c0-0.7-1-1.4-2.1-1.4H514V36.8z"/>
	</g>
	<g display="inline">
		<path fill="#FFFFFF" d="M514,43.2h6.4c1.2,0,2.1-0.7,2.1-1.4l0,0c0-0.7-1-1.4-2.1-1.4H514V43.2z"/>
	</g>
	<g display="inline">
		<path fill="#FFFFFF" d="M514,49.2h6.4c1.2,0,2.1-0.7,2.1-1.4l0,0c0-0.7-1-1.4-2.1-1.4H514V49.2z"/>
	</g>
</g>
<g display="none">
	<g display="inline">
		<path fill="#FFFFFF" d="M-640.7,68.7h-77.1c-0.7,0-1.2-0.2-1.7-1c-0.2-0.5-0.2-1.2,0-1.9l10-16.7V13.7c0-1,0.7-1.9,1.9-1.9h56.4
			c1,0,1.9,0.7,1.9,1.9v36l10,16.7c0.2,0.5,0.2,1.2,0,1.9C-639.5,68.5-640,68.7-640.7,68.7z M-714.8,65.1h71l-8.8-14.3
			c-0.2-0.2-0.2-0.7-0.2-1V15.4h-52.9v34.5c0,0.2,0,0.7-0.2,1L-714.8,65.1z"/>
	</g>
	<g display="inline">
		<path fill="#FFFFFF" d="M-651.2,51.8h-56.4c-1,0-1.9-0.7-1.9-1.9c0-1.2,0.7-1.9,1.9-1.9h56.4c1,0,1.9,0.7,1.9,1.9
			C-649.3,51.1-650.2,51.8-651.2,51.8z"/>
	</g>
	<g display="inline">
		<path fill="#FFFFFF" d="M-654.3,60.1h-50.2c-1,0-1.9-0.7-1.9-1.9c0-1.2,0.7-1.9,1.9-1.9h50.2c1,0,1.9,0.7,1.9,1.9
			C-652.4,59.4-653.3,60.1-654.3,60.1z"/>
	</g>
	<g display="inline">
		<path fill="#FFFFFF" d="M-694.8,68.7c-0.2,0-0.7,0-1-0.2c-0.7-0.5-1-1.7-0.5-2.4l6-8.8c0.5-0.7,1.7-1,2.4-0.5
			c0.7,0.5,1,1.7,0.5,2.4l-6,8.8C-693.6,68.5-694.3,68.7-694.8,68.7z"/>
	</g>
	<g display="inline">
		<path fill="#FFFFFF" d="M-664.5,68.7c-0.5,0-1.2-0.2-1.4-0.7l-6-8.8c-0.5-0.7-0.5-1.9,0.5-2.4c0.7-0.5,1.9-0.5,2.4,0.5l6,8.8
			c0.5,0.7,0.5,1.9-0.5,2.4C-663.8,68.7-664.3,68.7-664.5,68.7z"/>
	</g>
</g>
<g display="none">
	<circle display="inline" fill="#FFFFFF" cx="-557.1" cy="66.3" r="1.7"/>
</g>
<path display="none" fill="none" stroke="#FFFFFF" stroke-width="1.5" stroke-miterlimit="10" d="M-781.2,311.5h-65
	c-2.6,0-4.8-2.1-4.8-4.8V273c0-2.6,2.1-4.8,4.8-4.8h65c2.6,0,4.8,2.1,4.8,4.8v33.8C-776.4,309.4-778.6,311.5-781.2,311.5z"/>
<line display="none" fill="none" stroke="#FFFFFF" stroke-width="1.5" stroke-linecap="round" stroke-linejoin="round" stroke-miterlimit="10" x1="-851" y1="303.9" x2="-776.4" y2="303.9"/>
<polyline display="none" fill="none" stroke="#FFFFFF" stroke-width="1.5" stroke-linecap="round" stroke-linejoin="round" stroke-miterlimit="10" points="
	-823.1,313.7 -823.1,319.2 -804,319.2 -804,313.7 "/>
<path display="none" fill="#FFFFFF" d="M-797.9,326.5h-31.7c-0.7,0-1.2-0.5-1.2-1.2v-0.5c0-0.7,0.5-1.2,1.2-1.2h31.7
	c0.7,0,1.2,0.5,1.2,1.2v0.5C-796.7,326.1-797.1,326.5-797.9,326.5z"/>
<path display="none" fill="none" stroke="#FFFFFF" stroke-width="1.5" stroke-miterlimit="10" d="M63.3,285.1
	c-2.1-8.3-9.5-14.5-18.6-14.5c-8.1,0-14.8,5-17.6,11.9c-1.7-1.4-3.8-2.4-6.2-2.4c-5.2,0-9.5,4.3-9.5,9.5c0,0.2,0,0.5,0,1
	c-5.7,1.9-9.5,7.6-9.5,13.8c0,7.9,6.4,14.8,14.3,14.8h45.5c9.3,0,16.7-7.9,16.7-17.1C78.1,293.2,71.7,285.8,63.3,285.1z"/>
<g display="none">
	<path display="inline" fill="none" stroke="#FFFFFF" stroke-width="1.5" stroke-miterlimit="10" d="M-270.2,275.1h-15.2l-1.2-5.7
		c-0.2-1-1.4-1.9-2.4-1.9h-19.8c-1,0-2.1,1-2.1,1.9l-1,5.7h-1.9c-2.6,0-7.6,6.2-19,6.2v0.2c0,0,0,1,0,2.1v36c0,1,1,1.2,1.9,1.2h60.7
		c1,0,1.9,0,1.9-1.2V278C-268.3,276.8-269.3,275.1-270.2,275.1z"/>
	
		<line display="inline" fill="none" stroke="#FFFFFF" stroke-width="1.5" stroke-miterlimit="10" x1="-334.8" y1="275.1" x2="-327.1" y2="275.1"/>
	<circle display="inline" fill="none" stroke="#FFFFFF" stroke-width="1.5" stroke-miterlimit="10" cx="-298.6" cy="298" r="15.2"/>
</g>
<polyline display="none" fill="none" stroke="#FFFFFF" stroke-width="1.5" stroke-linecap="round" stroke-miterlimit="10" points="
	-48.1,287.5 -48.1,321.3 -93.1,321.3 -93.1,277.3 -59,277.3 "/>
<polyline display="none" fill="none" stroke="#FFFFFF" stroke-width="1.5" stroke-linecap="round" stroke-linejoin="round" stroke-miterlimit="10" points="
	-74,303.9 -37.4,267.3 -37.4,285.6 "/>
<line display="none" fill="none" stroke="#FFFFFF" stroke-width="1.5" stroke-linecap="round" stroke-linejoin="round" stroke-miterlimit="10" x1="-37.4" y1="267.3" x2="-57.4" y2="267.3"/>
<path display="none" fill="none" stroke="#FFFFFF" stroke-width="1.5" stroke-miterlimit="10" d="M-151.2,320.1H-209
	c-3.3,0-5.5-1.9-5.5-4.5v-18.8c0-0.2,0-0.5,0.2-0.5l8.3-17.9c0.2-0.5,0.5-0.7,0.7-1.2c1-1.7,2.1-3.8,4.8-3.8h41
	c2.6,0,3.8,2.1,4.8,3.8c0.2,0.2,0.2,0.7,0.5,1l8.3,18.1c0,0.2,0.2,0.5,0.2,0.5v18.8C-145.7,318.5-147.9,320.1-151.2,320.1z"/>
<line display="none" fill="none" stroke="#FFFFFF" stroke-width="1.5" stroke-miterlimit="10" x1="-214.8" y1="296.8" x2="-145.7" y2="296.8"/>
<line display="none" fill="none" stroke="#FFFFFF" stroke-width="1.5" stroke-linecap="round" stroke-miterlimit="10" x1="-205.2" y1="306.1" x2="-205.2" y2="311.1"/>
<line display="none" fill="none" stroke="#FFFFFF" stroke-width="1.5" stroke-linecap="round" stroke-miterlimit="10" x1="-197.4" y1="306.1" x2="-197.4" y2="311.1"/>
<path display="none" fill="none" stroke="#FFFFFF" stroke-width="1.5" stroke-miterlimit="10" d="M-397.9,279.6v36.4
	c0,3.6-2.9,6.7-6.7,6.7h-73.3c-3.6,0-6.7-2.9-6.7-6.7v-36.4c0-3.6,2.9-6.7,6.7-6.7h73.3C-400.7,273-397.9,276.1-397.9,279.6z"/>
<line display="none" fill="none" stroke="#FFFFFF" stroke-width="1.5" stroke-miterlimit="10" x1="-406.9" y1="273" x2="-406.9" y2="322.7"/>
<line display="none" fill="none" stroke="#FFFFFF" stroke-width="1.5" stroke-miterlimit="10" x1="-475.5" y1="273" x2="-475.5" y2="322.7"/>
<path display="none" fill="none" stroke="#FFFFFF" stroke-width="1.5" stroke-miterlimit="10" d="M-544.5,324.4h-25
	c-2.6,0-4.5-2.1-4.5-4.5v-50.5c0-2.6,2.1-4.5,4.5-4.5h25c2.6,0,4.5,2.1,4.5,4.5v50.5C-540,322.5-542.1,324.4-544.5,324.4z"/>
<line display="none" fill="none" stroke="#FFFFFF" stroke-miterlimit="10" x1="-540" y1="318.2" x2="-574.3" y2="318.2"/>
<line display="none" fill="none" stroke="#FFFFFF" stroke-miterlimit="10" x1="-540" y1="270.8" x2="-574.3" y2="270.8"/>
<path display="none" fill="none" stroke="#FFFFFF" stroke-width="1.5" stroke-miterlimit="10" d="M194.8,280.1
	c-3.8-6.4-8.8-9.8-14.8-9.8c-6.7,0-12.1,4.3-12.1,4.3c-1,0.7-3.1,1.4-4.3,1.4h-4.3c-1.2,0-3.3-0.7-4.3-1.4
	c-0.2-0.2-5.5-4.3-12.1-4.3c-6,0-11,3.3-14.8,9.8c-10.5,17.9-6.4,37.1-6.4,37.9c1,6.4,4.5,7.6,7.1,7.6c0.2,0,0.5,0,0.7,0
	c4.5-0.5,14.3-14.5,14.8-15c1-1,2.6-1.9,3.8-1.9h26c1.2,0,3.1,1,3.8,1.9c0.5,0.5,10.5,14.8,15,15.2c0.2,0,0.5,0,0.7,0
	c2.6,0,6.2-1.4,7.1-7.6C201.2,318,205.5,298.2,194.8,280.1z"/>
<path display="none" fill="none" stroke="#FFFFFF" stroke-width="0.75" stroke-linecap="round" stroke-linejoin="round" stroke-miterlimit="10" d="
	M175.7,300.1c-1.9,0-3.3-1.4-3.3-3.3c0-1.9,1.4-3.3,3.3-3.3s3.3,1.4,3.3,3.3C179,298.7,177.6,300.1,175.7,300.1z"/>
<path display="none" fill="none" stroke="#FFFFFF" stroke-width="0.75" stroke-linecap="round" stroke-linejoin="round" stroke-miterlimit="10" d="
	M175.7,290.1c-1.9,0-3.3-1.4-3.3-3.3c0-1.9,1.4-3.3,3.3-3.3s3.3,1.4,3.3,3.3C179,288.7,177.6,290.1,175.7,290.1z"/>
<circle display="none" fill="none" stroke="#FFFFFF" stroke-width="0.75" stroke-linecap="round" stroke-linejoin="round" stroke-miterlimit="10" cx="185.7" cy="291.8" r="3.3"/>
<line display="none" fill="none" stroke="#FFFFFF" stroke-width="0.75" stroke-linecap="round" stroke-linejoin="round" stroke-miterlimit="10" x1="142.4" y1="284.9" x2="142.4" y2="298.7"/>
<line display="none" fill="none" stroke="#FFFFFF" stroke-width="0.75" stroke-linecap="round" stroke-linejoin="round" stroke-miterlimit="10" x1="135.5" y1="291.8" x2="149.3" y2="291.8"/>
<path display="none" fill="none" stroke="#FFFFFF" stroke-width="1.5" stroke-miterlimit="10" d="M330.7,270.1c-1-1-2.6-1-3.8,0
	c-1,1-1.9,1.9-1.9,1.9v0.2c0,0,1,1,1.9,1.9l1.2,1.2c1,1,1.9,1.9,1.9,1.9h0.2c0,0,1-1,1.9-1.9c1-1,1-2.6,0-3.6L330.7,270.1z"/>
<polygon display="none" fill="none" stroke="#FFFFFF" stroke-width="1.5" stroke-miterlimit="10" points="325,272.3 306.4,290.8 
	311.7,295.8 330.2,277.3 "/>
<polyline display="none" fill="none" stroke="#FFFFFF" stroke-width="1.5" stroke-linejoin="round" stroke-miterlimit="10" points="
	306.4,290.8 302.6,299.6 302.6,299.6 311.7,295.8 "/>
<path display="none" fill="none" stroke="#FFFFFF" stroke-width="1.5" stroke-linejoin="round" stroke-miterlimit="10" d="
	M324.3,323.5H250c-2.6,0-4.8-2.1-4.8-4.8v-40.5c0-2.6,2.1-4.8,4.8-4.8h74.3c2.6,0,4.8,2.1,4.8,4.8v40.5
	C329,321.3,326.9,323.5,324.3,323.5z"/>
<line display="none" fill="none" stroke="#FFFFFF" stroke-width="1.5" stroke-miterlimit="10" x1="259.5" y1="323.5" x2="259.5" y2="273.5"/>
<path display="none" fill="none" stroke="#FFFFFF" stroke-width="1.5" stroke-miterlimit="10" d="M424.8,269.6c0.5,0,1,0,1.4,0
	c3.3,0.2,6.7,0.7,10,2.1c2.9,1.2,5.5,2.6,7.6,4.8c1.2,1.2,1.4,2.4,1,3.8c0,0.2,0,0.2,0,0.5c1.7,2.4,2.6,4.8,3.1,7.6
	c0.5,2.4,0.7,5,0.5,7.4c0,1.9-0.5,3.8-0.7,5.5c0,0.2,0,0.2,0.2,0.2c1.9,1,3.6,2.4,5,3.8c2.1,2.4,3.6,5.2,4.3,8.3
	c1.7,8.3-2.9,16.7-10.7,20c-2.6,1-5,1.4-7.9,1.2c-1.2,0-2.1-1-2.1-2.4c0-1,0-2.1,0.2-3.1c0.2-1.9,0.2-3.6,0.5-5.5
	c0.2-2.1,0.2-4.3,0.5-6.2c0.2-2.1,0.2-4,0.5-6.2c0.2-2.1,0.2-4.3,0.5-6.2c0-1.2,0.2-2.4,0.2-3.6c0-1.4,1.2-2.4,2.6-2.4
	c0.7,0,1.4,0.2,2.1,0.2c0-0.5,0.2-1.2,0.2-1.7c0.2-2.1,0.5-4.3,0.2-6.7c-0.2-2.9-1.2-5.7-2.9-8.3l-0.2-0.2c-0.7,0-1.4-0.5-2.1-1
	c-2.4-2.1-5-3.3-8.1-4c-2.9-0.7-5.7-0.7-8.3-0.7c-2.1,0-4.3,0.2-6.2,1c-2.4,0.7-4.8,1.7-6.7,3.3c-0.2,0.2-0.5,0.5-0.7,0.7
	c-0.7,0.5-1.4,1-2.1,1c-0.2,0-0.2,0.2-0.2,0.2c-1.7,2.4-2.4,5-2.9,7.6c-0.5,2.9-0.2,6,0.5,8.8c0,0,0,0,0,0.2c0.2,0,0.7,0,1-0.2
	c0.5,0,1-0.2,1.7-0.2c1.4,0,2.4,1,2.4,2.4c0.2,3.6,0.5,7.1,0.7,10.7c0.2,2.9,0.5,5.7,0.5,8.8c0.2,3.1,0.5,6.4,0.7,9.5
	c0,0.5,0,1.2,0,1.7c0,1.4-1,2.6-2.4,2.6c-4.3,0.2-8.1-1-11.7-3.6c-3.6-2.6-5.7-6-6.7-10.2c-1.4-6.4,0.2-11.9,4.8-16.7
	c1.2-1.2,2.6-2.4,4.3-3.1c0.2,0,0.2-0.2,0.2-0.5c-0.7-2.9-1-5.7-0.7-8.6c0.2-4.3,1.4-8.1,3.6-11.7c0.2-0.2,0.2-0.5,0.2-0.7
	c-0.2-1.4,0-2.9,1.2-3.8c2.4-2.1,5.2-3.8,8.1-5c2.1-0.7,4.5-1.4,6.9-1.7c1.2-0.2,2.6-0.2,3.8-0.2h0.2
	C423.1,269.6,423.8,269.6,424.8,269.6z"/>
<g display="none">
	<path display="inline" fill="none" stroke="#FFFFFF" stroke-width="1.5" stroke-miterlimit="10" d="M526.4,316.3h-1
		c-6.7,0-11.9-5.5-11.9-11.9v-22.6c0-6.7,5.5-11.9,11.9-11.9h1c6.7,0,11.9,5.5,11.9,11.9v22.6C538.6,311.1,533.1,316.3,526.4,316.3z
		"/>
	<path display="inline" fill="none" stroke="#FFFFFF" stroke-width="1.5" stroke-linecap="round" stroke-miterlimit="10" d="
		M545,299.6c0,0,2.1,21.4-15.7,22.6v13.8h12.9"/>
	<path display="inline" fill="none" stroke="#FFFFFF" stroke-width="1.5" stroke-linecap="round" stroke-miterlimit="10" d="
		M506.9,299.6c0,0-2.1,21.4,15.7,22.6v13.8h-12.9"/>
	<path display="inline" fill="#FFFFFF" d="M514,284.2h6.4c1.2,0,2.1-0.7,2.1-1.4l0,0c0-0.7-1-1.4-2.1-1.4H514V284.2z"/>
	<path display="inline" fill="#FFFFFF" d="M514,291.5h6.4c1.2,0,2.1-0.7,2.1-1.4l0,0c0-0.7-1-1.4-2.1-1.4H514V291.5z"/>
	<path display="inline" fill="#FFFFFF" d="M514,298h6.4c1.2,0,2.1-0.7,2.1-1.4l0,0c0-0.7-1-1.4-2.1-1.4H514V298z"/>
	<path display="inline" fill="#FFFFFF" d="M514,304.2h6.4c1.2,0,2.1-0.7,2.1-1.4l0,0c0-0.7-1-1.4-2.1-1.4H514V304.2z"/>
</g>
<g display="none">
	
		<polygon display="inline" fill="none" stroke="#FFFFFF" stroke-width="1.5" stroke-linecap="round" stroke-linejoin="round" stroke-miterlimit="10" points="
		-651.2,304.6 -651.2,268.5 -678.3,268.5 -680.5,268.5 -707.6,268.5 -707.6,304.6 -717.9,321.8 -680.5,321.8 -678.3,321.8 
		-640.7,321.8 	"/>
	
		<line display="inline" fill="none" stroke="#FFFFFF" stroke-width="1.5" stroke-linecap="round" stroke-linejoin="round" stroke-miterlimit="10" x1="-707.6" y1="304.6" x2="-651.2" y2="304.6"/>
	
		<line display="inline" fill="none" stroke="#FFFFFF" stroke-width="1.5" stroke-linecap="round" stroke-linejoin="round" stroke-miterlimit="10" x1="-704.5" y1="313" x2="-654.3" y2="313"/>
	
		<line display="inline" fill="none" stroke="#FFFFFF" stroke-width="1.5" stroke-linecap="round" stroke-linejoin="round" stroke-miterlimit="10" x1="-688.8" y1="313" x2="-694.8" y2="321.8"/>
	
		<line display="inline" fill="none" stroke="#FFFFFF" stroke-width="1.5" stroke-linecap="round" stroke-linejoin="round" stroke-miterlimit="10" x1="-670.7" y1="313" x2="-664.5" y2="321.8"/>
</g>
<circle display="none" fill="#FFFFFF" cx="-557.1" cy="321.1" r="1.7"/>
</svg>
