<?xml version="1.0" encoding="utf-8"?>
<!-- Generator: Adobe Illustrator 18.0.0, SVG Export Plug-In . SVG Version: 6.00 Build 0)  -->
<!DOCTYPE svg PUBLIC "-//W3C//DTD SVG 1.1//EN" "http://www.w3.org/Graphics/SVG/1.1/DTD/svg11.dtd">
<svg version="1.1" id="Layer_1" xmlns="http://www.w3.org/2000/svg" xmlns:xlink="http://www.w3.org/1999/xlink" x="0px" y="0px"
	 viewBox="0 0 80 80" enable-background="new 0 0 80 80" xml:space="preserve">
<rect x="-794.4" y="-71.6" display="none" fill="#010101" width="2371.7" height="548.3"/>
<path display="none" fill="none" stroke="#FFFFFF" stroke-miterlimit="10" d="M-270.2,229.1h-330.1c-21.3,0-38.6-17.3-38.6-38.6l0,0
	c0-21.3,17.3-38.6,38.6-38.6h330.1c21.3,0,38.6,17.3,38.6,38.6l0,0C-231.6,211.7-249,229.1-270.2,229.1z"/>
<g display="none">
	
		<text transform="matrix(1 0 0 1 -548.4528 201.3459)" display="inline" fill="#FFFFFF" font-family="'HelveticaNeue-Light'" font-size="26.5295">TEXT IN ALL CAPS</text>
</g>
<g display="none">
	<g display="inline">
		<path fill="#FFFFFF" d="M-108.3,259.6c-38,0-69.1-31-69.1-69.1s31-69.1,69.1-69.1s69.1,31,69.1,69.1S-70.2,259.6-108.3,259.6z
			 M-108.3,124.2c-36.6,0-66.3,29.7-66.3,66.3s29.7,66.3,66.3,66.3S-42,226.9-42,190.5S-71.6,124.2-108.3,124.2z"/>
	</g>
	<g display="inline">
		
			<rect x="-109.4" y="156.1" transform="matrix(-0.7071 -0.7071 0.7071 -0.7071 -319.0656 248.6675)" fill="#FFFFFF" width="2.8" height="68.5"/>
	</g>
	<g display="inline">
		
			<rect x="-142.3" y="188.8" transform="matrix(-0.7071 -0.7071 0.7071 -0.7071 -318.9276 248.3409)" fill="#FFFFFF" width="68.5" height="2.8"/>
	</g>
</g>
<g display="none">
	
		<text transform="matrix(1 0 0 1 1253.532 8.095)" display="inline" fill="#FFFFFF" font-family="'HelveticaNeue-Light'" font-size="26.5295">LAPTOP</text>
	
		<text transform="matrix(1 0 0 1 1253.532 39.9835)" display="inline" fill="#FFFFFF" font-family="'HelveticaNeue-Light'" font-size="26.5295">SMARTPHONE</text>
	
		<text transform="matrix(1 0 0 1 1253.532 71.8711)" display="inline" fill="#FFFFFF" font-family="'HelveticaNeue-Light'" font-size="26.5295">TABLET</text>
	
		<text transform="matrix(1 0 0 1 1253.532 103.4791)" display="inline" fill="#FFFFFF" font-family="'HelveticaNeue-Light'" font-size="26.5295">HARD DRIVE</text>
	
		<text transform="matrix(1 0 0 1 1253.532 135.3682)" display="inline" fill="#FFFFFF" font-family="'HelveticaNeue-Light'" font-size="26.5295">CLOUD STORAGE</text>
	
		<text transform="matrix(1 0 0 1 1253.532 167.2557)" display="inline" fill="#FFFFFF" font-family="'HelveticaNeue-Light'" font-size="26.5295">DSLR</text>
	
		<text transform="matrix(1 0 0 1 1253.532 199.1448)" display="inline" fill="#FFFFFF" font-family="'HelveticaNeue-Light'" font-size="26.5295">GAME CONTROLLER</text>
	
		<text transform="matrix(1 0 0 1 1253.532 231.0318)" display="inline" fill="#FFFFFF" font-family="'HelveticaNeue-Light'" font-size="26.5295">WACOM PEN</text>
	
		<text transform="matrix(1 0 0 1 1253.532 262.6404)" display="inline" fill="#FFFFFF" font-family="'HelveticaNeue-Light'" font-size="26.5295">HEADPHONES</text>
	
		<text transform="matrix(1 0 0 1 1253.532 294.5279)" display="inline" fill="#FFFFFF" font-family="'HelveticaNeue-Light'" font-size="26.5295">MIC</text>
</g>
<g display="none">
	<path display="inline" fill="#FFFFFF" d="M-524.5,62.4h-76.4c-4.2,0-7.8-3.4-7.8-7.8V15.1c0-4.2,3.4-7.8,7.8-7.8h76.4
		c4.2,0,7.8,3.4,7.8,7.8v39.7C-516.9,59-520.3,62.4-524.5,62.4z M-600.8,11.7c-2,0-3.4,1.7-3.4,3.4v39.7c0,2,1.7,3.4,3.4,3.4h76.4
		c2,0,3.4-1.7,3.4-3.4V15.1c0-2-1.7-3.4-3.4-3.4H-600.8z"/>
</g>
<g display="none">
	<path display="inline" fill="#FFFFFF" d="M-518.9,53.7h-87.6c-1.1,0-2.2-0.8-2.2-2.2c0-1.1,0.8-2,2.2-2h87.6c1.1,0,2.2,0.8,2.2,2
		C-516.9,52.9-517.8,53.7-518.9,53.7z"/>
</g>
<g display="none">
	<path display="inline" fill="#FFFFFF" d="M-551.6,71.3H-574c-1.1,0-2.2-0.8-2.2-2.2v-6.2c0-1.1,0.8-2.2,2.2-2.2
		c1.4,0,2.2,0.8,2.2,2.2v4.2h18.2v-4.2c0-1.1,0.8-2.2,2.2-2.2c1.4,0,2.2,0.8,2.2,2.2v6.2C-549.4,70.5-550.5,71.3-551.6,71.3z"/>
</g>
<g display="none">
	<path display="inline" fill="#FFFFFF" d="M-544.1,78h-37.2c-0.8,0-1.4-0.6-1.4-1.4v-0.6c0-0.8,0.6-1.4,1.4-1.4h37.2
		c0.8,0,1.4,0.6,1.4,1.4v0.6C-542.7,77.5-543.2,78-544.1,78z"/>
</g>
<g display="none">
	<path display="inline" fill="#FFFFFF" d="M465.5,71.3H412c-10.3,0-19-9-19-19.3c0-7.6,4.5-14.5,11.2-17.6
		c0.3-7.3,6.2-12.9,13.4-12.9c2.2,0,4.5,0.6,6.4,1.7c4.2-7.8,12.6-12.9,21.5-12.9c10.9,0,20.1,7,23.5,17.3
		c10.1,1.7,17.9,11.2,17.9,21.8C487.3,61.3,477.2,71.3,465.5,71.3z M417.6,25.5c-5,0-9.2,4.2-9.2,9.2V35l0.3,2l-1.7,0.6
		c-5.9,2-9.8,7.8-9.8,14.3c0,8.1,6.7,15.1,14.8,15.1h53.4c9.5,0,17.6-8.1,17.6-17.9c0-9-7-16.8-15.7-17.9l-1.4-0.3l-0.3-1.4
		c-2.2-9.2-10.3-15.4-19.6-15.4c-8.4,0-15.7,5-18.7,12.6l-1.1,2.8l-2.2-2C421.8,26.3,419.9,25.5,417.6,25.5z"/>
</g>
<g>
	<g>
		<path fill="#AAAD00" d="M75.5,73.3h-71c-3.6,0-4.2-2-4.2-3.4v-47l2.2-0.3c8.4,0,13.7-3.1,17.1-5c2-1.1,3.6-2,5-2h0.6l0.8-5
			c0.3-2.2,2.2-3.9,4.5-3.9h23.2c2.2,0,4.2,1.7,4.8,3.6l1.1,5.3h15.9c2.5,0,4.2,3.1,4.2,5.3v49C80,71.3,79.2,73.3,75.5,73.3z
			 M4.2,69.1C4.5,69.1,4.5,69.1,4.2,69.1h71.3l0,0V21c0-0.3-0.3-0.8-0.6-1.1H55.7L54,11.5c0-0.3-0.6-0.6-0.8-0.6H29.9
			c-0.3,0-0.6,0.3-0.6,0.6L28,19.9h-3.6c-0.3,0-1.7,0.8-2.8,1.4c-3.4,2-9,5-17.3,5.6V69.1z"/>
	</g>
	<g>
		<rect y="15.7" fill="#AAAD00" width="9" height="4.2"/>
	</g>
	<g>
		<path fill="#AAAD00" d="M42.2,64.3c-10.9,0-19.9-9-19.9-19.9s9-19.9,19.9-19.9s19.9,9,19.9,19.9S53.1,64.3,42.2,64.3z M42.2,28.8
			c-8.7,0-15.7,7-15.7,15.7s7,15.7,15.7,15.7s15.7-7,15.7-15.7S50.9,28.8,42.2,28.8z"/>
	</g>
</g>
<g display="none">
	<path display="inline" fill="#FFFFFF" d="M339,74.1h-57.3V18.2h42c1.1,0,2.2,0.8,2.2,2.2s-0.8,2.2-2.2,2.2h-37.8v47.6h49v-38
		c0-1.1,0.8-2.2,2.2-2.2c1.4,0,2.2,0.8,2.2,2.2v42H339z"/>
</g>
<g display="none">
	<path display="inline" fill="#FFFFFF" d="M306,53.7c-0.6,0-1.1-0.3-1.4-0.6c-0.8-0.8-0.8-2.2,0-3.1L347.7,7
		c0.6-0.6,1.4-0.8,2.2-0.6s1.4,1.1,1.4,2v21.5c0,1.1-0.8,2.2-2.2,2.2c-1.4,0-2.2-0.8-2.2-2.2V13.4l-39.2,39.4
		C307.1,53.4,306.6,53.7,306,53.7z"/>
</g>
<g display="none">
	<path display="inline" fill="#FFFFFF" d="M349.4,10.3h-23.5c-1.1,0-2.2-0.8-2.2-2.2s0.8-2.2,2.2-2.2h23.5c1.1,0,2.2,0.8,2.2,2.2
		S350.5,10.3,349.4,10.3z"/>
</g>
<g display="none">
	<path display="inline" fill="#FFFFFF" d="M215.4,72.7h-68c-5,0-8.7-3.1-8.7-7.6V43.1c0-0.6,0-1.1,0.3-1.7l9.8-21
		c0.3-0.8,0.6-1.1,0.8-1.4c1.1-2,3.1-5.6,7.3-5.6h48.7c4.5,0,6.4,3.6,7.6,5.6c0.3,0.6,0.6,0.8,0.6,1.1l9.8,21.5
		c0.3,0.6,0.3,1.1,0.3,1.7v22.1C224.1,69.7,220.7,72.7,215.4,72.7z M157.2,17.6c-1.7,0-2.5,1.4-3.6,3.4c-0.3,0.6-0.6,0.8-0.8,1.4
		l-9.5,21v21.8c0,3.1,3.1,3.4,4.5,3.4h67.7c1.4,0,4.5-0.3,4.5-3.4V43.1l-9.8-21c0,0-0.3-0.6-0.6-0.8c-1.4-2.2-2.2-3.6-3.9-3.6
		C205.6,17.6,157.2,17.6,157.2,17.6z"/>
</g>
<g display="none">
	<rect x="141" y="41.1" display="inline" fill="#FFFFFF" width="81.1" height="4.2"/>
</g>
<g display="none">
	<path display="inline" fill="#FFFFFF" d="M152.2,62.1c-1.1,0-2.2-0.8-2.2-2.2v-5.6c0-1.1,0.8-2.2,2.2-2.2c1.4,0,2.2,0.8,2.2,2.2
		v5.6C154.4,61.3,153.3,62.1,152.2,62.1z"/>
</g>
<g display="none">
	<path display="inline" fill="#FFFFFF" d="M161.4,62.1c-1.1,0-2.2-0.8-2.2-2.2v-5.6c0-1.1,0.8-2.2,2.2-2.2s2.2,0.8,2.2,2.2v5.6
		C163.4,61.3,162.5,62.1,161.4,62.1z"/>
</g>
<g display="none">
	<path display="inline" fill="#FFFFFF" d="M-82,75.5h-86.2c-5.3,0-9.8-4.5-9.8-9.8V22.9c0-5.3,4.5-9.8,9.8-9.8H-82
		c5.3,0,9.8,4.5,9.8,9.8v42.8C-72.2,71.3-76.6,75.5-82,75.5z M-168.1,17.3c-3.1,0-5.6,2.5-5.6,5.6v42.8c0,3.1,2.5,5.6,5.6,5.6H-82
		c3.1,0,5.6-2.5,5.6-5.6V22.9c0-3.1-2.5-5.6-5.6-5.6C-82,17.3-168.1,17.3-168.1,17.3z"/>
</g>
<g display="none">
	<rect x="-87" y="15.4" display="inline" fill="#FFFFFF" width="4.2" height="58.2"/>
</g>
<g display="none">
	<rect x="-167.6" y="15.4" display="inline" fill="#FFFFFF" width="4.2" height="58.2"/>
</g>
<g display="none">
	<path display="inline" fill="#FFFFFF" d="M-246.7,77.8h-29.4c-4.2,0-7.6-3.4-7.6-7.6V10.9c0-4.2,3.4-7.6,7.6-7.6h29.4
		c4.2,0,7.6,3.4,7.6,7.6v59.3C-239.2,74.4-242.5,77.8-246.7,77.8z M-276.1,7.6c-1.7,0-3.4,1.4-3.4,3.4v59.3c0,1.7,1.4,3.4,3.4,3.4
		h29.4c1.7,0,3.4-1.4,3.4-3.4V10.9c0-1.7-1.4-3.4-3.4-3.4C-246.7,7.6-276.1,7.6-276.1,7.6z"/>
</g>
<g display="none">
	<rect x="-281.4" y="66.9" display="inline" fill="#FFFFFF" width="40.3" height="2.8"/>
</g>
<g display="none">
	<rect x="-281.4" y="11.2" display="inline" fill="#FFFFFF" width="40.3" height="2.8"/>
</g>
<g display="none">
	<path display="inline" fill="#FFFFFF" d="M544.9,79.4c-3.4,0-9-1.4-10.6-10.9c-0.3-0.8-5-24.3,7.8-45.9c5-8.4,11.2-12.6,19-12.6
		c8.1,0,14.8,4.8,15.4,5.3c0.8,0.6,2.8,1.4,3.6,1.4h5c1.1,0,2.8-0.6,3.6-1.4l0,0c0,0,7-5.6,15.7-5.6c7.8,0,14.3,4.2,19,12.6
		c12.6,21.5,7.8,45,7.8,46.2c-1.4,9.2-7.3,10.6-10.3,10.6c-0.3,0-0.8,0-1.1,0c-1.4,0-5.9-0.6-18.7-18.2l-0.3-0.6
		c-0.6-0.8-2-1.4-3.1-1.4h-30.5c-0.8,0-2.2,0.8-3.1,1.4l-0.3,0.6c-12.6,17.6-16.8,17.9-18.5,18.2C545.5,79.2,545.2,79.4,544.9,79.4z
		 M561.1,14.3c-6.2,0-11.5,3.6-15.4,10.3c-12,20.1-7.6,42.2-7.3,43.1c0.8,5.3,3.1,7.6,7,7.3c0.6,0,4.5-1.1,15.4-16.2
		c0.3-0.3,0.6-0.6,0.6-0.6c1.4-1.7,3.9-3.1,6.2-3.1H598c2.2,0,4.8,1.4,6.2,3.1c0,0,0.3,0.3,0.6,0.6c11.5,15.7,15.4,16.5,15.7,16.5
		c3.9,0.3,6.2-2,7-7.3c0.3-1.1,4.8-22.9-7.3-43.1c-4.2-7-9.2-10.3-15.4-10.3c-7,0-12.9,4.5-12.9,4.5c-1.7,1.1-4.5,2.2-6.4,2.2h-5
		c-2,0-4.8-0.8-6.4-2.2C574,18.7,568.1,14.3,561.1,14.3z"/>
</g>
<g display="none">
	<path display="inline" fill="#FFFFFF" d="M599.4,48.1c-2.8,0-5-2.2-5-5s2.2-5,5-5c2.8,0,5,2.2,5,5S602.2,48.1,599.4,48.1z
		 M599.4,40.3c-1.7,0-2.8,1.4-2.8,2.8s1.4,2.8,2.8,2.8c1.7,0,2.8-1.4,2.8-2.8S601.1,40.3,599.4,40.3z"/>
</g>
<g display="none">
	<path display="inline" fill="#FFFFFF" d="M599.4,36.4c-2.8,0-5-2.2-5-5s2.2-5,5-5c2.8,0,5,2.2,5,5
		C604.5,33.8,602.2,36.4,599.4,36.4z M599.4,28.3c-1.7,0-2.8,1.4-2.8,2.8c0,1.4,1.4,2.8,2.8,2.8c1.7,0,2.8-1.4,2.8-2.8
		C602.2,29.7,601.1,28.3,599.4,28.3z"/>
</g>
<g display="none">
	<path display="inline" fill="#FFFFFF" d="M611.5,42.2c-2.8,0-5-2.2-5-5s2.2-5,5-5c2.8,0,5,2.2,5,5S614.3,42.2,611.5,42.2z
		 M611.5,34.1c-1.7,0-2.8,1.4-2.8,2.8s1.4,2.8,2.8,2.8c1.4,0,2.8-1.4,2.8-2.8S613.1,34.1,611.5,34.1z"/>
</g>
<g display="none">
	<path display="inline" fill="#FFFFFF" d="M560.3,46.4c-0.6,0-1.1-0.6-1.1-1.1V29.1c0-0.6,0.6-1.1,1.1-1.1s1.1,0.6,1.1,1.1v16.2
		C561.4,45.9,561.1,46.4,560.3,46.4z"/>
</g>
<g display="none">
	<path display="inline" fill="#FFFFFF" d="M568.7,38.3h-16.2c-0.6,0-1.1-0.6-1.1-1.1s0.6-1.1,1.1-1.1h16.2c0.6,0,1.1,0.6,1.1,1.1
		S569.2,38.3,568.7,38.3z"/>
</g>
<g display="none">
	<path display="inline" fill="#FFFFFF" d="M781,22.1h-0.8l-0.6-0.6l-6.7-6.4v-2l0.6-0.8c0,0,1.1-1.1,2.2-2.2c2-2,5.3-2,7.3,0
		l1.7,1.7c1.1,0.8,1.7,2.2,1.7,3.6s-0.6,2.5-1.4,3.6l-2.2,2.2C782.4,22.1,781.8,22.1,781,22.1z M777.9,14.3l2.2,2.2
		c0.3,0.3,0.6,0.6,0.8,0.8l0.8-0.8c0.3-0.3,0.3-0.3,0.3-0.6c0-0.3,0-0.6-0.3-0.6l-1.7-1.7c-0.6-0.6-0.8-0.6-1.4,0L777.9,14.3z"/>
</g>
<g display="none">
	<path display="inline" fill="#FFFFFF" d="M759.2,45l-9.2-9l24.9-24.6l9.2,9L759.2,45z M756.1,36.1l3.1,3.1l19-18.7l-3.1-3.1
		L756.1,36.1z"/>
</g>
<g display="none">
	<path display="inline" fill="#FFFFFF" d="M748.5,48.4c-0.6,0-1.1-0.3-1.4-0.6c-0.6-0.6-0.8-1.4-0.6-2.2l4.5-10.3l3.9,1.7l-2.5,5.6
		l5.9-2.5l1.7,3.9l-10.6,4.5C749.1,48.4,748.8,48.4,748.5,48.4z"/>
</g>
<g display="none">
	<path display="inline" fill="#FFFFFF" d="M774,76.6h-87.3c-4.2,0-7.8-3.4-7.8-7.8V21.3c0-4.2,3.4-7.8,7.8-7.8H774
		c4.2,0,7.8,3.4,7.8,7.8v47.8C781.8,73,778.2,76.6,774,76.6z M686.7,17.6c-2,0-3.4,1.7-3.4,3.6v47.8c0,2,1.7,3.4,3.4,3.4H774
		c2,0,3.4-1.7,3.4-3.4V21.3c0-2-1.7-3.6-3.4-3.6C774,17.6,686.7,17.6,686.7,17.6z"/>
</g>
<g display="none">
	<rect x="695.9" y="15.7" display="inline" fill="#FFFFFF" width="4.2" height="59"/>
</g>
<g display="none">
	<path display="inline" fill="#FFFFFF" d="M909.9,90.3c-0.6,0-1.1,0-1.7,0c-2.5-0.3-4.5-2.2-4.5-4.8c0-0.8,0-2,0.3-2.8l2.2-30.5
		c0-0.8,0-2,0.3-2.8c0.3-2.8,2.5-5,5.6-4.8c0.3,0,0.6,0,0.6,0l0,0c0.3-2.5,0.6-4.8,0.3-7.3c-0.3-3.1-1.1-5.9-2.8-8.1
		c-1.1-0.3-2.2-0.8-3.1-1.7c-2.2-2-5-3.4-8.7-4.2c-2.8-0.6-6.2-0.8-9.2-0.8c-2.5,0-4.8,0.3-7,0.8c-2.8,0.8-5,2-7,3.4
		c-0.3,0.3-0.6,0.6-0.8,0.6c-0.8,0.8-2,1.4-3.1,1.7c-1.4,2.2-2.2,4.8-2.5,7.6c-0.3,2.5-0.3,5,0,7.8c0.3,0,0.8,0,1.1,0l0,0
		c2.8,0,4.8,2,5,4.8l2.5,36.1c0,1.4-0.3,2.8-1.1,3.6c-0.8,0.8-2.2,1.7-3.6,1.7c-5.6,0.3-10.6-1.1-15.1-4.5
		c-4.5-3.4-7.6-7.8-8.7-13.1c-1.7-8.1,0.3-15.4,6.2-21.3c1.4-1.4,2.8-2.5,4.5-3.6c-0.6-3.1-0.8-6.4-0.8-9.5
		c0.3-5.6,1.7-10.1,4.5-14.3c-0.6-2.2,0.3-4.5,2-6.2c2.8-2.8,6.4-4.8,10.3-6.2c2.8-1.1,5.6-1.7,8.4-2c1.1,0,2-0.3,3.1-0.3l2-0.3h5
		c4.5,0.3,8.7,1.1,12.3,2.5s7,3.4,9.8,6.2c1.7,1.7,2.2,3.6,2,5.9c1.7,2.8,3.1,5.6,3.6,9c0.6,2.8,0.8,6.2,0.8,9.2
		c0,2-0.3,3.6-0.8,5.6c2,1.1,3.6,2.5,5.3,4.5c2.8,3.1,4.8,6.7,5.3,10.9c2.2,10.9-3.9,21.5-14,25.7C915.8,89.8,912.7,90.3,909.9,90.3
		z M911.3,48.7c-0.6,0-0.8,0.3-0.8,0.8c0,0.8,0,2-0.3,2.8L908,82.8c0,0.8,0,1.7-0.3,2.8c0,0.3,0.3,0.6,0.6,0.6
		c2.8,0.3,5.6-0.3,8.1-1.4c8.4-3.4,13.1-12.3,11.5-21c-0.6-3.4-2.2-6.4-4.5-9c-1.4-1.7-3.4-3.1-5.3-4.2c-1.4-0.6-1.4-2-1.4-2.8
		c0.6-2,0.8-3.9,0.8-6.2c0.3-2.8,0-5.6-0.6-8.1c-0.6-3.1-2-5.9-3.4-8.1c-0.6-0.6-0.6-1.4-0.3-2.2c0.3-1.1,0-1.7-0.6-2.5
		c-2.2-2.2-5-3.9-8.4-5c-3.4-1.4-7-2-11.2-2.2h-1.7l-4.5,0.3c-1.1,0-2,0.3-3.1,0.3c-2.5,0.3-5,0.8-7.6,1.7c-3.6,1.4-6.4,3.1-9,5.3
		c-0.8,0.8-1.1,1.4-0.8,2.5c0.3,0.8,0,1.7-0.6,2.5c-2.5,3.6-3.6,7.8-3.9,12.6c-0.3,3.1,0,6.4,0.8,9.5c0.3,1.1-0.3,2.2-1.4,2.8
		c-1.7,0.8-3.4,2-4.5,3.4c-4.8,5-6.4,10.9-5,17.6c0.8,4.5,3.4,8.1,7,10.9s7.8,3.9,12.3,3.6c0.3,0,0.6,0,0.6-0.3
		c0-0.3,0.3-0.3,0.3-0.6l-2.5-35.8c0-0.8-0.6-0.8-0.6-0.8c-0.3,0-0.8,0-1.1,0h-0.6c-0.3,0-0.6,0-0.8,0l-2.2,0.3l-0.6-2.2
		c-0.8-3.9-0.8-7.6-0.6-10.9c0.6-3.9,1.7-7,3.6-9.8c0.6-0.6,1.1-1.1,2-1.1c0.6,0,1.1-0.3,1.4-0.6c0.3-0.3,0.6-0.6,0.8-0.8
		c2.2-2,5-3.4,8.7-4.2c2.5-0.6,5-1.1,7.8-1.1c3.6-0.3,7.3,0,10.3,0.8c4.5,1.1,7.8,2.8,10.6,5.3c0.3,0.3,0.8,0.6,1.4,0.6
		c0.8,0,1.4,0.6,2,1.1c2,3.1,3.4,6.4,3.6,10.6c0.3,2.8,0.3,5.6-0.3,8.4c0,0.6-0.3,1.1-0.3,1.4l-0.6,2.5l-2.8-0.3
		C912.4,49,911.9,49,911.3,48.7L911.3,48.7z"/>
</g>
<g display="none">
	<g display="inline">
		<path fill="#FFFFFF" d="M1011.7,68.3h-1.1c-9,0-16.2-7.3-16.2-16.2V25.5c0-9,7.3-16.2,16.2-16.2h1.1c9,0,16.2,7.3,16.2,16.2V52
			C1028,61,1020.7,68.3,1011.7,68.3z M1010.3,13.4c-6.7,0-12,5.3-12,12V52c0,6.7,5.3,12,12,12h1.1c6.7,0,12-5.3,12-12V25.5
			c0-6.7-5.3-12-12-12C1011.5,13.4,1010.3,13.4,1010.3,13.4z"/>
	</g>
	<g display="inline">
		<path fill="#FFFFFF" d="M1029.9,91.5h-17.1V71l2-0.3c5-0.3,9-2.2,11.7-5.6c5.9-7.3,5-18.7,5-18.7c0-1.1,0.8-2.2,2-2.2
			s2.2,0.8,2.2,2c0,0.6,1.1,13.4-5.9,21.8c-3.1,3.9-7.6,6.2-12.6,7v12.3h12.9c1.1,0,2.2,0.8,2.2,2.2
			C1032.4,90.9,1031,91.5,1029.9,91.5z"/>
	</g>
	<g display="inline">
		<path fill="#FFFFFF" d="M1009.5,91.5h-17.1c-1.1,0-2.2-0.8-2.2-2.2c0-1.4,0.8-2.2,2.2-2.2h12.9V74.7c-5.3-0.8-9.5-3.1-12.6-7
			c-7-8.4-5.9-21.3-5.9-21.8c0-1.1,1.1-2,2.2-2c1.1,0,2,1.1,2,2.2c0,0-1.1,11.7,5,18.7c2.8,3.4,6.7,5.3,11.7,5.6l2,0.3v20.7H1009.5z
			"/>
	</g>
	<g display="inline">
		<path fill="#FFFFFF" d="M997.2,28.3h7.6c1.4,0,2.5-0.8,2.5-1.7l0,0c0-0.8-1.1-1.7-2.5-1.7h-7.6V28.3z"/>
	</g>
	<g display="inline">
		<path fill="#FFFFFF" d="M997.2,36.9h7.6c1.4,0,2.5-0.8,2.5-1.7l0,0c0-0.8-1.1-1.7-2.5-1.7h-7.6V36.9z"/>
	</g>
	<g display="inline">
		<path fill="#FFFFFF" d="M997.2,44.5h7.6c1.4,0,2.5-0.8,2.5-1.7l0,0c0-0.8-1.1-1.7-2.5-1.7h-7.6V44.5z"/>
	</g>
	<g display="inline">
		<path fill="#FFFFFF" d="M997.2,51.7h7.6c1.4,0,2.5-0.8,2.5-1.7l0,0c0-0.8-1.1-1.7-2.5-1.7h-7.6V51.7z"/>
	</g>
</g>
<g display="none">
	<g display="inline">
		<path fill="#FFFFFF" d="M-359.7,74.7h-90.6c-0.8,0-1.4-0.3-2-1.1c-0.3-0.6-0.3-1.4,0-2.2l11.7-19.6v-42c0-1.1,0.8-2.2,2.2-2.2
			h66.3c1.1,0,2.2,0.8,2.2,2.2V52l11.7,19.6c0.3,0.6,0.3,1.4,0,2.2C-358,74.1-358.9,74.7-359.7,74.7z M-446.7,70.5h83.4l-10.3-16.8
			c-0.3-0.3-0.3-0.8-0.3-1.1V11.7h-62.1v40.6c0,0.3,0,0.8-0.3,1.1L-446.7,70.5z"/>
	</g>
	<g display="inline">
		<path fill="#FFFFFF" d="M-371.7,54.5H-438c-1.1,0-2.2-0.8-2.2-2.2c0-1.1,0.8-2,2.2-2h66.3c1.1,0,2.2,0.8,2.2,2
			C-369.8,53.7-370.6,54.5-371.7,54.5z"/>
	</g>
	<g display="inline">
		<path fill="#FFFFFF" d="M-375.4,64.3h-59c-1.1,0-2.2-0.8-2.2-2.2s0.8-2.2,2.2-2.2h59c1.1,0,2.2,0.8,2.2,2.2
			S-374.3,64.3-375.4,64.3z"/>
	</g>
	<g display="inline">
		<path fill="#FFFFFF" d="M-422.9,74.7c-0.3,0-0.8,0-1.1-0.3c-0.8-0.6-1.1-2-0.6-2.8l7-10.3c0.6-0.8,2-1.1,2.8-0.6
			c0.8,0.6,1.1,2,0.6,2.8l-7,10.3C-421.8,74.1-422.4,74.7-422.9,74.7z"/>
	</g>
	<g display="inline">
		<path fill="#FFFFFF" d="M-387.7,74.7c-0.6,0-1.4-0.3-1.7-0.8l-7-10.3c-0.6-0.8-0.6-2.2,0.6-2.8c0.8-0.6,2.2-0.6,2.8,0.6l7,10.3
			c0.6,0.8,0.6,2.2-0.6,2.8C-386.9,74.4-387.1,74.7-387.7,74.7z"/>
	</g>
</g>
<g display="none">
	<circle display="inline" fill="#FFFFFF" cx="-261.3" cy="71.6" r="2"/>
</g>
<path display="none" fill="none" stroke="#FFFFFF" stroke-width="1.5" stroke-miterlimit="10" d="M-524.5,359.7h-76.4
	c-3.1,0-5.6-2.5-5.6-5.6v-39.7c0-3.1,2.5-5.6,5.6-5.6h76.4c3.1,0,5.6,2.5,5.6,5.6v39.7C-518.9,357.2-521.4,359.7-524.5,359.7z"/>
<line display="none" fill="none" stroke="#FFFFFF" stroke-width="1.5" stroke-linecap="round" stroke-linejoin="round" stroke-miterlimit="10" x1="-606.4" y1="351" x2="-518.9" y2="351"/>
<polyline display="none" fill="none" stroke="#FFFFFF" stroke-width="1.5" stroke-linecap="round" stroke-linejoin="round" stroke-miterlimit="10" points="
	-574,362.5 -574,368.7 -551.6,368.7 -551.6,362.5 "/>
<path display="none" fill="#FFFFFF" d="M-544.1,377.3h-37.2c-0.8,0-1.4-0.6-1.4-1.4v-0.6c0-0.8,0.6-1.4,1.4-1.4h37.2
	c0.8,0,1.4,0.6,1.4,1.4v0.6C-542.7,376.8-543.2,377.3-544.1,377.3z"/>
<path display="none" fill="none" stroke="#FFFFFF" stroke-width="1.5" stroke-miterlimit="10" d="M467.4,328.7
	c-2.5-9.8-11.2-17.1-21.8-17.1c-9.5,0-17.3,5.9-20.7,14c-2-1.7-4.5-2.8-7.3-2.8c-6.2,0-11.2,5-11.2,11.2c0,0.3,0,0.6,0,1.1
	c-6.7,2.2-11.2,9-11.2,16.2c0,9.2,7.6,17.3,16.8,17.3h53.4c10.9,0,19.6-9.2,19.6-20.1C485,338.5,477.2,329.8,467.4,328.7z"/>
<g display="none">
	<path display="inline" fill="none" stroke="#FFFFFF" stroke-width="1.5" stroke-miterlimit="10" d="M75.5,316.9H57.6l-1.4-6.7
		c-0.3-1.1-1.7-2.2-2.8-2.2H30.2c-1.1,0-2.5,1.1-2.5,2.2l-1.1,6.7h-2.2c-3.1,0-9,7.3-22.4,7.3v0.3c0,0,0,1.1,0,2.5v42.2
		c0,1.1,1.1,1.4,2.2,1.4h71.3c1.1,0,2.2,0,2.2-1.4v-49C77.8,318.9,76.9,316.9,75.5,316.9z"/>
	
		<line display="inline" fill="none" stroke="#FFFFFF" stroke-width="1.5" stroke-miterlimit="10" x1="0" y1="316.9" x2="9" y2="316.9"/>
	<circle display="inline" fill="none" stroke="#FFFFFF" stroke-width="1.5" stroke-miterlimit="10" cx="42.2" cy="343.8" r="17.9"/>
</g>
<polyline display="none" fill="none" stroke="#FFFFFF" stroke-width="1.5" stroke-linecap="round" stroke-miterlimit="10" points="
	336.8,331.5 336.8,371.5 283.6,371.5 283.6,319.7 323.6,319.7 "/>
<polyline display="none" fill="none" stroke="#FFFFFF" stroke-width="1.5" stroke-linecap="round" stroke-linejoin="round" stroke-miterlimit="10" points="
	306,350.8 349.4,307.7 349.4,329.2 "/>
<line display="none" fill="none" stroke="#FFFFFF" stroke-width="1.5" stroke-linecap="round" stroke-linejoin="round" stroke-miterlimit="10" x1="349.4" y1="307.7" x2="325.9" y2="307.7"/>
<path display="none" fill="none" stroke="#FFFFFF" stroke-width="1.5" stroke-miterlimit="10" d="M215.4,370.1h-68
	c-3.9,0-6.4-2.2-6.4-5.3v-22.4c0-0.3,0-0.6,0.3-0.6l9.8-21c0.3-0.6,0.6-0.8,0.8-1.4c1.1-2,2.5-4.5,5.6-4.5h48.7
	c3.1,0,4.5,2.5,5.6,4.5c0.3,0.3,0.3,0.8,0.6,1.1l9.8,21.3c0,0.3,0.3,0.6,0.3,0.6v22.1C221.8,367.8,219.3,370.1,215.4,370.1z"/>
<line display="none" fill="none" stroke="#FFFFFF" stroke-width="1.5" stroke-miterlimit="10" x1="141" y1="342.4" x2="221.8" y2="342.4"/>
<line display="none" fill="none" stroke="#FFFFFF" stroke-width="1.5" stroke-linecap="round" stroke-miterlimit="10" x1="152.2" y1="353.6" x2="152.2" y2="359.4"/>
<line display="none" fill="none" stroke="#FFFFFF" stroke-width="1.5" stroke-linecap="round" stroke-miterlimit="10" x1="161.4" y1="353.6" x2="161.4" y2="359.4"/>
<path display="none" fill="none" stroke="#FFFFFF" stroke-width="1.5" stroke-miterlimit="10" d="M-74.1,322.5v42.8
	c0,4.2-3.4,7.8-7.8,7.8h-86.2c-4.2,0-7.8-3.4-7.8-7.8v-42.8c0-4.2,3.4-7.8,7.8-7.8H-82C-77.8,314.7-74.1,318-74.1,322.5z"/>
<line display="none" fill="none" stroke="#FFFFFF" stroke-width="1.5" stroke-miterlimit="10" x1="-84.8" y1="314.7" x2="-84.8" y2="372.9"/>
<line display="none" fill="none" stroke="#FFFFFF" stroke-width="1.5" stroke-miterlimit="10" x1="-165.6" y1="314.7" x2="-165.6" y2="372.9"/>
<path display="none" fill="none" stroke="#FFFFFF" stroke-width="1.5" stroke-miterlimit="10" d="M-246.7,375.1h-29.4
	c-3.1,0-5.3-2.5-5.3-5.3v-59.3c0-3.1,2.5-5.3,5.3-5.3h29.4c3.1,0,5.3,2.5,5.3,5.3v59.3C-241.4,372.6-243.6,375.1-246.7,375.1z"/>
<line display="none" fill="none" stroke="#FFFFFF" stroke-miterlimit="10" x1="-241.4" y1="367.8" x2="-281.4" y2="367.8"/>
<line display="none" fill="none" stroke="#FFFFFF" stroke-miterlimit="10" x1="-241.4" y1="311.9" x2="-281.4" y2="311.9"/>
<path display="none" fill="none" stroke="#FFFFFF" stroke-width="1.5" stroke-miterlimit="10" d="M622.1,323.1
	c-4.5-7.6-10.3-11.5-17.3-11.5c-7.8,0-14.3,5-14.3,5c-1.1,0.8-3.6,1.7-5,1.7h-5c-1.4,0-3.9-0.8-5-1.7c-0.3-0.3-6.4-5-14.3-5
	c-7,0-12.9,3.9-17.3,11.5c-12.3,21-7.6,43.6-7.6,44.5c1.1,7.6,5.3,9,8.4,9c0.3,0,0.6,0,0.8,0c5.3-0.6,16.8-17.1,17.3-17.6
	c1.1-1.1,3.1-2.2,4.5-2.2h30.5c1.4,0,3.6,1.1,4.5,2.2c0.6,0.6,12.3,17.3,17.6,17.9c0.3,0,0.6,0,0.8,0c3.1,0,7.3-1.7,8.4-9
	C629.7,367.3,634.4,344.1,622.1,323.1z"/>
<path display="none" fill="none" stroke="#FFFFFF" stroke-width="0.75" stroke-linecap="round" stroke-linejoin="round" stroke-miterlimit="10" d="
	M599.4,346.3c-2.2,0-3.9-1.7-3.9-3.9s1.7-3.9,3.9-3.9c2.2,0,3.9,1.7,3.9,3.9S601.7,346.3,599.4,346.3z"/>
<path display="none" fill="none" stroke="#FFFFFF" stroke-width="0.75" stroke-linecap="round" stroke-linejoin="round" stroke-miterlimit="10" d="
	M599.4,334.5c-2.2,0-3.9-1.7-3.9-3.9s1.7-3.9,3.9-3.9c2.2,0,3.9,1.7,3.9,3.9S601.7,334.5,599.4,334.5z"/>
<circle display="none" fill="none" stroke="#FFFFFF" stroke-width="0.75" stroke-linecap="round" stroke-linejoin="round" stroke-miterlimit="10" cx="611.5" cy="336.5" r="3.9"/>
<line display="none" fill="none" stroke="#FFFFFF" stroke-width="0.75" stroke-linecap="round" stroke-linejoin="round" stroke-miterlimit="10" x1="560.3" y1="328.4" x2="560.3" y2="344.6"/>
<line display="none" fill="none" stroke="#FFFFFF" stroke-width="0.75" stroke-linecap="round" stroke-linejoin="round" stroke-miterlimit="10" x1="552.2" y1="336.5" x2="568.7" y2="336.5"/>
<path display="none" fill="none" stroke="#FFFFFF" stroke-width="1.5" stroke-miterlimit="10" d="M781.5,311.3
	c-1.1-1.1-3.1-1.1-4.5,0c-1.1,1.1-2.2,2.2-2.2,2.2v0.3c0,0,1.1,1.1,2.2,2.2l1.4,1.4c1.1,1.1,2.2,2.2,2.2,2.2h0.3
	c0,0,1.1-1.1,2.2-2.2c1.1-1.1,1.1-3.1,0-4.2L781.5,311.3z"/>
<polygon display="none" fill="none" stroke="#FFFFFF" stroke-width="1.5" stroke-miterlimit="10" points="774.8,313.6 753,335.4 
	759.2,341.3 781.3,319.4 "/>
<polyline display="none" fill="none" stroke="#FFFFFF" stroke-width="1.5" stroke-linejoin="round" stroke-miterlimit="10" points="
	753,335.4 748.5,345.7 748.5,345.7 759.4,341.3 "/>
<path display="none" fill="none" stroke="#FFFFFF" stroke-width="1.5" stroke-linejoin="round" stroke-miterlimit="10" d="
	M774,373.7h-87.3c-3.1,0-5.6-2.5-5.6-5.6v-47.8c0-3.1,2.5-5.6,5.6-5.6H774c3.1,0,5.6,2.5,5.6,5.6v47.8
	C779.6,371.2,777.1,373.7,774,373.7z"/>
<line display="none" fill="none" stroke="#FFFFFF" stroke-width="1.5" stroke-miterlimit="10" x1="698.2" y1="373.7" x2="698.2" y2="315"/>
<path display="none" fill="none" stroke="#FFFFFF" stroke-width="1.5" stroke-miterlimit="10" d="M892.3,310.8c0.6,0,1.1,0,1.7,0
	c3.9,0.3,7.8,0.8,11.7,2.5c3.4,1.4,6.4,3.1,9,5.6c1.4,1.4,1.7,2.8,1.1,4.5c0,0.3,0,0.3,0,0.6c2,2.8,3.1,5.6,3.6,9
	c0.6,2.8,0.8,5.9,0.6,8.7c0,2.2-0.6,4.5-0.8,6.4c0,0.3,0,0.3,0.3,0.3c2.2,1.1,4.2,2.8,5.9,4.5c2.5,2.8,4.2,6.2,5,9.8
	c2,9.8-3.4,19.6-12.6,23.5c-3.1,1.1-5.9,1.7-9.2,1.4c-1.4,0-2.5-1.1-2.5-2.8c0-1.1,0-2.5,0.3-3.6c0.3-2.2,0.3-4.2,0.6-6.4
	c0.3-2.5,0.3-5,0.6-7.3c0.3-2.5,0.3-4.8,0.6-7.3c0.3-2.5,0.3-5,0.6-7.3c0-1.4,0.3-2.8,0.3-4.2c0-1.7,1.4-2.8,3.1-2.8
	c0.8,0,1.7,0.3,2.5,0.3c0-0.6,0.3-1.4,0.3-2c0.3-2.5,0.6-5,0.3-7.8c-0.3-3.4-1.4-6.7-3.4-9.8l-0.3-0.3c-0.8,0-1.7-0.6-2.5-1.1
	c-2.8-2.5-5.9-3.9-9.5-4.8c-3.4-0.8-6.7-0.8-9.8-0.8c-2.5,0-5,0.3-7.3,1.1c-2.8,0.8-5.6,2-7.8,3.9c-0.3,0.3-0.6,0.6-0.8,0.8
	c-0.8,0.6-1.7,1.1-2.5,1.1c-0.3,0-0.3,0.3-0.3,0.3c-2,2.8-2.8,5.9-3.4,9c-0.6,3.4-0.3,7,0.6,10.3c0,0,0,0,0,0.3c0.3,0,0.8,0,1.1-0.3
	c0.6,0,1.1-0.3,2-0.3c1.7,0,2.8,1.1,2.8,2.8c0.3,4.2,0.6,8.4,0.8,12.6c0.3,3.4,0.6,6.7,0.6,10.3c0.3,3.6,0.6,7.6,0.8,11.2
	c0,0.6,0,1.4,0,2c0,1.7-1.1,3.1-2.8,3.1c-5,0.3-9.5-1.1-13.7-4.2s-6.7-7-7.8-12c-1.7-7.6,0.3-14,5.6-19.6c1.4-1.4,3.1-2.8,5-3.6
	c0.3,0,0.3-0.3,0.3-0.6c-0.8-3.4-1.1-6.7-0.8-10.1c0.3-5,1.7-9.5,4.2-13.7c0.3-0.3,0.3-0.6,0.3-0.8c-0.3-1.7,0-3.4,1.4-4.5
	c2.8-2.5,6.2-4.5,9.5-5.9c2.5-0.8,5.3-1.7,8.1-2c1.4-0.3,3.1-0.3,4.5-0.3h0.3C890.1,310.8,891.2,310.8,892.3,310.8z"/>
<g display="none">
	<path display="inline" fill="none" stroke="#FFFFFF" stroke-width="1.5" stroke-miterlimit="10" d="M1011.7,365.6h-1.1
		c-7.8,0-14-6.4-14-14V325c0-7.8,6.4-14,14-14h1.1c7.8,0,14,6.4,14,14v26.6C1025.7,359.2,1019.3,365.6,1011.7,365.6z"/>
	<path display="inline" fill="none" stroke="#FFFFFF" stroke-width="1.5" stroke-linecap="round" stroke-miterlimit="10" d="
		M1033.6,345.7c0,0,2.5,25.2-18.5,26.6v16.2h15.1"/>
	<path display="inline" fill="none" stroke="#FFFFFF" stroke-width="1.5" stroke-linecap="round" stroke-miterlimit="10" d="
		M988.8,345.7c0,0-2.5,25.2,18.5,26.6v16.2h-15.1"/>
	<path display="inline" fill="#FFFFFF" d="M997.2,327.6h7.6c1.4,0,2.5-0.8,2.5-1.7l0,0c0-0.8-1.1-1.7-2.5-1.7h-7.6V327.6z"/>
	<path display="inline" fill="#FFFFFF" d="M997.2,336.2h7.6c1.4,0,2.5-0.8,2.5-1.7l0,0c0-0.8-1.1-1.7-2.5-1.7h-7.6V336.2z"/>
	<path display="inline" fill="#FFFFFF" d="M997.2,343.8h7.6c1.4,0,2.5-0.8,2.5-1.7l0,0c0-0.8-1.1-1.7-2.5-1.7h-7.6V343.8z"/>
	<path display="inline" fill="#FFFFFF" d="M997.2,351h7.6c1.4,0,2.5-0.8,2.5-1.7l0,0c0-0.8-1.1-1.7-2.5-1.7h-7.6V351z"/>
</g>
<g display="none">
	
		<polygon display="inline" fill="none" stroke="#FFFFFF" stroke-width="1.5" stroke-linecap="round" stroke-linejoin="round" stroke-miterlimit="10" points="
		-371.7,351.9 -371.7,309.1 -403.6,309.1 -406.2,309.1 -438,309.1 -438,351.9 -450.3,371.7 -406.2,371.7 -403.9,371.7 -359.7,371.7 
			"/>
	
		<line display="inline" fill="none" stroke="#FFFFFF" stroke-width="1.5" stroke-linecap="round" stroke-linejoin="round" stroke-miterlimit="10" x1="-438" y1="351.9" x2="-371.7" y2="351.9"/>
	
		<line display="inline" fill="none" stroke="#FFFFFF" stroke-width="1.5" stroke-linecap="round" stroke-linejoin="round" stroke-miterlimit="10" x1="-434.4" y1="361.7" x2="-375.4" y2="361.7"/>
	
		<line display="inline" fill="none" stroke="#FFFFFF" stroke-width="1.5" stroke-linecap="round" stroke-linejoin="round" stroke-miterlimit="10" x1="-415.9" y1="361.7" x2="-422.9" y2="371.7"/>
	
		<line display="inline" fill="none" stroke="#FFFFFF" stroke-width="1.5" stroke-linecap="round" stroke-linejoin="round" stroke-miterlimit="10" x1="-394.7" y1="361.7" x2="-387.7" y2="371.7"/>
</g>
<circle display="none" fill="#FFFFFF" cx="-261.3" cy="370.9" r="2"/>
</svg>
