<?xml version="1.0" encoding="utf-8"?>
<!-- Generator: Adobe Illustrator 18.0.0, SVG Export Plug-In . SVG Version: 6.00 Build 0)  -->
<!DOCTYPE svg PUBLIC "-//W3C//DTD SVG 1.1//EN" "http://www.w3.org/Graphics/SVG/1.1/DTD/svg11.dtd">
<svg version="1.1" id="Layer_1" xmlns="http://www.w3.org/2000/svg" xmlns:xlink="http://www.w3.org/1999/xlink" x="0px" y="0px"
	 viewBox="0 0 49.4 49.4" enable-background="new 0 0 49.4 49.4" xml:space="preserve">
<rect x="-220.7" y="-69" display="none" fill="#010101" width="847.9" height="196"/>
<path display="none" fill="none" stroke="#FFFFFF" stroke-miterlimit="10" d="M-33.2,38.5h-118c-7.6,0-13.8-6.2-13.8-13.8v0
	c0-7.6,6.2-13.8,13.8-13.8h118c7.6,0,13.8,6.2,13.8,13.8v0C-19.4,32.3-25.6,38.5-33.2,38.5z"/>
<g display="none">
	
		<text transform="matrix(1 0 0 1 -132.6949 28.5839)" display="inline" fill="#FFFFFF" font-family="'HelveticaNeue-Light'" font-size="9.4843">TEXT IN ALL CAPS</text>
</g>
<g>
	<g>
		<path fill="#FFFFFF" d="M24.7,49.4C11.1,49.4,0,38.3,0,24.7S11.1,0,24.7,0c13.6,0,24.7,11.1,24.7,24.7S38.3,49.4,24.7,49.4z
			 M24.7,1C11.6,1,1,11.6,1,24.7s10.6,23.7,23.7,23.7s23.7-10.6,23.7-23.7S37.7,1,24.7,1z"/>
	</g>
	<g>
		
			<rect x="24.2" y="12.4" transform="matrix(0.7071 0.7071 -0.7071 0.7071 24.667 -10.276)" fill="#FFFFFF" width="1" height="24.5"/>
	</g>
	<g>
		
			<rect x="12.5" y="24.1" transform="matrix(0.7071 0.7071 -0.7071 0.7071 24.668 -10.276)" fill="#FFFFFF" width="24.5" height="1"/>
	</g>
</g>
<g display="none">
	<text transform="matrix(1 0 0 1 511.515 -40.5032)" display="inline"><tspan x="0" y="0" fill="#FFFFFF" font-family="'HelveticaNeue-Light'" font-size="9.4843">LAPTOP</tspan><tspan x="0" y="11.4" fill="#FFFFFF" font-family="'HelveticaNeue-Light'" font-size="9.4843">SMARTPHONE</tspan><tspan x="0" y="22.8" fill="#FFFFFF" font-family="'HelveticaNeue-Light'" font-size="9.4843">TABLET</tspan><tspan x="0" y="34.1" fill="#FFFFFF" font-family="'HelveticaNeue-Light'" font-size="9.4843">HARD DRIVE</tspan><tspan x="0" y="45.5" fill="#FFFFFF" font-family="'HelveticaNeue-Light'" font-size="9.4843">CLOUD STORAGE</tspan><tspan x="0" y="56.9" fill="#FFFFFF" font-family="'HelveticaNeue-Light'" font-size="9.4843">DSLR</tspan><tspan x="0" y="68.3" fill="#FFFFFF" font-family="'HelveticaNeue-Light'" font-size="9.4843">GAME CONTROLLER</tspan><tspan x="0" y="79.7" fill="#FFFFFF" font-family="'HelveticaNeue-Light'" font-size="9.4843">WACOM PEN</tspan><tspan x="0" y="91" fill="#FFFFFF" font-family="'HelveticaNeue-Light'" font-size="9.4843">HEADPHONES</tspan><tspan x="0" y="102.4" fill="#FFFFFF" font-family="'HelveticaNeue-Light'" font-size="9.4843">MIC</tspan></text>
</g>
<g display="none">
	<path display="inline" fill="#FFFFFF" d="M-124.1-21h-27.3c-1.5,0-2.8-1.2-2.8-2.8V-38c0-1.5,1.2-2.8,2.8-2.8h27.3
		c1.5,0,2.8,1.2,2.8,2.8v14.2C-121.4-22.3-122.6-21-124.1-21z M-151.4-39.2c-0.7,0-1.2,0.6-1.2,1.2v14.2c0,0.7,0.6,1.2,1.2,1.2h27.3
		c0.7,0,1.2-0.6,1.2-1.2V-38c0-0.7-0.6-1.2-1.2-1.2H-151.4z"/>
</g>
<g display="none">
	<path display="inline" fill="#FFFFFF" d="M-122.1-24.2h-31.3c-0.4,0-0.8-0.3-0.8-0.8s0.3-0.8,0.8-0.8h31.3c0.4,0,0.8,0.3,0.8,0.8
		S-121.7-24.2-122.1-24.2z"/>
</g>
<g display="none">
	<path display="inline" fill="#FFFFFF" d="M-133.8-17.9h-8c-0.4,0-0.8-0.3-0.8-0.8v-2.2c0-0.4,0.3-0.8,0.8-0.8s0.8,0.3,0.8,0.8v1.5
		h6.5v-1.5c0-0.4,0.3-0.8,0.8-0.8s0.8,0.3,0.8,0.8v2.2C-133.1-18.2-133.4-17.9-133.8-17.9z"/>
</g>
<g display="none">
	<path display="inline" fill="#FFFFFF" d="M-131.2-15.5h-13.3c-0.3,0-0.5-0.2-0.5-0.5v-0.2c0-0.3,0.2-0.5,0.5-0.5h13.3
		c0.3,0,0.5,0.2,0.5,0.5v0.2C-130.6-15.7-130.9-15.5-131.2-15.5z"/>
</g>
<g display="none">
	<path display="inline" fill="#FFFFFF" d="M229.8-17.9h-19.1c-3.7,0-6.8-3.2-6.8-6.9c0-2.7,1.6-5.2,4-6.3c0.1-2.6,2.2-4.6,4.8-4.6
		c0.8,0,1.6,0.2,2.3,0.6c1.5-2.8,4.5-4.6,7.7-4.6c3.9,0,7.2,2.5,8.4,6.2c3.6,0.6,6.4,4,6.4,7.8C237.5-21.5,234-17.9,229.8-17.9z
		 M212.7-34.3c-1.8,0-3.3,1.5-3.3,3.3c0,0,0,0.1,0,0.1l0.1,0.7l-0.6,0.2c-2.1,0.7-3.5,2.8-3.5,5.1c0,2.9,2.4,5.4,5.3,5.4h19.1
		c3.4,0,6.3-2.9,6.3-6.4c0-3.2-2.5-6-5.6-6.4l-0.5-0.1l-0.1-0.5c-0.8-3.3-3.7-5.5-7-5.5c-3,0-5.6,1.8-6.7,4.5l-0.4,1l-0.8-0.7
		C214.2-34,213.5-34.3,212.7-34.3z"/>
</g>
<g display="none">
	<g display="inline">
		<path fill="#FFFFFF" d="M90.4-17.2H65c-1.3,0-1.5-0.7-1.5-1.2v-16.7l0.8-0.1c3,0,4.9-1.1,6.1-1.8c0.7-0.4,1.3-0.7,1.8-0.7h0.2
			l0.3-1.8c0.1-0.8,0.9-1.4,1.7-1.4h8.3c0.8,0,1.5,0.6,1.7,1.3l0.4,1.9h5.8c0.9,0,1.5,1.1,1.5,1.9v17.5C92-17.9,91.7-17.2,90.4-17.2
			z M64.9-18.7C64.9-18.7,65-18.7,64.9-18.7h25.5c0,0,0,0,0,0v-17.2c0-0.1-0.1-0.3-0.2-0.4h-6.9l-0.6-3c0-0.1-0.2-0.2-0.3-0.2h-8.3
			c-0.1,0-0.2,0.1-0.2,0.2l-0.5,3h-1.4c-0.2,0-0.7,0.3-1.1,0.5c-1.2,0.7-3.1,1.8-6.1,2V-18.7z"/>
	</g>
	<g display="inline">
		<rect x="63.4" y="-37.8" fill="#FFFFFF" width="3.2" height="1.5"/>
	</g>
	<g display="inline">
		<path fill="#FFFFFF" d="M78.5-20.4c-3.9,0-7.1-3.2-7.1-7.1c0-3.9,3.2-7.1,7.1-7.1s7.1,3.2,7.1,7.1C85.6-23.6,82.4-20.4,78.5-20.4z
			 M78.5-33.1c-3.1,0-5.6,2.5-5.6,5.6c0,3.1,2.5,5.6,5.6,5.6s5.6-2.5,5.6-5.6C84.1-30.6,81.6-33.1,78.5-33.1z"/>
	</g>
</g>
<g display="none">
	<path display="inline" fill="#FFFFFF" d="M184.5-16.9h-20.5v-20h15c0.4,0,0.8,0.3,0.8,0.8s-0.3,0.8-0.8,0.8h-13.5v17H183v-13.5
		c0-0.4,0.3-0.7,0.8-0.7s0.8,0.3,0.8,0.7V-16.9z"/>
</g>
<g display="none">
	<path display="inline" fill="#FFFFFF" d="M172.8-24.2c-0.2,0-0.4-0.1-0.5-0.2c-0.3-0.3-0.3-0.8,0-1.1l15.4-15.4
		c0.2-0.2,0.5-0.3,0.8-0.2c0.3,0.1,0.5,0.4,0.5,0.7v7.7c0,0.4-0.3,0.7-0.8,0.7s-0.8-0.3-0.8-0.7v-5.9l-14.1,14.1
		C173.2-24.3,173-24.2,172.8-24.2z"/>
</g>
<g display="none">
	<path display="inline" fill="#FFFFFF" d="M188.2-39.7h-8.4c-0.4,0-0.8-0.3-0.8-0.8s0.3-0.8,0.8-0.8h8.4c0.4,0,0.8,0.3,0.8,0.8
		S188.7-39.7,188.2-39.7z"/>
</g>
<g display="none">
	<path display="inline" fill="#FFFFFF" d="M140.4-17.4h-24.3c-1.8,0-3.1-1.1-3.1-2.7V-28c0-0.2,0-0.4,0.1-0.6l3.5-7.5
		c0.1-0.3,0.2-0.4,0.3-0.5c0.4-0.7,1.1-2,2.6-2h17.4c1.6,0,2.3,1.3,2.7,2c0.1,0.2,0.2,0.3,0.2,0.4l3.5,7.7c0.1,0.2,0.1,0.4,0.1,0.6
		v7.9C143.5-18.5,142.2-17.4,140.4-17.4z M119.5-37.1c-0.6,0-0.9,0.5-1.3,1.2c-0.1,0.2-0.2,0.3-0.3,0.5l-3.4,7.5l0,7.8
		c0,1.1,1.1,1.2,1.6,1.2h24.3c0.5,0,1.6-0.1,1.6-1.2V-28l-3.5-7.5c0,0-0.1-0.2-0.2-0.3c-0.5-0.8-0.8-1.3-1.4-1.3H119.5z"/>
</g>
<g display="none">
	<rect x="113.7" y="-28.7" display="inline" fill="#FFFFFF" width="29" height="1.5"/>
</g>
<g display="none">
	<path display="inline" fill="#FFFFFF" d="M117.8-21.2c-0.4,0-0.8-0.3-0.8-0.8V-24c0-0.4,0.3-0.8,0.8-0.8s0.8,0.3,0.8,0.8v2.1
		C118.5-21.5,118.2-21.2,117.8-21.2z"/>
</g>
<g display="none">
	<path display="inline" fill="#FFFFFF" d="M121-21.2c-0.4,0-0.8-0.3-0.8-0.8V-24c0-0.4,0.3-0.8,0.8-0.8s0.8,0.3,0.8,0.8v2.1
		C121.8-21.5,121.4-21.2,121-21.2z"/>
</g>
<g display="none">
	<path display="inline" fill="#FFFFFF" d="M34.1-16.4H3.3c-1.9,0-3.5-1.6-3.5-3.5v-15.3c0-1.9,1.6-3.5,3.5-3.5h30.8
		c1.9,0,3.5,1.6,3.5,3.5v15.3C37.6-17.9,36-16.4,34.1-16.4z M3.3-37.2c-1.1,0-2,0.9-2,2v15.3c0,1.1,0.9,2,2,2h30.8c1.1,0,2-0.9,2-2
		v-15.3c0-1.1-0.9-2-2-2H3.3z"/>
</g>
<g display="none">
	<rect x="32.3" y="-37.9" display="inline" fill="#FFFFFF" width="1.5" height="20.8"/>
</g>
<g display="none">
	<rect x="3.4" y="-37.9" display="inline" fill="#FFFFFF" width="1.5" height="20.8"/>
</g>
<g display="none">
	<path display="inline" fill="#FFFFFF" d="M-24.8-15.6h-10.5c-1.5,0-2.7-1.2-2.7-2.7v-21.2c0-1.5,1.2-2.7,2.7-2.7h10.5
		c1.5,0,2.7,1.2,2.7,2.7v21.2C-22.1-16.8-23.3-15.6-24.8-15.6z M-35.3-40.7c-0.6,0-1.2,0.5-1.2,1.2v21.2c0,0.6,0.5,1.2,1.2,1.2h10.5
		c0.6,0,1.2-0.5,1.2-1.2v-21.2c0-0.6-0.5-1.2-1.2-1.2H-35.3z"/>
</g>
<g display="none">
	<rect x="-37.2" y="-19.5" display="inline" fill="#FFFFFF" width="14.4" height="1"/>
</g>
<g display="none">
	<rect x="-37.2" y="-39.4" display="inline" fill="#FFFFFF" width="14.4" height="1"/>
</g>
<g display="none">
	<path display="inline" fill="#FFFFFF" d="M258.1-15c-1.2,0-3.2-0.5-3.8-3.9c-0.1-0.3-1.8-8.7,2.8-16.4c1.8-3,4-4.5,6.8-4.5
		c2.9,0,5.3,1.8,5.5,1.9c0.3,0.2,1,0.5,1.3,0.5h1.8c0.4,0,1-0.2,1.3-0.5l0,0c0,0,2.5-2,5.6-2c2.8,0,5.1,1.5,6.8,4.5
		c4.5,7.7,2.8,16.1,2.8,16.5c-0.5,3.3-2.6,3.8-3.7,3.8c-0.1,0-0.3,0-0.4,0c-0.5,0-2.1-0.2-6.7-6.5l-0.1-0.2
		c-0.2-0.3-0.7-0.5-1.1-0.5l-10.9,0c-0.3,0-0.8,0.3-1.1,0.5l-0.1,0.2c-4.5,6.3-6,6.4-6.6,6.5C258.4-15,258.3-15,258.1-15z M264-38.3
		c-2.2,0-4.1,1.3-5.5,3.7c-4.3,7.2-2.7,15.1-2.6,15.4c0.3,1.9,1.1,2.7,2.5,2.6c0.2,0,1.6-0.4,5.5-5.8c0.1-0.1,0.2-0.2,0.2-0.2
		c0.5-0.6,1.4-1.1,2.2-1.1l10.9,0c0.8,0,1.7,0.5,2.2,1.1c0,0,0.1,0.1,0.2,0.2c4.1,5.6,5.5,5.9,5.6,5.9c1.4,0.1,2.2-0.7,2.5-2.6
		c0.1-0.4,1.7-8.2-2.6-15.4c-1.5-2.5-3.3-3.7-5.5-3.7c-2.5,0-4.6,1.6-4.6,1.6c-0.6,0.4-1.6,0.8-2.3,0.8h-1.8c-0.7,0-1.7-0.3-2.3-0.8
		C268.5-36.7,266.4-38.3,264-38.3z"/>
</g>
<g display="none">
	<path display="inline" fill="#FFFFFF" d="M277.7-26.2c-1,0-1.8-0.8-1.8-1.8c0-1,0.8-1.8,1.8-1.8c1,0,1.8,0.8,1.8,1.8
		C279.5-27,278.7-26.2,277.7-26.2z M277.7-29c-0.6,0-1,0.5-1,1s0.5,1,1,1c0.6,0,1-0.5,1-1S278.3-29,277.7-29z"/>
</g>
<g display="none">
	<path display="inline" fill="#FFFFFF" d="M277.7-30.4c-1,0-1.8-0.8-1.8-1.8c0-1,0.8-1.8,1.8-1.8c1,0,1.8,0.8,1.8,1.8
		C279.5-31.2,278.7-30.4,277.7-30.4z M277.7-33.3c-0.6,0-1,0.5-1,1c0,0.6,0.5,1,1,1c0.6,0,1-0.5,1-1
		C278.7-32.8,278.3-33.3,277.7-33.3z"/>
</g>
<g display="none">
	<path display="inline" fill="#FFFFFF" d="M282-28.3c-1,0-1.8-0.8-1.8-1.8s0.8-1.8,1.8-1.8c1,0,1.8,0.8,1.8,1.8S282.9-28.3,282-28.3
		z M282-31.2c-0.6,0-1,0.5-1,1s0.5,1,1,1s1-0.5,1-1S282.5-31.2,282-31.2z"/>
</g>
<g display="none">
	<path display="inline" fill="#FFFFFF" d="M263.7-26.8c-0.2,0-0.4-0.2-0.4-0.4V-33c0-0.2,0.2-0.4,0.4-0.4s0.4,0.2,0.4,0.4v5.8
		C264.1-27,263.9-26.8,263.7-26.8z"/>
</g>
<g display="none">
	<path display="inline" fill="#FFFFFF" d="M266.6-29.7h-5.8c-0.2,0-0.4-0.2-0.4-0.4s0.2-0.4,0.4-0.4h5.8c0.2,0,0.4,0.2,0.4,0.4
		S266.8-29.7,266.6-29.7z"/>
</g>
<g display="none">
	<path display="inline" fill="#FFFFFF" d="M342.6-35.5h-0.3l-0.2-0.2l-2.4-2.3l0-0.7l0.2-0.3c0,0,0.4-0.4,0.8-0.8
		c0.7-0.7,1.9-0.7,2.6,0l0.6,0.6c0.4,0.3,0.6,0.8,0.6,1.3c0,0.5-0.2,0.9-0.5,1.3l-0.8,0.8C343-35.5,342.8-35.5,342.6-35.5z
		 M341.5-38.3l0.8,0.8c0.1,0.1,0.2,0.2,0.3,0.3l0.3-0.3c0.1-0.1,0.1-0.1,0.1-0.2c0-0.1,0-0.2-0.1-0.2l-0.6-0.6
		c-0.2-0.2-0.3-0.2-0.5,0L341.5-38.3z"/>
</g>
<g display="none">
	<path display="inline" fill="#FFFFFF" d="M334.8-27.3l-3.3-3.2l8.9-8.8l3.3,3.2L334.8-27.3z M333.7-30.5l1.1,1.1l6.8-6.7l-1.1-1.1
		L333.7-30.5z"/>
</g>
<g display="none">
	<path display="inline" fill="#FFFFFF" d="M331-26.1c-0.2,0-0.4-0.1-0.5-0.2c-0.2-0.2-0.3-0.5-0.2-0.8l1.6-3.7l1.4,0.6l-0.9,2
		l2.1-0.9l0.6,1.4l-3.8,1.6C331.2-26.1,331.1-26.1,331-26.1z"/>
</g>
<g display="none">
	<path display="inline" fill="#FFFFFF" d="M340.1-16h-31.2c-1.5,0-2.8-1.2-2.8-2.8v-17.1c0-1.5,1.2-2.8,2.8-2.8h31.2
		c1.5,0,2.8,1.2,2.8,2.8v17.1C342.9-17.2,341.6-16,340.1-16z M308.9-37.1c-0.7,0-1.2,0.6-1.2,1.2v17.1c0,0.7,0.6,1.2,1.2,1.2h31.2
		c0.7,0,1.2-0.6,1.2-1.2v-17.1c0-0.7-0.6-1.2-1.2-1.2H308.9z"/>
</g>
<g display="none">
	<rect x="312.2" y="-37.8" display="inline" fill="#FFFFFF" width="1.5" height="21.1"/>
</g>
<g display="none">
	<path display="inline" fill="#FFFFFF" d="M388.7-11.1c-0.2,0-0.4,0-0.6,0c-0.9-0.1-1.6-0.8-1.6-1.7c0-0.3,0-0.7,0.1-1l0.8-10.9
		c0-0.3,0-0.7,0.1-1c0.1-1,0.9-1.8,2-1.7c0.1,0,0.2,0,0.2,0c0,0,0,0,0,0c0.1-0.9,0.2-1.7,0.1-2.6c-0.1-1.1-0.4-2.1-1-2.9
		c-0.4-0.1-0.8-0.3-1.1-0.6c-0.8-0.7-1.8-1.2-3.1-1.5c-1-0.2-2.2-0.3-3.3-0.3c-0.9,0-1.7,0.1-2.5,0.3c-1,0.3-1.8,0.7-2.5,1.2
		c-0.1,0.1-0.2,0.2-0.3,0.2c-0.3,0.3-0.7,0.5-1.1,0.6c-0.5,0.8-0.8,1.7-0.9,2.7c-0.1,0.9-0.1,1.8,0,2.8c0.1,0,0.3,0,0.4,0h0
		c1,0,1.7,0.7,1.8,1.7l0.9,12.9c0,0.5-0.1,1-0.4,1.3c-0.3,0.3-0.8,0.6-1.3,0.6c-2,0.1-3.8-0.4-5.4-1.6c-1.6-1.2-2.7-2.8-3.1-4.7
		c-0.6-2.9,0.1-5.5,2.2-7.6c0.5-0.5,1-0.9,1.6-1.3c-0.2-1.1-0.3-2.3-0.3-3.4c0.1-2,0.6-3.6,1.6-5.1c-0.2-0.8,0.1-1.6,0.7-2.2
		c1-1,2.3-1.7,3.7-2.2c1-0.4,2-0.6,3-0.7c0.4,0,0.7-0.1,1.1-0.1l0.7-0.1l1.8,0c1.6,0.1,3.1,0.4,4.4,0.9c1.3,0.5,2.5,1.2,3.5,2.2
		c0.6,0.6,0.8,1.3,0.7,2.1c0.6,1,1.1,2,1.3,3.2c0.2,1,0.3,2.2,0.3,3.3c0,0.7-0.1,1.3-0.3,2c0.7,0.4,1.3,0.9,1.9,1.6
		c1,1.1,1.7,2.4,1.9,3.9c0.8,3.9-1.4,7.7-5,9.2C390.7-11.3,389.7-11.1,388.7-11.1z M389.2-26c-0.2,0-0.3,0.1-0.3,0.3
		c0,0.3,0,0.7-0.1,1l-0.8,10.9c0,0.3,0,0.6-0.1,1c0,0.1,0.1,0.2,0.2,0.2c1,0.1,2-0.1,2.9-0.5c3-1.2,4.7-4.4,4.1-7.5
		c-0.2-1.2-0.8-2.3-1.6-3.2c-0.5-0.6-1.2-1.1-1.9-1.5c-0.5-0.2-0.5-0.7-0.5-1c0.2-0.7,0.3-1.4,0.3-2.2c0.1-1,0-2-0.2-2.9
		c-0.2-1.1-0.7-2.1-1.2-2.9c-0.2-0.2-0.2-0.5-0.1-0.8c0.1-0.4,0-0.6-0.2-0.9c-0.8-0.8-1.8-1.4-3-1.8c-1.2-0.5-2.5-0.7-4-0.8l-0.6,0
		l-1.6,0.1c-0.4,0-0.7,0.1-1.1,0.1c-0.9,0.1-1.8,0.3-2.7,0.6c-1.3,0.5-2.3,1.1-3.2,1.9c-0.3,0.3-0.4,0.5-0.3,0.9
		c0.1,0.3,0,0.6-0.2,0.9c-0.9,1.3-1.3,2.8-1.4,4.5c-0.1,1.1,0,2.3,0.3,3.4c0.1,0.4-0.1,0.8-0.5,1c-0.6,0.3-1.2,0.7-1.6,1.2
		c-1.7,1.8-2.3,3.9-1.8,6.3c0.3,1.6,1.2,2.9,2.5,3.9c1.3,1,2.8,1.4,4.4,1.3c0.1,0,0.2,0,0.2-0.1c0-0.1,0.1-0.1,0.1-0.2l-0.9-12.8
		c0-0.3-0.2-0.3-0.2-0.3c-0.1,0-0.3,0-0.4,0l-0.2,0c-0.1,0-0.2,0-0.3,0l-0.8,0.1l-0.2-0.8c-0.3-1.4-0.3-2.7-0.2-3.9
		c0.2-1.4,0.6-2.5,1.3-3.5c0.2-0.2,0.4-0.4,0.7-0.4c0.2,0,0.4-0.1,0.5-0.2c0.1-0.1,0.2-0.2,0.3-0.3c0.8-0.7,1.8-1.2,3.1-1.5
		c0.9-0.2,1.8-0.4,2.8-0.4c1.3-0.1,2.6,0,3.7,0.3c1.6,0.4,2.8,1,3.8,1.9c0.1,0.1,0.3,0.2,0.5,0.2c0.3,0,0.5,0.2,0.7,0.4
		c0.7,1.1,1.2,2.3,1.3,3.8c0.1,1,0.1,2-0.1,3c0,0.2-0.1,0.4-0.1,0.5l-0.2,0.9l-1-0.1C389.6-25.9,389.4-25.9,389.2-26
		C389.2-26,389.2-26,389.2-26z"/>
</g>
<g display="none">
	<g display="inline">
		<path fill="#FFFFFF" d="M425-19h-0.4c-3.2,0-5.8-2.6-5.8-5.8v-9.5c0-3.2,2.6-5.8,5.8-5.8h0.4c3.2,0,5.8,2.6,5.8,5.8v9.5
			C430.8-21.6,428.2-19,425-19z M424.6-38.6c-2.4,0-4.3,1.9-4.3,4.3v9.5c0,2.4,1.9,4.3,4.3,4.3h0.4c2.4,0,4.3-1.9,4.3-4.3v-9.5
			c0-2.4-1.9-4.3-4.3-4.3H424.6z"/>
	</g>
	<g display="inline">
		<path fill="#FFFFFF" d="M431.6-10.7h-6.1V-18l0.7-0.1c1.8-0.1,3.2-0.8,4.2-2c2.1-2.6,1.8-6.7,1.8-6.7c0-0.4,0.3-0.8,0.7-0.8
			c0.4,0,0.8,0.3,0.8,0.7c0,0.2,0.4,4.8-2.1,7.8c-1.1,1.4-2.7,2.2-4.5,2.5v4.4h4.6c0.4,0,0.8,0.3,0.8,0.8S432-10.7,431.6-10.7z"/>
	</g>
	<g display="inline">
		<path fill="#FFFFFF" d="M424.2-10.7h-6.1c-0.4,0-0.8-0.3-0.8-0.8s0.3-0.8,0.8-0.8h4.6v-4.4c-1.9-0.3-3.4-1.1-4.5-2.5
			c-2.5-3-2.1-7.6-2.1-7.8c0-0.4,0.4-0.7,0.8-0.7c0.4,0,0.7,0.4,0.7,0.8c0,0-0.4,4.2,1.8,6.7c1,1.2,2.4,1.9,4.2,2l0.7,0.1V-10.7z"/>
	</g>
	<g display="inline">
		<path fill="#FFFFFF" d="M419.9-33.3h2.7c0.5,0,0.9-0.3,0.9-0.6l0,0c0-0.3-0.4-0.6-0.9-0.6h-2.7V-33.3z"/>
	</g>
	<g display="inline">
		<path fill="#FFFFFF" d="M419.9-30.2h2.7c0.5,0,0.9-0.3,0.9-0.6v0c0-0.3-0.4-0.6-0.9-0.6h-2.7V-30.2z"/>
	</g>
	<g display="inline">
		<path fill="#FFFFFF" d="M419.9-27.5h2.7c0.5,0,0.9-0.3,0.9-0.6v0c0-0.3-0.4-0.6-0.9-0.6h-2.7V-27.5z"/>
	</g>
	<g display="inline">
		<path fill="#FFFFFF" d="M419.9-24.9h2.7c0.5,0,0.9-0.3,0.9-0.6v0c0-0.3-0.4-0.6-0.9-0.6h-2.7V-24.9z"/>
	</g>
</g>
<g display="none">
	<g display="inline">
		<path fill="#FFFFFF" d="M-65.2-16.7h-32.4c-0.3,0-0.5-0.1-0.7-0.4c-0.1-0.2-0.1-0.5,0-0.8l4.2-7v-15.1c0-0.4,0.3-0.8,0.8-0.8h23.7
			c0.4,0,0.8,0.3,0.8,0.8v15.1l4.2,7c0.1,0.2,0.1,0.5,0,0.8C-64.7-16.9-64.9-16.7-65.2-16.7z M-96.3-18.2h29.8l-3.7-6
			c-0.1-0.1-0.1-0.3-0.1-0.4v-14.5h-22.2v14.5c0,0.1,0,0.3-0.1,0.4L-96.3-18.2z"/>
	</g>
	<g display="inline">
		<path fill="#FFFFFF" d="M-69.5-23.9h-23.7c-0.4,0-0.8-0.3-0.8-0.8s0.3-0.8,0.8-0.8h23.7c0.4,0,0.8,0.3,0.8,0.8
			S-69.1-23.9-69.5-23.9z"/>
	</g>
	<g display="inline">
		<path fill="#FFFFFF" d="M-70.9-20.4h-21.1c-0.4,0-0.8-0.3-0.8-0.8s0.3-0.8,0.8-0.8h21.1c0.4,0,0.8,0.3,0.8,0.8
			S-70.5-20.4-70.9-20.4z"/>
	</g>
	<g display="inline">
		<path fill="#FFFFFF" d="M-87.9-16.7c-0.1,0-0.3,0-0.4-0.1c-0.3-0.2-0.4-0.7-0.2-1l2.5-3.7c0.2-0.3,0.7-0.4,1-0.2
			c0.3,0.2,0.4,0.7,0.2,1l-2.5,3.7C-87.4-16.8-87.6-16.7-87.9-16.7z"/>
	</g>
	<g display="inline">
		<path fill="#FFFFFF" d="M-75.2-16.7c-0.2,0-0.5-0.1-0.6-0.3l-2.5-3.7c-0.2-0.3-0.2-0.8,0.2-1c0.3-0.2,0.8-0.2,1,0.2l2.5,3.7
			c0.2,0.3,0.2,0.8-0.2,1C-74.9-16.8-75.1-16.7-75.2-16.7z"/>
	</g>
</g>
<g display="none">
	<circle display="inline" fill="#FFFFFF" cx="-30.1" cy="-17.8" r="0.7"/>
</g>
<path display="none" fill="none" stroke="#FFFFFF" stroke-width="1.5" stroke-miterlimit="10" d="M-124.1,85.2h-27.3
	c-1.1,0-2-0.9-2-2V69c0-1.1,0.9-2,2-2h27.3c1.1,0,2,0.9,2,2v14.2C-122.1,84.3-123,85.2-124.1,85.2z"/>
<line display="none" fill="none" stroke="#FFFFFF" stroke-width="1.5" stroke-linecap="round" stroke-linejoin="round" stroke-miterlimit="10" x1="-153.4" y1="82.1" x2="-122.1" y2="82.1"/>
<polyline display="none" fill="none" stroke="#FFFFFF" stroke-width="1.5" stroke-linecap="round" stroke-linejoin="round" stroke-miterlimit="10" points="
	-141.8,86.2 -141.8,88.4 -133.8,88.4 -133.8,86.2 "/>
<path display="none" fill="#FFFFFF" d="M-131.2,91.5h-13.3c-0.3,0-0.5-0.2-0.5-0.5v-0.2c0-0.3,0.2-0.5,0.5-0.5h13.3
	c0.3,0,0.5,0.2,0.5,0.5V91C-130.6,91.3-130.9,91.5-131.2,91.5z"/>
<path display="none" fill="none" stroke="#FFFFFF" stroke-width="1.5" stroke-miterlimit="10" d="M230.5,74.1
	c-0.9-3.5-4-6.1-7.8-6.1c-3.4,0-6.2,2.1-7.4,5c-0.7-0.6-1.6-1-2.6-1c-2.2,0-4,1.8-4,4c0,0.1,0,0.2,0,0.4c-2.4,0.8-4,3.2-4,5.8
	c0,3.3,2.7,6.2,6,6.2h19.1c3.9,0,7-3.3,7-7.2C236.8,77.6,234,74.5,230.5,74.1z"/>
<g display="none">
	<path display="inline" fill="none" stroke="#FFFFFF" stroke-width="1.5" stroke-miterlimit="10" d="M90.4,69.9h-6.4l-0.5-2.4
		c-0.1-0.4-0.6-0.8-1-0.8h-8.3c-0.4,0-0.9,0.4-0.9,0.8l-0.4,2.4h-0.8c-1.1,0-3.2,2.6-8,2.6v0.1c0,0,0,0.4,0,0.9v15.1
		c0,0.4,0.4,0.5,0.8,0.5h25.5c0.4,0,0.8,0,0.8-0.5V71.1C91.2,70.6,90.9,69.9,90.4,69.9z"/>
	
		<line display="inline" fill="none" stroke="#FFFFFF" stroke-width="1.5" stroke-miterlimit="10" x1="63.4" y1="69.9" x2="66.6" y2="69.9"/>
	<circle display="inline" fill="none" stroke="#FFFFFF" stroke-width="1.5" stroke-miterlimit="10" cx="78.5" cy="79.5" r="6.4"/>
</g>
<polyline display="none" fill="none" stroke="#FFFFFF" stroke-width="1.5" stroke-linecap="round" stroke-miterlimit="10" points="
	183.8,75.1 183.8,89.4 164.8,89.4 164.8,70.9 179.1,70.9 "/>
<polyline display="none" fill="none" stroke="#FFFFFF" stroke-width="1.5" stroke-linecap="round" stroke-linejoin="round" stroke-miterlimit="10" points="
	172.8,82 188.2,66.6 188.2,74.3 "/>
<line display="none" fill="none" stroke="#FFFFFF" stroke-width="1.5" stroke-linecap="round" stroke-linejoin="round" stroke-miterlimit="10" x1="188.2" y1="66.6" x2="179.9" y2="66.6"/>
<path display="none" fill="none" stroke="#FFFFFF" stroke-width="1.5" stroke-miterlimit="10" d="M140.4,88.9h-24.3
	c-1.4,0-2.3-0.8-2.3-1.9V79c0-0.1,0-0.2,0.1-0.2l3.5-7.5c0.1-0.2,0.2-0.3,0.3-0.5c0.4-0.7,0.9-1.6,2-1.6h17.4c1.1,0,1.6,0.9,2,1.6
	c0.1,0.1,0.1,0.3,0.2,0.4l3.5,7.6c0,0.1,0.1,0.2,0.1,0.2v7.9C142.7,88.1,141.8,88.9,140.4,88.9z"/>
<line display="none" fill="none" stroke="#FFFFFF" stroke-width="1.5" stroke-miterlimit="10" x1="113.7" y1="79" x2="142.7" y2="79"/>
<line display="none" fill="none" stroke="#FFFFFF" stroke-width="1.5" stroke-linecap="round" stroke-miterlimit="10" x1="117.8" y1="83" x2="117.8" y2="85.1"/>
<line display="none" fill="none" stroke="#FFFFFF" stroke-width="1.5" stroke-linecap="round" stroke-miterlimit="10" x1="121" y1="83" x2="121" y2="85.1"/>
<path display="none" fill="none" stroke="#FFFFFF" stroke-width="1.5" stroke-miterlimit="10" d="M36.8,71.9v15.3
	c0,1.5-1.2,2.8-2.8,2.8H3.3c-1.5,0-2.8-1.2-2.8-2.8V71.9c0-1.5,1.2-2.8,2.8-2.8h30.8C35.6,69.1,36.8,70.3,36.8,71.9z"/>
<line display="none" fill="none" stroke="#FFFFFF" stroke-width="1.5" stroke-miterlimit="10" x1="33.1" y1="69.1" x2="33.1" y2="89.9"/>
<line display="none" fill="none" stroke="#FFFFFF" stroke-width="1.5" stroke-miterlimit="10" x1="4.2" y1="69.1" x2="4.2" y2="89.9"/>
<path display="none" fill="none" stroke="#FFFFFF" stroke-width="1.5" stroke-miterlimit="10" d="M-24.8,90.7h-10.5
	c-1.1,0-1.9-0.9-1.9-1.9V67.5c0-1.1,0.9-1.9,1.9-1.9h10.5c1.1,0,1.9,0.9,1.9,1.9v21.2C-22.9,89.8-23.7,90.7-24.8,90.7z"/>
<line display="none" fill="none" stroke="#FFFFFF" stroke-miterlimit="10" x1="-22.9" y1="88.1" x2="-37.2" y2="88.1"/>
<line display="none" fill="none" stroke="#FFFFFF" stroke-miterlimit="10" x1="-22.9" y1="68.1" x2="-37.2" y2="68.1"/>
<path display="none" fill="none" stroke="#FFFFFF" stroke-width="1.5" stroke-miterlimit="10" d="M285.7,72.1
	c-1.6-2.7-3.7-4.1-6.2-4.1c-2.8,0-5.1,1.8-5.1,1.8c-0.4,0.3-1.3,0.6-1.8,0.6h-1.8c-0.5,0-1.4-0.3-1.8-0.6c-0.1-0.1-2.3-1.8-5.1-1.8
	c-2.5,0-4.6,1.4-6.2,4.1c-4.4,7.5-2.7,15.6-2.7,15.9c0.4,2.7,1.9,3.2,3,3.2c0.1,0,0.2,0,0.3,0c1.9-0.2,6-6.1,6.2-6.3
	c0.4-0.4,1.1-0.8,1.6-0.8l10.9,0c0.5,0,1.3,0.4,1.6,0.8c0.2,0.2,4.4,6.2,6.3,6.4c0.1,0,0.2,0,0.3,0c1.1,0,2.6-0.6,3-3.2
	C288.4,87.9,290.2,79.6,285.7,72.1z"/>
<path display="none" fill="none" stroke="#FFFFFF" stroke-width="0.75" stroke-linecap="round" stroke-linejoin="round" stroke-miterlimit="10" d="
	M277.7,80.4c-0.8,0-1.4-0.6-1.4-1.4c0-0.8,0.6-1.4,1.4-1.4c0.8,0,1.4,0.6,1.4,1.4C279.1,79.8,278.5,80.4,277.7,80.4z"/>
<path display="none" fill="none" stroke="#FFFFFF" stroke-width="0.75" stroke-linecap="round" stroke-linejoin="round" stroke-miterlimit="10" d="
	M277.7,76.2c-0.8,0-1.4-0.6-1.4-1.4s0.6-1.4,1.4-1.4c0.8,0,1.4,0.6,1.4,1.4S278.5,76.2,277.7,76.2z"/>
<circle display="none" fill="none" stroke="#FFFFFF" stroke-width="0.75" stroke-linecap="round" stroke-linejoin="round" stroke-miterlimit="10" cx="282" cy="76.9" r="1.4"/>
<line display="none" fill="none" stroke="#FFFFFF" stroke-width="0.75" stroke-linecap="round" stroke-linejoin="round" stroke-miterlimit="10" x1="263.7" y1="74" x2="263.7" y2="79.8"/>
<line display="none" fill="none" stroke="#FFFFFF" stroke-width="0.75" stroke-linecap="round" stroke-linejoin="round" stroke-miterlimit="10" x1="260.8" y1="76.9" x2="266.6" y2="76.9"/>
<path display="none" fill="none" stroke="#FFFFFF" stroke-width="1.5" stroke-miterlimit="10" d="M342.8,67.9
	c-0.4-0.4-1.1-0.4-1.6,0c-0.4,0.4-0.8,0.8-0.8,0.8s0,0.1,0,0.1c0,0,0.4,0.4,0.8,0.8l0.5,0.5c0.4,0.4,0.8,0.8,0.8,0.8
	c0,0,0.1,0,0.1,0c0,0,0.4-0.4,0.8-0.8c0.4-0.4,0.4-1.1,0-1.5L342.8,67.9z"/>
<polygon display="none" fill="none" stroke="#FFFFFF" stroke-width="1.5" stroke-miterlimit="10" points="340.4,68.7 332.6,76.5 
	334.8,78.6 342.6,70.8 "/>
<polyline display="none" fill="none" stroke="#FFFFFF" stroke-width="1.5" stroke-linejoin="round" stroke-miterlimit="10" points="
	332.6,76.5 331,80.2 331,80.2 334.8,78.6 "/>
<path display="none" fill="none" stroke="#FFFFFF" stroke-width="1.5" stroke-linejoin="round" stroke-miterlimit="10" d="
	M340.1,90.2h-31.2c-1.1,0-2-0.9-2-2V71.2c0-1.1,0.9-2,2-2h31.2c1.1,0,2,0.9,2,2v17.1C342.1,89.3,341.2,90.2,340.1,90.2z"/>
<line display="none" fill="none" stroke="#FFFFFF" stroke-width="1.5" stroke-miterlimit="10" x1="312.9" y1="90.2" x2="312.9" y2="69.2"/>
<path display="none" fill="none" stroke="#FFFFFF" stroke-width="1.5" stroke-miterlimit="10" d="M382.3,67.7c0.2,0,0.4,0,0.6,0
	c1.4,0.1,2.8,0.3,4.2,0.9c1.2,0.5,2.3,1.1,3.2,2c0.5,0.5,0.6,1,0.4,1.6c0,0.1,0,0.1,0,0.2c0.7,1,1.1,2,1.3,3.2
	c0.2,1,0.3,2.1,0.2,3.1c0,0.8-0.2,1.6-0.3,2.3c0,0.1,0,0.1,0.1,0.1c0.8,0.4,1.5,1,2.1,1.6c0.9,1,1.5,2.2,1.8,3.5
	c0.7,3.5-1.2,7-4.5,8.4c-1.1,0.4-2.1,0.6-3.3,0.5c-0.5,0-0.9-0.4-0.9-1c0-0.4,0-0.9,0.1-1.3c0.1-0.8,0.1-1.5,0.2-2.3
	c0.1-0.9,0.1-1.8,0.2-2.6c0.1-0.9,0.1-1.7,0.2-2.6c0.1-0.9,0.1-1.8,0.2-2.6c0-0.5,0.1-1,0.1-1.5c0-0.6,0.5-1,1.1-1
	c0.3,0,0.6,0.1,0.9,0.1c0-0.2,0.1-0.5,0.1-0.7c0.1-0.9,0.2-1.8,0.1-2.8c-0.1-1.2-0.5-2.4-1.2-3.5c0,0-0.1-0.1-0.1-0.1
	c-0.3,0-0.6-0.2-0.9-0.4c-1-0.9-2.1-1.4-3.4-1.7c-1.2-0.3-2.4-0.3-3.5-0.3c-0.9,0-1.8,0.1-2.6,0.4c-1,0.3-2,0.7-2.8,1.4
	c-0.1,0.1-0.2,0.2-0.3,0.3c-0.3,0.2-0.6,0.4-0.9,0.4c-0.1,0-0.1,0.1-0.1,0.1c-0.7,1-1,2.1-1.2,3.2c-0.2,1.2-0.1,2.5,0.2,3.7
	c0,0,0,0,0,0.1c0.1,0,0.3,0,0.4-0.1c0.2,0,0.4-0.1,0.7-0.1c0.6,0,1,0.4,1,1c0.1,1.5,0.2,3,0.3,4.5c0.1,1.2,0.2,2.4,0.2,3.7
	c0.1,1.3,0.2,2.7,0.3,4c0,0.2,0,0.5,0,0.7c0,0.6-0.4,1.1-1,1.1c-1.8,0.1-3.4-0.4-4.9-1.5c-1.5-1.1-2.4-2.5-2.8-4.3
	c-0.6-2.7,0.1-5,2-7c0.5-0.5,1.1-1,1.8-1.3c0.1,0,0.1-0.1,0.1-0.2c-0.3-1.2-0.4-2.4-0.3-3.6c0.1-1.8,0.6-3.4,1.5-4.9
	c0.1-0.1,0.1-0.2,0.1-0.3c-0.1-0.6,0-1.2,0.5-1.6c1-0.9,2.2-1.6,3.4-2.1c0.9-0.3,1.9-0.6,2.9-0.7c0.5-0.1,1.1-0.1,1.6-0.1
	c0,0,0.1,0,0.1,0C381.6,67.7,382,67.7,382.3,67.7z"/>
<g display="none">
	<path display="inline" fill="none" stroke="#FFFFFF" stroke-width="1.5" stroke-miterlimit="10" d="M425,87.3h-0.4
		c-2.8,0-5-2.3-5-5v-9.5c0-2.8,2.3-5,5-5h0.4c2.8,0,5,2.3,5,5v9.5C430.1,85,427.8,87.3,425,87.3z"/>
	<path display="inline" fill="none" stroke="#FFFFFF" stroke-width="1.5" stroke-linecap="round" stroke-miterlimit="10" d="
		M432.8,80.2c0,0,0.9,9-6.6,9.5v5.8h5.4"/>
	<path display="inline" fill="none" stroke="#FFFFFF" stroke-width="1.5" stroke-linecap="round" stroke-miterlimit="10" d="
		M416.8,80.2c0,0-0.9,9,6.6,9.5v5.8h-5.4"/>
	<path display="inline" fill="#FFFFFF" d="M419.9,73.7h2.7c0.5,0,0.9-0.3,0.9-0.6l0,0c0-0.3-0.4-0.6-0.9-0.6h-2.7V73.7z"/>
	<path display="inline" fill="#FFFFFF" d="M419.9,76.8h2.7c0.5,0,0.9-0.3,0.9-0.6v0c0-0.3-0.4-0.6-0.9-0.6h-2.7V76.8z"/>
	<path display="inline" fill="#FFFFFF" d="M419.9,79.5h2.7c0.5,0,0.9-0.3,0.9-0.6l0,0c0-0.3-0.4-0.6-0.9-0.6h-2.7V79.5z"/>
	<path display="inline" fill="#FFFFFF" d="M419.9,82.1h2.7c0.5,0,0.9-0.3,0.9-0.6v0c0-0.3-0.4-0.6-0.9-0.6h-2.7V82.1z"/>
</g>
<g display="none">
	
		<polygon display="inline" fill="none" stroke="#FFFFFF" stroke-width="1.5" stroke-linecap="round" stroke-linejoin="round" stroke-miterlimit="10" points="
		-69.5,82.4 -69.5,67.1 -81,67.1 -81.8,67.1 -93.3,67.1 -93.3,82.4 -97.6,89.5 -81.8,89.5 -81,89.5 -65.2,89.5 	"/>
	
		<line display="inline" fill="none" stroke="#FFFFFF" stroke-width="1.5" stroke-linecap="round" stroke-linejoin="round" stroke-miterlimit="10" x1="-93.3" y1="82.4" x2="-69.5" y2="82.4"/>
	
		<line display="inline" fill="none" stroke="#FFFFFF" stroke-width="1.5" stroke-linecap="round" stroke-linejoin="round" stroke-miterlimit="10" x1="-91.9" y1="85.9" x2="-70.9" y2="85.9"/>
	
		<line display="inline" fill="none" stroke="#FFFFFF" stroke-width="1.5" stroke-linecap="round" stroke-linejoin="round" stroke-miterlimit="10" x1="-85.3" y1="85.9" x2="-87.9" y2="89.5"/>
	
		<line display="inline" fill="none" stroke="#FFFFFF" stroke-width="1.5" stroke-linecap="round" stroke-linejoin="round" stroke-miterlimit="10" x1="-77.7" y1="85.9" x2="-75.2" y2="89.5"/>
</g>
<circle display="none" fill="#FFFFFF" cx="-30.1" cy="89.2" r="0.7"/>
</svg>
