<?xml version="1.0" encoding="utf-8"?>
<!-- Generator: Adobe Illustrator 18.0.0, SVG Export Plug-In . SVG Version: 6.00 Build 0)  -->
<!DOCTYPE svg PUBLIC "-//W3C//DTD SVG 1.1//EN" "http://www.w3.org/Graphics/SVG/1.1/DTD/svg11.dtd">
<svg version="1.1" id="Layer_1" xmlns="http://www.w3.org/2000/svg" xmlns:xlink="http://www.w3.org/1999/xlink" x="0px" y="0px"
	 viewBox="0 0 35.5 24.8" enable-background="new 0 0 35.5 24.8" xml:space="preserve">
<rect x="-474.7" y="-29.2" display="none" fill="#010101" width="847.9" height="196"/>
<path display="none" fill="none" stroke="#FFFFFF" stroke-miterlimit="10" d="M-287.2,78.3h-118c-7.6,0-13.8-6.2-13.8-13.8v0
	c0-7.6,6.2-13.8,13.8-13.8h118c7.6,0,13.8,6.2,13.8,13.8v0C-273.4,72.1-279.6,78.3-287.2,78.3z"/>
<g display="none">
	
		<text transform="matrix(1 0 0 1 -386.7178 68.3974)" display="inline" fill="#FFFFFF" font-family="'HelveticaNeue-Light'" font-size="9.4843">TEXT IN ALL CAPS</text>
</g>
<g display="none">
	<g display="inline">
		<path fill="#FFFFFF" d="M-229.3,89.2c-13.6,0-24.7-11.1-24.7-24.7s11.1-24.7,24.7-24.7c13.6,0,24.7,11.1,24.7,24.7
			S-215.7,89.2-229.3,89.2z M-229.3,40.8c-13.1,0-23.7,10.6-23.7,23.7s10.6,23.7,23.7,23.7s23.7-10.6,23.7-23.7
			S-216.3,40.8-229.3,40.8z"/>
	</g>
	<g display="inline">
		
			<rect x="-229.8" y="52.2" transform="matrix(0.7071 0.7071 -0.7071 0.7071 -21.5822 181.0064)" fill="#FFFFFF" width="1" height="24.5"/>
	</g>
	<g display="inline">
		
			<rect x="-241.5" y="64" transform="matrix(0.7071 0.7071 -0.7071 0.7071 -21.5855 181.0123)" fill="#FFFFFF" width="24.5" height="1"/>
	</g>
</g>
<g display="none">
	<text transform="matrix(1 0 0 1 257.4922 -0.6898)" display="inline"><tspan x="0" y="0" fill="#FFFFFF" font-family="'HelveticaNeue-Light'" font-size="9.4843">LAPTOP</tspan><tspan x="0" y="11.4" fill="#FFFFFF" font-family="'HelveticaNeue-Light'" font-size="9.4843">SMARTPHONE</tspan><tspan x="0" y="22.8" fill="#FFFFFF" font-family="'HelveticaNeue-Light'" font-size="9.4843">TABLET</tspan><tspan x="0" y="34.1" fill="#FFFFFF" font-family="'HelveticaNeue-Light'" font-size="9.4843">HARD DRIVE</tspan><tspan x="0" y="45.5" fill="#FFFFFF" font-family="'HelveticaNeue-Light'" font-size="9.4843">CLOUD STORAGE</tspan><tspan x="0" y="56.9" fill="#FFFFFF" font-family="'HelveticaNeue-Light'" font-size="9.4843">DSLR</tspan><tspan x="0" y="68.3" fill="#FFFFFF" font-family="'HelveticaNeue-Light'" font-size="9.4843">GAME CONTROLLER</tspan><tspan x="0" y="79.7" fill="#FFFFFF" font-family="'HelveticaNeue-Light'" font-size="9.4843">WACOM PEN</tspan><tspan x="0" y="91" fill="#FFFFFF" font-family="'HelveticaNeue-Light'" font-size="9.4843">HEADPHONES</tspan><tspan x="0" y="102.4" fill="#FFFFFF" font-family="'HelveticaNeue-Light'" font-size="9.4843">MIC</tspan></text>
</g>
<g display="none">
	<path display="inline" fill="#FFFFFF" d="M-378.2,18.8h-27.3c-1.5,0-2.8-1.2-2.8-2.8V1.8c0-1.5,1.2-2.8,2.8-2.8h27.3
		c1.5,0,2.8,1.2,2.8,2.8V16C-375.4,17.5-376.6,18.8-378.2,18.8z M-405.5,0.6c-0.7,0-1.2,0.6-1.2,1.2V16c0,0.7,0.6,1.2,1.2,1.2h27.3
		c0.7,0,1.2-0.6,1.2-1.2V1.8c0-0.7-0.6-1.2-1.2-1.2H-405.5z"/>
</g>
<g display="none">
	<path display="inline" fill="#FFFFFF" d="M-376.2,15.6h-31.3c-0.4,0-0.8-0.3-0.8-0.8s0.3-0.8,0.8-0.8h31.3c0.4,0,0.8,0.3,0.8,0.8
		S-375.7,15.6-376.2,15.6z"/>
</g>
<g display="none">
	<path display="inline" fill="#FFFFFF" d="M-387.8,22h-8c-0.4,0-0.8-0.3-0.8-0.8V19c0-0.4,0.3-0.8,0.8-0.8s0.8,0.3,0.8,0.8v1.5h6.5
		V19c0-0.4,0.3-0.8,0.8-0.8s0.8,0.3,0.8,0.8v2.2C-387.1,21.6-387.4,22-387.8,22z"/>
</g>
<g display="none">
	<path display="inline" fill="#FFFFFF" d="M-385.2,24.3h-13.3c-0.3,0-0.5-0.2-0.5-0.5v-0.2c0-0.3,0.2-0.5,0.5-0.5h13.3
		c0.3,0,0.5,0.2,0.5,0.5v0.2C-384.7,24.1-384.9,24.3-385.2,24.3z"/>
</g>
<g display="none">
	<path display="inline" fill="#FFFFFF" d="M-24.3,21.9h-19.1c-3.7,0-6.8-3.2-6.8-6.9c0-2.7,1.6-5.2,4-6.3c0.1-2.6,2.2-4.6,4.8-4.6
		c0.8,0,1.6,0.2,2.3,0.6c1.5-2.8,4.5-4.6,7.7-4.6c3.9,0,7.2,2.5,8.4,6.2c3.6,0.6,6.4,4,6.4,7.8C-16.5,18.3-20,21.9-24.3,21.9z
		 M-41.3,5.6c-1.8,0-3.3,1.5-3.3,3.3c0,0,0,0.1,0,0.1l0.1,0.7L-45,9.9c-2.1,0.7-3.5,2.8-3.5,5.1c0,2.9,2.4,5.4,5.3,5.4h19.1
		c3.4,0,6.3-2.9,6.3-6.4c0-3.2-2.5-6-5.6-6.4l-0.5-0.1l-0.1-0.5c-0.8-3.3-3.7-5.5-7-5.5c-3,0-5.6,1.8-6.7,4.5l-0.4,1l-0.8-0.7
		C-39.8,5.8-40.5,5.6-41.3,5.6z"/>
</g>
<g display="none">
	<g display="inline">
		<path fill="#FFFFFF" d="M-163.6,22.6h-25.5c-1.3,0-1.5-0.7-1.5-1.2V4.6l0.8-0.1c3,0,4.9-1.1,6.1-1.8c0.7-0.4,1.3-0.7,1.8-0.7h0.2
			l0.3-1.8c0.1-0.8,0.9-1.4,1.7-1.4h8.3c0.8,0,1.5,0.6,1.7,1.3l0.4,1.9h5.8c0.9,0,1.5,1.1,1.5,1.9v17.5
			C-162.1,21.9-162.3,22.6-163.6,22.6z M-189.1,21.1C-189.1,21.1-189.1,21.1-189.1,21.1h25.5c0,0,0,0,0,0V3.9c0-0.1-0.1-0.3-0.2-0.4
			h-6.9l-0.6-3c0-0.1-0.2-0.2-0.3-0.2h-8.3c-0.1,0-0.2,0.1-0.2,0.2l-0.5,3h-1.4c-0.2,0-0.7,0.3-1.1,0.5c-1.2,0.7-3.1,1.8-6.1,2V21.1
			z"/>
	</g>
	<g display="inline">
		<rect x="-190.6" y="2" fill="#FFFFFF" width="3.2" height="1.5"/>
	</g>
	<g display="inline">
		<path fill="#FFFFFF" d="M-175.5,19.4c-3.9,0-7.1-3.2-7.1-7.1c0-3.9,3.2-7.1,7.1-7.1s7.1,3.2,7.1,7.1
			C-168.4,16.2-171.6,19.4-175.5,19.4z M-175.5,6.7c-3.1,0-5.6,2.5-5.6,5.6c0,3.1,2.5,5.6,5.6,5.6s5.6-2.5,5.6-5.6
			C-169.9,9.2-172.4,6.7-175.5,6.7z"/>
	</g>
</g>
<g display="none">
	<path display="inline" fill="#FFFFFF" d="M-69.5,22.9h-20.5v-20h15c0.4,0,0.8,0.3,0.8,0.8s-0.3,0.8-0.8,0.8h-13.5v17H-71V7.9
		c0-0.4,0.3-0.8,0.8-0.8s0.8,0.3,0.8,0.8V22.9z"/>
</g>
<g display="none">
	<path display="inline" fill="#FFFFFF" d="M-81.2,15.6c-0.2,0-0.4-0.1-0.5-0.2c-0.3-0.3-0.3-0.8,0-1.1l15.4-15.4
		c0.2-0.2,0.5-0.3,0.8-0.2c0.3,0.1,0.5,0.4,0.5,0.7v7.7c0,0.4-0.3,0.8-0.8,0.8s-0.8-0.3-0.8-0.8V1.2l-14.1,14.1
		C-80.8,15.5-81,15.6-81.2,15.6z"/>
</g>
<g display="none">
	<path display="inline" fill="#FFFFFF" d="M-65.8,0.2h-8.4c-0.4,0-0.8-0.3-0.8-0.8s0.3-0.8,0.8-0.8h8.4c0.4,0,0.8,0.3,0.8,0.8
		S-65.4,0.2-65.8,0.2z"/>
</g>
<g display="none">
	<path display="inline" fill="#FFFFFF" d="M-113.6,22.4H-138c-1.8,0-3.1-1.1-3.1-2.7v-7.9c0-0.2,0-0.4,0.1-0.6l3.5-7.5
		c0.1-0.3,0.2-0.4,0.3-0.5c0.4-0.7,1.1-2,2.6-2h17.4c1.6,0,2.3,1.3,2.7,2c0.1,0.2,0.2,0.3,0.2,0.4l3.5,7.7c0.1,0.2,0.1,0.4,0.1,0.6
		v7.9C-110.6,21.4-111.8,22.4-113.6,22.4z M-134.5,2.7c-0.6,0-0.9,0.5-1.3,1.2c-0.1,0.2-0.2,0.3-0.3,0.5l-3.4,7.5l0,7.8
		c0,1.1,1.1,1.2,1.6,1.2h24.3c0.5,0,1.6-0.1,1.6-1.2v-7.9l-3.5-7.5c0,0-0.1-0.2-0.2-0.3c-0.5-0.8-0.8-1.3-1.4-1.3H-134.5z"/>
</g>
<g display="none">
	<rect x="-140.3" y="11.1" display="inline" fill="#FFFFFF" width="29" height="1.5"/>
</g>
<g display="none">
	<path display="inline" fill="#FFFFFF" d="M-136.2,18.6c-0.4,0-0.8-0.3-0.8-0.8v-2.1c0-0.4,0.3-0.8,0.8-0.8s0.8,0.3,0.8,0.8v2.1
		C-135.5,18.3-135.8,18.6-136.2,18.6z"/>
</g>
<g display="none">
	<path display="inline" fill="#FFFFFF" d="M-133,18.6c-0.4,0-0.8-0.3-0.8-0.8v-2.1c0-0.4,0.3-0.8,0.8-0.8s0.8,0.3,0.8,0.8v2.1
		C-132.2,18.3-132.6,18.6-133,18.6z"/>
</g>
<g display="none">
	<path display="inline" fill="#FFFFFF" d="M-220,23.5h-30.8c-1.9,0-3.5-1.6-3.5-3.5V4.7c0-1.9,1.6-3.5,3.5-3.5h30.8
		c1.9,0,3.5,1.6,3.5,3.5v15.3C-216.4,21.9-218,23.5-220,23.5z M-250.7,2.6c-1.1,0-2,0.9-2,2v15.3c0,1.1,0.9,2,2,2h30.8
		c1.1,0,2-0.9,2-2V4.7c0-1.1-0.9-2-2-2H-250.7z"/>
</g>
<g display="none">
	<rect x="-221.7" y="1.9" display="inline" fill="#FFFFFF" width="1.5" height="20.8"/>
</g>
<g display="none">
	<rect x="-250.6" y="1.9" display="inline" fill="#FFFFFF" width="1.5" height="20.8"/>
</g>
<g display="none">
	<path display="inline" fill="#FFFFFF" d="M-278.8,24.2h-10.5c-1.5,0-2.7-1.2-2.7-2.7V0.3c0-1.5,1.2-2.7,2.7-2.7h10.5
		c1.5,0,2.7,1.2,2.7,2.7v21.2C-276.1,23-277.3,24.2-278.8,24.2z M-289.4-0.8c-0.6,0-1.2,0.5-1.2,1.2v21.2c0,0.6,0.5,1.2,1.2,1.2
		h10.5c0.6,0,1.2-0.5,1.2-1.2V0.3c0-0.6-0.5-1.2-1.2-1.2H-289.4z"/>
</g>
<g display="none">
	<rect x="-291.3" y="20.4" display="inline" fill="#FFFFFF" width="14.4" height="1"/>
</g>
<g display="none">
	<rect x="-291.3" y="0.4" display="inline" fill="#FFFFFF" width="14.4" height="1"/>
</g>
<g>
	<path fill="#FFFFFF" d="M4.1,24.8c-1.2,0-3.2-0.5-3.8-3.9c-0.1-0.3-1.8-8.7,2.8-16.4C4.9,1.5,7.2,0,10,0c2.9,0,5.3,1.8,5.5,1.9
		c0.3,0.2,1,0.5,1.3,0.5h1.8c0.4,0,1-0.2,1.3-0.5l0,0c0,0,2.5-2,5.6-2c2.8,0,5.1,1.5,6.8,4.5c4.5,7.7,2.8,16.1,2.8,16.5
		c-0.5,3.3-2.6,3.8-3.7,3.8c-0.1,0-0.3,0-0.4,0c-0.5,0-2.1-0.2-6.7-6.5l-0.1-0.2c-0.2-0.3-0.7-0.5-1.1-0.5l-10.9,0
		c-0.3,0-0.8,0.3-1.1,0.5l-0.1,0.2c-4.5,6.3-6,6.4-6.6,6.5C4.4,24.8,4.2,24.8,4.1,24.8z M10,1.5c-2.2,0-4.1,1.3-5.5,3.7
		c-4.3,7.2-2.7,15.1-2.6,15.4c0.3,1.9,1.1,2.7,2.5,2.6c0.2,0,1.6-0.4,5.5-5.8c0.1-0.1,0.2-0.2,0.2-0.2c0.5-0.6,1.4-1.1,2.2-1.1
		l10.9,0c0.8,0,1.7,0.5,2.2,1.1c0,0,0.1,0.1,0.2,0.2c4.1,5.6,5.5,5.9,5.6,5.9c1.4,0.1,2.2-0.7,2.5-2.6c0.1-0.4,1.7-8.2-2.6-15.4
		c-1.5-2.5-3.3-3.7-5.5-3.7c-2.5,0-4.6,1.6-4.6,1.6c-0.6,0.4-1.6,0.8-2.3,0.8h-1.8c-0.7,0-1.7-0.3-2.3-0.8C14.5,3.1,12.4,1.5,10,1.5
		z"/>
</g>
<g>
	<path fill="#FFFFFF" d="M23.7,13.6c-1,0-1.8-0.8-1.8-1.8c0-1,0.8-1.8,1.8-1.8c1,0,1.8,0.8,1.8,1.8C25.5,12.8,24.7,13.6,23.7,13.6z
		 M23.7,10.8c-0.6,0-1,0.5-1,1s0.5,1,1,1c0.6,0,1-0.5,1-1S24.3,10.8,23.7,10.8z"/>
</g>
<g>
	<path fill="#FFFFFF" d="M23.7,9.4c-1,0-1.8-0.8-1.8-1.8c0-1,0.8-1.8,1.8-1.8c1,0,1.8,0.8,1.8,1.8C25.5,8.6,24.7,9.4,23.7,9.4z
		 M23.7,6.5c-0.6,0-1,0.5-1,1s0.5,1,1,1c0.6,0,1-0.5,1-1S24.3,6.5,23.7,6.5z"/>
</g>
<g>
	<path fill="#FFFFFF" d="M27.9,11.5c-1,0-1.8-0.8-1.8-1.8s0.8-1.8,1.8-1.8c1,0,1.8,0.8,1.8,1.8S28.9,11.5,27.9,11.5z M27.9,8.7
		c-0.6,0-1,0.5-1,1s0.5,1,1,1s1-0.5,1-1S28.5,8.7,27.9,8.7z"/>
</g>
<g>
	<path fill="#FFFFFF" d="M9.7,13c-0.2,0-0.4-0.2-0.4-0.4V6.8c0-0.2,0.2-0.4,0.4-0.4s0.4,0.2,0.4,0.4v5.8C10.1,12.8,9.9,13,9.7,13z"
		/>
</g>
<g>
	<path fill="#FFFFFF" d="M12.6,10.1H6.8c-0.2,0-0.4-0.2-0.4-0.4s0.2-0.4,0.4-0.4h5.8c0.2,0,0.4,0.2,0.4,0.4S12.8,10.1,12.6,10.1z"/>
</g>
<g display="none">
	<path display="inline" fill="#FFFFFF" d="M88.6,4.4h-0.3l-0.2-0.2l-2.4-2.3l0-0.7l0.2-0.3c0,0,0.4-0.4,0.8-0.8
		c0.7-0.7,1.9-0.7,2.6,0l0.6,0.6c0.4,0.3,0.6,0.8,0.6,1.3c0,0.5-0.2,0.9-0.5,1.3l-0.8,0.8C89,4.3,88.8,4.4,88.6,4.4z M87.5,1.5
		l0.8,0.8c0.1,0.1,0.2,0.2,0.3,0.3l0.3-0.3C89,2.2,89,2.1,89,2.1c0-0.1,0-0.2-0.1-0.2l-0.6-0.6c-0.2-0.2-0.3-0.2-0.5,0L87.5,1.5z"/>
</g>
<g display="none">
	<path display="inline" fill="#FFFFFF" d="M80.8,12.5l-3.3-3.2l8.9-8.8l3.3,3.2L80.8,12.5z M79.7,9.3l1.1,1.1l6.8-6.7l-1.1-1.1
		L79.7,9.3z"/>
</g>
<g display="none">
	<path display="inline" fill="#FFFFFF" d="M77,13.8c-0.2,0-0.4-0.1-0.5-0.2c-0.2-0.2-0.3-0.5-0.2-0.8L77.9,9l1.4,0.6l-0.9,2l2.1-0.9
		l0.6,1.4l-3.8,1.6C77.2,13.7,77.1,13.8,77,13.8z"/>
</g>
<g display="none">
	<path display="inline" fill="#FFFFFF" d="M86.1,23.8H54.8c-1.5,0-2.8-1.2-2.8-2.8V4c0-1.5,1.2-2.8,2.8-2.8h31.2
		c1.5,0,2.8,1.2,2.8,2.8V21C88.8,22.6,87.6,23.8,86.1,23.8z M54.8,2.7c-0.7,0-1.2,0.6-1.2,1.2V21c0,0.7,0.6,1.2,1.2,1.2h31.2
		c0.7,0,1.2-0.6,1.2-1.2V4c0-0.7-0.6-1.2-1.2-1.2H54.8z"/>
</g>
<g display="none">
	<rect x="58.2" y="2" display="inline" fill="#FFFFFF" width="1.5" height="21.1"/>
</g>
<g display="none">
	<path display="inline" fill="#FFFFFF" d="M134.7,28.8c-0.2,0-0.4,0-0.6,0c-0.9-0.1-1.6-0.8-1.6-1.7c0-0.3,0-0.7,0.1-1l0.8-10.9
		c0-0.3,0-0.7,0.1-1c0.1-1,0.9-1.8,2-1.7c0.1,0,0.2,0,0.2,0c0,0,0,0,0,0c0.1-0.9,0.2-1.7,0.1-2.6c-0.1-1.1-0.4-2.1-1-2.9
		c-0.4-0.1-0.8-0.3-1.1-0.6c-0.8-0.7-1.8-1.2-3.1-1.5c-1-0.2-2.2-0.3-3.3-0.3c-0.9,0-1.7,0.1-2.5,0.3c-1,0.3-1.8,0.7-2.5,1.2
		c-0.1,0.1-0.2,0.2-0.3,0.2c-0.3,0.3-0.7,0.5-1.1,0.6c-0.5,0.8-0.8,1.7-0.9,2.7c-0.1,0.9-0.1,1.8,0,2.8c0.1,0,0.3,0,0.4,0h0
		c1,0,1.7,0.7,1.8,1.7l0.9,12.9c0,0.5-0.1,1-0.4,1.3c-0.3,0.3-0.8,0.6-1.3,0.6c-2,0.1-3.8-0.4-5.4-1.6c-1.6-1.2-2.7-2.8-3.1-4.7
		c-0.6-2.9,0.1-5.5,2.2-7.6c0.5-0.5,1-0.9,1.6-1.3c-0.2-1.1-0.3-2.3-0.3-3.4c0.1-2,0.6-3.6,1.6-5.1c-0.2-0.8,0.1-1.6,0.7-2.2
		c1-1,2.3-1.7,3.7-2.2c1-0.4,2-0.6,3-0.7c0.4,0,0.7-0.1,1.1-0.1l0.7-0.1l1.8,0c1.6,0.1,3.1,0.4,4.4,0.9c1.3,0.5,2.5,1.2,3.5,2.2
		c0.6,0.6,0.8,1.3,0.7,2.1c0.6,1,1.1,2,1.3,3.2c0.2,1,0.3,2.2,0.3,3.3c0,0.7-0.1,1.3-0.3,2c0.7,0.4,1.3,0.9,1.9,1.6
		c1,1.1,1.7,2.4,1.9,3.9c0.8,3.9-1.4,7.7-5,9.2C136.7,28.6,135.7,28.8,134.7,28.8z M135.1,13.8c-0.2,0-0.3,0.1-0.3,0.3
		c0,0.3,0,0.7-0.1,1L134,26.1c0,0.3,0,0.6-0.1,1c0,0.1,0.1,0.2,0.2,0.2c1,0.1,2-0.1,2.9-0.5c3-1.2,4.7-4.4,4.1-7.5
		c-0.2-1.2-0.8-2.3-1.6-3.2c-0.5-0.6-1.2-1.1-1.9-1.5c-0.5-0.2-0.5-0.7-0.5-1c0.2-0.7,0.3-1.4,0.3-2.2c0.1-1,0-2-0.2-2.9
		c-0.2-1.1-0.7-2.1-1.2-2.9c-0.2-0.2-0.2-0.5-0.1-0.8c0.1-0.4,0-0.6-0.2-0.9c-0.8-0.8-1.8-1.4-3-1.8c-1.2-0.5-2.5-0.7-4-0.8l-0.6,0
		l-1.6,0.1c-0.4,0-0.7,0.1-1.1,0.1c-0.9,0.1-1.8,0.3-2.7,0.6c-1.3,0.5-2.3,1.1-3.2,1.9c-0.3,0.3-0.4,0.5-0.3,0.9
		c0.1,0.3,0,0.6-0.2,0.9c-0.9,1.3-1.3,2.8-1.4,4.5c-0.1,1.1,0,2.3,0.3,3.4c0.1,0.4-0.1,0.8-0.5,1c-0.6,0.3-1.2,0.7-1.6,1.2
		c-1.7,1.8-2.3,3.9-1.8,6.3c0.3,1.6,1.2,2.9,2.5,3.9c1.3,1,2.8,1.4,4.4,1.3c0.1,0,0.2,0,0.2-0.1c0-0.1,0.1-0.1,0.1-0.2l-0.9-12.8
		c0-0.3-0.2-0.3-0.2-0.3c-0.1,0-0.3,0-0.4,0l-0.2,0c-0.1,0-0.2,0-0.3,0l-0.8,0.1l-0.2-0.8c-0.3-1.4-0.3-2.7-0.2-3.9
		c0.2-1.4,0.6-2.5,1.3-3.5c0.2-0.2,0.4-0.4,0.7-0.4c0.2,0,0.4-0.1,0.5-0.2c0.1-0.1,0.2-0.2,0.3-0.3c0.8-0.7,1.8-1.2,3.1-1.5
		c0.9-0.2,1.8-0.4,2.8-0.4c1.3-0.1,2.6,0,3.7,0.3c1.6,0.4,2.8,1,3.8,1.9c0.1,0.1,0.3,0.2,0.5,0.2c0.3,0,0.5,0.2,0.7,0.4
		c0.7,1.1,1.2,2.3,1.3,3.8c0.1,1,0.1,2-0.1,3c0,0.2-0.1,0.4-0.1,0.5l-0.2,0.9l-1-0.1C135.6,13.9,135.4,13.9,135.1,13.8
		C135.1,13.8,135.1,13.8,135.1,13.8z"/>
</g>
<g display="none">
	<g display="inline">
		<path fill="#FFFFFF" d="M171,20.8h-0.4c-3.2,0-5.8-2.6-5.8-5.8V5.5c0-3.2,2.6-5.8,5.8-5.8h0.4c3.2,0,5.8,2.6,5.8,5.8V15
			C176.8,18.2,174.2,20.8,171,20.8z M170.6,1.2c-2.4,0-4.3,1.9-4.3,4.3V15c0,2.4,1.9,4.3,4.3,4.3h0.4c2.4,0,4.3-1.9,4.3-4.3V5.5
			c0-2.4-1.9-4.3-4.3-4.3H170.6z"/>
	</g>
	<g display="inline">
		<path fill="#FFFFFF" d="M177.5,29.1h-6.1v-7.3l0.7-0.1c1.8-0.1,3.2-0.8,4.2-2c2.1-2.6,1.8-6.7,1.8-6.7c0-0.4,0.3-0.8,0.7-0.8
			c0.4,0,0.8,0.3,0.8,0.7c0,0.2,0.4,4.8-2.1,7.8c-1.1,1.4-2.7,2.2-4.5,2.5v4.4h4.6c0.4,0,0.8,0.3,0.8,0.8S177.9,29.1,177.5,29.1z"/>
	</g>
	<g display="inline">
		<path fill="#FFFFFF" d="M170.2,29.1h-6.1c-0.4,0-0.8-0.3-0.8-0.8s0.3-0.8,0.8-0.8h4.6v-4.4c-1.9-0.3-3.4-1.1-4.5-2.5
			c-2.5-3-2.1-7.6-2.1-7.8c0-0.4,0.4-0.7,0.8-0.7c0.4,0,0.7,0.4,0.7,0.8c0,0-0.4,4.2,1.8,6.7c1,1.2,2.4,1.9,4.2,2l0.7,0.1V29.1z"/>
	</g>
	<g display="inline">
		<path fill="#FFFFFF" d="M165.8,6.5h2.7c0.5,0,0.9-0.3,0.9-0.6v0c0-0.3-0.4-0.6-0.9-0.6h-2.7V6.5z"/>
	</g>
	<g display="inline">
		<path fill="#FFFFFF" d="M165.8,9.6h2.7c0.5,0,0.9-0.3,0.9-0.6v0c0-0.3-0.4-0.6-0.9-0.6h-2.7V9.6z"/>
	</g>
	<g display="inline">
		<path fill="#FFFFFF" d="M165.8,12.3h2.7c0.5,0,0.9-0.3,0.9-0.6v0c0-0.3-0.4-0.6-0.9-0.6h-2.7V12.3z"/>
	</g>
	<g display="inline">
		<path fill="#FFFFFF" d="M165.8,14.9h2.7c0.5,0,0.9-0.3,0.9-0.6v0c0-0.3-0.4-0.6-0.9-0.6h-2.7V14.9z"/>
	</g>
</g>
<g display="none">
	<g display="inline">
		<path fill="#FFFFFF" d="M-319.2,23.1h-32.4c-0.3,0-0.5-0.1-0.7-0.4c-0.1-0.2-0.1-0.5,0-0.8l4.2-7V-0.1c0-0.4,0.3-0.8,0.8-0.8h23.7
			c0.4,0,0.8,0.3,0.8,0.8v15.1l4.2,7c0.1,0.2,0.1,0.5,0,0.8C-318.7,22.9-318.9,23.1-319.2,23.1z M-350.3,21.6h29.8l-3.7-6
			c-0.1-0.1-0.1-0.3-0.1-0.4V0.6h-22.2v14.5c0,0.1,0,0.3-0.1,0.4L-350.3,21.6z"/>
	</g>
	<g display="inline">
		<path fill="#FFFFFF" d="M-323.6,15.9h-23.7c-0.4,0-0.8-0.3-0.8-0.8s0.3-0.8,0.8-0.8h23.7c0.4,0,0.8,0.3,0.8,0.8
			S-323.1,15.9-323.6,15.9z"/>
	</g>
	<g display="inline">
		<path fill="#FFFFFF" d="M-324.9,19.4h-21.1c-0.4,0-0.8-0.3-0.8-0.8s0.3-0.8,0.8-0.8h21.1c0.4,0,0.8,0.3,0.8,0.8
			S-324.5,19.4-324.9,19.4z"/>
	</g>
	<g display="inline">
		<path fill="#FFFFFF" d="M-341.9,23.1c-0.1,0-0.3,0-0.4-0.1c-0.3-0.2-0.4-0.7-0.2-1l2.5-3.7c0.2-0.3,0.7-0.4,1-0.2
			c0.3,0.2,0.4,0.7,0.2,1l-2.5,3.7C-341.4,23-341.6,23.1-341.9,23.1z"/>
	</g>
	<g display="inline">
		<path fill="#FFFFFF" d="M-329.2,23.1c-0.2,0-0.5-0.1-0.6-0.3l-2.5-3.7c-0.2-0.3-0.2-0.8,0.2-1c0.3-0.2,0.8-0.2,1,0.2l2.5,3.7
			c0.2,0.3,0.2,0.8-0.2,1C-328.9,23-329.1,23.1-329.2,23.1z"/>
	</g>
</g>
<g display="none">
	<circle display="inline" fill="#FFFFFF" cx="-284.1" cy="22" r="0.7"/>
</g>
<path display="none" fill="none" stroke="#FFFFFF" stroke-width="1.5" stroke-miterlimit="10" d="M-378.2,125h-27.3
	c-1.1,0-2-0.9-2-2v-14.2c0-1.1,0.9-2,2-2h27.3c1.1,0,2,0.9,2,2V123C-376.2,124.1-377.1,125-378.2,125z"/>
<line display="none" fill="none" stroke="#FFFFFF" stroke-width="1.5" stroke-linecap="round" stroke-linejoin="round" stroke-miterlimit="10" x1="-407.5" y1="121.9" x2="-376.2" y2="121.9"/>
<polyline display="none" fill="none" stroke="#FFFFFF" stroke-width="1.5" stroke-linecap="round" stroke-linejoin="round" stroke-miterlimit="10" points="
	-395.8,126 -395.8,128.2 -387.8,128.2 -387.8,126 "/>
<path display="none" fill="#FFFFFF" d="M-385.2,131.3h-13.3c-0.3,0-0.5-0.2-0.5-0.5v-0.2c0-0.3,0.2-0.5,0.5-0.5h13.3
	c0.3,0,0.5,0.2,0.5,0.5v0.2C-384.7,131.1-384.9,131.3-385.2,131.3z"/>
<path display="none" fill="none" stroke="#FFFFFF" stroke-width="1.5" stroke-miterlimit="10" d="M-23.5,113.9
	c-0.9-3.5-4-6.1-7.8-6.1c-3.4,0-6.2,2.1-7.4,5c-0.7-0.6-1.6-1-2.6-1c-2.2,0-4,1.8-4,4c0,0.1,0,0.2,0,0.4c-2.4,0.8-4,3.2-4,5.8
	c0,3.3,2.7,6.2,6,6.2h19.1c3.9,0,7-3.3,7-7.2C-17.2,117.4-20,114.3-23.5,113.9z"/>
<g display="none">
	<path display="inline" fill="none" stroke="#FFFFFF" stroke-width="1.5" stroke-miterlimit="10" d="M-163.6,109.8h-6.4l-0.5-2.4
		c-0.1-0.4-0.6-0.8-1-0.8h-8.3c-0.4,0-0.9,0.4-0.9,0.8l-0.4,2.4h-0.8c-1.1,0-3.2,2.6-8,2.6v0.1c0,0,0,0.4,0,0.9v15.1
		c0,0.4,0.4,0.5,0.8,0.5h25.5c0.4,0,0.8,0,0.8-0.5v-17.5C-162.8,110.4-163.2,109.8-163.6,109.8z"/>
	
		<line display="inline" fill="none" stroke="#FFFFFF" stroke-width="1.5" stroke-miterlimit="10" x1="-190.6" y1="109.8" x2="-187.5" y2="109.8"/>
	
		<circle display="inline" fill="none" stroke="#FFFFFF" stroke-width="1.5" stroke-miterlimit="10" cx="-175.5" cy="119.3" r="6.4"/>
</g>
<polyline display="none" fill="none" stroke="#FFFFFF" stroke-width="1.5" stroke-linecap="round" stroke-miterlimit="10" points="
	-70.2,114.9 -70.2,129.2 -89.2,129.2 -89.2,110.7 -74.9,110.7 "/>
<polyline display="none" fill="none" stroke="#FFFFFF" stroke-width="1.5" stroke-linecap="round" stroke-linejoin="round" stroke-miterlimit="10" points="
	-81.2,121.8 -65.8,106.4 -65.8,114.1 "/>
<line display="none" fill="none" stroke="#FFFFFF" stroke-width="1.5" stroke-linecap="round" stroke-linejoin="round" stroke-miterlimit="10" x1="-65.8" y1="106.4" x2="-74.2" y2="106.4"/>
<path display="none" fill="none" stroke="#FFFFFF" stroke-width="1.5" stroke-miterlimit="10" d="M-113.6,128.7H-138
	c-1.4,0-2.3-0.8-2.3-1.9v-7.9c0-0.1,0-0.2,0.1-0.2l3.5-7.5c0.1-0.2,0.2-0.3,0.3-0.5c0.4-0.7,0.9-1.6,2-1.6h17.4c1.1,0,1.6,0.9,2,1.6
	c0.1,0.1,0.1,0.3,0.2,0.4l3.5,7.6c0,0.1,0.1,0.2,0.1,0.2v7.9C-111.3,127.9-112.2,128.7-113.6,128.7z"/>
<line display="none" fill="none" stroke="#FFFFFF" stroke-width="1.5" stroke-miterlimit="10" x1="-140.3" y1="118.8" x2="-111.3" y2="118.8"/>
<line display="none" fill="none" stroke="#FFFFFF" stroke-width="1.5" stroke-linecap="round" stroke-miterlimit="10" x1="-136.2" y1="122.8" x2="-136.2" y2="124.9"/>
<line display="none" fill="none" stroke="#FFFFFF" stroke-width="1.5" stroke-linecap="round" stroke-miterlimit="10" x1="-133" y1="122.8" x2="-133" y2="124.9"/>
<path display="none" fill="none" stroke="#FFFFFF" stroke-width="1.5" stroke-miterlimit="10" d="M-217.2,111.7v15.3
	c0,1.5-1.2,2.8-2.8,2.8h-30.8c-1.5,0-2.8-1.2-2.8-2.8v-15.3c0-1.5,1.2-2.8,2.8-2.8h30.8C-218.4,108.9-217.2,110.1-217.2,111.7z"/>
<line display="none" fill="none" stroke="#FFFFFF" stroke-width="1.5" stroke-miterlimit="10" x1="-221" y1="108.9" x2="-221" y2="129.7"/>
<line display="none" fill="none" stroke="#FFFFFF" stroke-width="1.5" stroke-miterlimit="10" x1="-249.8" y1="108.9" x2="-249.8" y2="129.7"/>
<path display="none" fill="none" stroke="#FFFFFF" stroke-width="1.5" stroke-miterlimit="10" d="M-278.8,130.5h-10.5
	c-1.1,0-1.9-0.9-1.9-1.9v-21.2c0-1.1,0.9-1.9,1.9-1.9h10.5c1.1,0,1.9,0.9,1.9,1.9v21.2C-276.9,129.6-277.8,130.5-278.8,130.5z"/>
<line display="none" fill="none" stroke="#FFFFFF" stroke-miterlimit="10" x1="-276.9" y1="127.9" x2="-291.3" y2="127.9"/>
<line display="none" fill="none" stroke="#FFFFFF" stroke-miterlimit="10" x1="-276.9" y1="108" x2="-291.3" y2="108"/>
<path display="none" fill="none" stroke="#FFFFFF" stroke-width="1.5" stroke-miterlimit="10" d="M31.7,111.9
	c-1.6-2.7-3.7-4.1-6.2-4.1c-2.8,0-5.1,1.8-5.1,1.8c-0.4,0.3-1.3,0.6-1.8,0.6h-1.8c-0.5,0-1.4-0.3-1.8-0.6c-0.1-0.1-2.3-1.8-5.1-1.8
	c-2.5,0-4.6,1.4-6.2,4.1c-4.4,7.5-2.7,15.6-2.7,15.9c0.4,2.7,1.9,3.2,3,3.2c0.1,0,0.2,0,0.3,0c1.9-0.2,6-6.1,6.2-6.3
	c0.4-0.4,1.1-0.8,1.6-0.8l10.9,0c0.5,0,1.3,0.4,1.6,0.8c0.2,0.2,4.4,6.2,6.3,6.4c0.1,0,0.2,0,0.3,0c1.1,0,2.6-0.6,3-3.2
	C34.4,127.7,36.2,119.4,31.7,111.9z"/>
<path display="none" fill="none" stroke="#FFFFFF" stroke-width="0.75" stroke-linecap="round" stroke-linejoin="round" stroke-miterlimit="10" d="
	M23.7,120.2c-0.8,0-1.4-0.6-1.4-1.4c0-0.8,0.6-1.4,1.4-1.4c0.8,0,1.4,0.6,1.4,1.4C25.1,119.6,24.5,120.2,23.7,120.2z"/>
<path display="none" fill="none" stroke="#FFFFFF" stroke-width="0.75" stroke-linecap="round" stroke-linejoin="round" stroke-miterlimit="10" d="
	M23.7,116c-0.8,0-1.4-0.6-1.4-1.4s0.6-1.4,1.4-1.4c0.8,0,1.4,0.6,1.4,1.4S24.5,116,23.7,116z"/>
<circle display="none" fill="none" stroke="#FFFFFF" stroke-width="0.75" stroke-linecap="round" stroke-linejoin="round" stroke-miterlimit="10" cx="27.9" cy="116.7" r="1.4"/>
<line display="none" fill="none" stroke="#FFFFFF" stroke-width="0.75" stroke-linecap="round" stroke-linejoin="round" stroke-miterlimit="10" x1="9.7" y1="113.8" x2="9.7" y2="119.6"/>
<line display="none" fill="none" stroke="#FFFFFF" stroke-width="0.75" stroke-linecap="round" stroke-linejoin="round" stroke-miterlimit="10" x1="6.8" y1="116.7" x2="12.6" y2="116.7"/>
<path display="none" fill="none" stroke="#FFFFFF" stroke-width="1.5" stroke-miterlimit="10" d="M88.8,107.7
	c-0.4-0.4-1.1-0.4-1.6,0c-0.4,0.4-0.8,0.8-0.8,0.8c0,0,0,0.1,0,0.1c0,0,0.4,0.4,0.8,0.8l0.5,0.5c0.4,0.4,0.8,0.8,0.8,0.8
	c0,0,0.1,0,0.1,0c0,0,0.4-0.4,0.8-0.8c0.4-0.4,0.4-1.1,0-1.5L88.8,107.7z"/>
<polygon display="none" fill="none" stroke="#FFFFFF" stroke-width="1.5" stroke-miterlimit="10" points="86.4,108.5 78.6,116.3 
	80.8,118.5 88.6,110.6 "/>
<polyline display="none" fill="none" stroke="#FFFFFF" stroke-width="1.5" stroke-linejoin="round" stroke-miterlimit="10" points="
	78.6,116.3 77,120 77,120 80.8,118.4 "/>
<path display="none" fill="none" stroke="#FFFFFF" stroke-width="1.5" stroke-linejoin="round" stroke-miterlimit="10" d="
	M86.1,130.1H54.8c-1.1,0-2-0.9-2-2V111c0-1.1,0.9-2,2-2h31.2c1.1,0,2,0.9,2,2v17.1C88.1,129.2,87.2,130.1,86.1,130.1z"/>
<line display="none" fill="none" stroke="#FFFFFF" stroke-width="1.5" stroke-miterlimit="10" x1="58.9" y1="130.1" x2="58.9" y2="109"/>
<path display="none" fill="none" stroke="#FFFFFF" stroke-width="1.5" stroke-miterlimit="10" d="M128.3,107.5c0.2,0,0.4,0,0.6,0
	c1.4,0.1,2.8,0.3,4.2,0.9c1.2,0.5,2.3,1.1,3.2,2c0.5,0.5,0.6,1,0.4,1.6c0,0.1,0,0.1,0,0.2c0.7,1,1.1,2,1.3,3.2
	c0.2,1,0.3,2.1,0.2,3.1c0,0.8-0.2,1.6-0.3,2.3c0,0.1,0,0.1,0.1,0.1c0.8,0.4,1.5,1,2.1,1.6c0.9,1,1.5,2.2,1.8,3.5
	c0.7,3.5-1.2,7-4.5,8.4c-1.1,0.4-2.1,0.6-3.3,0.5c-0.5,0-0.9-0.4-0.9-1c0-0.4,0-0.9,0.1-1.3c0.1-0.8,0.1-1.5,0.2-2.3
	c0.1-0.9,0.1-1.8,0.2-2.6c0.1-0.9,0.1-1.7,0.2-2.6c0.1-0.9,0.1-1.8,0.2-2.6c0-0.5,0.1-1,0.1-1.5c0-0.6,0.5-1,1.1-1
	c0.3,0,0.6,0.1,0.9,0.1c0-0.2,0.1-0.5,0.1-0.7c0.1-0.9,0.2-1.8,0.1-2.8c-0.1-1.2-0.5-2.4-1.2-3.5c0,0-0.1-0.1-0.1-0.1
	c-0.3,0-0.6-0.2-0.9-0.4c-1-0.9-2.1-1.4-3.4-1.7c-1.2-0.3-2.4-0.3-3.5-0.3c-0.9,0-1.8,0.1-2.6,0.4c-1,0.3-2,0.7-2.8,1.4
	c-0.1,0.1-0.2,0.2-0.3,0.3c-0.3,0.2-0.6,0.4-0.9,0.4c-0.1,0-0.1,0.1-0.1,0.1c-0.7,1-1,2.1-1.2,3.2c-0.2,1.2-0.1,2.5,0.2,3.7
	c0,0,0,0,0,0.1c0.1,0,0.3,0,0.4-0.1c0.2,0,0.4-0.1,0.7-0.1c0.6,0,1,0.4,1,1c0.1,1.5,0.2,3,0.3,4.5c0.1,1.2,0.2,2.4,0.2,3.7
	c0.1,1.3,0.2,2.7,0.3,4c0,0.2,0,0.5,0,0.7c0,0.6-0.4,1.1-1,1.1c-1.8,0.1-3.4-0.4-4.9-1.5c-1.5-1.1-2.4-2.5-2.8-4.3
	c-0.6-2.7,0.1-5,2-7c0.5-0.5,1.1-1,1.8-1.3c0.1,0,0.1-0.1,0.1-0.2c-0.3-1.2-0.4-2.4-0.3-3.6c0.1-1.8,0.6-3.4,1.5-4.9
	c0.1-0.1,0.1-0.2,0.1-0.3c-0.1-0.6,0-1.2,0.5-1.6c1-0.9,2.2-1.6,3.4-2.1c0.9-0.3,1.9-0.6,2.9-0.7c0.5-0.1,1.1-0.1,1.6-0.1
	c0,0,0.1,0,0.1,0C127.6,107.5,128,107.5,128.3,107.5z"/>
<g display="none">
	<path display="inline" fill="none" stroke="#FFFFFF" stroke-width="1.5" stroke-miterlimit="10" d="M171,127.1h-0.4
		c-2.8,0-5-2.3-5-5v-9.5c0-2.8,2.3-5,5-5h0.4c2.8,0,5,2.3,5,5v9.5C176.1,124.8,173.8,127.1,171,127.1z"/>
	<path display="inline" fill="none" stroke="#FFFFFF" stroke-width="1.5" stroke-linecap="round" stroke-miterlimit="10" d="
		M178.8,120c0,0,0.9,9-6.6,9.5v5.8h5.4"/>
	<path display="inline" fill="none" stroke="#FFFFFF" stroke-width="1.5" stroke-linecap="round" stroke-miterlimit="10" d="
		M162.8,120c0,0-0.9,9,6.6,9.5v5.8h-5.4"/>
	<path display="inline" fill="#FFFFFF" d="M165.8,113.5h2.7c0.5,0,0.9-0.3,0.9-0.6l0,0c0-0.3-0.4-0.6-0.9-0.6h-2.7V113.5z"/>
	<path display="inline" fill="#FFFFFF" d="M165.8,116.6h2.7c0.5,0,0.9-0.3,0.9-0.6v0c0-0.3-0.4-0.6-0.9-0.6h-2.7V116.6z"/>
	<path display="inline" fill="#FFFFFF" d="M165.8,119.3h2.7c0.5,0,0.9-0.3,0.9-0.6l0,0c0-0.3-0.4-0.6-0.9-0.6h-2.7V119.3z"/>
	<path display="inline" fill="#FFFFFF" d="M165.8,121.9h2.7c0.5,0,0.9-0.3,0.9-0.6v0c0-0.3-0.4-0.6-0.9-0.6h-2.7V121.9z"/>
</g>
<g display="none">
	
		<polygon display="inline" fill="none" stroke="#FFFFFF" stroke-width="1.5" stroke-linecap="round" stroke-linejoin="round" stroke-miterlimit="10" points="
		-323.6,122.2 -323.6,106.9 -335,106.9 -335.9,106.9 -347.3,106.9 -347.3,122.2 -351.6,129.3 -335.8,129.3 -335,129.3 -319.2,129.3 
			"/>
	
		<line display="inline" fill="none" stroke="#FFFFFF" stroke-width="1.5" stroke-linecap="round" stroke-linejoin="round" stroke-miterlimit="10" x1="-347.3" y1="122.2" x2="-323.6" y2="122.2"/>
	
		<line display="inline" fill="none" stroke="#FFFFFF" stroke-width="1.5" stroke-linecap="round" stroke-linejoin="round" stroke-miterlimit="10" x1="-345.9" y1="125.7" x2="-324.9" y2="125.7"/>
	
		<line display="inline" fill="none" stroke="#FFFFFF" stroke-width="1.5" stroke-linecap="round" stroke-linejoin="round" stroke-miterlimit="10" x1="-339.4" y1="125.7" x2="-341.9" y2="129.3"/>
	
		<line display="inline" fill="none" stroke="#FFFFFF" stroke-width="1.5" stroke-linecap="round" stroke-linejoin="round" stroke-miterlimit="10" x1="-331.8" y1="125.7" x2="-329.2" y2="129.3"/>
</g>
<circle display="none" fill="#FFFFFF" cx="-284.1" cy="129.1" r="0.7"/>
</svg>
