<?xml version="1.0" encoding="utf-8"?>
<!-- Generator: Adobe Illustrator 18.0.0, SVG Export Plug-In . SVG Version: 6.00 Build 0)  -->
<!DOCTYPE svg PUBLIC "-//W3C//DTD SVG 1.1//EN" "http://www.w3.org/Graphics/SVG/1.1/DTD/svg11.dtd">
<svg version="1.1" id="Layer_1" xmlns="http://www.w3.org/2000/svg" xmlns:xlink="http://www.w3.org/1999/xlink" x="0px" y="0px"
	 viewBox="0 0 24.9 24.3" enable-background="new 0 0 24.9 24.3" xml:space="preserve">
<rect x="-384.7" y="-27.9" display="none" fill="#010101" width="847.9" height="196"/>
<path display="none" fill="none" stroke="#FFFFFF" stroke-miterlimit="10" d="M-197.3,79.7h-118c-7.6,0-13.8-6.2-13.8-13.8v0
	c0-7.6,6.2-13.8,13.8-13.8h118c7.6,0,13.8,6.2,13.8,13.8v0C-183.5,73.4-189.7,79.7-197.3,79.7z"/>
<g display="none">
	
		<text transform="matrix(1 0 0 1 -296.7721 69.7431)" display="inline" fill="#FFFFFF" font-family="'HelveticaNeue-Light'" font-size="9.4843">TEXT IN ALL CAPS</text>
</g>
<g display="none">
	<g display="inline">
		<path fill="#FFFFFF" d="M-139.4,90.5c-13.6,0-24.7-11.1-24.7-24.7s11.1-24.7,24.7-24.7c13.6,0,24.7,11.1,24.7,24.7
			S-125.8,90.5-139.4,90.5z M-139.4,42.2c-13.1,0-23.7,10.6-23.7,23.7s10.6,23.7,23.7,23.7s23.7-10.6,23.7-23.7
			S-126.3,42.2-139.4,42.2z"/>
	</g>
	<g display="inline">
		
			<rect x="-139.8" y="53.6" transform="matrix(0.7071 0.7071 -0.7071 0.7071 5.7139 117.7994)" fill="#FFFFFF" width="1" height="24.5"/>
	</g>
	<g display="inline">
		
			<rect x="-151.6" y="65.3" transform="matrix(0.7071 0.7071 -0.7071 0.7071 5.7124 117.8034)" fill="#FFFFFF" width="24.5" height="1"/>
	</g>
</g>
<g display="none">
	<text transform="matrix(1 0 0 1 347.4379 0.656)" display="inline"><tspan x="0" y="0" fill="#FFFFFF" font-family="'HelveticaNeue-Light'" font-size="9.4843">LAPTOP</tspan><tspan x="0" y="11.4" fill="#FFFFFF" font-family="'HelveticaNeue-Light'" font-size="9.4843">SMARTPHONE</tspan><tspan x="0" y="22.8" fill="#FFFFFF" font-family="'HelveticaNeue-Light'" font-size="9.4843">TABLET</tspan><tspan x="0" y="34.1" fill="#FFFFFF" font-family="'HelveticaNeue-Light'" font-size="9.4843">HARD DRIVE</tspan><tspan x="0" y="45.5" fill="#FFFFFF" font-family="'HelveticaNeue-Light'" font-size="9.4843">CLOUD STORAGE</tspan><tspan x="0" y="56.9" fill="#FFFFFF" font-family="'HelveticaNeue-Light'" font-size="9.4843">DSLR</tspan><tspan x="0" y="68.3" fill="#FFFFFF" font-family="'HelveticaNeue-Light'" font-size="9.4843">GAME CONTROLLER</tspan><tspan x="0" y="79.7" fill="#FFFFFF" font-family="'HelveticaNeue-Light'" font-size="9.4843">WACOM PEN</tspan><tspan x="0" y="91" fill="#FFFFFF" font-family="'HelveticaNeue-Light'" font-size="9.4843">HEADPHONES</tspan><tspan x="0" y="102.4" fill="#FFFFFF" font-family="'HelveticaNeue-Light'" font-size="9.4843">MIC</tspan></text>
</g>
<g display="none">
	<path display="inline" fill="#FFFFFF" d="M-288.2,20.1h-27.3c-1.5,0-2.8-1.2-2.8-2.8V3.2c0-1.5,1.2-2.8,2.8-2.8h27.3
		c1.5,0,2.8,1.2,2.8,2.8v14.2C-285.5,18.9-286.7,20.1-288.2,20.1z M-315.5,1.9c-0.7,0-1.2,0.6-1.2,1.2v14.2c0,0.7,0.6,1.2,1.2,1.2
		h27.3c0.7,0,1.2-0.6,1.2-1.2V3.2c0-0.7-0.6-1.2-1.2-1.2H-315.5z"/>
</g>
<g display="none">
	<path display="inline" fill="#FFFFFF" d="M-286.2,17h-31.3c-0.4,0-0.8-0.3-0.8-0.8s0.3-0.8,0.8-0.8h31.3c0.4,0,0.8,0.3,0.8,0.8
		S-285.8,17-286.2,17z"/>
</g>
<g display="none">
	<path display="inline" fill="#FFFFFF" d="M-297.9,23.3h-8c-0.4,0-0.8-0.3-0.8-0.8v-2.2c0-0.4,0.3-0.8,0.8-0.8s0.8,0.3,0.8,0.8v1.5
		h6.5v-1.5c0-0.4,0.3-0.8,0.8-0.8s0.8,0.3,0.8,0.8v2.2C-297.1,23-297.5,23.3-297.9,23.3z"/>
</g>
<g display="none">
	<path display="inline" fill="#FFFFFF" d="M-295.2,25.7h-13.3c-0.3,0-0.5-0.2-0.5-0.5v-0.2c0-0.3,0.2-0.5,0.5-0.5h13.3
		c0.3,0,0.5,0.2,0.5,0.5v0.2C-294.7,25.4-294.9,25.7-295.2,25.7z"/>
</g>
<g display="none">
	<path display="inline" fill="#FFFFFF" d="M65.7,23.3H46.6c-3.7,0-6.8-3.2-6.8-6.9c0-2.7,1.6-5.2,4-6.3c0.1-2.6,2.2-4.6,4.8-4.6
		c0.8,0,1.6,0.2,2.3,0.6c1.5-2.8,4.5-4.6,7.7-4.6c3.9,0,7.2,2.5,8.4,6.2c3.6,0.6,6.4,4,6.4,7.8C73.5,19.6,69.9,23.3,65.7,23.3z
		 M48.6,6.9c-1.8,0-3.3,1.5-3.3,3.3c0,0,0,0.1,0,0.1l0.1,0.7l-0.6,0.2c-2.1,0.7-3.5,2.8-3.5,5.1c0,2.9,2.4,5.4,5.3,5.4h19.1
		c3.4,0,6.3-2.9,6.3-6.4c0-3.2-2.5-6-5.6-6.4l-0.5-0.1l-0.1-0.5c-0.8-3.3-3.7-5.5-7-5.5c-3,0-5.6,1.8-6.7,4.5l-0.4,1l-0.8-0.7
		C50.1,7.2,49.4,6.9,48.6,6.9z"/>
</g>
<g display="none">
	<g display="inline">
		<path fill="#FFFFFF" d="M-73.7,23.9h-25.5c-1.3,0-1.5-0.7-1.5-1.2V6l0.8-0.1c3,0,4.9-1.1,6.1-1.8c0.7-0.4,1.3-0.7,1.8-0.7h0.2
			l0.3-1.8c0.1-0.8,0.9-1.4,1.7-1.4h8.3c0.8,0,1.5,0.6,1.7,1.3l0.4,1.9h5.8c0.9,0,1.5,1.1,1.5,1.9v17.5
			C-72.1,23.3-72.4,23.9-73.7,23.9z M-99.2,22.4C-99.1,22.4-99.1,22.4-99.2,22.4h25.5c0,0,0,0,0,0V5.2c0-0.1-0.1-0.3-0.2-0.4h-6.9
			l-0.6-3c0-0.1-0.2-0.2-0.3-0.2h-8.3c-0.1,0-0.2,0.1-0.2,0.2l-0.5,3H-92c-0.2,0-0.7,0.3-1.1,0.5c-1.2,0.7-3.1,1.8-6.1,2V22.4z"/>
	</g>
	<g display="inline">
		<rect x="-100.7" y="3.3" fill="#FFFFFF" width="3.2" height="1.5"/>
	</g>
	<g display="inline">
		<path fill="#FFFFFF" d="M-85.6,20.8c-3.9,0-7.1-3.2-7.1-7.1c0-3.9,3.2-7.1,7.1-7.1s7.1,3.2,7.1,7.1
			C-78.5,17.6-81.7,20.8-85.6,20.8z M-85.6,8c-3.1,0-5.6,2.5-5.6,5.6c0,3.1,2.5,5.6,5.6,5.6s5.6-2.5,5.6-5.6C-80,10.5-82.5,8-85.6,8
			z"/>
	</g>
</g>
<g>
	<path fill="#FFFFFF" d="M20.5,24.3H0v-20h15c0.4,0,0.8,0.3,0.8,0.8S15.5,5.8,15,5.8H1.5v17H19V9.2c0-0.4,0.3-0.8,0.8-0.8
		s0.8,0.3,0.8,0.8V24.3z"/>
</g>
<g>
	<path fill="#FFFFFF" d="M8.7,16.9c-0.2,0-0.4-0.1-0.5-0.2c-0.3-0.3-0.3-0.8,0-1.1L23.6,0.2c0.2-0.2,0.5-0.3,0.8-0.2
		c0.3,0.1,0.5,0.4,0.5,0.7v7.7c0,0.4-0.3,0.8-0.8,0.8s-0.8-0.3-0.8-0.8V2.6L9.3,16.7C9.1,16.8,8.9,16.9,8.7,16.9z"/>
</g>
<g>
	<path fill="#FFFFFF" d="M24.2,1.5h-8.4c-0.4,0-0.8-0.3-0.8-0.8S15.4,0,15.8,0h8.4c0.4,0,0.8,0.3,0.8,0.8S24.6,1.5,24.2,1.5z"/>
</g>
<g display="none">
	<path display="inline" fill="#FFFFFF" d="M-23.7,23.8H-48c-1.8,0-3.1-1.1-3.1-2.7v-7.9c0-0.2,0-0.4,0.1-0.6l3.5-7.5
		c0.1-0.3,0.2-0.4,0.3-0.5c0.4-0.7,1.1-2,2.6-2h17.4c1.6,0,2.3,1.3,2.7,2c0.1,0.2,0.2,0.3,0.2,0.4l3.5,7.7c0.1,0.2,0.1,0.4,0.1,0.6
		v7.9C-20.6,22.7-21.8,23.8-23.7,23.8z M-44.5,4.1c-0.6,0-0.9,0.5-1.3,1.2C-46,5.4-46,5.6-46.2,5.8l-3.4,7.5l0,7.8
		c0,1.1,1.1,1.2,1.6,1.2h24.3c0.5,0,1.6-0.1,1.6-1.2v-7.9l-3.5-7.5c0,0-0.1-0.2-0.2-0.3c-0.5-0.8-0.8-1.3-1.4-1.3H-44.5z"/>
</g>
<g display="none">
	<rect x="-50.3" y="12.4" display="inline" fill="#FFFFFF" width="29" height="1.5"/>
</g>
<g display="none">
	<path display="inline" fill="#FFFFFF" d="M-46.3,20c-0.4,0-0.8-0.3-0.8-0.8v-2.1c0-0.4,0.3-0.8,0.8-0.8s0.8,0.3,0.8,0.8v2.1
		C-45.5,19.6-45.9,20-46.3,20z"/>
</g>
<g display="none">
	<path display="inline" fill="#FFFFFF" d="M-43,20c-0.4,0-0.8-0.3-0.8-0.8v-2.1c0-0.4,0.3-0.8,0.8-0.8s0.8,0.3,0.8,0.8v2.1
		C-42.3,19.6-42.6,20-43,20z"/>
</g>
<g display="none">
	<path display="inline" fill="#FFFFFF" d="M-130,24.8h-30.8c-1.9,0-3.5-1.6-3.5-3.5V6c0-1.9,1.6-3.5,3.5-3.5h30.8
		c1.9,0,3.5,1.6,3.5,3.5v15.3C-126.5,23.2-128.1,24.8-130,24.8z M-160.8,4c-1.1,0-2,0.9-2,2v15.3c0,1.1,0.9,2,2,2h30.8
		c1.1,0,2-0.9,2-2V6c0-1.1-0.9-2-2-2H-160.8z"/>
</g>
<g display="none">
	<rect x="-131.8" y="3.2" display="inline" fill="#FFFFFF" width="1.5" height="20.8"/>
</g>
<g display="none">
	<rect x="-160.6" y="3.2" display="inline" fill="#FFFFFF" width="1.5" height="20.8"/>
</g>
<g display="none">
	<path display="inline" fill="#FFFFFF" d="M-188.9,25.6h-10.5c-1.5,0-2.7-1.2-2.7-2.7V1.7c0-1.5,1.2-2.7,2.7-2.7h10.5
		c1.5,0,2.7,1.2,2.7,2.7v21.2C-186.2,24.4-187.4,25.6-188.9,25.6z M-199.4,0.5c-0.6,0-1.2,0.5-1.2,1.2v21.2c0,0.6,0.5,1.2,1.2,1.2
		h10.5c0.6,0,1.2-0.5,1.2-1.2V1.7c0-0.6-0.5-1.2-1.2-1.2H-199.4z"/>
</g>
<g display="none">
	<rect x="-201.3" y="21.7" display="inline" fill="#FFFFFF" width="14.4" height="1"/>
</g>
<g display="none">
	<rect x="-201.3" y="1.8" display="inline" fill="#FFFFFF" width="14.4" height="1"/>
</g>
<g display="none">
	<path display="inline" fill="#FFFFFF" d="M94.1,26.1c-1.2,0-3.2-0.5-3.8-3.9c-0.1-0.3-1.8-8.7,2.8-16.4c1.8-3,4-4.5,6.8-4.5
		c2.9,0,5.3,1.8,5.5,1.9c0.3,0.2,1,0.5,1.3,0.5h1.8c0.4,0,1-0.2,1.3-0.5l0,0c0,0,2.5-2,5.6-2c2.8,0,5.1,1.5,6.8,4.5
		c4.5,7.7,2.8,16.1,2.8,16.5c-0.5,3.3-2.6,3.8-3.7,3.8c-0.1,0-0.3,0-0.4,0c-0.5,0-2.1-0.2-6.7-6.5l-0.1-0.2
		c-0.2-0.3-0.7-0.5-1.1-0.5l-10.9,0c-0.3,0-0.8,0.3-1.1,0.5l-0.1,0.2c-4.5,6.3-6,6.4-6.6,6.5C94.3,26.1,94.2,26.1,94.1,26.1z
		 M99.9,2.8c-2.2,0-4.1,1.3-5.5,3.7c-4.3,7.2-2.7,15.1-2.6,15.4c0.3,1.9,1.1,2.7,2.5,2.6c0.2,0,1.6-0.4,5.5-5.8
		c0.1-0.1,0.2-0.2,0.2-0.2c0.5-0.6,1.4-1.1,2.2-1.1l10.9,0c0.8,0,1.7,0.5,2.2,1.1c0,0,0.1,0.1,0.2,0.2c4.1,5.6,5.5,5.9,5.6,5.9
		c1.4,0.1,2.2-0.7,2.5-2.6c0.1-0.4,1.7-8.2-2.6-15.4c-1.5-2.5-3.3-3.7-5.5-3.7c-2.5,0-4.6,1.6-4.6,1.6c-0.6,0.4-1.6,0.8-2.3,0.8
		h-1.8c-0.7,0-1.7-0.3-2.3-0.8C104.5,4.4,102.4,2.8,99.9,2.8z"/>
</g>
<g display="none">
	<path display="inline" fill="#FFFFFF" d="M113.6,15c-1,0-1.8-0.8-1.8-1.8c0-1,0.8-1.8,1.8-1.8c1,0,1.8,0.8,1.8,1.8
		C115.4,14.2,114.6,15,113.6,15z M113.6,12.1c-0.6,0-1,0.5-1,1s0.5,1,1,1c0.6,0,1-0.5,1-1S114.2,12.1,113.6,12.1z"/>
</g>
<g display="none">
	<path display="inline" fill="#FFFFFF" d="M113.6,10.7c-1,0-1.8-0.8-1.8-1.8c0-1,0.8-1.8,1.8-1.8c1,0,1.8,0.8,1.8,1.8
		C115.4,9.9,114.6,10.7,113.6,10.7z M113.6,7.9c-0.6,0-1,0.5-1,1s0.5,1,1,1c0.6,0,1-0.5,1-1S114.2,7.9,113.6,7.9z"/>
</g>
<g display="none">
	<path display="inline" fill="#FFFFFF" d="M117.9,12.8c-1,0-1.8-0.8-1.8-1.8s0.8-1.8,1.8-1.8c1,0,1.8,0.8,1.8,1.8
		S118.9,12.8,117.9,12.8z M117.9,10c-0.6,0-1,0.5-1,1s0.5,1,1,1s1-0.5,1-1S118.5,10,117.9,10z"/>
</g>
<g display="none">
	<path display="inline" fill="#FFFFFF" d="M99.6,14.3c-0.2,0-0.4-0.2-0.4-0.4V8.1c0-0.2,0.2-0.4,0.4-0.4s0.4,0.2,0.4,0.4V14
		C100,14.2,99.9,14.3,99.6,14.3z"/>
</g>
<g display="none">
	<path display="inline" fill="#FFFFFF" d="M102.6,11.4h-5.8c-0.2,0-0.4-0.2-0.4-0.4s0.2-0.4,0.4-0.4h5.8c0.2,0,0.4,0.2,0.4,0.4
		S102.8,11.4,102.6,11.4z"/>
</g>
<g display="none">
	<path display="inline" fill="#FFFFFF" d="M178.5,5.7h-0.3L178,5.5l-2.4-2.3l0-0.7l0.2-0.3c0,0,0.4-0.4,0.8-0.8
		c0.7-0.7,1.9-0.7,2.6,0l0.6,0.6c0.4,0.3,0.6,0.8,0.6,1.3c0,0.5-0.2,0.9-0.5,1.3l-0.8,0.8C179,5.6,178.8,5.7,178.5,5.7z M177.4,2.8
		l0.8,0.8c0.1,0.1,0.2,0.2,0.3,0.3l0.3-0.3c0.1-0.1,0.1-0.1,0.1-0.2c0-0.1,0-0.2-0.1-0.2l-0.6-0.6c-0.2-0.2-0.3-0.2-0.5,0L177.4,2.8
		z"/>
</g>
<g display="none">
	<path display="inline" fill="#FFFFFF" d="M170.7,13.8l-3.3-3.2l8.9-8.8l3.3,3.2L170.7,13.8z M169.6,10.6l1.1,1.1l6.8-6.7l-1.1-1.1
		L169.6,10.6z"/>
</g>
<g display="none">
	<path display="inline" fill="#FFFFFF" d="M166.9,15.1c-0.2,0-0.4-0.1-0.5-0.2c-0.2-0.2-0.3-0.5-0.2-0.8l1.6-3.7l1.4,0.6l-0.9,2
		l2.1-0.9l0.6,1.4l-3.8,1.6C167.1,15.1,167,15.1,166.9,15.1z"/>
</g>
<g display="none">
	<path display="inline" fill="#FFFFFF" d="M176,25.1h-31.2c-1.5,0-2.8-1.2-2.8-2.8V5.3c0-1.5,1.2-2.8,2.8-2.8H176
		c1.5,0,2.8,1.2,2.8,2.8v17.1C178.8,23.9,177.5,25.1,176,25.1z M144.8,4.1c-0.7,0-1.2,0.6-1.2,1.2v17.1c0,0.7,0.6,1.2,1.2,1.2H176
		c0.7,0,1.2-0.6,1.2-1.2V5.3c0-0.7-0.6-1.2-1.2-1.2H144.8z"/>
</g>
<g display="none">
	<rect x="148.1" y="3.3" display="inline" fill="#FFFFFF" width="1.5" height="21.1"/>
</g>
<g display="none">
	<path display="inline" fill="#FFFFFF" d="M224.6,30.1c-0.2,0-0.4,0-0.6,0c-0.9-0.1-1.6-0.8-1.6-1.7c0-0.3,0-0.7,0.1-1l0.8-10.9
		c0-0.3,0-0.7,0.1-1c0.1-1,0.9-1.8,2-1.7c0.1,0,0.2,0,0.2,0c0,0,0,0,0,0c0.1-0.9,0.2-1.7,0.1-2.6c-0.1-1.1-0.4-2.1-1-2.9
		c-0.4-0.1-0.8-0.3-1.1-0.6c-0.8-0.7-1.8-1.2-3.1-1.5c-1-0.2-2.2-0.3-3.3-0.3c-0.9,0-1.7,0.1-2.5,0.3c-1,0.3-1.8,0.7-2.5,1.2
		c-0.1,0.1-0.2,0.2-0.3,0.2c-0.3,0.3-0.7,0.5-1.1,0.6c-0.5,0.8-0.8,1.7-0.9,2.7c-0.1,0.9-0.1,1.8,0,2.8c0.1,0,0.3,0,0.4,0h0
		c1,0,1.7,0.7,1.8,1.7l0.9,12.9c0,0.5-0.1,1-0.4,1.3c-0.3,0.3-0.8,0.6-1.3,0.6c-2,0.1-3.8-0.4-5.4-1.6c-1.6-1.2-2.7-2.8-3.1-4.7
		c-0.6-2.9,0.1-5.5,2.2-7.6c0.5-0.5,1-0.9,1.6-1.3c-0.2-1.1-0.3-2.3-0.3-3.4c0.1-2,0.6-3.6,1.6-5.1c-0.2-0.8,0.1-1.6,0.7-2.2
		c1-1,2.3-1.7,3.7-2.2c1-0.4,2-0.6,3-0.7c0.4,0,0.7-0.1,1.1-0.1l0.7-0.1l1.8,0c1.6,0.1,3.1,0.4,4.4,0.9c1.3,0.5,2.5,1.2,3.5,2.2
		c0.6,0.6,0.8,1.3,0.7,2.1c0.6,1,1.1,2,1.3,3.2c0.2,1,0.3,2.2,0.3,3.3c0,0.7-0.1,1.3-0.3,2c0.7,0.4,1.3,0.9,1.9,1.6
		c1,1.1,1.7,2.4,1.9,3.9c0.8,3.9-1.4,7.7-5,9.2C226.7,29.9,225.6,30.1,224.6,30.1z M225.1,15.2c-0.2,0-0.3,0.1-0.3,0.3
		c0,0.3,0,0.7-0.1,1L224,27.4c0,0.3,0,0.6-0.1,1c0,0.1,0.1,0.2,0.2,0.2c1,0.1,2-0.1,2.9-0.5c3-1.2,4.7-4.4,4.1-7.5
		c-0.2-1.2-0.8-2.3-1.6-3.2c-0.5-0.6-1.2-1.1-1.9-1.5c-0.5-0.2-0.5-0.7-0.5-1c0.2-0.7,0.3-1.4,0.3-2.2c0.1-1,0-2-0.2-2.9
		c-0.2-1.1-0.7-2.1-1.2-2.9c-0.2-0.2-0.2-0.5-0.1-0.8c0.1-0.4,0-0.6-0.2-0.9c-0.8-0.8-1.8-1.4-3-1.8c-1.2-0.5-2.5-0.7-4-0.8l-0.6,0
		l-1.6,0.1c-0.4,0-0.7,0.1-1.1,0.1c-0.9,0.1-1.8,0.3-2.7,0.6c-1.3,0.5-2.3,1.1-3.2,1.9c-0.3,0.3-0.4,0.5-0.3,0.9
		c0.1,0.3,0,0.6-0.2,0.9c-0.9,1.3-1.3,2.8-1.4,4.5c-0.1,1.1,0,2.3,0.3,3.4c0.1,0.4-0.1,0.8-0.5,1c-0.6,0.3-1.2,0.7-1.6,1.2
		c-1.7,1.8-2.3,3.9-1.8,6.3c0.3,1.6,1.2,2.9,2.5,3.9c1.3,1,2.8,1.4,4.4,1.3c0.1,0,0.2,0,0.2-0.1c0-0.1,0.1-0.1,0.1-0.2l-0.9-12.8
		c0-0.3-0.2-0.3-0.2-0.3c-0.1,0-0.3,0-0.4,0l-0.2,0c-0.1,0-0.2,0-0.3,0l-0.8,0.1l-0.2-0.8c-0.3-1.4-0.3-2.7-0.2-3.9
		c0.2-1.4,0.6-2.5,1.3-3.5c0.2-0.2,0.4-0.4,0.7-0.4c0.2,0,0.4-0.1,0.5-0.2c0.1-0.1,0.2-0.2,0.3-0.3c0.8-0.7,1.8-1.2,3.1-1.5
		c0.9-0.2,1.8-0.4,2.8-0.4c1.3-0.1,2.6,0,3.7,0.3c1.6,0.4,2.8,1,3.8,1.9c0.1,0.1,0.3,0.2,0.5,0.2c0.3,0,0.5,0.2,0.7,0.4
		c0.7,1.1,1.2,2.3,1.3,3.8c0.1,1,0.1,2-0.1,3c0,0.2-0.1,0.4-0.1,0.5l-0.2,0.9l-1-0.1C225.5,15.3,225.3,15.2,225.1,15.2
		C225.1,15.2,225.1,15.2,225.1,15.2z"/>
</g>
<g display="none">
	<g display="inline">
		<path fill="#FFFFFF" d="M261,22.2h-0.4c-3.2,0-5.8-2.6-5.8-5.8V6.9c0-3.2,2.6-5.8,5.8-5.8h0.4c3.2,0,5.8,2.6,5.8,5.8v9.5
			C266.8,19.6,264.2,22.2,261,22.2z M260.5,2.6c-2.4,0-4.3,1.9-4.3,4.3v9.5c0,2.4,1.9,4.3,4.3,4.3h0.4c2.4,0,4.3-1.9,4.3-4.3V6.9
			c0-2.4-1.9-4.3-4.3-4.3H260.5z"/>
	</g>
	<g display="inline">
		<path fill="#FFFFFF" d="M267.5,30.5h-6.1v-7.3l0.7-0.1c1.8-0.1,3.2-0.8,4.2-2c2.1-2.6,1.8-6.7,1.8-6.7c0-0.4,0.3-0.8,0.7-0.8
			c0.4,0,0.8,0.3,0.8,0.7c0,0.2,0.4,4.8-2.1,7.8c-1.1,1.4-2.7,2.2-4.5,2.5V29h4.6c0.4,0,0.8,0.3,0.8,0.8S267.9,30.5,267.5,30.5z"/>
	</g>
	<g display="inline">
		<path fill="#FFFFFF" d="M260.2,30.5H254c-0.4,0-0.8-0.3-0.8-0.8s0.3-0.8,0.8-0.8h4.6v-4.4c-1.9-0.3-3.4-1.1-4.5-2.5
			c-2.5-3-2.1-7.6-2.1-7.8c0-0.4,0.4-0.7,0.8-0.7c0.4,0,0.7,0.4,0.7,0.8c0,0-0.4,4.2,1.8,6.7c1,1.2,2.4,1.9,4.2,2l0.7,0.1V30.5z"/>
	</g>
	<g display="inline">
		<path fill="#FFFFFF" d="M255.8,7.8h2.7c0.5,0,0.9-0.3,0.9-0.6v0c0-0.3-0.4-0.6-0.9-0.6h-2.7V7.8z"/>
	</g>
	<g display="inline">
		<path fill="#FFFFFF" d="M255.8,11h2.7c0.5,0,0.9-0.3,0.9-0.6v0c0-0.3-0.4-0.6-0.9-0.6h-2.7V11z"/>
	</g>
	<g display="inline">
		<path fill="#FFFFFF" d="M255.8,13.6h2.7c0.5,0,0.9-0.3,0.9-0.6v0c0-0.3-0.4-0.6-0.9-0.6h-2.7V13.6z"/>
	</g>
	<g display="inline">
		<path fill="#FFFFFF" d="M255.8,16.2h2.7c0.5,0,0.9-0.3,0.9-0.6v0c0-0.3-0.4-0.6-0.9-0.6h-2.7V16.2z"/>
	</g>
</g>
<g display="none">
	<g display="inline">
		<path fill="#FFFFFF" d="M-229.3,24.4h-32.4c-0.3,0-0.5-0.1-0.7-0.4c-0.1-0.2-0.1-0.5,0-0.8l4.2-7V1.2c0-0.4,0.3-0.8,0.8-0.8h23.7
			c0.4,0,0.8,0.3,0.8,0.8v15.1l4.2,7c0.1,0.2,0.1,0.5,0,0.8C-228.7,24.3-229,24.4-229.3,24.4z M-260.4,22.9h29.8l-3.7-6
			c-0.1-0.1-0.1-0.3-0.1-0.4V2h-22.2v14.5c0,0.1,0,0.3-0.1,0.4L-260.4,22.9z"/>
	</g>
	<g display="inline">
		<path fill="#FFFFFF" d="M-233.6,17.3h-23.7c-0.4,0-0.8-0.3-0.8-0.8s0.3-0.8,0.8-0.8h23.7c0.4,0,0.8,0.3,0.8,0.8
			S-233.2,17.3-233.6,17.3z"/>
	</g>
	<g display="inline">
		<path fill="#FFFFFF" d="M-234.9,20.8H-256c-0.4,0-0.8-0.3-0.8-0.8s0.3-0.8,0.8-0.8h21.1c0.4,0,0.8,0.3,0.8,0.8
			S-234.5,20.8-234.9,20.8z"/>
	</g>
	<g display="inline">
		<path fill="#FFFFFF" d="M-251.9,24.4c-0.1,0-0.3,0-0.4-0.1c-0.3-0.2-0.4-0.7-0.2-1l2.5-3.7c0.2-0.3,0.7-0.4,1-0.2
			c0.3,0.2,0.4,0.7,0.2,1l-2.5,3.7C-251.5,24.3-251.7,24.4-251.9,24.4z"/>
	</g>
	<g display="inline">
		<path fill="#FFFFFF" d="M-239.3,24.4c-0.2,0-0.5-0.1-0.6-0.3l-2.5-3.7c-0.2-0.3-0.2-0.8,0.2-1c0.3-0.2,0.8-0.2,1,0.2l2.5,3.7
			c0.2,0.3,0.2,0.8-0.2,1C-239,24.4-239.1,24.4-239.3,24.4z"/>
	</g>
</g>
<g display="none">
	<circle display="inline" fill="#FFFFFF" cx="-194.1" cy="23.4" r="0.7"/>
</g>
<path display="none" fill="none" stroke="#FFFFFF" stroke-width="1.5" stroke-miterlimit="10" d="M-288.2,126.4h-27.3
	c-1.1,0-2-0.9-2-2v-14.2c0-1.1,0.9-2,2-2h27.3c1.1,0,2,0.9,2,2v14.2C-286.2,125.5-287.1,126.4-288.2,126.4z"/>
<line display="none" fill="none" stroke="#FFFFFF" stroke-width="1.5" stroke-linecap="round" stroke-linejoin="round" stroke-miterlimit="10" x1="-317.5" y1="123.2" x2="-286.2" y2="123.2"/>
<polyline display="none" fill="none" stroke="#FFFFFF" stroke-width="1.5" stroke-linecap="round" stroke-linejoin="round" stroke-miterlimit="10" points="
	-305.9,127.3 -305.9,129.6 -297.9,129.6 -297.9,127.3 "/>
<path display="none" fill="#FFFFFF" d="M-295.2,132.7h-13.3c-0.3,0-0.5-0.2-0.5-0.5v-0.2c0-0.3,0.2-0.5,0.5-0.5h13.3
	c0.3,0,0.5,0.2,0.5,0.5v0.2C-294.7,132.4-294.9,132.7-295.2,132.7z"/>
<path display="none" fill="none" stroke="#FFFFFF" stroke-width="1.5" stroke-miterlimit="10" d="M66.4,115.2
	c-0.9-3.5-4-6.1-7.8-6.1c-3.4,0-6.2,2.1-7.4,5c-0.7-0.6-1.6-1-2.6-1c-2.2,0-4,1.8-4,4c0,0.1,0,0.2,0,0.4c-2.4,0.8-4,3.2-4,5.8
	c0,3.3,2.7,6.2,6,6.2h19.1c3.9,0,7-3.3,7-7.2C72.7,118.7,69.9,115.6,66.4,115.2z"/>
<g display="none">
	<path display="inline" fill="none" stroke="#FFFFFF" stroke-width="1.5" stroke-miterlimit="10" d="M-73.7,111.1H-80l-0.5-2.4
		c-0.1-0.4-0.6-0.8-1-0.8h-8.3c-0.4,0-0.9,0.4-0.9,0.8l-0.4,2.4H-92c-1.1,0-3.2,2.6-8,2.6v0.1c0,0,0,0.4,0,0.9v15.1
		c0,0.4,0.4,0.5,0.8,0.5h25.5c0.4,0,0.8,0,0.8-0.5v-17.5C-72.9,111.8-73.2,111.1-73.7,111.1z"/>
	
		<line display="inline" fill="none" stroke="#FFFFFF" stroke-width="1.5" stroke-miterlimit="10" x1="-100.7" y1="111.1" x2="-97.5" y2="111.1"/>
	<circle display="inline" fill="none" stroke="#FFFFFF" stroke-width="1.5" stroke-miterlimit="10" cx="-85.6" cy="120.7" r="6.4"/>
</g>
<polyline display="none" fill="none" stroke="#FFFFFF" stroke-width="1.5" stroke-linecap="round" stroke-miterlimit="10" points="
	19.7,116.2 19.7,130.5 0.7,130.5 0.7,112 15,112 "/>
<polyline display="none" fill="none" stroke="#FFFFFF" stroke-width="1.5" stroke-linecap="round" stroke-linejoin="round" stroke-miterlimit="10" points="
	8.7,123.2 24.2,107.8 24.2,115.5 "/>
<line display="none" fill="none" stroke="#FFFFFF" stroke-width="1.5" stroke-linecap="round" stroke-linejoin="round" stroke-miterlimit="10" x1="24.2" y1="107.8" x2="15.8" y2="107.8"/>
<path display="none" fill="none" stroke="#FFFFFF" stroke-width="1.5" stroke-miterlimit="10" d="M-23.7,130H-48
	c-1.4,0-2.3-0.8-2.3-1.9v-7.9c0-0.1,0-0.2,0.1-0.2l3.5-7.5c0.1-0.2,0.2-0.3,0.3-0.5c0.4-0.7,0.9-1.6,2-1.6h17.4c1.1,0,1.6,0.9,2,1.6
	c0.1,0.1,0.1,0.3,0.2,0.4l3.5,7.6c0,0.1,0.1,0.2,0.1,0.2v7.9C-21.4,129.3-22.3,130-23.7,130z"/>
<line display="none" fill="none" stroke="#FFFFFF" stroke-width="1.5" stroke-miterlimit="10" x1="-50.3" y1="120.2" x2="-21.4" y2="120.2"/>
<line display="none" fill="none" stroke="#FFFFFF" stroke-width="1.5" stroke-linecap="round" stroke-miterlimit="10" x1="-46.3" y1="124.1" x2="-46.3" y2="126.2"/>
<line display="none" fill="none" stroke="#FFFFFF" stroke-width="1.5" stroke-linecap="round" stroke-miterlimit="10" x1="-43" y1="124.1" x2="-43" y2="126.2"/>
<path display="none" fill="none" stroke="#FFFFFF" stroke-width="1.5" stroke-miterlimit="10" d="M-127.2,113v15.3
	c0,1.5-1.2,2.8-2.8,2.8h-30.8c-1.5,0-2.8-1.2-2.8-2.8V113c0-1.5,1.2-2.8,2.8-2.8h30.8C-128.5,110.2-127.2,111.5-127.2,113z"/>
<line display="none" fill="none" stroke="#FFFFFF" stroke-width="1.5" stroke-miterlimit="10" x1="-131" y1="110.2" x2="-131" y2="131.1"/>
<line display="none" fill="none" stroke="#FFFFFF" stroke-width="1.5" stroke-miterlimit="10" x1="-159.9" y1="110.2" x2="-159.9" y2="131.1"/>
<path display="none" fill="none" stroke="#FFFFFF" stroke-width="1.5" stroke-miterlimit="10" d="M-188.9,131.8h-10.5
	c-1.1,0-1.9-0.9-1.9-1.9v-21.2c0-1.1,0.9-1.9,1.9-1.9h10.5c1.1,0,1.9,0.9,1.9,1.9v21.2C-187,131-187.8,131.8-188.9,131.8z"/>
<line display="none" fill="none" stroke="#FFFFFF" stroke-miterlimit="10" x1="-187" y1="129.2" x2="-201.3" y2="129.2"/>
<line display="none" fill="none" stroke="#FFFFFF" stroke-miterlimit="10" x1="-187" y1="109.3" x2="-201.3" y2="109.3"/>
<path display="none" fill="none" stroke="#FFFFFF" stroke-width="1.5" stroke-miterlimit="10" d="M121.7,113.2
	c-1.6-2.7-3.7-4.1-6.2-4.1c-2.8,0-5.1,1.8-5.1,1.8c-0.4,0.3-1.3,0.6-1.8,0.6h-1.8c-0.5,0-1.4-0.3-1.8-0.6c-0.1-0.1-2.3-1.8-5.1-1.8
	c-2.5,0-4.6,1.4-6.2,4.1c-4.4,7.5-2.7,15.6-2.7,15.9c0.4,2.7,1.9,3.2,3,3.2c0.1,0,0.2,0,0.3,0c1.9-0.2,6-6.1,6.2-6.3
	c0.4-0.4,1.1-0.8,1.6-0.8l10.9,0c0.5,0,1.3,0.4,1.6,0.8c0.2,0.2,4.4,6.2,6.3,6.4c0.1,0,0.2,0,0.3,0c1.1,0,2.6-0.6,3-3.2
	C124.4,129.1,126.1,120.8,121.7,113.2z"/>
<path display="none" fill="none" stroke="#FFFFFF" stroke-width="0.75" stroke-linecap="round" stroke-linejoin="round" stroke-miterlimit="10" d="
	M113.6,121.6c-0.8,0-1.4-0.6-1.4-1.4c0-0.8,0.6-1.4,1.4-1.4c0.8,0,1.4,0.6,1.4,1.4C115,121,114.4,121.6,113.6,121.6z"/>
<path display="none" fill="none" stroke="#FFFFFF" stroke-width="0.75" stroke-linecap="round" stroke-linejoin="round" stroke-miterlimit="10" d="
	M113.6,117.4c-0.8,0-1.4-0.6-1.4-1.4s0.6-1.4,1.4-1.4c0.8,0,1.4,0.6,1.4,1.4S114.4,117.4,113.6,117.4z"/>
<circle display="none" fill="none" stroke="#FFFFFF" stroke-width="0.75" stroke-linecap="round" stroke-linejoin="round" stroke-miterlimit="10" cx="117.9" cy="118.1" r="1.4"/>
<line display="none" fill="none" stroke="#FFFFFF" stroke-width="0.75" stroke-linecap="round" stroke-linejoin="round" stroke-miterlimit="10" x1="99.6" y1="115.1" x2="99.6" y2="121"/>
<line display="none" fill="none" stroke="#FFFFFF" stroke-width="0.75" stroke-linecap="round" stroke-linejoin="round" stroke-miterlimit="10" x1="96.7" y1="118.1" x2="102.6" y2="118.1"/>
<path display="none" fill="none" stroke="#FFFFFF" stroke-width="1.5" stroke-miterlimit="10" d="M178.7,109c-0.4-0.4-1.1-0.4-1.6,0
	c-0.4,0.4-0.8,0.8-0.8,0.8c0,0,0,0.1,0,0.1c0,0,0.4,0.4,0.8,0.8l0.5,0.5c0.4,0.4,0.8,0.8,0.8,0.8c0,0,0.1,0,0.1,0
	c0,0,0.4-0.4,0.8-0.8c0.4-0.4,0.4-1.1,0-1.5L178.7,109z"/>
<polygon display="none" fill="none" stroke="#FFFFFF" stroke-width="1.5" stroke-miterlimit="10" points="176.3,109.9 168.5,117.6 
	170.7,119.8 178.6,112 "/>
<polyline display="none" fill="none" stroke="#FFFFFF" stroke-width="1.5" stroke-linejoin="round" stroke-miterlimit="10" points="
	168.5,117.7 166.9,121.4 166.9,121.4 170.8,119.8 "/>
<path display="none" fill="none" stroke="#FFFFFF" stroke-width="1.5" stroke-linejoin="round" stroke-miterlimit="10" d="
	M176,131.4h-31.2c-1.1,0-2-0.9-2-2v-17.1c0-1.1,0.9-2,2-2H176c1.1,0,2,0.9,2,2v17.1C178,130.5,177.1,131.4,176,131.4z"/>
<line display="none" fill="none" stroke="#FFFFFF" stroke-width="1.5" stroke-miterlimit="10" x1="148.9" y1="131.4" x2="148.9" y2="110.3"/>
<path display="none" fill="none" stroke="#FFFFFF" stroke-width="1.5" stroke-miterlimit="10" d="M218.3,108.8c0.2,0,0.4,0,0.6,0
	c1.4,0.1,2.8,0.3,4.2,0.9c1.2,0.5,2.3,1.1,3.2,2c0.5,0.5,0.6,1,0.4,1.6c0,0.1,0,0.1,0,0.2c0.7,1,1.1,2,1.3,3.2
	c0.2,1,0.3,2.1,0.2,3.1c0,0.8-0.2,1.6-0.3,2.3c0,0.1,0,0.1,0.1,0.1c0.8,0.4,1.5,1,2.1,1.6c0.9,1,1.5,2.2,1.8,3.5
	c0.7,3.5-1.2,7-4.5,8.4c-1.1,0.4-2.1,0.6-3.3,0.5c-0.5,0-0.9-0.4-0.9-1c0-0.4,0-0.9,0.1-1.3c0.1-0.8,0.1-1.5,0.2-2.3
	c0.1-0.9,0.1-1.8,0.2-2.6c0.1-0.9,0.1-1.7,0.2-2.6c0.1-0.9,0.1-1.8,0.2-2.6c0-0.5,0.1-1,0.1-1.5c0-0.6,0.5-1,1.1-1
	c0.3,0,0.6,0.1,0.9,0.1c0-0.2,0.1-0.5,0.1-0.7c0.1-0.9,0.2-1.8,0.1-2.8c-0.1-1.2-0.5-2.4-1.2-3.5c0,0-0.1-0.1-0.1-0.1
	c-0.3,0-0.6-0.2-0.9-0.4c-1-0.9-2.1-1.4-3.4-1.7c-1.2-0.3-2.4-0.3-3.5-0.3c-0.9,0-1.8,0.1-2.6,0.4c-1,0.3-2,0.7-2.8,1.4
	c-0.1,0.1-0.2,0.2-0.3,0.3c-0.3,0.2-0.6,0.4-0.9,0.4c-0.1,0-0.1,0.1-0.1,0.1c-0.7,1-1,2.1-1.2,3.2c-0.2,1.2-0.1,2.5,0.2,3.7
	c0,0,0,0,0,0.1c0.1,0,0.3,0,0.4-0.1c0.2,0,0.4-0.1,0.7-0.1c0.6,0,1,0.4,1,1c0.1,1.5,0.2,3,0.3,4.5c0.1,1.2,0.2,2.4,0.2,3.7
	c0.1,1.3,0.2,2.7,0.3,4c0,0.2,0,0.5,0,0.7c0,0.6-0.4,1.1-1,1.1c-1.8,0.1-3.4-0.4-4.9-1.5c-1.5-1.1-2.4-2.5-2.8-4.3
	c-0.6-2.7,0.1-5,2-7c0.5-0.5,1.1-1,1.8-1.3c0.1,0,0.1-0.1,0.1-0.2c-0.3-1.2-0.4-2.4-0.3-3.6c0.1-1.8,0.6-3.4,1.5-4.9
	c0.1-0.1,0.1-0.2,0.1-0.3c-0.1-0.6,0-1.2,0.5-1.6c1-0.9,2.2-1.6,3.4-2.1c0.9-0.3,1.9-0.6,2.9-0.7c0.5-0.1,1.1-0.1,1.6-0.1
	c0,0,0.1,0,0.1,0C217.5,108.8,217.9,108.8,218.3,108.8z"/>
<g display="none">
	<path display="inline" fill="none" stroke="#FFFFFF" stroke-width="1.5" stroke-miterlimit="10" d="M261,128.4h-0.4
		c-2.8,0-5-2.3-5-5v-9.5c0-2.8,2.3-5,5-5h0.4c2.8,0,5,2.3,5,5v9.5C266,126.2,263.7,128.4,261,128.4z"/>
	<path display="inline" fill="none" stroke="#FFFFFF" stroke-width="1.5" stroke-linecap="round" stroke-miterlimit="10" d="
		M268.8,121.4c0,0,0.9,9-6.6,9.5v5.8h5.4"/>
	<path display="inline" fill="none" stroke="#FFFFFF" stroke-width="1.5" stroke-linecap="round" stroke-miterlimit="10" d="
		M252.8,121.4c0,0-0.9,9,6.6,9.5v5.8H254"/>
	<path display="inline" fill="#FFFFFF" d="M255.8,114.8h2.7c0.5,0,0.9-0.3,0.9-0.6l0,0c0-0.3-0.4-0.6-0.9-0.6h-2.7V114.8z"/>
	<path display="inline" fill="#FFFFFF" d="M255.8,118h2.7c0.5,0,0.9-0.3,0.9-0.6l0,0c0-0.3-0.4-0.6-0.9-0.6h-2.7V118z"/>
	<path display="inline" fill="#FFFFFF" d="M255.8,120.7h2.7c0.5,0,0.9-0.3,0.9-0.6l0,0c0-0.3-0.4-0.6-0.9-0.6h-2.7V120.7z"/>
	<path display="inline" fill="#FFFFFF" d="M255.8,123.2h2.7c0.5,0,0.9-0.3,0.9-0.6l0,0c0-0.3-0.4-0.6-0.9-0.6h-2.7V123.2z"/>
</g>
<g display="none">
	
		<polygon display="inline" fill="none" stroke="#FFFFFF" stroke-width="1.5" stroke-linecap="round" stroke-linejoin="round" stroke-miterlimit="10" points="
		-233.6,123.5 -233.6,108.3 -245,108.3 -245.9,108.3 -257.3,108.3 -257.3,123.5 -261.7,130.7 -245.9,130.7 -245.1,130.7 
		-229.3,130.7 	"/>
	
		<line display="inline" fill="none" stroke="#FFFFFF" stroke-width="1.5" stroke-linecap="round" stroke-linejoin="round" stroke-miterlimit="10" x1="-257.3" y1="123.5" x2="-233.6" y2="123.5"/>
	
		<line display="inline" fill="none" stroke="#FFFFFF" stroke-width="1.5" stroke-linecap="round" stroke-linejoin="round" stroke-miterlimit="10" x1="-256" y1="127" x2="-234.9" y2="127"/>
	
		<line display="inline" fill="none" stroke="#FFFFFF" stroke-width="1.5" stroke-linecap="round" stroke-linejoin="round" stroke-miterlimit="10" x1="-249.4" y1="127" x2="-251.9" y2="130.7"/>
	
		<line display="inline" fill="none" stroke="#FFFFFF" stroke-width="1.5" stroke-linecap="round" stroke-linejoin="round" stroke-miterlimit="10" x1="-241.8" y1="127" x2="-239.3" y2="130.7"/>
</g>
<circle display="none" fill="#FFFFFF" cx="-194.1" cy="130.4" r="0.7"/>
</svg>
