<?xml version="1.0" encoding="utf-8"?>
<!-- Generator: Adobe Illustrator 18.0.0, SVG Export Plug-In . SVG Version: 6.00 Build 0)  -->
<!DOCTYPE svg PUBLIC "-//W3C//DTD SVG 1.1//EN" "http://www.w3.org/Graphics/SVG/1.1/DTD/svg11.dtd">
<svg version="1.1" id="Layer_1" xmlns="http://www.w3.org/2000/svg" xmlns:xlink="http://www.w3.org/1999/xlink" x="0px" y="0px"
	 viewBox="0 0 80 80" enable-background="new 0 0 80 80" xml:space="preserve">
<rect x="-1556" y="-75" display="none" fill="#010101" width="2246.1" height="519.2"/>
<path display="none" fill="none" stroke="#FFFFFF" stroke-miterlimit="10" d="M-1059.3,209.8h-312.6c-20.1,0-36.6-16.4-36.6-36.6
	l0,0c0-20.1,16.4-36.6,36.6-36.6h312.6c20.1,0,36.6,16.4,36.6,36.6l0,0C-1022.8,193.4-1039.2,209.8-1059.3,209.8z"/>
<g display="none">
	
		<text transform="matrix(1 0 0 1 -1322.9409 183.5285)" display="inline" fill="#FFFFFF" font-family="'HelveticaNeue-Light'" font-size="25.124">TEXT IN ALL CAPS</text>
</g>
<g display="none">
	<g display="inline">
		<path fill="#FFFFFF" d="M-906,238.7c-36,0-65.4-29.4-65.4-65.4s29.4-65.4,65.4-65.4s65.4,29.4,65.4,65.4S-869.9,238.7-906,238.7z
			 M-906,110.5c-34.7,0-62.8,28.1-62.8,62.8S-940.7,236-906,236c34.7,0,62.8-28.1,62.8-62.8S-871.5,110.5-906,110.5z"/>
	</g>
	<g display="inline">
		
			<rect x="-907.3" y="140.6" transform="matrix(-0.7071 -0.7071 0.7071 -0.7071 -1668.9506 -345.173)" fill="#FFFFFF" width="2.6" height="64.9"/>
	</g>
	<g display="inline">
		
			<rect x="-938.2" y="171.8" transform="matrix(-0.7071 -0.7071 0.7071 -0.7071 -1668.6708 -345.0144)" fill="#FFFFFF" width="64.9" height="2.6"/>
	</g>
</g>
<g display="none">
	
		<text transform="matrix(1 0 0 1 383.5742 0.5152)" display="inline" fill="#FFFFFF" font-family="'HelveticaNeue-Light'" font-size="25.124">LAPTOP</text>
	
		<text transform="matrix(1 0 0 1 383.5742 30.7142)" display="inline" fill="#FFFFFF" font-family="'HelveticaNeue-Light'" font-size="25.124">SMARTPHONE</text>
	
		<text transform="matrix(1 0 0 1 383.5742 60.9129)" display="inline" fill="#FFFFFF" font-family="'HelveticaNeue-Light'" font-size="25.124">TABLET</text>
	
		<text transform="matrix(1 0 0 1 383.5742 90.8469)" display="inline" fill="#FFFFFF" font-family="'HelveticaNeue-Light'" font-size="25.124">HARD DRIVE</text>
	
		<text transform="matrix(1 0 0 1 383.5742 121.0459)" display="inline" fill="#FFFFFF" font-family="'HelveticaNeue-Light'" font-size="25.124">CLOUD STORAGE</text>
	
		<text transform="matrix(1 0 0 1 383.5742 151.244)" display="inline" fill="#FFFFFF" font-family="'HelveticaNeue-Light'" font-size="25.124">DSLR</text>
	
		<text transform="matrix(1 0 0 1 383.5742 181.442)" display="inline" fill="#FFFFFF" font-family="'HelveticaNeue-Light'" font-size="25.124">GAME CONTROLLER</text>
	
		<text transform="matrix(1 0 0 1 383.5742 211.6418)" display="inline" fill="#FFFFFF" font-family="'HelveticaNeue-Light'" font-size="25.124">WACOM PEN</text>
	
		<text transform="matrix(1 0 0 1 383.5742 241.5757)" display="inline" fill="#FFFFFF" font-family="'HelveticaNeue-Light'" font-size="25.124">HEADPHONES</text>
	
		<text transform="matrix(1 0 0 1 383.5742 271.7737)" display="inline" fill="#FFFFFF" font-family="'HelveticaNeue-Light'" font-size="25.124">MIC</text>
</g>
<g display="none">
	<path display="inline" fill="#FFFFFF" d="M-1300.1,51.9h-72.3c-4,0-7.4-3.2-7.4-7.4V7.2c0-4,3.2-7.4,7.4-7.4h72.3
		c4,0,7.4,3.2,7.4,7.4v37.6C-1293,48.7-1296.2,51.9-1300.1,51.9z M-1372.5,4c-1.9,0-3.2,1.6-3.2,3.2v37.6c0,1.9,1.6,3.2,3.2,3.2
		h72.3c1.9,0,3.2-1.6,3.2-3.2V7.2c0-1.9-1.6-3.2-3.2-3.2C-1300.1,4-1372.5,4-1372.5,4z"/>
</g>
<g display="none">
	<path display="inline" fill="#FFFFFF" d="M-1294.8,43.7h-82.9c-1.1,0-2.1-0.8-2.1-2.1c0-1.3,0.8-2.1,2.1-2.1h82.9
		c1.1,0,2.1,0.8,2.1,2.1C-1292.7,42.9-1293.8,43.7-1294.8,43.7z"/>
</g>
<g display="none">
	<path display="inline" fill="#FFFFFF" d="M-1325.8,60.4h-21.2c-1.1,0-2.1-0.8-2.1-2.1v-5.8c0-1.1,0.8-2.1,2.1-2.1
		c1.3,0,2.1,0.8,2.1,2.1v4h17.2v-4c0-1.1,0.8-2.1,2.1-2.1s2.1,0.8,2.1,2.1v5.8C-1324,59.6-1324.8,60.4-1325.8,60.4z"/>
</g>
<g display="none">
	<path display="inline" fill="#FFFFFF" d="M-1318.9,66.8h-35.2c-0.8,0-1.3-0.5-1.3-1.3v-0.5c0-0.8,0.5-1.3,1.3-1.3h35.2
		c0.8,0,1.3,0.5,1.3,1.3v0.5C-1317.6,66.2-1318.1,66.8-1318.9,66.8z"/>
</g>
<g display="none">
	<path display="inline" fill="#FFFFFF" d="M-362.9,60.4h-50.3c-9.8,0-18-8.5-18-18.3c0-7.2,4.2-13.8,10.6-16.7
		c0.3-6.9,5.8-12.2,12.7-12.2c2.1,0,4.2,0.5,6.1,1.6c4-7.4,11.9-12.2,20.4-12.2c10.3,0,19.1,6.6,22.3,16.4c9.5,1.6,17,10.6,17,20.7
		C-342.3,50.9-351.5,60.4-362.9,60.4z M-407.9,17c-4.8,0-8.7,4-8.7,8.7V26l0.3,1.9l-1.6,0.5c-5.6,1.9-9.3,7.4-9.3,13.5
		c0,7.7,6.4,14.3,14,14.3h50.6c9,0,16.7-7.7,16.7-17c0-8.5-6.6-15.9-14.8-17l-1.3-0.3l-0.3-1.3c-2.1-8.7-9.8-14.6-18.5-14.6
		c-7.9,0-14.8,4.8-17.7,11.9l-1.1,2.6l-2.1-1.9C-404,17.7-405.8,17-407.9,17z"/>
</g>
<g display="none">
	<g display="inline">
		<path fill="#FFFFFF" d="M-731.9,62.3h-67.5c-3.4,0-4-1.9-4-3.2V14.6l2.1-0.3c7.9,0,13-2.9,16.2-4.8c1.9-1.1,3.4-1.9,4.8-1.9h0.5
			l0.8-4.8c0.3-2.1,2.4-3.7,4.5-3.7h22c2.1,0,4,1.6,4.5,3.4l1.1,5h15.4c2.4,0,4,2.9,4,5v46.4C-727.7,60.4-728.5,62.3-731.9,62.3z
			 M-799.5,58.3L-799.5,58.3h67.5l0,0V12.7c0-0.3-0.3-0.8-0.5-1.1h-18.3l-1.6-7.9c0-0.3-0.5-0.5-0.8-0.5h-22c-0.3,0-0.5,0.3-0.5,0.5
			l-1.3,7.9h-3.7c-0.5,0-1.9,0.8-2.9,1.3c-3.2,1.9-8.2,4.8-16.2,5.3v40H-799.5z"/>
	</g>
	<g display="inline">
		<rect x="-803.4" y="7.7" fill="#FFFFFF" width="8.5" height="4"/>
	</g>
	<g display="inline">
		<path fill="#FFFFFF" d="M-763.4,53.8c-10.3,0-18.8-8.5-18.8-18.8s8.5-18.8,18.8-18.8s18.8,8.5,18.8,18.8S-753.1,53.8-763.4,53.8z
			 M-763.4,20.1c-8.2,0-14.8,6.6-14.8,14.8s6.6,14.8,14.8,14.8c8.2,0,14.8-6.6,14.8-14.8S-755.2,20.1-763.4,20.1z"/>
	</g>
</g>
<g display="none">
	<path display="inline" fill="#FFFFFF" d="M-482.6,63H-537v-53h39.7c1.1,0,2.1,0.8,2.1,2.1s-0.8,2.1-2.1,2.1H-533v45h46.4v-36
		c0-1.1,0.8-2.1,2.1-2.1s2.1,0.8,2.1,2.1V63H-482.6z"/>
</g>
<g display="none">
	<path display="inline" fill="#FFFFFF" d="M-513.6,43.7c-0.5,0-1.1-0.3-1.3-0.5c-0.8-0.8-0.8-2.1,0-2.9l40.8-40.8
		c0.5-0.5,1.3-0.8,2.1-0.5s1.3,1.1,1.3,1.9v20.4c0,1.1-0.8,2.1-2.1,2.1c-1.3,0-2.1-0.8-2.1-2.1V5.6l-37.4,37.4
		C-512.6,43.4-513.1,43.7-513.6,43.7z"/>
</g>
<g display="none">
	<path display="inline" fill="#FFFFFF" d="M-472.8,2.6h-22.3c-1.1,0-2.1-0.8-2.1-2.1s0.8-2.1,2.1-2.1h22.3c1.1,0,2.1,0.8,2.1,2.1
		S-471.8,2.6-472.8,2.6z"/>
</g>
<g display="none">
	<path display="inline" fill="#FFFFFF" d="M-599.5,61.7h-64.4c-4.8,0-8.2-2.9-8.2-7.2V33.6c0-0.5,0-1.1,0.3-1.6l9.3-19.9
		c0.3-0.8,0.5-1.1,0.8-1.3c1.1-1.9,2.9-5.3,6.9-5.3h46.1c4.2,0,6.1,3.4,7.2,5.3c0.3,0.5,0.5,0.8,0.5,1.1l9.3,20.4
		c0.3,0.5,0.3,1.1,0.3,1.6v20.7C-591.3,58.8-594.7,61.7-599.5,61.7z M-654.8,9.5c-1.6,0-2.4,1.3-3.4,3.2c-0.3,0.5-0.5,0.8-0.8,1.3
		l-9,19.9v20.7c0,2.9,2.9,3.2,4.2,3.2h64.4c1.3,0,4.2-0.3,4.2-3.2V33.6l-9.3-19.9c0,0-0.3-0.5-0.5-0.8c-1.3-2.1-2.1-3.4-3.7-3.4
		C-608.7,9.5-654.8,9.5-654.8,9.5z"/>
</g>
<g display="none">
	<rect x="-670.2" y="31.8" display="inline" fill="#FFFFFF" width="76.8" height="4"/>
</g>
<g display="none">
	<path display="inline" fill="#FFFFFF" d="M-659.3,51.7c-1.1,0-2.1-0.8-2.1-2.1V44c0-1.1,0.8-1.9,2.1-1.9c1.3,0,2.1,0.8,2.1,1.9v5.6
		C-657.5,50.9-658.3,51.7-659.3,51.7z"/>
</g>
<g display="none">
	<path display="inline" fill="#FFFFFF" d="M-650.9,51.7c-1.1,0-2.1-0.8-2.1-2.1V44c0-1.1,0.8-1.9,2.1-1.9c1.3,0,2.1,0.8,2.1,1.9v5.6
		C-648.7,50.9-649.8,51.7-650.9,51.7z"/>
</g>
<g display="none">
	<path display="inline" fill="#FFFFFF" d="M-881.3,64.4h-81.6c-5,0-9.3-4.2-9.3-9.3V14.6c0-5,4.2-9.3,9.3-9.3h81.6
		c5,0,9.3,4.2,9.3,9.3v40.5C-871.8,60.4-876,64.4-881.3,64.4z M-962.6,9.3c-2.9,0-5.3,2.4-5.3,5.3v40.5c0,2.9,2.4,5.3,5.3,5.3h81.6
		c2.9,0,5.3-2.4,5.3-5.3V14.6c0-2.9-2.4-5.3-5.3-5.3H-962.6z"/>
</g>
<g display="none">
	<rect x="-885.8" y="7.4" display="inline" fill="#FFFFFF" width="4" height="55.1"/>
</g>
<g display="none">
	<rect x="-962.4" y="7.4" display="inline" fill="#FFFFFF" width="4" height="55.1"/>
</g>
<g display="none">
	<path display="inline" fill="#FFFFFF" d="M-1037.1,66.5h-27.8c-4,0-7.2-3.2-7.2-7.2V3.2c0-4,3.2-7.2,7.2-7.2h27.8
		c4,0,7.2,3.2,7.2,7.2v56.2C-1029.9,63.3-1033.1,66.5-1037.1,66.5z M-1064.9,0c-1.6,0-3.2,1.3-3.2,3.2v56.2c0,1.6,1.3,3.2,3.2,3.2
		h27.8c1.6,0,3.2-1.3,3.2-3.2V3.2c0-1.6-1.3-3.2-3.2-3.2H-1064.9z"/>
</g>
<g display="none">
	<rect x="-1070.2" y="56.2" display="inline" fill="#FFFFFF" width="38.1" height="2.6"/>
</g>
<g display="none">
	<rect x="-1070.2" y="3.4" display="inline" fill="#FFFFFF" width="38.1" height="2.6"/>
</g>
<g display="none">
	<path display="inline" fill="#FFFFFF" d="M-287.7,68.1c-3.2,0-8.5-1.3-10.1-10.3c-0.3-0.8-4.8-23,7.4-43.4
		c4.8-7.9,10.6-11.9,18-11.9c7.7,0,14,4.5,14.6,5c0.8,0.5,2.6,1.3,3.4,1.3h4.8c1.1,0,2.6-0.5,3.4-1.3l0,0c0,0,6.6-5.3,14.8-5.3
		c7.4,0,13.5,4,18,11.9c11.9,20.4,7.4,42.6,7.4,43.7c-1.3,8.7-6.9,10.1-9.8,10.1c-0.3,0-0.8,0-1.1,0c-1.3,0-5.6-0.5-17.7-17.2
		l-0.3-0.5c-0.5-0.8-1.9-1.3-2.9-1.3h-28.9c-0.8,0-2.1,0.8-2.9,1.3l-0.3,0.5c-11.9,16.7-15.9,17-17.5,17.2
		C-286.9,67.8-287.4,68.1-287.7,68.1z M-272.1,6.4c-5.8,0-10.9,3.4-14.6,9.8c-11.4,19.1-7.2,40-6.9,40.8c0.8,5,2.9,7.2,6.6,6.9
		c0.5,0,4.2-1.1,14.6-15.4c0.3-0.3,0.5-0.5,0.5-0.5c1.3-1.6,3.7-2.9,5.8-2.9h28.9c2.1,0,4.5,1.3,5.8,2.9c0,0,0.3,0.3,0.5,0.5
		c10.9,14.8,14.6,15.6,14.8,15.6c3.7,0.3,5.8-1.9,6.6-6.9c0.3-1.1,4.5-21.7-6.9-40.8c-4-6.6-8.7-9.8-14.6-9.8
		c-6.6,0-12.2,4.2-12.2,4.2c-1.6,1.1-4.2,2.1-6.1,2.1h-4.8c-1.9,0-4.5-0.8-6.1-2.1C-260.1,10.6-265.7,6.4-272.1,6.4z"/>
</g>
<g display="none">
	<path display="inline" fill="#FFFFFF" d="M-235.8,38.4c-2.6,0-4.8-2.1-4.8-4.8s2.1-4.8,4.8-4.8c2.6,0,4.8,2.1,4.8,4.8
		C-231,36.3-233.1,38.4-235.8,38.4z M-235.8,31c-1.6,0-2.6,1.3-2.6,2.6c0,1.3,1.3,2.6,2.6,2.6c1.6,0,2.6-1.3,2.6-2.6
		C-233.1,32.3-234.2,31-235.8,31z"/>
</g>
<g display="none">
	<path display="inline" fill="#FFFFFF" d="M-235.8,27.3c-2.6,0-4.8-2.1-4.8-4.8s2.1-4.8,4.8-4.8c2.6,0,4.8,2.1,4.8,4.8
		C-231,24.9-233.1,27.3-235.8,27.3z M-235.8,19.6c-1.6,0-2.6,1.3-2.6,2.6s1.3,2.6,2.6,2.6c1.6,0,2.6-1.3,2.6-2.6
		S-234.2,19.6-235.8,19.6z"/>
</g>
<g display="none">
	<path display="inline" fill="#FFFFFF" d="M-224.6,32.8c-2.6,0-4.8-2.1-4.8-4.8s2.1-4.8,4.8-4.8c2.6,0,4.8,2.1,4.8,4.8
		S-222,32.8-224.6,32.8z M-224.6,25.2c-1.6,0-2.6,1.3-2.6,2.6s1.3,2.6,2.6,2.6c1.3,0,2.6-1.3,2.6-2.6S-223,25.2-224.6,25.2z"/>
</g>
<g display="none">
	<path display="inline" fill="#FFFFFF" d="M-272.8,36.8c-0.5,0-1.1-0.5-1.1-1.1V20.4c0-0.5,0.5-1.1,1.1-1.1s1.1,0.5,1.1,1.1v15.4
		C-271.8,36.3-272.3,36.8-272.8,36.8z"/>
</g>
<g display="none">
	<path display="inline" fill="#FFFFFF" d="M-265.2,29.1h-15.4c-0.5,0-1.1-0.5-1.1-1.1s0.5-1.1,1.1-1.1h15.4c0.5,0,1.1,0.5,1.1,1.1
		S-264.6,29.1-265.2,29.1z"/>
</g>
<g display="none">
	<path display="inline" fill="#FFFFFF" d="M-63.8,13.8h-0.8l-0.5-0.5l-6.4-6.1V5.3l0.5-0.8c0,0,1.1-1.1,2.1-2.1c1.9-1.9,5-1.9,6.9,0
		l1.6,1.6c1.1,0.8,1.6,2.1,1.6,3.4s-0.5,2.4-1.3,3.4l-2.1,2.1C-62.8,13.8-63.3,13.8-63.8,13.8z M-66.8,6.4l2.1,2.1
		c0.3,0.3,0.5,0.5,0.8,0.8l0.8-0.8c0.3-0.3,0.3-0.3,0.3-0.5c0-0.3,0-0.5-0.3-0.5l-1.6-1.6c-0.5-0.5-0.8-0.5-1.3,0L-66.8,6.4z"/>
</g>
<g display="none">
	<path display="inline" fill="#FFFFFF" d="M-84.5,35.5l-8.7-8.5l23.6-23.3l8.7,8.5L-84.5,35.5z M-87.4,27l2.9,2.9l18-17.7l-2.9-2.9
		L-87.4,27z"/>
</g>
<g display="none">
	<path display="inline" fill="#FFFFFF" d="M-94.6,38.7c-0.5,0-1.1-0.3-1.3-0.5c-0.5-0.5-0.8-1.3-0.5-2.1l4.2-9.8l3.7,1.6l-2.4,5.3
		l5.6-2.4l1.6,3.7l-10.1,4.2C-94,38.7-94.3,38.7-94.6,38.7z"/>
</g>
<g display="none">
	<path display="inline" fill="#FFFFFF" d="M-70.5,65.4h-82.6c-4,0-7.4-3.2-7.4-7.4V13c0-4,3.2-7.4,7.4-7.4h82.6c4,0,7.4,3.2,7.4,7.4
		v45.3C-63.3,62-66.5,65.4-70.5,65.4z M-153.4,9.5c-1.9,0-3.2,1.6-3.2,3.4v45.3c0,1.9,1.6,3.2,3.2,3.2h82.6c1.9,0,3.2-1.6,3.2-3.2
		V13c0-1.9-1.6-3.4-3.2-3.4C-70.7,9.5-153.4,9.5-153.4,9.5z"/>
</g>
<g display="none">
	<rect x="-144.4" y="7.7" display="inline" fill="#FFFFFF" width="4" height="55.9"/>
</g>
<g>
	<path fill="#AAAD00" d="M58.3,78.4c-0.5,0-1.1,0-1.6,0c-2.4-0.3-4.2-2.1-4.2-4.5c0-0.8,0-1.9,0.3-2.6l2.1-28.9c0-0.8,0-1.9,0.3-2.6
		c0.3-2.6,2.4-4.8,5.3-4.5c0.3,0,0.5,0,0.5,0l0,0c0.3-2.4,0.5-4.5,0.3-6.9c-0.3-2.9-1.1-5.6-2.6-7.7c-1.1-0.3-2.1-0.8-2.9-1.6
		c-2.1-1.9-4.8-3.2-8.2-4c-2.6-0.5-5.8-0.8-8.7-0.8c-2.4,0-4.5,0.3-6.6,0.8c-2.6,0.8-4.8,1.9-6.6,3.2c-0.5,0.3-0.5,0.5-0.8,0.5
		c-0.8,0.8-1.9,1.3-2.9,1.6c-1.3,2.1-2.1,4.5-2.6,7.4c-0.3,2.4-0.3,4.8,0,7.4c0.3,0,0.8,0,1.1,0l0,0c2.6,0,4.5,1.9,4.8,4.5l2.4,34.2
		c0,1.3-0.3,2.6-1.1,3.4c-0.8,0.5-1.9,1.1-3.2,1.1c-5.3,0.3-10.1-1.1-14.3-4.2s-7.2-7.4-8.2-12.5C-1.1,54,0.8,47.2,6.4,41.6
		c1.3-1.3,2.6-2.4,4.2-3.4c-0.5-2.9-0.8-6.1-0.8-9c0.3-5.3,1.6-9.5,4.2-13.5c-0.3-2.4,0.3-4.2,1.9-5.8C18.5,7.2,22,5.3,25.7,4
		c2.6-1.1,5.3-1.6,7.9-1.9c1.1,0,1.9-0.3,2.9-0.3l1.9-0.3h4.8c4.2,0.3,8.2,1.1,11.7,2.4s6.6,3.2,9.3,5.8c1.6,1.6,2.1,3.4,1.9,5.6
		c1.6,2.6,2.9,5.3,3.4,8.5c0.5,2.6,0.8,5.8,0.8,8.7c0,1.9-0.3,3.4-0.8,5.3c1.9,1.1,3.4,2.4,5,4.2c2.6,2.9,4.5,6.4,5,10.3
		c2.1,10.3-3.7,20.4-13.2,24.4C63.6,77.9,60.9,78.4,58.3,78.4z M59.3,38.9c-0.5,0-0.8,0.3-0.8,0.8c0,0.8,0,1.9-0.3,2.6l-2.1,28.9
		c0,0.8,0,1.6-0.3,2.6c0,0.3,0.3,0.5,0.5,0.5c2.6,0.3,5.3-0.3,7.7-1.3c7.9-3.2,12.5-11.7,10.9-19.9c-0.5-3.2-2.1-6.1-4.2-8.5
		c-1.3-1.6-3.2-2.9-5-4c-1.3-0.5-1.3-1.9-1.3-2.6c0.5-1.9,0.8-3.7,0.8-5.8c0.3-2.6,0-5.3-0.5-7.7c-0.5-2.9-1.9-5.6-3.2-7.7
		c-0.5-0.5-0.5-1.3-0.3-2.1c0.3-1.1,0-1.6-0.5-2.4c-2.1-2.1-4.8-3.7-7.9-4.8c-3.2-1.3-6.6-1.9-10.6-2.1h-1.6l-3.4,0
		c-1.1,0-1.9,0.3-2.9,0.3c-2.4,0.3-4.8,1.1-7.2,1.9c-3.2,1.1-6.1,2.6-8.2,5C18,13.2,17.7,14,18,15.1c0.3,0.8,0,1.6-0.5,2.4
		c-2.4,3.4-3.4,7.4-3.7,11.9c-0.3,2.9,0,6.1,0.8,9c0.3,1.1-0.3,2.1-1.3,2.6c-1.6,0.8-3.2,1.9-4.2,3.2C4.5,49,2.9,54.6,4.2,60.9
		c0.8,4.2,3.2,7.7,6.6,10.3c3.4,2.6,7.4,3.7,11.7,3.4c0.3,0,0.5,0,0.5-0.3s0.3-0.3,0.3-0.5l-2.1-34.2c0-0.8-0.5-0.8-0.5-0.8
		c-0.3,0-0.8,0-1.1,0h-0.5c-0.3,0-0.5,0-0.8,0l-2.1,0.3l-0.5-2.1c-0.8-3.7-0.8-7.2-0.5-10.3c0.5-3.7,1.6-6.6,3.4-9.3
		c0.5-0.5,1.1-1.1,1.9-1.1c0.5,0,1.1-0.3,1.3-0.5s0.5-0.5,0.8-0.8c2.1-1.9,4.8-3.2,8.2-4c2.4-0.5,4.8-1.1,7.4-1.1
		c3.4-0.3,6.9,0,9.8,0.8c4.2,1.1,7.4,2.6,10.1,5c0.3,0.3,0.8,0.5,1.3,0.5c0.8,0,1.3,0.5,1.9,1.1c1.9,2.9,3.2,6.1,3.4,10.1
		c0.3,2.6,0.3,5.3-0.3,7.9c0,0.5-0.3,1.1-0.3,1.3l-0.5,2.4l-2.6-0.3C60.7,39.2,60.1,39.2,59.3,38.9C59.6,38.9,59.3,38.9,59.3,38.9z"
		/>
</g>
<g display="none">
	<g display="inline">
		<path fill="#FFFFFF" d="M154.4,57.5h-1.1c-8.5,0-15.4-6.9-15.4-15.4V17c0-8.5,6.9-15.4,15.4-15.4h1.1c8.5,0,15.4,6.9,15.4,15.4
			v25.2C169.8,50.6,162.9,57.5,154.4,57.5z M153.4,5.6c-6.4,0-11.4,5-11.4,11.4v25.2c0,6.4,5,11.4,11.4,11.4h1.1
			c6.4,0,11.4-5,11.4-11.4V17c0-6.4-5-11.4-11.4-11.4H153.4z"/>
	</g>
	<g display="inline">
		<path fill="#FFFFFF" d="M171.7,79.5h-16.2V60.1l1.9-0.3c4.8-0.3,8.5-2.1,11.1-5.3c5.6-6.9,4.8-17.7,4.8-17.7
			c0-1.1,0.8-2.1,1.9-2.1c1.1,0,2.1,0.8,2.1,1.9c0,0.5,1.1,12.7-5.6,20.7c-2.9,3.7-7.2,5.8-11.9,6.6v11.7h12.2
			c1.1,0,2.1,0.8,2.1,2.1C174,78.9,173,79.5,171.7,79.5z"/>
	</g>
	<g display="inline">
		<path fill="#FFFFFF" d="M152.3,79.5h-16.2c-1.1,0-2.1-0.8-2.1-2.1c0-1.3,0.8-2.1,2.1-2.1h12.2V63.6c-5-0.8-9-2.9-11.9-6.6
			c-6.6-7.9-5.6-20.1-5.6-20.7c0-1.1,1.1-1.9,2.1-1.9s1.9,1.1,1.9,2.1c0,0-1.1,11.1,4.8,17.7c2.6,3.2,6.4,5,11.1,5.3l1.9,0.3v19.6
			H152.3z"/>
	</g>
	<g display="inline">
		<path fill="#FFFFFF" d="M140.7,19.6h7.2c1.3,0,2.4-0.8,2.4-1.6l0,0c0-0.8-1.1-1.6-2.4-1.6h-7.2V19.6z"/>
	</g>
	<g display="inline">
		<path fill="#FFFFFF" d="M140.7,27.8h7.2c1.3,0,2.4-0.8,2.4-1.6l0,0c0-0.8-1.1-1.6-2.4-1.6h-7.2V27.8z"/>
	</g>
	<g display="inline">
		<path fill="#FFFFFF" d="M140.7,35h7.2c1.3,0,2.4-0.8,2.4-1.6l0,0c0-0.8-1.1-1.6-2.4-1.6h-7.2V35z"/>
	</g>
	<g display="inline">
		<path fill="#FFFFFF" d="M140.7,41.9h7.2c1.3,0,2.4-0.8,2.4-1.6l0,0c0-0.8-1.1-1.6-2.4-1.6h-7.2V41.9z"/>
	</g>
</g>
<g display="none">
	<g display="inline">
		<path fill="#FFFFFF" d="M-1144.1,63.6h-85.8c-0.8,0-1.3-0.3-1.9-1.1c-0.3-0.5-0.3-1.3,0-2.1l11.1-18.5V2.1c0-1.1,0.8-2.1,2.1-2.1
			h62.8c1.1,0,2.1,0.8,2.1,2.1v40l11.1,18.5c0.3,0.5,0.3,1.3,0,2.1C-1142.8,63-1143.3,63.6-1144.1,63.6z M-1226.5,59.6h78.9
			l-9.8-15.9c-0.3-0.3-0.3-0.8-0.3-1.1V4h-58.8v38.4c0,0.3,0,0.8-0.3,1.1L-1226.5,59.6z"/>
	</g>
	<g display="inline">
		<path fill="#FFFFFF" d="M-1155.5,44.5h-63c-1.1,0-2.1-0.8-2.1-1.9s0.8-2.1,2.1-2.1h62.8c1.1,0,2.1,0.8,2.1,2.1
			C-1153.6,44-1154.4,44.5-1155.5,44.5z"/>
	</g>
	<g display="inline">
		<path fill="#FFFFFF" d="M-1159.2,53.8h-55.9c-1.1,0-2.1-0.8-2.1-2.1c0-1.3,0.8-2.1,2.1-2.1h55.9c1.1,0,2.1,0.8,2.1,2.1
			C-1157.1,53-1158.1,53.8-1159.2,53.8z"/>
	</g>
	<g display="inline">
		<path fill="#FFFFFF" d="M-1204.2,63.6c-0.3,0-0.8,0-1.1-0.3c-0.8-0.5-1.1-1.9-0.5-2.6l6.6-9.8c0.5-0.8,1.9-1.1,2.6-0.5
			c0.8,0.5,1.1,1.9,0.5,2.6l-6.6,9.5C-1202.9,63-1203.4,63.6-1204.2,63.6z"/>
	</g>
	<g display="inline">
		<path fill="#FFFFFF" d="M-1170.6,63.6c-0.5,0-1.3-0.3-1.6-0.8l-6.6-9.8c-0.5-0.8-0.5-2.1,0.5-2.6c0.8-0.5,2.1-0.5,2.6,0.5l6.6,9.8
			c0.5,0.8,0.5,2.1-0.5,2.6C-1169.8,63.3-1170.3,63.6-1170.6,63.6z"/>
	</g>
</g>
<g display="none">
	<circle display="inline" fill="#FFFFFF" cx="-1051.1" cy="60.7" r="1.9"/>
</g>
<path display="none" fill="none" stroke="#FFFFFF" stroke-width="1.5" stroke-miterlimit="10" d="M-1300.1,333.5h-72.3
	c-2.9,0-5.3-2.4-5.3-5.3v-37.6c0-2.9,2.4-5.3,5.3-5.3h72.3c2.9,0,5.3,2.4,5.3,5.3v37.6C-1294.8,331.1-1297.2,333.5-1300.1,333.5z"/>
<line display="none" fill="none" stroke="#FFFFFF" stroke-width="1.5" stroke-linecap="round" stroke-linejoin="round" stroke-miterlimit="10" x1="-1377.7" y1="325.3" x2="-1294.8" y2="325.3"/>
<polyline display="none" fill="none" stroke="#FFFFFF" stroke-width="1.5" stroke-linecap="round" stroke-linejoin="round" stroke-miterlimit="10" points="
	-1347,336.2 -1347,342 -1325.8,342 -1325.8,336.2 "/>
<path display="none" fill="#FFFFFF" d="M-1318.9,350.2h-35.2c-0.8,0-1.3-0.5-1.3-1.3v-0.5c0-0.8,0.5-1.3,1.3-1.3h35.2
	c0.8,0,1.3,0.5,1.3,1.3v0.5C-1317.6,349.7-1318.1,350.2-1318.9,350.2z"/>
<path display="none" fill="none" stroke="#FFFFFF" stroke-width="1.5" stroke-miterlimit="10" d="M-360.8,304.1
	c-2.4-9.3-10.6-16.2-20.7-16.2c-9,0-16.4,5.6-19.6,13.2c-1.9-1.6-4.2-2.6-6.9-2.6c-5.8,0-10.6,4.8-10.6,10.6c0,0.3,0,0.5,0,1.1
	c-6.4,2.1-10.6,8.5-10.6,15.4c0,8.7,7.2,16.4,15.9,16.4h50.6c10.3,0,18.5-8.7,18.5-19.1C-344.1,313.4-351.5,305.2-360.8,304.1z"/>
<g display="none">
	<path display="inline" fill="none" stroke="#FFFFFF" stroke-width="1.5" stroke-miterlimit="10" d="M-731.9,293h-17l-1.3-6.4
		c-0.3-1.1-1.6-2.1-2.6-2.1h-22c-1.1,0-2.4,1.1-2.4,2.1l-1.1,6.4h-2.1c-2.9,0-8.5,6.9-21.2,6.9v0.3c0,0,0,1.1,0,2.4v40
		c0,1.1,1.1,1.3,2.1,1.3h67.5c1.1,0,2.1,0,2.1-1.3v-46.4C-729.8,294.8-730.9,293-731.9,293z"/>
	
		<line display="inline" fill="none" stroke="#FFFFFF" stroke-width="1.5" stroke-miterlimit="10" x1="-803.4" y1="293" x2="-795.2" y2="293"/>
	<circle display="inline" fill="none" stroke="#FFFFFF" stroke-width="1.5" stroke-miterlimit="10" cx="-763.4" cy="318.4" r="17"/>
</g>
<polyline display="none" fill="none" stroke="#FFFFFF" stroke-width="1.5" stroke-linecap="round" stroke-miterlimit="10" points="
	-484.5,306.8 -484.5,344.6 -534.8,344.6 -534.8,295.6 -497,295.6 "/>
<polyline display="none" fill="none" stroke="#FFFFFF" stroke-width="1.5" stroke-linecap="round" stroke-linejoin="round" stroke-miterlimit="10" points="
	-513.6,325 -472.8,284.2 -472.8,304.6 "/>
<line display="none" fill="none" stroke="#FFFFFF" stroke-width="1.5" stroke-linecap="round" stroke-linejoin="round" stroke-miterlimit="10" x1="-472.8" y1="284.2" x2="-494.8" y2="284.2"/>
<path display="none" fill="none" stroke="#FFFFFF" stroke-width="1.5" stroke-miterlimit="10" d="M-599.5,343.3h-64.4
	c-3.7,0-6.1-2.1-6.1-5v-20.9c0-0.3,0-0.5,0.3-0.5l9.3-19.9c0.3-0.5,0.5-0.8,0.8-1.3c1.1-1.9,2.4-4.2,5.3-4.2h46.1
	c2.9,0,4.2,2.4,5.3,4.2c0.3,0.3,0.3,0.8,0.5,1.1l9.3,20.1c0,0.3,0.3,0.5,0.3,0.5v20.9C-593.4,341.2-595.8,343.3-599.5,343.3z"/>
<line display="none" fill="none" stroke="#FFFFFF" stroke-width="1.5" stroke-miterlimit="10" x1="-670.2" y1="317.1" x2="-593.4" y2="317.1"/>
<line display="none" fill="none" stroke="#FFFFFF" stroke-width="1.5" stroke-linecap="round" stroke-miterlimit="10" x1="-659.3" y1="327.7" x2="-659.3" y2="333.2"/>
<line display="none" fill="none" stroke="#FFFFFF" stroke-width="1.5" stroke-linecap="round" stroke-miterlimit="10" x1="-650.9" y1="327.7" x2="-650.9" y2="333.2"/>
<path display="none" fill="none" stroke="#FFFFFF" stroke-width="1.5" stroke-miterlimit="10" d="M-873.9,298.3v40.5
	c0,4-3.2,7.4-7.4,7.4h-81.6c-4,0-7.4-3.2-7.4-7.4v-40.5c0-4,3.2-7.4,7.4-7.4h81.6C-877.1,290.9-873.9,294-873.9,298.3z"/>
<line display="none" fill="none" stroke="#FFFFFF" stroke-width="1.5" stroke-miterlimit="10" x1="-883.7" y1="290.9" x2="-883.7" y2="346"/>
<line display="none" fill="none" stroke="#FFFFFF" stroke-width="1.5" stroke-miterlimit="10" x1="-960.3" y1="290.9" x2="-960.3" y2="346"/>
<path display="none" fill="none" stroke="#FFFFFF" stroke-width="1.5" stroke-miterlimit="10" d="M-1037.1,348.1h-27.8
	c-2.9,0-5-2.4-5-5v-56.2c0-2.9,2.4-5,5-5h27.8c2.9,0,5,2.4,5,5V343C-1032.1,345.7-1034.4,348.1-1037.1,348.1z"/>
<line display="none" fill="none" stroke="#FFFFFF" stroke-miterlimit="10" x1="-1032.1" y1="341.2" x2="-1070.2" y2="341.2"/>
<line display="none" fill="none" stroke="#FFFFFF" stroke-miterlimit="10" x1="-1032.1" y1="288.2" x2="-1070.2" y2="288.2"/>
<path display="none" fill="none" stroke="#FFFFFF" stroke-width="1.5" stroke-miterlimit="10" d="M-214.6,298.8
	c-4.2-7.2-9.8-10.9-16.4-10.9c-7.4,0-13.5,4.8-13.5,4.8c-1.1,0.8-3.4,1.6-4.8,1.6h-4.8c-1.3,0-3.7-0.8-4.8-1.6
	c-0.3-0.3-6.1-4.8-13.5-4.8c-6.6,0-12.2,3.7-16.4,10.9c-11.7,19.9-7.2,41.3-7.2,42.1c1.1,7.2,5,8.5,7.9,8.5c0.3,0,0.5,0,0.8,0
	c5-0.5,15.9-16.2,16.4-16.7c1.1-1.1,2.9-2.1,4.2-2.1h28.9c1.3,0,3.4,1.1,4.2,2.1c0.5,0.5,11.7,16.4,16.7,17c0.3,0,0.5,0,0.8,0
	c2.9,0,6.9-1.6,7.9-8.5C-207.4,340.7-202.6,318.7-214.6,298.8z"/>
<path display="none" fill="none" stroke="#FFFFFF" stroke-width="0.75" stroke-linecap="round" stroke-linejoin="round" stroke-miterlimit="10" d="
	M-235.8,320.8c-2.1,0-3.7-1.6-3.7-3.7s1.6-3.7,3.7-3.7c2.1,0,3.7,1.6,3.7,3.7S-233.6,320.8-235.8,320.8z"/>
<path display="none" fill="none" stroke="#FFFFFF" stroke-width="0.75" stroke-linecap="round" stroke-linejoin="round" stroke-miterlimit="10" d="
	M-235.8,309.7c-2.1,0-3.7-1.6-3.7-3.7s1.6-3.7,3.7-3.7c2.1,0,3.7,1.6,3.7,3.7S-233.6,309.7-235.8,309.7z"/>
<circle display="none" fill="none" stroke="#FFFFFF" stroke-width="0.75" stroke-linecap="round" stroke-linejoin="round" stroke-miterlimit="10" cx="-224.6" cy="311.5" r="3.7"/>
<line display="none" fill="none" stroke="#FFFFFF" stroke-width="0.75" stroke-linecap="round" stroke-linejoin="round" stroke-miterlimit="10" x1="-272.8" y1="303.8" x2="-272.8" y2="319.2"/>
<line display="none" fill="none" stroke="#FFFFFF" stroke-width="0.75" stroke-linecap="round" stroke-linejoin="round" stroke-miterlimit="10" x1="-280.5" y1="311.5" x2="-265.2" y2="311.5"/>
<path display="none" fill="none" stroke="#FFFFFF" stroke-width="1.5" stroke-miterlimit="10" d="M-63.3,287.7
	c-1.1-1.1-2.9-1.1-4.2,0c-1.1,1.1-2.1,2.1-2.1,2.1v0.3c0,0,1.1,1.1,2.1,2.1l1.3,1.3c1.1,1.1,2.1,2.1,2.1,2.1h0.3
	c0,0,1.1-1.1,2.1-2.1c1.1-1.1,1.1-2.9,0-4L-63.3,287.7z"/>
<polygon display="none" fill="none" stroke="#FFFFFF" stroke-width="1.5" stroke-miterlimit="10" points="-69.7,289.8 -90.3,310.5 
	-84.5,316 -63.8,295.4 "/>
<polyline display="none" fill="none" stroke="#FFFFFF" stroke-width="1.5" stroke-linejoin="round" stroke-miterlimit="10" points="
	-90.3,310.5 -94.6,320.3 -94.6,320.3 -84.5,316 "/>
<path display="none" fill="none" stroke="#FFFFFF" stroke-width="1.5" stroke-linejoin="round" stroke-miterlimit="10" d="
	M-70.5,346.8h-82.6c-2.9,0-5.3-2.4-5.3-5.3v-45.3c0-2.9,2.4-5.3,5.3-5.3h82.6c2.9,0,5.3,2.4,5.3,5.3v45.3
	C-65.2,344.4-67.5,346.8-70.5,346.8z"/>
<line display="none" fill="none" stroke="#FFFFFF" stroke-width="1.5" stroke-miterlimit="10" x1="-142.5" y1="346.8" x2="-142.5" y2="291.1"/>
<path display="none" fill="none" stroke="#FFFFFF" stroke-width="1.5" stroke-miterlimit="10" d="M41.3,287.2c0.5,0,1.1,0,1.6,0
	c3.7,0.3,7.4,0.8,11.1,2.4c3.2,1.3,6.1,2.9,8.5,5.3c1.3,1.3,1.6,2.6,1.1,4.2c0,0.3,0,0.3,0,0.5c1.9,2.6,2.9,5.3,3.4,8.5
	c0.5,2.6,0.8,5.6,0.5,8.2c0,2.1-0.5,4.2-0.8,6.1c0,0.3,0,0.3,0.3,0.3c2.1,1.1,4,2.6,5.6,4.2c2.4,2.6,4,5.8,4.8,9.3
	c1.9,9.3-3.2,18.5-11.9,22.3c-2.9,1.1-5.6,1.6-8.7,1.3c-1.3,0-2.4-1.1-2.4-2.6c0-1.1,0-2.4,0.3-3.4c0.3-2.1,0.3-4,0.5-6.1
	c0.3-2.4,0.3-4.8,0.5-6.9c0.3-2.4,0.3-4.5,0.5-6.9c0.3-2.4,0.3-4.8,0.5-6.9c0-1.3,0.3-2.6,0.3-4c0-1.6,1.3-2.6,2.9-2.6
	c0.8,0,1.6,0.3,2.4,0.3c0-0.5,0.3-1.3,0.3-1.9c0.3-2.4,0.5-4.8,0.3-7.4c-0.3-3.2-1.3-6.4-3.2-9.3l-0.3-0.3c-0.8,0-1.6-0.5-2.4-1.1
	c-2.6-2.4-5.6-3.7-9-4.5c-3.2-0.8-6.4-0.8-9.3-0.8c-2.4,0-4.8,0.3-6.9,1.1c-2.6,0.8-5.3,1.9-7.4,3.7c-0.3,0.3-0.5,0.5-0.8,0.8
	c-0.8,0.5-1.6,1.1-2.4,1.1c-0.3,0-0.3,0.3-0.3,0.3c-1.9,2.6-2.6,5.6-3.2,8.5c-0.5,3.2-0.3,6.6,0.5,9.8c0,0,0,0,0,0.3
	c0.3,0,0.8,0,1.1-0.3c0.5,0,1.1-0.3,1.9-0.3c1.6,0,2.6,1.1,2.6,2.6c0.3,4,0.5,7.9,0.8,11.9c0.3,3.2,0.5,6.4,0.5,9.8
	c0.3,3.4,0.5,7.2,0.8,10.6c0,0.5,0,1.3,0,1.9c0,1.6-1.1,2.9-2.6,2.9c-4.8,0.3-9-1.1-13-4c-4-2.9-6.4-6.6-7.4-11.4
	c-1.6-7.2,0.3-13.2,5.3-18.5c1.3-1.3,2.9-2.6,4.8-3.4c0.3,0,0.3-0.3,0.3-0.5c-0.8-3.2-1.1-6.4-0.8-9.5c0.3-4.8,1.6-9,4-13
	c0.3-0.3,0.3-0.5,0.3-0.8c-0.3-1.6,0-3.2,1.3-4.2c2.6-2.4,5.8-4.2,9-5.6c2.4-0.8,5-1.6,7.7-1.9c1.3-0.3,2.9-0.3,4.2-0.3h0.3
	C39.5,287.2,40.5,287.2,41.3,287.2z"/>
<g display="none">
	<path display="inline" fill="none" stroke="#FFFFFF" stroke-width="1.5" stroke-miterlimit="10" d="M154.4,339.1h-1.1
		c-7.4,0-13.2-6.1-13.2-13.2v-25.2c0-7.4,6.1-13.2,13.2-13.2h1.1c7.4,0,13.2,6.1,13.2,13.2v25.2C167.9,333,161.9,339.1,154.4,339.1z
		"/>
	<path display="inline" fill="none" stroke="#FFFFFF" stroke-width="1.5" stroke-linecap="round" stroke-miterlimit="10" d="
		M175.1,320.3c0,0,2.4,23.8-17.5,25.2v15.4h14.3"/>
	<path display="inline" fill="none" stroke="#FFFFFF" stroke-width="1.5" stroke-linecap="round" stroke-miterlimit="10" d="
		M132.7,320.3c0,0-2.4,23.8,17.5,25.2v15.4h-14.3"/>
	<path display="inline" fill="#FFFFFF" d="M140.7,303h7.2c1.3,0,2.4-0.8,2.4-1.6l0,0c0-0.8-1.1-1.6-2.4-1.6h-7.2V303z"/>
	<path display="inline" fill="#FFFFFF" d="M140.7,311.3h7.2c1.3,0,2.4-0.8,2.4-1.6l0,0c0-0.8-1.1-1.6-2.4-1.6h-7.2V311.3z"/>
	<path display="inline" fill="#FFFFFF" d="M140.7,318.4h7.2c1.3,0,2.4-0.8,2.4-1.6l0,0c0-0.8-1.1-1.6-2.4-1.6h-7.2V318.4z"/>
	<path display="inline" fill="#FFFFFF" d="M140.7,325.3h7.2c1.3,0,2.4-0.8,2.4-1.6l0,0c0-0.8-1.1-1.6-2.4-1.6h-7.2V325.3z"/>
</g>
<g display="none">
	
		<polygon display="inline" fill="none" stroke="#FFFFFF" stroke-width="1.5" stroke-linecap="round" stroke-linejoin="round" stroke-miterlimit="10" points="
		-1155.5,326.1 -1155.5,285.6 -1186,285.6 -1188.1,285.6 -1218.5,285.6 -1218.5,326.1 -1229.9,344.9 -1188.1,344.9 -1186,344.9 
		-1144.1,344.9 	"/>
	
		<line display="inline" fill="none" stroke="#FFFFFF" stroke-width="1.5" stroke-linecap="round" stroke-linejoin="round" stroke-miterlimit="10" x1="-1218.5" y1="326.1" x2="-1155.5" y2="326.1"/>
	
		<line display="inline" fill="none" stroke="#FFFFFF" stroke-width="1.5" stroke-linecap="round" stroke-linejoin="round" stroke-miterlimit="10" x1="-1214.8" y1="335.4" x2="-1159.2" y2="335.4"/>
	
		<line display="inline" fill="none" stroke="#FFFFFF" stroke-width="1.5" stroke-linecap="round" stroke-linejoin="round" stroke-miterlimit="10" x1="-1197.4" y1="335.4" x2="-1204.2" y2="344.9"/>
	
		<line display="inline" fill="none" stroke="#FFFFFF" stroke-width="1.5" stroke-linecap="round" stroke-linejoin="round" stroke-miterlimit="10" x1="-1177.2" y1="335.4" x2="-1170.6" y2="344.9"/>
</g>
<circle display="none" fill="#FFFFFF" cx="-1051.1" cy="344.1" r="1.9"/>
</svg>
