<?xml version="1.0" encoding="utf-8"?>
<!-- Generator: Adobe Illustrator 18.0.0, SVG Export Plug-In . SVG Version: 6.00 Build 0)  -->
<!DOCTYPE svg PUBLIC "-//W3C//DTD SVG 1.1//EN" "http://www.w3.org/Graphics/SVG/1.1/DTD/svg11.dtd">
<svg version="1.1" id="Layer_1" xmlns="http://www.w3.org/2000/svg" xmlns:xlink="http://www.w3.org/1999/xlink" x="0px" y="0px"
	 viewBox="0 0 80 80" enable-background="new 0 0 80 80" xml:space="preserve">
<rect x="-533.4" y="-80.9" display="none" fill="#010101" width="2550.1" height="589.5"/>
<path display="none" fill="none" stroke="#FFFFFF" stroke-miterlimit="10" d="M30.5,242.7h-354.9c-22.9,0-41.5-18.6-41.5-41.5l0,0
	c0-22.9,18.6-41.5,41.5-41.5H30.5c22.9,0,41.5,18.6,41.5,41.5l0,0C72,223.8,53.4,242.7,30.5,242.7z"/>
<g display="none">
	
		<text transform="matrix(1 0 0 1 -268.7184 212.7702)" display="inline" fill="#FFFFFF" font-family="'HelveticaNeue-Light'" font-size="28.5242">TEXT IN ALL CAPS</text>
</g>
<g display="none">
	<g display="inline">
		<path fill="#FFFFFF" d="M204.7,275.2c-40.9,0-74.3-33.1-74.3-74.3s33.4-74.3,74.3-74.3s74.3,33.4,74.3,74.3
			S245.6,275.2,204.7,275.2z M204.7,129.9c-39.4,0-71.3,31.9-71.3,71s31.9,71.3,71.3,71.3s71.3-31.9,71.3-71.3
			S243.8,129.9,204.7,129.9z"/>
	</g>
	<g display="inline">
		
			<rect x="203.1" y="164.1" transform="matrix(-0.7071 -0.7071 0.7071 -0.7071 207.1664 487.6788)" fill="#FFFFFF" width="3" height="73.7"/>
	</g>
	<g display="inline">
		
			<rect x="168" y="199.4" transform="matrix(-0.7071 -0.7071 0.7071 -0.7071 207.5425 487.8352)" fill="#FFFFFF" width="73.7" height="3"/>
	</g>
</g>
<g display="none">
	
		<text transform="matrix(1 0 0 1 1668.7554 4.9875)" display="inline" fill="#FFFFFF" font-family="'HelveticaNeue-Light'" font-size="28.5242">LAPTOP</text>
	
		<text transform="matrix(1 0 0 1 1668.7554 39.2753)" display="inline" fill="#FFFFFF" font-family="'HelveticaNeue-Light'" font-size="28.5242">SMARTPHONE</text>
	
		<text transform="matrix(1 0 0 1 1668.7554 73.5597)" display="inline" fill="#FFFFFF" font-family="'HelveticaNeue-Light'" font-size="28.5242">TABLET</text>
	
		<text transform="matrix(1 0 0 1 1668.7554 107.5441)" display="inline" fill="#FFFFFF" font-family="'HelveticaNeue-Light'" font-size="28.5242">HARD DRIVE</text>
	
		<text transform="matrix(1 0 0 1 1668.7554 141.8319)" display="inline" fill="#FFFFFF" font-family="'HelveticaNeue-Light'" font-size="28.5242">CLOUD STORAGE</text>
	
		<text transform="matrix(1 0 0 1 1668.7554 176.1163)" display="inline" fill="#FFFFFF" font-family="'HelveticaNeue-Light'" font-size="28.5242">DSLR</text>
	
		<text transform="matrix(1 0 0 1 1668.7554 210.4031)" display="inline" fill="#FFFFFF" font-family="'HelveticaNeue-Light'" font-size="28.5242">GAME CONTROLLER</text>
	
		<text transform="matrix(1 0 0 1 1668.7554 244.6885)" display="inline" fill="#FFFFFF" font-family="'HelveticaNeue-Light'" font-size="28.5242">WACOM PEN</text>
	
		<text transform="matrix(1 0 0 1 1668.7554 278.6739)" display="inline" fill="#FFFFFF" font-family="'HelveticaNeue-Light'" font-size="28.5242">HEADPHONES</text>
	
		<text transform="matrix(1 0 0 1 1668.7554 312.9587)" display="inline" fill="#FFFFFF" font-family="'HelveticaNeue-Light'" font-size="28.5242">MIC</text>
</g>
<g display="none">
	<path display="inline" fill="#FFFFFF" d="M-242.9,63.5H-325c-4.5,0-8.4-3.6-8.4-8.4V12.6c0-4.5,3.6-8.4,8.4-8.4h82.1
		c4.5,0,8.4,3.6,8.4,8.4v42.7C-234.7,59.8-238.3,63.5-242.9,63.5z M-325,8.7c-2.1,0-3.6,1.8-3.6,3.9v42.7c0,2.1,1.8,3.6,3.6,3.6
		h82.1c2.1,0,3.6-1.8,3.6-3.6V12.6c0-2.1-1.8-3.9-3.6-3.9C-242.9,8.7-325,8.7-325,8.7z"/>
</g>
<g display="none">
	<path display="inline" fill="#FFFFFF" d="M-236.8,54.1H-331c-1.2,0-2.4-0.9-2.4-2.4c0-1.5,0.9-2.4,2.4-2.4h94.1
		c1.2,0,2.4,0.9,2.4,2.4C-234.4,53.2-235.6,54.1-236.8,54.1z"/>
</g>
<g display="none">
	<path display="inline" fill="#FFFFFF" d="M-272,73.1h-24.1c-1.2,0-2.4-0.9-2.4-2.4v-6.6c0-1.2,0.9-2.4,2.4-2.4
		c1.5,0,2.4,0.9,2.4,2.4v4.5h19.5v-4.5c0-1.2,0.9-2.4,2.4-2.4s2.4,0.9,2.4,2.4v6.6C-269.9,72.2-270.8,73.1-272,73.1z"/>
</g>
<g display="none">
	<path display="inline" fill="#FFFFFF" d="M-264.2,80.3h-40c-0.9,0-1.5-0.6-1.5-1.5v-0.6c0-0.9,0.6-1.5,1.5-1.5h40
		c0.9,0,1.5,0.6,1.5,1.5v0.6C-262.4,79.4-263.3,80.3-264.2,80.3z"/>
</g>
<g display="none">
	<path display="inline" fill="#FFFFFF" d="M821.5,73.1h-57.4c-11.1,0-20.5-9.6-20.5-20.8c0-8.1,4.8-15.6,12-18.9
		c0.3-7.8,6.6-13.8,14.4-13.8c2.4,0,4.8,0.6,6.9,1.8c4.5-8.4,13.5-13.8,23.2-13.8c11.7,0,21.7,7.5,25.3,18.6
		c10.8,1.8,19.2,12,19.2,23.5C844.7,62.3,834.1,73.1,821.5,73.1z M770.1,23.8c-5.4,0-9.9,4.5-9.9,9.9V34l0.3,2.1l-1.8,0.6
		c-6.3,2.1-10.5,8.4-10.5,15.3c0,8.7,7.2,16.2,15.9,16.2h57.4c10.2,0,18.9-8.7,18.9-19.2c0-9.6-7.5-18-16.8-19.2l-1.5-0.3l-0.3-1.5
		c-2.4-9.9-11.1-16.5-21.1-16.5c-9,0-16.8,5.4-20.2,13.5l-1.2,3l-2.4-2.1C774.6,24.7,772.5,23.8,770.1,23.8z"/>
</g>
<g display="none">
	<g display="inline">
		<path fill="#FFFFFF" d="M402.3,74.9h-76.4c-3.9,0-4.5-2.1-4.5-3.6V21.1l2.4-0.3c9,0,14.7-3.3,18.3-5.4c2.1-1.2,3.9-2.1,5.4-2.1
			h0.6l0.9-5.4c0.3-2.4,2.7-4.2,5.1-4.2h25c2.4,0,4.5,1.8,5.1,3.9l1.2,5.7h17.4c2.7,0,4.5,3.3,4.5,5.7v52.6
			C407.1,73.1,406.2,74.9,402.3,74.9z M325.6,70.4L325.6,70.4h76.7l0,0V18.6c0-0.3-0.3-0.9-0.6-1.2h-20.8l-1.8-9
			c0-0.3-0.6-0.6-0.9-0.6h-25c-0.3,0-0.6,0.3-0.6,0.6l-1.5,9h-4.2c-0.6,0-2.1,0.9-3.3,1.5c-3.6,2.1-9.3,5.4-18.3,6v45.4H325.6z"/>
	</g>
	<g display="inline">
		<rect x="321.1" y="12.9" fill="#FFFFFF" width="9.6" height="4.5"/>
	</g>
	<g display="inline">
		<path fill="#FFFFFF" d="M366.5,65.6c-11.7,0-21.4-9.6-21.4-21.4s9.6-21.4,21.4-21.4c11.7,0,21.4,9.6,21.4,21.4
			S378.2,65.6,366.5,65.6z M366.5,27.1c-9.3,0-16.8,7.5-16.8,16.8s7.5,16.8,16.8,16.8s16.8-7.5,16.8-16.8S375.8,27.1,366.5,27.1z"/>
	</g>
</g>
<g display="none">
	<path display="inline" fill="#FFFFFF" d="M685.3,76.1h-61.7V15.9h45.1c1.2,0,2.4,0.9,2.4,2.4s-0.9,2.4-2.4,2.4h-40.6v51.1h52.6
		V30.7c0-1.2,0.9-2.4,2.4-2.4s2.4,0.9,2.4,2.4v45.4H685.3z"/>
</g>
<g display="none">
	<path display="inline" fill="#FFFFFF" d="M650.1,53.8c-0.6,0-1.2-0.3-1.5-0.6c-0.9-0.9-0.9-2.4,0-3.3l46.3-46.3
		c0.6-0.6,1.5-0.9,2.4-0.6c0.9,0.3,1.5,1.2,1.5,2.1v23.2c0,1.2-0.9,2.4-2.4,2.4c-1.5,0-2.4-0.9-2.4-2.4V10.8l-42.4,42.4
		C651.3,53.8,650.7,53.8,650.1,53.8z"/>
</g>
<g display="none">
	<path display="inline" fill="#FFFFFF" d="M696.4,7.5h-25.3c-1.2,0-2.4-0.9-2.4-2.1s0.9-2.4,2.4-2.4h25.3c1.2,0,2.4,0.9,2.4,2.4
		S697.6,7.5,696.4,7.5z"/>
</g>
<g display="none">
	<path display="inline" fill="#FFFFFF" d="M552.6,74.6h-73.1c-5.4,0-9.3-3.3-9.3-8.1V42.7c0-0.6,0-1.2,0.3-1.8l10.5-22.6
		c0.3-0.9,0.6-1.2,0.9-1.5c1.2-2.1,3.3-6,7.8-6h52.3c4.8,0,6.9,3.9,8.1,6c0.3,0.6,0.6,0.9,0.6,1.2l10.5,23.2
		c0.3,0.6,0.3,1.2,0.3,1.8v23.8C562,71.3,558,74.6,552.6,74.6z M489.8,15.3c-1.8,0-2.7,1.5-3.9,3.6c-0.3,0.6-0.6,0.9-0.9,1.5
		L474.7,43v23.5c0,3.3,3.3,3.6,4.8,3.6h73.1c1.5,0,4.8-0.3,4.8-3.6V42.7l-10.5-22.6c0,0-0.3-0.6-0.6-0.9c-1.5-2.4-2.4-3.9-4.2-3.9
		C542.1,15.3,489.8,15.3,489.8,15.3z"/>
</g>
<g display="none">
	<rect x="472.3" y="40.3" display="inline" fill="#FFFFFF" width="87.2" height="4.5"/>
</g>
<g display="none">
	<path display="inline" fill="#FFFFFF" d="M484.7,63.2c-1.2,0-2.4-0.9-2.4-2.4v-6.3c0-1.2,0.9-2.4,2.4-2.4s2.4,0.9,2.4,2.4v6.3
		C486.8,62,485.9,63.2,484.7,63.2z"/>
</g>
<g display="none">
	<path display="inline" fill="#FFFFFF" d="M494.3,63.2c-1.2,0-2.4-0.9-2.4-2.4v-6.3c0-1.2,0.9-2.4,2.4-2.4s2.4,0.9,2.4,2.4v6.3
		C496.7,62,495.5,63.2,494.3,63.2z"/>
</g>
<g display="none">
	<path display="inline" fill="#FFFFFF" d="M232.9,77.6h-92.6c-5.7,0-10.5-4.8-10.5-10.5v-46c0-5.7,4.8-10.5,10.5-10.5h92.6
		c5.7,0,10.5,4.8,10.5,10.5v46C243.5,72.8,238.6,77.6,232.9,77.6z M140.3,15c-3.3,0-6,2.7-6,6v46c0,3.3,2.7,6,6,6h92.6
		c3.3,0,6-2.7,6-6v-46c0-3.3-2.7-6-6-6H140.3z"/>
</g>
<g display="none">
	<rect x="227.5" y="12.6" display="inline" fill="#FFFFFF" width="4.5" height="62.6"/>
</g>
<g display="none">
	<rect x="140.6" y="12.6" display="inline" fill="#FFFFFF" width="4.5" height="62.6"/>
</g>
<g>
	<path fill="#AAAD00" d="M55.8,80H24.2c-4.5,0-8.1-3.6-8.1-8.1V8.1c0-4.5,3.6-8.1,8.1-8.1h31.6c4.5,0,8.1,3.6,8.1,8.1v63.8
		C63.9,76.4,60.3,80,55.8,80z M24.2,4.5c-2.1,0-3.6,1.5-3.6,3.6v63.8c0,1.8,1.5,3.6,3.6,3.6h31.6c1.8,0,3.6-1.5,3.6-3.6V8.1
		c0-1.8-1.5-3.6-3.6-3.6H24.2z"/>
</g>
<g>
	<rect x="18.2" y="68.3" fill="#AAAD00" width="43.3" height="3"/>
</g>
<g>
	<rect x="18.2" y="8.4" fill="#AAAD00" width="43.3" height="3"/>
</g>
<g display="none">
	<path display="inline" fill="#FFFFFF" d="M906.6,81.5c-3.6,0-9.6-1.5-11.4-11.7c-0.3-0.9-5.4-26.2,8.4-49.3
		c5.4-9,12-13.5,20.5-13.5c8.7,0,15.9,5.4,16.5,5.7c0.9,0.6,3,1.5,3.9,1.5h5.4c1.2,0,3-0.6,3.9-1.5l0,0c0,0,7.5-6,16.8-6
		c8.4,0,15.3,4.5,20.5,13.5c13.5,23.2,8.4,48.4,8.4,49.6c-1.5,9.9-7.8,11.4-11.1,11.4c-0.3,0-0.9,0-1.2,0c-1.5,0-6.3-0.6-20.2-19.5
		l-0.3-0.6c-0.6-0.9-2.1-1.5-3.3-1.5h-32.8c-0.9,0-2.4,0.9-3.3,1.5l-0.3,0.6c-13.5,18.9-18,19.2-19.8,19.5
		C907.5,81.5,907.2,81.5,906.6,81.5z M924.4,11.7c-6.6,0-12.3,3.9-16.5,11.1c-12.9,21.7-8.1,45.4-7.8,46.3c0.9,5.7,3.3,8.1,7.5,7.8
		c0.6,0,4.8-1.2,16.5-17.4c0.3-0.3,0.6-0.6,0.6-0.6c1.5-1.8,4.2-3.3,6.6-3.3h32.8c2.4,0,5.1,1.5,6.6,3.3c0,0,0.3,0.3,0.6,0.6
		c12.3,16.8,16.5,17.7,16.8,17.7c4.2,0.3,6.6-2.1,7.5-7.8c0.3-1.2,5.1-24.7-7.8-46.3c-4.5-7.5-9.9-11.1-16.5-11.1
		c-7.5,0-13.8,4.8-13.8,4.8c-1.8,1.2-4.8,2.4-6.9,2.4h-5.4c-2.1,0-5.1-0.9-6.9-2.4C937.9,16.2,931.6,11.7,924.4,11.7z"/>
</g>
<g display="none">
	<path display="inline" fill="#FFFFFF" d="M965.6,48.1c-3,0-5.4-2.4-5.4-5.4s2.4-5.4,5.4-5.4c3,0,5.4,2.4,5.4,5.4
		S968.6,48.1,965.6,48.1z M965.6,39.4c-1.8,0-3,1.5-3,3c0,1.5,1.5,3,3,3c1.8,0,3-1.5,3-3C968.6,40.9,967.4,39.4,965.6,39.4z"/>
</g>
<g display="none">
	<path display="inline" fill="#FFFFFF" d="M965.6,35.2c-3,0-5.4-2.4-5.4-5.4s2.4-5.4,5.4-5.4c3,0,5.4,2.4,5.4,5.4
		S968.6,35.2,965.6,35.2z M965.6,26.8c-1.8,0-3,1.5-3,3s1.5,3,3,3c1.8,0,3-1.5,3-3S967.4,26.8,965.6,26.8z"/>
</g>
<g display="none">
	<path display="inline" fill="#FFFFFF" d="M978.5,41.5c-3,0-5.4-2.4-5.4-5.4s2.4-5.4,5.4-5.4s5.4,2.4,5.4,5.4S981.2,41.5,978.5,41.5
		z M978.5,33.1c-1.8,0-3,1.5-3,3s1.5,3,3,3c1.5,0,3-1.5,3-3S980,33.1,978.5,33.1z"/>
</g>
<g display="none">
	<path display="inline" fill="#FFFFFF" d="M923.5,46c-0.6,0-1.2-0.6-1.2-1.2V27.4c0-0.6,0.6-1.2,1.2-1.2s1.2,0.6,1.2,1.2v17.7
		C924.7,45.7,924.1,46,923.5,46z"/>
</g>
<g display="none">
	<path display="inline" fill="#FFFFFF" d="M932.2,37.3h-17.4c-0.6,0-1.2-0.6-1.2-1.2s0.6-1.2,1.2-1.2h17.4c0.6,0,1.2,0.6,1.2,1.2
		S932.8,37.3,932.2,37.3z"/>
</g>
<g display="none">
	<path display="inline" fill="#FFFFFF" d="M1160.8,20.2h-0.9l-0.6-0.6l-7.2-6.9v-2.1l0.6-0.9c0,0,1.2-1.2,2.4-2.4
		c2.1-2.1,5.7-2.1,7.8,0l1.8,1.8c1.2,0.9,1.8,2.4,1.8,3.9s-0.6,2.7-1.5,3.9l-2.4,2.4C1162,19.8,1161.4,20.2,1160.8,20.2z
		 M1157.4,11.4l2.4,2.4c0.3,0.3,0.6,0.6,0.9,0.9l0.9-0.9c0.3-0.3,0.3-0.3,0.3-0.6s0-0.6-0.3-0.6l-1.8-1.8c-0.6-0.6-0.9-0.6-1.5,0
		L1157.4,11.4z"/>
</g>
<g display="none">
	<path display="inline" fill="#FFFFFF" d="M1137.3,44.5l-9.9-9.6l26.8-26.5l9.9,9.6L1137.3,44.5z M1134,34.9l3.3,3.3l20.5-20.2
		l-3.3-3.3L1134,34.9z"/>
</g>
<g display="none">
	<path display="inline" fill="#FFFFFF" d="M1125.9,48.4c-0.6,0-1.2-0.3-1.5-0.6c-0.6-0.6-0.9-1.5-0.6-2.4l4.8-11.1l4.2,1.8l-2.7,6
		l6.3-2.7l1.8,4.2l-11.4,4.8C1126.5,48.4,1126.2,48.4,1125.9,48.4z"/>
</g>
<g display="none">
	<path display="inline" fill="#FFFFFF" d="M1153.2,78.5h-93.8c-4.5,0-8.4-3.6-8.4-8.4V18.9c0-4.5,3.6-8.4,8.4-8.4h93.8
		c4.5,0,8.4,3.6,8.4,8.4v51.4C1161.4,74.9,1157.7,78.5,1153.2,78.5z M1059.4,15.3c-2.1,0-3.6,1.8-3.6,3.6v51.4
		c0,2.1,1.8,3.6,3.6,3.6h93.8c2.1,0,3.6-1.8,3.6-3.6V18.9c0-2.1-1.8-3.6-3.6-3.6C1153.2,15.3,1059.4,15.3,1059.4,15.3z"/>
</g>
<g display="none">
	<rect x="1069.3" y="12.9" display="inline" fill="#FFFFFF" width="4.5" height="63.5"/>
</g>
<g display="none">
	<path display="inline" fill="#FFFFFF" d="M1299.4,93.5c-0.6,0-1.2,0-1.8,0c-2.7-0.3-4.8-2.4-4.8-5.1c0-0.9,0-2.1,0.3-3l2.4-32.8
		c0-0.9,0-2.1,0.3-3c0.3-3,2.7-5.4,6-5.1c0.3,0,0.6,0,0.6,0l0,0c0.3-2.7,0.6-5.1,0.3-7.8c-0.3-3.3-1.2-6.3-3-8.7
		c-1.2-0.3-2.4-0.9-3.3-1.8c-2.4-2.1-5.4-3.6-9.3-4.5c-3-0.6-6.6-0.9-9.9-0.9c-2.7,0-5.1,0.3-7.5,0.9c-3,0.9-5.4,2.1-7.5,3.6
		c-0.3,0.3-0.6,0.6-0.9,0.6c-0.9,0.9-2.1,1.5-3.3,1.8c-1.5,2.4-2.4,5.1-2.7,8.1c-0.3,2.7-0.3,5.4,0,8.4c0.3,0,0.9,0,1.2,0l0,0
		c3,0,5.1,2.1,5.4,5.1l2.7,38.8c0,1.5-0.3,3-1.2,3.9s-2.4,1.8-3.9,1.8c-6,0.3-11.4-1.2-16.2-4.8c-4.8-3.6-8.1-8.4-9.3-14.1
		c-1.8-8.7,0.3-16.5,6.6-22.9c1.5-1.5,3-2.7,4.8-3.9c-0.6-3.3-0.9-6.9-0.9-10.2c0.3-6,1.8-10.8,4.8-15.3c-0.6-2.4,0.3-4.8,2.1-6.6
		c3-3,6.9-5.1,11.1-6.6c3-1.2,6-1.8,9-2.1c1.2,0,2.1-0.3,3.3-0.3l2.1-0.3h5.4c4.8,0.3,9.3,1.2,13.2,2.7c3.9,1.5,7.5,3.6,10.5,6.6
		c1.8,1.8,2.4,3.9,2.1,6.3c1.8,3,3.3,6,3.9,9.6c0.6,3,0.9,6.6,0.9,9.9c0,2.1-0.3,3.9-0.9,6c2.1,1.2,3.9,2.7,5.7,4.8
		c3,3.3,5.1,7.2,5.7,11.7c2.4,11.7-4.2,23.2-15,27.7C1305.4,92.9,1302.4,93.5,1299.4,93.5z M1300.9,48.7c-0.6,0-0.9,0.3-0.9,0.9
		c0,0.9,0,2.1-0.3,3l-2.4,32.8c0,0.9,0,1.8-0.3,3c0,0.3,0.3,0.6,0.6,0.6c3,0.3,6-0.3,8.7-1.5c9-3.6,14.1-13.2,12.3-22.6
		c-0.6-3.6-2.4-6.9-4.8-9.6c-1.5-1.8-3.6-3.3-5.7-4.5c-1.5-0.6-1.5-2.1-1.5-3c0.6-2.1,0.9-4.2,0.9-6.6c0.3-3,0-6-0.6-8.7
		c-0.6-3.3-2.1-6.3-3.6-8.7c-0.6-0.6-0.6-1.5-0.3-2.4c0.3-1.2,0-1.8-0.6-2.7c-2.4-2.4-5.4-4.2-9-5.4c-3.6-1.5-7.5-2.1-12-2.4h-1.8
		l-4.8,0.3c-1.2,0-2.1,0.3-3.3,0.3c-2.7,0.3-5.4,0.9-8.1,1.8c-3.9,1.5-6.9,3.3-9.6,5.7c-0.9,0.9-1.2,1.5-0.9,2.7
		c0.3,0.9,0,1.8-0.6,2.7c-2.7,3.9-3.9,8.4-4.2,13.5c-0.3,3.3,0,6.9,0.9,10.2c0.3,1.2-0.3,2.4-1.5,3c-1.8,0.9-3.6,2.1-4.8,3.6
		c-5.1,5.4-6.9,11.7-5.4,18.9c0.9,4.8,3.6,8.7,7.5,11.7c3.9,3,8.4,4.2,13.2,3.9c0.3,0,0.6,0,0.6-0.3c0-0.3,0.3-0.3,0.3-0.6
		l-2.7-38.5c0-0.9-0.6-0.9-0.6-0.9c-0.3,0-0.9,0-1.2,0h-0.6c-0.3,0-0.6,0-0.9,0l-2.4,0.3l-0.6-2.4c-0.9-4.2-0.9-8.1-0.6-11.7
		c0.6-4.2,1.8-7.5,3.9-10.5c0.6-0.6,1.2-1.2,2.1-1.2c0.6,0,1.2-0.3,1.5-0.6c0.3-0.3,0.6-0.6,0.9-0.9c2.4-2.1,5.4-3.6,9.3-4.5
		c2.7-0.6,5.4-1.2,8.4-1.2c3.9-0.3,7.8,0,11.1,0.9c4.8,1.2,8.4,3,11.4,5.7c0.3,0.3,0.9,0.6,1.5,0.6c0.9,0,1.5,0.6,2.1,1.2
		c2.1,3.3,3.6,6.9,3.9,11.4c0.3,3,0.3,6-0.3,9c0,0.6-0.3,1.2-0.3,1.5l-0.6,2.7l-3-0.3C1302.1,49,1301.5,48.7,1300.9,48.7
		L1300.9,48.7z"/>
</g>
<g display="none">
	<g display="inline">
		<path fill="#FFFFFF" d="M1408.6,69.8h-1.2c-9.6,0-17.4-7.8-17.4-17.4V23.8c0-9.6,7.8-17.4,17.4-17.4h1.2c9.6,0,17.4,7.8,17.4,17.4
			v28.6C1426,62,1418.2,69.8,1408.6,69.8z M1407.4,10.8c-7.2,0-12.9,5.7-12.9,12.9v28.6c0,7.2,5.7,12.9,12.9,12.9h1.2
			c7.2,0,12.9-5.7,12.9-12.9V23.8c0-7.2-5.7-12.9-12.9-12.9H1407.4z"/>
	</g>
	<g display="inline">
		<path fill="#FFFFFF" d="M1428.4,94.7h-18.3v-22l2.1-0.3c5.4-0.3,9.6-2.4,12.6-6c6.3-7.8,5.4-20.2,5.4-20.2c0-1.2,0.9-2.4,2.1-2.4
			c1.2,0,2.4,0.9,2.4,2.1c0,0.6,1.2,14.4-6.3,23.5c-3.3,4.2-8.1,6.6-13.5,7.5v13.2h13.8c1.2,0,2.4,0.9,2.4,2.4
			S1429.6,94.7,1428.4,94.7z"/>
	</g>
	<g display="inline">
		<path fill="#FFFFFF" d="M1406.2,94.7h-18.3c-1.2,0-2.4-0.9-2.4-2.4c0-1.5,0.9-2.4,2.4-2.4h13.8V76.7c-5.7-0.9-10.2-3.3-13.5-7.5
			c-7.5-9-6.3-22.9-6.3-23.5c0-1.2,1.2-2.1,2.4-2.1c1.2,0,2.1,1.2,2.1,2.4c0,0-1.2,12.6,5.4,20.2c3,3.6,7.2,5.7,12.6,6l2.1,0.3v22.3
			H1406.2z"/>
	</g>
	<g display="inline">
		<path fill="#FFFFFF" d="M1393.2,26.5h8.1c1.5,0,2.7-0.9,2.7-1.8l0,0c0-0.9-1.2-1.8-2.7-1.8h-8.1V26.5z"/>
	</g>
	<g display="inline">
		<path fill="#FFFFFF" d="M1393.2,36.1h8.1c1.5,0,2.7-0.9,2.7-1.8l0,0c0-0.9-1.2-1.8-2.7-1.8h-8.1V36.1z"/>
	</g>
	<g display="inline">
		<path fill="#FFFFFF" d="M1393.2,43.9h8.1c1.5,0,2.7-0.9,2.7-1.8l0,0c0-0.9-1.2-1.8-2.7-1.8h-8.1V43.9z"/>
	</g>
	<g display="inline">
		<path fill="#FFFFFF" d="M1393.2,51.7h8.1c1.5,0,2.7-0.9,2.7-1.8l0,0c0-0.9-1.2-1.8-2.7-1.8h-8.1V51.7z"/>
	</g>
</g>
<g display="none">
	<g display="inline">
		<path fill="#FFFFFF" d="M-65.7,76.4h-97.4c-0.9,0-1.5-0.3-2.1-1.2c-0.3-0.6-0.3-1.5,0-2.4l12.6-21.1V6.6c0-1.2,0.9-2.1,2.4-2.1
			h71.3c1.2,0,2.4,0.9,2.4,2.1V52l12.6,21.1c0.3,0.6,0.3,1.5,0,2.4C-64.2,76.1-64.8,76.4-65.7,76.4z M-159.2,71.9h89.6l-11.1-18
			c-0.3-0.3-0.3-0.9-0.3-1.2V9h-66.8v43.6c0,0.3,0,0.9-0.3,1.2L-159.2,71.9z"/>
	</g>
	<g display="inline">
		<path fill="#FFFFFF" d="M-78.6,55h-71.3c-1.2,0-2.4-0.9-2.4-2.4c0-1.5,0.9-2.4,2.4-2.4h71.3c1.2,0,2.4,0.9,2.4,2.4
			C-76.2,54.1-77.4,55-78.6,55z"/>
	</g>
	<g display="inline">
		<path fill="#FFFFFF" d="M-82.9,65.6h-63.5c-1.2,0-2.4-0.9-2.4-2.4s0.9-2.4,2.4-2.4h63.5c1.2,0,2.4,0.9,2.4,2.4
			S-81.7,65.6-82.9,65.6z"/>
	</g>
	<g display="inline">
		<path fill="#FFFFFF" d="M-134,76.4c-0.3,0-0.9,0-1.2-0.3c-0.9-0.6-1.2-2.1-0.6-3l7.5-11.1c0.6-0.9,2.1-1.2,3-0.6
			c0.9,0.6,1.2,2.1,0.6,3l-7.5,11.1C-132.5,76.1-133.1,76.4-134,76.4z"/>
	</g>
	<g display="inline">
		<path fill="#FFFFFF" d="M-95.8,76.4c-0.6,0-1.5-0.3-1.8-0.9l-7.5-11.1c-0.6-0.9-0.6-2.4,0.6-3c0.9-0.6,2.4-0.6,3,0.6l7.5,11.1
			c0.6,0.9,0.6,2.4-0.6,3C-94.9,76.4-95.5,76.4-95.8,76.4z"/>
	</g>
</g>
<g display="none">
	<circle display="inline" fill="#FFFFFF" cx="39.8" cy="73.4" r="2.1"/>
</g>
<path display="none" fill="none" stroke="#FFFFFF" stroke-width="1.5" stroke-miterlimit="10" d="M-242.9,383.2H-325
	c-3.3,0-6-2.7-6-6v-42.7c0-3.3,2.7-6,6-6h82.1c3.3,0,6,2.7,6,6v42.7C-236.8,380.5-239.5,383.2-242.9,383.2z"/>
<line display="none" fill="none" stroke="#FFFFFF" stroke-width="1.5" stroke-linecap="round" stroke-linejoin="round" stroke-miterlimit="10" x1="-331" y1="373.5" x2="-236.8" y2="373.5"/>
<polyline display="none" fill="none" stroke="#FFFFFF" stroke-width="1.5" stroke-linecap="round" stroke-linejoin="round" stroke-miterlimit="10" points="
	-296.1,385.9 -296.1,392.8 -272,392.8 -272,385.9 "/>
<path display="none" fill="#FFFFFF" d="M-264.2,402.1h-40c-0.9,0-1.5-0.6-1.5-1.5V400c0-0.9,0.6-1.5,1.5-1.5h40
	c0.9,0,1.5,0.6,1.5,1.5v0.6C-262.4,401.2-263.3,402.1-264.2,402.1z"/>
<path display="none" fill="none" stroke="#FFFFFF" stroke-width="1.5" stroke-miterlimit="10" d="M823.6,349.5
	c-2.7-10.5-12-18.3-23.5-18.3c-10.2,0-18.6,6.3-22.3,15c-2.1-1.8-4.8-3-7.8-3c-6.6,0-12,5.4-12,12c0,0.3,0,0.6,0,1.2
	c-7.2,2.4-12,9.6-12,17.4c0,9.9,8.1,18.6,18,18.6h57.4c11.7,0,21.1-9.9,21.1-21.7C842.6,360,834.1,350.7,823.6,349.5z"/>
<g display="none">
	<path display="inline" fill="none" stroke="#FFFFFF" stroke-width="1.5" stroke-miterlimit="10" d="M402.3,337.1H383l-1.5-7.2
		c-0.3-1.2-1.8-2.4-3-2.4h-25c-1.2,0-2.7,1.2-2.7,2.4l-1.2,7.2h-2.4c-3.3,0-9.6,7.8-24.1,7.8v0.3c0,0,0,1.2,0,2.7v45.4
		c0,1.2,1.2,1.5,2.4,1.5h76.7c1.2,0,2.4,0,2.4-1.5v-52.6C404.7,339.2,403.8,337.1,402.3,337.1z"/>
	
		<line display="inline" fill="none" stroke="#FFFFFF" stroke-width="1.5" stroke-miterlimit="10" x1="321.1" y1="337.1" x2="330.7" y2="337.1"/>
	<circle display="inline" fill="none" stroke="#FFFFFF" stroke-width="1.5" stroke-miterlimit="10" cx="366.5" cy="366" r="19.2"/>
</g>
<polyline display="none" fill="none" stroke="#FFFFFF" stroke-width="1.5" stroke-linecap="round" stroke-miterlimit="10" points="
	683.2,352.5 683.2,395.5 626,395.5 626,339.8 669,339.8 "/>
<polyline display="none" fill="none" stroke="#FFFFFF" stroke-width="1.5" stroke-linecap="round" stroke-linejoin="round" stroke-miterlimit="10" points="
	650.1,373.5 696.4,327.2 696.4,350.4 "/>
<line display="none" fill="none" stroke="#FFFFFF" stroke-width="1.5" stroke-linecap="round" stroke-linejoin="round" stroke-miterlimit="10" x1="696.4" y1="327.2" x2="671.4" y2="327.2"/>
<path display="none" fill="none" stroke="#FFFFFF" stroke-width="1.5" stroke-miterlimit="10" d="M552.6,394h-73.1
	c-4.2,0-6.9-2.4-6.9-5.7v-23.8c0-0.3,0-0.6,0.3-0.6l10.5-22.6c0.3-0.6,0.6-0.9,0.9-1.5c1.2-2.1,2.7-4.8,6-4.8h52.3
	c3.3,0,4.8,2.7,6,4.8c0.3,0.3,0.3,0.9,0.6,1.2l10.5,22.9c0,0.3,0.3,0.6,0.3,0.6v23.8C559.5,391.9,556.8,394,552.6,394z"/>
<line display="none" fill="none" stroke="#FFFFFF" stroke-width="1.5" stroke-miterlimit="10" x1="472.3" y1="364.5" x2="559.5" y2="364.5"/>
<line display="none" fill="none" stroke="#FFFFFF" stroke-width="1.5" stroke-linecap="round" stroke-miterlimit="10" x1="484.7" y1="376.2" x2="484.7" y2="382.6"/>
<line display="none" fill="none" stroke="#FFFFFF" stroke-width="1.5" stroke-linecap="round" stroke-miterlimit="10" x1="494.3" y1="376.2" x2="494.3" y2="382.6"/>
<path display="none" fill="none" stroke="#FFFFFF" stroke-width="1.5" stroke-miterlimit="10" d="M241.1,342.9v46
	c0,4.5-3.6,8.4-8.4,8.4h-92.3c-4.5,0-8.4-3.6-8.4-8.4v-46c0-4.5,3.6-8.4,8.4-8.4h92.6C237.4,334.4,241.1,338.3,241.1,342.9z"/>
<line display="none" fill="none" stroke="#FFFFFF" stroke-width="1.5" stroke-miterlimit="10" x1="229.9" y1="334.4" x2="229.9" y2="397.3"/>
<line display="none" fill="none" stroke="#FFFFFF" stroke-width="1.5" stroke-miterlimit="10" x1="143" y1="334.4" x2="143" y2="397.3"/>
<path display="none" fill="none" stroke="#FFFFFF" stroke-width="1.5" stroke-miterlimit="10" d="M55.8,399.4H24.2
	c-3.3,0-5.7-2.7-5.7-5.7v-63.8c0-3.3,2.7-5.7,5.7-5.7h31.6c3.3,0,5.7,2.7,5.7,5.7v63.8C61.5,397,59.1,399.4,55.8,399.4z"/>
<line display="none" fill="none" stroke="#FFFFFF" stroke-miterlimit="10" x1="61.5" y1="391.6" x2="18.2" y2="391.6"/>
<line display="none" fill="none" stroke="#FFFFFF" stroke-miterlimit="10" x1="61.5" y1="331.7" x2="18.2" y2="331.7"/>
<path display="none" fill="none" stroke="#FFFFFF" stroke-width="1.5" stroke-miterlimit="10" d="M989.6,343.5
	c-4.8-8.1-11.1-12.3-18.6-12.3c-8.4,0-15.3,5.4-15.3,5.4c-1.2,0.9-3.9,1.8-5.4,1.8h-5.4c-1.5,0-4.2-0.9-5.4-1.8
	c-0.3-0.3-6.9-5.4-15.3-5.4c-7.5,0-13.8,4.2-18.6,12.3c-13.2,22.6-8.1,46.9-8.1,47.8c1.2,8.1,5.7,9.6,9,9.6c0.3,0,0.6,0,0.9,0
	c5.7-0.6,18-18.3,18.6-18.9c1.2-1.2,3.3-2.4,4.8-2.4h32.8c1.5,0,3.9,1.2,4.8,2.4c0.6,0.6,13.2,18.6,18.9,19.2c0.3,0,0.6,0,0.9,0
	c3.3,0,7.8-1.8,9-9.6C997.7,391.3,1003.2,366.3,989.6,343.5z"/>
<path display="none" fill="none" stroke="#FFFFFF" stroke-width="0.75" stroke-linecap="round" stroke-linejoin="round" stroke-miterlimit="10" d="
	M965.6,368.7c-2.4,0-4.2-1.8-4.2-4.2c0-2.4,1.8-4.2,4.2-4.2c2.4,0,4.2,1.8,4.2,4.2C969.8,366.9,968,368.7,965.6,368.7z"/>
<path display="none" fill="none" stroke="#FFFFFF" stroke-width="0.75" stroke-linecap="round" stroke-linejoin="round" stroke-miterlimit="10" d="
	M965.6,356.1c-2.4,0-4.2-1.8-4.2-4.2c0-2.4,1.8-4.2,4.2-4.2c2.4,0,4.2,1.8,4.2,4.2C969.8,354.3,968,356.1,965.6,356.1z"/>
<circle display="none" fill="none" stroke="#FFFFFF" stroke-width="0.75" stroke-linecap="round" stroke-linejoin="round" stroke-miterlimit="10" cx="978.5" cy="358.2" r="4.2"/>
<line display="none" fill="none" stroke="#FFFFFF" stroke-width="0.75" stroke-linecap="round" stroke-linejoin="round" stroke-miterlimit="10" x1="923.5" y1="349.5" x2="923.5" y2="366.9"/>
<line display="none" fill="none" stroke="#FFFFFF" stroke-width="0.75" stroke-linecap="round" stroke-linejoin="round" stroke-miterlimit="10" x1="914.7" y1="358.2" x2="932.2" y2="358.2"/>
<path display="none" fill="none" stroke="#FFFFFF" stroke-width="1.5" stroke-miterlimit="10" d="M1161.4,330.8
	c-1.2-1.2-3.3-1.2-4.8,0c-1.2,1.2-2.4,2.4-2.4,2.4v0.3c0,0,1.2,1.2,2.4,2.4l1.5,1.5c1.2,1.2,2.4,2.4,2.4,2.4h0.3
	c0,0,1.2-1.2,2.4-2.4c1.2-1.2,1.2-3.3,0-4.5L1161.4,330.8z"/>
<polygon display="none" fill="none" stroke="#FFFFFF" stroke-width="1.5" stroke-miterlimit="10" points="1154.1,333.5 
	1130.7,356.7 1137.3,363.3 1160.8,339.8 "/>
<polyline display="none" fill="none" stroke="#FFFFFF" stroke-width="1.5" stroke-linejoin="round" stroke-miterlimit="10" points="
	1130.7,357 1125.9,368.1 1125.9,368.1 1137.3,363.3 "/>
<path display="none" fill="none" stroke="#FFFFFF" stroke-width="1.5" stroke-linejoin="round" stroke-miterlimit="10" d="
	M1153.2,398.2h-93.8c-3.3,0-6-2.7-6-6v-51.4c0-3.3,2.7-6,6-6h93.8c3.3,0,6,2.7,6,6v51.4C1159.2,395.5,1156.5,398.2,1153.2,398.2z"/>
<line display="none" fill="none" stroke="#FFFFFF" stroke-width="1.5" stroke-miterlimit="10" x1="1071.4" y1="398.2" x2="1071.4" y2="334.7"/>
<path display="none" fill="none" stroke="#FFFFFF" stroke-width="1.5" stroke-miterlimit="10" d="M1280.2,330.2c0.6,0,1.2,0,1.8,0
	c4.2,0.3,8.4,0.9,12.6,2.7c3.6,1.5,6.9,3.3,9.6,6c1.5,1.5,1.8,3,1.2,4.8c0,0.3,0,0.3,0,0.6c2.1,3,3.3,6,3.9,9.6
	c0.6,3,0.9,6.3,0.6,9.3c0,2.4-0.6,4.8-0.9,6.9c0,0.3,0,0.3,0.3,0.3c2.4,1.2,4.5,3,6.3,4.8c2.7,3,4.5,6.6,5.4,10.5
	c2.1,10.5-3.6,21.1-13.5,25.3c-3.3,1.2-6.3,1.8-9.9,1.5c-1.5,0-2.7-1.2-2.7-3c0-1.2,0-2.7,0.3-3.9c0.3-2.4,0.3-4.5,0.6-6.9
	c0.3-2.7,0.3-5.4,0.6-7.8c0.3-2.7,0.3-5.1,0.6-7.8c0.3-2.7,0.3-5.4,0.6-7.8c0-1.5,0.3-3,0.3-4.5c0-1.8,1.5-3,3.3-3
	c0.9,0,1.8,0.3,2.7,0.3c0-0.6,0.3-1.5,0.3-2.1c0.3-2.7,0.6-5.4,0.3-8.4c-0.3-3.6-1.5-7.2-3.6-10.5l-0.3-0.3c-0.9,0-1.8-0.6-2.7-1.2
	c-3-2.7-6.3-4.2-10.2-5.1c-3.6-0.9-7.2-0.9-10.5-0.9c-2.7,0-5.4,0.3-7.8,1.2c-3,0.9-6,2.1-8.4,4.2c-0.3,0.3-0.6,0.6-0.9,0.9
	c-0.9,0.6-1.8,1.2-2.7,1.2c-0.3,0-0.3,0.3-0.3,0.3c-2.1,3-3,6.3-3.6,9.6c-0.6,3.6-0.3,7.5,0.6,11.1c0,0,0,0,0,0.3
	c0.3,0,0.9,0,1.2-0.3c0.6,0,1.2-0.3,2.1-0.3c1.8,0,3,1.2,3,3c0.3,4.5,0.6,9,0.9,13.5c0.3,3.6,0.6,7.2,0.6,11.1
	c0.3,3.9,0.6,8.1,0.9,12c0,0.6,0,1.5,0,2.1c0,1.8-1.2,3.3-3,3.3c-5.4,0.3-10.2-1.2-14.7-4.5s-7.2-7.5-8.4-12.9
	c-1.8-8.1,0.3-15,6-21.1c1.5-1.5,3.3-3,5.4-3.9c0.3,0,0.3-0.3,0.3-0.6c-0.9-3.6-1.2-7.2-0.9-10.8c0.3-5.4,1.8-10.2,4.5-14.7
	c0.3-0.3,0.3-0.6,0.3-0.9c-0.3-1.8,0-3.6,1.5-4.8c3-2.7,6.6-4.8,10.2-6.3c2.7-0.9,5.7-1.8,8.7-2.1c1.5-0.3,3.3-0.3,4.8-0.3h0.3
	C1278,330.2,1279.2,330.2,1280.2,330.2z"/>
<g display="none">
	<path display="inline" fill="none" stroke="#FFFFFF" stroke-width="1.5" stroke-miterlimit="10" d="M1408.6,389.2h-1.2
		c-8.4,0-15-6.9-15-15v-28.6c0-8.4,6.9-15,15-15h1.2c8.4,0,15,6.9,15,15v28.6C1423.9,382.6,1417,389.2,1408.6,389.2z"/>
	<path display="inline" fill="none" stroke="#FFFFFF" stroke-width="1.5" stroke-linecap="round" stroke-miterlimit="10" d="
		M1432,368.1c0,0,2.7,27.1-19.8,28.6v17.4h16.2"/>
	<path display="inline" fill="none" stroke="#FFFFFF" stroke-width="1.5" stroke-linecap="round" stroke-miterlimit="10" d="
		M1383.9,368.1c0,0-2.7,27.1,19.8,28.6v17.4h-16.2"/>
	<path display="inline" fill="#FFFFFF" d="M1393.2,348.3h8.1c1.5,0,2.7-0.9,2.7-1.8l0,0c0-0.9-1.2-1.8-2.7-1.8h-8.1V348.3z"/>
	<path display="inline" fill="#FFFFFF" d="M1393.2,357.9h8.1c1.5,0,2.7-0.9,2.7-1.8l0,0c0-0.9-1.2-1.8-2.7-1.8h-8.1V357.9z"/>
	<path display="inline" fill="#FFFFFF" d="M1393.2,366h8.1c1.5,0,2.7-0.9,2.7-1.8l0,0c0-0.9-1.2-1.8-2.7-1.8h-8.1V366z"/>
	<path display="inline" fill="#FFFFFF" d="M1393.2,373.5h8.1c1.5,0,2.7-0.9,2.7-1.8l0,0c0-0.9-1.2-1.8-2.7-1.8h-8.1V373.5z"/>
</g>
<g display="none">
	
		<polygon display="inline" fill="none" stroke="#FFFFFF" stroke-width="1.5" stroke-linecap="round" stroke-linejoin="round" stroke-miterlimit="10" points="
		-78.6,374.4 -78.6,328.7 -113.2,328.7 -115.6,328.7 -150.2,328.7 -150.2,374.4 -163.2,396.1 -115.6,396.1 -113.2,396.1 
		-65.7,396.1 	"/>
	
		<line display="inline" fill="none" stroke="#FFFFFF" stroke-width="1.5" stroke-linecap="round" stroke-linejoin="round" stroke-miterlimit="10" x1="-150.2" y1="374.4" x2="-78.6" y2="374.4"/>
	
		<line display="inline" fill="none" stroke="#FFFFFF" stroke-width="1.5" stroke-linecap="round" stroke-linejoin="round" stroke-miterlimit="10" x1="-146" y1="385" x2="-82.9" y2="385"/>
	
		<line display="inline" fill="none" stroke="#FFFFFF" stroke-width="1.5" stroke-linecap="round" stroke-linejoin="round" stroke-miterlimit="10" x1="-126.2" y1="385" x2="-134" y2="396.1"/>
	
		<line display="inline" fill="none" stroke="#FFFFFF" stroke-width="1.5" stroke-linecap="round" stroke-linejoin="round" stroke-miterlimit="10" x1="-103.3" y1="385" x2="-95.8" y2="396.1"/>
</g>
<circle display="none" fill="#FFFFFF" cx="39.8" cy="395.2" r="2.1"/>
</svg>
