<?xml version="1.0" encoding="utf-8"?>
<!-- Generator: Adobe Illustrator 18.0.0, SVG Export Plug-In . SVG Version: 6.00 Build 0)  -->
<!DOCTYPE svg PUBLIC "-//W3C//DTD SVG 1.1//EN" "http://www.w3.org/Graphics/SVG/1.1/DTD/svg11.dtd">
<svg version="1.1" id="Layer_1" xmlns="http://www.w3.org/2000/svg" xmlns:xlink="http://www.w3.org/1999/xlink" x="0px" y="0px"
	 viewBox="0 0 37.8 22.3" enable-background="new 0 0 37.8 22.3" xml:space="preserve">
<rect x="-220.4" y="-30.3" display="none" fill="#010101" width="847.9" height="196"/>
<path display="none" fill="none" stroke="#FFFFFF" stroke-miterlimit="10" d="M-33,77.2h-118c-7.6,0-13.8-6.2-13.8-13.8v0
	c0-7.6,6.2-13.8,13.8-13.8h118c7.6,0,13.8,6.2,13.8,13.8v0C-19.1,71-25.4,77.2-33,77.2z"/>
<g display="none">
	
		<text transform="matrix(1 0 0 1 -132.4449 67.2714)" display="inline" fill="#FFFFFF" font-family="'HelveticaNeue-Light'" font-size="9.4843">TEXT IN ALL CAPS</text>
</g>
<g display="none">
	<g display="inline">
		<path fill="#FFFFFF" d="M24.9,88.1C11.3,88.1,0.2,77,0.2,63.4s11.1-24.7,24.7-24.7c13.6,0,24.7,11.1,24.7,24.7
			S38.6,88.1,24.9,88.1z M24.9,39.7c-13.1,0-23.7,10.6-23.7,23.7s10.6,23.7,23.7,23.7s23.7-10.6,23.7-23.7S38,39.7,24.9,39.7z"/>
	</g>
	<g display="inline">
		
			<rect x="24.5" y="51.1" transform="matrix(0.7071 0.7071 -0.7071 0.7071 52.0964 0.8786)" fill="#FFFFFF" width="1" height="24.5"/>
	</g>
	<g display="inline">
		
			<rect x="12.7" y="62.8" transform="matrix(0.7071 0.7071 -0.7071 0.7071 52.0982 0.8793)" fill="#FFFFFF" width="24.5" height="1"/>
	</g>
</g>
<g display="none">
	<text transform="matrix(1 0 0 1 511.765 -1.8157)" display="inline"><tspan x="0" y="0" fill="#FFFFFF" font-family="'HelveticaNeue-Light'" font-size="9.4843">LAPTOP</tspan><tspan x="0" y="11.4" fill="#FFFFFF" font-family="'HelveticaNeue-Light'" font-size="9.4843">SMARTPHONE</tspan><tspan x="0" y="22.8" fill="#FFFFFF" font-family="'HelveticaNeue-Light'" font-size="9.4843">TABLET</tspan><tspan x="0" y="34.1" fill="#FFFFFF" font-family="'HelveticaNeue-Light'" font-size="9.4843">HARD DRIVE</tspan><tspan x="0" y="45.5" fill="#FFFFFF" font-family="'HelveticaNeue-Light'" font-size="9.4843">CLOUD STORAGE</tspan><tspan x="0" y="56.9" fill="#FFFFFF" font-family="'HelveticaNeue-Light'" font-size="9.4843">DSLR</tspan><tspan x="0" y="68.3" fill="#FFFFFF" font-family="'HelveticaNeue-Light'" font-size="9.4843">GAME CONTROLLER</tspan><tspan x="0" y="79.7" fill="#FFFFFF" font-family="'HelveticaNeue-Light'" font-size="9.4843">WACOM PEN</tspan><tspan x="0" y="91" fill="#FFFFFF" font-family="'HelveticaNeue-Light'" font-size="9.4843">HEADPHONES</tspan><tspan x="0" y="102.4" fill="#FFFFFF" font-family="'HelveticaNeue-Light'" font-size="9.4843">MIC</tspan></text>
</g>
<g display="none">
	<path display="inline" fill="#FFFFFF" d="M-123.9,17.6h-27.3c-1.5,0-2.8-1.2-2.8-2.7V0.7c0-1.5,1.2-2.8,2.8-2.8h27.3
		c1.5,0,2.8,1.2,2.8,2.8v14.2C-121.1,16.4-122.4,17.6-123.9,17.6z M-151.2-0.6c-0.7,0-1.2,0.6-1.2,1.2v14.2c0,0.7,0.6,1.2,1.2,1.2
		h27.3c0.7,0,1.2-0.6,1.2-1.2V0.7c0-0.7-0.6-1.2-1.2-1.2H-151.2z"/>
</g>
<g display="none">
	<path display="inline" fill="#FFFFFF" d="M-121.9,14.5h-31.3c-0.4,0-0.8-0.3-0.8-0.8s0.3-0.8,0.8-0.8h31.3c0.4,0,0.8,0.3,0.8,0.8
		S-121.5,14.5-121.9,14.5z"/>
</g>
<g display="none">
	<path display="inline" fill="#FFFFFF" d="M-133.6,20.8h-8c-0.4,0-0.8-0.3-0.8-0.8v-2.2c0-0.4,0.3-0.8,0.8-0.8s0.8,0.3,0.8,0.8v1.5
		h6.5v-1.5c0-0.4,0.3-0.8,0.8-0.8s0.8,0.3,0.8,0.8v2.2C-132.8,20.5-133.1,20.8-133.6,20.8z"/>
</g>
<g display="none">
	<path display="inline" fill="#FFFFFF" d="M-130.9,23.2h-13.3c-0.3,0-0.5-0.2-0.5-0.5v-0.2c0-0.3,0.2-0.5,0.5-0.5h13.3
		c0.3,0,0.5,0.2,0.5,0.5v0.2C-130.4,23-130.6,23.2-130.9,23.2z"/>
</g>
<g display="none">
	<path display="inline" fill="#FFFFFF" d="M230,20.8H211c-3.7,0-6.8-3.2-6.8-6.9c0-2.7,1.6-5.2,4-6.3c0.1-2.6,2.2-4.6,4.8-4.6
		c0.8,0,1.6,0.2,2.3,0.6c1.5-2.8,4.5-4.6,7.7-4.6c3.9,0,7.2,2.5,8.4,6.2c3.6,0.6,6.4,4,6.4,7.8C237.8,17.2,234.2,20.8,230,20.8z
		 M213,4.4c-1.8,0-3.3,1.5-3.3,3.3c0,0,0,0.1,0,0.1l0.1,0.7l-0.6,0.2c-2.1,0.7-3.5,2.8-3.5,5.1c0,2.9,2.4,5.4,5.3,5.4H230
		c3.4,0,6.3-2.9,6.3-6.4c0-3.2-2.5-6-5.6-6.4l-0.5-0.1L230,5.9c-0.8-3.3-3.7-5.5-7-5.5c-3,0-5.6,1.8-6.7,4.5l-0.4,1l-0.8-0.7
		C214.5,4.7,213.7,4.4,213,4.4z"/>
</g>
<g display="none">
	<g display="inline">
		<path fill="#FFFFFF" d="M90.7,21.5H65.2c-1.3,0-1.5-0.7-1.5-1.2V3.5l0.8-0.1c3,0,4.9-1.1,6.1-1.8c0.7-0.4,1.3-0.7,1.8-0.7h0.2
			l0.3-1.8c0.1-0.8,0.9-1.4,1.7-1.4h8.3c0.8,0,1.5,0.6,1.7,1.3l0.4,1.9h5.8c0.9,0,1.5,1.1,1.5,1.9v17.5C92.2,20.8,92,21.5,90.7,21.5
			z M65.2,20C65.2,20,65.2,20,65.2,20h25.5c0,0,0,0,0,0V2.7c0-0.1-0.1-0.3-0.2-0.4h-6.9l-0.6-3c0-0.1-0.2-0.2-0.3-0.2h-8.3
			c-0.1,0-0.2,0.1-0.2,0.2l-0.5,3h-1.4c-0.2,0-0.7,0.3-1.1,0.5c-1.2,0.7-3.1,1.8-6.1,2V20z"/>
	</g>
	<g display="inline">
		<rect x="63.6" y="0.9" fill="#FFFFFF" width="3.2" height="1.5"/>
	</g>
	<g display="inline">
		<path fill="#FFFFFF" d="M78.7,18.3c-3.9,0-7.1-3.2-7.1-7.1c0-3.9,3.2-7.1,7.1-7.1s7.1,3.2,7.1,7.1C85.9,15.1,82.7,18.3,78.7,18.3z
			 M78.7,5.6c-3.1,0-5.6,2.5-5.6,5.6c0,3.1,2.5,5.6,5.6,5.6s5.6-2.5,5.6-5.6C84.4,8.1,81.8,5.6,78.7,5.6z"/>
	</g>
</g>
<g display="none">
	<path display="inline" fill="#FFFFFF" d="M184.8,21.8h-20.5v-20h15c0.4,0,0.8,0.3,0.8,0.7s-0.3,0.8-0.8,0.8h-13.5v17h17.5V6.8
		c0-0.4,0.3-0.8,0.8-0.8s0.8,0.3,0.8,0.8V21.8z"/>
</g>
<g display="none">
	<path display="inline" fill="#FFFFFF" d="M173.1,14.4c-0.2,0-0.4-0.1-0.5-0.2c-0.3-0.3-0.3-0.8,0-1.1L188-2.3
		c0.2-0.2,0.5-0.3,0.8-0.2c0.3,0.1,0.5,0.4,0.5,0.7V6c0,0.4-0.3,0.8-0.8,0.8s-0.8-0.3-0.8-0.8V0.1l-14.1,14.1
		C173.5,14.4,173.3,14.4,173.1,14.4z"/>
</g>
<g display="none">
	<path display="inline" fill="#FFFFFF" d="M188.5-1h-8.4c-0.4,0-0.8-0.3-0.8-0.8s0.3-0.8,0.8-0.8h8.4c0.4,0,0.8,0.3,0.8,0.8
		S188.9-1,188.5-1z"/>
</g>
<g display="none">
	<path display="inline" fill="#FFFFFF" d="M140.7,21.3h-24.3c-1.8,0-3.1-1.1-3.1-2.7v-7.9c0-0.2,0-0.4,0.1-0.6l3.5-7.5
		c0.1-0.3,0.2-0.4,0.3-0.5c0.4-0.7,1.1-2,2.6-2h17.4c1.6,0,2.3,1.3,2.7,2c0.1,0.2,0.2,0.3,0.2,0.4l3.5,7.7c0.1,0.2,0.1,0.4,0.1,0.6
		v7.9C143.7,20.2,142.5,21.3,140.7,21.3z M119.8,1.6c-0.6,0-0.9,0.5-1.3,1.2c-0.1,0.2-0.2,0.3-0.3,0.5l-3.4,7.5l0,7.8
		c0,1.1,1.1,1.2,1.6,1.2h24.3c0.5,0,1.6-0.1,1.6-1.2v-7.9l-3.5-7.5c0,0-0.1-0.2-0.2-0.3c-0.5-0.8-0.8-1.3-1.4-1.3H119.8z"/>
</g>
<g display="none">
	<rect x="114" y="9.9" display="inline" fill="#FFFFFF" width="29" height="1.5"/>
</g>
<g display="none">
	<path display="inline" fill="#FFFFFF" d="M118,17.5c-0.4,0-0.8-0.3-0.8-0.8v-2.1c0-0.4,0.3-0.8,0.8-0.8s0.8,0.3,0.8,0.8v2.1
		C118.8,17.2,118.4,17.5,118,17.5z"/>
</g>
<g display="none">
	<path display="inline" fill="#FFFFFF" d="M121.3,17.5c-0.4,0-0.8-0.3-0.8-0.8v-2.1c0-0.4,0.3-0.8,0.8-0.8s0.8,0.3,0.8,0.8v2.1
		C122,17.2,121.7,17.5,121.3,17.5z"/>
</g>
<g>
	<path fill="#FFFFFF" d="M34.3,22.3H3.5c-1.9,0-3.5-1.6-3.5-3.5V3.5C0,1.6,1.6,0,3.5,0h30.8c1.9,0,3.5,1.6,3.5,3.5v15.3
		C37.8,20.8,36.3,22.3,34.3,22.3z M3.5,1.5c-1.1,0-2,0.9-2,2v15.3c0,1.1,0.9,2,2,2h30.8c1.1,0,2-0.9,2-2V3.5c0-1.1-0.9-2-2-2H3.5z"
		/>
</g>
<g>
	<rect x="32.6" y="0.8" fill="#FFFFFF" width="1.5" height="20.8"/>
</g>
<g>
	<rect x="3.7" y="0.8" fill="#FFFFFF" width="1.5" height="20.8"/>
</g>
<g display="none">
	<path display="inline" fill="#FFFFFF" d="M-24.5,23.1h-10.5c-1.5,0-2.7-1.2-2.7-2.7V-0.8c0-1.5,1.2-2.7,2.7-2.7h10.5
		c1.5,0,2.7,1.2,2.7,2.7v21.2C-21.9,21.9-23.1,23.1-24.5,23.1z M-35.1-2c-0.6,0-1.2,0.5-1.2,1.2v21.2c0,0.6,0.5,1.2,1.2,1.2h10.5
		c0.6,0,1.2-0.5,1.2-1.2V-0.8c0-0.6-0.5-1.2-1.2-1.2H-35.1z"/>
</g>
<g display="none">
	<rect x="-37" y="19.2" display="inline" fill="#FFFFFF" width="14.4" height="1"/>
</g>
<g display="none">
	<rect x="-37" y="-0.7" display="inline" fill="#FFFFFF" width="14.4" height="1"/>
</g>
<g display="none">
	<path display="inline" fill="#FFFFFF" d="M258.4,23.6c-1.2,0-3.2-0.5-3.8-3.9c-0.1-0.3-1.8-8.7,2.8-16.4c1.8-3,4-4.5,6.8-4.5
		c2.9,0,5.3,1.8,5.5,1.9c0.3,0.2,1,0.5,1.3,0.5h1.8c0.4,0,1-0.2,1.3-0.5l0,0c0,0,2.5-2,5.6-2c2.8,0,5.1,1.5,6.8,4.5
		c4.5,7.7,2.8,16.1,2.8,16.5c-0.5,3.3-2.6,3.8-3.7,3.8c-0.1,0-0.3,0-0.4,0c-0.5,0-2.1-0.2-6.7-6.5l-0.1-0.2
		c-0.2-0.3-0.7-0.5-1.1-0.5l-10.9,0c-0.3,0-0.8,0.3-1.1,0.5l-0.1,0.2c-4.5,6.3-6,6.4-6.6,6.5C258.7,23.6,258.5,23.6,258.4,23.6z
		 M264.2,0.4c-2.2,0-4.1,1.3-5.5,3.7c-4.3,7.2-2.7,15.1-2.6,15.4c0.3,1.9,1.1,2.7,2.5,2.6c0.2,0,1.6-0.4,5.5-5.8
		c0.1-0.1,0.2-0.2,0.2-0.2c0.5-0.6,1.4-1.1,2.2-1.1l10.9,0c0.8,0,1.7,0.5,2.2,1.1c0,0,0.1,0.1,0.2,0.2c4.1,5.6,5.5,5.9,5.6,5.9
		c1.4,0.1,2.2-0.7,2.5-2.6c0.1-0.4,1.7-8.2-2.6-15.4c-1.5-2.5-3.3-3.7-5.5-3.7c-2.5,0-4.6,1.6-4.6,1.6c-0.6,0.4-1.6,0.8-2.3,0.8
		h-1.8c-0.7,0-1.7-0.3-2.3-0.8C268.8,1.9,266.7,0.4,264.2,0.4z"/>
</g>
<g display="none">
	<path display="inline" fill="#FFFFFF" d="M278,12.5c-1,0-1.8-0.8-1.8-1.8c0-1,0.8-1.8,1.8-1.8c1,0,1.8,0.8,1.8,1.8
		C279.7,11.7,278.9,12.5,278,12.5z M278,9.7c-0.6,0-1,0.5-1,1s0.5,1,1,1c0.6,0,1-0.5,1-1S278.5,9.7,278,9.7z"/>
</g>
<g display="none">
	<path display="inline" fill="#FFFFFF" d="M278,8.2c-1,0-1.8-0.8-1.8-1.8c0-1,0.8-1.8,1.8-1.8c1,0,1.8,0.8,1.8,1.8
		C279.7,7.4,278.9,8.2,278,8.2z M278,5.4c-0.6,0-1,0.5-1,1s0.5,1,1,1c0.6,0,1-0.5,1-1S278.5,5.4,278,5.4z"/>
</g>
<g display="none">
	<path display="inline" fill="#FFFFFF" d="M282.2,10.4c-1,0-1.8-0.8-1.8-1.8s0.8-1.8,1.8-1.8c1,0,1.8,0.8,1.8,1.8
		S283.2,10.4,282.2,10.4z M282.2,7.5c-0.6,0-1,0.5-1,1s0.5,1,1,1s1-0.5,1-1S282.8,7.5,282.2,7.5z"/>
</g>
<g display="none">
	<path display="inline" fill="#FFFFFF" d="M264,11.9c-0.2,0-0.4-0.2-0.4-0.4V5.7c0-0.2,0.2-0.4,0.4-0.4s0.4,0.2,0.4,0.4v5.8
		C264.3,11.7,264.2,11.9,264,11.9z"/>
</g>
<g display="none">
	<path display="inline" fill="#FFFFFF" d="M266.9,8.9h-5.8c-0.2,0-0.4-0.2-0.4-0.4s0.2-0.4,0.4-0.4h5.8c0.2,0,0.4,0.2,0.4,0.4
		S267.1,8.9,266.9,8.9z"/>
</g>
<g display="none">
	<path display="inline" fill="#FFFFFF" d="M342.9,3.2h-0.3L342.3,3L340,0.7l0-0.7l0.2-0.3c0,0,0.4-0.4,0.8-0.8
		c0.7-0.7,1.9-0.7,2.6,0l0.6,0.6c0.4,0.3,0.6,0.8,0.6,1.3c0,0.5-0.2,0.9-0.5,1.3l-0.8,0.8C343.3,3.1,343.1,3.2,342.9,3.2z
		 M341.7,0.4l0.8,0.8c0.1,0.1,0.2,0.2,0.3,0.3l0.3-0.3c0.1-0.1,0.1-0.1,0.1-0.2c0-0.1,0-0.2-0.1-0.2l-0.6-0.6
		c-0.2-0.2-0.3-0.2-0.5,0L341.7,0.4z"/>
</g>
<g display="none">
	<path display="inline" fill="#FFFFFF" d="M335.1,11.4l-3.3-3.2l8.9-8.8l3.3,3.2L335.1,11.4z M333.9,8.2l1.1,1.1l6.8-6.7l-1.1-1.1
		L333.9,8.2z"/>
</g>
<g display="none">
	<path display="inline" fill="#FFFFFF" d="M331.3,12.6c-0.2,0-0.4-0.1-0.5-0.2c-0.2-0.2-0.3-0.5-0.2-0.8l1.6-3.7l1.4,0.6l-0.9,2
		l2.1-0.9l0.6,1.4l-3.8,1.6C331.5,12.6,331.4,12.6,331.3,12.6z"/>
</g>
<g display="none">
	<path display="inline" fill="#FFFFFF" d="M340.4,22.7h-31.2c-1.5,0-2.8-1.2-2.8-2.8V2.9c0-1.5,1.2-2.8,2.8-2.8h31.2
		c1.5,0,2.8,1.2,2.8,2.8v17.1C343.1,21.4,341.9,22.7,340.4,22.7z M309.1,1.6c-0.7,0-1.2,0.6-1.2,1.2v17.1c0,0.7,0.6,1.2,1.2,1.2
		h31.2c0.7,0,1.2-0.6,1.2-1.2V2.9c0-0.7-0.6-1.2-1.2-1.2H309.1z"/>
</g>
<g display="none">
	<rect x="312.4" y="0.9" display="inline" fill="#FFFFFF" width="1.5" height="21.1"/>
</g>
<g display="none">
	<path display="inline" fill="#FFFFFF" d="M388.9,27.6c-0.2,0-0.4,0-0.6,0c-0.9-0.1-1.6-0.8-1.6-1.7c0-0.3,0-0.7,0.1-1l0.8-10.9
		c0-0.3,0-0.7,0.1-1c0.1-1,0.9-1.8,2-1.7c0.1,0,0.2,0,0.2,0c0,0,0,0,0,0c0.1-0.9,0.2-1.7,0.1-2.6c-0.1-1.1-0.4-2.1-1-2.9
		c-0.4-0.1-0.8-0.3-1.1-0.6c-0.8-0.7-1.8-1.2-3.1-1.5c-1-0.2-2.2-0.3-3.3-0.3c-0.9,0-1.7,0.1-2.5,0.3c-1,0.3-1.8,0.7-2.5,1.2
		c-0.1,0.1-0.2,0.2-0.3,0.2c-0.3,0.3-0.7,0.5-1.1,0.6c-0.5,0.8-0.8,1.7-0.9,2.7c-0.1,0.9-0.1,1.8,0,2.8c0.1,0,0.3,0,0.4,0h0
		c1,0,1.7,0.7,1.8,1.7l0.9,12.9c0,0.5-0.1,1-0.4,1.3c-0.3,0.3-0.8,0.6-1.3,0.6c-2,0.1-3.8-0.4-5.4-1.6c-1.6-1.2-2.7-2.8-3.1-4.7
		c-0.6-2.9,0.1-5.5,2.2-7.6c0.5-0.5,1-0.9,1.6-1.3c-0.2-1.1-0.3-2.3-0.3-3.4c0.1-2,0.6-3.6,1.6-5.1c-0.2-0.8,0.1-1.6,0.7-2.2
		c1-1,2.3-1.7,3.7-2.2c1-0.4,2-0.6,3-0.7c0.4,0,0.7-0.1,1.1-0.1l0.7-0.1l1.8,0c1.6,0.1,3.1,0.4,4.4,0.9c1.3,0.5,2.5,1.2,3.5,2.2
		c0.6,0.6,0.8,1.3,0.7,2.1c0.6,1,1.1,2,1.3,3.2c0.2,1,0.3,2.2,0.3,3.3c0,0.7-0.1,1.3-0.3,2c0.7,0.4,1.3,0.9,1.9,1.6
		c1,1.1,1.7,2.4,1.9,3.9c0.8,3.9-1.4,7.7-5,9.2C391,27.4,390,27.6,388.9,27.6z M389.4,12.7c-0.2,0-0.3,0.1-0.3,0.3
		c0,0.3,0,0.7-0.1,1L388.3,25c0,0.3,0,0.6-0.1,1c0,0.1,0.1,0.2,0.2,0.2c1,0.1,2-0.1,2.9-0.5c3-1.2,4.7-4.4,4.1-7.5
		c-0.2-1.2-0.8-2.3-1.6-3.2c-0.5-0.6-1.2-1.1-1.9-1.5c-0.5-0.2-0.5-0.7-0.5-1c0.2-0.7,0.3-1.4,0.3-2.2c0.1-1,0-2-0.2-2.9
		c-0.2-1.1-0.7-2.1-1.2-2.9c-0.2-0.2-0.2-0.5-0.1-0.8c0.1-0.4,0-0.6-0.2-0.9c-0.8-0.8-1.8-1.4-3-1.8c-1.2-0.5-2.5-0.7-4-0.8l-0.6,0
		L381,0.1c-0.4,0-0.7,0.1-1.1,0.1c-0.9,0.1-1.8,0.3-2.7,0.6c-1.3,0.5-2.3,1.1-3.2,1.9c-0.3,0.3-0.4,0.5-0.3,0.9
		c0.1,0.3,0,0.6-0.2,0.9c-0.9,1.3-1.3,2.8-1.4,4.5c-0.1,1.1,0,2.3,0.3,3.4c0.1,0.4-0.1,0.8-0.5,1c-0.6,0.3-1.2,0.7-1.6,1.2
		c-1.7,1.8-2.3,3.9-1.8,6.3c0.3,1.6,1.2,2.9,2.5,3.9c1.3,1,2.8,1.4,4.4,1.3c0.1,0,0.2,0,0.2-0.1c0-0.1,0.1-0.1,0.1-0.2L375,13
		c0-0.3-0.2-0.3-0.2-0.3c-0.1,0-0.3,0-0.4,0l-0.2,0c-0.1,0-0.2,0-0.3,0l-0.8,0.1l-0.2-0.8c-0.3-1.4-0.3-2.7-0.2-3.9
		c0.2-1.4,0.6-2.5,1.3-3.5c0.2-0.2,0.4-0.4,0.7-0.4c0.2,0,0.4-0.1,0.5-0.2c0.1-0.1,0.2-0.2,0.3-0.3c0.8-0.7,1.8-1.2,3.1-1.5
		c0.9-0.2,1.8-0.4,2.8-0.4c1.3-0.1,2.6,0,3.7,0.3c1.6,0.4,2.8,1,3.8,1.9c0.1,0.1,0.3,0.2,0.5,0.2c0.3,0,0.5,0.2,0.7,0.4
		c0.7,1.1,1.2,2.3,1.3,3.8c0.1,1,0.1,2-0.1,3c0,0.2-0.1,0.4-0.1,0.5l-0.2,0.9l-1-0.1C389.9,12.8,389.7,12.7,389.4,12.7
		C389.4,12.7,389.4,12.7,389.4,12.7z"/>
</g>
<g display="none">
	<g display="inline">
		<path fill="#FFFFFF" d="M425.3,19.7h-0.4c-3.2,0-5.8-2.6-5.8-5.8V4.4c0-3.2,2.6-5.8,5.8-5.8h0.4c3.2,0,5.8,2.6,5.8,5.8v9.5
			C431.1,17.1,428.5,19.7,425.3,19.7z M424.9,0.1c-2.4,0-4.3,1.9-4.3,4.3v9.5c0,2.4,1.9,4.3,4.3,4.3h0.4c2.4,0,4.3-1.9,4.3-4.3V4.4
			c0-2.4-1.9-4.3-4.3-4.3H424.9z"/>
	</g>
	<g display="inline">
		<path fill="#FFFFFF" d="M431.8,28h-6.1v-7.3l0.7-0.1c1.8-0.1,3.2-0.8,4.2-2c2.1-2.6,1.8-6.7,1.8-6.7c0-0.4,0.3-0.8,0.7-0.8
			c0.4,0,0.8,0.3,0.8,0.7c0,0.2,0.4,4.8-2.1,7.8c-1.1,1.4-2.7,2.2-4.5,2.5v4.4h4.6c0.4,0,0.8,0.3,0.8,0.8S432.2,28,431.8,28z"/>
	</g>
	<g display="inline">
		<path fill="#FFFFFF" d="M424.5,28h-6.1c-0.4,0-0.8-0.3-0.8-0.8s0.3-0.8,0.8-0.8h4.6v-4.4c-1.9-0.3-3.4-1.1-4.5-2.5
			c-2.5-3-2.1-7.6-2.1-7.8c0-0.4,0.4-0.7,0.8-0.7c0.4,0,0.7,0.4,0.7,0.8c0,0-0.4,4.2,1.8,6.7c1,1.2,2.4,1.9,4.2,2l0.7,0.1V28z"/>
	</g>
	<g display="inline">
		<path fill="#FFFFFF" d="M420.1,5.4h2.7c0.5,0,0.9-0.3,0.9-0.6v0c0-0.3-0.4-0.6-0.9-0.6h-2.7V5.4z"/>
	</g>
	<g display="inline">
		<path fill="#FFFFFF" d="M420.1,8.5h2.7c0.5,0,0.9-0.3,0.9-0.6v0c0-0.3-0.4-0.6-0.9-0.6h-2.7V8.5z"/>
	</g>
	<g display="inline">
		<path fill="#FFFFFF" d="M420.1,11.2h2.7c0.5,0,0.9-0.3,0.9-0.6v0c0-0.3-0.4-0.6-0.9-0.6h-2.7V11.2z"/>
	</g>
	<g display="inline">
		<path fill="#FFFFFF" d="M420.1,13.8h2.7c0.5,0,0.9-0.3,0.9-0.6v0c0-0.3-0.4-0.6-0.9-0.6h-2.7V13.8z"/>
	</g>
</g>
<g display="none">
	<g display="inline">
		<path fill="#FFFFFF" d="M-64.9,22h-32.4c-0.3,0-0.5-0.1-0.7-0.4c-0.1-0.2-0.1-0.5,0-0.8l4.2-7V-1.2c0-0.4,0.3-0.8,0.8-0.8h23.7
			c0.4,0,0.8,0.3,0.8,0.8v15.1l4.2,7c0.1,0.2,0.1,0.5,0,0.8C-64.4,21.8-64.7,22-64.9,22z M-96,20.5h29.8l-3.7-6
			C-70,14.3-70,14.2-70,14V-0.5h-22.2V14c0,0.1,0,0.3-0.1,0.4L-96,20.5z"/>
	</g>
	<g display="inline">
		<path fill="#FFFFFF" d="M-69.3,14.8H-93c-0.4,0-0.8-0.3-0.8-0.8s0.3-0.8,0.8-0.8h23.7c0.4,0,0.8,0.3,0.8,0.8S-68.9,14.8-69.3,14.8
			z"/>
	</g>
	<g display="inline">
		<path fill="#FFFFFF" d="M-70.6,18.3h-21.1c-0.4,0-0.8-0.3-0.8-0.8s0.3-0.8,0.8-0.8h21.1c0.4,0,0.8,0.3,0.8,0.8
			S-70.2,18.3-70.6,18.3z"/>
	</g>
	<g display="inline">
		<path fill="#FFFFFF" d="M-87.6,22c-0.1,0-0.3,0-0.4-0.1c-0.3-0.2-0.4-0.7-0.2-1l2.5-3.7c0.2-0.3,0.7-0.4,1-0.2
			c0.3,0.2,0.4,0.7,0.2,1l-2.5,3.7C-87.1,21.8-87.4,22-87.6,22z"/>
	</g>
	<g display="inline">
		<path fill="#FFFFFF" d="M-75,22c-0.2,0-0.5-0.1-0.6-0.3l-2.5-3.7c-0.2-0.3-0.2-0.8,0.2-1c0.3-0.2,0.8-0.2,1,0.2l2.5,3.7
			c0.2,0.3,0.2,0.8-0.2,1C-74.7,21.9-74.8,22-75,22z"/>
	</g>
</g>
<g display="none">
	<circle display="inline" fill="#FFFFFF" cx="-29.8" cy="20.9" r="0.7"/>
</g>
<path display="none" fill="none" stroke="#FFFFFF" stroke-width="1.5" stroke-miterlimit="10" d="M-123.9,123.9h-27.3
	c-1.1,0-2-0.9-2-2v-14.2c0-1.1,0.9-2,2-2h27.3c1.1,0,2,0.9,2,2v14.2C-121.9,123-122.8,123.9-123.9,123.9z"/>
<line display="none" fill="none" stroke="#FFFFFF" stroke-width="1.5" stroke-linecap="round" stroke-linejoin="round" stroke-miterlimit="10" x1="-153.2" y1="120.8" x2="-121.9" y2="120.8"/>
<polyline display="none" fill="none" stroke="#FFFFFF" stroke-width="1.5" stroke-linecap="round" stroke-linejoin="round" stroke-miterlimit="10" points="
	-141.6,124.9 -141.6,127.1 -133.6,127.1 -133.6,124.9 "/>
<path display="none" fill="#FFFFFF" d="M-130.9,130.2h-13.3c-0.3,0-0.5-0.2-0.5-0.5v-0.2c0-0.3,0.2-0.5,0.5-0.5h13.3
	c0.3,0,0.5,0.2,0.5,0.5v0.2C-130.4,130-130.6,130.2-130.9,130.2z"/>
<path display="none" fill="none" stroke="#FFFFFF" stroke-width="1.5" stroke-miterlimit="10" d="M230.8,112.8
	c-0.9-3.5-4-6.1-7.8-6.1c-3.4,0-6.2,2.1-7.4,5c-0.7-0.6-1.6-1-2.6-1c-2.2,0-4,1.8-4,4c0,0.1,0,0.2,0,0.4c-2.4,0.8-4,3.2-4,5.8
	c0,3.3,2.7,6.2,6,6.2H230c3.9,0,7-3.3,7-7.2C237,116.3,234.3,113.1,230.8,112.8z"/>
<g display="none">
	<path display="inline" fill="none" stroke="#FFFFFF" stroke-width="1.5" stroke-miterlimit="10" d="M90.7,108.6h-6.4l-0.5-2.4
		c-0.1-0.4-0.6-0.8-1-0.8h-8.3c-0.4,0-0.9,0.4-0.9,0.8l-0.4,2.4h-0.8c-1.1,0-3.2,2.6-8,2.6v0.1c0,0,0,0.4,0,0.9v15.1
		c0,0.4,0.4,0.5,0.8,0.5h25.5c0.4,0,0.8,0,0.8-0.5v-17.5C91.5,109.3,91.1,108.6,90.7,108.6z"/>
	
		<line display="inline" fill="none" stroke="#FFFFFF" stroke-width="1.5" stroke-miterlimit="10" x1="63.6" y1="108.6" x2="66.8" y2="108.6"/>
	<circle display="inline" fill="none" stroke="#FFFFFF" stroke-width="1.5" stroke-miterlimit="10" cx="78.7" cy="118.2" r="6.4"/>
</g>
<polyline display="none" fill="none" stroke="#FFFFFF" stroke-width="1.5" stroke-linecap="round" stroke-miterlimit="10" points="
	184,113.8 184,128.1 165.1,128.1 165.1,109.6 179.4,109.6 "/>
<polyline display="none" fill="none" stroke="#FFFFFF" stroke-width="1.5" stroke-linecap="round" stroke-linejoin="round" stroke-miterlimit="10" points="
	173.1,120.7 188.5,105.3 188.5,113 "/>
<line display="none" fill="none" stroke="#FFFFFF" stroke-width="1.5" stroke-linecap="round" stroke-linejoin="round" stroke-miterlimit="10" x1="188.5" y1="105.3" x2="180.1" y2="105.3"/>
<path display="none" fill="none" stroke="#FFFFFF" stroke-width="1.5" stroke-miterlimit="10" d="M140.7,127.6h-24.3
	c-1.4,0-2.3-0.8-2.3-1.9v-7.9c0-0.1,0-0.2,0.1-0.2l3.5-7.5c0.1-0.2,0.2-0.3,0.3-0.5c0.4-0.7,0.9-1.6,2-1.6h17.4c1.1,0,1.6,0.9,2,1.6
	c0.1,0.1,0.1,0.3,0.2,0.4l3.5,7.6c0,0.1,0.1,0.2,0.1,0.2v7.9C143,126.8,142.1,127.6,140.7,127.6z"/>
<line display="none" fill="none" stroke="#FFFFFF" stroke-width="1.5" stroke-miterlimit="10" x1="114" y1="117.7" x2="143" y2="117.7"/>
<line display="none" fill="none" stroke="#FFFFFF" stroke-width="1.5" stroke-linecap="round" stroke-miterlimit="10" x1="118" y1="121.7" x2="118" y2="123.8"/>
<line display="none" fill="none" stroke="#FFFFFF" stroke-width="1.5" stroke-linecap="round" stroke-miterlimit="10" x1="121.3" y1="121.7" x2="121.3" y2="123.8"/>
<path display="none" fill="none" stroke="#FFFFFF" stroke-width="1.5" stroke-miterlimit="10" d="M37.1,110.5v15.3
	c0,1.5-1.2,2.8-2.8,2.8H3.5c-1.5,0-2.8-1.2-2.8-2.8v-15.3c0-1.5,1.2-2.8,2.8-2.8h30.8C35.8,107.8,37.1,109,37.1,110.5z"/>
<line display="none" fill="none" stroke="#FFFFFF" stroke-width="1.5" stroke-miterlimit="10" x1="33.3" y1="107.8" x2="33.3" y2="128.6"/>
<line display="none" fill="none" stroke="#FFFFFF" stroke-width="1.5" stroke-miterlimit="10" x1="4.4" y1="107.8" x2="4.4" y2="128.6"/>
<path display="none" fill="none" stroke="#FFFFFF" stroke-width="1.5" stroke-miterlimit="10" d="M-24.5,129.4h-10.5
	c-1.1,0-1.9-0.9-1.9-1.9v-21.2c0-1.1,0.9-1.9,1.9-1.9h10.5c1.1,0,1.9,0.9,1.9,1.9v21.2C-22.6,128.5-23.5,129.4-24.5,129.4z"/>
<line display="none" fill="none" stroke="#FFFFFF" stroke-miterlimit="10" x1="-22.6" y1="126.8" x2="-37" y2="126.8"/>
<line display="none" fill="none" stroke="#FFFFFF" stroke-miterlimit="10" x1="-22.6" y1="106.8" x2="-37" y2="106.8"/>
<path display="none" fill="none" stroke="#FFFFFF" stroke-width="1.5" stroke-miterlimit="10" d="M286,110.8
	c-1.6-2.7-3.7-4.1-6.2-4.1c-2.8,0-5.1,1.8-5.1,1.8c-0.4,0.3-1.3,0.6-1.8,0.6h-1.8c-0.5,0-1.4-0.3-1.8-0.6c-0.1-0.1-2.3-1.8-5.1-1.8
	c-2.5,0-4.6,1.4-6.2,4.1c-4.4,7.5-2.7,15.6-2.7,15.9c0.4,2.7,1.9,3.2,3,3.2c0.1,0,0.2,0,0.3,0c1.9-0.2,6-6.1,6.2-6.3
	c0.4-0.4,1.1-0.8,1.6-0.8l10.9,0c0.5,0,1.3,0.4,1.6,0.8c0.2,0.2,4.4,6.2,6.3,6.4c0.1,0,0.2,0,0.3,0c1.1,0,2.6-0.6,3-3.2
	C288.7,126.6,290.4,118.3,286,110.8z"/>
<path display="none" fill="none" stroke="#FFFFFF" stroke-width="0.75" stroke-linecap="round" stroke-linejoin="round" stroke-miterlimit="10" d="
	M278,119.1c-0.8,0-1.4-0.6-1.4-1.4c0-0.8,0.6-1.4,1.4-1.4c0.8,0,1.4,0.6,1.4,1.4C279.4,118.5,278.7,119.1,278,119.1z"/>
<path display="none" fill="none" stroke="#FFFFFF" stroke-width="0.75" stroke-linecap="round" stroke-linejoin="round" stroke-miterlimit="10" d="
	M278,114.9c-0.8,0-1.4-0.6-1.4-1.4s0.6-1.4,1.4-1.4c0.8,0,1.4,0.6,1.4,1.4S278.7,114.9,278,114.9z"/>
<circle display="none" fill="none" stroke="#FFFFFF" stroke-width="0.75" stroke-linecap="round" stroke-linejoin="round" stroke-miterlimit="10" cx="282.2" cy="115.6" r="1.4"/>
<line display="none" fill="none" stroke="#FFFFFF" stroke-width="0.75" stroke-linecap="round" stroke-linejoin="round" stroke-miterlimit="10" x1="264" y1="112.7" x2="264" y2="118.5"/>
<line display="none" fill="none" stroke="#FFFFFF" stroke-width="0.75" stroke-linecap="round" stroke-linejoin="round" stroke-miterlimit="10" x1="261.1" y1="115.6" x2="266.9" y2="115.6"/>
<path display="none" fill="none" stroke="#FFFFFF" stroke-width="1.5" stroke-miterlimit="10" d="M343,106.6c-0.4-0.4-1.1-0.4-1.6,0
	c-0.4,0.4-0.8,0.8-0.8,0.8s0,0.1,0,0.1c0,0,0.4,0.4,0.8,0.8l0.5,0.5c0.4,0.4,0.8,0.8,0.8,0.8c0,0,0.1,0,0.1,0c0,0,0.4-0.4,0.8-0.8
	c0.4-0.4,0.4-1.1,0-1.5L343,106.6z"/>
<polygon display="none" fill="none" stroke="#FFFFFF" stroke-width="1.5" stroke-miterlimit="10" points="340.7,107.4 332.9,115.2 
	335.1,117.3 342.9,109.5 "/>
<polyline display="none" fill="none" stroke="#FFFFFF" stroke-width="1.5" stroke-linejoin="round" stroke-miterlimit="10" points="
	332.9,115.2 331.3,118.9 331.3,118.9 335.1,117.3 "/>
<path display="none" fill="none" stroke="#FFFFFF" stroke-width="1.5" stroke-linejoin="round" stroke-miterlimit="10" d="
	M340.4,128.9h-31.2c-1.1,0-2-0.9-2-2v-17.1c0-1.1,0.9-2,2-2h31.2c1.1,0,2,0.9,2,2v17.1C342.4,128,341.5,128.9,340.4,128.9z"/>
<line display="none" fill="none" stroke="#FFFFFF" stroke-width="1.5" stroke-miterlimit="10" x1="313.2" y1="128.9" x2="313.2" y2="107.9"/>
<path display="none" fill="none" stroke="#FFFFFF" stroke-width="1.5" stroke-miterlimit="10" d="M382.6,106.4c0.2,0,0.4,0,0.6,0
	c1.4,0.1,2.8,0.3,4.2,0.9c1.2,0.5,2.3,1.1,3.2,2c0.5,0.5,0.6,1,0.4,1.6c0,0.1,0,0.1,0,0.2c0.7,1,1.1,2,1.3,3.2
	c0.2,1,0.3,2.1,0.2,3.1c0,0.8-0.2,1.6-0.3,2.3c0,0.1,0,0.1,0.1,0.1c0.8,0.4,1.5,1,2.1,1.6c0.9,1,1.5,2.2,1.8,3.5
	c0.7,3.5-1.2,7-4.5,8.4c-1.1,0.4-2.1,0.6-3.3,0.5c-0.5,0-0.9-0.4-0.9-1c0-0.4,0-0.9,0.1-1.3c0.1-0.8,0.1-1.5,0.2-2.3
	c0.1-0.9,0.1-1.8,0.2-2.6c0.1-0.9,0.1-1.7,0.2-2.6c0.1-0.9,0.1-1.8,0.2-2.6c0-0.5,0.1-1,0.1-1.5c0-0.6,0.5-1,1.1-1
	c0.3,0,0.6,0.1,0.9,0.1c0-0.2,0.1-0.5,0.1-0.7c0.1-0.9,0.2-1.8,0.1-2.8c-0.1-1.2-0.5-2.4-1.2-3.5c0,0-0.1-0.1-0.1-0.1
	c-0.3,0-0.6-0.2-0.9-0.4c-1-0.9-2.1-1.4-3.4-1.7c-1.2-0.3-2.4-0.3-3.5-0.3c-0.9,0-1.8,0.1-2.6,0.4c-1,0.3-2,0.7-2.8,1.4
	c-0.1,0.1-0.2,0.2-0.3,0.3c-0.3,0.2-0.6,0.4-0.9,0.4c-0.1,0-0.1,0.1-0.1,0.1c-0.7,1-1,2.1-1.2,3.2c-0.2,1.2-0.1,2.5,0.2,3.7
	c0,0,0,0,0,0.1c0.1,0,0.3,0,0.4-0.1c0.2,0,0.4-0.1,0.7-0.1c0.6,0,1,0.4,1,1c0.1,1.5,0.2,3,0.3,4.5c0.1,1.2,0.2,2.4,0.2,3.7
	c0.1,1.3,0.2,2.7,0.3,4c0,0.2,0,0.5,0,0.7c0,0.6-0.4,1.1-1,1.1c-1.8,0.1-3.4-0.4-4.9-1.5c-1.5-1.1-2.4-2.5-2.8-4.3
	c-0.6-2.7,0.1-5,2-7c0.5-0.5,1.1-1,1.8-1.3c0.1,0,0.1-0.1,0.1-0.2c-0.3-1.2-0.4-2.4-0.3-3.6c0.1-1.8,0.6-3.4,1.5-4.9
	c0.1-0.1,0.1-0.2,0.1-0.3c-0.1-0.6,0-1.2,0.5-1.6c1-0.9,2.2-1.6,3.4-2.1c0.9-0.3,1.9-0.6,2.9-0.7c0.5-0.1,1.1-0.1,1.6-0.1
	c0,0,0.1,0,0.1,0C381.9,106.4,382.2,106.4,382.6,106.4z"/>
<g display="none">
	<path display="inline" fill="none" stroke="#FFFFFF" stroke-width="1.5" stroke-miterlimit="10" d="M425.3,126h-0.4
		c-2.8,0-5-2.3-5-5v-9.5c0-2.8,2.3-5,5-5h0.4c2.8,0,5,2.3,5,5v9.5C430.3,123.7,428.1,126,425.3,126z"/>
	<path display="inline" fill="none" stroke="#FFFFFF" stroke-width="1.5" stroke-linecap="round" stroke-miterlimit="10" d="
		M433.1,118.9c0,0,0.9,9-6.6,9.5v5.8h5.4"/>
	<path display="inline" fill="none" stroke="#FFFFFF" stroke-width="1.5" stroke-linecap="round" stroke-miterlimit="10" d="
		M417.1,118.9c0,0-0.9,9,6.6,9.5v5.8h-5.4"/>
	<path display="inline" fill="#FFFFFF" d="M420.1,112.4h2.7c0.5,0,0.9-0.3,0.9-0.6l0,0c0-0.3-0.4-0.6-0.9-0.6h-2.7V112.4z"/>
	<path display="inline" fill="#FFFFFF" d="M420.1,115.5h2.7c0.5,0,0.9-0.3,0.9-0.6v0c0-0.3-0.4-0.6-0.9-0.6h-2.7V115.5z"/>
	<path display="inline" fill="#FFFFFF" d="M420.1,118.2h2.7c0.5,0,0.9-0.3,0.9-0.6l0,0c0-0.3-0.4-0.6-0.9-0.6h-2.7V118.2z"/>
	<path display="inline" fill="#FFFFFF" d="M420.1,120.8h2.7c0.5,0,0.9-0.3,0.9-0.6v0c0-0.3-0.4-0.6-0.9-0.6h-2.7V120.8z"/>
</g>
<g display="none">
	
		<polygon display="inline" fill="none" stroke="#FFFFFF" stroke-width="1.5" stroke-linecap="round" stroke-linejoin="round" stroke-miterlimit="10" points="
		-69.3,121 -69.3,105.8 -80.7,105.8 -81.6,105.8 -93,105.8 -93,121 -97.4,128.2 -81.6,128.2 -80.7,128.2 -64.9,128.2 	"/>
	
		<line display="inline" fill="none" stroke="#FFFFFF" stroke-width="1.5" stroke-linecap="round" stroke-linejoin="round" stroke-miterlimit="10" x1="-93" y1="121" x2="-69.3" y2="121"/>
	
		<line display="inline" fill="none" stroke="#FFFFFF" stroke-width="1.5" stroke-linecap="round" stroke-linejoin="round" stroke-miterlimit="10" x1="-91.7" y1="124.6" x2="-70.6" y2="124.6"/>
	
		<line display="inline" fill="none" stroke="#FFFFFF" stroke-width="1.5" stroke-linecap="round" stroke-linejoin="round" stroke-miterlimit="10" x1="-85.1" y1="124.6" x2="-87.6" y2="128.2"/>
	
		<line display="inline" fill="none" stroke="#FFFFFF" stroke-width="1.5" stroke-linecap="round" stroke-linejoin="round" stroke-miterlimit="10" x1="-77.5" y1="124.6" x2="-75" y2="128.2"/>
</g>
<circle display="none" fill="#FFFFFF" cx="-29.8" cy="127.9" r="0.7"/>
</svg>
