<?xml version="1.0" encoding="utf-8"?>
<!-- Generator: Adobe Illustrator 18.0.0, SVG Export Plug-In . SVG Version: 6.00 Build 0)  -->
<!DOCTYPE svg PUBLIC "-//W3C//DTD SVG 1.1//EN" "http://www.w3.org/Graphics/SVG/1.1/DTD/svg11.dtd">
<svg version="1.1" id="Layer_1" xmlns="http://www.w3.org/2000/svg" xmlns:xlink="http://www.w3.org/1999/xlink" x="0px" y="0px"
	 viewBox="0 0 80 80" enable-background="new 0 0 80 80" xml:space="preserve">
<rect x="-1097.5" y="-45.2" display="none" fill="#010101" width="1766.5" height="408.3"/>
<path display="none" fill="none" stroke="#FFFFFF" stroke-miterlimit="10" d="M-706.9,178.7h-245.8c-15.8,0-28.8-12.9-28.8-28.8l0,0
	c0-15.8,12.9-28.8,28.8-28.8h245.8c15.8,0,28.7,12.9,28.7,28.8l0,0C-678.1,165.8-691,178.7-706.9,178.7z"/>
<g display="none">
	
		<text transform="matrix(1 0 0 1 -914.1714 158.0836)" display="inline" fill="#FFFFFF" font-family="'HelveticaNeue-Light'" font-size="19.759">TEXT IN ALL CAPS</text>
</g>
<g display="none">
	<g display="inline">
		<path fill="#FFFFFF" d="M-586.2,201.5c-28.3,0-51.5-23.1-51.5-51.5s23.1-51.5,51.5-51.5c28.3,0,51.5,23.1,51.5,51.5
			S-557.9,201.5-586.2,201.5z M-586.2,100.6c-27.3,0-49.4,22.1-49.4,49.4s22.1,49.4,49.4,49.4c27.3,0,49.4-22.1,49.4-49.4
			S-559.2,100.6-586.2,100.6z"/>
	</g>
	<g display="inline">
		
			<rect x="-587.3" y="124.3" transform="matrix(-0.7071 -0.7071 0.7071 -0.7071 -1106.7482 -158.7413)" fill="#FFFFFF" width="2.1" height="51"/>
	</g>
	<g display="inline">
		
			<rect x="-611.6" y="148.8" transform="matrix(-0.7071 -0.7071 0.7071 -0.7071 -1106.5222 -158.619)" fill="#FFFFFF" width="51" height="2.1"/>
	</g>
</g>
<g display="none">
	
		<text transform="matrix(1 0 0 1 427.9321 14.1524)" display="inline" fill="#FFFFFF" font-family="'HelveticaNeue-Light'" font-size="19.759">LAPTOP</text>
	
		<text transform="matrix(1 0 0 1 427.9321 37.9026)" display="inline" fill="#FFFFFF" font-family="'HelveticaNeue-Light'" font-size="19.759">SMARTPHONE</text>
	
		<text transform="matrix(1 0 0 1 427.9321 61.6528)" display="inline" fill="#FFFFFF" font-family="'HelveticaNeue-Light'" font-size="19.759">TABLET</text>
	
		<text transform="matrix(1 0 0 1 427.9321 85.1945)" display="inline" fill="#FFFFFF" font-family="'HelveticaNeue-Light'" font-size="19.759">HARD DRIVE</text>
	
		<text transform="matrix(1 0 0 1 427.9321 108.9447)" display="inline" fill="#FFFFFF" font-family="'HelveticaNeue-Light'" font-size="19.759">CLOUD STORAGE</text>
	
		<text transform="matrix(1 0 0 1 427.9321 132.6939)" display="inline" fill="#FFFFFF" font-family="'HelveticaNeue-Light'" font-size="19.759">DSLR</text>
	
		<text transform="matrix(1 0 0 1 427.9321 156.4441)" display="inline" fill="#FFFFFF" font-family="'HelveticaNeue-Light'" font-size="19.759">GAME CONTROLLER</text>
	
		<text transform="matrix(1 0 0 1 427.9321 180.1943)" display="inline" fill="#FFFFFF" font-family="'HelveticaNeue-Light'" font-size="19.759">WACOM PEN</text>
	
		<text transform="matrix(1 0 0 1 427.9321 203.7351)" display="inline" fill="#FFFFFF" font-family="'HelveticaNeue-Light'" font-size="19.759">HEADPHONES</text>
	
		<text transform="matrix(1 0 0 1 427.9321 227.4853)" display="inline" fill="#FFFFFF" font-family="'HelveticaNeue-Light'" font-size="19.759">MIC</text>
</g>
<g display="none">
	<path display="inline" fill="#FFFFFF" d="M-896.2,54.6h-56.9c-3.1,0-5.8-2.5-5.8-5.8V19.4c0-3.1,2.5-5.8,5.8-5.8h56.9
		c3.1,0,5.8,2.5,5.8,5.8V49C-890.6,52.1-893.1,54.6-896.2,54.6z M-953.1,16.9c-1.5,0-2.5,1.2-2.5,2.7v29.6c0,1.5,1.2,2.5,2.5,2.5
		h56.9c1.5,0,2.5-1.3,2.5-2.5V19.4c0-1.5-1.3-2.7-2.5-2.7h-56.9V16.9z"/>
</g>
<g display="none">
	<path display="inline" fill="#FFFFFF" d="M-892.1,48.1h-65.2c-0.8,0-1.7-0.6-1.7-1.7c0-1,0.6-1.7,1.7-1.7h65.2
		c0.8,0,1.7,0.6,1.7,1.7C-890.4,47.5-891.2,48.1-892.1,48.1z"/>
</g>
<g display="none">
	<path display="inline" fill="#FFFFFF" d="M-916.5,61.2h-16.7c-0.8,0-1.7-0.6-1.7-1.7V55c0-0.8,0.6-1.7,1.7-1.7c1,0,1.7,0.6,1.7,1.7
		v3.1h13.5V55c0-0.8,0.6-1.7,1.7-1.7s1.7,0.6,1.7,1.7v4.6C-915,60.6-915.6,61.2-916.5,61.2z"/>
</g>
<g display="none">
	<path display="inline" fill="#FFFFFF" d="M-911,66.2h-27.7c-0.6,0-1-0.4-1-1v-0.4c0-0.6,0.4-1,1-1h27.7c0.6,0,1,0.4,1,1v0.4
		C-909.8,65.8-910.4,66.2-911,66.2z"/>
</g>
<g display="none">
	<path display="inline" fill="#FFFFFF" d="M-159,61.2h-39.8c-7.7,0-14.2-6.7-14.2-14.4c0-5.6,3.3-10.8,8.3-13.1
		c0.2-5.4,4.6-9.6,10-9.6c1.7,0,3.3,0.4,4.8,1.2c3.1-5.8,9.4-9.6,16-9.6c8.1,0,15,5.2,17.5,12.9c7.5,1.2,13.3,8.3,13.3,16.3
		C-142.9,53.8-150.2,61.2-159,61.2z M-194.6,27.1c-3.8,0-6.9,3.1-6.9,6.9v0.2l0.2,1.5l-1.2,0.4c-4.4,1.5-7.3,5.8-7.3,10.6
		c0,6,5,11.2,11,11.2h39.8c7.1,0,13.1-6,13.1-13.3c0-6.7-5.2-12.5-11.7-13.3l-1.2,0.2l-0.2-1c-1.7-6.9-7.7-11.5-14.6-11.5
		c-6.2,0-11.7,3.8-14,9.4l-0.8,2.1L-190,29C-191.5,27.7-192.9,27.1-194.6,27.1z"/>
</g>
<g display="none">
	<g display="inline">
		<path fill="#FFFFFF" d="M-449.4,62.7h-53.1c-2.7,0-3.1-1.5-3.1-2.5v-35l1.7-0.2c6.2,0,10.2-2.3,12.7-3.8c1.5-0.8,2.7-1.5,3.8-1.5
			h0.4l0.6-3.8c0.2-1.7,1.9-2.9,3.5-2.9h17.3c1.7,0,3.1,1.2,3.5,2.7l0.8,4h12.1c1.9,0,3.1,2.3,3.1,4v36.5
			C-446,61.2-446.7,62.7-449.4,62.7z M-502.5,59.6L-502.5,59.6h53.1l0,0V23.8c0-0.2-0.2-0.6-0.4-0.8h-14.4l-1.2-6.2
			c0-0.2-0.4-0.4-0.6-0.4h-17.3c-0.2,0-0.4,0.2-0.4,0.4l-1,6.2h-2.9c-0.4,0-1.5,0.6-2.3,1c-2.5,1.5-6.5,3.8-12.7,4.2v31.5H-502.5z"
			/>
	</g>
	<g display="inline">
		<rect x="-505.6" y="19.8" fill="#FFFFFF" width="6.7" height="3.1"/>
	</g>
	<g display="inline">
		<path fill="#FFFFFF" d="M-474.2,56c-8.1,0-14.8-6.7-14.8-14.8s6.7-14.8,14.8-14.8c8.1,0,14.8,6.7,14.8,14.8S-466,56-474.2,56z
			 M-474.2,29.6c-6.5,0-11.7,5.2-11.7,11.7s5.2,11.7,11.7,11.7s11.7-5.2,11.7-11.7S-467.7,29.6-474.2,29.6z"/>
	</g>
</g>
<g display="none">
	<path display="inline" fill="#FFFFFF" d="M-253.3,63.3h-42.5V21.7h31.2c0.8,0,1.7,0.6,1.7,1.5s-0.6,1.7-1.7,1.7h-28.1v35.4h36.5
		V32.1c0-0.8,0.6-1.7,1.7-1.7c1,0,1.7,0.6,1.7,1.7v31.2H-253.3z"/>
</g>
<g display="none">
	<path display="inline" fill="#FFFFFF" d="M-277.7,48.1c-0.4,0-0.8-0.2-1-0.4c-0.6-0.6-0.6-1.7,0-2.3l32.1-32.1
		c0.4-0.4,1-0.6,1.7-0.4c0.6,0.2,1,0.8,1,1.5v16c0,0.8-0.6,1.7-1.7,1.7c-1,0-1.7-0.6-1.7-1.7V18.1l-29.4,29.4
		C-276.9,47.9-277.3,48.1-277.7,48.1z"/>
</g>
<g display="none">
	<path display="inline" fill="#FFFFFF" d="M-245.6,15.8h-17.5c-0.8,0-1.7-0.6-1.7-1.7s0.6-1.7,1.7-1.7h17.5c0.8,0,1.7,0.6,1.7,1.7
		S-244.8,15.8-245.6,15.8z"/>
</g>
<g display="none">
	<path display="inline" fill="#FFFFFF" d="M-345.2,62.3h-50.6c-3.8,0-6.5-2.3-6.5-5.6V40.2c0-0.4,0-0.8,0.2-1.2l7.3-15.6
		c0.2-0.6,0.4-0.8,0.6-1c0.8-1.5,2.3-4.2,5.4-4.2h36.2c3.3,0,4.8,2.7,5.6,4.2c0.2,0.4,0.4,0.6,0.4,0.8l7.3,16
		c0.2,0.4,0.2,0.8,0.2,1.2v16.5C-338.8,60-341.5,62.3-345.2,62.3z M-388.8,21.2c-1.2,0-1.9,1-2.7,2.5c-0.2,0.4-0.4,0.6-0.6,1
		l-7.1,15.6v16.2c0,2.3,2.3,2.5,3.3,2.5h50.6c1,0,3.3-0.2,3.3-2.5V40.2l-7.3-15.6c0,0-0.2-0.4-0.4-0.6c-1-1.7-1.7-2.7-2.9-2.7
		C-352.5,21.2-388.8,21.2-388.8,21.2z"/>
</g>
<g display="none">
	<rect x="-400.8" y="38.8" display="inline" fill="#FFFFFF" width="60.4" height="3.1"/>
</g>
<g display="none">
	<path display="inline" fill="#FFFFFF" d="M-392.3,54.4c-0.8,0-1.7-0.6-1.7-1.7v-4.4c0-0.8,0.6-1.7,1.7-1.7s1.7,0.6,1.7,1.7v4.4
		C-390.8,53.8-391.5,54.4-392.3,54.4z"/>
</g>
<g display="none">
	<path display="inline" fill="#FFFFFF" d="M-385.6,54.4c-0.8,0-1.7-0.6-1.7-1.7v-4.4c0-0.8,0.6-1.7,1.7-1.7s1.7,0.6,1.7,1.7v4.4
		C-384,53.8-384.8,54.4-385.6,54.4z"/>
</g>
<g display="none">
	<path display="inline" fill="#FFFFFF" d="M-566.7,64.4h-64.2c-4,0-7.3-3.3-7.3-7.3V25.2c0-4,3.3-7.3,7.3-7.3h64.2
		c4,0,7.3,3.3,7.3,7.3v31.9C-559.4,61.2-562.7,64.4-566.7,64.4z M-630.8,21c-2.3,0-4.2,1.9-4.2,4.2v31.9c0,2.3,1.9,4.2,4.2,4.2h64.2
		c2.3,0,4.2-1.9,4.2-4.2V25.2c0-2.3-1.9-4.2-4.2-4.2H-630.8z"/>
</g>
<g display="none">
	<rect x="-570.4" y="19.6" display="inline" fill="#FFFFFF" width="3.1" height="43.3"/>
</g>
<g display="none">
	<rect x="-630.6" y="19.6" display="inline" fill="#FFFFFF" width="3.1" height="43.3"/>
</g>
<g display="none">
	<path display="inline" fill="#FFFFFF" d="M-689.4,66h-21.9c-3.1,0-5.6-2.5-5.6-5.6V16.2c0-3.1,2.5-5.6,5.6-5.6h21.9
		c3.1,0,5.6,2.5,5.6,5.6v44.2C-683.8,63.5-686.2,66-689.4,66z M-711.2,13.7c-1.3,0-2.5,1-2.5,2.5v44.2c0,1.2,1,2.5,2.5,2.5h21.9
		c1.2,0,2.5-1,2.5-2.5V16.2c0-1.3-1-2.5-2.5-2.5C-689.4,13.7-711.2,13.7-711.2,13.7z"/>
</g>
<g display="none">
	<rect x="-715.4" y="57.9" display="inline" fill="#FFFFFF" width="30" height="2.1"/>
</g>
<g display="none">
	<rect x="-715.4" y="16.5" display="inline" fill="#FFFFFF" width="30" height="2.1"/>
</g>
<g display="none">
	<path display="inline" fill="#FFFFFF" d="M-100,67.3c-2.5,0-6.7-1-7.9-8.1c-0.2-0.6-3.7-18.1,5.8-34.2c3.8-6.2,8.3-9.4,14.2-9.4
		c6,0,11,3.7,11.5,4c0.6,0.4,2.1,1,2.7,1h3.8c0.8,0,2.1-0.4,2.7-1l0,0c0,0,5.2-4.2,11.7-4.2c5.8,0,10.6,3.1,14.2,9.4
		c9.4,16,5.8,33.5,5.8,34.4c-1,6.9-5.4,7.9-7.7,7.9c-0.2,0-0.6,0-0.8,0c-1,0-4.4-0.4-14-13.5l-0.2-0.4c-0.4-0.6-1.5-1-2.3-1h-22.7
		c-0.6,0-1.7,0.6-2.3,1l-0.2,0.4c-9.4,13.1-12.5,13.3-13.8,13.5C-99.4,67.1-99.6,67.3-100,67.3z M-87.7,18.8
		c-4.6,0-8.5,2.7-11.5,7.7c-9,15-5.6,31.5-5.4,32.1c0.6,4,2.3,5.6,5.2,5.4c0.4,0,3.3-0.8,11.5-12.1c0.2-0.2,0.4-0.4,0.4-0.4
		c1-1.2,2.9-2.3,4.6-2.3h22.7c1.7,0,3.5,1,4.6,2.3c0,0,0.2,0.2,0.4,0.4c8.5,11.7,11.5,12.3,11.7,12.3c2.9,0.2,4.6-1.5,5.2-5.4
		c0.2-0.8,3.5-17.1-5.4-32.1c-3.1-5.2-6.9-7.7-11.5-7.7c-5.2,0-9.6,3.3-9.6,3.3c-1.2,0.8-3.3,1.7-4.8,1.7h-3.7
		c-1.5,0-3.5-0.6-4.8-1.7C-78.3,22.1-82.7,18.8-87.7,18.8z"/>
</g>
<g display="none">
	<path display="inline" fill="#FFFFFF" d="M-59.2,44c-2.1,0-3.7-1.7-3.7-3.8c0-2.1,1.7-3.8,3.7-3.8s3.8,1.7,3.8,3.8
		C-55.4,42.3-57.1,44-59.2,44z M-59.2,38.1c-1.2,0-2.1,1-2.1,2.1c0,1,1,2.1,2.1,2.1c1.2,0,2.1-1,2.1-2.1
		C-57.1,39.2-57.9,38.1-59.2,38.1z"/>
</g>
<g display="none">
	<path display="inline" fill="#FFFFFF" d="M-59.2,35c-2.1,0-3.7-1.7-3.7-3.8s1.7-3.8,3.7-3.8s3.8,1.7,3.8,3.8S-57.1,35-59.2,35z
		 M-59.2,29.2c-1.2,0-2.1,1-2.1,2.1s1,2.1,2.1,2.1c1.2,0,2.1-1,2.1-2.1S-57.9,29.2-59.2,29.2z"/>
</g>
<g display="none">
	<path display="inline" fill="#FFFFFF" d="M-50.4,39.6c-2.1,0-3.7-1.7-3.7-3.8c0-2.1,1.7-3.8,3.7-3.8c2.1,0,3.8,1.7,3.8,3.8
		C-46.7,37.9-48.3,39.6-50.4,39.6z M-50.4,33.5c-1.2,0-2.1,1-2.1,2.1c0,1,1,2.1,2.1,2.1c1,0,2.1-1,2.1-2.1
		C-48.3,34.6-49.2,33.5-50.4,33.5z"/>
</g>
<g display="none">
	<path display="inline" fill="#FFFFFF" d="M-88.3,42.7c-0.4,0-0.8-0.4-0.8-0.8V29.8c0-0.4,0.4-0.8,0.8-0.8c0.4,0,0.8,0.4,0.8,0.8
		v12.1C-87.5,42.3-87.9,42.7-88.3,42.7z"/>
</g>
<g display="none">
	<path display="inline" fill="#FFFFFF" d="M-82.3,36.7h-12.1c-0.4,0-0.8-0.4-0.8-0.8c0-0.4,0.4-0.8,0.8-0.8h12.1
		c0.4,0,0.8,0.4,0.8,0.8C-81.5,36.2-81.9,36.7-82.3,36.7z"/>
</g>
<g>
	<path fill="#AAAD00" d="M76,24.6h-0.6L75,24.2l-5-4.8v-1.5l0.4-0.6c0,0,0.8-0.8,1.7-1.7c1.5-1.5,4-1.5,5.4,0l1.2,1.3
		c0.8,0.6,1.2,1.7,1.2,2.7s-0.4,1.9-1,2.7L77.3,24C76.9,24.6,76.5,24.6,76,24.6z M73.8,18.8l1.7,1.7c0.2,0.2,0.4,0.4,0.6,0.6
		l0.6-0.6c0.2-0.2,0.2-0.2,0.2-0.4c0-0.2,0-0.4-0.2-0.4l-1.2-1.2c-0.4-0.4-0.6-0.4-1,0L73.8,18.8z"/>
</g>
<g>
	<path fill="#AAAD00" d="M59.8,41.7L52.9,35l18.5-18.3l6.9,6.5L59.8,41.7z M57.5,35l2.3,2.3L74,23.1l-2.3-2.3L57.5,35z"/>
</g>
<g>
	<path fill="#AAAD00" d="M51.9,44.2c-0.4,0-0.8-0.2-1-0.4c-0.4-0.4-0.6-1-0.4-1.7l3.3-7.7l2.9,1.2l-1.9,4.2l4.4-1.9l1.2,2.9
		l-7.9,3.3C52.3,44.2,52.1,44.2,51.9,44.2z"/>
</g>
<g>
	<path fill="#AAAD00" d="M70.8,65.2H5.6c-3.1,0-5.8-2.5-5.8-5.8V24c0-3.1,2.5-5.8,5.8-5.8h65.2c3.1,0,5.8,2.5,5.8,5.8v35.6
		C76.5,62.5,74,65.2,70.8,65.2z M5.6,21.2c-1.5,0-2.5,1.2-2.5,2.5v35.6c0,1.5,1.2,2.5,2.5,2.5h65.2c1.5,0,2.5-1.3,2.5-2.5V24
		c0-1.5-1.2-2.5-2.5-2.5H5.6V21.2z"/>
</g>
<g>
	<rect x="12.7" y="19.8" fill="#AAAD00" width="3.1" height="44"/>
</g>
<g display="none">
	<path display="inline" fill="#FFFFFF" d="M172.1,75.4c-0.4,0-0.8,0-1.2,0c-1.9-0.2-3.3-1.7-3.3-3.5c0-0.6,0-1.5,0.2-2.1l1.7-22.7
		c0-0.6,0-1.5,0.2-2.1c0.2-2.1,1.9-3.8,4.2-3.5c0.2,0,0.4,0,0.4,0l0,0c0.2-1.9,0.4-3.5,0.2-5.4c-0.2-2.3-0.8-4.4-2.1-6
		c-0.8-0.2-1.7-0.6-2.3-1.2c-1.7-1.5-3.8-2.5-6.5-3.1c-2.1-0.4-4.6-0.6-6.9-0.6c-1.9,0-3.5,0.2-5.2,0.6c-2.1,0.6-3.8,1.5-5.2,2.5
		c-0.2,0.2-0.4,0.4-0.6,0.4c-0.6,0.6-1.5,1-2.3,1.2c-1,1.7-1.7,3.5-2.1,5.8c-0.2,1.9-0.2,3.8,0,5.8c0.2,0,0.6,0,0.8,0l0,0
		c2.1,0,3.5,1.5,3.8,3.5l2.1,26.5c0,1-0.2,2.1-0.8,2.7c-0.6,0.6-1.7,1.2-2.7,1.2c-4.2,0.2-7.9-0.8-11.2-3.3s-5.6-5.8-6.5-9.8
		c-1.2-6,0.2-11.5,4.6-15.8c1-1,2.1-1.9,3.3-2.7c-0.4-2.3-0.6-4.8-0.6-7.1c0.2-4.2,1.2-7.5,3.3-10.6c-0.4-1.7,0.2-3.3,1.5-4.6
		c2.1-2.1,4.8-3.5,7.7-4.6c2.1-0.8,4.2-1.3,6.2-1.5c0.8,0,1.5-0.2,2.3-0.2l1.5-0.2h3.8c3.3,0.2,6.5,0.8,9.2,1.9s5.2,2.5,7.3,4.6
		c1.2,1.2,1.7,2.7,1.5,4.4c1.2,2.1,2.3,4.2,2.7,6.7c0.4,2.1,0.6,4.6,0.6,6.9c0,1.5-0.2,2.7-0.6,4.2c1.5,0.8,2.7,1.9,4,3.3
		c2.1,2.3,3.5,5,4,8.1c1.7,8.1-2.9,16-10.4,19.2C176.2,75,174.2,75.4,172.1,75.4z M173.1,44.4c-0.4,0-0.6,0.2-0.6,0.6
		c0,0.6,0,1.5-0.2,2.1l-1.7,22.7c0,0.6,0,1.2-0.2,2.1c0,0.2,0.2,0.4,0.4,0.4c2.1,0.2,4.2-0.2,6-1c6.2-2.5,9.8-9.2,8.5-15.6
		c-0.4-2.5-1.7-4.8-3.3-6.7c-1-1.3-2.5-2.3-4-3.1c-1-0.4-1-1.5-1-2.1c0.4-1.5,0.6-2.9,0.6-4.6c0.2-2.1,0-4.2-0.4-6
		c-0.4-2.3-1.5-4.4-2.5-6c-0.4-0.4-0.4-1-0.2-1.7c0.2-0.8,0-1.2-0.4-1.9c-1.7-1.7-3.8-2.9-6.2-3.8c-2.5-1-5.2-1.5-8.3-1.7h-1.2
		l-3.3,0.2c-0.8,0-1.5,0.2-2.3,0.2c-1.9,0.2-3.8,0.6-5.6,1.2c-2.7,1-4.8,2.3-6.7,4c-0.6,0.6-0.8,1-0.6,1.9c0.2,0.6,0,1.2-0.4,1.9
		c-1.9,2.7-2.7,5.8-2.9,9.4c-0.2,2.3,0,4.8,0.6,7.1c0.2,0.8-0.2,1.7-1,2.1c-1.2,0.6-2.5,1.5-3.3,2.5c-3.5,3.7-4.8,8.1-3.8,13.1
		c0.6,3.3,2.5,6,5.2,8.1c2.7,2.1,5.8,2.9,9.2,2.7c0.2,0,0.4,0,0.4-0.2c0-0.2,0.2-0.2,0.2-0.4l-1.9-26.7c0-0.6-0.4-0.6-0.4-0.6
		c-0.2,0-0.6,0-0.8,0h-0.4c-0.2,0-0.4,0-0.6,0l-1.7,0.2l-0.4-1.7c-0.6-2.9-0.6-5.6-0.4-8.1c0.4-2.9,1.2-5.2,2.7-7.3
		c0.4-0.4,0.8-0.8,1.5-0.8c0.4,0,0.8-0.2,1-0.4c0.2-0.2,0.4-0.4,0.6-0.6c2.7-1.5,4.8-2.5,7.5-3.3c1.9-0.4,3.8-0.8,5.8-0.8
		c2.7-0.2,5.4,0,7.7,0.6c3.3,0.8,5.8,2.1,7.9,4c0.2,0.2,0.6,0.4,1,0.4c0.6,0,1,0.4,1.5,0.8c1.5,2.3,2.5,4.8,2.7,7.9
		c0.2,2.1,0.2,4.2-0.2,6.2c0,0.4-0.2,0.8-0.2,1l-0.4,1.9l-2.1-0.2C174,44.6,173.5,44.6,173.1,44.4L173.1,44.4z"/>
</g>
<g display="none">
	<g display="inline">
		<path fill="#FFFFFF" d="M247.7,59h-0.8c-6.7,0-12.1-5.4-12.1-12.1V27.1c0-6.7,5.4-12.1,12.1-12.1h0.8c6.7,0,12.1,5.4,12.1,12.1
			v19.8C259.8,53.5,254.4,59,247.7,59z M246.9,18.1c-5,0-9,4-9,9v19.8c0,5,4,9,9,9h0.8c5,0,9-4,9-9V27.1c0-5-4-9-9-9
			C247.7,18.1,246.9,18.1,246.9,18.1z"/>
	</g>
	<g display="inline">
		<path fill="#FFFFFF" d="M261.5,76.2h-12.7V61l1.5-0.2c3.8-0.2,6.7-1.7,8.8-4.2c4.4-5.4,3.8-14,3.8-14c0-0.8,0.6-1.7,1.5-1.7
			c0.8,0,1.7,0.6,1.7,1.5c0,0.4,0.8,10-4.4,16.2c-2.3,2.9-5.6,4.6-9.4,5.2v9.2h9.6c0.8,0,1.7,0.6,1.7,1.7
			C263.3,75.8,262.3,76.2,261.5,76.2z"/>
	</g>
	<g display="inline">
		<path fill="#FFFFFF" d="M246,76.2h-12.7c-0.8,0-1.7-0.6-1.7-1.7c0-1,0.6-1.7,1.7-1.7h9.6v-9.2c-4-0.6-7.1-2.3-9.4-5.2
			c-5.2-6.2-4.4-15.8-4.4-16.2c0-0.8,0.8-1.5,1.7-1.5c0.8,0,1.5,0.8,1.5,1.7c0,0-0.8,8.8,3.8,14c2.1,2.5,5,4,8.8,4.2l1.5,0.2v15.4
			H246z"/>
	</g>
	<g display="inline">
		<path fill="#FFFFFF" d="M237.1,29.2h5.6c1,0,1.9-0.6,1.9-1.2l0,0c0-0.6-0.8-1.2-1.9-1.2h-5.6V29.2z"/>
	</g>
	<g display="inline">
		<path fill="#FFFFFF" d="M237.1,35.6h5.6c1,0,1.9-0.6,1.9-1.3l0,0c0-0.6-0.8-1.2-1.9-1.2h-5.6V35.6z"/>
	</g>
	<g display="inline">
		<path fill="#FFFFFF" d="M237.1,41.2h5.6c1,0,1.9-0.6,1.9-1.2l0,0c0-0.6-0.8-1.2-1.9-1.2h-5.6V41.2z"/>
	</g>
	<g display="inline">
		<path fill="#FFFFFF" d="M237.1,46.7h5.6c1,0,1.9-0.6,1.9-1.2l0,0c0-0.6-0.8-1.2-1.9-1.2h-5.6V46.7z"/>
	</g>
</g>
<g display="none">
	<g display="inline">
		<path fill="#FFFFFF" d="M-773.5,63.7H-841c-0.6,0-1-0.2-1.5-0.8c-0.2-0.4-0.2-1,0-1.7l8.8-14.6V15.4c0-0.8,0.6-1.7,1.7-1.7h49.4
			c0.8,0,1.7,0.6,1.7,1.7v31.5l8.8,14.6c0.2,0.4,0.2,1,0,1.7C-772.5,63.3-772.9,63.7-773.5,63.7z M-838.3,60.6h62.1l-7.7-12.5
			c-0.2-0.2-0.2-0.6-0.2-0.8V16.9h-46.2v30.2c0,0.2,0,0.6-0.2,0.8L-838.3,60.6z"/>
	</g>
	<g display="inline">
		<path fill="#FFFFFF" d="M-782.5,48.7h-49.4c-0.8,0-1.7-0.6-1.7-1.7c0-1,0.6-1.7,1.7-1.7h49.4c0.8,0,1.7,0.6,1.7,1.7
			C-780.8,48.1-781.7,48.7-782.5,48.7z"/>
	</g>
	<g display="inline">
		<path fill="#FFFFFF" d="M-785.4,56h-43.8c-0.8,0-1.7-0.6-1.7-1.7c0-1,0.6-1.7,1.7-1.7h44c0.8,0,1.7,0.6,1.7,1.7
			C-783.5,55.4-784.6,56-785.4,56z"/>
	</g>
	<g display="inline">
		<path fill="#FFFFFF" d="M-820.8,63.7c-0.2,0-0.6,0-0.8-0.2c-0.6-0.4-0.8-1.5-0.4-2.1l5.2-7.7c0.4-0.6,1.5-0.8,2.1-0.4
			c0.6,0.4,0.8,1.5,0.4,2.1l-5.2,7.7C-819.8,63.3-820.2,63.7-820.8,63.7z"/>
	</g>
	<g display="inline">
		<path fill="#FFFFFF" d="M-794.4,63.7c-0.4,0-1-0.2-1.2-0.6l-5.2-7.7c-0.4-0.6-0.4-1.7,0.4-2.1c0.6-0.4,1.7-0.4,2.1,0.4l5.2,7.7
			c0.4,0.6,0.4,1.7-0.4,2.1C-793.8,63.5-794.2,63.7-794.4,63.7z"/>
	</g>
</g>
<g display="none">
	<circle display="inline" fill="#FFFFFF" cx="-700.4" cy="61.5" r="1.5"/>
</g>
<path display="none" fill="none" stroke="#FFFFFF" stroke-width="1.5" stroke-miterlimit="10" d="M-896.2,276h-56.9
	c-2.3,0-4.2-1.9-4.2-4.2v-29.6c0-2.3,1.9-4.2,4.2-4.2h56.9c2.3,0,4.2,1.9,4.2,4.2v29.6C-892.1,274.2-894,276-896.2,276z"/>
<line display="none" fill="none" stroke="#FFFFFF" stroke-width="1.5" stroke-linecap="round" stroke-linejoin="round" stroke-miterlimit="10" x1="-957.3" y1="269.6" x2="-892.1" y2="269.6"/>
<polyline display="none" fill="none" stroke="#FFFFFF" stroke-width="1.5" stroke-linecap="round" stroke-linejoin="round" stroke-miterlimit="10" points="
	-933.1,278.1 -933.1,282.7 -916.5,282.7 -916.5,278.1 "/>
<path display="none" fill="#FFFFFF" d="M-911,289.2h-27.7c-0.6,0-1-0.4-1-1v-0.4c0-0.6,0.4-1,1-1h27.7c0.6,0,1,0.4,1,1v0.4
	C-909.8,288.8-910.4,289.2-911,289.2z"/>
<path display="none" fill="none" stroke="#FFFFFF" stroke-width="1.5" stroke-miterlimit="10" d="M-157.5,252.9
	c-1.9-7.3-8.3-12.7-16.3-12.7c-7.1,0-12.9,4.4-15.4,10.4c-1.5-1.2-3.3-2.1-5.4-2.1c-4.6,0-8.3,3.8-8.3,8.3c0,0.2,0,0.4,0,0.8
	c-5,1.7-8.3,6.7-8.3,12.1c0,6.9,5.6,12.9,12.5,12.9h39.8c8.1,0,14.6-6.9,14.6-15C-144.4,260.2-150.2,253.7-157.5,252.9z"/>
<g display="none">
	<path display="inline" fill="none" stroke="#FFFFFF" stroke-width="1.5" stroke-miterlimit="10" d="M-449.4,244.2h-13.3l-1-5
		c-0.2-0.8-1.2-1.7-2.1-1.7h-17.3c-0.8,0-1.9,0.8-1.9,1.7l-0.8,5h-1.7c-2.3,0-6.7,5.4-16.7,5.4v0.2c0,0,0,0.8,0,1.9v31.5
		c0,0.8,0.8,1,1.7,1h53.1c0.8,0,1.7,0,1.7-1v-36.5C-447.7,245.6-448.3,244.2-449.4,244.2z"/>
	
		<line display="inline" fill="none" stroke="#FFFFFF" stroke-width="1.5" stroke-miterlimit="10" x1="-505.6" y1="244.2" x2="-499" y2="244.2"/>
	
		<circle display="inline" fill="none" stroke="#FFFFFF" stroke-width="1.5" stroke-miterlimit="10" cx="-474.2" cy="264.2" r="13.3"/>
</g>
<polyline display="none" fill="none" stroke="#FFFFFF" stroke-width="1.5" stroke-linecap="round" stroke-miterlimit="10" points="
	-254.8,255 -254.8,284.8 -294.4,284.8 -294.4,246.2 -264.6,246.2 "/>
<polyline display="none" fill="none" stroke="#FFFFFF" stroke-width="1.5" stroke-linecap="round" stroke-linejoin="round" stroke-miterlimit="10" points="
	-277.7,269.4 -245.6,237.3 -245.6,253.3 "/>
<line display="none" fill="none" stroke="#FFFFFF" stroke-width="1.5" stroke-linecap="round" stroke-linejoin="round" stroke-miterlimit="10" x1="-245.6" y1="237.3" x2="-262.9" y2="237.3"/>
<path display="none" fill="none" stroke="#FFFFFF" stroke-width="1.5" stroke-miterlimit="10" d="M-345.2,283.8h-50.6
	c-2.9,0-4.8-1.7-4.8-4v-16.5c0-0.2,0-0.4,0.2-0.4l7.3-15.6c0.2-0.4,0.4-0.6,0.6-1c0.8-1.5,1.9-3.3,4.2-3.3h36.2
	c2.3,0,3.3,1.9,4.2,3.3c0.2,0.2,0.2,0.6,0.4,0.8l7.3,15.8c0,0.2,0.2,0.4,0.2,0.4v16.5C-340.4,282.1-342.3,283.8-345.2,283.8z"/>
<line display="none" fill="none" stroke="#FFFFFF" stroke-width="1.5" stroke-miterlimit="10" x1="-400.8" y1="263.1" x2="-340.4" y2="263.1"/>
<line display="none" fill="none" stroke="#FFFFFF" stroke-width="1.5" stroke-linecap="round" stroke-miterlimit="10" x1="-392.3" y1="271.5" x2="-392.3" y2="275.8"/>
<line display="none" fill="none" stroke="#FFFFFF" stroke-width="1.5" stroke-linecap="round" stroke-miterlimit="10" x1="-385.6" y1="271.5" x2="-385.6" y2="275.8"/>
<path display="none" fill="none" stroke="#FFFFFF" stroke-width="1.5" stroke-miterlimit="10" d="M-561,248.3v31.9
	c0,3.1-2.5,5.8-5.8,5.8H-631c-3.1,0-5.8-2.5-5.8-5.8v-31.9c0-3.1,2.5-5.8,5.8-5.8h64.2C-563.5,242.5-561,245-561,248.3z"/>
<line display="none" fill="none" stroke="#FFFFFF" stroke-width="1.5" stroke-miterlimit="10" x1="-568.8" y1="242.5" x2="-568.8" y2="285.8"/>
<line display="none" fill="none" stroke="#FFFFFF" stroke-width="1.5" stroke-miterlimit="10" x1="-629" y1="242.5" x2="-629" y2="285.8"/>
<path display="none" fill="none" stroke="#FFFFFF" stroke-width="1.5" stroke-miterlimit="10" d="M-689.4,287.5h-21.9
	c-2.3,0-4-1.9-4-4v-44.2c0-2.3,1.9-4,4-4h21.9c2.3,0,4,1.9,4,4v44.2C-685.4,285.6-687.1,287.5-689.4,287.5z"/>
<line display="none" fill="none" stroke="#FFFFFF" stroke-miterlimit="10" x1="-685.4" y1="282.1" x2="-715.4" y2="282.1"/>
<line display="none" fill="none" stroke="#FFFFFF" stroke-miterlimit="10" x1="-685.4" y1="240.4" x2="-715.4" y2="240.4"/>
<path display="none" fill="none" stroke="#FFFFFF" stroke-width="1.5" stroke-miterlimit="10" d="M-42.5,248.8
	c-3.3-5.6-7.7-8.5-12.9-8.5c-5.8,0-10.6,3.8-10.6,3.8c-0.8,0.6-2.7,1.2-3.8,1.2h-3.8c-1,0-2.9-0.6-3.8-1.2
	c-0.2-0.2-4.8-3.8-10.6-3.8c-5.2,0-9.6,2.9-12.9,8.5c-9.2,15.6-5.6,32.5-5.6,33.1c0.8,5.6,4,6.7,6.2,6.7c0.2,0,0.4,0,0.6,0
	c4-0.4,12.5-12.7,12.9-13.1c0.8-0.8,2.3-1.7,3.3-1.7h22.7c1,0,2.7,0.8,3.3,1.7c0.4,0.4,9.2,12.9,13.1,13.3c0.2,0,0.4,0,0.6,0
	c2.3,0,5.4-1.3,6.2-6.7C-36.9,281.7-33.1,264.4-42.5,248.8z"/>
<path display="none" fill="none" stroke="#FFFFFF" stroke-width="0.75" stroke-linecap="round" stroke-linejoin="round" stroke-miterlimit="10" d="
	M-59.2,266c-1.7,0-2.9-1.2-2.9-2.9c0-1.7,1.2-2.9,2.9-2.9s2.9,1.2,2.9,2.9C-56.2,264.8-57.5,266-59.2,266z"/>
<path display="none" fill="none" stroke="#FFFFFF" stroke-width="0.75" stroke-linecap="round" stroke-linejoin="round" stroke-miterlimit="10" d="
	M-59.2,257.3c-1.7,0-2.9-1.2-2.9-2.9s1.2-2.9,2.9-2.9s2.9,1.2,2.9,2.9S-57.5,257.3-59.2,257.3z"/>
<circle display="none" fill="none" stroke="#FFFFFF" stroke-width="0.75" stroke-linecap="round" stroke-linejoin="round" stroke-miterlimit="10" cx="-50.4" cy="258.8" r="2.9"/>
<line display="none" fill="none" stroke="#FFFFFF" stroke-width="0.75" stroke-linecap="round" stroke-linejoin="round" stroke-miterlimit="10" x1="-88.3" y1="252.7" x2="-88.3" y2="264.8"/>
<line display="none" fill="none" stroke="#FFFFFF" stroke-width="0.75" stroke-linecap="round" stroke-linejoin="round" stroke-miterlimit="10" x1="-94.4" y1="258.8" x2="-82.3" y2="258.8"/>
<path display="none" fill="none" stroke="#FFFFFF" stroke-width="1.5" stroke-miterlimit="10" d="M76.5,240c-0.8-0.8-2.3-0.8-3.3,0
	c-0.8,0.8-1.7,1.7-1.7,1.7v0.2c0,0,0.8,0.8,1.7,1.7l1,1c0.8,0.8,1.7,1.7,1.7,1.7H76c0,0,0.8-0.8,1.7-1.7c0.8-0.8,0.8-2.3,0-3.1
	L76.5,240z"/>
<polygon display="none" fill="none" stroke="#FFFFFF" stroke-width="1.5" stroke-miterlimit="10" points="71.5,241.7 55.2,257.9 
	59.8,262.3 76,246 "/>
<polyline display="none" fill="none" stroke="#FFFFFF" stroke-width="1.5" stroke-linejoin="round" stroke-miterlimit="10" points="
	55.2,257.9 51.9,265.6 51.9,265.6 59.8,262.3 "/>
<path display="none" fill="none" stroke="#FFFFFF" stroke-width="1.5" stroke-linejoin="round" stroke-miterlimit="10" d="
	M70.8,286.5h-65c-2.3,0-4.2-1.9-4.2-4.2v-35.6c0-2.3,1.9-4.2,4.2-4.2h65c2.3,0,4.2,1.9,4.2,4.2v35.6C75,284.6,73.1,286.5,70.8,286.5
	z"/>
<line display="none" fill="none" stroke="#FFFFFF" stroke-width="1.5" stroke-miterlimit="10" x1="14.2" y1="286.5" x2="14.2" y2="242.7"/>
<path display="none" fill="none" stroke="#FFFFFF" stroke-width="1.5" stroke-miterlimit="10" d="M158.7,239.6c0.4,0,0.8,0,1.2,0
	c2.9,0.2,5.8,0.6,8.8,1.9c2.5,1,4.8,2.3,6.7,4.2c1,1,1.2,2.1,0.8,3.3c0,0.2,0,0.2,0,0.4c1.5,2.1,2.3,4.2,2.7,6.7
	c0.4,2.1,0.6,4.4,0.4,6.5c0,1.7-0.4,3.3-0.6,4.8c0,0.2,0,0.2,0.2,0.2c1.7,0.8,3.1,2.1,4.4,3.3c1.9,2.1,3.1,4.6,3.8,7.3
	c1.5,7.3-2.5,14.6-9.4,17.5c-2.3,0.8-4.4,1.2-6.9,1c-1,0-1.9-0.8-1.9-2.1c0-0.8,0-1.9,0.2-2.7c0.2-1.7,0.2-3.1,0.4-4.8
	c0.2-1.9,0.2-3.8,0.4-5.4c0.2-1.9,0.2-3.5,0.4-5.4c0.2-1.9,0.2-3.8,0.4-5.4c0-1,0.2-2.1,0.2-3.1c0-1.2,1-2.1,2.3-2.1
	c0.6,0,1.2,0.2,1.9,0.2c0-0.4,0.2-1,0.2-1.5c0.2-1.9,0.4-3.8,0.2-5.8c-0.2-2.5-1-5-2.5-7.3l-0.2-0.2c-0.6,0-1.2-0.4-1.9-0.8
	c-2.1-1.9-4.4-2.9-7.1-3.5c-2.5-0.6-5-0.6-7.3-0.6c-1.9,0-3.8,0.2-5.4,0.8c-2.1,0.6-4.2,1.5-5.8,2.9c-0.2,0.2-0.4,0.4-0.6,0.6
	c-0.6,0.4-1.2,0.8-1.9,0.8c-0.2,0-0.2,0.2-0.2,0.2c-1.5,2.1-2.1,4.4-2.5,6.7c-0.4,2.5-0.2,5.2,0.4,7.7c0,0,0,0,0,0.2
	c0.2,0,0.6,0,0.8-0.2c0.4,0,0.8-0.2,1.5-0.2c1.2,0,2.1,0.8,2.1,2.1c0.2,3.1,0.4,6.2,0.6,9.4c0.2,2.5,0.4,5,0.4,7.7
	c0.2,2.7,0.4,5.6,0.6,8.3c0,0.4,0,1,0,1.5c0,1.3-0.8,2.3-2.1,2.3c-3.8,0.2-7.1-0.8-10.2-3.1s-5-5.2-5.8-9
	c-1.2-5.6,0.2-10.4,4.2-14.6c1-1,2.3-2.1,3.8-2.7c0.2,0,0.2-0.2,0.2-0.4c-0.6-2.5-0.8-5-0.6-7.5c0.2-3.8,1.2-7.1,3.1-10.2
	c0.2-0.2,0.2-0.4,0.2-0.6c-0.2-1.2,0-2.5,1-3.3c2.1-1.9,4.6-3.3,7.1-4.4c1.9-0.6,4-1.2,6-1.5c1-0.2,2.3-0.2,3.3-0.2h0.2
	C157.3,239.6,158.1,239.6,158.7,239.6z"/>
<g display="none">
	<path display="inline" fill="none" stroke="#FFFFFF" stroke-width="1.5" stroke-miterlimit="10" d="M247.7,280.4h-0.8
		c-5.8,0-10.4-4.8-10.4-10.4v-19.8c0-5.8,4.8-10.4,10.4-10.4h0.8c5.8,0,10.4,4.8,10.4,10.4V270C258.3,275.6,253.5,280.4,247.7,280.4
		z"/>
	<path display="inline" fill="none" stroke="#FFFFFF" stroke-width="1.5" stroke-linecap="round" stroke-miterlimit="10" d="
		M264,265.6c0,0,1.9,18.7-13.8,19.8v12.1h11.2"/>
	<path display="inline" fill="none" stroke="#FFFFFF" stroke-width="1.5" stroke-linecap="round" stroke-miterlimit="10" d="
		M230.6,265.6c0,0-1.9,18.7,13.8,19.8v12.1h-11"/>
	<path display="inline" fill="#FFFFFF" d="M237.1,252.1h5.6c1,0,1.9-0.6,1.9-1.2l0,0c0-0.6-0.8-1.2-1.9-1.2h-5.6V252.1z"/>
	<path display="inline" fill="#FFFFFF" d="M237.1,258.5h5.6c1,0,1.9-0.6,1.9-1.2l0,0c0-0.6-0.8-1.2-1.9-1.2h-5.6V258.5z"/>
	<path display="inline" fill="#FFFFFF" d="M237.1,264.2h5.6c1,0,1.9-0.6,1.9-1.2l0,0c0-0.6-0.8-1.2-1.9-1.2h-5.6V264.2z"/>
	<path display="inline" fill="#FFFFFF" d="M237.1,269.6h5.6c1,0,1.9-0.6,1.9-1.2l0,0c0-0.6-0.8-1.2-1.9-1.2h-5.6V269.6z"/>
</g>
<g display="none">
	
		<polygon display="inline" fill="none" stroke="#FFFFFF" stroke-width="1.5" stroke-linecap="round" stroke-linejoin="round" stroke-miterlimit="10" points="
		-782.5,270.2 -782.5,238.3 -806.5,238.3 -808.1,238.3 -832.1,238.3 -832.1,270.2 -841,285 -808.1,285 -806.5,285 -773.5,285 	"/>
	
		<line display="inline" fill="none" stroke="#FFFFFF" stroke-width="1.5" stroke-linecap="round" stroke-linejoin="round" stroke-miterlimit="10" x1="-832.1" y1="270.2" x2="-782.5" y2="270.2"/>
	
		<line display="inline" fill="none" stroke="#FFFFFF" stroke-width="1.5" stroke-linecap="round" stroke-linejoin="round" stroke-miterlimit="10" x1="-829.2" y1="277.5" x2="-785.4" y2="277.5"/>
	
		<line display="inline" fill="none" stroke="#FFFFFF" stroke-width="1.5" stroke-linecap="round" stroke-linejoin="round" stroke-miterlimit="10" x1="-815.4" y1="277.5" x2="-820.8" y2="285"/>
	
		<line display="inline" fill="none" stroke="#FFFFFF" stroke-width="1.5" stroke-linecap="round" stroke-linejoin="round" stroke-miterlimit="10" x1="-799.6" y1="277.5" x2="-794.4" y2="285"/>
</g>
<circle display="none" fill="#FFFFFF" cx="-700.4" cy="284.4" r="1.5"/>
</svg>
